<svg xmlns="http://www.w3.org/2000/svg" width="121" height="199.672" viewBox="0 0 121 199.672">
  <g id="Group_913" data-name="Group 913" transform="translate(-495.503 -230.631)">
    <text style="text-align: center;font-weight:400; font-family:Roboto Condensed" id="Semi-skilled_-_16.47_" data-name="Semi-skilled
- 16.47% " transform="translate(495.503 400.303)" fill="#0054a5" font-size="21" font-family="RobotoCondensed-Regular, Roboto"><tspan x="0" y="0">SEMI-SKILLED</tspan><tspan x="0" y="25">- 16.47% </tspan></text>
    <g id="opportunity-1658250-1407148" transform="translate(495.691 230.631)">
      <path id="Path_3920" data-name="Path 3920" d="M90.282,144.177c.8-13.053,1.427-14.529,8.089-18.885-3.037-3.185-4.667-6.879-3.793-11.349a11.549,11.549,0,0,1,4.484-7.156,11.768,11.768,0,0,1,15.542,1.1c4.716,4.751,4.568,11.112-.523,17.428,4.771,2.756,7.753,6.716,7.907,12.391.074,2.716.02,5.432.02,8.149v2.124l.647.385a41.123,41.123,0,0,0,3.58-4.089c1.467-2.178,2.637-4.553,4-6.805,1.926-3.19,5.245-4.306,8.208-2.83,2.938,1.462,3.98,4.479,2.7,8.005-1.1,3.013-2.287,5.99-3.373,9.008a14.168,14.168,0,0,1-7.388,8.208c-10.1,4.983-20.149,10.075-30.273,15.013-3.551,1.733-5.867,4.138-6,8.262-.054,1.649-1.042,2.257-2.612,2.252-7.408-.02-14.816.015-22.223-.025-2.222-.015-2.968-1.022-2.272-3.2,2.657-8.3,5.324-16.584,8.119-24.836A18.5,18.5,0,0,1,88.6,144.785C89.156,144.636,89.685,144.4,90.282,144.177Zm-.074,37.251c.993-5.027,3.911-8.055,8.188-10.134,10.05-4.889,20.09-9.8,29.987-14.993a13.541,13.541,0,0,0,5.205-5.24,53.445,53.445,0,0,0,3.763-9.887c.262-.835-.41-1.965-.657-2.958-1.027.42-2.445.548-3,1.309-1.491,2.045-2.6,4.371-3.9,6.568a13.762,13.762,0,0,1-7.008,6.321c-6.934,2.573-13.872,5.131-20.845,7.6a5.015,5.015,0,0,1-6.578-2.751c-1.022-2.563.123-5.126,2.958-6.43,2.163-1,4.376-1.891,6.558-2.845,1.2-.523,2.746-.983,2.1-2.726-.593-1.62-1.99-1.328-3.348-.909-4.79,1.482-9.581,2.958-14.4,4.366-4.914,1.437-8.44,4.43-10.139,9.27-2.529,7.205-4.889,14.47-7.3,21.72a9.219,9.219,0,0,0-.2,1.729H88.317C88.894,181.428,89.462,181.428,90.208,181.428Zm19.7-52.867c-.025.069-.084.153-.069.207a3.368,3.368,0,0,0,.365.9c2.064,2.761,1.975,5.709,1.091,8.879a12.576,12.576,0,0,0-.464,5.3c.612,3.58-.306,5.931-3.585,7.432-2.242,1.027-4.553,1.906-6.781,2.963-.558.262-.909.958-1.353,1.452.716.128,1.536.553,2.138.346q7.808-2.711,15.522-5.669a2.345,2.345,0,0,0,1.21-1.724c.109-3.783.178-7.576.015-11.354A9.113,9.113,0,0,0,109.913,128.561Zm-3.729-14.692c-2.124.667-4.3,1.314-6.445,2.045-1.21.415-1.482,1.235-1.086,2.519a7.867,7.867,0,0,0,14.85.775c.746-1.763.489-3-1.462-3.6C110.179,115.05,108.308,114.5,106.184,113.869Zm-3.19,14.658c-6.025.425-10.055,6.084-8.262,14.381l7.26-2.212C100.416,136.478,99.487,132.389,102.994,128.527Zm3.2,2.484a7.384,7.384,0,0,0,.514,9.363C107.5,137.085,109.058,134.088,106.189,131.011Zm5.343-20.327a6.92,6.92,0,0,0-10.578,0Z" transform="translate(-46.926 -64.901)" fill="#2460a8"/>
      <path id="Path_3921" data-name="Path 3921" d="M214.45,66.718c-.4-.247-.459-.321-.528-.326-8.514-.262-7.324-.607-7.373,6.766-.025,4.03-.025,8.065-.039,12.094a3.263,3.263,0,0,1-.178.637h-3.669c0-6.208-.143-12.361.064-18.5.1-2.889,2.736-4.924,5.788-5.022,2.217-.069,4.445.054,6.662-.04,2.247-.1,3.551.647,3.111,3.788,2.533-2.109,4.608-3.842,6.894-5.743-2.267-1.891-4.316-3.605-6.761-5.645.356,3.368-1.368,3.8-3.758,3.7-3.205-.133-6.42-.069-9.625-.01-4.074.074-6.341,2.4-6.385,6.519-.035,2.958,0,5.911,0,9.067h-3.8c0-3.808-.351-7.684.089-11.467.548-4.692,4.706-7.961,9.512-8.07,3.2-.074,6.405-.015,10.01-.015a20.028,20.028,0,0,1,.049-3.467,3.442,3.442,0,0,1,1.2-2.168,2.444,2.444,0,0,1,2.193.385c3.847,3.092,7.62,6.277,11.393,9.462,1.551,1.314,1.1,2.543-.286,3.684-3.61,2.993-7.186,6.035-10.845,8.958-.612.489-1.847.938-2.361.647a3.821,3.821,0,0,1-1.294-2.346A12.827,12.827,0,0,1,214.45,66.718Z" transform="translate(-111.699 -36.718)" fill="#2460a8"/>
      <path id="Path_3922" data-name="Path 3922" d="M38.487,54.735c-2.519,2.1-4.524,3.778-6.761,5.645,2.2,1.857,4.242,3.575,6.771,5.7-.5-3.659,1.536-3.827,3.887-3.724,2.054.094,4.119-.044,6.173.049,3.027.143,5.546,2.262,5.63,5.2.178,6.065.054,12.144.054,18.347H50.324V76.455q0-3.83.01-7.655c0-1.6-.741-2.464-2.38-2.469-1.719,0-3.437,0-5.511,0a19.693,19.693,0,0,1-.049,3.482,3.418,3.418,0,0,1-1.23,2.153,2.487,2.487,0,0,1-2.188-.415c-3.847-3.092-7.625-6.277-11.4-9.462-1.4-1.185-1.19-2.405.143-3.516,3.664-3.057,7.3-6.148,11.033-9.131.607-.489,1.852-.909,2.361-.612a3.844,3.844,0,0,1,1.274,2.361,16.375,16.375,0,0,1,.049,3.284c3.052,0,5.981-.01,8.914,0,6.869.025,10.85,4.045,10.84,10.929,0,2.859,0,5.719,0,8.7H58.241c0-2.938,0-5.872,0-8.805-.015-4.563-2.272-6.85-6.8-6.874-3.126-.015-6.262-.1-9.383.03C39.672,58.558,38.151,57.96,38.487,54.735Z" transform="translate(-26.619 -36.741)" fill="#2460a8"/>
      <path id="Path_3923" data-name="Path 3923" d="M134.687,29.469c-1.921,2.306-3.59,4.316-5.645,6.79,3.432-.415,3.8,1.378,3.714,3.724-.114,3.269-.03,6.539-.03,9.966h-3.852V40.211a17.774,17.774,0,0,1-3.368-.049,3.828,3.828,0,0,1-2.375-1.24c-.306-.5.1-1.758.583-2.366,2.924-3.659,5.971-7.215,8.949-10.835,1.368-1.659,2.657-1.709,4.04-.035,2.983,3.61,6.025,7.176,8.944,10.835.489.612.924,1.852.627,2.361a3.826,3.826,0,0,1-2.356,1.269,15.758,15.758,0,0,1-3.21.049V49.93h-4.025c0-3.946-.178-7.8.123-11.62.074-.963,1.674-1.8,2.815-2.943C138.287,33.776,136.539,31.687,134.687,29.469Z" transform="translate(-75.414 -24.453)" fill="#2460a8"/>
      <path id="Path_3924" data-name="Path 3924" d="M104.453,97.62c.879,1.141,1.561,2.025,2.4,3.111-.889.79-1.709,1.526-2.771,2.469-.849-.953-1.645-1.847-2.588-2.909C102.409,99.462,103.293,98.667,104.453,97.62Z" transform="translate(-64.515 -61.487)" fill="#2460a8"/>
      <path id="Path_3925" data-name="Path 3925" d="M161.11,90.223c.331-1.294.607-2.38.968-3.773,1.324.444,2.5.84,3.906,1.309-.533,1.3-.983,2.39-1.486,3.62C163.352,90.984,162.374,90.653,161.11,90.223Z" transform="translate(-94.691 -55.833)" fill="#2460a8"/>
      <path id="Path_3926" data-name="Path 3926" d="M188.61,108.741c-.815-.9-1.551-1.724-2.41-2.682,1.017-.82,1.9-1.526,3.017-2.43.617.667,1.462,1.575,2.5,2.7C190.63,107.171,189.692,107.9,188.61,108.741Z" transform="translate(-107.391 -64.528)" fill="#2460a8"/>
      <path id="Path_3927" data-name="Path 3927" d="M96.5,111.906c-.726,1.082-1.309,1.951-2.015,3l-3.373-1.946c.815-1.205,1.521-2.237,2.311-3.408C94.508,110.38,95.4,111.061,96.5,111.906Z" transform="translate(-59.261 -67.525)" fill="#2460a8"/>
      <path id="Path_3928" data-name="Path 3928" d="M204.6,131.59c.286,1.457.5,2.553.77,3.946-1.328.2-2.479.365-3.783.563-.267-1.185-.494-2.193-.78-3.452C202.03,132.311,203.176,131.99,204.6,131.59Z" transform="translate(-114.785 -78.68)" fill="#2460a8"/>
      <path id="Path_3929" data-name="Path 3929" d="M134.455,88.812c-1.353.252-2.3.43-3.452.642-.326-1.21-.632-2.356-.993-3.7,1.333-.277,2.489-.519,3.931-.82C134.129,86.318,134.277,87.468,134.455,88.812Z" transform="translate(-78.95 -55.063)" fill="#2460a8"/>
      <path id="Path_3930" data-name="Path 3930" d="M116.51,94.5c-.7-1.2-1.269-2.173-1.98-3.4,1.21-.617,2.316-1.185,3.64-1.862.519,1.205.958,2.227,1.521,3.531Z" transform="translate(-71.115 -57.245)" fill="#2460a8"/>
      <path id="Path_3931" data-name="Path 3931" d="M195.15,118.165c1.185-.691,2.153-1.259,3.378-1.975.622,1.215,1.185,2.321,1.862,3.645-1.279.543-2.361,1.007-3.61,1.536C196.232,120.3,195.762,119.375,195.15,118.165Z" transform="translate(-111.921 -70.886)" fill="#2460a8"/>
      <path id="Path_3932" data-name="Path 3932" d="M206.661,148.665c-.074,1.284-.143,2.4-.222,3.813-1.309-.1-2.464-.2-3.709-.3V148.66C203.989,148.665,205.155,148.665,206.661,148.665Z" transform="translate(-115.757 -87.32)" fill="#2460a8"/>
      <path id="Path_3933" data-name="Path 3933" d="M84.006,160.46c-.257-1.393-.474-2.553-.746-4l3.822-.425c.247,1.225.449,2.232.686,3.417C86.5,159.793,85.364,160.1,84.006,160.46Z" transform="translate(-55.288 -91.056)" fill="#2460a8"/>
      <path id="Path_3934" data-name="Path 3934" d="M87.47,171.5c1.314-.563,2.346-1.007,3.605-1.546.553,1.091,1.047,2.059,1.64,3.23-1.175.682-2.2,1.274-3.368,1.951C88.71,173.9,88.161,172.839,87.47,171.5Z" transform="translate(-57.418 -98.096)" fill="#2460a8"/>
      <path id="Path_3935" data-name="Path 3935" d="M150.333,88.508H147V84.76h3.793C150.62,86.123,150.482,87.284,150.333,88.508Z" transform="translate(-87.549 -54.977)" fill="#2460a8"/>
      <path id="Path_3936" data-name="Path 3936" d="M176.541,92.77c1.235.83,2.217,1.491,3.4,2.277-.849,1.121-1.561,2.059-2.341,3.092-1.017-.662-1.887-1.225-3.008-1.956C175.2,95.131,175.775,94.113,176.541,92.77Z" transform="translate(-101.514 -59.032)" fill="#2460a8"/>
      <path id="Path_3937" data-name="Path 3937" d="M88.479,128.9c-1.437-.4-2.435-.682-3.7-1.037.44-1.309.83-2.479,1.294-3.862,1.328.553,2.415,1,3.64,1.506C89.269,126.726,88.894,127.753,88.479,128.9Z" transform="translate(-56.057 -74.839)" fill="#2460a8"/>
      <path id="Path_3938" data-name="Path 3938" d="M82.908,140.18c1.457.2,2.5.336,3.669.494v3.4H82.72C82.779,142.862,82.834,141.676,82.908,140.18Z" transform="translate(-55.014 -83.028)" fill="#2460a8"/>
    </g>
  </g>
</svg>
