<svg xmlns="http://www.w3.org/2000/svg" width="374.509" height="104.182" viewBox="0 0 374.509 104.182">
  <g id="Group_920" data-name="Group 920" transform="translate(-56.221 -121.475)">
    <g id="Group_918" data-name="Group 918">
      <g id="Group_756" data-name="Group 756" transform="translate(165.83 203.555)">
        <text style="text-align: center;font-weight:400; font-family:Roboto Condensed" id="Less_skilled_-_45.43_" data-name="Less skilled
- 45.43% " transform="translate(0.394 9.101)" fill="#0054a5" font-size="9" font-family="RobotoCondensed-Regular, Roboto"><tspan x="0" y="0">LESS SKILLED</tspan><tspan x="0" y="11">- 45.43% </tspan></text>
      </g>
      <g id="ASSSAASAS" transform="translate(158.303 123.048)">
        <g id="Group_761" data-name="Group 761" transform="translate(0 0)">
          <path id="Path_3950" data-name="Path 3950" d="M47.834,59.864a21.9,21.9,0,0,1-13.63.247c-3.375-1.079-6.305-2.771-7.711-6.285-.178-.445-.544-.515-.921-.653a10.438,10.438,0,0,1-3.365-1.95,6.159,6.159,0,0,1-2.2-5.127c.2-4.583,1.336-8.819,4.424-12.343.683-.772.208-1.406.03-2.079a6.365,6.365,0,0,1,6.394-8.047,5.819,5.819,0,0,1,3.1,1.079c.416.3.683.4,1.1-.03a7.994,7.994,0,0,1,6.592-2.336,8.386,8.386,0,0,1,4.514,2.207c.307.3.5.445.99.178,3.514-1.94,6.206-1.336,8.809,1.9l.8,2.019c.04.129.069.267.109.4a3.163,3.163,0,0,0,.02,1.4c-.723,1.811-.346,3.237.9,4.86,2.653,3.445,3.385,7.612,3.276,11.868-.069,2.445-1.7,3.989-3.7,5.147-2.3,1.336-2.316,1.316-3.84,3.445A13.693,13.693,0,0,1,47.834,59.864Zm-7.473-.683a17.363,17.363,0,0,0,8.671-2.029c3.286-1.811,4.4-4.038,3.88-7.711-.04-.277-.049-.554-.069-.822a22.9,22.9,0,0,0-4.593-12.363c-.782-1.059-.9-1.059-1.722-.089a7.825,7.825,0,0,1-11.868-.208c-.653-.851-1.02-.742-1.544-.01-.158.228-.346.426-.515.643-3.118,4.038-4.207,8.71-4.543,13.7-.228,3.445,1.415,5.5,4.226,6.978A16.809,16.809,0,0,0,40.36,59.181ZM40.7,36.9a6.353,6.353,0,1,0-6.167-6.216A6.282,6.282,0,0,0,40.7,36.9Zm10.056-.445c.663,1.247,1.287,2.346,1.831,3.474a27.8,27.8,0,0,1,2.3,10.452c.059.93.366,1,1.049.624a5.775,5.775,0,0,0,3.108-3.1,9.346,9.346,0,0,0,0-3.989,16.8,16.8,0,0,0-3.108-8.186c-.525-.742-.97-1.148-1.871-.4A5.645,5.645,0,0,1,50.753,36.454Zm-20.38,0a5.479,5.479,0,0,1-3.4-1.178c-.8-.713-1.158-.376-1.663.287A18.882,18.882,0,0,0,21.9,45.353c-.277,2.682.881,4.355,3.1,5.553.782.426,1.188.436,1.217-.653a29.394,29.394,0,0,1,1.178-7.582A23.238,23.238,0,0,1,30.373,36.454Zm-4.217-7.285c-.02,3.722,2.415,5.82,5.157,5.325a1.771,1.771,0,0,0,1.534-2.247,7.784,7.784,0,0,1,.386-4.652,1.052,1.052,0,0,0-.574-1.534,4.1,4.1,0,0,0-4.187-.04A4.171,4.171,0,0,0,26.157,29.169Zm28.823.93A4.385,4.385,0,0,0,48.566,26c-.624.337-.851.663-.515,1.386a8.04,8.04,0,0,1,.426,5.1c-.247,1.208.158,1.8,1.4,2A4.377,4.377,0,0,0,54.98,30.1Z" transform="translate(-9.015 -9.79)" fill="#4559aa"/>
          <path id="Path_3951" data-name="Path 3951" d="M34.035,12.144c-.8.188-1.6.366-2.405.554-.713.168-1.574.584-1.871-.465-.3-1.069.723-1.1,1.376-1.366.366-.139.742-.238,1.118-.346a32.249,32.249,0,0,1,18.678,1.148,31.021,31.021,0,0,1,13.422,9.591c.594.732,1.188,1.475,1.782,2.207.3.465.594.94.891,1.406l1.1,1.871c.5,1.118,1.02,2.227,1.524,3.346a34.83,34.83,0,0,1,2.039,12.076,31.178,31.178,0,0,1-6.176,18.084c-.574.782-.723,1.287.129,1.93a13.383,13.383,0,0,1,1.772,1.742,1.392,1.392,0,0,1-.723,2.455c-2.821.594-5.662,1.128-8.5,1.613-1.178.208-1.91-.455-1.722-1.623q.713-4.38,1.623-8.73a1.384,1.384,0,0,1,2.425-.594,23.9,23.9,0,0,1,2.178,2.187c.6.723.96.515,1.415-.129a30.018,30.018,0,0,0,5.375-13.016,28.35,28.35,0,0,0-1.9-15.778,17.056,17.056,0,0,0-2.019-4.137,27.336,27.336,0,0,0-7.354-8.334c-.148-.119-.287-.277-.515-.158h0c.049-.376-.267-.386-.485-.495a2.9,2.9,0,0,0-1.881-1.237,27.217,27.217,0,0,0-11.2-4.108,26.719,26.719,0,0,0-9.512.178.54.54,0,0,0-.525.148ZM65.323,64.793c.049-.119.1-.247.148-.366-.94-.891-1.891-1.772-2.821-2.663-.94-.911-1.861-1.841-2.96-2.92-.416,2.326-.762,4.365-1.168,6.394-.139.693.148.762.673.673Q62.27,65.362,65.323,64.793Z" transform="translate(-9.114 -9.661)" fill="#4559aa"/>
          <path id="Path_3952" data-name="Path 3952" d="M43.345,73.376A33.336,33.336,0,0,1,28.29,70.793a31.816,31.816,0,0,1-19.2-32.5,31.024,31.024,0,0,1,6.325-15.877c.554-.713.6-1.148-.109-1.732-.584-.465-1.039-1.089-1.584-1.6a1.6,1.6,0,0,1-.624-1.673,1.559,1.559,0,0,1,1.406-1.1c2.722-.5,5.434-1.059,8.156-1.554,1.2-.218,1.99.465,1.8,1.683-.455,2.88-.99,5.761-1.594,8.621a1.376,1.376,0,0,1-2.4.693,22.005,22.005,0,0,1-2.108-2.079c-.663-.772-1.059-.752-1.673.1a29.156,29.156,0,0,0-5.474,13.105Q9.108,52.308,20.223,63.31a28.758,28.758,0,0,0,10.848,6.642,25.278,25.278,0,0,0,11.234,1.534,15.051,15.051,0,0,0,2.574-.277.621.621,0,0,0,.6-.178.622.622,0,0,0,.94-.04c.762-.148,1.524-.307,2.286-.455.534-.109,1.178-.356,1.386.386a1.058,1.058,0,0,1-.95,1.366c-1.683.356-3.385.643-5.078.96C43.811,73.287,43.573,73.337,43.345,73.376ZM21.2,23.965c.426-2.385.762-4.4,1.158-6.4.119-.584.04-.841-.594-.723-1.861.337-3.732.663-5.592,1.01-.534.1-.683.376-.257.8C17.61,20.342,19.3,22.045,21.2,23.965Z" transform="translate(-8.902 -9.712)" fill="#4559aa"/>
          <path id="Path_3953" data-name="Path 3953" d="M40.443,59.315a16.941,16.941,0,0,1-8.1-1.91c-2.811-1.475-4.454-3.544-4.227-6.978.337-4.989,1.425-9.661,4.543-13.7.168-.218.356-.426.515-.643.525-.732.891-.841,1.544.01A7.839,7.839,0,0,0,46.59,36.3c.822-.96.94-.97,1.722.089A22.9,22.9,0,0,1,52.9,48.754c.02.277.03.554.069.822.525,3.672-.584,5.9-3.88,7.711A17.209,17.209,0,0,1,40.443,59.315Z" transform="translate(-9.098 -9.924)" fill="#83c4fc"/>
          <path id="Path_3954" data-name="Path 3954" d="M40.847,36.919a6.352,6.352,0,1,1,6.167-6.364A6.242,6.242,0,0,1,40.847,36.919Z" transform="translate(-9.165 -9.809)" fill="#fdfdfd"/>
          <path id="Path_3955" data-name="Path 3955" d="M51.07,36.584a5.669,5.669,0,0,0,3.306-1.118c.9-.752,1.346-.346,1.871.4a16.838,16.838,0,0,1,3.108,8.186,9.507,9.507,0,0,1,0,3.989,5.775,5.775,0,0,1-3.108,3.1c-.683.376-.99.307-1.049-.624a27.952,27.952,0,0,0-2.3-10.452C52.357,38.92,51.733,37.832,51.07,36.584Z" transform="translate(-9.332 -9.92)" fill="#f4d088"/>
          <path id="Path_3956" data-name="Path 3956" d="M30.392,36.584A23.381,23.381,0,0,0,27.413,42.8a29.394,29.394,0,0,0-1.178,7.582c-.03,1.1-.436,1.079-1.217.653a5.2,5.2,0,0,1-3.1-5.553,18.851,18.851,0,0,1,3.415-9.789c.495-.663.851-.99,1.663-.287A5.562,5.562,0,0,0,30.392,36.584Z" transform="translate(-9.034 -9.919)" fill="#f4d088"/>
          <path id="Path_3957" data-name="Path 3957" d="M26.22,29.2a4.187,4.187,0,0,1,2.316-3.148,4.1,4.1,0,0,1,4.187.04,1.052,1.052,0,0,1,.574,1.534,7.784,7.784,0,0,0-.386,4.652,1.771,1.771,0,0,1-1.534,2.247C28.625,35.022,26.2,32.914,26.22,29.2Z" transform="translate(-9.079 -9.822)" fill="#fdfdfd"/>
          <path id="Path_3958" data-name="Path 3958" d="M55.267,30.132a4.386,4.386,0,0,1-5.107,4.395c-1.237-.2-1.643-.8-1.4-2a8.04,8.04,0,0,0-.426-5.1c-.337-.732-.109-1.059.515-1.386A4.383,4.383,0,0,1,55.267,30.132Z" transform="translate(-9.302 -9.822)" fill="#fdfdfd"/>
          <path id="Path_3959" data-name="Path 3959" d="M65.62,65.3c-2.039.376-4.078.752-6.127,1.109-.515.089-.812.02-.673-.673.416-2.029.752-4.068,1.168-6.394,1.089,1.079,2.009,2.009,2.96,2.92.93.9,1.881,1.782,2.821,2.663A2.126,2.126,0,0,1,65.62,65.3Z" transform="translate(-9.41 -10.167)" fill="#83c4fc"/>
          <path id="Path_3960" data-name="Path 3960" d="M21.273,23.986c-1.9-1.92-3.593-3.613-5.286-5.315-.426-.426-.277-.7.257-.8,1.861-.346,3.722-.673,5.592-1.01.633-.119.713.139.594.723C22.035,19.582,21.7,21.6,21.273,23.986Z" transform="translate(-8.972 -9.734)" fill="#83c4fc"/>
        </g>
      </g>
    </g>
    <g id="Group_916" data-name="Group 916">
      <text style="text-align: center;font-weight:400; font-family:Roboto Condensed" id="PROFESSIONAL_-_0.41_" data-name="PROFESSIONAL
- 0.41% " transform="translate(372.225 212.656)" fill="#0054a5" font-size="9" font-family="RobotoCondensed-Regular, Roboto"><tspan x="0" y="0">PROFESSIONAL</tspan><tspan x="0" y="11">- 0.41% </tspan></text>
      <g id="sagea" transform="translate(370.057 122.227)">
        <g id="Group_820" data-name="Group 820" transform="translate(0)">
          <path id="Path_3961" data-name="Path 3961" d="M40.915,46.739c.991-1.1,1.907-2.094,2.8-3.123a1.324,1.324,0,0,1,2.02-.187A7.774,7.774,0,0,1,49.5,50.142c0,3.319.009,6.638,0,9.958,0,1.954-.009,1.954-1.907,2.048-.178.009-.346.047-.486.056,0,2.263-.084,4.469.019,6.676.168,3.7.215,3.665-3.5,3.581a1.429,1.429,0,0,1-1.571-1.318,41.9,41.9,0,0,0-1.384-5.283c-.374,1.72-.795,3.441-1.122,5.171a1.53,1.53,0,0,1-1.758,1.44c-3.8-.065-3.459.374-3.338-3.45.075-2.225.009-4.451.009-6.779.065.047,0-.047-.075-.047-2.3-.234-2.309-.224-2.309-2.627-.009-3.226-.028-6.461.009-9.687A7.618,7.618,0,0,1,35.7,43.363a1.433,1.433,0,0,1,2.15.224C38.755,44.588,39.737,45.533,40.915,46.739Z" transform="translate(-10.443 -13.612)" fill="#2460a8"/>
          <path id="Path_3962" data-name="Path 3962" d="M48.017,26.776c.43-.711.926-1.515,1.459-2.394.533.318,1.019.617,1.515.916-.5.888-.963,1.7-1.44,2.553.972.841,1.935,1.6,2.8,2.459.832.832,1.552,1.767,2.356,2.693.832-.477,1.646-.944,2.506-1.431.309.486.6.954.926,1.487-.841.533-1.674,1.047-2.412,1.515.626,2.356,1.234,4.619,1.87,7.04h2.842v1.87H57.6c-.626,2.412-1.215,4.684-1.851,7.115.664.421,1.5.944,2.366,1.5-.29.5-.561.963-.87,1.505-.879-.486-1.72-.963-2.59-1.449-.87,1-1.646,2.02-2.562,2.88-.309.29-.991.2-1.5.271.093-.514,0-1.206.3-1.515a15.908,15.908,0,0,0,4.7-10.612,15.664,15.664,0,0,0-30.771-4.638,15.176,15.176,0,0,0,2.8,13.651c.243.327.626.6.757.954.168.477.4,1.206.178,1.487-.57.711-1.131.14-1.552-.355-.561-.654-1.085-1.346-1.73-2.15-.832.467-1.692.944-2.627,1.468l-.9-1.505c.87-.542,1.683-1.047,2.394-1.487-.626-2.347-1.234-4.61-1.879-7.05H19.5V41.624h2.768c.636-2.394,1.253-4.694,1.9-7.1-.692-.421-1.5-.926-2.375-1.459.29-.477.57-.926.907-1.487.841.467,1.664.916,2.478,1.374-.122-.131-.243-.262-.374-.393,1.711-1.664,3.413-3.329,5.124-4.993.15.1.3.2.449.3-.458-.823-.907-1.646-1.4-2.543.477-.309.954-.608,1.477-.944.524.851,1.019,1.655,1.477,2.4L38.948,24.9V22.12h1.945v2.768C43.314,25.523,45.577,26.122,48.017,26.776Z" transform="translate(-9.626 -12.256)" fill="#2460a8"/>
          <path id="Path_3963" data-name="Path 3963" d="M40.888,42.175a5.9,5.9,0,0,1-5.778-5.862,5.873,5.873,0,0,1,11.743.187A5.913,5.913,0,0,1,40.888,42.175Z" transform="translate(-10.641 -12.807)" fill="#2460a8"/>
          <path id="Path_3964" data-name="Path 3964" d="M41.058,11.57a3.915,3.915,0,0,1,4.03,3.9,3.975,3.975,0,1,1-7.947-.028A3.9,3.9,0,0,1,41.058,11.57Z" transform="translate(-10.773 -11.57)" fill="#2460a8"/>
          <path id="Path_3965" data-name="Path 3965" d="M12.895,47.691a4.008,4.008,0,0,1-3.955-4A4.066,4.066,0,0,1,12.9,39.8a3.946,3.946,0,1,1-.009,7.891Z" transform="translate(-8.939 -13.405)" fill="#2460a8"/>
          <path id="Path_3966" data-name="Path 3966" d="M69.273,47.692a4.027,4.027,0,0,1-3.983-3.871,3.993,3.993,0,1,1,7.985.037A3.981,3.981,0,0,1,69.273,47.692Z" transform="translate(-12.603 -13.406)" fill="#2460a8"/>
          <path id="Path_3967" data-name="Path 3967" d="M27.008,15.44a3.883,3.883,0,0,1,3.918,4,3.818,3.818,0,0,1-3.936,3.824,3.889,3.889,0,0,1-3.9-4.02A3.754,3.754,0,0,1,27.008,15.44Z" transform="translate(-9.859 -11.821)" fill="#2460a8"/>
          <path id="Path_3968" data-name="Path 3968" d="M12.84,29.636A3.852,3.852,0,0,1,16.683,25.7a3.975,3.975,0,1,1-3.843,3.936Z" transform="translate(-9.193 -12.488)" fill="#2460a8"/>
          <path id="Path_3969" data-name="Path 3969" d="M69.366,57.894a3.9,3.9,0,0,1-3.936,3.852,3.969,3.969,0,0,1-3.88-4.077,4.033,4.033,0,0,1,3.964-3.89A3.928,3.928,0,0,1,69.366,57.894Z" transform="translate(-12.359 -14.314)" fill="#2460a8"/>
          <path id="Path_3970" data-name="Path 3970" d="M69.372,29.584a3.808,3.808,0,0,1-3.871,4A4,4,0,0,1,61.49,29.78a3.9,3.9,0,0,1,3.768-4.02A3.968,3.968,0,0,1,69.372,29.584Z" transform="translate(-12.356 -12.492)" fill="#2460a8"/>
          <path id="Path_3971" data-name="Path 3971" d="M55.086,23.22a3.809,3.809,0,0,1-3.8-3.815,3.981,3.981,0,0,1,3.992-3.946,3.882,3.882,0,1,1-.2,7.76Z" transform="translate(-11.693 -11.823)" fill="#2460a8"/>
          <path id="Path_3972" data-name="Path 3972" d="M20.609,57.759A3.931,3.931,0,0,1,16.738,61.7a3.819,3.819,0,0,1-3.908-3.852,3.863,3.863,0,0,1,3.8-3.992A3.8,3.8,0,0,1,20.609,57.759Z" transform="translate(-9.192 -14.319)" fill="#2460a8"/>
        </g>
      </g>
    </g>
    <g id="Group_917" data-name="Group 917">
      <text style="text-align: center;font-weight:400; font-family:Roboto Condensed" id="Semi-skilled_-_16.47_" data-name="Semi-skilled
- 16.47% " transform="translate(268.225 212.656)" fill="#0054a5" font-size="9" font-family="RobotoCondensed-Regular, Roboto"><tspan x="0" y="0">SEMI-SKILLED</tspan><tspan x="0" y="11">- 16.47% </tspan></text>
      <g id="opportunity-1658250-1407148" transform="translate(262.721 123.048)">
        <path id="Path_3920" data-name="Path 3920" d="M79.193,125.423c.423-6.9.755-7.685,4.279-9.989a6.541,6.541,0,0,1-2.006-6,6.109,6.109,0,0,1,2.372-3.785,6.225,6.225,0,0,1,8.221.58c2.495,2.513,2.416,5.877-.277,9.218A7.515,7.515,0,0,1,95.963,122c.039,1.437.01,2.873.01,4.31v1.123l.342.2a21.747,21.747,0,0,0,1.894-2.163c.776-1.152,1.395-2.408,2.113-3.6a3.265,3.265,0,0,1,4.341-1.5c1.554.773,2.105,2.369,1.426,4.234-.58,1.593-1.209,3.169-1.784,4.765a7.494,7.494,0,0,1-3.908,4.341c-5.342,2.636-10.658,5.329-16.013,7.941-1.878.917-3.1,2.189-3.174,4.37-.029.872-.551,1.194-1.382,1.191-3.918-.01-7.837.008-11.755-.013-1.175-.008-1.57-.541-1.2-1.693,1.405-4.388,2.816-8.772,4.294-13.137a9.786,9.786,0,0,1,7.136-6.632C78.6,125.666,78.876,125.541,79.193,125.423Zm-.039,19.7a7.226,7.226,0,0,1,4.331-5.36c5.316-2.586,10.626-5.185,15.861-7.931a7.162,7.162,0,0,0,2.753-2.772,28.268,28.268,0,0,0,1.99-5.23c.138-.441-.217-1.04-.347-1.565-.543.222-1.293.29-1.586.692-.789,1.081-1.377,2.312-2.061,3.474a7.279,7.279,0,0,1-3.707,3.344c-3.668,1.361-7.338,2.714-11.026,4.018a2.653,2.653,0,0,1-3.479-1.455,2.588,2.588,0,0,1,1.565-3.4c1.144-.528,2.314-1,3.469-1.5.637-.277,1.452-.52,1.113-1.442-.313-.857-1.053-.7-1.771-.481-2.534.784-5.068,1.565-7.615,2.309a7.573,7.573,0,0,0-5.363,4.9c-1.337,3.811-2.586,7.654-3.861,11.488a4.877,4.877,0,0,0-.1.914h8.837C78.459,145.127,78.759,145.127,79.153,145.127Zm10.423-27.964c-.013.037-.044.081-.037.11a1.781,1.781,0,0,0,.193.475,5.036,5.036,0,0,1,.577,4.7,6.652,6.652,0,0,0-.246,2.8c.324,1.894-.162,3.137-1.9,3.931-1.186.543-2.408,1.008-3.587,1.567-.3.138-.481.507-.716.768.379.068.812.293,1.131.183q4.13-1.434,8.21-3a1.24,1.24,0,0,0,.64-.912c.057-2,.094-4.007.008-6.005A4.821,4.821,0,0,0,89.576,117.164ZM87.6,109.392c-1.123.353-2.273.695-3.409,1.081-.64.219-.784.653-.575,1.332a4.161,4.161,0,0,0,7.855.41c.394-.933.259-1.588-.773-1.9C89.717,110.017,88.727,109.727,87.6,109.392Zm-1.687,7.753c-3.187.225-5.318,3.218-4.37,7.607l3.84-1.17C84.553,121.351,84.062,119.188,85.916,117.145Zm1.69,1.314a3.906,3.906,0,0,0,.272,4.953C88.3,121.672,89.124,120.087,87.606,118.459Zm2.826-10.752a3.66,3.66,0,0,0-5.6,0Z" transform="translate(-56.26 -83.491)" fill="#2460a8"/>
        <path id="Path_3921" data-name="Path 3921" d="M205.152,58.223c-.209-.131-.243-.17-.279-.172-4.5-.138-3.874-.321-3.9,3.579-.013,2.132-.013,4.266-.021,6.4a1.725,1.725,0,0,1-.094.337h-1.941c0-3.284-.076-6.538.034-9.785a2.959,2.959,0,0,1,3.061-2.657c1.173-.037,2.351.029,3.524-.021,1.189-.052,1.878.342,1.646,2,1.34-1.115,2.437-2.032,3.647-3.038l-3.576-2.986c.188,1.782-.724,2.009-1.988,1.957-1.7-.071-3.4-.037-5.091-.005A3.138,3.138,0,0,0,196.8,57.28c-.018,1.565,0,3.127,0,4.8h-2.011a52.779,52.779,0,0,1,.047-6.066,5.009,5.009,0,0,1,5.031-4.268c1.693-.039,3.388-.008,5.295-.008a10.6,10.6,0,0,1,.026-1.834,1.821,1.821,0,0,1,.632-1.147,1.293,1.293,0,0,1,1.16.2c2.035,1.635,4.031,3.32,6.026,5,.82.695.58,1.345-.151,1.949-1.91,1.583-3.8,3.192-5.736,4.739-.324.259-.977.5-1.249.342a2.021,2.021,0,0,1-.684-1.241A6.785,6.785,0,0,1,205.152,58.223Z" transform="translate(-150.803 -42.355)" fill="#2460a8"/>
        <path id="Path_3922" data-name="Path 3922" d="M32.9,51.907,29.32,54.892c1.165.982,2.244,1.891,3.581,3.014-.266-1.936.812-2.024,2.056-1.97,1.087.05,2.179-.024,3.265.026A2.957,2.957,0,0,1,41.2,58.711c.094,3.208.029,6.423.029,9.7H39.158V63.395q0-2.026.005-4.049c0-.849-.392-1.3-1.259-1.306-.909,0-1.818,0-2.915,0a10.417,10.417,0,0,1-.026,1.842,1.808,1.808,0,0,1-.65,1.139,1.315,1.315,0,0,1-1.157-.219c-2.035-1.635-4.033-3.32-6.029-5-.742-.627-.63-1.272.076-1.86,1.938-1.617,3.863-3.252,5.836-4.83.321-.259.98-.481,1.249-.324a2.033,2.033,0,0,1,.674,1.249,8.662,8.662,0,0,1,.026,1.737c1.614,0,3.163-.005,4.715,0,3.634.013,5.739,2.139,5.734,5.781,0,1.512,0,3.025,0,4.6h-2.09c0-1.554,0-3.106,0-4.658-.008-2.414-1.2-3.623-3.6-3.636-1.654-.008-3.312-.055-4.963.016C33.523,53.928,32.719,53.612,32.9,51.907Z" transform="translate(-26.619 -42.389)" fill="#2460a8"/>
        <path id="Path_3923" data-name="Path 3923" d="M129.193,27.106c-1.016,1.22-1.9,2.283-2.986,3.592,1.815-.219,2.009.729,1.964,1.97-.06,1.729-.016,3.459-.016,5.271h-2.037V32.788a9.4,9.4,0,0,1-1.782-.026,2.025,2.025,0,0,1-1.256-.656c-.162-.264.052-.93.308-1.251,1.546-1.936,3.158-3.816,4.733-5.731.724-.878,1.405-.9,2.137-.018,1.578,1.91,3.187,3.8,4.731,5.731.259.324.488.98.332,1.249a2.024,2.024,0,0,1-1.246.671,8.335,8.335,0,0,1-1.7.026v5.146h-2.129c0-2.087-.094-4.127.065-6.146.039-.509.886-.953,1.489-1.557C131.1,29.384,130.173,28.279,129.193,27.106Z" transform="translate(-97.842 -24.453)" fill="#2460a8"/>
        <path id="Path_3924" data-name="Path 3924" d="M103.057,97.62c.465.6.825,1.071,1.267,1.646-.47.418-.9.807-1.465,1.306l-1.369-1.539Z" transform="translate(-81.932 -78.507)" fill="#2460a8"/>
        <path id="Path_3925" data-name="Path 3925" d="M161.11,88.446c.175-.684.321-1.259.512-2,.7.235,1.322.444,2.066.692-.282.687-.52,1.264-.786,1.915C162.3,88.848,161.779,88.673,161.11,88.446Z" transform="translate(-125.978 -70.255)" fill="#2460a8"/>
        <path id="Path_3926" data-name="Path 3926" d="M187.475,106.334c-.431-.478-.82-.912-1.275-1.418l1.6-1.285c.327.353.773.833,1.322,1.426Z" transform="translate(-144.514 -82.948)" fill="#2460a8"/>
        <path id="Path_3927" data-name="Path 3927" d="M93.96,110.8c-.384.572-.692,1.032-1.066,1.586l-1.784-1.029c.431-.637.8-1.183,1.222-1.8C92.907,109.989,93.377,110.349,93.96,110.8Z" transform="translate(-74.264 -87.321)" fill="#2460a8"/>
        <path id="Path_3928" data-name="Path 3928" d="M202.816,131.59c.152.771.264,1.351.408,2.087-.7.1-1.311.193-2,.3-.141-.627-.261-1.16-.413-1.826C201.455,131.971,202.061,131.8,202.816,131.59Z" transform="translate(-155.308 -103.604)" fill="#2460a8"/>
        <path id="Path_3929" data-name="Path 3929" d="M132.361,86.983c-.716.133-1.215.227-1.826.34-.172-.64-.334-1.246-.525-1.959l2.079-.434C132.189,85.664,132.267,86.273,132.361,86.983Z" transform="translate(-103.002 -69.132)" fill="#2460a8"/>
        <path id="Path_3930" data-name="Path 3930" d="M115.577,92.025c-.371-.637-.671-1.149-1.048-1.8l1.925-.985c.274.637.507,1.178.8,1.868Z" transform="translate(-91.566 -72.316)" fill="#2460a8"/>
        <path id="Path_3931" data-name="Path 3931" d="M195.15,117.235l1.787-1.045c.329.643.627,1.228.985,1.928-.677.287-1.249.533-1.909.812C195.722,118.363,195.474,117.875,195.15,117.235Z" transform="translate(-151.126 -92.227)" fill="#2460a8"/>
        <path id="Path_3932" data-name="Path 3932" d="M204.809,148.663c-.039.679-.076,1.27-.118,2.017-.692-.055-1.3-.1-1.962-.159v-1.86C203.4,148.663,204.013,148.663,204.809,148.663Z" transform="translate(-156.726 -116.215)" fill="#2460a8"/>
        <path id="Path_3933" data-name="Path 3933" d="M83.654,158.378c-.136-.737-.251-1.351-.394-2.113l2.022-.225c.131.648.238,1.181.363,1.808Z" transform="translate(-68.464 -121.667)" fill="#2460a8"/>
        <path id="Path_3934" data-name="Path 3934" d="M87.47,170.768l1.907-.818c.293.577.554,1.089.867,1.708l-1.782,1.032C88.126,172.04,87.836,171.478,87.47,170.768Z" transform="translate(-71.574 -131.943)" fill="#2460a8"/>
        <path id="Path_3935" data-name="Path 3935" d="M148.763,86.743H147V84.76h2.006C148.915,85.481,148.842,86.095,148.763,86.743Z" transform="translate(-115.554 -69.007)" fill="#2460a8"/>
        <path id="Path_3936" data-name="Path 3936" d="M175.622,92.77c.653.439,1.173.789,1.8,1.2l-1.238,1.635c-.538-.35-1-.648-1.591-1.034C174.911,94.019,175.217,93.481,175.622,92.77Z" transform="translate(-135.937 -74.924)" fill="#2460a8"/>
        <path id="Path_3937" data-name="Path 3937" d="M86.737,126.591c-.76-.212-1.288-.36-1.957-.549.232-.692.439-1.311.684-2.043.7.293,1.277.528,1.925.8C87.155,125.442,86.956,125.985,86.737,126.591Z" transform="translate(-69.587 -97.996)" fill="#2460a8"/>
        <path id="Path_3938" data-name="Path 3938" d="M82.819,140.18l1.941.261v1.8H82.72C82.751,141.6,82.78,140.971,82.819,140.18Z" transform="translate(-68.065 -109.95)" fill="#2460a8"/>
      </g>
    </g>
    <g id="Group_919" data-name="Group 919">
      <g id="Group_754" data-name="Group 754" transform="translate(68.831 201.555)">
        <text style="text-align: center;font-weight:400; font-family:Roboto Condensed" id="Skilled_-_34.95_" data-name="Skilled
- 34.95% " transform="translate(0.394 10.101)" fill="#0054a5" font-size="9" font-family="RobotoCondensed-Regular, Roboto"><tspan x="0" y="0">SKILLED</tspan><tspan x="0" y="12">- 34.95% </tspan></text>
      </g>
      <g id="p" transform="translate(56.221 121.475)">
        <path id="Path_3939" data-name="Path 3939" d="M63.292,68.905c-1.055.231-1.85.4-2.807.609V65.705l-4.925,4.679c2.035,1.331,1.831,2.9.666,4.626-.73-.692-1.487-1.415-2.572-2.447-1.2,2.043-2.432,3.9-3.423,5.886-1.21,2.421-1.123,2.466-3.938,3.745.5-4.6,2.943-8.136,5.507-11.662a65.371,65.371,0,0,1-3.431-5.6,20.278,20.278,0,0,1-1.986-5.662c-.919-6,2.644-10.307,8.934-10.875a41.206,41.206,0,0,1,7.164.057c1.263.106,1.695-.34,2.254-1.343a39.87,39.87,0,0,1,4.206-6.672c4.32-5.057,10.118-5.144,14.5-.178a40.31,40.31,0,0,1,4.46,6.952,1.931,1.931,0,0,0,2.114,1.252,38.26,38.26,0,0,1,8.639.261c6.415,1.275,9.267,6.321,7.062,12.494-1.15,3.219-3.018,6.181-4.721,9.57,2.183,3.143,4.736,6.661,5.254,11.348-1.725-.635-3-1.165-3.68-3.09-.791-2.251-2.307-4.244-3.6-6.514-1.26,1.207-2.205,2.107-3.177,3.041-1.434-2.054-1.074-3.711,1.339-5.05-1.574-1.774-2.916-3.283-4.259-4.792-.223.189-.446.374-.673.564v3.6l-2.565-.851c-.079-.155-.174-.261-.178-.371-.374-5.678-.356-5.708-5.186-8.7a68.432,68.432,0,0,0-6.593-3.665,3.491,3.491,0,0,0-2.75-.015c-3.208,1.732-6.275,3.718-9.445,5.523A3.853,3.853,0,0,0,63.277,65.8C63.361,66.8,63.292,67.809,63.292,68.905Zm-9.574-.836c2.315-2.069,4.475-3.983,6.608-5.923a1.863,1.863,0,0,0,.579-.934c.647-3.245,1.252-6.495,1.872-9.74A16.164,16.164,0,0,0,52.6,51.99a5.962,5.962,0,0,0-3.525,6.971A21.469,21.469,0,0,0,53.719,68.07ZM89.77,51.328c.658,3.472,1.263,6.68,1.884,9.88a1.263,1.263,0,0,0,.306.666c2.262,2.046,4.539,4.074,7.27,6.514,1.456-3.049,3.087-5.749,4.059-8.673a5.9,5.9,0,0,0-3.457-7.8C96.583,50.534,93.231,50.692,89.77,51.328ZM66.9,49.021c3.147,1.15,5.973,2.19,8.806,3.208a1.478,1.478,0,0,0,.9.1C79.6,51.249,82.58,50.133,85.64,49a19.149,19.149,0,0,0-5.182-7.856c-2.447-2.046-5.2-2.243-7.652-.511C69.87,42.7,68.285,45.734,66.9,49.021Zm5.874,4.974c-2.322-.726-4.259-1.35-6.215-1.918-.223-.064-.734.129-.779.3-.59,2.133-1.123,4.286-1.668,6.43.174.026.348.057.518.083C67.207,57.342,69.776,55.8,72.779,53.995Zm15.8,5.262c-.666-2.761-1.21-5-1.8-7.478-2.413.768-4.509,1.437-6.979,2.224C82.826,55.814,85.432,57.372,88.583,59.256Z" transform="translate(-46.241 -36.586)" fill="#2460a8"/>
        <path id="Path_3940" data-name="Path 3940" d="M41.682,201.437v-7.314l-.512-.086a4.814,4.814,0,0,0-.274,1.09c-.029,1.939-.05,3.881,0,5.82.021.788-.238,1.24-1.014,1.256-1.6.031-3.205.024-4.807-.012-.75-.017-.949-.5-.938-1.211q.05-2.97-.019-5.939a2.833,2.833,0,0,0-.416-.949c-.145.312-.414.623-.419.94-.038,2.094-.019,4.19-.019,6.3-1.692-.364-2.2-.961-2.206-2.517,0-2.139-.012-4.276,0-6.415.012-1.587.571-2.18,2.132-2.194q4.337-.039,8.671,0c1.473.014,2.068.647,2.08,2.132.017,2.1,0,4.2,0,6.3C43.954,200.428,43.738,200.713,41.682,201.437Z" transform="translate(-23.504 -143.223)" fill="#2460a8"/>
        <path id="Path_3941" data-name="Path 3941" d="M168.284,201.44c-2.113-.868-2.222-1.026-2.222-3,0-2.023-.017-4.045.007-6.068.019-1.551.623-2.161,2.175-2.172q4.283-.032,8.566,0c1.559.014,2.139.628,2.149,2.187.012,2.023,0,4.045,0,6.068s0,2.03-2.277,3.053V194.1l-.5-.057a4.349,4.349,0,0,0-.283,1.03c-.029,1.9-.074,3.81.01,5.708.043.961-.333,1.451-1.209,1.48-1.492.05-2.986.026-4.478-.031-.8-.031-1.121-.493-1.092-1.344.062-1.942.038-3.886,0-5.827a2.948,2.948,0,0,0-.4-.968c-.15.312-.424.621-.431.935C168.265,197.121,168.284,199.217,168.284,201.44Z" transform="translate(-126.378 -143.216)" fill="#2460a8"/>
        <path id="Path_3942" data-name="Path 3942" d="M107.278,200.743c-.709-2.184-1.39-4.274-2.07-6.363l-.433.031a3.672,3.672,0,0,0,.012.971c.559,1.968,1.154,3.926,1.756,5.946a10.274,10.274,0,0,1-9.587,0c.657-2.291,1.3-4.538,1.946-6.786l-.535-.159-2.084,6.287c-1.678-.576-2-1.142-1.525-2.7.557-1.813,1.123-3.624,1.718-5.423a2.965,2.965,0,0,1,3.267-2.341c1.425-.012,2.851-.021,4.276,0a3,3,0,0,1,3.048,2.318c.554,1.732,1.1,3.467,1.661,5.2C109.308,199.515,109.184,199.8,107.278,200.743Z" transform="translate(-71.891 -143.223)" fill="#2460a8"/>
        <path id="Path_3943" data-name="Path 3943" d="M136.721,162.288c1.359-2.51,1.194-3.8-.711-6.1,1.1-1.026,9.67-.921,10.658.059a11.926,11.926,0,0,0-1.133,2.824,12.357,12.357,0,0,0,.381,3.1c-2.779-.083-4.454,1.252-4.255,4.462-.1.062-.2.126-.3.188-.4-.281-1.054-.493-1.149-.854A5.249,5.249,0,0,0,136.721,162.288Z" transform="translate(-103.481 -116.764)" fill="#2460a8"/>
        <path id="Path_3944" data-name="Path 3944" d="M81.755,162.629a5.267,5.267,0,0,0-3.472,3.6c-.1.359-.526.628-.976,1.137-.547-4.024-.664-4.143-4.628-4.914a4.456,4.456,0,0,0,.09-4.726.727.727,0,0,1,.159-.695,5.723,5.723,0,0,1,2.053-.983,24.853,24.853,0,0,1,4.271-.014,4.193,4.193,0,0,1,1.725.65c.566.326.723.771.343,1.478A4.122,4.122,0,0,0,81.755,162.629Z" transform="translate(-55.221 -117.133)" fill="#2460a8"/>
        <path id="Path_3945" data-name="Path 3945" d="M116.09,161.4a2.746,2.746,0,0,1,.067,5.492,2.706,2.706,0,0,1-2.777-2.774A2.678,2.678,0,0,1,116.09,161.4Z" transform="translate(-86.236 -121.284)" fill="#2460a8"/>
        <path id="Path_3946" data-name="Path 3946" d="M52,164.261A2.684,2.684,0,0,1,49.332,167a2.841,2.841,0,0,1-2.772-2.7,2.775,2.775,0,0,1,2.729-2.725A2.634,2.634,0,0,1,52,164.261Z" transform="translate(-35.315 -121.421)" fill="#2460a8"/>
        <path id="Path_3947" data-name="Path 3947" d="M187.156,164.288a2.665,2.665,0,0,1-2.679,2.724,2.794,2.794,0,0,1-2.736-2.72,2.728,2.728,0,0,1,2.727-2.7A2.643,2.643,0,0,1,187.156,164.288Z" transform="translate(-138.33 -121.429)" fill="#2460a8"/>
        <path id="Path_3948" data-name="Path 3948" d="M85.926,132.706a2.531,2.531,0,0,1-2.532,2.472,2.471,2.471,0,1,1,2.532-2.472Z" transform="translate(-61.511 -97.537)" fill="#2460a8"/>
        <path id="Path_3949" data-name="Path 3949" d="M152.861,132.612a2.371,2.371,0,0,1-2.332,2.456,2.343,2.343,0,0,1-2.479-2.418,2.406,2.406,0,0,1,4.811-.038Z" transform="translate(-112.656 -97.538)" fill="#2460a8"/>
      </g>
    </g>
  </g>
</svg>
