<svg xmlns="http://www.w3.org/2000/svg" width="132.885" height="200.225" viewBox="0 0 132.885 200.225">
  <g id="Group_914" data-name="Group 914" transform="translate(-698.618 -229.078)">
    <text style="text-align: center;font-weight:400; font-family:Roboto Condensed" id="PROFESSIONAL_-_0.41_" data-name="PROFESSIONAL
- 0.41% " transform="translate(700.503 401.303)" fill="#0054a5" font-size="21" font-family="RobotoCondensed-Regular, Roboto"><tspan x="0" y="0">PROFESSIONAL</tspan><tspan x="0" y="23">- 0.41% </tspan></text>
    <g id="Group_820" data-name="Group 820" transform="translate(698.618 229.078)">
      <path id="Path_3961" data-name="Path 3961" d="M48.8,50.085c1.874-2.086,3.606-3.96,5.3-5.9,1.184-1.379,2.369-1.343,3.818-.354,4.508,3.058,7.088,7.141,7.106,12.692,0,6.275.018,12.55,0,18.826,0,3.694-.018,3.694-3.606,3.871-.336.018-.654.088-.919.106,0,4.278-.159,8.449.035,12.621.318,7,.407,6.929-6.611,6.77a2.7,2.7,0,0,1-2.97-2.492,79.2,79.2,0,0,0-2.616-9.987c-.707,3.253-1.5,6.505-2.121,9.775a2.893,2.893,0,0,1-3.323,2.722c-7.177-.124-6.54.707-6.311-6.523.141-4.207.018-8.414.018-12.816.124.088,0-.088-.141-.088-4.348-.442-4.366-.424-4.366-4.967-.018-6.1-.053-12.215.018-18.313A14.4,14.4,0,0,1,38.932,43.7c1.52-1.025,2.758-1.025,4.066.424C44.712,46.02,46.568,47.8,48.8,50.085Z" transform="translate(8.814 12.543)" fill="#2460a8"/>
      <path id="Path_3962" data-name="Path 3962" d="M73.414,30.923c.813-1.343,1.75-2.864,2.758-4.525,1.008.6,1.927,1.167,2.864,1.732-.937,1.679-1.821,3.217-2.722,4.826,1.838,1.591,3.659,3.023,5.285,4.649,1.573,1.573,2.934,3.341,4.454,5.091,1.573-.9,3.111-1.785,4.737-2.7.583.919,1.131,1.8,1.75,2.811-1.591,1.008-3.164,1.98-4.561,2.864,1.184,4.455,2.333,8.732,3.535,13.31h5.374v3.535H91.532c-1.184,4.561-2.3,8.856-3.5,13.452,1.255.8,2.828,1.785,4.472,2.828-.548.955-1.061,1.821-1.644,2.846-1.662-.919-3.253-1.821-4.9-2.74-1.644,1.891-3.111,3.818-4.843,5.444-.583.548-1.874.371-2.828.513.177-.972,0-2.28.566-2.864,5.391-5.639,8.591-12.268,8.891-20.063A29.613,29.613,0,0,0,29.576,53.16c-2.545,9.439-.53,18.03,5.3,25.808.46.619,1.184,1.131,1.432,1.8.318.9.76,2.28.336,2.811-1.078,1.343-2.139.265-2.934-.672-1.061-1.237-2.05-2.545-3.27-4.066-1.573.884-3.2,1.785-4.967,2.775l-1.7-2.846c1.644-1.025,3.182-1.98,4.525-2.811-1.184-4.437-2.333-8.715-3.553-13.328H19.5V58.993h5.232c1.2-4.525,2.369-8.874,3.588-13.417-1.308-.8-2.828-1.75-4.49-2.758.548-.9,1.078-1.75,1.715-2.811,1.591.884,3.146,1.732,4.684,2.6-.23-.247-.46-.495-.707-.742,3.235-3.146,6.452-6.293,9.687-9.439.283.194.566.371.848.566-.866-1.556-1.715-3.111-2.651-4.808.9-.583,1.8-1.149,2.793-1.785.99,1.609,1.927,3.129,2.793,4.543,4.4-1.184,8.679-2.333,13.275-3.571V22.12h3.677v5.232C64.522,28.554,68.8,29.686,73.414,30.923Z" transform="translate(-0.832 -3.471)" fill="#2460a8"/>
      <path id="Path_3963" data-name="Path 3963" d="M46.034,52.485A11.149,11.149,0,0,1,35.11,41.4a11.1,11.1,0,0,1,22.2.354A11.18,11.18,0,0,1,46.034,52.485Z" transform="translate(11.151 3.038)" fill="#2460a8"/>
      <path id="Path_3964" data-name="Path 3964" d="M44.547,11.57a7.4,7.4,0,0,1,7.619,7.371,7.515,7.515,0,1,1-15.025-.053A7.363,7.363,0,0,1,44.547,11.57Z" transform="translate(12.709 -11.57)" fill="#2460a8"/>
      <path id="Path_3965" data-name="Path 3965" d="M16.418,54.719A7.578,7.578,0,0,1,8.94,47.154,7.688,7.688,0,0,1,16.435,39.8a7.461,7.461,0,1,1-.018,14.919Z" transform="translate(-8.939 10.101)" fill="#2460a8"/>
      <path id="Path_3966" data-name="Path 3966" d="M72.821,54.711a7.614,7.614,0,0,1-7.53-7.318,7.548,7.548,0,1,1,15.1.071A7.525,7.525,0,0,1,72.821,54.711Z" transform="translate(34.318 10.109)" fill="#2460a8"/>
      <path id="Path_3967" data-name="Path 3967" d="M30.5,15.441A7.341,7.341,0,0,1,37.9,23.006a7.219,7.219,0,0,1-7.442,7.23,7.352,7.352,0,0,1-7.371-7.6A7.1,7.1,0,0,1,30.5,15.441Z" transform="translate(1.923 -8.599)" fill="#2460a8"/>
      <path id="Path_3968" data-name="Path 3968" d="M12.84,33.142A7.282,7.282,0,0,1,20.105,25.7a7.515,7.515,0,1,1-7.265,7.442Z" transform="translate(-5.945 -0.723)" fill="#2460a8"/>
      <path id="Path_3969" data-name="Path 3969" d="M76.328,61.558a7.375,7.375,0,0,1-7.442,7.283,7.5,7.5,0,0,1-7.336-7.707,7.625,7.625,0,0,1,7.495-7.353A7.426,7.426,0,0,1,76.328,61.558Z" transform="translate(31.447 20.833)" fill="#2460a8"/>
      <path id="Path_3970" data-name="Path 3970" d="M76.392,32.991a7.2,7.2,0,0,1-7.318,7.566,7.568,7.568,0,0,1-7.583-7.194,7.38,7.38,0,0,1,7.124-7.6A7.5,7.5,0,0,1,76.392,32.991Z" transform="translate(31.401 -0.678)" fill="#2460a8"/>
      <path id="Path_3971" data-name="Path 3971" d="M58.467,30.132A7.2,7.2,0,0,1,51.29,22.92a7.525,7.525,0,0,1,7.548-7.46,7.339,7.339,0,1,1-.371,14.672Z" transform="translate(23.571 -8.584)" fill="#2460a8"/>
      <path id="Path_3972" data-name="Path 3972" d="M27.537,61.231a7.432,7.432,0,0,1-7.318,7.46,7.22,7.22,0,0,1-7.389-7.283,7.3,7.3,0,0,1,7.177-7.548A7.192,7.192,0,0,1,27.537,61.231Z" transform="translate(-5.953 20.894)" fill="#2460a8"/>
    </g>
  </g>
</svg>
