<svg xmlns="http://www.w3.org/2000/svg" width="119.22" height="199.672" viewBox="0 0 119.22 199.672">
  <g id="Group_912" data-name="Group 912" transform="translate(-298.282 -230.631)">
    <g id="Group_756" data-name="Group 756" transform="translate(298.503 380.303)">
      <text style="text-align: center;font-weight:400; font-family:Roboto Condensed" id="Less_skilled_-_45.43_" data-name="Less skilled
- 45.43% " transform="translate(0 20)" fill="#0054a5" font-size="21" font-family="RobotoCondensed-Regular, Roboto"><tspan x="0" y="0">LESS SKILLED</tspan><tspan x="0" y="25">- 45.43% </tspan></text>
    </g>
    <g id="ASSSAASAS" transform="translate(298.282 230.631)">
      <g id="Group_761" data-name="Group 761" transform="translate(0 0)">
        <path id="Path_3950" data-name="Path 3950" d="M72.619,93.3c-8.552,2.732-17.16,3.219-25.768.468-6.381-2.04-11.92-5.24-14.577-11.883-.337-.842-1.029-.973-1.74-1.235a19.734,19.734,0,0,1-6.362-3.686,11.644,11.644,0,0,1-4.154-9.693c.374-8.664,2.526-16.673,8.365-23.335,1.291-1.46.393-2.657.056-3.93C26.379,32.037,32.517,24.29,40.526,24.8a11,11,0,0,1,5.857,2.04c.786.561,1.291.749,2.077-.056,3.406-3.5,7.672-4.734,12.463-4.416a15.855,15.855,0,0,1,8.533,4.173c.58.561.954.842,1.871.337,6.643-3.668,11.733-2.526,16.655,3.593L89.5,34.283c.075.243.131.505.206.749a5.981,5.981,0,0,0,.037,2.639c-1.366,3.424-.655,6.119,1.7,9.188,5.015,6.512,6.4,14.39,6.194,22.437-.131,4.622-3.219,7.541-7,9.731-4.341,2.526-4.379,2.489-7.261,6.512C80.647,89.318,76.7,91.395,72.619,93.3ZM58.49,92.012a32.825,32.825,0,0,0,16.393-3.836C81.1,84.752,83.21,80.541,82.218,73.6c-.075-.524-.094-1.048-.131-1.553A43.288,43.288,0,0,0,73.4,48.673c-1.478-2-1.7-2-3.256-.168C64.4,55.241,53.12,55.11,47.712,48.112c-1.235-1.609-1.927-1.4-2.919-.019-.3.43-.655.8-.973,1.216-5.895,7.635-7.953,16.467-8.589,25.9-.43,6.512,2.676,10.4,7.99,13.193A31.78,31.78,0,0,0,58.49,92.012Zm.636-42.123A12.01,12.01,0,1,0,47.468,38.138,11.876,11.876,0,0,0,59.127,49.889Zm19.012-.842c1.254,2.358,2.433,4.435,3.462,6.568,2.994,6.25,3.911,12.968,4.341,19.761.112,1.759.692,1.89,1.984,1.179C90.452,75.171,92.847,73.6,93.8,70.7c.823-2.47.262-5.015,0-7.541a31.764,31.764,0,0,0-5.876-15.476c-.992-1.4-1.834-2.171-3.537-.749C82.724,48.355,80.553,48.841,78.139,49.047Zm-38.53,0c-2.657-.187-4.791-.786-6.419-2.227-1.516-1.347-2.189-.711-3.144.543-4.136,5.5-5.764,11.771-6.456,18.507-.524,5.071,1.665,8.234,5.857,10.5,1.478.8,2.246.823,2.3-1.235A55.571,55.571,0,0,1,33.976,60.8,43.932,43.932,0,0,1,39.609,49.047ZM31.637,35.274c-.037,7.036,4.566,11,9.749,10.068a3.348,3.348,0,0,0,2.9-4.248,14.716,14.716,0,0,1,.73-8.8,1.988,1.988,0,0,0-1.085-2.9,7.746,7.746,0,0,0-7.916-.075C33.115,30.952,31.656,33.534,31.637,35.274Zm54.492,1.759C86.167,30.446,79.6,26.273,74,29.286c-1.179.636-1.609,1.254-.973,2.62a15.2,15.2,0,0,1,.8,9.637c-.468,2.283.3,3.406,2.639,3.78A8.276,8.276,0,0,0,86.129,37.033Z" transform="translate(0.77 1.364)" fill="#4559aa"/>
        <path id="Path_3951" data-name="Path 3951" d="M37.891,14.356c-1.516.356-3.032.692-4.547,1.048-1.347.318-2.975,1.1-3.537-.88-.561-2.021,1.366-2.077,2.6-2.582.692-.262,1.4-.449,2.115-.655a60.97,60.97,0,0,1,35.312,2.171A58.647,58.647,0,0,1,95.209,31.591c1.123,1.385,2.246,2.788,3.368,4.173.561.88,1.123,1.778,1.684,2.657l2.077,3.537c.954,2.115,1.927,4.21,2.882,6.325a65.848,65.848,0,0,1,3.855,22.83A58.944,58.944,0,0,1,97.4,105.3c-1.085,1.478-1.366,2.433.243,3.649a25.3,25.3,0,0,1,3.35,3.293c1.647,1.834,1.029,4.136-1.366,4.641-5.333,1.123-10.7,2.133-16.075,3.05-2.227.393-3.612-.861-3.256-3.069q1.347-8.281,3.069-16.5c.468-2.189,2.844-2.695,4.585-1.123a45.189,45.189,0,0,1,4.117,4.136c1.141,1.366,1.815.973,2.676-.243A56.751,56.751,0,0,0,104.9,78.523a53.6,53.6,0,0,0-3.593-29.829,32.244,32.244,0,0,0-3.817-7.822,51.681,51.681,0,0,0-13.9-15.756c-.281-.225-.543-.524-.973-.3h0c.094-.711-.505-.73-.917-.936a5.479,5.479,0,0,0-3.555-2.339,51.456,51.456,0,0,0-21.183-7.766,50.514,50.514,0,0,0-17.983.337,1.02,1.02,0,0,0-.992.281Zm59.152,99.535c.094-.225.187-.468.281-.692-1.778-1.684-3.574-3.35-5.333-5.034-1.778-1.722-3.518-3.481-5.6-5.52-.786,4.4-1.441,8.252-2.208,12.089-.262,1.31.281,1.441,1.272,1.272Q91.27,114.967,97.043,113.891Z" transform="translate(9.225 -9.661)" fill="#4559aa"/>
        <path id="Path_3952" data-name="Path 3952" d="M74.019,125.614a63.024,63.024,0,0,1-28.463-4.884c-24.1-10.049-39.185-35.592-36.3-61.435A58.652,58.652,0,0,1,21.211,29.279c1.048-1.347,1.141-2.171-.206-3.275-1.1-.88-1.965-2.058-2.994-3.032a3.026,3.026,0,0,1-1.179-3.163,2.947,2.947,0,0,1,2.657-2.077c5.146-.954,10.273-2,15.42-2.938,2.264-.412,3.761.88,3.406,3.181-.861,5.445-1.871,10.891-3.013,16.3-.487,2.264-2.77,2.844-4.529,1.31a41.6,41.6,0,0,1-3.986-3.93c-1.254-1.46-2-1.422-3.162.187-5.352,7.485-9.113,15.663-10.348,24.776Q9.291,85.783,30.306,106.583a54.369,54.369,0,0,0,20.51,12.556,47.79,47.79,0,0,0,21.239,2.9,28.453,28.453,0,0,0,4.865-.524,1.174,1.174,0,0,0,1.142-.337,1.175,1.175,0,0,0,1.778-.075c1.441-.281,2.882-.58,4.323-.861,1.01-.206,2.227-.674,2.62.73a2,2,0,0,1-1.8,2.582c-3.181.674-6.4,1.216-9.6,1.815C74.9,125.446,74.45,125.539,74.019,125.614ZM32.158,32.2c.8-4.51,1.441-8.327,2.189-12.107.225-1.1.075-1.591-1.123-1.366-3.518.636-7.055,1.254-10.573,1.909-1.011.187-1.291.711-.487,1.516C25.366,25.35,28.566,28.568,32.158,32.2Z" transform="translate(-8.902 -5.253)" fill="#4559aa"/>
        <path id="Path_3953" data-name="Path 3953" d="M51.436,80.528a32.027,32.027,0,0,1-15.307-3.612c-5.315-2.788-8.421-6.7-7.99-13.193.636-9.431,2.695-18.264,8.589-25.9.318-.412.674-.8.973-1.216.992-1.385,1.684-1.591,2.919.019,5.408,6.98,16.692,7.111,22.437.393,1.553-1.815,1.778-1.834,3.256.168A43.288,43.288,0,0,1,75,60.562c.037.524.056,1.048.131,1.553.992,6.943-1.1,11.153-7.336,14.577C63.113,79.293,57.873,80.528,51.436,80.528Z" transform="translate(7.824 12.848)" fill="#83c4fc"/>
        <path id="Path_3954" data-name="Path 3954" d="M46.339,48.229A11.8,11.8,0,0,1,34.68,36.477,11.661,11.661,0,1,1,46.339,48.229Z" transform="translate(13.558 3.024)" fill="#fdfdfd"/>
        <path id="Path_3955" data-name="Path 3955" d="M51.07,37.938a10.718,10.718,0,0,0,6.25-2.115c1.7-1.422,2.545-.655,3.537.749a31.834,31.834,0,0,1,5.876,15.476c.262,2.526.8,5.071,0,7.541-.954,2.9-3.35,4.472-5.876,5.857-1.291.711-1.871.58-1.984-1.179-.43-6.793-1.366-13.53-4.341-19.761C53.5,42.354,52.324,40.3,51.07,37.938Z" transform="translate(27.839 12.474)" fill="#f4d088"/>
        <path id="Path_3956" data-name="Path 3956" d="M37.972,37.983a44.2,44.2,0,0,0-5.633,11.752,55.571,55.571,0,0,0-2.227,14.334c-.056,2.077-.823,2.04-2.3,1.235-4.192-2.264-6.362-5.427-5.857-10.5.692-6.737,2.32-13.024,6.456-18.507.936-1.254,1.609-1.871,3.144-.543A10.515,10.515,0,0,0,37.972,37.983Z" transform="translate(2.407 12.428)" fill="#f4d088"/>
        <path id="Path_3957" data-name="Path 3957" d="M26.22,32.5c.019-1.74,1.478-4.3,4.379-5.951a7.746,7.746,0,0,1,7.916.075,1.988,1.988,0,0,1,1.085,2.9,14.716,14.716,0,0,0-.73,8.8,3.348,3.348,0,0,1-2.9,4.248C30.767,43.5,26.183,39.518,26.22,32.5Z" transform="translate(6.187 4.138)" fill="#fdfdfd"/>
        <path id="Path_3958" data-name="Path 3958" d="M61.576,34.243a8.291,8.291,0,0,1-9.656,8.309c-2.339-.374-3.106-1.516-2.639-3.78a15.2,15.2,0,0,0-.8-9.637c-.636-1.385-.206-2,.973-2.62C55.045,23.5,61.613,27.674,61.576,34.243Z" transform="translate(25.323 4.155)" fill="#fdfdfd"/>
        <path id="Path_3959" data-name="Path 3959" d="M71.706,70.605c-3.855.711-7.71,1.422-11.583,2.1-.973.168-1.534.037-1.272-1.272.786-3.836,1.422-7.691,2.208-12.089,2.058,2.04,3.8,3.8,5.6,5.52,1.759,1.7,3.555,3.368,5.333,5.034A4.021,4.021,0,0,1,71.706,70.605Z" transform="translate(34.562 33.625)" fill="#83c4fc"/>
        <path id="Path_3960" data-name="Path 3960" d="M26.2,30.358c-3.593-3.63-6.793-6.83-9.993-10.049-.8-.8-.524-1.329.487-1.516,3.518-.655,7.036-1.272,10.573-1.909,1.2-.225,1.347.262,1.123,1.366C27.641,22.031,27.005,25.848,26.2,30.358Z" transform="translate(-2.944 -3.413)" fill="#83c4fc"/>
      </g>
    </g>
  </g>
</svg>
