<svg xmlns="http://www.w3.org/2000/svg" viewBox="0 0 1495.802 148.563">
  <g id="footer" transform="translate(0)">
    <g id="Group_259" data-name="Group 259" transform="translate(697.642 0)">
      <g id="Group_258" data-name="Group 258" transform="translate(0 0)">
        <g id="Group_254" data-name="Group 254">
          <g id="Group_252" data-name="Group 252" transform="translate(191.339)">
            <path id="Path_1041" data-name="Path 1041" d="M-1058.4,568.25c-2.7-17.251-19.2-29-36.863-26.233s-29.784,18.99-27.085,36.242,19.2,29,36.863,26.234S-1055.7,585.5-1058.4,568.25Z" transform="translate(1140.318 -523.308)" fill="#0054a5"/>
            <g id="Group_251" data-name="Group 251" transform="translate(17.599 18.306)">
              <path id="Path_1042" data-name="Path 1042" d="M-1118.349,565.3l0-.008-.139.061Z" transform="translate(1125.088 -528.347)" fill="#fff"/>
              <path id="Path_1043" data-name="Path 1043" d="M-1088.929,545.992q-.98-.7-2.011-1.333a17.36,17.36,0,0,0,1.943,2.019A1.432,1.432,0,0,0-1088.929,545.992Z" transform="translate(1140.527 -539.907)" fill="#fff"/>
              <path id="Path_1044" data-name="Path 1044" d="M-1118.422,565.329a.915.915,0,0,0-.194.086C-1118.549,565.388-1118.488,565.357-1118.422,565.329Z" transform="translate(1125.018 -528.325)" fill="#fff"/>
              <path id="Path_1045" data-name="Path 1045" d="M-1110.59,597.124c.635-.765-.786-.815-.407-1.389a2.255,2.255,0,0,1-.964-2.765,1.625,1.625,0,0,0-.606-1.495,12,12,0,0,1-1.66-2.467c-.229-.388-.542-.9-.46-1.272a13.917,13.917,0,0,1,1.172-3.949c.885-1.556.849-2.977.168-5.081-.368,1.166-1.028.889-1.6.983-.738.122-.732.154-1.365-.986a32.619,32.619,0,0,1-2.657-2.741,1.345,1.345,0,0,1-.242-.652,12.788,12.788,0,0,1-.25-3.149q1.739,3.2,3.481,6.4a37.693,37.693,0,0,0,4.291-2.688,4.117,4.117,0,0,0,1.708-2.414,10.919,10.919,0,0,0,.27-1.1l-2.029-1.81c-.062.214-.165.56-.254.861-.88-.467-1.738-.885-2.559-1.369-.758-.445-.867-1.027-.2-1.963.922,1.476,2.011,2.244,3.615,1.868.1-.025.251.234.4.267a4.6,4.6,0,0,0,2.57.17,5.769,5.769,0,0,1,1.217-.208c1.364,1.191,2.233,2.347,3.905,2.039a8.212,8.212,0,0,0,.451,2.586c.864,1.509,1.96,2.885,3.062,4.458l1.362-1.645c-.14-.9-.269-1.712-.362-2.309.622-.791,1.55-1.44,1.559-2.1.017-1.1,1.588-.925,1.368-2.046-.011-.056,1-.279,1.512-.487.236-.1.41-.342.752-.641.856,1.3,1.652,2.5,2.442,3.692l1.315-.765c.658.858.08,2,1.024,2.554-.741,1.877.476,2.871,1.694,3.92.225.192.144.74.218,1.222-1.162-.392-1.822-1.808-3.4-.74,1.317-.167,1.632.827,2.122,1.386s1.549.955,1.309,2.211c1.019-.406,1.617,1.531,2.9.531.142-.591.278-1.156.417-1.729a6.106,6.106,0,0,0-.611-.119c-1.086-.075-2.27-.746-1.988-1.133l.707-.307c-.084-.53-.17-1.08-.262-1.668-2.525-1.86-2.837-2.551-1.886-4.438a13.153,13.153,0,0,1,1.436,1.2,10.225,10.225,0,0,1,.931,1.4l1.957-2.133c-.122-.78-.248-1.59-.446-2.852l-1.715-1.07c.155-.626.329-1.342.562-2.286l1.094.7c0,.584-.008.938-.009,1.292l.847-.016c-.073-.736-.129-1.292-.184-1.826,2.673-1.034,3.366-1.847,4.644-5.375q-1.14-1.982-2.269-3.941l.988-.568c-.306-1.2-1.693.309-1.924-.582.336-.648.6-1.15.907-1.748l.534.966.865-.6c.466.4.886.758,1.591,1.364.073.349.232,1.123.482,2.341.565-.755,1.015-1.124,1.147-1.582.3-1.047-1.008-1.142-1.209-1.648.1-1.084.178-1.926.256-2.763,1.479-.495,1.493-.534,1.545-1.676.066-1.474.172-2.948.262-4.45-.978-1.03-2.372-.819-3.706-.846a11.643,11.643,0,0,0,.339-1.534,10.047,10.047,0,0,0-.1-1.451l2.136-.334a32.747,32.747,0,0,0-18.879-2.615,32.4,32.4,0,0,0-26.357,23.257l1.669-.481c.479.988-.114,1.776-.421,2.656-.293.838-.983.715-1.507.771-.125.014-.264.039-.406.059a30.918,30.918,0,0,0-.062,9.98,31.17,31.17,0,0,0,13.085,20.8c-.119-.2-.237-.39-.364-.579C-1109.949,598-1110.681,597.231-1110.59,597.124Z" transform="translate(1122.719 -541.614)" fill="#fff"/>
              <path id="Path_1046" data-name="Path 1046" d="M-1082.617,571.852c.888-1.281-.789-1.862-.652-2.927a26.169,26.169,0,0,0-.9,2.907c-.028.1-.189.164-.147.13l-1.571-.877c.135-.445.239-.785.347-1.138l-1.261-.779c-.041,1.255-1.57,1.156-1.49,2.362,0,.033-.208.1-.323.117-1.284.147-1.089.424-2,1.059-1.07.747-1.3,2.443-3.049,2.473-.6.009-1.322.819-1.741,1.432-.286.418-.41,1.387-.145,1.662.936.961.273,1.933.148,3.3a34.989,34.989,0,0,0,5.349-2.5l1.777,1.225-.5,1c1.495-.02,2.662-.242,3.458-1.3a47.49,47.49,0,0,0,2.9-4.027c.587-.98,1.162-2.128.071-3.253C-1082.535,572.514-1082.724,572.008-1082.617,571.852Z" transform="translate(1137.866 -526.31)" fill="#fff"/>
              <path id="Path_1047" data-name="Path 1047" d="M-1093.145,570.412a12.182,12.182,0,0,1,.289-1.585,5.009,5.009,0,0,1,.627-1.253c.292-.423-.719-.51-.175-1.1.272-.293.119-1.191.228-1.4a1.322,1.322,0,0,0,.076-.371l-1.086-.623c-.513.7-.974,1.272-1.362,1.886s-1.431.707-1.158,1.812c-1.2-.944-1.01.176-1.312.538C-1096.2,569.384-1095.99,569.5-1093.145,570.412Z" transform="translate(1137.121 -529.023)" fill="#fff"/>
              <path id="Path_1048" data-name="Path 1048" d="M-1084.077,567.712a2.5,2.5,0,0,0-3.707-.841c-.2.117-.4.218-.7.379l-.481-1.37-1.406-.336c.075.487.136.869.192,1.23l1,.178c-.165.246-.3.441-.573.855a2.273,2.273,0,0,1,2.756.956c.749,1.181.7,1.2,1.821.512a1.252,1.252,0,0,1,.417-.144l1.223.874q.138-.2.279-.4C-1083.525,568.975-1083.75,568.315-1084.077,567.712Z" transform="translate(1140.848 -528.204)" fill="#fff"/>
              <path id="Path_1049" data-name="Path 1049" d="M-1087.971,554.275c-1.37-.91-.14-2.9-1.429-3.756.534-.587,1.081-1.186,1.629-1.787a4.972,4.972,0,0,1-2.334.058c-.084.71-.153,1.3-.226,1.924.345.474.752,1.033,1.24,1.7l-3.44,4,.774,1.07Z" transform="translate(1139.635 -537.625)" fill="#fff"/>
              <path id="Path_1050" data-name="Path 1050" d="M-1113.365,573.289c-.482.777-.9,1.44-1.311,2.11.315.573.737,1.278,1.1,2.014a2.766,2.766,0,0,0,2.727,1.659,8.821,8.821,0,0,1-1.1-2.787A10.934,10.934,0,0,0-1113.365,573.289Z" transform="translate(1127.226 -523.864)" fill="#fff"/>
              <path id="Path_1051" data-name="Path 1051" d="M-1094.515,569.858c.543-.072,1.084-.167,1.9-.293-1.779-1.072-3.235-.415-5.209-.24.865.515,1.259,1.2,1.707.314C-1095.65,570.2-1095.066,569.931-1094.515,569.858Z" transform="translate(1136.67 -526.288)" fill="#fff"/>
              <path id="Path_1052" data-name="Path 1052" d="M-1092.032,566.5c-1.882.481-1.905.537-1.178,2.681.111-.37.213-.712.347-1.159.2.37.351.638.5.907l.351-.023a7.784,7.784,0,0,1-.168-1.158A9.273,9.273,0,0,1-1092.032,566.5Z" transform="translate(1139.007 -527.67)" fill="#fff"/>
              <path id="Path_1053" data-name="Path 1053" d="M-1092.653,564.583l.427-.52,1.172.963c.137-.869.234-1.471.357-2.248l-2.361,1.039C-1092.878,564.156-1092.771,564.359-1092.653,564.583Z" transform="translate(1139.34 -529.754)" fill="#fff"/>
              <path id="Path_1054" data-name="Path 1054" d="M-1093.749,559.572c-.178,1.879-.178,1.879.523,3.039C-1092.718,560.479-1092.718,560.479-1093.749,559.572Z" transform="translate(1138.897 -531.551)" fill="#fff"/>
            </g>
            <path id="Path_1055" data-name="Path 1055" d="M-1084.051,529.882A49.947,49.947,0,0,0-1134,579.829a49.948,49.948,0,0,0,49.947,49.947,49.947,49.947,0,0,0,49.947-49.947A49.946,49.946,0,0,0-1084.051,529.882Zm0,88a38.052,38.052,0,0,1-38.051-38.052,38.051,38.051,0,0,1,38.051-38.052A38.052,38.052,0,0,1-1046,579.829,38.053,38.053,0,0,1-1084.051,617.881Z" transform="translate(1133.998 -529.882)" fill="#0054a5"/>
          </g>
          <rect id="Rectangle_132" data-name="Rectangle 132" width="182.028" height="51.599" transform="translate(0 24.147)" fill="#0054a5"/>
          <g id="Group_253" data-name="Group 253" transform="translate(14.957 22.918)">
            <path id="Path_1056" data-name="Path 1056" d="M-1239.8,552.615h-7.235V544.57h21.345v8.045h-7.235v46.01h-6.875Z" transform="translate(1247.038 -544.57)" fill="#fff" stroke="#0054a5" stroke-miterlimit="10" stroke-width="0.25"/>
            <path id="Path_1057" data-name="Path 1057" d="M-1230.278,544.57h6.876V566.9h6.544V544.57h6.875v54.055h-6.875V574.95h-6.544v23.675h-6.876Z" transform="translate(1256.43 -544.57)" fill="#fff" stroke="#0054a5" stroke-miterlimit="10" stroke-width="0.25"/>
            <path id="Path_1058" data-name="Path 1058" d="M-1206.3,544.57h8.065l7.615,54.055h-6.636l-1.329-11.685h-7.315l-1.378,11.685h-6.636Zm1.314,34.326h5.511l-2.728-24.212h-.007Z" transform="translate(1265.599 -544.57)" fill="#fff" stroke="#0054a5" stroke-miterlimit="10" stroke-width="0.25"/>
            <path id="Path_1059" data-name="Path 1059" d="M-1190.082,598.625h-5.641V544.57h10.114l5.806,45.628V544.57h5.639v54.055h-10.066l-5.853-46.01Z" transform="translate(1275.792 -544.57)" fill="#fff" stroke="#0054a5" stroke-miterlimit="10" stroke-width="0.25"/>
            <path id="Path_1060" data-name="Path 1060" d="M-1177.927,598.625V544.57h16.777v8.045h-9.9V566.9h9.565v8.045h-9.565v15.63h10.089v8.045Z" transform="translate(1285.765 -544.57)" fill="#fff" stroke="#0054a5" stroke-miterlimit="10" stroke-width="0.25"/>
            <path id="Path_1061" data-name="Path 1061" d="M-1156.8,570.544l-7.067-25.974h7.039l4.419,17.865,4.448-17.865h6.58l-7.259,26.51,7.591,27.545h-6.664l-5.02-18.972-5.205,18.972h-6.644Z" transform="translate(1293.242 -544.57)" fill="#fff" stroke="#0054a5" stroke-miterlimit="10" stroke-width="0.25"/>
          </g>
        </g>
        <g id="Group_257" data-name="Group 257" transform="translate(3.506 95.697)">
          <g id="Group_256" data-name="Group 256">
            <path id="Path_4286" data-name="Path 4286" d="M10.85-13.965H6.7V0H4.512V-13.965H.4v-1.676H10.85ZM23.2,0H21.022V-6.9H14.9V0H12.719V-15.641H14.9v7.079h6.123v-7.079H23.2ZM33.3-3.953H28.628L27.5,0H25.233l4.694-15.641h2.116L36.7,0H34.429ZM29.122-5.683h3.7l-1.8-6.359h-.064ZM48.984,0H46.793L40.734-11.537l-.064.021V0H38.489V-15.641H40.67l6.059,11.5.064-.011V-15.641h2.191ZM59.458-7.262H54.151v5.607H60.4V0H51.971V-15.641H60.35v1.676h-6.2v5.038h5.307Zm7.659-2.267h.064l2.868-6.112h2.578L68.481-7.9,72.8,0H70.179L67.214-6.252h-.064L64.2,0H61.606L65.86-7.9l-4.146-7.745h2.557ZM81.909,0H79.729V-15.641h2.181ZM86.84-11.623l.129,1.729a3.927,3.927,0,0,1,1.246-1.434,2.971,2.971,0,0,1,1.708-.51A2.856,2.856,0,0,1,92.334-10.7,5.87,5.87,0,0,1,93.2-7.154V0H91.019V-7.144a4.345,4.345,0,0,0-.457-2.32,1.553,1.553,0,0,0-1.38-.677,2.127,2.127,0,0,0-1.289.392,2.745,2.745,0,0,0-.859,1.08V0H84.842V-11.623ZM98.5-14.513v2.89h1.815v1.558H98.5v6.918a2.269,2.269,0,0,0,.274,1.284.851.851,0,0,0,.725.381,1.751,1.751,0,0,0,.344-.032q.161-.032.376-.1l.226,1.5a3.424,3.424,0,0,1-.693.242,3.379,3.379,0,0,1-.79.091A2.441,2.441,0,0,1,97-.585a3.877,3.877,0,0,1-.7-2.562v-6.918H94.768v-1.558H96.3v-2.89ZM106.487.226a4.059,4.059,0,0,1-3.4-1.59,6.569,6.569,0,0,1-1.23-4.136V-6a6.819,6.819,0,0,1,1.225-4.195,3.815,3.815,0,0,1,3.2-1.638,3.522,3.522,0,0,1,3.024,1.407,6.239,6.239,0,0,1,1.037,3.781v1.225h-6.306a5.739,5.739,0,0,0,.639,2.89,2.113,2.113,0,0,0,1.96,1.106,4.08,4.08,0,0,0,1.59-.285,4.065,4.065,0,0,0,1.246-.833l.709,1.354a4.633,4.633,0,0,1-1.531,1.01A5.439,5.439,0,0,1,106.487.226Zm-.2-10.388a1.709,1.709,0,0,0-1.5.875,5.216,5.216,0,0,0-.7,2.315H108.2v-.247a4.255,4.255,0,0,0-.467-2.127A1.552,1.552,0,0,0,106.283-10.162Zm11.011.354-.945-.054a1.64,1.64,0,0,0-1.144.414,2.649,2.649,0,0,0-.7,1.166V0H112.31V-11.623h2.009l.15,1.719a3.734,3.734,0,0,1,.988-1.423,2.08,2.08,0,0,1,1.386-.51,1.836,1.836,0,0,1,.381.038,2.1,2.1,0,0,1,.317.091Zm3.76-1.815.129,1.729a3.927,3.927,0,0,1,1.246-1.434,2.971,2.971,0,0,1,1.708-.51,2.856,2.856,0,0,1,2.412,1.139,5.87,5.87,0,0,1,.865,3.545V0h-2.181V-7.144a4.345,4.345,0,0,0-.457-2.32,1.553,1.553,0,0,0-1.38-.677,2.127,2.127,0,0,0-1.289.392,2.745,2.745,0,0,0-.859,1.08V0h-2.191V-11.623ZM135.942,0q-.14-.526-.22-.94a5.922,5.922,0,0,1-.1-.822A4.268,4.268,0,0,1,134.4-.338a2.812,2.812,0,0,1-1.724.564,3.052,3.052,0,0,1-2.39-.924,3.632,3.632,0,0,1-.833-2.524,3.166,3.166,0,0,1,1.155-2.589,4.943,4.943,0,0,1,3.217-.945h1.783V-7.949a2.608,2.608,0,0,0-.473-1.66,1.626,1.626,0,0,0-1.354-.6,1.619,1.619,0,0,0-1.262.516,1.892,1.892,0,0,0-.467,1.321l-2.084.011-.021-.064A2.954,2.954,0,0,1,131-10.807a4.137,4.137,0,0,1,2.922-1.031,3.915,3.915,0,0,1,2.8,1.015,3.792,3.792,0,0,1,1.074,2.9v5.393a9.545,9.545,0,0,0,.086,1.294A8.243,8.243,0,0,0,138.155,0Zm-2.814-1.45A2.448,2.448,0,0,0,134.707-2a2.562,2.562,0,0,0,.9-1.337V-5.4h-1.815a2.006,2.006,0,0,0-1.579.639,2.237,2.237,0,0,0-.569,1.542,2,2,0,0,0,.387,1.289A1.323,1.323,0,0,0,133.128-1.45ZM143.1-14.513v2.89h1.815v1.558H143.1v6.918a2.269,2.269,0,0,0,.274,1.284.851.851,0,0,0,.725.381,1.751,1.751,0,0,0,.344-.032q.161-.032.376-.1l.226,1.5a3.424,3.424,0,0,1-.693.242,3.379,3.379,0,0,1-.79.091A2.441,2.441,0,0,1,141.6-.585a3.877,3.877,0,0,1-.7-2.562v-6.918h-1.536v-1.558h1.536v-2.89ZM149.22,0h-2.191V-11.623h2.191Zm0-14.674h-2.191v-2.084h2.191Zm2.224,8.733a6.946,6.946,0,0,1,1.225-4.243,3.955,3.955,0,0,1,3.362-1.654,3.969,3.969,0,0,1,3.368,1.654,6.924,6.924,0,0,1,1.23,4.243v.29A6.893,6.893,0,0,1,159.4-1.413,3.958,3.958,0,0,1,156.052.226a3.99,3.99,0,0,1-3.384-1.638,6.893,6.893,0,0,1-1.225-4.238Zm2.191.29a6.747,6.747,0,0,0,.6,3.04,1.933,1.933,0,0,0,1.821,1.182,1.91,1.91,0,0,0,1.789-1.187,6.754,6.754,0,0,0,.6-3.035v-.29a6.716,6.716,0,0,0-.6-3.024,1.927,1.927,0,0,0-1.8-1.2,1.917,1.917,0,0,0-1.8,1.2,6.768,6.768,0,0,0-.6,3.024Zm11.054-5.973.129,1.729a3.927,3.927,0,0,1,1.246-1.434,2.971,2.971,0,0,1,1.708-.51,2.856,2.856,0,0,1,2.412,1.139,5.87,5.87,0,0,1,.865,3.545V0h-2.181V-7.144a4.345,4.345,0,0,0-.457-2.32,1.553,1.553,0,0,0-1.38-.677,2.127,2.127,0,0,0-1.289.392,2.745,2.745,0,0,0-.859,1.08V0H162.69V-11.623ZM179.577,0q-.14-.526-.22-.94a5.922,5.922,0,0,1-.1-.822,4.268,4.268,0,0,1-1.219,1.423,2.812,2.812,0,0,1-1.724.564,3.052,3.052,0,0,1-2.39-.924,3.632,3.632,0,0,1-.833-2.524,3.166,3.166,0,0,1,1.155-2.589,4.943,4.943,0,0,1,3.217-.945h1.783V-7.949a2.608,2.608,0,0,0-.473-1.66,1.626,1.626,0,0,0-1.354-.6,1.619,1.619,0,0,0-1.262.516,1.892,1.892,0,0,0-.467,1.321l-2.084.011-.021-.064a2.954,2.954,0,0,1,1.053-2.385,4.137,4.137,0,0,1,2.922-1.031,3.915,3.915,0,0,1,2.8,1.015,3.792,3.792,0,0,1,1.074,2.9v5.393a9.545,9.545,0,0,0,.086,1.294A8.243,8.243,0,0,0,181.79,0Zm-2.814-1.45A2.448,2.448,0,0,0,178.342-2a2.562,2.562,0,0,0,.9-1.337V-5.4h-1.815a2.006,2.006,0,0,0-1.579.639,2.237,2.237,0,0,0-.569,1.542,2,2,0,0,0,.387,1.289A1.323,1.323,0,0,0,176.763-1.45Zm9.5,1.45h-2.191V-16.758h2.191Zm9.915-1.654H202.5V0h-8.508V-15.641h2.181ZM206.69,0H204.5V-11.623h2.191Zm0-14.674H204.5v-2.084h2.191Zm4.662,3.051.118,1.579a3.615,3.615,0,0,1,1.23-1.327,3.2,3.2,0,0,1,1.735-.467,2.714,2.714,0,0,1,1.676.532,3.18,3.18,0,0,1,1.063,1.617,3.969,3.969,0,0,1,1.23-1.579,2.956,2.956,0,0,1,1.81-.569,2.753,2.753,0,0,1,2.379,1.23,6.547,6.547,0,0,1,.865,3.744V0h-2.191V-6.875a5.134,5.134,0,0,0-.451-2.541,1.48,1.48,0,0,0-1.343-.725,1.641,1.641,0,0,0-1.262.559,3.4,3.4,0,0,0-.747,1.472q.011.193.021.4t.011.424V0h-2.181V-6.875a5.055,5.055,0,0,0-.462-2.508,1.481,1.481,0,0,0-1.343-.757,1.893,1.893,0,0,0-1.2.387,2.55,2.55,0,0,0-.773,1.063V0h-2.191V-11.623ZM228.3,0h-2.191V-11.623H228.3Zm0-14.674h-2.191v-2.084H228.3Zm5.468.161v2.89h1.815v1.558h-1.815v6.918a2.269,2.269,0,0,0,.274,1.284.851.851,0,0,0,.725.381,1.751,1.751,0,0,0,.344-.032q.161-.032.376-.1l.226,1.5a3.424,3.424,0,0,1-.693.242,3.379,3.379,0,0,1-.79.091,2.441,2.441,0,0,1-1.955-.811,3.877,3.877,0,0,1-.7-2.562v-6.918h-1.536v-1.558h1.536v-2.89ZM241.764.226a4.059,4.059,0,0,1-3.4-1.59,6.569,6.569,0,0,1-1.23-4.136V-6a6.819,6.819,0,0,1,1.225-4.195,3.815,3.815,0,0,1,3.2-1.638,3.522,3.522,0,0,1,3.024,1.407,6.239,6.239,0,0,1,1.037,3.781v1.225h-6.306a5.739,5.739,0,0,0,.639,2.89,2.113,2.113,0,0,0,1.96,1.106,4.08,4.08,0,0,0,1.59-.285,4.065,4.065,0,0,0,1.246-.833l.709,1.354a4.633,4.633,0,0,1-1.531,1.01A5.439,5.439,0,0,1,241.764.226Zm-.2-10.388a1.709,1.709,0,0,0-1.5.875,5.216,5.216,0,0,0-.7,2.315h4.114v-.247A4.255,4.255,0,0,0,243-9.346,1.552,1.552,0,0,0,241.56-10.162Zm5.618,4.49a8.59,8.59,0,0,1,1.021-4.479,3.188,3.188,0,0,1,2.868-1.687,2.958,2.958,0,0,1,1.482.371,3.365,3.365,0,0,1,1.128,1.069v-6.359h2.181V0h-1.8l-.226-1.4a3.447,3.447,0,0,1-1.182,1.208,3.081,3.081,0,0,1-1.6.414,3.221,3.221,0,0,1-2.852-1.552,7.426,7.426,0,0,1-1.015-4.12Zm2.17.226a6.473,6.473,0,0,0,.548,2.906,1.8,1.8,0,0,0,1.708,1.08,1.994,1.994,0,0,0,1.241-.387,2.783,2.783,0,0,0,.833-1.1V-8.572a3.077,3.077,0,0,0-.838-1.144,1.867,1.867,0,0,0-1.225-.424A1.81,1.81,0,0,0,249.9-8.9a8,8,0,0,0-.553,3.228ZM260.573-.258l-1.4,3.169h-1.4l.645-3.244V-2.32h2.148ZM278.416,0h-2.181V-6.9h-6.123V0h-2.181V-15.641h2.181v7.079h6.123v-7.079h2.181Zm2.31-5.94a6.946,6.946,0,0,1,1.225-4.243,3.955,3.955,0,0,1,3.362-1.654,3.969,3.969,0,0,1,3.368,1.654,6.924,6.924,0,0,1,1.23,4.243v.29a6.893,6.893,0,0,1-1.225,4.238A3.958,3.958,0,0,1,285.334.226a3.99,3.99,0,0,1-3.384-1.638,6.893,6.893,0,0,1-1.225-4.238Zm2.191.29a6.747,6.747,0,0,0,.6,3.04,1.933,1.933,0,0,0,1.821,1.182,1.91,1.91,0,0,0,1.789-1.187,6.754,6.754,0,0,0,.6-3.035v-.29a6.717,6.717,0,0,0-.6-3.024,1.927,1.927,0,0,0-1.8-1.2,1.917,1.917,0,0,0-1.8,1.2,6.768,6.768,0,0,0-.6,3.024ZM298.246-1.7a3.741,3.741,0,0,1-1.2,1.423,2.934,2.934,0,0,1-1.7.5,2.926,2.926,0,0,1-2.5-1.235,6.54,6.54,0,0,1-.9-3.835v-6.778h2.191v6.8a5.657,5.657,0,0,0,.43,2.616,1.413,1.413,0,0,0,1.311.747,2.413,2.413,0,0,0,1.37-.376,2.523,2.523,0,0,0,.886-1.074v-8.712h2.191V0h-1.858Zm10.087-1.235a1.548,1.548,0,0,0-.451-1.133,6.038,6.038,0,0,0-1.729-1.026,8.671,8.671,0,0,1-2.686-1.472,2.611,2.611,0,0,1-.892-2.041,2.935,2.935,0,0,1,1.08-2.288,4.109,4.109,0,0,1,2.809-.945,4.032,4.032,0,0,1,2.89,1.037,3.189,3.189,0,0,1,1.053,2.508l-.021.064h-2.105a2.174,2.174,0,0,0-.489-1.423,1.625,1.625,0,0,0-1.327-.6,1.764,1.764,0,0,0-1.305.467,1.494,1.494,0,0,0-.467,1.09,1.373,1.373,0,0,0,.4,1.047,7.118,7.118,0,0,0,1.724.983,7.941,7.941,0,0,1,2.745,1.493,2.774,2.774,0,0,1,.918,2.127A2.9,2.9,0,0,1,309.37-.682a4.466,4.466,0,0,1-2.917.908,4.23,4.23,0,0,1-3.078-1.09,3.267,3.267,0,0,1-1.069-2.551l.021-.064h2.03A2.123,2.123,0,0,0,305-1.853a2.238,2.238,0,0,0,1.488.5,1.942,1.942,0,0,0,1.359-.446A1.467,1.467,0,0,0,308.333-2.933ZM316.712.226a4.059,4.059,0,0,1-3.4-1.59,6.569,6.569,0,0,1-1.23-4.136V-6a6.819,6.819,0,0,1,1.225-4.195,3.815,3.815,0,0,1,3.2-1.638,3.522,3.522,0,0,1,3.024,1.407,6.239,6.239,0,0,1,1.037,3.781v1.225h-6.306a5.739,5.739,0,0,0,.639,2.89,2.113,2.113,0,0,0,1.96,1.106,4.08,4.08,0,0,0,1.59-.285,4.065,4.065,0,0,0,1.246-.833l.709,1.354a4.633,4.633,0,0,1-1.531,1.01A5.439,5.439,0,0,1,316.712.226Zm-.2-10.388a1.709,1.709,0,0,0-1.5.875,5.216,5.216,0,0,0-.7,2.315h4.114v-.247a4.255,4.255,0,0,0-.467-2.127A1.552,1.552,0,0,0,316.508-10.162ZM332.492-4.4h-2.127l-.7,4.4h-1.482l.7-4.4h-2.159V-5.8H329.1l.634-3.953h-2.31v-1.418h2.535l.709-4.469h1.493l-.72,4.469h2.127l.72-4.469h1.482l-.709,4.469h1.977v1.418h-2.2L334.211-5.8h2.127v1.4H334L333.3,0h-1.5Zm-1.9-1.4h2.127l.623-3.953h-2.127Zm18.38-10.065a6.623,6.623,0,0,1,1.568.183,6.027,6.027,0,0,1,1.354.494l-.43,1.6a5.417,5.417,0,0,0-1.139-.44,5.428,5.428,0,0,0-1.354-.15,2.472,2.472,0,0,0-2.122,1.214,5.593,5.593,0,0,0-.822,3.19v1.225a4.057,4.057,0,0,1,1.386-1.063A4.137,4.137,0,0,1,349.207-10a3.362,3.362,0,0,1,2.852,1.37,5.939,5.939,0,0,1,1.026,3.647,5.551,5.551,0,0,1-1.246,3.776A4.13,4.13,0,0,1,348.563.226a4.191,4.191,0,0,1-3.395-1.633,6.851,6.851,0,0,1-1.332-4.458v-3.76a6.747,6.747,0,0,1,1.466-4.5A4.6,4.6,0,0,1,348.971-15.866ZM348.487-8.4a2.658,2.658,0,0,0-1.509.419,2.625,2.625,0,0,0-.951,1.139v1.1a6.058,6.058,0,0,0,.709,3.169,2.1,2.1,0,0,0,1.826,1.16,1.921,1.921,0,0,0,1.708-1,4.789,4.789,0,0,0,.623-2.562,4.33,4.33,0,0,0-.634-2.5A2.036,2.036,0,0,0,348.487-8.4Zm15.469-3.244a3.806,3.806,0,0,1-.612,2.143A3.774,3.774,0,0,1,361.7-8.11a4.344,4.344,0,0,1,1.95,1.493,3.854,3.854,0,0,1,.736,2.331,4.262,4.262,0,0,1-1.305,3.33A4.78,4.78,0,0,1,359.745.226a5.12,5.12,0,0,1-3.486-1.182,4.177,4.177,0,0,1-1.359-3.33,3.792,3.792,0,0,1,.752-2.336,4.415,4.415,0,0,1,2.041-1.488A3.816,3.816,0,0,1,355.969-9.5a3.734,3.734,0,0,1-.628-2.143,3.982,3.982,0,0,1,1.219-3.131,4.582,4.582,0,0,1,3.174-1.09,4.3,4.3,0,0,1,3.045,1.09A4.059,4.059,0,0,1,363.956-11.645Zm-1.772,7.3a3.1,3.1,0,0,0-.709-2.105,2.218,2.218,0,0,0-1.74-.816,2.433,2.433,0,0,0-1.875.816,3,3,0,0,0-.747,2.105,2.974,2.974,0,0,0,.741,2.122,2.479,2.479,0,0,0,1.891.79,2.217,2.217,0,0,0,1.746-.795A3.106,3.106,0,0,0,362.184-4.34Zm-.43-7.262a2.9,2.9,0,0,0-.575-1.869,1.775,1.775,0,0,0-1.445-.72,2.006,2.006,0,0,0-1.584.693,2.778,2.778,0,0,0-.607,1.9,2.894,2.894,0,0,0,.618,1.934,1.981,1.981,0,0,0,1.584.73,1.748,1.748,0,0,0,1.445-.73A3.08,3.08,0,0,0,361.754-11.6ZM368.7-.258l-1.4,3.169h-1.4l.645-3.244V-2.32H368.7ZM376.063,0V-15.641h4.329a5.318,5.318,0,0,1,3.507,1.053,3.878,3.878,0,0,1,1.262,3.158,3.506,3.506,0,0,1-.548,1.944,3.2,3.2,0,0,1-1.525,1.246,3.035,3.035,0,0,1,2.1,1.294,4.332,4.332,0,0,1,.736,2.519,4.235,4.235,0,0,1-1.241,3.292A4.883,4.883,0,0,1,381.262,0Zm2.181-7.294v5.64h3.019a2.333,2.333,0,0,0,1.826-.714,2.953,2.953,0,0,0,.645-2.046,3.172,3.172,0,0,0-.628-2.062,2.266,2.266,0,0,0-1.767-.816h-3.094Zm0-1.568h2.481a2.224,2.224,0,0,0,1.649-.682,2.628,2.628,0,0,0,.6-1.842,2.6,2.6,0,0,0-.655-1.934,2.633,2.633,0,0,0-1.923-.645h-2.148ZM390.3,0H388.1V-16.758H390.3Zm2.224-5.94a6.946,6.946,0,0,1,1.225-4.243,3.955,3.955,0,0,1,3.362-1.654,3.969,3.969,0,0,1,3.368,1.654A6.924,6.924,0,0,1,401.7-5.94v.29a6.893,6.893,0,0,1-1.225,4.238A3.958,3.958,0,0,1,397.128.226a3.99,3.99,0,0,1-3.384-1.638A6.893,6.893,0,0,1,392.52-5.65Zm2.191.29a6.747,6.747,0,0,0,.6,3.04,1.933,1.933,0,0,0,1.821,1.182,1.91,1.91,0,0,0,1.789-1.187,6.754,6.754,0,0,0,.6-3.035v-.29a6.717,6.717,0,0,0-.6-3.024,1.927,1.927,0,0,0-1.8-1.2,1.917,1.917,0,0,0-1.8,1.2,6.768,6.768,0,0,0-.6,3.024Zm13.116,4.222a1.716,1.716,0,0,0,1.348-.623,2.479,2.479,0,0,0,.542-1.687h1.966l.021.064A3.591,3.591,0,0,1,410.6-.9,3.814,3.814,0,0,1,407.827.226a3.839,3.839,0,0,1-3.319-1.638A7.023,7.023,0,0,1,403.337-5.6V-6a7.053,7.053,0,0,1,1.171-4.184,3.831,3.831,0,0,1,3.319-1.649,3.682,3.682,0,0,1,2.831,1.176,4.2,4.2,0,0,1,1.058,3.056l-.021.054h-1.977a3.157,3.157,0,0,0-.521-1.885,1.611,1.611,0,0,0-1.37-.725A1.829,1.829,0,0,0,406.06-8.98,7.14,7.14,0,0,0,405.518-6V-5.6a7.218,7.218,0,0,0,.537,3A1.827,1.827,0,0,0,407.827-1.429Zm8.927-3.9h-.816V0h-2.181V-16.758h2.181v9.765h.763l2.793-4.63h2.567L418.5-6.338,422.447,0H419.9Zm16.973.924H431.6L430.9,0h-1.482l.7-4.4h-2.159V-5.8h2.374l.634-3.953h-2.31v-1.418h2.535l.709-4.469h1.493l-.72,4.469H434.8l.72-4.469H437l-.709,4.469h1.977v1.418h-2.2L435.445-5.8h2.127v1.4H435.23l-.7,4.4h-1.5Zm-1.9-1.4h2.127l.623-3.953h-2.127ZM455.813,0h-2.181V-6.9h-6.123V0h-2.181V-15.641h2.181v7.079h6.123v-7.079h2.181Zm4.909-.258-1.4,3.169h-1.4l.645-3.244V-2.32h2.148Zm9.528-6.478V0h-2.181V-15.63h4.608a4.913,4.913,0,0,1,3.486,1.149,4.294,4.294,0,0,1,1.23,3.3,3.955,3.955,0,0,1-.575,2.143,3.788,3.788,0,0,1-1.649,1.423A2.993,2.993,0,0,1,476.9-6.263a4.719,4.719,0,0,1,.532,2.342v1.364a6.132,6.132,0,0,0,.14,1.343,1.882,1.882,0,0,0,.494.967V0h-2.245a1.86,1.86,0,0,1-.478-1.08,9.738,9.738,0,0,1-.113-1.5V-3.9a3.24,3.24,0,0,0-.607-2.073,2.029,2.029,0,0,0-1.681-.763Zm0-1.665h2.32a2.561,2.561,0,0,0,2-.714,2.919,2.919,0,0,0,.645-2.025,3.129,3.129,0,0,0-.628-2.084,2.361,2.361,0,0,0-1.907-.741H470.25Zm9.378,2.46a6.946,6.946,0,0,1,1.225-4.243,3.955,3.955,0,0,1,3.362-1.654,3.969,3.969,0,0,1,3.368,1.654,6.924,6.924,0,0,1,1.23,4.243v.29a6.893,6.893,0,0,1-1.225,4.238A3.958,3.958,0,0,1,484.236.226a3.99,3.99,0,0,1-3.384-1.638,6.893,6.893,0,0,1-1.225-4.238Zm2.191.29a6.747,6.747,0,0,0,.6,3.04,1.933,1.933,0,0,0,1.821,1.182,1.91,1.91,0,0,0,1.789-1.187,6.754,6.754,0,0,0,.6-3.035v-.29a6.717,6.717,0,0,0-.6-3.024,1.927,1.927,0,0,0-1.8-1.2,1.917,1.917,0,0,0-1.8,1.2,6.768,6.768,0,0,0-.6,3.024ZM496.934,0q-.14-.526-.22-.94a5.92,5.92,0,0,1-.1-.822,4.268,4.268,0,0,1-1.219,1.423,2.812,2.812,0,0,1-1.724.564,3.052,3.052,0,0,1-2.39-.924,3.632,3.632,0,0,1-.833-2.524A3.166,3.166,0,0,1,491.6-5.812a4.943,4.943,0,0,1,3.217-.945H496.6V-7.949a2.608,2.608,0,0,0-.473-1.66,1.626,1.626,0,0,0-1.354-.6,1.619,1.619,0,0,0-1.262.516,1.892,1.892,0,0,0-.467,1.321l-2.084.011-.021-.064a2.954,2.954,0,0,1,1.053-2.385,4.137,4.137,0,0,1,2.922-1.031,3.915,3.915,0,0,1,2.8,1.015,3.792,3.792,0,0,1,1.074,2.9v5.393a9.547,9.547,0,0,0,.086,1.294A8.243,8.243,0,0,0,499.146,0Zm-2.814-1.45A2.448,2.448,0,0,0,495.7-2a2.562,2.562,0,0,0,.9-1.337V-5.4h-1.815a2.005,2.005,0,0,0-1.579.639,2.237,2.237,0,0,0-.569,1.542,2,2,0,0,0,.387,1.289A1.323,1.323,0,0,0,494.119-1.45Zm6.757-4.222a8.59,8.59,0,0,1,1.021-4.479,3.188,3.188,0,0,1,2.868-1.687,2.958,2.958,0,0,1,1.482.371,3.364,3.364,0,0,1,1.128,1.069v-6.359h2.181V0h-1.8l-.226-1.4a3.447,3.447,0,0,1-1.182,1.208,3.081,3.081,0,0,1-1.6.414,3.221,3.221,0,0,1-2.852-1.552,7.426,7.426,0,0,1-1.015-4.12Zm2.17.226a6.473,6.473,0,0,0,.548,2.906,1.8,1.8,0,0,0,1.708,1.08,1.994,1.994,0,0,0,1.241-.387,2.783,2.783,0,0,0,.833-1.1V-8.572a3.077,3.077,0,0,0-.838-1.144,1.867,1.867,0,0,0-1.225-.424A1.81,1.81,0,0,0,503.6-8.9a8,8,0,0,0-.553,3.228ZM522.07-4.4h-2.127l-.7,4.4h-1.482l.7-4.4H516.3V-5.8h2.374l.634-3.953H517v-1.418h2.535l.709-4.469h1.493l-.72,4.469h2.127l.72-4.469h1.482l-.709,4.469h1.977v1.418h-2.2L523.789-5.8h2.127v1.4h-2.342l-.7,4.4h-1.5Zm-1.9-1.4H522.3l.623-3.953h-2.127ZM539.408,0h-2.191V-13.793l-3.051.193v-1.622l5.242-.645Zm11.344,0h-2.191V-13.793l-3.051.193v-1.622l5.242-.645Zm7.53-.258-1.4,3.169h-1.4l.645-3.244V-2.32h2.148ZM565.641,0V-15.641h4.329a5.318,5.318,0,0,1,3.507,1.053,3.878,3.878,0,0,1,1.262,3.158,3.506,3.506,0,0,1-.548,1.944,3.2,3.2,0,0,1-1.525,1.246,3.035,3.035,0,0,1,2.1,1.294,4.332,4.332,0,0,1,.736,2.519,4.235,4.235,0,0,1-1.241,3.292A4.883,4.883,0,0,1,570.84,0Zm2.181-7.294v5.64h3.019a2.333,2.333,0,0,0,1.826-.714,2.953,2.953,0,0,0,.645-2.046,3.172,3.172,0,0,0-.628-2.062,2.266,2.266,0,0,0-1.767-.816h-3.094Zm0-1.568H570.3a2.224,2.224,0,0,0,1.649-.682,2.628,2.628,0,0,0,.6-1.842,2.6,2.6,0,0,0-.655-1.934,2.633,2.633,0,0,0-1.923-.645h-2.148ZM583.58,0q-.14-.526-.22-.94a5.925,5.925,0,0,1-.1-.822,4.268,4.268,0,0,1-1.219,1.423,2.812,2.812,0,0,1-1.724.564,3.052,3.052,0,0,1-2.39-.924,3.632,3.632,0,0,1-.833-2.524,3.166,3.166,0,0,1,1.155-2.589,4.943,4.943,0,0,1,3.217-.945h1.783V-7.949a2.608,2.608,0,0,0-.473-1.66,1.626,1.626,0,0,0-1.354-.6,1.619,1.619,0,0,0-1.262.516,1.892,1.892,0,0,0-.467,1.321l-2.084.011-.021-.064a2.954,2.954,0,0,1,1.053-2.385,4.137,4.137,0,0,1,2.922-1.031,3.915,3.915,0,0,1,2.8,1.015,3.792,3.792,0,0,1,1.074,2.9v5.393a9.543,9.543,0,0,0,.086,1.294A8.243,8.243,0,0,0,585.793,0Zm-2.814-1.45A2.448,2.448,0,0,0,582.345-2a2.562,2.562,0,0,0,.9-1.337V-5.4h-1.815a2.006,2.006,0,0,0-1.579.639,2.237,2.237,0,0,0-.569,1.542,2,2,0,0,0,.387,1.289A1.323,1.323,0,0,0,580.766-1.45Zm9.142-10.173.129,1.729a3.927,3.927,0,0,1,1.246-1.434,2.971,2.971,0,0,1,1.708-.51A2.856,2.856,0,0,1,595.4-10.7a5.87,5.87,0,0,1,.865,3.545V0h-2.181V-7.144a4.345,4.345,0,0,0-.457-2.32,1.553,1.553,0,0,0-1.38-.677,2.127,2.127,0,0,0-1.289.392,2.745,2.745,0,0,0-.859,1.08V0h-2.191V-11.623ZM604.8,0q-.14-.526-.22-.94a5.925,5.925,0,0,1-.1-.822,4.268,4.268,0,0,1-1.219,1.423,2.812,2.812,0,0,1-1.724.564A3.052,3.052,0,0,1,599.14-.7a3.632,3.632,0,0,1-.833-2.524,3.166,3.166,0,0,1,1.155-2.589,4.943,4.943,0,0,1,3.217-.945h1.783V-7.949a2.608,2.608,0,0,0-.473-1.66,1.626,1.626,0,0,0-1.354-.6,1.619,1.619,0,0,0-1.262.516,1.892,1.892,0,0,0-.467,1.321l-2.084.011-.021-.064a2.954,2.954,0,0,1,1.053-2.385,4.137,4.137,0,0,1,2.922-1.031,3.915,3.915,0,0,1,2.8,1.015,3.792,3.792,0,0,1,1.074,2.9v5.393a9.543,9.543,0,0,0,.086,1.294A8.243,8.243,0,0,0,607.009,0Zm-2.814-1.45A2.448,2.448,0,0,0,603.561-2a2.562,2.562,0,0,0,.9-1.337V-5.4h-1.815a2.006,2.006,0,0,0-1.579.639,2.237,2.237,0,0,0-.569,1.542,2,2,0,0,0,.387,1.289A1.323,1.323,0,0,0,601.981-1.45Zm9.142-10.173.129,1.729a3.927,3.927,0,0,1,1.246-1.434,2.971,2.971,0,0,1,1.708-.51,2.856,2.856,0,0,1,2.412,1.139,5.87,5.87,0,0,1,.865,3.545V0H615.3V-7.144a4.345,4.345,0,0,0-.457-2.32,1.553,1.553,0,0,0-1.38-.677,2.127,2.127,0,0,0-1.289.392,2.745,2.745,0,0,0-.859,1.08V0h-2.191V-11.623ZM622.306,0h-2.191V-11.623h2.191Zm0-14.674h-2.191v-2.084h2.191ZM627.129-.258l-1.4,3.169h-1.4l.645-3.244V-2.32h2.148ZM634.487,0V-15.641h4.437a5.2,5.2,0,0,1,4.141,1.88,7.181,7.181,0,0,1,1.606,4.834V-6.7a7.155,7.155,0,0,1-1.606,4.834A5.208,5.208,0,0,1,638.924,0Zm2.181-13.965V-1.654h2.256A2.983,2.983,0,0,0,641.5-3.067a6.307,6.307,0,0,0,.967-3.636V-8.948a6.246,6.246,0,0,0-.967-3.6,2.983,2.983,0,0,0-2.578-1.413Zm12.536,3.9a3.852,3.852,0,0,1,1.214-1.305,2.9,2.9,0,0,1,1.611-.467,2.942,2.942,0,0,1,2.471,1.16,5.835,5.835,0,0,1,.892,3.566V0H653.2V-7.133a4.348,4.348,0,0,0-.462-2.3,1.527,1.527,0,0,0-1.364-.7,2.263,2.263,0,0,0-1.294.365,2.64,2.64,0,0,0-.875,1.021V0h-2.191V-16.758H649.2ZM663.91,0q-.14-.526-.22-.94a5.925,5.925,0,0,1-.1-.822,4.268,4.268,0,0,1-1.219,1.423,2.812,2.812,0,0,1-1.724.564,3.052,3.052,0,0,1-2.39-.924,3.632,3.632,0,0,1-.833-2.524,3.166,3.166,0,0,1,1.155-2.589,4.943,4.943,0,0,1,3.217-.945h1.783V-7.949a2.608,2.608,0,0,0-.473-1.66,1.626,1.626,0,0,0-1.354-.6,1.619,1.619,0,0,0-1.262.516,1.892,1.892,0,0,0-.467,1.321l-2.084.011-.021-.064a2.954,2.954,0,0,1,1.053-2.385,4.137,4.137,0,0,1,2.922-1.031,3.915,3.915,0,0,1,2.8,1.015,3.792,3.792,0,0,1,1.074,2.9v5.393a9.543,9.543,0,0,0,.086,1.294A8.243,8.243,0,0,0,666.123,0ZM661.1-1.45A2.448,2.448,0,0,0,662.675-2a2.562,2.562,0,0,0,.9-1.337V-5.4h-1.815a2.006,2.006,0,0,0-1.579.639,2.237,2.237,0,0,0-.569,1.542A2,2,0,0,0,660-1.934,1.323,1.323,0,0,0,661.1-1.45Zm10.173-3.878h-.816V0h-2.181V-16.758h2.181v9.765h.763l2.793-4.63h2.567L673.02-6.338,676.962,0h-2.546ZM684.32,0q-.14-.526-.22-.94a5.925,5.925,0,0,1-.1-.822,4.268,4.268,0,0,1-1.219,1.423,2.812,2.812,0,0,1-1.724.564,3.052,3.052,0,0,1-2.39-.924,3.632,3.632,0,0,1-.833-2.524,3.166,3.166,0,0,1,1.155-2.589,4.943,4.943,0,0,1,3.217-.945h1.783V-7.949a2.608,2.608,0,0,0-.473-1.66,1.626,1.626,0,0,0-1.354-.6,1.619,1.619,0,0,0-1.262.516,1.892,1.892,0,0,0-.467,1.321l-2.084.011-.021-.064a2.954,2.954,0,0,1,1.053-2.385,4.137,4.137,0,0,1,2.922-1.031,3.915,3.915,0,0,1,2.8,1.015,3.792,3.792,0,0,1,1.074,2.9v5.393a9.543,9.543,0,0,0,.086,1.294A8.243,8.243,0,0,0,686.533,0Zm-2.814-1.45A2.448,2.448,0,0,0,683.085-2a2.562,2.562,0,0,0,.9-1.337V-5.4h-1.815a2.006,2.006,0,0,0-1.579.639,2.237,2.237,0,0,0-.569,1.542,2,2,0,0,0,.387,1.289A1.323,1.323,0,0,0,681.506-1.45Zm12.826-4.372h-5.446V-7.487h5.446ZM703.1,0h-2.191V-13.793l-3.051.193v-1.622l5.242-.645Zm14.523,0h-9.034V-1.45l4.426-5.79a14.522,14.522,0,0,0,1.509-2.471,4.64,4.64,0,0,0,.424-1.869,3.142,3.142,0,0,0-.521-1.9,1.78,1.78,0,0,0-1.531-.709,2,2,0,0,0-1.746.87,3.78,3.78,0,0,0-.607,2.213H708.4l-.032-.064a4.623,4.623,0,0,1,1.192-3.33,4.27,4.27,0,0,1,3.33-1.364,4.161,4.161,0,0,1,3.137,1.166,4.3,4.3,0,0,1,1.128,3.121,5.252,5.252,0,0,1-.682,2.562,23.646,23.646,0,0,1-2.089,3.035l-3.051,4.329h6.284Zm8.164,0h-2.191V-13.793l-3.051.193v-1.622l5.242-.645Zm9.722-8.852a2.058,2.058,0,0,0,1.74-.725,3.115,3.115,0,0,0,.559-1.95,3.089,3.089,0,0,0-.564-1.923,1.944,1.944,0,0,0-1.649-.741,2.113,2.113,0,0,0-1.654.741,2.749,2.749,0,0,0-.655,1.891h-2.127l-.021-.064a3.833,3.833,0,0,1,1.23-3.024,4.5,4.5,0,0,1,3.228-1.219,4.533,4.533,0,0,1,3.239,1.128,4.213,4.213,0,0,1,1.2,3.223,3.76,3.76,0,0,1-.569,2.03,3.782,3.782,0,0,1-1.568,1.407,3.637,3.637,0,0,1,1.751,1.418,4.254,4.254,0,0,1,.612,2.342A4.321,4.321,0,0,1,738.95-.983,4.746,4.746,0,0,1,735.593.226a4.947,4.947,0,0,1-3.26-1.166,3.8,3.8,0,0,1-1.348-3.207l.021-.064h2.116a2.921,2.921,0,0,0,.693,1.982,2.245,2.245,0,0,0,1.778.8,2.226,2.226,0,0,0,1.794-.79,3.115,3.115,0,0,0,.666-2.079,3.2,3.2,0,0,0-.645-2.191,2.421,2.421,0,0,0-1.9-.72H734V-8.852Zm9.152,8.594-1.4,3.169h-1.4l.645-3.244V-2.32h2.148ZM1.493,27V11.359H5.822A5.318,5.318,0,0,1,9.33,12.412a3.878,3.878,0,0,1,1.262,3.158,3.506,3.506,0,0,1-.548,1.944,3.2,3.2,0,0,1-1.525,1.246,3.035,3.035,0,0,1,2.1,1.294,4.332,4.332,0,0,1,.736,2.519,4.235,4.235,0,0,1-1.241,3.292A4.883,4.883,0,0,1,6.692,27Zm2.181-7.294v5.64H6.692a2.333,2.333,0,0,0,1.826-.714,2.953,2.953,0,0,0,.645-2.046,3.172,3.172,0,0,0-.628-2.062,2.266,2.266,0,0,0-1.767-.816H3.674Zm0-1.568H6.155A2.224,2.224,0,0,0,7.8,17.456a2.628,2.628,0,0,0,.6-1.842,2.6,2.6,0,0,0-.655-1.934,2.633,2.633,0,0,0-1.923-.645H3.674ZM19.433,27q-.14-.526-.22-.94a5.921,5.921,0,0,1-.1-.822,4.268,4.268,0,0,1-1.219,1.423,2.812,2.812,0,0,1-1.724.564,3.052,3.052,0,0,1-2.39-.924,3.632,3.632,0,0,1-.833-2.524A3.166,3.166,0,0,1,14.1,21.188a4.943,4.943,0,0,1,3.217-.945H19.1V19.051a2.608,2.608,0,0,0-.473-1.66,1.819,1.819,0,0,0-2.616-.081,1.892,1.892,0,0,0-.467,1.321l-2.084.011-.021-.064a2.954,2.954,0,0,1,1.053-2.385,4.137,4.137,0,0,1,2.922-1.031,3.915,3.915,0,0,1,2.8,1.015,3.792,3.792,0,0,1,1.074,2.9v5.393a9.546,9.546,0,0,0,.086,1.294A8.243,8.243,0,0,0,21.646,27Zm-2.814-1.45A2.448,2.448,0,0,0,18.2,25a2.562,2.562,0,0,0,.9-1.337V21.6H17.284a2.006,2.006,0,0,0-1.579.639,2.237,2.237,0,0,0-.569,1.542,2,2,0,0,0,.387,1.289A1.323,1.323,0,0,0,16.618,25.55ZM25.76,15.377l.129,1.729a3.927,3.927,0,0,1,1.246-1.434,2.971,2.971,0,0,1,1.708-.51A2.856,2.856,0,0,1,31.254,16.3a5.87,5.87,0,0,1,.865,3.545V27H29.938V19.856a4.345,4.345,0,0,0-.457-2.32,1.553,1.553,0,0,0-1.38-.677,2.127,2.127,0,0,0-1.289.392,2.745,2.745,0,0,0-.859,1.08V27H23.762V15.377Zm8.486,5.951a8.59,8.59,0,0,1,1.021-4.479,3.2,3.2,0,0,1,2.879-1.687,2.936,2.936,0,0,1,1.6.435,3.545,3.545,0,0,1,1.166,1.241l.2-1.461h1.826V27.021a4.733,4.733,0,0,1-1.192,3.454,4.488,4.488,0,0,1-3.362,1.219,6.145,6.145,0,0,1-1.584-.226,6.364,6.364,0,0,1-1.52-.612l.354-1.633a5.576,5.576,0,0,0,1.284.521,5.494,5.494,0,0,0,1.445.188,2.172,2.172,0,0,0,1.8-.725,3.477,3.477,0,0,0,.58-2.2V25.861a3.19,3.19,0,0,1-1.123,1.021,3.158,3.158,0,0,1-1.5.344,3.234,3.234,0,0,1-2.857-1.552,7.4,7.4,0,0,1-1.021-4.12Zm2.191.226a6.579,6.579,0,0,0,.537,2.911,1.788,1.788,0,0,0,1.708,1.074,2.034,2.034,0,0,0,1.241-.376,2.635,2.635,0,0,0,.822-1.063V18.385a2.879,2.879,0,0,0-.822-1.117,1.907,1.907,0,0,0-1.23-.408A1.8,1.8,0,0,0,36.985,18.1a8.066,8.066,0,0,0-.548,3.228ZM47.771,27H45.579V10.242h2.191Zm8.7,0q-.14-.526-.22-.94a5.922,5.922,0,0,1-.1-.822,4.268,4.268,0,0,1-1.219,1.423,2.812,2.812,0,0,1-1.724.564,3.052,3.052,0,0,1-2.39-.924,3.632,3.632,0,0,1-.833-2.524,3.166,3.166,0,0,1,1.155-2.589,4.943,4.943,0,0,1,3.217-.945h1.783V19.051a2.608,2.608,0,0,0-.473-1.66,1.819,1.819,0,0,0-2.616-.081,1.892,1.892,0,0,0-.467,1.321l-2.084.011-.021-.064a2.954,2.954,0,0,1,1.053-2.385,4.137,4.137,0,0,1,2.922-1.031,3.915,3.915,0,0,1,2.8,1.015,3.792,3.792,0,0,1,1.074,2.9v5.393a9.546,9.546,0,0,0,.086,1.294A8.243,8.243,0,0,0,58.685,27Zm-2.814-1.45A2.448,2.448,0,0,0,55.236,25a2.562,2.562,0,0,0,.9-1.337V21.6H54.323a2.006,2.006,0,0,0-1.579.639,2.237,2.237,0,0,0-.569,1.542,2,2,0,0,0,.387,1.289A1.323,1.323,0,0,0,53.657,25.55Zm6.757-4.222a8.59,8.59,0,0,1,1.021-4.479A3.188,3.188,0,0,1,64.3,15.162a2.958,2.958,0,0,1,1.482.371A3.365,3.365,0,0,1,66.913,16.6V10.242h2.181V27h-1.8l-.226-1.4a3.447,3.447,0,0,1-1.182,1.208,3.081,3.081,0,0,1-1.6.414,3.221,3.221,0,0,1-2.852-1.552,7.426,7.426,0,0,1-1.015-4.12Zm2.17.226a6.473,6.473,0,0,0,.548,2.906,1.8,1.8,0,0,0,1.708,1.08,1.994,1.994,0,0,0,1.241-.387,2.783,2.783,0,0,0,.833-1.1V18.428a3.077,3.077,0,0,0-.838-1.144,1.867,1.867,0,0,0-1.225-.424A1.81,1.81,0,0,0,63.137,18.1a8,8,0,0,0-.553,3.228Zm13.267,5.672a4.059,4.059,0,0,1-3.4-1.59,6.569,6.569,0,0,1-1.23-4.136V21A6.819,6.819,0,0,1,72.445,16.8a3.815,3.815,0,0,1,3.2-1.638,3.522,3.522,0,0,1,3.024,1.407,6.239,6.239,0,0,1,1.037,3.781v1.225H73.4a5.739,5.739,0,0,0,.639,2.89A2.113,2.113,0,0,0,76,25.571a3.807,3.807,0,0,0,2.836-1.117l.709,1.354a4.633,4.633,0,0,1-1.531,1.01A5.439,5.439,0,0,1,75.851,27.226Zm-.2-10.388a1.709,1.709,0,0,0-1.5.875,5.216,5.216,0,0,0-.7,2.315h4.114v-.247a4.255,4.255,0,0,0-.467-2.127A1.552,1.552,0,0,0,75.646,16.838Zm11.537,7.229a1.548,1.548,0,0,0-.451-1.133A6.038,6.038,0,0,0,85,21.908a8.671,8.671,0,0,1-2.686-1.472,2.611,2.611,0,0,1-.892-2.041,2.935,2.935,0,0,1,1.08-2.288,4.109,4.109,0,0,1,2.809-.945A4.032,4.032,0,0,1,88.2,16.2a3.189,3.189,0,0,1,1.053,2.508l-.021.064H87.13a2.174,2.174,0,0,0-.489-1.423,1.625,1.625,0,0,0-1.327-.6,1.764,1.764,0,0,0-1.305.467,1.494,1.494,0,0,0-.467,1.09,1.373,1.373,0,0,0,.4,1.047,7.118,7.118,0,0,0,1.724.983,7.941,7.941,0,0,1,2.745,1.493,2.774,2.774,0,0,1,.918,2.127,2.9,2.9,0,0,1-1.112,2.358,4.466,4.466,0,0,1-2.917.908,4.23,4.23,0,0,1-3.078-1.09,3.267,3.267,0,0,1-1.069-2.551l.021-.064h2.03a2.123,2.123,0,0,0,.639,1.627,2.238,2.238,0,0,0,1.488.5,1.942,1.942,0,0,0,1.359-.446A1.467,1.467,0,0,0,87.184,24.067Zm6.338-7.133a3.852,3.852,0,0,1,1.214-1.305,2.9,2.9,0,0,1,1.611-.467,2.942,2.942,0,0,1,2.471,1.16,5.835,5.835,0,0,1,.892,3.566V27H97.518V19.867a4.348,4.348,0,0,0-.462-2.3,1.527,1.527,0,0,0-1.364-.7,2.263,2.263,0,0,0-1.294.365,2.64,2.64,0,0,0-.875,1.021V27H91.33V10.242h2.191ZM104.618,27h-2.2V24.819h2.2Zm5.36-6.166V27H107.8V11.359h5.081a4.623,4.623,0,0,1,3.486,1.305,4.729,4.729,0,0,1,1.262,3.432,4.724,4.724,0,0,1-1.262,3.438,4.633,4.633,0,0,1-3.486,1.3Zm0-1.676h2.9a2.263,2.263,0,0,0,1.923-.865,3.5,3.5,0,0,0,.655-2.175,3.609,3.609,0,0,0-.65-2.2,2.244,2.244,0,0,0-1.928-.881h-2.9Zm11.881-2.224a3.852,3.852,0,0,1,1.214-1.305,2.9,2.9,0,0,1,1.611-.467,2.942,2.942,0,0,1,2.471,1.16,5.835,5.835,0,0,1,.892,3.566V27h-2.191V19.867a4.348,4.348,0,0,0-.462-2.3,1.527,1.527,0,0,0-1.364-.7,2.263,2.263,0,0,0-1.294.365,2.64,2.64,0,0,0-.875,1.021V27h-2.191V10.242h2.191Zm8.229,4.125a6.946,6.946,0,0,1,1.225-4.243,4.249,4.249,0,0,1,6.73,0,6.924,6.924,0,0,1,1.23,4.243v.29a6.893,6.893,0,0,1-1.225,4.238,4.281,4.281,0,0,1-6.735,0,6.893,6.893,0,0,1-1.225-4.238Zm2.191.29a6.747,6.747,0,0,0,.6,3.04,1.933,1.933,0,0,0,1.821,1.182,1.91,1.91,0,0,0,1.789-1.187,6.754,6.754,0,0,0,.6-3.035v-.29a6.716,6.716,0,0,0-.6-3.024,1.954,1.954,0,0,0-3.6,0,6.768,6.768,0,0,0-.6,3.024Zm11.054-5.973.129,1.729a3.927,3.927,0,0,1,1.246-1.434,2.971,2.971,0,0,1,1.708-.51,2.856,2.856,0,0,1,2.412,1.139,5.87,5.87,0,0,1,.865,3.545V27h-2.181V19.856a4.345,4.345,0,0,0-.457-2.32,1.553,1.553,0,0,0-1.38-.677,2.127,2.127,0,0,0-1.289.392,2.745,2.745,0,0,0-.859,1.08V27h-2.191V15.377Zm13.052,11.849a4.059,4.059,0,0,1-3.4-1.59,6.569,6.569,0,0,1-1.23-4.136V21a6.819,6.819,0,0,1,1.225-4.195,3.815,3.815,0,0,1,3.2-1.638,3.522,3.522,0,0,1,3.024,1.407,6.239,6.239,0,0,1,1.037,3.781v1.225h-6.306a5.739,5.739,0,0,0,.639,2.89,2.113,2.113,0,0,0,1.96,1.106,3.807,3.807,0,0,0,2.836-1.117l.709,1.354a4.633,4.633,0,0,1-1.531,1.01A5.439,5.439,0,0,1,156.385,27.226Zm-.2-10.388a1.709,1.709,0,0,0-1.5.875,5.216,5.216,0,0,0-.7,2.315h4.114v-.247a4.255,4.255,0,0,0-.467-2.127A1.552,1.552,0,0,0,156.181,16.838ZM164.635,27h-2.2V24.819h2.2Zm0-9.41h-2.2V15.409h2.2Zm12.891,1.1h3.76v1.869h-3.76v4.877h-2.138V20.555h-3.749V18.686h3.749V14.045h2.138Zm14.556-3.33a3.768,3.768,0,0,1-2.256,3.534,4.344,4.344,0,0,1,1.95,1.493,3.854,3.854,0,0,1,.736,2.331,4.262,4.262,0,0,1-1.305,3.33,4.78,4.78,0,0,1-3.335,1.182,5.12,5.12,0,0,1-3.486-1.182,4.177,4.177,0,0,1-1.359-3.33,3.792,3.792,0,0,1,.752-2.336,4.415,4.415,0,0,1,2.041-1.488,3.816,3.816,0,0,1-1.724-1.391,3.734,3.734,0,0,1-.628-2.143,3.982,3.982,0,0,1,1.219-3.131,4.582,4.582,0,0,1,3.174-1.09,4.3,4.3,0,0,1,3.045,1.09A4.059,4.059,0,0,1,192.081,15.355Zm-1.772,7.3a3.1,3.1,0,0,0-.709-2.105,2.218,2.218,0,0,0-1.74-.816,2.433,2.433,0,0,0-1.875.816,3,3,0,0,0-.747,2.105,2.974,2.974,0,0,0,.741,2.122,2.479,2.479,0,0,0,1.891.79,2.217,2.217,0,0,0,1.746-.795A3.106,3.106,0,0,0,190.309,22.66Zm-.43-7.262a2.9,2.9,0,0,0-.575-1.869,1.775,1.775,0,0,0-1.445-.72,2.006,2.006,0,0,0-1.584.693,2.778,2.778,0,0,0-.607,1.9,2.894,2.894,0,0,0,.618,1.934,1.981,1.981,0,0,0,1.584.73,1.748,1.748,0,0,0,1.445-.73A3.08,3.08,0,0,0,189.879,15.4Zm13.546-.043a3.768,3.768,0,0,1-2.256,3.534,4.344,4.344,0,0,1,1.95,1.493,3.854,3.854,0,0,1,.736,2.331,4.262,4.262,0,0,1-1.305,3.33,4.78,4.78,0,0,1-3.335,1.182,5.12,5.12,0,0,1-3.486-1.182,4.177,4.177,0,0,1-1.359-3.33,3.792,3.792,0,0,1,.752-2.336,4.415,4.415,0,0,1,2.041-1.488,3.816,3.816,0,0,1-1.724-1.391,3.734,3.734,0,0,1-.628-2.143,3.982,3.982,0,0,1,1.219-3.131,4.582,4.582,0,0,1,3.174-1.09,4.3,4.3,0,0,1,3.045,1.09A4.059,4.059,0,0,1,203.425,15.355Zm-1.772,7.3a3.1,3.1,0,0,0-.709-2.105,2.218,2.218,0,0,0-1.74-.816,2.433,2.433,0,0,0-1.875.816,3,3,0,0,0-.747,2.105,2.974,2.974,0,0,0,.741,2.122,2.479,2.479,0,0,0,1.891.79,2.217,2.217,0,0,0,1.746-.795A3.106,3.106,0,0,0,201.652,22.66Zm-.43-7.262a2.9,2.9,0,0,0-.575-1.869,1.775,1.775,0,0,0-1.445-.72,2.006,2.006,0,0,0-1.584.693,2.778,2.778,0,0,0-.607,1.9,2.894,2.894,0,0,0,.618,1.934,1.981,1.981,0,0,0,1.584.73,1.748,1.748,0,0,0,1.445-.73A3.08,3.08,0,0,0,201.223,15.4Zm13.8,6.037a6.566,6.566,0,0,1-1.251,4.238,4.377,4.377,0,0,1-6.687,0,6.547,6.547,0,0,1-1.257-4.238v-4.5a6.618,6.618,0,0,1,1.246-4.232,4.359,4.359,0,0,1,6.692-.005,6.574,6.574,0,0,1,1.257,4.238Zm-2.213-4.812a5.308,5.308,0,0,0-.628-2.793,2.036,2.036,0,0,0-3.529,0,5.346,5.346,0,0,0-.623,2.793v5.113a5.331,5.331,0,0,0,.634,2.8,1.978,1.978,0,0,0,1.772,1.031,1.944,1.944,0,0,0,1.756-1.026,5.438,5.438,0,0,0,.618-2.809Zm10.205,4.555h-5.446V19.513h5.446ZM234.964,27H225.93V25.55l4.426-5.79a14.522,14.522,0,0,0,1.509-2.471,4.64,4.64,0,0,0,.424-1.869,3.142,3.142,0,0,0-.521-1.9,1.78,1.78,0,0,0-1.531-.709,2,2,0,0,0-1.746.87,3.78,3.78,0,0,0-.607,2.213h-2.138l-.032-.064a4.623,4.623,0,0,1,1.192-3.33,4.27,4.27,0,0,1,3.33-1.364,4.161,4.161,0,0,1,3.137,1.166A4.3,4.3,0,0,1,234.5,15.42a5.253,5.253,0,0,1-.682,2.562,23.645,23.645,0,0,1-2.089,3.035l-3.051,4.329h6.284Zm7.853-5.822H237.37V19.513h5.446Zm11.548-5.822a3.768,3.768,0,0,1-2.256,3.534,4.344,4.344,0,0,1,1.95,1.493,3.854,3.854,0,0,1,.736,2.331,4.262,4.262,0,0,1-1.305,3.33,4.78,4.78,0,0,1-3.335,1.182,5.12,5.12,0,0,1-3.486-1.182,4.177,4.177,0,0,1-1.359-3.33,3.792,3.792,0,0,1,.752-2.336A4.415,4.415,0,0,1,248.1,18.89a3.816,3.816,0,0,1-1.724-1.391,3.734,3.734,0,0,1-.628-2.143,3.982,3.982,0,0,1,1.219-3.131,4.582,4.582,0,0,1,3.174-1.09,4.3,4.3,0,0,1,3.045,1.09A4.059,4.059,0,0,1,254.364,15.355Zm-1.772,7.3a3.1,3.1,0,0,0-.709-2.105,2.218,2.218,0,0,0-1.74-.816,2.433,2.433,0,0,0-1.875.816,3,3,0,0,0-.747,2.105,2.974,2.974,0,0,0,.741,2.122,2.479,2.479,0,0,0,1.891.79,2.217,2.217,0,0,0,1.746-.795A3.106,3.106,0,0,0,252.592,22.66Zm-.43-7.262a2.9,2.9,0,0,0-.575-1.869,1.775,1.775,0,0,0-1.445-.72,2.006,2.006,0,0,0-1.584.693,2.778,2.778,0,0,0-.607,1.9,2.894,2.894,0,0,0,.618,1.934,1.981,1.981,0,0,0,1.584.73,1.748,1.748,0,0,0,1.445-.73A3.08,3.08,0,0,0,252.162,15.4Zm13.546-.043a3.768,3.768,0,0,1-2.256,3.534,4.344,4.344,0,0,1,1.95,1.493,3.854,3.854,0,0,1,.736,2.331,4.262,4.262,0,0,1-1.305,3.33,4.78,4.78,0,0,1-3.335,1.182,5.12,5.12,0,0,1-3.486-1.182,4.177,4.177,0,0,1-1.359-3.33,3.792,3.792,0,0,1,.752-2.336,4.415,4.415,0,0,1,2.041-1.488,3.816,3.816,0,0,1-1.724-1.391,3.734,3.734,0,0,1-.628-2.143,3.982,3.982,0,0,1,1.219-3.131,4.582,4.582,0,0,1,3.174-1.09,4.3,4.3,0,0,1,3.045,1.09A4.059,4.059,0,0,1,265.708,15.355Zm-1.772,7.3a3.1,3.1,0,0,0-.709-2.105,2.218,2.218,0,0,0-1.74-.816,2.433,2.433,0,0,0-1.875.816,3,3,0,0,0-.747,2.105,2.974,2.974,0,0,0,.741,2.122,2.479,2.479,0,0,0,1.891.79,2.217,2.217,0,0,0,1.746-.795A3.106,3.106,0,0,0,263.936,22.66Zm-.43-7.262a2.9,2.9,0,0,0-.575-1.869,1.775,1.775,0,0,0-1.445-.72,2.006,2.006,0,0,0-1.584.693,2.778,2.778,0,0,0-.607,1.9,2.894,2.894,0,0,0,.618,1.934,1.981,1.981,0,0,0,1.584.73,1.748,1.748,0,0,0,1.445-.73A3.08,3.08,0,0,0,263.506,15.4Zm9.142,2.75a2.058,2.058,0,0,0,1.74-.725,3.115,3.115,0,0,0,.559-1.95,3.089,3.089,0,0,0-.564-1.923,1.944,1.944,0,0,0-1.649-.741,2.113,2.113,0,0,0-1.654.741,2.749,2.749,0,0,0-.655,1.891H268.3l-.021-.064a3.833,3.833,0,0,1,1.23-3.024,5.042,5.042,0,0,1,6.467-.091,4.213,4.213,0,0,1,1.2,3.223,3.774,3.774,0,0,1-2.138,3.438,3.636,3.636,0,0,1,1.751,1.418,4.254,4.254,0,0,1,.612,2.342,4.321,4.321,0,0,1-1.305,3.335,4.746,4.746,0,0,1-3.357,1.208,4.947,4.947,0,0,1-3.26-1.166,3.8,3.8,0,0,1-1.348-3.207l.021-.064h2.116a2.921,2.921,0,0,0,.693,1.982,2.4,2.4,0,0,0,3.572.011,3.115,3.115,0,0,0,.666-2.079,3.2,3.2,0,0,0-.645-2.191,2.421,2.421,0,0,0-1.9-.72h-1.5V18.148ZM288.4,15.355a3.768,3.768,0,0,1-2.256,3.534,4.344,4.344,0,0,1,1.95,1.493,3.854,3.854,0,0,1,.736,2.331,4.262,4.262,0,0,1-1.305,3.33,4.78,4.78,0,0,1-3.335,1.182,5.12,5.12,0,0,1-3.486-1.182,4.177,4.177,0,0,1-1.359-3.33,3.792,3.792,0,0,1,.752-2.336,4.415,4.415,0,0,1,2.041-1.488,3.816,3.816,0,0,1-1.724-1.391,3.734,3.734,0,0,1-.628-2.143A3.982,3.982,0,0,1,281,12.224a4.582,4.582,0,0,1,3.174-1.09,4.3,4.3,0,0,1,3.045,1.09A4.059,4.059,0,0,1,288.4,15.355Zm-1.772,7.3a3.1,3.1,0,0,0-.709-2.105,2.218,2.218,0,0,0-1.74-.816,2.433,2.433,0,0,0-1.875.816,3,3,0,0,0-.747,2.105,2.974,2.974,0,0,0,.741,2.122,2.479,2.479,0,0,0,1.891.79,2.217,2.217,0,0,0,1.746-.795A3.106,3.106,0,0,0,286.623,22.66Zm-.43-7.262a2.9,2.9,0,0,0-.575-1.869,1.775,1.775,0,0,0-1.445-.72,2.006,2.006,0,0,0-1.584.693,2.778,2.778,0,0,0-.607,1.9,2.894,2.894,0,0,0,.618,1.934,1.981,1.981,0,0,0,1.584.73,1.748,1.748,0,0,0,1.445-.73A3.08,3.08,0,0,0,286.193,15.4ZM300,21.436a6.566,6.566,0,0,1-1.251,4.238,4.377,4.377,0,0,1-6.687,0,6.547,6.547,0,0,1-1.257-4.238v-4.5a6.618,6.618,0,0,1,1.246-4.232,4.359,4.359,0,0,1,6.692-.005A6.574,6.574,0,0,1,300,16.935Zm-2.213-4.812a5.308,5.308,0,0,0-.628-2.793,2.036,2.036,0,0,0-3.529,0A5.345,5.345,0,0,0,293,16.623v5.113a5.331,5.331,0,0,0,.634,2.8,1.978,1.978,0,0,0,1.772,1.031,1.944,1.944,0,0,0,1.756-1.026,5.438,5.438,0,0,0,.618-2.809Zm13.557,4.813a6.566,6.566,0,0,1-1.251,4.238,4.377,4.377,0,0,1-6.687,0,6.547,6.547,0,0,1-1.257-4.238v-4.5a6.618,6.618,0,0,1,1.246-4.232,4.359,4.359,0,0,1,6.692-.005,6.574,6.574,0,0,1,1.257,4.238Zm-2.213-4.812a5.308,5.308,0,0,0-.628-2.793,2.036,2.036,0,0,0-3.529,0,5.345,5.345,0,0,0-.623,2.793v5.113a5.331,5.331,0,0,0,.634,2.8,1.978,1.978,0,0,0,1.772,1.031,1.944,1.944,0,0,0,1.756-1.026,5.438,5.438,0,0,0,.618-2.809ZM319.645,27h-2.191V13.207L314.4,13.4V11.778l5.242-.645Zm11.032-5.822H325.23V19.513h5.446Zm10.463.483h1.815v1.665H341.14V27h-2.2V23.326h-5.962l-.064-1.225,5.951-10.742h2.277Zm-6.069,0h3.867V14.378l-.064-.021-.29.666Zm11.9,5.081-1.4,3.169h-1.4l.645-3.244V24.68h2.148Zm15.007-6.692h-5.468V27h-2.181V11.359h8.594v1.676h-6.413v5.35h5.468Zm8.4,6.95q-.14-.526-.22-.94a5.92,5.92,0,0,1-.1-.822,4.268,4.268,0,0,1-1.219,1.423,2.812,2.812,0,0,1-1.724.564,3.052,3.052,0,0,1-2.39-.924,3.632,3.632,0,0,1-.833-2.524,3.166,3.166,0,0,1,1.155-2.589,4.943,4.943,0,0,1,3.217-.945h1.783V19.051a2.608,2.608,0,0,0-.473-1.66,1.819,1.819,0,0,0-2.616-.081,1.892,1.892,0,0,0-.467,1.321l-2.084.011-.021-.064a2.954,2.954,0,0,1,1.053-2.385,4.137,4.137,0,0,1,2.922-1.031,3.915,3.915,0,0,1,2.8,1.015,3.792,3.792,0,0,1,1.074,2.9v5.393a9.547,9.547,0,0,0,.086,1.294A8.243,8.243,0,0,0,372.593,27Zm-2.814-1.45A2.448,2.448,0,0,0,369.145,25a2.562,2.562,0,0,0,.9-1.337V21.6h-1.815a2.005,2.005,0,0,0-1.579.639,2.237,2.237,0,0,0-.569,1.542,2,2,0,0,0,.387,1.289A1.323,1.323,0,0,0,367.565,25.55Zm10.7-5.93h.064l1.869-4.243h2.514l-3.147,5.736L382.819,27h-2.492l-1.966-4.383H378.3L376.342,27H373.85l3.233-5.887-3.137-5.736h2.471ZM386.858,27h-2.2V24.819h2.2Zm0-9.41h-2.2V15.409h2.2Zm12.891,1.1h3.76v1.869h-3.76v4.877h-2.138V20.555h-3.749V18.686h3.749V14.045h2.138Zm14.556-3.33a3.768,3.768,0,0,1-2.256,3.534A4.344,4.344,0,0,1,414,20.383a3.854,3.854,0,0,1,.736,2.331,4.262,4.262,0,0,1-1.305,3.33,4.78,4.78,0,0,1-3.335,1.182,5.12,5.12,0,0,1-3.486-1.182,4.177,4.177,0,0,1-1.359-3.33A3.792,3.792,0,0,1,406,20.377a4.415,4.415,0,0,1,2.041-1.488,3.816,3.816,0,0,1-1.724-1.391,3.734,3.734,0,0,1-.628-2.143,3.982,3.982,0,0,1,1.219-3.131,4.582,4.582,0,0,1,3.174-1.09,4.3,4.3,0,0,1,3.045,1.09A4.059,4.059,0,0,1,414.3,15.355Zm-1.772,7.3a3.1,3.1,0,0,0-.709-2.105,2.218,2.218,0,0,0-1.74-.816,2.433,2.433,0,0,0-1.875.816,3,3,0,0,0-.747,2.105,2.974,2.974,0,0,0,.741,2.122,2.479,2.479,0,0,0,1.891.79,2.217,2.217,0,0,0,1.746-.795A3.106,3.106,0,0,0,412.532,22.66ZM412.1,15.4a2.9,2.9,0,0,0-.575-1.869,1.775,1.775,0,0,0-1.445-.72,2.006,2.006,0,0,0-1.584.693,2.778,2.778,0,0,0-.607,1.9,2.894,2.894,0,0,0,.618,1.934,1.981,1.981,0,0,0,1.584.73,1.748,1.748,0,0,0,1.445-.73A3.08,3.08,0,0,0,412.1,15.4Zm13.546-.043a3.768,3.768,0,0,1-2.256,3.534,4.344,4.344,0,0,1,1.95,1.493,3.854,3.854,0,0,1,.736,2.331,4.262,4.262,0,0,1-1.305,3.33,4.78,4.78,0,0,1-3.335,1.182,5.12,5.12,0,0,1-3.486-1.182,4.177,4.177,0,0,1-1.359-3.33,3.792,3.792,0,0,1,.752-2.336,4.415,4.415,0,0,1,2.041-1.488,3.816,3.816,0,0,1-1.724-1.391,3.734,3.734,0,0,1-.628-2.143,3.982,3.982,0,0,1,1.219-3.131,4.582,4.582,0,0,1,3.174-1.09,4.3,4.3,0,0,1,3.045,1.09A4.059,4.059,0,0,1,425.648,15.355Zm-1.772,7.3a3.1,3.1,0,0,0-.709-2.105,2.218,2.218,0,0,0-1.74-.816,2.433,2.433,0,0,0-1.875.816,3,3,0,0,0-.747,2.105,2.974,2.974,0,0,0,.741,2.122,2.479,2.479,0,0,0,1.891.79,2.217,2.217,0,0,0,1.746-.795A3.106,3.106,0,0,0,423.876,22.66Zm-.43-7.262a2.9,2.9,0,0,0-.575-1.869,1.775,1.775,0,0,0-1.445-.72,2.006,2.006,0,0,0-1.584.693,2.778,2.778,0,0,0-.607,1.9,2.894,2.894,0,0,0,.618,1.934,1.981,1.981,0,0,0,1.584.73,1.748,1.748,0,0,0,1.445-.73A3.08,3.08,0,0,0,423.446,15.4Zm13.8,6.037A6.566,6.566,0,0,1,436,25.673a4.377,4.377,0,0,1-6.687,0,6.547,6.547,0,0,1-1.257-4.238v-4.5A6.618,6.618,0,0,1,429.3,12.7a4.359,4.359,0,0,1,6.692-.005,6.574,6.574,0,0,1,1.257,4.238Zm-2.213-4.812a5.308,5.308,0,0,0-.628-2.793,2.036,2.036,0,0,0-3.529,0,5.345,5.345,0,0,0-.623,2.793v5.113a5.331,5.331,0,0,0,.634,2.8,1.978,1.978,0,0,0,1.772,1.031,1.944,1.944,0,0,0,1.756-1.026,5.438,5.438,0,0,0,.618-2.809Zm10.205,4.555H439.8V19.513h5.446ZM457.188,27h-9.034V25.55l4.426-5.79a14.522,14.522,0,0,0,1.509-2.471,4.64,4.64,0,0,0,.424-1.869,3.142,3.142,0,0,0-.521-1.9,1.78,1.78,0,0,0-1.531-.709,2,2,0,0,0-1.746.87,3.78,3.78,0,0,0-.607,2.213h-2.138l-.032-.064a4.623,4.623,0,0,1,1.192-3.33,4.27,4.27,0,0,1,3.33-1.364A4.161,4.161,0,0,1,455.6,12.3a4.3,4.3,0,0,1,1.128,3.121,5.253,5.253,0,0,1-.682,2.562,23.645,23.645,0,0,1-2.089,3.035L450.9,25.346h6.284Zm7.853-5.822h-5.446V19.513h5.446Zm11.548-5.822a3.768,3.768,0,0,1-2.256,3.534,4.344,4.344,0,0,1,1.95,1.493,3.854,3.854,0,0,1,.736,2.331,4.262,4.262,0,0,1-1.305,3.33,4.78,4.78,0,0,1-3.335,1.182,5.12,5.12,0,0,1-3.486-1.182,4.177,4.177,0,0,1-1.359-3.33,3.792,3.792,0,0,1,.752-2.336,4.415,4.415,0,0,1,2.041-1.488A3.816,3.816,0,0,1,468.6,17.5a3.734,3.734,0,0,1-.628-2.143,3.982,3.982,0,0,1,1.219-3.131,4.582,4.582,0,0,1,3.174-1.09,4.3,4.3,0,0,1,3.045,1.09A4.059,4.059,0,0,1,476.588,15.355Zm-1.772,7.3a3.1,3.1,0,0,0-.709-2.105,2.218,2.218,0,0,0-1.74-.816,2.433,2.433,0,0,0-1.875.816,3,3,0,0,0-.747,2.105,2.974,2.974,0,0,0,.741,2.122,2.479,2.479,0,0,0,1.891.79,2.217,2.217,0,0,0,1.746-.795A3.106,3.106,0,0,0,474.815,22.66Zm-.43-7.262a2.9,2.9,0,0,0-.575-1.869,1.775,1.775,0,0,0-1.445-.72,2.006,2.006,0,0,0-1.584.693,2.778,2.778,0,0,0-.607,1.9,2.894,2.894,0,0,0,.618,1.934,1.981,1.981,0,0,0,1.584.73,1.748,1.748,0,0,0,1.445-.73A3.08,3.08,0,0,0,474.386,15.4Zm13.546-.043a3.768,3.768,0,0,1-2.256,3.534,4.344,4.344,0,0,1,1.95,1.493,3.854,3.854,0,0,1,.736,2.331,4.262,4.262,0,0,1-1.305,3.33,4.78,4.78,0,0,1-3.335,1.182,5.12,5.12,0,0,1-3.486-1.182,4.177,4.177,0,0,1-1.359-3.33,3.792,3.792,0,0,1,.752-2.336,4.415,4.415,0,0,1,2.041-1.488,3.816,3.816,0,0,1-1.724-1.391,3.734,3.734,0,0,1-.628-2.143,3.982,3.982,0,0,1,1.219-3.131,4.582,4.582,0,0,1,3.174-1.09,4.3,4.3,0,0,1,3.045,1.09A4.059,4.059,0,0,1,487.932,15.355Zm-1.772,7.3a3.1,3.1,0,0,0-.709-2.105,2.218,2.218,0,0,0-1.74-.816,2.433,2.433,0,0,0-1.875.816,3,3,0,0,0-.747,2.105,2.974,2.974,0,0,0,.741,2.122,2.479,2.479,0,0,0,1.891.79,2.217,2.217,0,0,0,1.746-.795A3.106,3.106,0,0,0,486.159,22.66Zm-.43-7.262a2.9,2.9,0,0,0-.575-1.869,1.775,1.775,0,0,0-1.445-.72,2.006,2.006,0,0,0-1.584.693,2.778,2.778,0,0,0-.607,1.9,2.894,2.894,0,0,0,.618,1.934,1.981,1.981,0,0,0,1.584.73,1.748,1.748,0,0,0,1.445-.73A3.08,3.08,0,0,0,485.729,15.4Zm9.142,2.75a2.058,2.058,0,0,0,1.74-.725,3.115,3.115,0,0,0,.559-1.95,3.089,3.089,0,0,0-.564-1.923,1.944,1.944,0,0,0-1.649-.741,2.113,2.113,0,0,0-1.654.741,2.749,2.749,0,0,0-.655,1.891h-2.127l-.021-.064a3.833,3.833,0,0,1,1.23-3.024,5.042,5.042,0,0,1,6.467-.091,4.213,4.213,0,0,1,1.2,3.223,3.774,3.774,0,0,1-2.138,3.438,3.636,3.636,0,0,1,1.751,1.418,4.254,4.254,0,0,1,.612,2.342,4.321,4.321,0,0,1-1.305,3.335,4.746,4.746,0,0,1-3.357,1.208,4.947,4.947,0,0,1-3.26-1.166,3.8,3.8,0,0,1-1.348-3.207l.021-.064h2.116a2.921,2.921,0,0,0,.693,1.982,2.4,2.4,0,0,0,3.572.011,3.115,3.115,0,0,0,.666-2.079,3.2,3.2,0,0,0-.645-2.191,2.421,2.421,0,0,0-1.9-.72h-1.5V18.148Zm12.106-7.015a6.623,6.623,0,0,1,1.568.183,6.027,6.027,0,0,1,1.354.494l-.43,1.6a5.011,5.011,0,0,0-2.492-.591,2.472,2.472,0,0,0-2.122,1.214,5.593,5.593,0,0,0-.822,3.19v1.225a4.057,4.057,0,0,1,1.386-1.063A4.137,4.137,0,0,1,507.214,17a3.362,3.362,0,0,1,2.852,1.37,5.939,5.939,0,0,1,1.026,3.647,5.551,5.551,0,0,1-1.246,3.776,4.13,4.13,0,0,1-3.276,1.434,4.191,4.191,0,0,1-3.395-1.633,6.851,6.851,0,0,1-1.332-4.458v-3.76a6.747,6.747,0,0,1,1.466-4.5A4.6,4.6,0,0,1,506.978,11.134Zm-.483,7.466a2.658,2.658,0,0,0-1.509.419,2.625,2.625,0,0,0-.951,1.139v1.1a6.058,6.058,0,0,0,.709,3.169,2.1,2.1,0,0,0,1.826,1.16,1.921,1.921,0,0,0,1.708-1,4.789,4.789,0,0,0,.623-2.562,4.33,4.33,0,0,0-.634-2.5A2.036,2.036,0,0,0,506.494,18.6Zm15.469-3.244a3.768,3.768,0,0,1-2.256,3.534,4.344,4.344,0,0,1,1.95,1.493,3.854,3.854,0,0,1,.736,2.331,4.262,4.262,0,0,1-1.305,3.33,4.78,4.78,0,0,1-3.335,1.182,5.12,5.12,0,0,1-3.486-1.182,4.177,4.177,0,0,1-1.359-3.33,3.792,3.792,0,0,1,.752-2.336A4.415,4.415,0,0,1,515.7,18.89a3.816,3.816,0,0,1-1.724-1.391,3.734,3.734,0,0,1-.628-2.143,3.982,3.982,0,0,1,1.219-3.131,4.582,4.582,0,0,1,3.174-1.09,4.3,4.3,0,0,1,3.045,1.09A4.059,4.059,0,0,1,521.963,15.355Zm-1.772,7.3a3.1,3.1,0,0,0-.709-2.105,2.218,2.218,0,0,0-1.74-.816,2.433,2.433,0,0,0-1.875.816,3,3,0,0,0-.747,2.105,2.974,2.974,0,0,0,.741,2.122,2.479,2.479,0,0,0,1.891.79,2.217,2.217,0,0,0,1.746-.795A3.106,3.106,0,0,0,520.19,22.66Zm-.43-7.262a2.9,2.9,0,0,0-.575-1.869,1.775,1.775,0,0,0-1.445-.72,2.006,2.006,0,0,0-1.584.693,2.779,2.779,0,0,0-.607,1.9,2.894,2.894,0,0,0,.618,1.934,1.981,1.981,0,0,0,1.584.73,1.748,1.748,0,0,0,1.445-.73A3.08,3.08,0,0,0,519.761,15.4Zm9.9-4.265a6.623,6.623,0,0,1,1.568.183,6.028,6.028,0,0,1,1.354.494l-.43,1.6a5.011,5.011,0,0,0-2.492-.591,2.472,2.472,0,0,0-2.122,1.214,5.593,5.593,0,0,0-.822,3.19v1.225a4.057,4.057,0,0,1,1.386-1.063A4.137,4.137,0,0,1,529.9,17a3.362,3.362,0,0,1,2.852,1.37,5.939,5.939,0,0,1,1.026,3.647,5.551,5.551,0,0,1-1.246,3.776,4.13,4.13,0,0,1-3.276,1.434,4.191,4.191,0,0,1-3.395-1.633,6.851,6.851,0,0,1-1.332-4.458v-3.76a6.747,6.747,0,0,1,1.466-4.5A4.6,4.6,0,0,1,529.665,11.134Zm-.483,7.466a2.658,2.658,0,0,0-1.509.419,2.625,2.625,0,0,0-.951,1.139v1.1a6.058,6.058,0,0,0,.709,3.169,2.1,2.1,0,0,0,1.826,1.16,1.921,1.921,0,0,0,1.708-1,4.789,4.789,0,0,0,.623-2.562,4.33,4.33,0,0,0-.634-2.5A2.036,2.036,0,0,0,529.182,18.6Zm15.469-3.244a3.768,3.768,0,0,1-2.256,3.534,4.344,4.344,0,0,1,1.95,1.493,3.854,3.854,0,0,1,.736,2.331,4.262,4.262,0,0,1-1.305,3.33,4.78,4.78,0,0,1-3.335,1.182,5.12,5.12,0,0,1-3.486-1.182,4.177,4.177,0,0,1-1.359-3.33,3.792,3.792,0,0,1,.752-2.336,4.415,4.415,0,0,1,2.041-1.488,3.816,3.816,0,0,1-1.724-1.391,3.734,3.734,0,0,1-.628-2.143,3.982,3.982,0,0,1,1.219-3.131,4.582,4.582,0,0,1,3.174-1.09,4.3,4.3,0,0,1,3.045,1.09A4.059,4.059,0,0,1,544.65,15.355Zm-1.772,7.3a3.1,3.1,0,0,0-.709-2.105,2.218,2.218,0,0,0-1.74-.816,2.433,2.433,0,0,0-1.875.816,3,3,0,0,0-.747,2.105,2.974,2.974,0,0,0,.741,2.122,2.479,2.479,0,0,0,1.891.79,2.217,2.217,0,0,0,1.746-.795A3.106,3.106,0,0,0,542.878,22.66Zm-.43-7.262a2.9,2.9,0,0,0-.575-1.869,1.775,1.775,0,0,0-1.445-.72,2.006,2.006,0,0,0-1.584.693,2.779,2.779,0,0,0-.607,1.9,2.894,2.894,0,0,0,.618,1.934,1.981,1.981,0,0,0,1.584.73,1.748,1.748,0,0,0,1.445-.73A3.08,3.08,0,0,0,542.448,15.4Zm6.95,11.344L548,29.911h-1.4l.645-3.244V24.68H549.4Zm14.846-7h-5.307v5.607h6.252V27h-8.433V11.359h8.379v1.676h-6.2v5.038h5.307Zm8.562,1.439h-5.446V19.513h5.446Zm4.791-5.8.118,1.579a3.615,3.615,0,0,1,1.23-1.327,3.2,3.2,0,0,1,1.735-.467,2.714,2.714,0,0,1,1.676.532,3.18,3.18,0,0,1,1.063,1.617,3.969,3.969,0,0,1,1.23-1.579,2.956,2.956,0,0,1,1.81-.569,2.753,2.753,0,0,1,2.379,1.23,6.547,6.547,0,0,1,.865,3.744V27h-2.191V20.125a5.134,5.134,0,0,0-.451-2.541,1.48,1.48,0,0,0-1.343-.725,1.641,1.641,0,0,0-1.262.559,3.4,3.4,0,0,0-.747,1.472q.011.193.021.4t.011.424V27h-2.181V20.125a5.055,5.055,0,0,0-.462-2.508,1.481,1.481,0,0,0-1.343-.757,1.892,1.892,0,0,0-1.2.387,2.55,2.55,0,0,0-.773,1.063V27h-2.191V15.377ZM598.254,27q-.14-.526-.22-.94a5.925,5.925,0,0,1-.1-.822,4.268,4.268,0,0,1-1.219,1.423,2.812,2.812,0,0,1-1.724.564,3.052,3.052,0,0,1-2.39-.924,3.632,3.632,0,0,1-.833-2.524,3.166,3.166,0,0,1,1.155-2.589,4.943,4.943,0,0,1,3.217-.945h1.783V19.051a2.608,2.608,0,0,0-.473-1.66,1.819,1.819,0,0,0-2.616-.081,1.892,1.892,0,0,0-.467,1.321l-2.084.011-.021-.064a2.954,2.954,0,0,1,1.053-2.385,4.137,4.137,0,0,1,2.922-1.031,3.915,3.915,0,0,1,2.8,1.015,3.792,3.792,0,0,1,1.074,2.9v5.393a9.543,9.543,0,0,0,.086,1.294A8.243,8.243,0,0,0,600.467,27Zm-2.814-1.45A2.448,2.448,0,0,0,597.019,25a2.562,2.562,0,0,0,.9-1.337V21.6h-1.815a2.006,2.006,0,0,0-1.579.639,2.237,2.237,0,0,0-.569,1.542,2,2,0,0,0,.387,1.289A1.323,1.323,0,0,0,595.439,25.55Zm9.5,1.45h-2.191V15.377h2.191Zm0-14.674h-2.191V10.242h2.191Zm5,14.674h-2.191V10.242h2.191Zm5.092,0h-2.2V24.819h2.2Zm0-9.41h-2.2V15.409h2.2ZM624.905,27h-2.191V15.377h2.191Zm0-14.674h-2.191V10.242h2.191Zm4.641,3.051.129,1.729a3.927,3.927,0,0,1,1.246-1.434,2.971,2.971,0,0,1,1.708-.51,2.856,2.856,0,0,1,2.412,1.139,5.87,5.87,0,0,1,.865,3.545V27h-2.181V19.856a4.345,4.345,0,0,0-.457-2.32,1.553,1.553,0,0,0-1.38-.677,2.127,2.127,0,0,0-1.289.392,2.745,2.745,0,0,0-.859,1.08V27h-2.191V15.377ZM639.128,27V16.935h-1.536V15.377h1.536V13.884a4.161,4.161,0,0,1,.9-2.857,3.18,3.18,0,0,1,2.508-1.01,3.838,3.838,0,0,1,.661.059q.338.059.736.167l-.2,1.6a3.8,3.8,0,0,0-.43-.086,3.506,3.506,0,0,0-.494-.032,1.262,1.262,0,0,0-1.112.559,2.827,2.827,0,0,0-.381,1.6v1.493h1.923v1.558h-1.923V27Zm5.371-5.94a6.946,6.946,0,0,1,1.225-4.243,4.249,4.249,0,0,1,6.73,0,6.924,6.924,0,0,1,1.23,4.243v.29a6.893,6.893,0,0,1-1.225,4.238,4.281,4.281,0,0,1-6.735,0A6.893,6.893,0,0,1,644.5,21.35Zm2.191.29a6.747,6.747,0,0,0,.6,3.04,1.933,1.933,0,0,0,1.821,1.182,1.91,1.91,0,0,0,1.789-1.187,6.754,6.754,0,0,0,.6-3.035v-.29a6.716,6.716,0,0,0-.6-3.024,1.954,1.954,0,0,0-3.6,0,6.768,6.768,0,0,0-.6,3.024Zm24.653.183a7.777,7.777,0,0,1-1.2,4.007,3.662,3.662,0,0,1-3.282,1.687,1.861,1.861,0,0,1-1.289-.483,2.55,2.55,0,0,1-.741-1.364,3.5,3.5,0,0,1-1.139,1.38,2.719,2.719,0,0,1-1.558.457,2.168,2.168,0,0,1-1.993-1.289,6.036,6.036,0,0,1-.51-3.395,9.026,9.026,0,0,1,1.359-4.4,3.287,3.287,0,0,1,2.755-1.66,4.169,4.169,0,0,1,1.67.279,7.2,7.2,0,0,1,1.4.87l-.032.032h.054l-.494,6.2a3.225,3.225,0,0,0,.183,1.692.8.8,0,0,0,.7.457,2.122,2.122,0,0,0,1.9-1.257,7.188,7.188,0,0,0,.79-3.212,10.38,10.38,0,0,0-1.364-6.295,5.317,5.317,0,0,0-4.737-2.256,5.714,5.714,0,0,0-4.807,2.438,11.189,11.189,0,0,0-1.96,6.445,10.14,10.14,0,0,0,1.45,6.343,5.324,5.324,0,0,0,4.662,2.369,6.851,6.851,0,0,0,1.713-.226,5.475,5.475,0,0,0,1.477-.591l.365,1.149a4.977,4.977,0,0,1-1.644.7,7.923,7.923,0,0,1-1.944.252,6.85,6.85,0,0,1-5.79-2.68,11.1,11.1,0,0,1-1.869-7.321,12.117,12.117,0,0,1,2.444-7.353,7.283,7.283,0,0,1,5.946-2.788,6.65,6.65,0,0,1,5.677,2.626A11.119,11.119,0,0,1,671.344,21.532Zm-9.894,1a5.785,5.785,0,0,0,.2,2.379,1.089,1.089,0,0,0,1.026.854,1.989,1.989,0,0,0,1.123-.338,2.8,2.8,0,0,0,.908-1.23q0-.064.005-.145t.016-.2l.451-5.747a3.494,3.494,0,0,0-.532-.193,2.162,2.162,0,0,0-.575-.075,1.976,1.976,0,0,0-1.8,1.171A9.081,9.081,0,0,0,661.45,22.531Zm14.964-10.044v2.89h1.815v1.558h-1.815v6.918a2.269,2.269,0,0,0,.274,1.284.851.851,0,0,0,.725.381,1.751,1.751,0,0,0,.344-.032q.161-.032.376-.1l.226,1.5a3.425,3.425,0,0,1-.693.242,3.379,3.379,0,0,1-.79.091,2.441,2.441,0,0,1-1.955-.811,3.877,3.877,0,0,1-.7-2.562V16.935h-1.536V15.377h1.536v-2.89Zm5.951,4.447a3.852,3.852,0,0,1,1.214-1.305,2.9,2.9,0,0,1,1.611-.467,2.942,2.942,0,0,1,2.471,1.16,5.835,5.835,0,0,1,.892,3.566V27h-2.191V19.867a4.348,4.348,0,0,0-.462-2.3,1.527,1.527,0,0,0-1.364-.7,2.263,2.263,0,0,0-1.294.365,2.64,2.64,0,0,0-.875,1.021V27h-2.191V10.242h2.191ZM697.071,27q-.14-.526-.22-.94a5.925,5.925,0,0,1-.1-.822,4.268,4.268,0,0,1-1.219,1.423,2.812,2.812,0,0,1-1.724.564,3.052,3.052,0,0,1-2.39-.924,3.632,3.632,0,0,1-.833-2.524,3.166,3.166,0,0,1,1.155-2.589,4.943,4.943,0,0,1,3.217-.945h1.783V19.051a2.608,2.608,0,0,0-.473-1.66,1.819,1.819,0,0,0-2.616-.081,1.892,1.892,0,0,0-.467,1.321l-2.084.011-.021-.064a2.954,2.954,0,0,1,1.053-2.385,4.137,4.137,0,0,1,2.922-1.031,3.915,3.915,0,0,1,2.8,1.015,3.792,3.792,0,0,1,1.074,2.9v5.393a9.543,9.543,0,0,0,.086,1.294A8.243,8.243,0,0,0,699.284,27Zm-2.814-1.45A2.448,2.448,0,0,0,695.836,25a2.562,2.562,0,0,0,.9-1.337V21.6h-1.815a2.006,2.006,0,0,0-1.579.639,2.237,2.237,0,0,0-.569,1.542,2,2,0,0,0,.387,1.289A1.323,1.323,0,0,0,694.257,25.55ZM703.4,15.377l.129,1.729a3.927,3.927,0,0,1,1.246-1.434,2.971,2.971,0,0,1,1.708-.51,2.856,2.856,0,0,1,2.412,1.139,5.87,5.87,0,0,1,.865,3.545V27h-2.181V19.856a4.345,4.345,0,0,0-.457-2.32,1.553,1.553,0,0,0-1.38-.677,2.127,2.127,0,0,0-1.289.392,2.745,2.745,0,0,0-.859,1.08V27H701.4V15.377ZM716.45,27.226a4.059,4.059,0,0,1-3.4-1.59,6.568,6.568,0,0,1-1.23-4.136V21a6.819,6.819,0,0,1,1.225-4.195,3.815,3.815,0,0,1,3.2-1.638,3.522,3.522,0,0,1,3.024,1.407,6.239,6.239,0,0,1,1.037,3.781v1.225H714a5.739,5.739,0,0,0,.639,2.89,2.113,2.113,0,0,0,1.96,1.106,3.807,3.807,0,0,0,2.836-1.117l.709,1.354a4.633,4.633,0,0,1-1.531,1.01A5.439,5.439,0,0,1,716.45,27.226Zm-.2-10.388a1.709,1.709,0,0,0-1.5.875,5.216,5.216,0,0,0-.7,2.315h4.114v-.247a4.255,4.255,0,0,0-.467-2.127A1.552,1.552,0,0,0,716.246,16.838Zm9.561,2.782h.064l1.869-4.243h2.514l-3.147,5.736L730.361,27h-2.492L725.9,22.617h-.064L723.884,27h-2.492l3.233-5.887-3.137-5.736h2.471ZM734.3,27h-2.191V15.377H734.3Zm0-14.674h-2.191V10.242H734.3Zm4.641,3.051.129,1.729a3.927,3.927,0,0,1,1.246-1.434,2.971,2.971,0,0,1,1.708-.51,2.856,2.856,0,0,1,2.412,1.139,5.87,5.87,0,0,1,.865,3.545V27h-2.181V19.856a4.345,4.345,0,0,0-.457-2.32,1.553,1.553,0,0,0-1.38-.677,2.127,2.127,0,0,0-1.289.392,2.745,2.745,0,0,0-.859,1.08V27h-2.191V15.377Zm11.655-2.89v2.89h1.815v1.558H750.6v6.918a2.269,2.269,0,0,0,.274,1.284.851.851,0,0,0,.725.381,1.751,1.751,0,0,0,.344-.032q.161-.032.376-.1l.226,1.5a3.425,3.425,0,0,1-.693.242,3.379,3.379,0,0,1-.79.091,2.441,2.441,0,0,1-1.955-.811,3.877,3.877,0,0,1-.7-2.562V16.935h-1.536V15.377h1.536v-2.89ZM756.819,27h-2.2V24.819h2.2Zm6.982-1.429a1.716,1.716,0,0,0,1.348-.623,2.48,2.48,0,0,0,.542-1.687h1.966l.021.064a3.591,3.591,0,0,1-1.106,2.771,4.086,4.086,0,0,1-6.091-.51,7.023,7.023,0,0,1-1.171-4.184V21a7.053,7.053,0,0,1,1.171-4.184,3.831,3.831,0,0,1,3.319-1.649,3.682,3.682,0,0,1,2.831,1.176,4.2,4.2,0,0,1,1.058,3.056l-.021.054h-1.977a3.157,3.157,0,0,0-.521-1.885,1.611,1.611,0,0,0-1.37-.725,1.829,1.829,0,0,0-1.767,1.182A7.141,7.141,0,0,0,761.492,21V21.4a7.218,7.218,0,0,0,.537,3A1.827,1.827,0,0,0,763.8,25.571Zm5.479-4.512a6.946,6.946,0,0,1,1.225-4.243,4.249,4.249,0,0,1,6.73,0,6.924,6.924,0,0,1,1.23,4.243v.29a6.893,6.893,0,0,1-1.225,4.238,4.281,4.281,0,0,1-6.735,0,6.893,6.893,0,0,1-1.225-4.238Zm2.191.29a6.747,6.747,0,0,0,.6,3.04,1.933,1.933,0,0,0,1.821,1.182,1.91,1.91,0,0,0,1.789-1.187,6.754,6.754,0,0,0,.6-3.035v-.29a6.716,6.716,0,0,0-.6-3.024,1.954,1.954,0,0,0-3.6,0,6.768,6.768,0,0,0-.6,3.024Zm11.075-5.973.118,1.579a3.615,3.615,0,0,1,1.23-1.327,3.2,3.2,0,0,1,1.735-.467,2.714,2.714,0,0,1,1.676.532,3.18,3.18,0,0,1,1.063,1.617,3.969,3.969,0,0,1,1.23-1.579,2.956,2.956,0,0,1,1.81-.569,2.753,2.753,0,0,1,2.379,1.23,6.547,6.547,0,0,1,.865,3.744V27h-2.191V20.125a5.134,5.134,0,0,0-.451-2.541,1.48,1.48,0,0,0-1.343-.725,1.641,1.641,0,0,0-1.262.559,3.4,3.4,0,0,0-.747,1.472q.011.193.021.4t.011.424V27h-2.181V20.125a5.055,5.055,0,0,0-.462-2.508,1.481,1.481,0,0,0-1.343-.757,1.892,1.892,0,0,0-1.2.387,2.55,2.55,0,0,0-.773,1.063V27h-2.191V15.377Z" transform="translate(0 21)" fill="#1664ff"/>
          </g>
        </g>
      </g>
    </g>
    <g id="THANEX_TRAC-05" data-name="THANEX   TRAC-05" transform="translate(0 21.437)">
      <path id="Path_1108" data-name="Path 1108" d="M449.935,62.24H16.25V20.44H449.935v41.8Z" transform="translate(-16.206 -16.851)" fill="#5a9fd6"/>
      <path id="Path_1109" data-name="Path 1109" d="M449.935,62.24H16.25V20.44H449.935v41.8Z" transform="translate(-16.206 -16.851)" fill="#215ea8"/>
      <path id="Path_1110" data-name="Path 1110" d="M52.8,17.39H67.113c5.446,0,9.142.888,11.123,2.585s2.958,4.957,2.958,9.7v-.942c0,4.815-1.084,8.067-3.216,9.773a12.415,12.415,0,0,1-6,2.07,14.139,14.139,0,0,1,6.468,2.2q3.349,2.505,3.349,9.48v-.986c0,5.331-1.066,8.884-3.181,10.714s-6.21,2.763-12.314,2.763H52.8Zm9.684,19.679h1.963c2.852,0,4.771-.471,5.721-1.421s1.413-2.843,1.413-5.695v.888c0-2.461-.453-4.14-1.395-5.037s-2.665-1.333-5.206-1.333h-2.5Zm0,20.567H65.54q3.945,0,5.259-1.519c.888-1,1.306-3.021,1.306-6.059v.968c0-2.807-.471-4.664-1.359-5.553s-2.781-1.315-5.695-1.315H62.484V57.636Z" transform="translate(-20.284 -16.51)" fill="#fff"/>
      <path id="Path_1111" data-name="Path 1111" d="M66.285,64.892H52.63V17.21H67.094c5.464,0,9.24.888,11.23,2.665,1.848,1.635,2.861,4.62,2.994,8.884h0V29.7c-.142,4.336-1.235,7.338-3.252,8.929a11.55,11.55,0,0,1-5.082,1.946,13.184,13.184,0,0,1,5.535,2.079c2.106,1.573,3.252,4.442,3.394,8.644h0v.96c-.116,4.744-1.2,8.094-3.189,9.835S72.4,64.892,66.285,64.892Zm-13.326-.32H66.285c6.006,0,10.11-.888,12.18-2.719s3.047-5.126,3.118-10.084c-.071-4.327-1.164-7.33-3.269-8.884a14.046,14.046,0,0,0-6.4-2.177V40.4a12.412,12.412,0,0,0,5.917-2.043c2.026-1.59,3.074-4.673,3.145-9.16s-1.039-7.463-2.9-9.106-5.579-2.568-10.99-2.568H52.959Zm12.58-6.8H62.3V44.014h2.763c2.976,0,4.869.435,5.8,1.359s1.262,2.328,1.359,4.664h0v.968c-.08,2.541-.542,4.282-1.333,5.2s-2.71,1.573-5.375,1.573Zm-2.9-.311h2.9c2.559,0,4.291-.5,5.135-1.466s1.217-2.754,1.27-5.455c-.053-2.514-.48-4.176-1.279-4.957s-2.727-1.262-5.579-1.262H62.625Zm1.777-20.256H62.3V24.326H64.97c2.585,0,4.371.471,5.331,1.395s1.306,2.177,1.413,4.211h0v.888c-.089,2.39-.569,3.989-1.448,4.869s-2.95,1.519-5.837,1.519Zm-1.777-.32h1.777c2.807,0,4.7-.462,5.615-1.377s1.315-2.5,1.359-5.082c0-2.177-.489-3.687-1.333-4.442s-2.6-1.306-5.1-1.306H62.625Z" transform="translate(-20.265 -16.49)" fill="#0054a5"/>
      <path id="Path_1112" data-name="Path 1112" d="M102.981,17.39h11.363l10.741,47.362H115.73l-1.875-10.226H103.576l-1.963,10.226H92.24L102.981,17.39Zm1.848,30.082h7.765l-3.847-21.225h0Z" transform="translate(-24.684 -16.51)" fill="#fff"/>
      <path id="Path_1113" data-name="Path 1113" d="M125.263,64.892H115.57l-1.883-10.226H103.647L101.71,64.892H92L102.821,17.21h11.612v.124Zm-9.426-.32h9.035L114.211,17.485H103.105L92.444,64.572h9.035l1.91-10.235h10.563Zm-3.083-16.96h-8.138v-.187l3.918-21.171-.044-.178h.391v.178ZM105,47.292h7.374L108.72,27.134Z" transform="translate(-24.657 -16.49)" fill="#0054a5"/>
      <path id="Path_1114" data-name="Path 1114" d="M145.253,64.752H137.31V17.39h14.25l8.218,39.988V17.39h7.934V64.752h-14.2l-8.262-40.317V64.752Z" transform="translate(-29.713 -16.51)" fill="#fff"/>
      <path id="Path_1115" data-name="Path 1115" d="M167.848,64.892h-14.49l-8-38.913V64.892H137.1V17.21h14.535v.124l7.9,38.46V17.21H167.8Zm-14.215-.32h13.913V17.485h-7.623V57.358h-.311L151.43,17.494H137.447V64.581h7.623V24.424h.32Z" transform="translate(-29.689 -16.49)" fill="#0054a5"/>
      <path id="Path_1116" data-name="Path 1116" d="M195.677,65.382c-5.455,0-9.266-1.4-11.407-4.247S181.044,53.291,181,46.112V34.883c.044-6.468,1.262-11.132,3.7-14s6.414-4.291,11.932-4.291c4.789,0,8.369,1.155,10.661,3.483s3.412,5.81,3.261,10.457v1.413h-9.595V30.529c0-2.257-.329-3.98-1.164-5.117a4.282,4.282,0,0,0-3.749-1.706,4.229,4.229,0,0,0-4.158,2.328c-.8,1.564-1.2,4.327-1.2,8.325V45.57c0,5.171.382,8.573,1.128,10.235s2.292,2.461,4.638,2.461a21.9,21.9,0,0,0,4.442-.737V46.637H196.45V39.582h14.161V63.508a65.326,65.326,0,0,1-14.926,1.875Z" transform="translate(-34.587 -16.421)" fill="#fff"/>
      <path id="Path_1117" data-name="Path 1117" d="M195.654,65.521h0c-5.49,0-9.355-1.457-11.55-4.309s-3.269-7.925-3.3-15.1V34.861c0-6.494,1.288-11.239,3.74-14.1s6.521-4.362,12.047-4.362c4.815,0,8.449,1.2,10.8,3.554s3.465,5.908,3.3,10.581v1.5h-9.915V30.508c0-2.283-.338-3.927-1.146-5.02a4.753,4.753,0,0,0-7.623.586c-.791,1.537-1.19,4.318-1.19,8.262V45.549c0,5.117.382,8.538,1.111,10.164s2.2,2.372,4.5,2.372a20.434,20.434,0,0,0,4.282-.7V46.775h-4.442V39.41h14.481v24.2h-.115a66.064,66.064,0,0,1-14.943,1.883Zm.951-48.81c-5.428,0-9.408,1.439-11.807,4.247s-3.625,7.489-3.66,13.9v11.23c0,7.107,1.119,12.154,3.243,14.926s5.872,4.193,11.256,4.193a67.015,67.015,0,0,0,14.757-1.848V39.721H196.543v6.734h4.442V57.632h-.124a21.855,21.855,0,0,1-4.442.746c-2.39,0-4.007-.888-4.78-2.559s-1.137-5.055-1.137-10.3V34.337c0-4,.409-6.823,1.208-8.4a5.082,5.082,0,0,1,8.173-.64c.888,1.164,1.235,2.87,1.208,5.215v1.253h9.293V30.508c.151-4.584-.933-8.058-3.2-10.341s-5.855-3.456-10.581-3.456Z" transform="translate(-34.565 -16.4)" fill="#0054a5"/>
      <path id="Path_1118" data-name="Path 1118" d="M224.39,64.752V17.39h9.684V57.707h12.3v7.045Z" transform="translate(-39.429 -16.51)" fill="#fff"/>
      <path id="Path_1119" data-name="Path 1119" d="M246.518,64.892H224.21V17.21H234.2V57.536h12.314Zm-22-.32h21.713V57.891h-12.34V17.521h-9.373Z" transform="translate(-39.408 -16.49)" fill="#0054a5"/>
      <path id="Path_1120" data-name="Path 1120" d="M265.592,17.39h11.372l10.741,47.362h-9.364l-1.875-10.226h-10.3l-1.937,10.226H254.86L265.592,17.39Zm1.83,30.082h7.756l-3.847-21.225h0Z" transform="translate(-42.828 -16.51)" fill="#fff"/>
      <path id="Path_1121" data-name="Path 1121" d="M287.885,64.892h-9.711l-1.892-10.226h-10l-1.946,10.226H254.64v-.187l10.777-47.5h11.612v.124Zm-9.444-.32h9.035L276.815,17.485H265.71L255.049,64.572h9.035L266,54.337h10.572Zm-3.047-16.96h-8.147v-.187L271.165,26.2h.311Zm-7.765-.32h7.383l-3.66-20.185Z" transform="translate(-42.804 -16.49)" fill="#0054a5"/>
      <path id="Path_1122" data-name="Path 1122" d="M324.287,24.435H314.07V17.39h30.082v7.045h-10.2V64.752h-9.666V24.435Z" transform="translate(-49.434 -16.51)" fill="#fff"/>
      <path id="Path_1123" data-name="Path 1123" d="M334.1,64.892h-9.995V24.575H313.89V17.21h30.4v7.365H334.1Zm-9.675-.32h9.355V24.264h10.19V17.521H314.21v6.743h10.217Z" transform="translate(-49.414 -16.49)" fill="#0054a5"/>
      <path id="Path_1124" data-name="Path 1124" d="M354.88,17.39h14.215c5.082,0,8.7.933,10.883,2.816s3.26,5.037,3.26,9.471c0,5-1.111,8.387-3.3,10.137a12.526,12.526,0,0,1-5.064,2.043h.542a7.108,7.108,0,0,1,5.988,2.6c1.342,1.777,1.946,4.211,1.777,7.445-.062,1.83-.089,3.74-.062,5.73s.107,3.616.2,4.682a9.593,9.593,0,0,0,.409,2.408h-9.648a11.972,11.972,0,0,1-.346-2.345c-.062-1.057-.089-2.665-.089-4.744v-5.73c.044-2.372-.409-4.051-1.342-5.02s-2.585-1.475-4.9-1.475h-2.852V64.752H354.88Zm9.675,20.78h2.71c2.514,0,4.2-.471,5.028-1.395s1.271-2.781,1.271-5.553q0-3.9-1.342-5.331t-4.957-1.4h-2.71Z" transform="translate(-53.988 -16.51)" fill="#fff"/>
      <path id="Path_1125" data-name="Path 1125" d="M364.739,64.892H354.7V17.21h14.392c5.082,0,8.778.968,10.99,2.861s3.314,5.135,3.314,9.586c0,5.028-1.128,8.484-3.358,10.261a11.328,11.328,0,0,1-3.927,1.777,7.107,7.107,0,0,1,5.41,2.665c1.368,1.777,1.99,4.3,1.83,7.543-.062,1.777-.089,3.74-.062,5.73.044,2.319.107,3.714.2,4.664a10.162,10.162,0,0,0,.391,2.363l.071.213h-10v-.115a11.845,11.845,0,0,1-.355-2.372c-.062-1.119-.089-2.763-.089-4.753V51.885c.044-2.328-.391-3.971-1.3-4.9s-2.514-1.421-4.789-1.421h-2.665Zm-9.675-.32h9.32V45.24H367.4c2.363,0,4.051.506,5.02,1.51s1.43,2.727,1.386,5.135v5.73c0,1.99,0,3.634.1,4.735a11.109,11.109,0,0,0,.293,2.186h9.337a10.307,10.307,0,0,1-.338-2.23c-.1-.96-.169-2.363-.213-4.682,0-2,0-3.927.062-5.748.16-3.163-.435-5.633-1.777-7.33A6.983,6.983,0,0,0,375.4,42h-.542v-.311a12.6,12.6,0,0,0,4.984-2.017c2.141-1.715,3.216-5.091,3.216-10.013,0-4.353-1.075-7.5-3.189-9.346s-5.784-2.79-10.785-2.79H355.02Zm12.18-26.226h-2.861V24.326h2.861c2.461,0,4.167.5,5.082,1.466s1.386,2.781,1.386,5.446c0,2.843-.435,4.682-1.324,5.659S369.794,38.346,367.245,38.346Zm-2.505-.355h2.55c2.461,0,4.113-.453,4.9-1.35s1.191-2.736,1.191-5.4c0-2.541-.435-4.291-1.3-5.188s-2.479-1.368-4.842-1.368h-2.505Z" transform="translate(-53.968 -16.49)" fill="#0054a5"/>
      <path id="Path_1126" data-name="Path 1126" d="M403.962,17.39h11.354l10.75,47.362H416.7l-1.866-10.226H404.513l-1.937,10.226H393.23L403.962,17.39Zm1.848,30.082h7.774L409.71,26.248h0l-3.927,21.225Z" transform="translate(-58.267 -16.51)" fill="#fff"/>
      <path id="Path_1127" data-name="Path 1127" d="M426.236,64.892h-9.7l-1.857-10.226H404.63l-1.946,10.226H393L403.83,17.21h11.6v.124Zm-9.435-.32h9.071L415.211,17.485H404.105L393.444,64.572h8.973l1.946-10.235h10.581Zm-3.056-16.96H405.6v-.187L409.5,26.3v-.222h.382V26.3Zm-7.765-.32h7.383L409.7,27.178Z" transform="translate(-58.241 -16.49)" fill="#0054a5"/>
      <path id="Path_1128" data-name="Path 1128" d="M466.191,48.582v1.4q.133,8.333-3.083,11.869t-10.919,3.554c-5.419,0-9.257-1.279-11.47-3.847s-3.349-6.965-3.349-13.2V33.71c0-6.29,1.1-10.723,3.349-13.282s6.05-3.838,11.47-3.838c4.735,0,8.218,1.2,10.51,3.6,2.141,2.23,3.189,5.553,3.181,9.959v2.31h-9.613v-1.4a11.292,11.292,0,0,0-.968-5.526,3.314,3.314,0,0,0-3.109-1.777,4.176,4.176,0,0,0-3.927,2.088c-.8,1.4-1.2,3.678-1.2,6.841V47.267q0,6.157,1.119,8.573a4.025,4.025,0,0,0,4.007,2.425,3.554,3.554,0,0,0,3.349-2.061,12.991,12.991,0,0,0,1.013-6.219v-1.4Z" transform="translate(-63.191 -16.421)" fill="#fff"/>
      <path id="Path_1129" data-name="Path 1129" d="M452.173,65.521c-5.455,0-9.346-1.306-11.55-3.9s-3.394-6.965-3.394-13.326V33.689c0-6.317,1.137-10.821,3.394-13.389s6.13-3.9,11.55-3.9c4.735,0,8.3,1.226,10.617,3.643,2.159,2.257,3.252,5.65,3.234,10.084V32.6h-9.933V31.032a11.158,11.158,0,0,0-.942-5.446,3.136,3.136,0,0,0-2.976-1.777,4.007,4.007,0,0,0-3.794,2.017c-.782,1.359-1.182,3.634-1.182,6.752V47.246c0,4.051.373,6.921,1.1,8.511a3.865,3.865,0,0,0,3.874,2.328,3.376,3.376,0,0,0,3.207-1.972,13.094,13.094,0,0,0,1.013-6.139V48.41h9.95v1.555c.089,5.553-.968,9.577-3.127,11.976S457.317,65.521,452.173,65.521Zm0-48.81c-5.331,0-9.177,1.288-11.345,3.794s-3.314,6.947-3.314,13.184V48.312q0,9.328,3.314,13.1c2.2,2.505,5.988,3.8,11.345,3.8,5.064,0,8.7-1.173,10.8-3.483s3.127-6.281,3.038-11.763V48.73H456.7v1.235a13.066,13.066,0,0,1-1.039,6.3,3.74,3.74,0,0,1-3.483,2.141,4.229,4.229,0,0,1-4.158-2.514c-.746-1.626-1.128-4.54-1.128-8.644V32.614c0-3.172.409-5.5,1.217-6.912a4.362,4.362,0,0,1,4.069-2.177,3.483,3.483,0,0,1,3.252,1.9,11.416,11.416,0,0,1,.986,5.615v1.235H465.7v-2.15c0-4.353-1.048-7.658-3.136-9.862-2.257-2.354-5.757-3.554-10.395-3.554Z" transform="translate(-63.176 -16.4)" fill="#0054a5"/>
      <path id="Path_1130" data-name="Path 1130" d="M18,98.27h7.632a9.772,9.772,0,0,1,1.706.151,5.241,5.241,0,0,1,1.679.755,3.829,3.829,0,0,1,1.333,1.573,6.219,6.219,0,0,1,.506,2.665q-.089,5.037-5.633,5.091h-6.1v8.245H18Zm1.084,9.284h6.326a4.78,4.78,0,0,0,2.088-.418,3.269,3.269,0,0,0,1.324-.968,3.483,3.483,0,0,0,.746-1.315,5.331,5.331,0,0,0,.2-1.43,7.569,7.569,0,0,0-.115-1.27,4.708,4.708,0,0,0-.6-1.342,3.332,3.332,0,0,0-1.262-1.128,4.993,4.993,0,0,0-2.221-.426H19.119Z" transform="translate(-16.401 -25.535)" fill="#1664ff"/>
      <path id="Path_1131" data-name="Path 1131" d="M51.651,107.471a10.59,10.59,0,0,1-2.23,6.85,7.561,7.561,0,0,1-2.665,2.07,8.689,8.689,0,0,1-7.205,0,7.782,7.782,0,0,1-2.665-2.07,11.549,11.549,0,0,1,0-13.753,7.667,7.667,0,0,1,6.272-2.8,7.685,7.685,0,0,1,6.281,2.8,10.661,10.661,0,0,1,2.212,6.9Zm-15.992,0a9.5,9.5,0,0,0,1.981,6.121,6.574,6.574,0,0,0,5.473,2.594,6.61,6.61,0,0,0,5.482-2.594,10.661,10.661,0,0,0,0-12.269,6.619,6.619,0,0,0-5.482-2.568,6.574,6.574,0,0,0-5.473,2.568,9.471,9.471,0,0,0-1.955,6.148Z" transform="translate(-18.255 -25.478)" fill="#1664ff"/>
      <path id="Path_1132" data-name="Path 1132" d="M55.38,98.27h1.128l4.673,17.3h.08l4.744-17.3H67.4l4.824,17.3h0l4.6-17.3h1.182l-5.153,18.515H71.62l-4.94-17.529h0L61.83,116.785H60.56Z" transform="translate(-20.571 -25.535)" fill="#1664ff"/>
      <path id="Path_1133" data-name="Path 1133" d="M95.671,115.8v.986H83.5V98.27H95.556v.986H84.584v7.409H94.9v.986H84.584V115.8Z" transform="translate(-23.709 -25.535)" fill="#1664ff"/>
      <path id="Path_1134" data-name="Path 1134" d="M100.06,98.269h7.489A7.107,7.107,0,0,1,111.6,99.3a4.219,4.219,0,0,1,1.635,3.74,4.442,4.442,0,0,1-3.838,4.735v.027a6.218,6.218,0,0,1,1.67.444,3.127,3.127,0,0,1,1,.888,5,5,0,0,1,.791,2.665q.107,1.484.133,2.825a4.078,4.078,0,0,0,.48,2.15h-1.226a3.946,3.946,0,0,1-.169-.569,3.891,3.891,0,0,0-.124-.569,7.177,7.177,0,0,1-.107-1.262,26.466,26.466,0,0,0-.071-2.79,4.611,4.611,0,0,0-.275-1.288,2.79,2.79,0,0,0-.737-1.013,3,3,0,0,0-1.226-.693,6.894,6.894,0,0,0-2-.24h-6.4v8.422H100.06Zm7.489,9.106a5.117,5.117,0,0,0,3.314-1.039,3.962,3.962,0,0,0,1.279-3.216,3.447,3.447,0,0,0-1.368-3.021,5.855,5.855,0,0,0-3.225-.888h-6.406v8.12Z" transform="translate(-25.557 -25.533)" fill="#1664ff"/>
      <path id="Path_1135" data-name="Path 1135" d="M130.831,115.8v.986H118.66V98.27h12.047v.986H119.744v7.409h10.315v.986H119.744V115.8Z" transform="translate(-27.632 -25.535)" fill="#1664ff"/>
      <path id="Path_1136" data-name="Path 1136" d="M135.22,98.27h5.872q4.744.071,6.583,2.816a11.4,11.4,0,0,1,1.706,6.414,10.466,10.466,0,0,1-1.99,6.583q-2.035,2.665-6.352,2.665H135.22ZM136.3,115.8h4.833a7.241,7.241,0,0,0,4.869-1.777q2.212-1.839,2.283-6.539a11.639,11.639,0,0,0-.764-4.513,5.757,5.757,0,0,0-1.9-2.47,6.006,6.006,0,0,0-2.4-1.066,14.731,14.731,0,0,0-2.31-.2H136.3Z" transform="translate(-29.48 -25.535)" fill="#1664ff"/>
      <path id="Path_1137" data-name="Path 1137" d="M163.209,98.27h7.178a7.818,7.818,0,0,1,2.665.391,4.291,4.291,0,0,1,1.732,1.084,3.944,3.944,0,0,1,.951,1.519,6.59,6.59,0,0,1,.249,1.777,4,4,0,0,1-.942,2.585,3.874,3.874,0,0,1-2.532,1.35l.053.053a2.186,2.186,0,0,1,.888.124,4.985,4.985,0,0,1,1.35.711,4.318,4.318,0,0,1,1.315,1.368,5.215,5.215,0,0,1,.524,2.337,4.62,4.62,0,0,1-1.715,3.847,7.045,7.045,0,0,1-4.54,1.342H163.2Zm1.093,8.4h6.086q4.522-.107,4.54-3.811a3.109,3.109,0,0,0-1.35-2.825,6.219,6.219,0,0,0-3.189-.773H164.3Zm0,9.133H170.4c3.376,0,5.091-1.421,5.171-4.2a3.953,3.953,0,0,0-.435-1.972,3.065,3.065,0,0,0-1.235-1.19,5.456,5.456,0,0,0-1.661-.657,14.11,14.11,0,0,0-1.839-.124H164.3Z" transform="translate(-32.601 -25.534)" fill="#1664ff"/>
      <path id="Path_1138" data-name="Path 1138" d="M193.673,98.27H194.9l-7.205,10.768v7.747H186.6v-7.747L179.44,98.27h1.244l6.486,9.773Z" transform="translate(-34.413 -25.535)" fill="#1664ff"/>
      <path id="Path_1139" data-name="Path 1139" d="M207.09,98.27h7.17a7.871,7.871,0,0,1,2.71.391,4.193,4.193,0,0,1,1.724,1.084,3.865,3.865,0,0,1,.96,1.519,6.939,6.939,0,0,1,.24,1.777,4,4,0,0,1-.942,2.585,3.829,3.829,0,0,1-2.523,1.35l.044.053a2.168,2.168,0,0,1,.888.124,4.86,4.86,0,0,1,1.35.711,4.229,4.229,0,0,1,1.315,1.368,5.1,5.1,0,0,1,.533,2.337,4.629,4.629,0,0,1-1.724,3.847,7.036,7.036,0,0,1-4.531,1.342h-7.187Zm1.084,8.4h6.095c3-.071,4.522-1.342,4.54-3.811a3.127,3.127,0,0,0-1.35-2.825,6.281,6.281,0,0,0-3.189-.773h-6.095Zm0,9.133h6.1q5.055,0,5.162-4.2a4.052,4.052,0,0,0-.426-1.972,3.083,3.083,0,0,0-1.244-1.191,5.331,5.331,0,0,0-1.661-.657,13.963,13.963,0,0,0-1.83-.124h-6.1Z" transform="translate(-37.498 -25.534)" fill="#1664ff"/>
      <path id="Path_1140" data-name="Path 1140" d="M231.946,98.27l7.107,18.515H237.88l-2.274-5.944h-8.582l-2.283,5.944h-1.19l7.214-18.515Zm3.3,11.55-3.856-10.475h0l-3.989,10.475Z" transform="translate(-39.335 -25.535)" fill="#1664ff"/>
      <path id="Path_1141" data-name="Path 1141" d="M243.2,98.27h1.395l11.327,17h.053v-17h1.084v18.515h-1.3L244.337,99.656h0v17.129H243.2Z" transform="translate(-41.527 -25.535)" fill="#1664ff"/>
      <path id="Path_1142" data-name="Path 1142" d="M278.687,107.649v9.08h-.933V112.8H277.7a5.81,5.81,0,0,1-2.514,3.181,8,8,0,0,1-4.273,1.19,8.333,8.333,0,0,1-3.554-.782,7.693,7.693,0,0,1-2.665-2.043,10.421,10.421,0,0,1-2.186-6.779,10.741,10.741,0,0,1,2.23-6.876,7.56,7.56,0,0,1,6.219-2.923,7.916,7.916,0,0,1,4.9,1.608,7.01,7.01,0,0,1,2.559,4.558h-1.075q-1.359-5.073-6.4-5.18a6.361,6.361,0,0,0-5.473,2.665,9.968,9.968,0,0,0-1.91,6.139,9.711,9.711,0,0,0,1.848,6.068,7.285,7.285,0,0,0,10.661.471,7.667,7.667,0,0,0,1.706-5.473h-6.628v-.986Z" transform="translate(-43.681 -25.478)" fill="#1664ff"/>
      <path id="Path_1143" data-name="Path 1143" d="M285,98.27h1.093V115.8h10.19v.986H285Z" transform="translate(-46.191 -25.535)" fill="#1664ff"/>
      <path id="Path_1144" data-name="Path 1144" d="M306.126,98.27l7.107,18.515H312.06l-2.274-5.944H301.2l-2.283,5.944h-1.19l7.214-18.515Zm3.3,11.55-3.856-10.475h-.044l-4.007,10.51Z" transform="translate(-47.611 -25.535)" fill="#1664ff"/>
      <path id="Path_1145" data-name="Path 1145" d="M323.5,99.256V98.27h13.771v.986h-6.334v17.529h-1.084V99.256Z" transform="translate(-50.487 -25.535)" fill="#1664ff"/>
      <path id="Path_1146" data-name="Path 1146" d="M341,98.269h7.489a7.107,7.107,0,0,1,4.06,1.031,4.219,4.219,0,0,1,1.635,3.74,4.442,4.442,0,0,1-3.838,4.735v.027a6.283,6.283,0,0,1,1.679.444,3.189,3.189,0,0,1,1,.888,5.01,5.01,0,0,1,.8,2.665q.107,1.484.133,2.825a4.176,4.176,0,0,0,.471,2.15H353.2a5.536,5.536,0,0,1-.169-.569,4.94,4.94,0,0,1-.115-.569,7.157,7.157,0,0,1-.116-1.262,26.474,26.474,0,0,0-.071-2.79,4.61,4.61,0,0,0-.267-1.288,2.9,2.9,0,0,0-.737-1.013,3.038,3.038,0,0,0-1.235-.693,6.876,6.876,0,0,0-1.99-.24h-6.4v8.422H341Zm7.5,9.106a5.108,5.108,0,0,0,3.3-1.039,3.945,3.945,0,0,0,1.288-3.216,3.447,3.447,0,0,0-1.368-3.021,5.855,5.855,0,0,0-3.225-.888h-6.406v8.12Z" transform="translate(-52.439 -25.533)" fill="#1664ff"/>
      <path id="Path_1147" data-name="Path 1147" d="M365.946,98.27l7.107,18.515h-1.182l-2.266-5.944h-8.591l-2.274,5.944H357.55l7.214-18.515Zm3.3,11.55-3.847-10.475h-.053l-3.989,10.475Z" transform="translate(-54.286 -25.535)" fill="#1664ff"/>
      <path id="Path_1148" data-name="Path 1148" d="M391.042,103.731a5.6,5.6,0,0,0-2.088-3.66,6.636,6.636,0,0,0-4.025-1.315,6.521,6.521,0,0,0-5.455,2.568,10.448,10.448,0,0,0,0,12.269,6.512,6.512,0,0,0,5.455,2.594,5.819,5.819,0,0,0,4.442-2.052,7.534,7.534,0,0,0,1.972-4.611h1.084a8.706,8.706,0,0,1-2.408,5.446,6.912,6.912,0,0,1-5.091,2.2,8.493,8.493,0,0,1-3.6-.782,7.863,7.863,0,0,1-2.665-2.07,11.6,11.6,0,0,1,0-13.753,8.573,8.573,0,0,1,10.119-1.919,6.45,6.45,0,0,1,2.159,1.99,7.179,7.179,0,0,1,.977,2.026,4.683,4.683,0,0,1,.231,1.066Z" transform="translate(-56.39 -25.479)" fill="#1664ff"/>
      <path id="Path_1149" data-name="Path 1149" d="M421.717,107.649v9.08h-.933V112.8h-.053a5.81,5.81,0,0,1-2.514,3.181,8,8,0,0,1-4.273,1.19,8.36,8.36,0,0,1-3.554-.782,7.694,7.694,0,0,1-2.665-2.043,10.421,10.421,0,0,1-2.186-6.779,10.741,10.741,0,0,1,2.23-6.876,7.561,7.561,0,0,1,6.219-2.923,7.916,7.916,0,0,1,4.9,1.608,6.974,6.974,0,0,1,2.559,4.558h-1.048q-1.386-5.073-6.45-5.18a6.361,6.361,0,0,0-5.473,2.665,9.968,9.968,0,0,0-1.91,6.139,9.711,9.711,0,0,0,1.848,6.068,7.285,7.285,0,0,0,10.661.471,7.667,7.667,0,0,0,1.715-5.464h-6.628v-.986Z" transform="translate(-59.639 -25.478)" fill="#1664ff"/>
      <path id="Path_1150" data-name="Path 1150" d="M428.06,98.269h7.5A7.107,7.107,0,0,1,439.61,99.3a4.257,4.257,0,0,1,1.626,3.74,4.442,4.442,0,0,1-3.829,4.735v.027a6.3,6.3,0,0,1,1.67.444,3.092,3.092,0,0,1,1,.888,5.011,5.011,0,0,1,.8,2.665q.107,1.484.133,2.825a4.175,4.175,0,0,0,.471,2.15h-1.226a5.521,5.521,0,0,1-.169-.569,3.8,3.8,0,0,0-.116-.569,7.181,7.181,0,0,1-.107-1.262,26.461,26.461,0,0,0-.08-2.79,4.318,4.318,0,0,0-.267-1.288,2.9,2.9,0,0,0-.737-1.013,3.039,3.039,0,0,0-1.235-.693,6.876,6.876,0,0,0-1.99-.24h-6.4v8.422H428.06Zm7.5,9.106a5.153,5.153,0,0,0,3.314-1.039,3.962,3.962,0,0,0,1.279-3.216,3.447,3.447,0,0,0-1.368-3.021,5.855,5.855,0,0,0-3.225-.888h-6.406v8.12Z" transform="translate(-62.153 -25.533)" fill="#1664ff"/>
      <path id="Path_1151" data-name="Path 1151" d="M462.865,107.472a10.492,10.492,0,0,1-2.23,6.85,7.525,7.525,0,0,1-2.665,2.07,8.511,8.511,0,0,1-3.616.782,8.422,8.422,0,0,1-3.554-.782,7.7,7.7,0,0,1-2.665-2.07,11.55,11.55,0,0,1,0-13.753,8.431,8.431,0,0,1,12.544,0A10.572,10.572,0,0,1,462.865,107.472Zm-15.992,0a9.5,9.5,0,0,0,1.981,6.121,7.107,7.107,0,0,0,10.945,0,10.661,10.661,0,0,0,0-12.269,7.107,7.107,0,0,0-10.945,0A9.471,9.471,0,0,0,446.873,107.472Z" transform="translate(-64.139 -25.479)" fill="#1664ff"/>
      <path id="Path_1152" data-name="Path 1152" d="M469.584,98.27v11.1a13.818,13.818,0,0,0,.169,2,8.33,8.33,0,0,0,.72,2.257,4.575,4.575,0,0,0,1.706,1.848,5.615,5.615,0,0,0,3.047.773q3.269,0,4.638-1.866a8.476,8.476,0,0,0,1.253-5.011V98.27H482.2v11.1a9.586,9.586,0,0,1-1.457,5.562q-1.555,2.248-5.517,2.3a7.054,7.054,0,0,1-3.714-.888,5.33,5.33,0,0,1-2.034-2.123,8.5,8.5,0,0,1-.808-2.6,12.752,12.752,0,0,1-.169-2.248V98.27Z" transform="translate(-66.665 -25.535)" fill="#1664ff"/>
      <path id="Path_1153" data-name="Path 1153" d="M488.32,98.27h7.632a9.772,9.772,0,0,1,1.706.151,5.073,5.073,0,0,1,1.679.755,3.847,3.847,0,0,1,1.341,1.573,6.317,6.317,0,0,1,.5,2.665q-.08,5.037-5.633,5.091H489.4v8.245H488.32Zm1.084,9.284h6.326a4.815,4.815,0,0,0,2.1-.418,3.243,3.243,0,0,0,1.315-.968,3.5,3.5,0,0,0,.755-1.315,5.713,5.713,0,0,0,.2-1.43,7.649,7.649,0,0,0-.124-1.27,4.708,4.708,0,0,0-.6-1.342,3.242,3.242,0,0,0-1.253-1.128,5.037,5.037,0,0,0-2.23-.426H489.4Z" transform="translate(-68.876 -25.535)" fill="#1664ff"/>
      <path id="Path_1154" data-name="Path 1154" d="M20.873,145.468h.044l3.554-12.2h1.27l3.554,12.2h.053L32.9,133.3H33.96l-4.149,13.326H28.656L25.1,134.532h-.044L21.5,146.623H20.3L16.2,133.3h1.031Z" transform="translate(-16.2 -29.44)" fill="#1664ff"/>
      <path id="Path_1155" data-name="Path 1155" d="M55.163,145.468h0l3.554-12.2h1.288l3.554,12.2h0l3.616-12.2h1.093L64.127,146.6H62.946L59.392,134.5h-.044L55.794,146.6H54.586l-4.1-13.326h1.022Z" transform="translate(-20.026 -29.44)" fill="#1664ff"/>
      <path id="Path_1156" data-name="Path 1156" d="M89.416,145.468h.053l3.554-12.2h1.27l3.554,12.2H97.9l3.616-12.2h1.057L98.425,146.6h-1.19L93.681,134.5h-.053L90.074,146.6H88.866l-4.1-13.326H85.8Z" transform="translate(-23.851 -29.44)" fill="#1664ff"/>
      <path id="Path_1157" data-name="Path 1157" d="M120.7,147.975V145.31h1.262v2.665Z" transform="translate(-27.859 -30.783)" fill="#1664ff"/>
      <path id="Path_1158" data-name="Path 1158" d="M141.18,127.47h.888v8h.053a4.442,4.442,0,0,1,1.963-2.372,5.81,5.81,0,0,1,2.932-.773,4.966,4.966,0,0,1,4.256,1.91,8,8,0,0,1,1.359,4.753,10.483,10.483,0,0,1-.6,3.785,6.219,6.219,0,0,1-1.51,2.23,4.975,4.975,0,0,1-1.83,1.013,6.387,6.387,0,0,1-1.679.267,5.384,5.384,0,0,1-2.132-.444,6.122,6.122,0,0,1-1.51-.96,4.708,4.708,0,0,1-1.253-1.9h-.053v2.985h-.888Zm5.9,17.973a3.927,3.927,0,0,0,2.2-.6,4.54,4.54,0,0,0,1.43-1.475,9.2,9.2,0,0,0,1.031-4.362A6.965,6.965,0,0,0,150.588,135a4.069,4.069,0,0,0-3.554-1.777,4.442,4.442,0,0,0-3.731,1.626,6.77,6.77,0,0,0-1.208,4.176,8,8,0,0,0,1.155,4.442,4.176,4.176,0,0,0,3.829,1.972Z" transform="translate(-30.144 -28.792)" fill="#1664ff"/>
      <path id="Path_1159" data-name="Path 1159" d="M180.329,144.125a3.252,3.252,0,0,0,.116,1.093.666.666,0,0,0,.729.524,4.388,4.388,0,0,0,.711-.08v.835a2.975,2.975,0,0,1-.773.1c-.737,0-1.2-.2-1.395-.6a2.248,2.248,0,0,1-.329-1.35v-.693h0a4.442,4.442,0,0,1-1.7,2.043,5.419,5.419,0,0,1-3.127.888A5.161,5.161,0,0,1,171.48,146a3.287,3.287,0,0,1-1.262-2.9,3.9,3.9,0,0,1,.444-1.955A3.269,3.269,0,0,1,171.8,140.1a4.815,4.815,0,0,1,1.573-.622l.826-.187a6.015,6.015,0,0,1,.791-.053,9.8,9.8,0,0,0,3.856-.693,1.342,1.342,0,0,0,.533-.8,9.417,9.417,0,0,0,.071-1.279,2.86,2.86,0,0,0-.124-.693,2.665,2.665,0,0,0-.551-.888,3.651,3.651,0,0,0-1.084-.773,4.957,4.957,0,0,0-1.848-.284c-2.425,0-3.749,1.2-3.98,3.554h-.951c.187-2.941,1.821-4.442,4.922-4.442a6.3,6.3,0,0,1,3.11.693,2.941,2.941,0,0,1,1.413,2.781Zm-.942-5.1a1.679,1.679,0,0,1-.773.471,5.33,5.33,0,0,1-1.155.249c-.888.107-1.777.213-2.772.311q-3.554.24-3.554,3.1a2.6,2.6,0,0,0,.888,2.034,3.554,3.554,0,0,0,2.532.888,4.628,4.628,0,0,0,2.665-.649,3.865,3.865,0,0,0,1.466-1.377,5.028,5.028,0,0,0,.631-1.537,6.164,6.164,0,0,0,.124-.968Z" transform="translate(-33.383 -29.402)" fill="#1664ff"/>
      <path id="Path_1160" data-name="Path 1160" d="M199.227,133.262h.933v2.879h.062A4.5,4.5,0,0,1,202,133.759a5.188,5.188,0,0,1,2.807-.8,5.33,5.33,0,0,1,2.665.6,3.341,3.341,0,0,1,1.359,1.484,5.187,5.187,0,0,1,.524,1.777c0,.6.053,1.128.053,1.555v8.245h-.933v-8.422a11.691,11.691,0,0,0-.053-1.3,4.389,4.389,0,0,0-.453-1.43,2.532,2.532,0,0,0-1.084-1.164,4.3,4.3,0,0,0-2.088-.462,4.14,4.14,0,0,0-3.394,1.555,6.121,6.121,0,0,0-1.27,4.025v7.2H199.2Z" transform="translate(-36.618 -29.405)" fill="#1664ff"/>
      <path id="Path_1161" data-name="Path 1161" d="M238.69,133.263V145.9a11.073,11.073,0,0,1-.071,1.341,6.13,6.13,0,0,1-.6,1.981,4.14,4.14,0,0,1-1.644,1.732,6.219,6.219,0,0,1-3.243.72,6.113,6.113,0,0,1-3.474-.888,3.971,3.971,0,0,1-1.555-3.225h.942a3.243,3.243,0,0,0,1.35,2.505,4.691,4.691,0,0,0,2.763.782,4.984,4.984,0,0,0,2.665-.64,3.554,3.554,0,0,0,1.386-1.377,5.009,5.009,0,0,0,.506-1.626c0-.48.053-.835.053-1.057V143.08h-.053a4.824,4.824,0,0,1-4.673,3.047,4.948,4.948,0,0,1-4.2-1.91,7.658,7.658,0,0,1-1.368-4.682,7.347,7.347,0,0,1,1.448-4.629,4.9,4.9,0,0,1,4.122-1.937,5.4,5.4,0,0,1,2.843.773,4.318,4.318,0,0,1,1.83,2.328h.053v-2.807Zm-5.668.56a4,4,0,0,0-3.465,1.777,6.841,6.841,0,0,0-1.164,3.936,6.654,6.654,0,0,0,1.19,4.016,4.38,4.38,0,0,0,6.992-.053,6.672,6.672,0,0,0,1.155-3.962,6.787,6.787,0,0,0-1.155-3.989,4.176,4.176,0,0,0-3.554-1.724Z" transform="translate(-39.771 -29.406)" fill="#1664ff"/>
      <path id="Path_1162" data-name="Path 1162" d="M258.7,127.47v18.515h-.942V127.47Z" transform="translate(-43.152 -28.792)" fill="#1664ff"/>
      <path id="Path_1163" data-name="Path 1163" d="M285.564,144.114a3.244,3.244,0,0,0,.124,1.093.657.657,0,0,0,.729.524,4.392,4.392,0,0,0,.711-.08v.835a2.994,2.994,0,0,1-.782.1c-.729,0-1.19-.2-1.386-.6a2.186,2.186,0,0,1-.329-1.35v-.693h-.053a4.389,4.389,0,0,1-1.688,2.043,5.446,5.446,0,0,1-3.127.888,5.144,5.144,0,0,1-3.083-.888,3.287,3.287,0,0,1-1.262-2.9,3.9,3.9,0,0,1,.444-1.954A3.127,3.127,0,0,1,277.009,140a4.761,4.761,0,0,1,1.564-.622l.826-.187a6.1,6.1,0,0,1,.791-.053,9.9,9.9,0,0,0,3.865-.693,1.3,1.3,0,0,0,.524-.8,8.009,8.009,0,0,0,.08-1.279,2.861,2.861,0,0,0-.124-.693,2.532,2.532,0,0,0-.56-.888,3.44,3.44,0,0,0-1.084-.773,4.921,4.921,0,0,0-1.848-.284c-2.425,0-3.749,1.2-3.98,3.554h-.888c.178-2.941,1.777-4.442,4.913-4.442a6.334,6.334,0,0,1,3.118.693,2.949,2.949,0,0,1,1.4,2.781Zm-.888-5.1a1.714,1.714,0,0,1-.782.471,5.253,5.253,0,0,1-1.146.249c-.888.107-1.777.213-2.781.311q-3.554.24-3.554,3.1a2.6,2.6,0,0,0,.888,2.035,3.554,3.554,0,0,0,2.532.888,4.647,4.647,0,0,0,2.665-.649,3.865,3.865,0,0,0,1.466-1.377,5.258,5.258,0,0,0,.631-1.537,7.545,7.545,0,0,0,.124-.968Z" transform="translate(-45.12 -29.391)" fill="#1664ff"/>
      <path id="Path_1164" data-name="Path 1164" d="M309.029,133.638h-2.816v9.311c0,1.039.24,1.7.737,1.972a3.554,3.554,0,0,0,2.052.338v.888a6.656,6.656,0,0,1-1.4-.044,3.217,3.217,0,0,1-1.226-.4,2.026,2.026,0,0,1-.826-.959,3.821,3.821,0,0,1-.266-1.777v-9.328h-2.39v-.888h2.39v-4.14h.933v4.14h2.816Z" transform="translate(-48.187 -28.92)" fill="#1664ff"/>
      <path id="Path_1165" data-name="Path 1165" d="M326.691,136.257h.089a3.971,3.971,0,0,1,1.777-2.23,5.472,5.472,0,0,1,3.136-.817v.986a4.051,4.051,0,0,0-1.7.133,4.647,4.647,0,0,0-1.866,1.164,4.788,4.788,0,0,0-1.031,1.528,7.552,7.552,0,0,0-.426,2.319v7.285h-.933V133.3h.933Z" transform="translate(-50.737 -29.432)" fill="#1664ff"/>
      <path id="Path_1166" data-name="Path 1166" d="M357.014,144.114a3.241,3.241,0,0,0,.124,1.093.657.657,0,0,0,.729.524,4.393,4.393,0,0,0,.711-.08v.835a3.04,3.04,0,0,1-.782.1c-.729,0-1.19-.2-1.386-.6a2.185,2.185,0,0,1-.329-1.35v-.693h-.053a4.442,4.442,0,0,1-1.688,2.043,5.455,5.455,0,0,1-3.136.888,5.18,5.18,0,0,1-3.083-.888,3.3,3.3,0,0,1-1.253-2.9,3.811,3.811,0,0,1,.444-1.955A3.127,3.127,0,0,1,348.459,140a4.692,4.692,0,0,1,1.564-.622l.826-.187a6.111,6.111,0,0,1,.791-.053,9.8,9.8,0,0,0,3.856-.693,1.271,1.271,0,0,0,.533-.8,8.158,8.158,0,0,0,.071-1.279,2.772,2.772,0,0,0-.115-.693,2.666,2.666,0,0,0-.56-.888,3.554,3.554,0,0,0-1.084-.773,4.957,4.957,0,0,0-1.848-.284c-2.425,0-3.749,1.2-3.98,3.554h-.933c.178-2.941,1.821-4.442,4.913-4.442a6.3,6.3,0,0,1,3.109.693,2.941,2.941,0,0,1,1.413,2.781Zm-.933-5.1a1.777,1.777,0,0,1-.782.471,5.25,5.25,0,0,1-1.146.249c-.888.107-1.821.213-2.781.311q-3.554.24-3.554,3.1a2.665,2.665,0,0,0,.888,2.034,3.554,3.554,0,0,0,2.532.888,4.629,4.629,0,0,0,2.665-.649,3.829,3.829,0,0,0,1.475-1.377,5.258,5.258,0,0,0,.631-1.537,7.545,7.545,0,0,0,.124-.968Z" transform="translate(-53.092 -29.391)" fill="#1664ff"/>
      <path id="Path_1167" data-name="Path 1167" d="M385.569,137.434a3.554,3.554,0,0,0-1.35-2.665,5.046,5.046,0,0,0-3.03-.888,4.336,4.336,0,0,0-3.669,1.777,6.69,6.69,0,0,0-1.315,4.131,7.472,7.472,0,0,0,1.262,4.442,4.309,4.309,0,0,0,3.731,1.777,4.362,4.362,0,0,0,3.047-1.164,4.753,4.753,0,0,0,1.448-2.967h.933a5.615,5.615,0,0,1-1.777,3.678,5.481,5.481,0,0,1-3.643,1.333,5.188,5.188,0,0,1-4.522-2.177,8.627,8.627,0,0,1-1.395-4.94,7.56,7.56,0,0,1,1.519-4.815,5.33,5.33,0,0,1,4.4-2.026A5.988,5.988,0,0,1,384.822,134a4.442,4.442,0,0,1,1.7,3.376Z" transform="translate(-56.264 -29.401)" fill="#1664ff"/>
      <path id="Path_1168" data-name="Path 1168" d="M406.4,147.975V145.31h1.262v2.665Z" transform="translate(-59.736 -30.783)" fill="#1664ff"/>
      <path id="Path_1169" data-name="Path 1169" d="M436.283,137.44a3.554,3.554,0,0,0-1.35-2.665,5.046,5.046,0,0,0-3.03-.888,4.335,4.335,0,0,0-3.669,1.848,6.69,6.69,0,0,0-1.315,4.131,7.472,7.472,0,0,0,1.262,4.442,4.309,4.309,0,0,0,3.731,1.777,4.362,4.362,0,0,0,3.047-1.164,4.753,4.753,0,0,0,1.448-2.985h.888a5.615,5.615,0,0,1-1.777,3.678,5.482,5.482,0,0,1-3.643,1.333,5.189,5.189,0,0,1-4.522-2.177,8.626,8.626,0,0,1-1.395-4.94,7.561,7.561,0,0,1,1.519-4.815,5.331,5.331,0,0,1,4.4-2.026,5.988,5.988,0,0,1,3.616,1.066,4.442,4.442,0,0,1,1.7,3.376Z" transform="translate(-61.918 -29.408)" fill="#1664ff"/>
      <path id="Path_1170" data-name="Path 1170" d="M454.839,139.943a7.782,7.782,0,0,1,1.546-4.931,5.713,5.713,0,0,1,8.769,0,8.662,8.662,0,0,1,0,9.826,5.659,5.659,0,0,1-8.769,0A7.748,7.748,0,0,1,454.839,139.943Zm.933,0a6.948,6.948,0,0,0,1.315,4.229,4.282,4.282,0,0,0,3.678,1.883,4.336,4.336,0,0,0,3.731-1.883,7.108,7.108,0,0,0,1.253-4.229,7.223,7.223,0,0,0-1.253-4.273,4.389,4.389,0,0,0-3.731-1.848,4.336,4.336,0,0,0-3.678,1.848A7.019,7.019,0,0,0,455.772,139.943Z" transform="translate(-65.14 -29.405)" fill="#1664ff"/>
      <path id="Path_1171" data-name="Path 1171" d="M484.66,133.253h.942v2.665h0a3.669,3.669,0,0,1,1.5-2.141,4.558,4.558,0,0,1,2.665-.888,5.615,5.615,0,0,1,1.679.222,3.911,3.911,0,0,1,1.208.649,3.412,3.412,0,0,1,1.137,1.955h.053a4.193,4.193,0,0,1,4.238-2.825,4.255,4.255,0,0,1,3,1.057,4.744,4.744,0,0,1,1.173,3.474v9.106h-.942v-9.1a4.817,4.817,0,0,0-.373-2.052,2.452,2.452,0,0,0-.942-1.057,2.665,2.665,0,0,0-1.048-.453,4.949,4.949,0,0,0-.888-.089,3.945,3.945,0,0,0-3.012,1.253,5.028,5.028,0,0,0-1.2,3.643v7.88h-.933v-9.124a4.63,4.63,0,0,0-.373-2.026,2.879,2.879,0,0,0-1.812-1.528,5.063,5.063,0,0,0-.888-.089,4.238,4.238,0,0,0-2.825,1.146,4.815,4.815,0,0,0-1.422,3.749v7.88h-.942Z" transform="translate(-68.468 -29.396)" fill="#1664ff"/>
    </g>
  </g>
</svg>
