<svg id="Group_915" data-name="Group 915" xmlns="http://www.w3.org/2000/svg" width="100%"  viewBox="0 0 845.503 138.716">
 <defs><style>
        @import url('https://fonts.googleapis.com/css2?family=Roboto+Condensed:wght@300;400&amp;display=swap');
        </style></defs>

    <text style="text-align: center;font-weight:400; font-family:Roboto Condensed" id="Skilled_Categories_of_total_migrant_workers_in_percentage" data-name="Skilled Categories of total migrant
workers in percentage" transform="translate(175.503 81.303)" fill="#0054a5" font-size="40" ><tspan x="0" y="0">SKILLED CATEGORIES OF TOTAL MIGRANT</tspan><tspan x="0" y="45">WORKERS IN PERCENTAGE</tspan></text>
    <g id="Isolation_Mode">
    <g id="Group_746" data-name="Group 746" transform="translate(0 0)">
        <g id="Group_745" data-name="Group 745">
        <path id="Path_3897" data-name="Path 3897" d="M142.951,77.566a30.315,30.315,0,0,0,1.109,4.8,25,25,0,0,1,.862,8.5,9.315,9.315,0,0,0,3.326,8.624,38.762,38.762,0,0,1,4.435,4.558c2.957,3.2,1.478,5.79-1.355,7.884a8.172,8.172,0,0,1-2.341,1.109,8.492,8.492,0,0,0-2.833,2.71,1.106,1.106,0,0,0,0,1.355,22.972,22.972,0,0,0,1.232,2.464c.739,1.478.616,2.217-.616,3.08a1.294,1.294,0,0,0-.616,1.725,2.985,2.985,0,0,1-1.232,3.449,1.777,1.777,0,0,0-.739,2.217,15.672,15.672,0,0,1-.246,6.776c-1.109,4.189-4.189,6.406-9.24,6.9-2.587.246-5.174.37-7.761.493-3.449.246-5.051,1.725-5.3,5.3v2.464a2.287,2.287,0,0,1-2.587,2.587H75.564a2.239,2.239,0,0,1-2.217-3.326c1.478-3.819,3.2-7.515,4.681-11.334a25.744,25.744,0,0,0,1.848-12.935,17.532,17.532,0,0,0-1.971-5.544c-2.341-4.8-4.928-9.486-7.515-14.167a43.289,43.289,0,0,1-5.79-20.82c3.2,2.464,6.16,3.449,8.87-.739a6.929,6.929,0,0,0,1.355,4.312,5.341,5.341,0,0,0,3.942,1.355c2.957,0,4.065-1.109,4.928-4.928.246,0,.37.246.493.37,2.464,3.2,6.283,3.2,8.747-.123a3.93,3.93,0,0,0,.493-3.7c-.123-.493-.616-.862-.37-1.478h0c.246.123.37.123.616.246a5.138,5.138,0,0,0,7.515-4.435,3.545,3.545,0,0,0-1.232-3.08c-.37-.37-.862-.739-1.478-1.232,1.6-.246,3.08-.37,4.189-1.355,1.232-1.109,1.355-2.464,1.355-3.942,0-2.957-1.109-3.942-5.174-4.8,1.725-1.109,3.326-2.341,3.08-4.558-.123-1.971-1.232-3.573-3.2-4.928A71.054,71.054,0,0,1,108.7,52.8a19.965,19.965,0,0,1,11.7,3.942c2.341,1.725,4.928,1.971,7.515,2.464a32.769,32.769,0,0,1,15.153,6.529A12.341,12.341,0,0,1,148,73.994c.246,1.725-.616,2.833-1.848,3.819-1.232.739-2.217.246-3.2-.246a.121.121,0,0,1-.123-.123v.123Z" transform="translate(-20.378 -15.846)" fill="#2460a8"/>
        <path id="Path_3898" data-name="Path 3898" d="M62.889,74.8c.739-.37,1.848-.616,1.6-1.725-.616-2.71,0-2.71-2.094-2.957a6.184,6.184,0,0,0-1.478-.246c-2.094-.493-2.587-1.109-1.971-3.326a1.1,1.1,0,0,1,1.232-.862,18.381,18.381,0,0,1,2.587-.246c.493-.123,1.232.123,1.478-.37a19.041,19.041,0,0,0,.862-2.833c.123-.37-.37-.493-.493-.739C64,61,63.5,60.5,62.889,60.012c-1.478-1.355-1.478-1.355-.37-3.08a1.6,1.6,0,0,1,2.341-.739,4.376,4.376,0,0,0,1.109.493c2.464.986,2.464.986,4.312-.986.37-.37.246-.739.123-1.109-.37-1.109-.739-2.094-1.109-3.2a1.037,1.037,0,0,1,.616-1.478c.493-.246.986-.493,1.6-.739a1.125,1.125,0,0,1,1.355.246A11.559,11.559,0,0,1,73.976,50.9c.862,1.478,1.971,2.094,3.7,1.478.739-.246,1.109-.493,1.232-1.232.123-.862.37-1.725.493-2.464.123-1.232.739-1.478,1.848-1.478,1.971.123,1.971,0,2.341,2.094,0,.37.123.616.123.986-.123,1.6.493,2.464,2.217,2.833a1.879,1.879,0,0,0,2.217-.616c.37-.493.986-.986,1.355-1.478.739-1.109,1.478-1.232,2.71-.37,1.6,1.109,1.6.986.862,2.71-.123.246-.246.616-.37.862-.986,2.094-.739,2.833,1.109,4.312.37.246.616.123.986,0,1.109-.37,2.094-.616,3.2-.986a1.184,1.184,0,0,1,1.6.739c1.109,2.094,1.232,2.094-.739,3.573-.246.123-.37.37-.616.493-1.6,1.232-1.848,2.094-1.109,3.942.246.493.616.493.986.616a25.232,25.232,0,0,0,2.957.616c1.109.123,1.478.616,1.355,1.725-.123.986.246,2.341-1.6,2.341-.862,0-1.6.246-2.464.246-.986,0-1.355.493-1.725,1.355-.739,1.6-.246,2.587,1.109,3.449.246.123.37.37.616.493,1.6,1.355,1.6,2.464,0,3.942a1.349,1.349,0,0,1-1.355.123A19.657,19.657,0,0,1,94.18,79.97a1.1,1.1,0,0,0-1.6.37,2.878,2.878,0,0,1-.862.862,1.207,1.207,0,0,0-.493,1.848c.246.616.37,1.232.616,1.848.616,1.971,0,2.957-1.971,3.326a.994.994,0,0,1-1.109-.37c-.37-.493-.739-.862-1.109-1.355-1.6-2.094-1.6-2.094-4.189-1.478-.616.123-.739.616-.862,1.109-.246.986-.37,1.971-.616,3.08a1.132,1.132,0,0,1-1.232,1.109H79.4c-.986.123-1.478-.37-1.478-1.355a6.184,6.184,0,0,0-.246-1.478c-.246-2.464-.616-2.833-3.08-3.2-.616-.123-.862.246-1.109.493-.616.739-1.355,1.478-1.971,2.217a1.222,1.222,0,0,1-1.971.246,4.322,4.322,0,0,0-.986-.616,1.087,1.087,0,0,1-.493-1.6,19.658,19.658,0,0,1,1.232-2.833,1.28,1.28,0,0,0-.246-1.6c-1.109-1.6-2.341-1.848-3.942-.862a4.693,4.693,0,0,1-1.232.37,1.457,1.457,0,0,1-2.094-.862c-.986-1.848-.986-1.848.739-3.2,0-.739.37-.862.37-1.232Zm28.951-6.406A11.278,11.278,0,0,0,80.505,57.179c-6.16,0-11.457,5.174-11.334,11.211A11.466,11.466,0,0,0,80.629,79.6,11.252,11.252,0,0,0,91.839,68.389Z" transform="translate(-21.333 -16.703)" fill="#838d93"/>
        <path id="Path_3899" data-name="Path 3899" d="M68.019,73.033c-1.355-.246-2.71.246-4.065.246-.493,0-.493.37-.739.739-1.232,1.848-1.355,3.573.37,5.174.616.616,1.109,1.478,0,2.217-.862.616-1.6,2.094-2.957.616,0-.123-.123-.123-.246-.123-1.478-1.971-3.326-1.478-5.174-.616a1.656,1.656,0,0,0-.739.862c-.123.739-.37,1.355-.493,2.094-.123,1.355-.739,1.848-2.094,1.725s-2.217-.246-2.094-1.848V84c-.493-3.08-.493-2.957-3.326-4.065a1.309,1.309,0,0,0-.986.123A17.253,17.253,0,0,0,43.5,81.287c-1.109.862-1.848.739-2.71-.37-1.232-1.355-1.232-1.355-.123-2.833a4.25,4.25,0,0,1,.986-1.109c.616-.616.493-1.232.37-2.217-.37-2.341-1.971-2.71-3.819-2.833-1.355-.123-1.725-.739-1.6-2.094.123-1.232.123-2.217,1.725-2.094.123,0,.37-.123.493-.123,2.464.493,3.08-1.478,3.942-3.2.246-.37,0-.739-.123-.986-.37-.493-.616-.986-.986-1.478-1.355-1.971-1.232-1.971.493-3.449.739-.616,1.232-.739,1.971-.123.246.246.493.246.616.493,1.6,2.094,3.449,1.109,5.3.493.37-.123.37-.37.493-.739.123-.862.37-1.725.493-2.464.123-.986.493-1.355,1.6-1.355,2.464.123,2.464,0,2.71,2.587.123.739-.123,1.725.493,2.217a17.888,17.888,0,0,0,3.08,1.478c.123.123.493-.123.739-.246.493-.37,1.109-.616,1.6-.986,1.725-1.109,2.833-.862,3.819.986a.745.745,0,0,1,0,.986c-.246.246-.37.616-.616.862-1.971,1.478-1.478,3.326-.616,5.174a.781.781,0,0,0,.739.616,1.781,1.781,0,0,1,.862.246c3.2.616,3.449.986,2.587,4.312ZM52.5,77.1a6.756,6.756,0,0,0,6.776-6.776A6.627,6.627,0,0,0,52.5,63.793a6.759,6.759,0,0,0-6.9,6.652A6.838,6.838,0,0,0,52.5,77.1Z" transform="translate(-36.582 -13.847)" fill="#838d93"/>
        <path id="Path_3900" data-name="Path 3900" d="M80.491,33.732c-.123.246-.123.493-.37.616-.246.37-.616.739-.862,1.109a3.918,3.918,0,0,0-.246,5.051.738.738,0,0,0,.739.37c.739.123,1.6.37,2.341.493,1.232.123,1.6.739,1.478,1.848-.123,1.971,0,1.971-2.094,2.217-.123,0-.123.123-.246,0-2.587-.493-2.957,1.725-3.819,3.2-.246.37,0,.616.123.862.37.493.739,1.109,1.109,1.6,1.232,1.848,1.232,1.848-.493,3.326-.739.616-1.355.739-2.094,0-.123-.123-.246-.123-.37-.246-2.464-1.848-2.464-1.848-5.3-.616a.781.781,0,0,0-.616.739l-.37,1.848c-.493,2.094-.493,1.971-2.464,1.971-1.109,0-1.848-.37-1.725-1.6,0-.123-.123-.37-.123-.493.37-2.587-1.6-3.08-3.326-3.942-.37-.246-.739,0-.986.123-.616.37-1.109.739-1.725,1.109-1.725,1.109-1.6.986-2.957-.37-.986-.862-1.109-1.725-.123-2.587l.37-.37c1.478-1.848,1.6-2.957.37-5.051-.246-.37-.493-.37-.739-.493l-1.848-.37c-2.094-.493-2.587-1.109-2.094-3.2.123-.493.37-.862.862-.862h.616c3.08-.37,3.08-.37,4.435-3.08a1.114,1.114,0,0,0,0-1.232,18.022,18.022,0,0,1-1.109-1.6c-1.109-1.725-1.109-1.725.37-3.2a1.568,1.568,0,0,1,2.464-.123c.123.123.123.123.246.123,2.464,1.848,2.587,1.848,5.3.616a.676.676,0,0,0,.493-.739l.37-1.848c.493-2.094,1.232-2.587,3.326-2.094.37.123.739.37.739.739s.123.616.123.986A3.385,3.385,0,0,0,73.1,32.5c.739.246,1.232.37,1.848-.123.493-.37.986-.616,1.478-.986,1.478-.986,2.957-.493,3.7,1.232C80.368,33.486,80.368,33.609,80.491,33.732ZM67.925,49.624A6.756,6.756,0,0,0,74.7,42.848a6.582,6.582,0,0,0-6.9-6.529,6.655,6.655,0,1,0,.123,13.3Z" transform="translate(-26.959 -26.657)" fill="#139ad6"/>
        </g>
    </g>
    </g>
</svg>