<svg xmlns="http://www.w3.org/2000/svg"  viewBox="0 0 809.269 118.701">
  <g id="Group_1068" data-name="Group 1068" transform="translate(-571.4 -1720.8)">
    <path id="Path_4719" data-name="Path 4719" d="M15.292-6.97A4.556,4.556,0,0,0,14.206-10.1a9.509,9.509,0,0,0-3.828-2.238,15.713,15.713,0,0,1-6-3.142A6.619,6.619,0,0,1,2.285-20.6,7.006,7.006,0,0,1,4.6-26a8.431,8.431,0,0,1,5.932-2.123,8.265,8.265,0,0,1,6.17,2.361,7.847,7.847,0,0,1,2.247,5.922l-.038.114H15.2A5.83,5.83,0,0,0,13.9-23.67a4.279,4.279,0,0,0-3.409-1.5A4.013,4.013,0,0,0,7.3-23.88,4.739,4.739,0,0,0,6.17-20.643a4.018,4.018,0,0,0,1.2,2.99,11.568,11.568,0,0,0,4.037,2.228,14.2,14.2,0,0,1,5.77,3.237,7.045,7.045,0,0,1,1.98,5.18,6.762,6.762,0,0,1-2.333,5.4A9.052,9.052,0,0,1,10.7.4a9.854,9.854,0,0,1-6.36-2.171A7.284,7.284,0,0,1,1.733-8l.038-.114H5.5A5.479,5.479,0,0,0,7-3.9a5.232,5.232,0,0,0,3.7,1.39,4.576,4.576,0,0,0,3.371-1.209A4.368,4.368,0,0,0,15.292-6.97Zm13.958-5.5h-1.9V0H23.48V-27.727h3.866v12.149h1.638l7.731-12.149H41.4L32.259-14.7,42.1,0H37.191ZM49.207,0H45.341V-27.727h3.866Zm9.521-2.933H69.945V0H54.863V-27.727h3.866Zm18.8,0H88.74V0H73.658V-27.727h3.866Zm28.2-9.94H96.319v9.94H107.4V0H92.454V-27.727h14.854v2.971H96.319v8.931h9.407ZM111.287,0V-27.727h7.865a9.211,9.211,0,0,1,7.341,3.333,12.73,12.73,0,0,1,2.847,8.569v3.942a12.684,12.684,0,0,1-2.847,8.569A9.233,9.233,0,0,1,119.152,0Zm3.866-24.756V-2.933h4a5.288,5.288,0,0,0,4.57-2.5,11.181,11.181,0,0,0,1.714-6.446v-3.98a11.073,11.073,0,0,0-1.714-6.389,5.288,5.288,0,0,0-4.57-2.5ZM159.885-8.341l.038.114a8.175,8.175,0,0,1-2.285,6.36A8.99,8.99,0,0,1,151.144.4a8.822,8.822,0,0,1-6.8-2.733Q141.813-5.065,141.813-10v-7.693q0-4.913,2.495-7.674a8.588,8.588,0,0,1,6.7-2.761,9.4,9.4,0,0,1,6.627,2.2q2.38,2.2,2.3,6.427l-.038.114H156.19a6.276,6.276,0,0,0-1.295-4.37,5.039,5.039,0,0,0-3.885-1.4,4.584,4.584,0,0,0-3.942,1.914,9.252,9.252,0,0,0-1.39,5.494V-10a9.184,9.184,0,0,0,1.428,5.542,4.733,4.733,0,0,0,4.037,1.923,4.847,4.847,0,0,0,3.771-1.381,6.461,6.461,0,0,0,1.257-4.427Zm16.491,1.333h-8.284l-2,7.008h-4.018L170.4-27.727h3.751L182.394,0h-4.018Zm-7.408-3.066h6.551l-3.2-11.273h-.114ZM199.7-24.756h-7.351V0h-3.885V-24.756h-7.293v-2.971H199.7ZM216.29-12.873h-9.407v9.94h11.083V0H203.017V-27.727h14.854v2.971H206.883v8.931h9.407Zm23.251,9.255a8.56,8.56,0,0,1-3.152,2.8A11.261,11.261,0,0,1,230.82.4a9.48,9.48,0,0,1-7-2.647q-2.656-2.647-2.656-7.541v-8.227q0-4.818,2.571-7.465a9.094,9.094,0,0,1,6.836-2.647,9.061,9.061,0,0,1,6.494,2.171,7.578,7.578,0,0,1,2.209,5.941l-.038.114H235.6a5.523,5.523,0,0,0-1.266-3.875,4.75,4.75,0,0,0-3.685-1.381,5.025,5.025,0,0,0-4.1,1.819,8.142,8.142,0,0,0-1.495,5.284v8.265a8.221,8.221,0,0,0,1.552,5.4,5.208,5.208,0,0,0,4.218,1.857,6.821,6.821,0,0,0,3.133-.609,4.18,4.18,0,0,0,1.7-1.485v-6.456h-5.1V-13.9h8.988Zm23.785-6.417q0,4.932-2.666,7.684A9.484,9.484,0,0,1,253.519.4a9.224,9.224,0,0,1-7.027-2.752q-2.609-2.752-2.609-7.684v-7.617q0-4.913,2.609-7.693a9.151,9.151,0,0,1,7.008-2.78,9.481,9.481,0,0,1,7.151,2.771q2.676,2.771,2.676,7.7Zm-3.847-7.674a8.435,8.435,0,0,0-1.552-5.494A5.422,5.422,0,0,0,253.5-25.08a5.148,5.148,0,0,0-4.275,1.876,8.666,8.666,0,0,0-1.495,5.494v7.674a8.738,8.738,0,0,0,1.5,5.542,5.164,5.164,0,0,0,4.285,1.885,5.394,5.394,0,0,0,4.418-1.876,8.575,8.575,0,0,0,1.542-5.551Zm12.226,5.77V0h-3.866V-27.708h8.169a8.71,8.71,0,0,1,6.179,2.038,7.611,7.611,0,0,1,2.18,5.846,7.012,7.012,0,0,1-1.019,3.8,6.715,6.715,0,0,1-2.923,2.523,5.306,5.306,0,0,1,3.075,2.4,8.366,8.366,0,0,1,.943,4.151v2.418a10.872,10.872,0,0,0,.248,2.38,3.337,3.337,0,0,0,.876,1.714V0h-3.98a3.3,3.3,0,0,1-.847-1.914,17.263,17.263,0,0,1-.2-2.656V-6.913a5.744,5.744,0,0,0-1.076-3.675,3.6,3.6,0,0,0-2.98-1.352Zm0-2.952h4.113a4.541,4.541,0,0,0,3.542-1.266,5.175,5.175,0,0,0,1.143-3.59,5.546,5.546,0,0,0-1.114-3.694,4.185,4.185,0,0,0-3.38-1.314h-4.3ZM293.738,0h-3.866V-27.727h3.866Zm18.929-12.873h-9.407v9.94h11.083V0H299.394V-27.727h14.854v2.971H303.259v8.931h9.407Zm18.205,5.9a4.556,4.556,0,0,0-1.085-3.133,9.509,9.509,0,0,0-3.828-2.238,15.713,15.713,0,0,1-6-3.142,6.619,6.619,0,0,1-2.095-5.123,7.006,7.006,0,0,1,2.314-5.4,8.431,8.431,0,0,1,5.932-2.123,8.265,8.265,0,0,1,6.17,2.361,7.847,7.847,0,0,1,2.247,5.922l-.038.114h-3.713a5.83,5.83,0,0,0-1.295-3.942,4.279,4.279,0,0,0-3.409-1.5,4.013,4.013,0,0,0-3.19,1.295,4.739,4.739,0,0,0-1.133,3.237,4.018,4.018,0,0,0,1.2,2.99,11.568,11.568,0,0,0,4.037,2.228,14.2,14.2,0,0,1,5.77,3.237,7.045,7.045,0,0,1,1.98,5.18,6.762,6.762,0,0,1-2.333,5.4A9.052,9.052,0,0,1,326.282.4a9.854,9.854,0,0,1-6.36-2.171A7.284,7.284,0,0,1,317.313-8l.038-.114h3.732A5.479,5.479,0,0,0,322.578-3.9a5.232,5.232,0,0,0,3.7,1.39,4.576,4.576,0,0,0,3.371-1.209A4.368,4.368,0,0,0,330.872-6.97Zm35.42-3.066q0,4.932-2.666,7.684A9.484,9.484,0,0,1,356.484.4a9.224,9.224,0,0,1-7.027-2.752q-2.609-2.752-2.609-7.684v-7.617q0-4.913,2.609-7.693a9.151,9.151,0,0,1,7.008-2.78,9.481,9.481,0,0,1,7.151,2.771q2.676,2.771,2.676,7.7Zm-3.847-7.674a8.435,8.435,0,0,0-1.552-5.494,5.422,5.422,0,0,0-4.427-1.876A5.148,5.148,0,0,0,352.19-23.2,8.666,8.666,0,0,0,350.7-17.71v7.674a8.738,8.738,0,0,0,1.5,5.542,5.164,5.164,0,0,0,4.285,1.885A5.394,5.394,0,0,0,360.9-4.485a8.575,8.575,0,0,0,1.542-5.551Zm21.938,5.389h-9.693V0h-3.866V-27.727h15.234v2.971H374.689v9.483h9.693Zm30.412-12.435h-7.351V0h-3.885V-24.756h-7.293v-2.971h18.529Zm21.442,14.72q0,4.932-2.666,7.684A9.484,9.484,0,0,1,426.429.4,9.224,9.224,0,0,1,419.4-2.352q-2.609-2.752-2.609-7.684v-7.617q0-4.913,2.609-7.693a9.151,9.151,0,0,1,7.008-2.78,9.481,9.481,0,0,1,7.151,2.771q2.676,2.771,2.676,7.7ZM432.39-17.71a8.435,8.435,0,0,0-1.552-5.494,5.422,5.422,0,0,0-4.427-1.876,5.148,5.148,0,0,0-4.275,1.876,8.666,8.666,0,0,0-1.495,5.494v7.674a8.738,8.738,0,0,0,1.5,5.542,5.164,5.164,0,0,0,4.285,1.885,5.394,5.394,0,0,0,4.418-1.876,8.575,8.575,0,0,0,1.542-5.551Zm24.451-7.046H449.49V0h-3.885V-24.756h-7.293v-2.971h18.529ZM470.914-7.008H462.63L460.63,0h-4.018l8.322-27.727h3.751L476.931,0h-4.018Zm-7.408-3.066h6.551l-3.2-11.273h-.114Zm20.471,7.141h11.216V0H480.111V-27.727h3.866ZM519.035-5.1h.114L525.8-27.727h4.951V0H526.9V-19.976L526.786-20l-6.36,20h-2.647l-6.456-20.3-.114.019V0h-3.847V-27.727h5.046Zm21.1,5.1h-3.866V-27.727h3.866Zm23.347-3.618a8.56,8.56,0,0,1-3.152,2.8A11.261,11.261,0,0,1,554.76.4a9.48,9.48,0,0,1-7-2.647Q545.1-4.894,545.1-9.788v-8.227q0-4.818,2.571-7.465a9.094,9.094,0,0,1,6.836-2.647,9.061,9.061,0,0,1,6.494,2.171,7.578,7.578,0,0,1,2.209,5.941l-.038.114H559.54a5.523,5.523,0,0,0-1.266-3.875,4.75,4.75,0,0,0-3.685-1.381,5.025,5.025,0,0,0-4.1,1.819,8.142,8.142,0,0,0-1.495,5.284v8.265a8.221,8.221,0,0,0,1.552,5.4,5.208,5.208,0,0,0,4.218,1.857,6.821,6.821,0,0,0,3.133-.609,4.18,4.18,0,0,0,1.7-1.485v-6.456h-5.1V-13.9h8.988Zm8.969-8.322V0h-3.866V-27.708h8.169a8.71,8.71,0,0,1,6.179,2.038,7.611,7.611,0,0,1,2.18,5.846,7.012,7.012,0,0,1-1.019,3.8,6.715,6.715,0,0,1-2.923,2.523,5.306,5.306,0,0,1,3.075,2.4,8.366,8.366,0,0,1,.943,4.151v2.418a10.872,10.872,0,0,0,.248,2.38,3.337,3.337,0,0,0,.876,1.714V0h-3.98a3.3,3.3,0,0,1-.847-1.914,17.263,17.263,0,0,1-.2-2.656V-6.913a5.744,5.744,0,0,0-1.076-3.675,3.6,3.6,0,0,0-2.98-1.352Zm0-2.952h4.113a4.541,4.541,0,0,0,3.542-1.266,5.175,5.175,0,0,0,1.143-3.59,5.546,5.546,0,0,0-1.114-3.694,4.185,4.185,0,0,0-3.38-1.314h-4.3Zm30.088,7.884h-8.284l-2,7.008h-4.018l8.322-27.727h3.751L608.556,0h-4.018Zm-7.408-3.066h6.551l-3.2-11.273h-.114ZM630.341,0h-3.885l-10.74-20.452-.114.038V0h-3.866V-27.727H615.6l10.74,20.4.114-.019V-27.727h3.885Zm21.328-24.756h-7.351V0h-3.885V-24.756h-7.293v-2.971h18.529ZM21.157,35.983h.114l3.6-19.709h4.056L23.232,44H19.671L14.834,24.329H14.72L9.864,44H6.3L.609,16.273H4.685L8.3,35.945h.114l4.666-19.671h3.371Zm29.726-2.019q0,4.932-2.666,7.684A9.484,9.484,0,0,1,41.076,44.4a9.224,9.224,0,0,1-7.027-2.752Q31.44,38.9,31.44,33.964V26.347q0-4.913,2.609-7.693a9.151,9.151,0,0,1,7.008-2.78,9.481,9.481,0,0,1,7.151,2.771q2.676,2.771,2.676,7.7ZM47.036,26.29A8.435,8.435,0,0,0,45.484,20.8a5.422,5.422,0,0,0-4.427-1.876A5.148,5.148,0,0,0,36.781,20.8a8.666,8.666,0,0,0-1.495,5.494v7.674a8.738,8.738,0,0,0,1.5,5.542,5.164,5.164,0,0,0,4.285,1.885,5.394,5.394,0,0,0,4.418-1.876,8.575,8.575,0,0,0,1.542-5.551Zm12.226,5.77V44H55.4V16.292h8.169a8.71,8.71,0,0,1,6.179,2.038,7.611,7.611,0,0,1,2.18,5.846,7.012,7.012,0,0,1-1.019,3.8A6.715,6.715,0,0,1,67.983,30.5a5.306,5.306,0,0,1,3.075,2.4A8.366,8.366,0,0,1,72,37.049v2.418a10.872,10.872,0,0,0,.248,2.38,3.337,3.337,0,0,0,.876,1.714V44h-3.98a3.3,3.3,0,0,1-.847-1.914,17.263,17.263,0,0,1-.2-2.656V37.087a5.744,5.744,0,0,0-1.076-3.675,3.6,3.6,0,0,0-2.98-1.352Zm0-2.952h4.113a4.541,4.541,0,0,0,3.542-1.266,5.175,5.175,0,0,0,1.143-3.59,5.546,5.546,0,0,0-1.114-3.694,4.185,4.185,0,0,0-3.38-1.314h-4.3Zm23.594,2.418h-1.9V44H77.086V16.273h3.866V28.423h1.638l7.731-12.149h4.685L85.865,29.3,95.71,44H90.8Zm29.021-.4H102.47v9.94h11.083V44H98.6V16.273h14.854v2.971H102.47v8.931h9.407Zm9.407.933V44h-3.866V16.292h8.169a8.71,8.71,0,0,1,6.179,2.038,7.611,7.611,0,0,1,2.18,5.846,7.012,7.012,0,0,1-1.019,3.8,6.715,6.715,0,0,1-2.923,2.523,5.306,5.306,0,0,1,3.075,2.4,8.366,8.366,0,0,1,.943,4.151v2.418a10.872,10.872,0,0,0,.248,2.38,3.337,3.337,0,0,0,.876,1.714V44h-3.98a3.3,3.3,0,0,1-.847-1.914,17.263,17.263,0,0,1-.2-2.656V37.087a5.744,5.744,0,0,0-1.076-3.675,3.6,3.6,0,0,0-2.98-1.352Zm0-2.952H125.4a4.541,4.541,0,0,0,3.542-1.266,5.175,5.175,0,0,0,1.143-3.59,5.546,5.546,0,0,0-1.114-3.694,4.185,4.185,0,0,0-3.38-1.314h-4.3Zm30.469,7.922a4.556,4.556,0,0,0-1.085-3.133,9.509,9.509,0,0,0-3.828-2.238,15.713,15.713,0,0,1-6-3.142,6.619,6.619,0,0,1-2.095-5.123,7.006,7.006,0,0,1,2.314-5.4,8.431,8.431,0,0,1,5.932-2.123,8.265,8.265,0,0,1,6.17,2.361,7.847,7.847,0,0,1,2.247,5.922l-.038.114h-3.713a5.83,5.83,0,0,0-1.295-3.942,4.279,4.279,0,0,0-3.409-1.5,4.013,4.013,0,0,0-3.19,1.295,4.739,4.739,0,0,0-1.133,3.237,4.018,4.018,0,0,0,1.2,2.99,11.568,11.568,0,0,0,4.037,2.228,14.2,14.2,0,0,1,5.77,3.237,7.045,7.045,0,0,1,1.98,5.18,6.762,6.762,0,0,1-2.333,5.4,9.052,9.052,0,0,1-6.122,2.009,9.854,9.854,0,0,1-6.36-2.171A7.284,7.284,0,0,1,138.195,36l.038-.114h3.732A5.479,5.479,0,0,0,143.46,40.1a5.232,5.232,0,0,0,3.7,1.39,4.576,4.576,0,0,0,3.371-1.209A4.368,4.368,0,0,0,151.753,37.03ZM172.72,44h-3.866V16.273h3.866Zm24.261,0H193.1l-10.74-20.452-.114.038V44h-3.866V16.273h3.866l10.74,20.4.114-.019V16.273h3.885Zm17.729-10.931V44h-3.866V16.273h9.007a8.2,8.2,0,0,1,6.179,2.314,8.382,8.382,0,0,1,2.238,6.084,8.375,8.375,0,0,1-2.238,6.094,8.214,8.214,0,0,1-6.179,2.3Zm0-2.971h5.142a4.012,4.012,0,0,0,3.409-1.533,6.2,6.2,0,0,0,1.162-3.856,6.4,6.4,0,0,0-1.152-3.9,3.977,3.977,0,0,0-3.418-1.562h-5.142Zm30.926,1.028h-9.407v9.94h11.083V44H232.362V16.273h14.854v2.971H236.228v8.931h9.407Zm9.407.933V44h-3.866V16.292h8.169a8.71,8.71,0,0,1,6.179,2.038,7.611,7.611,0,0,1,2.18,5.846,7.012,7.012,0,0,1-1.019,3.8,6.715,6.715,0,0,1-2.923,2.523,5.306,5.306,0,0,1,3.075,2.4,8.366,8.366,0,0,1,.943,4.151v2.418a10.872,10.872,0,0,0,.248,2.38,3.337,3.337,0,0,0,.876,1.714V44h-3.98a3.3,3.3,0,0,1-.847-1.914,17.263,17.263,0,0,1-.2-2.656V37.087a5.744,5.744,0,0,0-1.076-3.675,3.6,3.6,0,0,0-2.98-1.352Zm0-2.952h4.113a4.541,4.541,0,0,0,3.542-1.266,5.175,5.175,0,0,0,1.143-3.59,5.546,5.546,0,0,0-1.114-3.694,4.185,4.185,0,0,0-3.38-1.314h-4.3Zm35.172,6.551.038.114a8.175,8.175,0,0,1-2.285,6.36,8.99,8.99,0,0,1-6.494,2.266,8.822,8.822,0,0,1-6.8-2.733q-2.533-2.733-2.533-7.665V26.309q0-4.913,2.495-7.674a8.588,8.588,0,0,1,6.7-2.761,9.4,9.4,0,0,1,6.627,2.2q2.38,2.2,2.3,6.427l-.038.114h-3.713a6.276,6.276,0,0,0-1.295-4.37,5.039,5.039,0,0,0-3.885-1.4,4.584,4.584,0,0,0-3.942,1.914,9.252,9.252,0,0,0-1.39,5.494V34a9.184,9.184,0,0,0,1.428,5.542,4.733,4.733,0,0,0,4.037,1.923,4.847,4.847,0,0,0,3.771-1.381,6.461,6.461,0,0,0,1.257-4.427Zm17.5-4.532h-9.407v9.94h11.083V44H294.442V16.273H309.3v2.971H298.308v8.931h9.407ZM331.881,44H328l-10.74-20.452-.114.038V44h-3.866V16.273h3.866l10.74,20.4.114-.019V16.273h3.885Zm21.328-24.756h-7.351V44h-3.885V19.244H334.68V16.273h18.529Zm14.073,17.748H359L357,44H352.98L361.3,16.273h3.751L373.3,44h-4.018Zm-7.408-3.066h6.551l-3.2-11.273h-.114Zm34.087,6.456a8.56,8.56,0,0,1-3.152,2.8,11.261,11.261,0,0,1-5.57,1.219,9.48,9.48,0,0,1-7-2.647q-2.656-2.647-2.656-7.541V25.985q0-4.818,2.571-7.465a10.452,10.452,0,0,1,13.33-.476,7.578,7.578,0,0,1,2.209,5.941l-.038.114h-3.637a5.523,5.523,0,0,0-1.266-3.875,4.75,4.75,0,0,0-3.685-1.381,5.025,5.025,0,0,0-4.1,1.819,8.142,8.142,0,0,0-1.495,5.284v8.265a8.221,8.221,0,0,0,1.552,5.4,5.208,5.208,0,0,0,4.218,1.857,6.821,6.821,0,0,0,3.133-.609,4.18,4.18,0,0,0,1.7-1.485V32.917h-5.1V30.1h8.988Zm18.4-9.255h-9.407v9.94h11.083V44H399.083V16.273h14.854v2.971H402.949v8.931h9.407Z" transform="translate(729 1791)" fill="#0054a5"/>
    <g id="Isolation_Mode" transform="translate(571.4 1720.8)">
      <g id="Group_746" data-name="Group 746" transform="translate(0 0)">
        <g id="Group_745" data-name="Group 745">
          <path id="Path_3897" data-name="Path 3897" d="M131.646,73.99a25.939,25.939,0,0,0,.949,4.111,21.391,21.391,0,0,1,.738,7.274,7.971,7.971,0,0,0,2.846,7.379,33.169,33.169,0,0,1,3.8,3.9c2.53,2.741,1.265,4.955-1.16,6.747a6.992,6.992,0,0,1-2,.949,7.267,7.267,0,0,0-2.425,2.319.946.946,0,0,0,0,1.16,19.654,19.654,0,0,0,1.054,2.108c.633,1.265.527,1.9-.527,2.635a1.107,1.107,0,0,0-.527,1.476A2.554,2.554,0,0,1,133.332,117a1.521,1.521,0,0,0-.633,1.9,13.41,13.41,0,0,1-.211,5.8c-.949,3.584-3.584,5.482-7.906,5.9-2.214.211-4.428.316-6.641.422-2.952.211-4.322,1.476-4.533,4.533v2.108a1.957,1.957,0,0,1-2.214,2.214H73.982a1.916,1.916,0,0,1-1.9-2.846c1.265-3.268,2.741-6.43,4.006-9.7a22.03,22.03,0,0,0,1.581-11.069,15,15,0,0,0-1.687-4.744c-2-4.111-4.217-8.117-6.43-12.123A37.043,37.043,0,0,1,64.6,81.58c2.741,2.108,5.271,2.952,7.59-.633a5.929,5.929,0,0,0,1.16,3.69,4.571,4.571,0,0,0,3.373,1.16c2.53,0,3.479-.949,4.217-4.217.211,0,.316.211.422.316,2.108,2.741,5.376,2.741,7.485-.105a3.363,3.363,0,0,0,.422-3.163c-.105-.422-.527-.738-.316-1.265h0c.211.105.316.105.527.211a4.4,4.4,0,0,0,6.43-3.8,3.033,3.033,0,0,0-1.054-2.635c-.316-.316-.738-.633-1.265-1.054,1.37-.211,2.635-.316,3.584-1.16a4.063,4.063,0,0,0,1.16-3.373c0-2.53-.949-3.373-4.428-4.111,1.476-.949,2.846-2,2.635-3.9A5.511,5.511,0,0,0,93.8,53.328a60.8,60.8,0,0,1,8.539-.527,17.084,17.084,0,0,1,10.015,3.373c2,1.476,4.217,1.687,6.43,2.108a28.04,28.04,0,0,1,12.966,5.587,10.56,10.56,0,0,1,4.217,7.063,3.372,3.372,0,0,1-1.581,3.268,2.558,2.558,0,0,1-2.741-.211.1.1,0,0,1-.105-.105v.105Z" transform="translate(-26.759 -21.176)" fill="#2460a8"/>
          <path id="Path_3898" data-name="Path 3898" d="M62.284,70.814c.632-.316,1.581-.527,1.37-1.476-.527-2.319,0-2.319-1.792-2.53A5.291,5.291,0,0,0,60.6,66.6c-1.792-.422-2.214-.949-1.687-2.846a.945.945,0,0,1,1.054-.738,15.728,15.728,0,0,1,2.214-.211c.422-.105,1.054.105,1.265-.316a16.294,16.294,0,0,0,.738-2.425c.105-.316-.316-.422-.422-.632-.527-.422-.949-.843-1.476-1.265C61.019,57,61.019,57,61.968,55.528a1.373,1.373,0,0,1,2-.633,3.745,3.745,0,0,0,.949.422c2.108.843,2.108.843,3.69-.843.316-.316.211-.632.105-.949-.316-.949-.632-1.792-.949-2.741a.887.887,0,0,1,.527-1.265c.422-.211.843-.422,1.37-.633a.962.962,0,0,1,1.16.211,9.89,9.89,0,0,1,.949,1.265,2.359,2.359,0,0,0,3.163,1.265c.633-.211.949-.422,1.054-1.054.105-.738.316-1.476.422-2.108.105-1.054.633-1.265,1.581-1.265,1.687.105,1.687,0,2,1.792,0,.316.105.527.105.843A2.021,2.021,0,0,0,82,52.26a1.608,1.608,0,0,0,1.9-.527c.316-.422.843-.843,1.16-1.265.632-.949,1.265-1.054,2.319-.316,1.37.949,1.37.843.738,2.319-.105.211-.211.527-.316.738-.843,1.792-.632,2.425.949,3.69.316.211.527.105.843,0,.949-.316,1.792-.527,2.741-.843a1.013,1.013,0,0,1,1.37.633c.949,1.792,1.054,1.792-.633,3.057-.211.105-.316.316-.527.422-1.37,1.054-1.581,1.792-.949,3.373.211.422.527.422.843.527a21.591,21.591,0,0,0,2.53.527c.949.105,1.265.527,1.16,1.476-.105.843.211,2-1.37,2-.738,0-1.37.211-2.108.211-.843,0-1.16.422-1.476,1.16a2.043,2.043,0,0,0,.949,2.952c.211.105.316.316.527.422,1.37,1.16,1.37,2.108,0,3.373a1.154,1.154,0,0,1-1.16.105,16.822,16.822,0,0,1-2.425-1.054.937.937,0,0,0-1.37.316,2.463,2.463,0,0,1-.738.738,1.033,1.033,0,0,0-.422,1.581c.211.527.316,1.054.527,1.581.527,1.687,0,2.53-1.687,2.846a.85.85,0,0,1-.949-.316c-.316-.422-.633-.738-.949-1.16-1.37-1.792-1.37-1.792-3.584-1.265-.527.105-.632.527-.738.949-.211.843-.316,1.687-.527,2.635a.969.969,0,0,1-1.054.949H76.41c-.843.105-1.265-.316-1.265-1.16a5.291,5.291,0,0,0-.211-1.265c-.211-2.108-.527-2.425-2.635-2.741-.527-.105-.738.211-.949.422-.527.633-1.16,1.265-1.687,1.9a1.046,1.046,0,0,1-1.687.211,3.7,3.7,0,0,0-.843-.527.93.93,0,0,1-.422-1.37,16.82,16.82,0,0,1,1.054-2.425,1.1,1.1,0,0,0-.211-1.37,2.187,2.187,0,0,0-3.373-.738,4.016,4.016,0,0,1-1.054.316,1.247,1.247,0,0,1-1.792-.738c-.843-1.581-.843-1.581.632-2.741,0-.633.316-.738.316-1.054Zm24.773-5.482a9.7,9.7,0,0,0-19.4,0,9.812,9.812,0,0,0,9.8,9.593A9.628,9.628,0,0,0,87.057,65.332Z" transform="translate(-26.724 -21.104)" fill="#838d93"/>
          <path id="Path_3899" data-name="Path 3899" d="M63.482,70.4c-1.16-.211-2.319.211-3.479.211-.422,0-.422.316-.633.632-1.054,1.581-1.16,3.057.316,4.428.527.527.949,1.265,0,1.9-.738.527-1.37,1.792-2.53.527,0-.105-.105-.105-.211-.105-1.265-1.687-2.846-1.265-4.428-.527a1.417,1.417,0,0,0-.633.738c-.105.633-.316,1.16-.422,1.792-.105,1.16-.633,1.581-1.792,1.476s-1.9-.211-1.792-1.581v-.105c-.422-2.635-.422-2.53-2.846-3.479a1.12,1.12,0,0,0-.843.105A14.761,14.761,0,0,0,42.5,77.465c-.949.738-1.581.632-2.319-.316-1.054-1.16-1.054-1.16-.105-2.425a3.637,3.637,0,0,1,.843-.949c.527-.527.422-1.054.316-1.9-.316-2-1.687-2.319-3.268-2.425-1.16-.105-1.476-.633-1.37-1.792.105-1.054.105-1.9,1.476-1.792.105,0,.316-.105.422-.105,2.108.422,2.635-1.265,3.373-2.741.211-.316,0-.632-.105-.843-.316-.422-.527-.843-.843-1.265-1.16-1.687-1.054-1.687.422-2.952.633-.527,1.054-.633,1.687-.105.211.211.422.211.527.422,1.37,1.792,2.952.949,4.533.422.316-.105.316-.316.422-.633.105-.738.316-1.476.422-2.108.105-.843.422-1.16,1.37-1.16,2.108.105,2.108,0,2.319,2.214.105.633-.105,1.476.422,1.9a15.307,15.307,0,0,0,2.635,1.265c.105.105.422-.105.633-.211.422-.316.949-.527,1.37-.843,1.476-.949,2.425-.738,3.268.843a.638.638,0,0,1,0,.843c-.211.211-.316.527-.527.738-1.687,1.265-1.265,2.846-.527,4.428a.668.668,0,0,0,.633.527,1.524,1.524,0,0,1,.738.211c2.741.527,2.952.843,2.214,3.69ZM50.2,73.881a5.781,5.781,0,0,0,5.8-5.8A5.671,5.671,0,0,0,50.2,62.5a5.784,5.784,0,0,0-5.9,5.693A5.852,5.852,0,0,0,50.2,73.881Z" transform="translate(-36.582 -19.757)" fill="#838d93"/>
          <path id="Path_3900" data-name="Path 3900" d="M76.359,32.711c-.105.211-.105.422-.316.527-.211.316-.527.633-.738.949a3.353,3.353,0,0,0-.211,4.322.631.631,0,0,0,.633.316c.633.105,1.37.316,2,.422,1.054.105,1.37.633,1.265,1.581-.105,1.687,0,1.687-1.792,1.9-.105,0-.105.105-.211,0-2.214-.422-2.53,1.476-3.268,2.741-.211.316,0,.527.105.738.316.422.633.949.949,1.37,1.054,1.581,1.054,1.581-.422,2.846-.632.527-1.16.633-1.792,0-.105-.105-.211-.105-.316-.211-2.108-1.581-2.108-1.581-4.533-.527a.668.668,0,0,0-.527.633L66.872,51.9c-.422,1.792-.422,1.687-2.108,1.687-.949,0-1.581-.316-1.476-1.37,0-.105-.105-.316-.105-.422.316-2.214-1.37-2.635-2.846-3.373-.316-.211-.633,0-.843.105-.527.316-.949.633-1.476.949-1.476.949-1.37.843-2.53-.316-.843-.738-.949-1.476-.105-2.214l.316-.316c1.265-1.581,1.37-2.53.316-4.322-.211-.316-.422-.316-.632-.422L53.8,41.566c-1.792-.422-2.214-.949-1.792-2.741.105-.422.316-.738.738-.738h.527c2.635-.316,2.635-.316,3.8-2.635a.953.953,0,0,0,0-1.054,15.422,15.422,0,0,1-.949-1.37c-.949-1.476-.949-1.476.316-2.741a1.342,1.342,0,0,1,2.108-.105c.105.105.105.105.211.105,2.108,1.581,2.214,1.581,4.533.527a.578.578,0,0,0,.422-.633l.316-1.581c.422-1.792,1.054-2.214,2.846-1.792.316.105.633.316.633.633s.105.527.105.843a2.9,2.9,0,0,0,2.425,3.373c.632.211,1.054.316,1.581-.105.422-.316.843-.527,1.265-.843a1.993,1.993,0,0,1,3.163,1.054C76.254,32.5,76.254,32.606,76.359,32.711ZM65.607,46.31a5.781,5.781,0,0,0,5.8-5.8,5.633,5.633,0,0,0-5.9-5.587,5.695,5.695,0,1,0,.105,11.385Z" transform="translate(-30.551 -26.657)" fill="#139ad6"/>
        </g>
      </g>
    </g>
  </g>
</svg>
