<svg xmlns="http://www.w3.org/2000/svg" width="1717.568" height="396.693" viewBox="0 0 1717.568 396.693">
  <g id="Group_851" data-name="Group 851" transform="translate(-56.744)">
    <line id="Line_10" data-name="Line 10" x2="1717.561" y2="12.611" transform="translate(56.748 197.236)" fill="none" stroke="#707070" stroke-width="1" stroke-dasharray="2 2"/>
    <g id="Layer_1" transform="translate(139.977 0)">
      <g id="Group_776" data-name="Group 776" transform="translate(0 0)">
        <path id="Path_3973" data-name="Path 3973" d="M32.7,71.173A23.911,23.911,0,0,0,65.363,37.751,22.928,22.928,0,0,0,50.551,27.5a23.7,23.7,0,0,0-17.724,3.038V21.419c0-1.139.38-1.519,1.519-1.519h35.2V33.446c0,1.266.38,1.646,1.646,1.646h13.42V86.239c0,1.393-.253,1.772-1.772,1.772H34.472c-1.393,0-1.646-.38-1.646-1.646V71.806C32.7,71.68,32.7,71.553,32.7,71.173Zm26.586,9.242h18.99a1.009,1.009,0,0,0,.886-1.139,1.084,1.084,0,0,0-.886-1.139H40.549a1.213,1.213,0,0,0-1.139,1.139,1.108,1.108,0,0,0,1.013,1.139H59.286ZM74.858,63.324H73.592a.932.932,0,0,0-1.013,1.013c0,.633.253,1.139.886,1.139h2.785c.633,0,.886-.506.886-1.139s-.38-1.013-1.139-1.013Zm-.127,9.622H76c.633,0,.886-.38,1.013-1.013,0-.633-.253-1.139-.76-1.139a11.21,11.21,0,0,0-2.912,0c-.633,0-.886.633-.886,1.139a.932.932,0,0,0,1.013,1.013Zm0-29.371H76A1.147,1.147,0,0,0,76,41.3H73.339a1.034,1.034,0,0,0-1.013,1.139,1.108,1.108,0,0,0,1.013,1.139Zm0,5.191H73.466A1.108,1.108,0,0,0,72.453,49.9a.932.932,0,0,0,1.013,1.013H76c.633,0,1.013-.38,1.013-1.139A1.108,1.108,0,0,0,76,48.638C75.618,48.638,75.238,48.765,74.732,48.765Zm0,9.5h1.393c.633,0,.886-.506,1.013-1.013,0-.506-.253-1.139-.76-1.139a11.2,11.2,0,0,0-2.912,0c-.633,0-.886.506-.76,1.139a.932.932,0,0,0,1.013,1.013Z" transform="translate(-10.908 -19.9)" fill="#1664ff"/>
        <path id="Path_3974" data-name="Path 3974" d="M68.871,48.9A21.777,21.777,0,0,1,47.349,70.545C35.2,70.671,25.7,60.923,25.7,48.389a21.592,21.592,0,0,1,43.171.506ZM47.349,29.652c-10.381,0-19.117,8.482-19.243,18.61C27.979,59.4,36.461,68.139,47.349,68.139a19.243,19.243,0,0,0,0-38.487Z" transform="translate(-12.771 -17.879)" fill="#8a8a8a"/>
        <path id="Path_3975" data-name="Path 3975" d="M31.075,58.532c.506-.506,1.013-.886,1.393-1.266l1.646,1.646A14.31,14.31,0,0,0,32.721,60.3c.506.506,1.139.886,1.646,1.393a1.3,1.3,0,0,1,0,2.152c-3.671,3.671-7.343,7.343-11.014,10.888a4.808,4.808,0,0,1-6.2-7.343c3.545-3.418,6.963-6.836,10.381-10.255.886-.886,1.266-.886,2.152,0A14.442,14.442,0,0,1,31.075,58.532Z" transform="translate(-15.487 -10.171)" fill="#8a8a8a"/>
        <path id="Path_3976" data-name="Path 3976" d="M63.6,32.574V20.8c3.925,3.8,7.976,7.723,12.027,11.647a.124.124,0,0,1-.127.127Z" transform="translate(-2.689 -19.661)" fill="#57a4ff"/>
        <path id="Path_3977" data-name="Path 3977" d="M57.85,68.179H39.113A1.034,1.034,0,0,1,38.1,67.039,1.108,1.108,0,0,1,39.113,65.9H76.84a1.009,1.009,0,0,1,.886,1.139,1.084,1.084,0,0,1-.886,1.139H57.85Z" transform="translate(-9.472 -7.664)" fill="#fff"/>
        <path id="Path_3978" data-name="Path 3978" d="M66.479,54.2h1.139a1.108,1.108,0,0,1,1.139,1.013c0,.633-.253,1.139-.886,1.139a20.448,20.448,0,0,1-2.785,0c-.633,0-.886-.506-.886-1.139A.932.932,0,0,1,65.213,54.2Z" transform="translate(-2.529 -10.776)" fill="#fff"/>
        <path id="Path_3979" data-name="Path 3979" d="M66.379,62.272H65.113A.932.932,0,0,1,64.1,61.259c0-.633.253-1.139.886-1.139a11.21,11.21,0,0,1,2.912,0,.856.856,0,0,1,.76,1.139c0,.633-.38.886-1.013,1.013Z" transform="translate(-2.556 -9.226)" fill="#fff"/>
        <path id="Path_3980" data-name="Path 3980" d="M66.352,39.079H65.213a1.147,1.147,0,0,1,0-2.279h2.659a1.034,1.034,0,0,1,1.013,1.139,1.108,1.108,0,0,1-1.013,1.139Z" transform="translate(-2.529 -15.404)" fill="#fff"/>
        <path id="Path_3981" data-name="Path 3981" d="M66.379,42.707h1.266a1.147,1.147,0,0,1,0,2.279H65.113c-.633,0-.886-.506-1.013-1.013a1.034,1.034,0,0,1,1.013-1.139,2.188,2.188,0,0,1,1.266-.127Z" transform="translate(-2.556 -13.842)" fill="#fff"/>
        <path id="Path_3982" data-name="Path 3982" d="M66.379,50.672H65.113c-.633,0-.886-.506-1.013-1.013a1.107,1.107,0,0,1,.76-1.139,11.2,11.2,0,0,1,2.912,0,.925.925,0,0,1,.76,1.139,1,1,0,0,1-1.013,1.013Z" transform="translate(-2.556 -12.312)" fill="#fff"/>
        <path id="Path_3983" data-name="Path 3983" d="M46.844,29.2a19.243,19.243,0,1,1,0,38.487c-10.888,0-19.37-8.735-19.243-19.876C27.727,37.682,36.462,29.2,46.844,29.2Zm.127,3.165A16.027,16.027,0,0,0,30.639,48.19c0,9.115,6.71,16.2,15.572,16.458A16.254,16.254,0,0,0,63.049,48.317,16.075,16.075,0,0,0,46.97,32.365Z" transform="translate(-12.265 -17.426)" fill="#fff"/>
        <path id="Path_3984" data-name="Path 3984" d="M46.332,31.7A16.02,16.02,0,0,1,62.41,47.779,16.331,16.331,0,0,1,45.572,64.11C36.71,63.857,30,56.767,30,47.652A16.052,16.052,0,0,1,46.332,31.7Zm4.431,16.711a6.772,6.772,0,0,0,2.026-4.937,6.124,6.124,0,0,0-2.279-4.937,6.652,6.652,0,0,0-8.1-.253A6.4,6.4,0,0,0,40,41.828a7.068,7.068,0,0,0,1.9,6.71c-.253.127-.38.253-.633.253a13.179,13.179,0,0,0-5.824,5.317,1.152,1.152,0,0,0,0,1.519,1.934,1.934,0,0,0,1.266.506H55.953a1.606,1.606,0,0,0,.76-.127.993.993,0,0,0,.506-1.519,35.217,35.217,0,0,0-2.659-3.418A22.31,22.31,0,0,0,50.763,48.412Z" transform="translate(-11.627 -16.761)" fill="#a8ddfd"/>
        <path id="Path_3985" data-name="Path 3985" d="M49.662,47.292a41.82,41.82,0,0,1,3.8,2.785A22.568,22.568,0,0,1,56.119,53.5c.38.633.253,1.139-.506,1.519H35.736a2.673,2.673,0,0,1-1.266-.506c-.506-.38-.38-1.013,0-1.519a13.179,13.179,0,0,1,5.824-5.317c.127-.127.38-.127.633-.253a6.984,6.984,0,0,1-1.9-6.71,6.2,6.2,0,0,1,2.405-3.545,6.652,6.652,0,0,1,8.1.253,6.124,6.124,0,0,1,2.279,4.937A6.875,6.875,0,0,1,49.662,47.292Zm-.127-4.937a4.058,4.058,0,0,0-4.178-4.178,4.35,4.35,0,0,0-4.3,4.3,3.987,3.987,0,0,0,4.178,4.178A4.192,4.192,0,0,0,49.536,42.354Zm-11.9,10.255H53.081C49.282,47.8,41.307,47.8,37.635,52.609Z" transform="translate(-10.526 -15.641)" fill="#fff"/>
        <path id="Path_3986" data-name="Path 3986" d="M48.056,41.878a4.164,4.164,0,0,1-4.178,4.3A3.921,3.921,0,0,1,39.7,42,4.269,4.269,0,0,1,44,37.7,3.957,3.957,0,0,1,48.056,41.878Z" transform="translate(-9.046 -15.165)" fill="#1664ff"/>
        <path id="Path_3987" data-name="Path 3987" d="M36.9,49.878c3.545-4.937,11.647-4.937,15.445,0Z" transform="translate(-9.791 -12.911)" fill="#57a4ff"/>
      </g>
    </g>
    <text style="text-align: center;font-weight:400; font-family:Roboto Condensed" id="We_provide_a_sample_power_of_attorney_stating_Thanex_international_as_your_agent_for_Bangladeshi_recruitment_" data-name="We provide a sample power
of attorney stating
Thanex international
as your agent for
Bangladeshi recruitment " transform="translate(241.205 84.837)" fill="#0054a5" font-size="27" font-family="RobotoCondensed-Regular, Roboto"><tspan x="0" y="0">We provide a sample power</tspan><tspan x="0" y="25">of attorney stating</tspan><tspan x="0" y="50">Thanex international</tspan><tspan x="0" y="75">as your agent for</tspan><tspan x="0" y="100">Bangladeshi recruitment </tspan></text>
    <g id="Layer_1-2" data-name="Layer_1" transform="translate(554.865 318.928)">
      <g id="Group_778" data-name="Group 778" transform="translate(0 0)">
        <path id="Path_3988" data-name="Path 3988" d="M51.577,75.838c-1.451-1.786-3.014-3.349-4.353-5.135-4.242-5.358-8.6-10.716-12.725-16.186-3.014-4.018-5.581-8.26-6.809-13.172-2.121-8.6-.335-16.3,5.47-22.995a23.338,23.338,0,0,1,15.962-8.037c8.149-.781,15.293,1.786,20.762,8.037,7.144,8.149,8.372,17.3,4.13,27.236a53.357,53.357,0,0,1-7.7,12.167c-4.8,6.028-9.6,11.944-14.511,17.972C51.8,75.615,51.8,75.615,51.577,75.838Zm0-20.651A19.981,19.981,0,1,0,31.708,35.095,19.752,19.752,0,0,0,51.577,55.187Z" transform="translate(-11.508 -10.178)" fill="#1664ff"/>
        <path id="Path_3989" data-name="Path 3989" d="M38.773,56.162H33.527a1.378,1.378,0,0,0-.893.447c-1.563,2.344-3.014,4.8-4.465,7.144a.41.41,0,0,0-.112.335H40.113A1.81,1.81,0,0,1,41.9,65.427a1.877,1.877,0,0,1-1,2.121,4.186,4.186,0,0,1-1.228.112H26.606a1.354,1.354,0,0,0-1.339.781C23.146,71.9,21.025,75.25,18.9,78.71a6.4,6.4,0,0,1-.446.781H51.387V75.585c.112-1.563,1.451-2.344,2.679-1.451a1.908,1.908,0,0,1,.781,1.451c.112,1.34,0,2.567,0,3.907H87.776l-.335-.67c-2.121-3.46-4.353-6.921-6.474-10.493a1.2,1.2,0,0,0-1.228-.67H66.568a2.208,2.208,0,0,1-1.228-.223,1.727,1.727,0,0,1-1-1.9,1.81,1.81,0,0,1,1.786-1.34H78.177a1.817,1.817,0,0,0-.335-.67C76.391,61.3,75.051,59.064,73.6,56.72c-.223-.447-.558-.558-1.116-.558H67.238c.893-1.228,1.674-2.232,2.456-3.349.112-.112.447-.112.67-.112h3.014a2.559,2.559,0,0,1,2.567,1.451c3.014,4.911,6.028,9.711,9.042,14.511L92.018,80.05c.446.67.781,1.339.112,2.009a3.205,3.205,0,0,1-1.451.893c-.112.112-.335,0-.558,0H15.444a2.25,2.25,0,0,1-2.009-.67,1.839,1.839,0,0,1,.112-2.232c3.572-5.693,7.144-11.386,10.6-17.19,1.9-3.014,3.684-5.916,5.47-8.93A2.3,2.3,0,0,1,31.741,52.7h3.237a1.134,1.134,0,0,1,1.116.558A15.858,15.858,0,0,1,38.773,56.162Z" transform="translate(-13.103 -5.236)" fill="#57a4ff"/>
        <path id="Path_3990" data-name="Path 3990" d="M50.134,27.639V21.947a.5.5,0,0,1,.335-.447.846.846,0,0,1,.446.223,6.458,6.458,0,0,0,3.125,1c.447-.112.67,0,.781.446a13.453,13.453,0,0,1,0,2.121c-.112.781-1.228,1.116-2.121.67-.446-.223-1-.446-1.674-.781v2.344h4.353c2.121,0,2.009-.335,1.9,1.9,0,.781.223,1,1,1h6.363c.67,0,.893.223.893.893V45.388c0,.446-.112.893-.67.893h-11.5V39.472c0-1.228,0-1.228-1.228-1.228H48.46c-.67,0-.893.223-.781.893v7.144c-.223,0-.558.112-.781.112H36.516c-1,0-1.116-.112-1.116-1.116V31.546c0-.781.223-1.116,1.116-1h6.363c.67,0,.893-.223.893-.893,0-2.009,0-2.009,2.121-2.009Zm10.6,10.939v-.893c.112-.781-.223-1-1-1-1.563,0-1.563,0-1.563,1.451v.781c0,1.34,0,1.34,1.228,1.34,1.116,0,1.228,0,1.228-1.228A.671.671,0,0,0,60.739,38.579Zm-20.316-.112c0,2.009.112,2.121,1.786,1.786.223,0,.558-.447.67-.67a7.473,7.473,0,0,0,0-2.232.717.717,0,0,0-.558-.558C40.088,36.681,40.423,36.569,40.423,38.467Zm23.553,0c0-1.786.223-1.786-1.116-1.786s-1.339,0-1.339,1.34v1c0,1.116,0,1.228,1.228,1.228,1.34,0,1.34,0,1.34-1.34C63.976,38.8,63.976,38.69,63.976,38.467Zm-3.237,4.688c0-2.009,0-2.009-1.786-1.9h-.112c-.223.223-.558.335-.558.558a18.03,18.03,0,0,0,0,2.456.742.742,0,0,0,.446.558c1.451.447,2.009,0,2.009-1.563Zm3.237,0V41.927a.949.949,0,0,0-.335-.558c-1.451-.447-2.121,0-2.121,1.451v1.451a.717.717,0,0,0,.558.558c1.674.335,1.9.112,1.9-1.563ZM58.283,34v1.116c0,.558.223.781.781.781,2.009,0,1.674.112,1.674-1.674v-.67c0-1.228,0-1.228-1.228-1.228s-1.228,0-1.228,1.228Zm5.693.112v-.893c.112-.67-.223-1-.893-.893-1.563,0-1.563,0-1.563,1.674v.893c0,1.116,0,1.116,1.116,1.116,1.34,0,1.34,0,1.34-1.34ZM42.99,43.044c0-2.009,0-2.009-1.786-1.786h-.112c-.223.223-.558.447-.558.67a8.246,8.246,0,0,0,0,2.344c0,.223.223.558.446.558,1.563.446,2.009,0,2.009-1.563Zm5.581-11.721c0-2.009.335-1.786-1.9-1.786a.717.717,0,0,0-.558.558,7.474,7.474,0,0,0,0,2.232c0,.223.335.558.447.67,1.563.335,2.009,0,2.009-1.563Zm3.237.112c0-2.009.335-1.786-1.786-1.9-.447,0-.781.112-.67.67v2.232a.918.918,0,0,0,.447.67c1.563.446,2.009,0,2.009-1.563C51.809,31.546,51.809,31.435,51.809,31.435Zm.893-.112c0,2.009-.335,1.9,1.786,1.786H54.6c.223-.223.558-.447.558-.67a7.473,7.473,0,0,0,0-2.232.717.717,0,0,0-.558-.558c-1.786-.335-1.9-.223-1.9,1.674ZM37.186,34.114c0,2.009-.335,1.786,1.786,1.786a.592.592,0,0,0,.67-.67V33c0-.223-.335-.558-.558-.67-1.563-.335-1.9,0-1.9,1.563C37.186,34,37.186,34,37.186,34.114Zm3.237,0c0,2.009-.335,1.786,1.786,1.786.446,0,.781-.223.67-.67V33c0-.223-.335-.67-.558-.67-1.674-.335-1.9-.112-1.9,1.563C40.423,34,40.423,34,40.423,34.114Zm8.93,1.563v.893c.112.335.223.781.447.893,1.228.558,2.121,0,2.121-1.339V35.23C51.92,34,51.92,34,50.693,34c-1.34,0-1.34,0-1.34,1.339C49.353,35.341,49.353,35.565,49.353,35.676Zm5.8.112c0-2.009,0-2.009-1.786-1.786H53.26c-.223.223-.558.447-.558.67a7.473,7.473,0,0,0,0,2.232c0,.223.335.558.447.67,1.451.335,2.009,0,2.009-1.451Q55.158,35.788,55.158,35.788ZM37.186,43.044c0,1.9,0,1.9,1.116,1.9,1.339,0,1.339,0,1.339-1.34v-1c0-1.228,0-1.228-1.228-1.228s-1.228,0-1.228,1.228C37.186,42.709,37.186,42.82,37.186,43.044Zm11.386-7.256h0V34.56A.742.742,0,0,0,48.125,34C46.674,33.555,46,34,46,35.453v1c0,1,.112,1.116,1.116,1.116,1.339,0,1.339,0,1.339-1.339A.844.844,0,0,0,48.572,35.788ZM37.186,38.467c0,1.9.112,2.009,1.786,1.786h.112c.223-.223.558-.335.558-.558a8.246,8.246,0,0,0,0-2.344c0-.223-.223-.558-.447-.558-1.563-.335-2.009,0-2.009,1.563C37.186,38.355,37.186,38.467,37.186,38.467Z" transform="translate(-10.511 -8.862)" fill="#0054a5"/>
        <path id="Path_3991" data-name="Path 3991" d="M50.963,39.3v4.13H49.4V39.3Z" transform="translate(-8.884 -6.793)"/>
        <path id="Path_3992" data-name="Path 3992" d="M47.2,39.3h1.451v4.13H47.2Z" transform="translate(-9.14 -6.793)"/>
        <path id="Path_3993" data-name="Path 3993" d="M50.963,37.5v1H49.4v-1Z" transform="translate(-8.884 -7.002)"/>
        <path id="Path_3994" data-name="Path 3994" d="M47.2,38.5v-1h1.451v1Z" transform="translate(-9.14 -7.002)"/>
        <path id="Path_3995" data-name="Path 3995" d="M58.356,36.986v.558c0,1.116,0,1.116-1.228,1.228-1.228,0-1.228,0-1.228-1.34v-.781c0-1.451,0-1.451,1.563-1.451.781,0,1,.223,1,1A1.655,1.655,0,0,0,58.356,36.986Z" transform="translate(-8.128 -7.269)" fill="#fff"/>
        <path id="Path_3996" data-name="Path 3996" d="M39.9,36.875c0-1.9-.335-1.674,1.9-1.674a.717.717,0,0,1,.558.558,7.473,7.473,0,0,1,0,2.232.829.829,0,0,1-.67.67C40.013,38.884,39.9,38.884,39.9,36.875Z" transform="translate(-9.99 -7.27)" fill="#fff"/>
        <path id="Path_3997" data-name="Path 3997" d="M61.267,36.875v.558c0,1.339,0,1.339-1.34,1.339-1.116,0-1.228,0-1.228-1.228v-1c0-1.34,0-1.34,1.34-1.34C61.491,35.2,61.267,35.089,61.267,36.875Z" transform="translate(-7.803 -7.269)" fill="#fff"/>
        <path id="Path_3998" data-name="Path 3998" d="M58.361,41.1v.223c0,1.451-.558,2.009-2.009,1.563-.223,0-.335-.335-.446-.558a18.029,18.029,0,0,1,0-2.456c0-.223.335-.335.558-.558h.112C58.361,38.98,58.361,39.092,58.361,41.1Z" transform="translate(-8.134 -6.808)" fill="#fff"/>
        <path id="Path_3999" data-name="Path 3999" d="M61.261,41.092v.223c0,1.563-.335,1.9-1.9,1.563-.223,0-.447-.335-.558-.558a6.309,6.309,0,0,1,0-1.451c0-1.451.67-1.9,2.121-1.451a.614.614,0,0,1,.335.558Z" transform="translate(-7.796 -6.798)" fill="#fff"/>
        <path id="Path_4000" data-name="Path 4000" d="M55.9,32.886v-.558c0-1.228,0-1.228,1.228-1.228s1.228,0,1.228,1.228V33c0,1.786.335,1.563-1.674,1.674-.558,0-.781-.223-.781-.781Z" transform="translate(-8.128 -7.746)" fill="#fff"/>
        <path id="Path_4001" data-name="Path 4001" d="M61.256,32.986v.558c0,1.34,0,1.34-1.34,1.34-1.116,0-1.116,0-1.116-1.116v-.893c0-1.674,0-1.563,1.563-1.674.67,0,1,.223.893.893Z" transform="translate(-7.791 -7.734)" fill="#fff"/>
        <path id="Path_4002" data-name="Path 4002" d="M42.461,40.99v.223c0,1.674-.447,2.009-2.009,1.563-.223,0-.446-.335-.446-.558a16.43,16.43,0,0,1,0-2.344c0-.223.335-.447.558-.67h.112C42.461,39.092,42.461,39.092,42.461,40.99Z" transform="translate(-9.982 -6.808)" fill="#fff"/>
        <path id="Path_4003" data-name="Path 4003" d="M47.464,30.482V30.7c0,1.563-.447,1.9-2.009,1.563-.223,0-.447-.447-.447-.67a7.474,7.474,0,0,1,0-2.232.717.717,0,0,1,.558-.558C47.688,28.7,47.353,28.472,47.464,30.482Z" transform="translate(-9.404 -8.02)" fill="#fff"/>
        <path id="Path_4004" data-name="Path 4004" d="M50.361,30.591v.223c0,1.563-.446,1.9-2.009,1.563-.223,0-.446-.447-.446-.67a14.9,14.9,0,0,1,0-2.232c0-.558.223-.67.67-.67C50.7,28.694,50.361,28.582,50.361,30.591Z" transform="translate(-9.064 -8.019)" fill="#fff"/>
        <path id="Path_4005" data-name="Path 4005" d="M50.9,30.485h0c0-1.9.112-1.9,1.9-1.674a.717.717,0,0,1,.558.558,7.473,7.473,0,0,1,0,2.232c0,.223-.335.446-.558.67h-.112C50.567,32.271,50.9,32.382,50.9,30.485Z" transform="translate(-8.712 -8.024)" fill="#fff"/>
        <path id="Path_4006" data-name="Path 4006" d="M37,33v-.223c0-1.563.335-1.9,1.9-1.563.223,0,.447.446.558.67a14.884,14.884,0,0,1,0,2.232.592.592,0,0,1-.67.67C36.665,34.784,37.112,34.9,37,33Z" transform="translate(-10.325 -7.747)" fill="#fff"/>
        <path id="Path_4007" data-name="Path 4007" d="M39.9,33v-.223c0-1.674.335-1.9,1.9-1.563.223,0,.558.446.558.67a14.884,14.884,0,0,1,0,2.232.592.592,0,0,1-.67.67C39.565,34.786,40.012,34.9,39.9,33Z" transform="translate(-9.988 -7.748)" fill="#fff"/>
        <path id="Path_4008" data-name="Path 4008" d="M47.905,34.4V33.84c0-1.34,0-1.34,1.34-1.34,1.228,0,1.228,0,1.228,1.228v.893c0,1.339-.893,1.9-2.121,1.339-.223-.112-.335-.558-.446-.893C47.794,35.067,47.905,34.732,47.905,34.4Z" transform="translate(-9.064 -7.583)" fill="#fff"/>
        <path id="Path_4009" data-name="Path 4009" d="M53.364,34.5v.223c0,1.451-.447,1.9-2.009,1.451a.918.918,0,0,1-.447-.67,7.473,7.473,0,0,1,0-2.232c0-.223.335-.446.558-.67h.112C53.364,32.492,53.364,32.492,53.364,34.5Z" transform="translate(-8.718 -7.576)" fill="#fff"/>
        <path id="Path_4010" data-name="Path 4010" d="M37,40.986v-.558C37,39.2,37,39.2,38.228,39.2s1.228,0,1.228,1.228v1c0,1.34,0,1.34-1.34,1.34C37,42.772,37,42.772,37,40.986Z" transform="translate(-10.325 -6.804)" fill="#fff"/>
        <path id="Path_4011" data-name="Path 4011" d="M47.456,34.5v.447c0,1.339,0,1.339-1.34,1.339-1,0-1.116-.112-1.116-1.116v-1c0-1.451.67-1.9,2.121-1.451a1.114,1.114,0,0,1,.447.558,4.185,4.185,0,0,0-.112,1.228Z" transform="translate(-9.396 -7.577)" fill="#fff"/>
        <path id="Path_4012" data-name="Path 4012" d="M37,36.9v-.223c0-1.674.335-1.9,2.009-1.563.223,0,.447.335.447.558a16.431,16.431,0,0,1,0,2.344c0,.223-.335.447-.558.558h-.112C37.112,38.909,37,38.8,37,36.9Z" transform="translate(-10.325 -7.295)" fill="#fff"/>
      </g>
    </g>
    <text style="text-align: center;font-weight:400; font-family:Roboto Condensed" id="We_get_it_attested_from_the_Bangladesh_embassy_in_your_the_employers_home_country_" data-name="We get it attested from
the Bangladesh embassy
in your (the employers)
home country " transform="translate(633.205 248.837)" fill="#0054a5" font-size="27" font-family="RobotoCondensed-Regular, Roboto"><tspan x="0" y="0">We get it attested from</tspan><tspan x="0" y="25">the Bangladesh embassy</tspan><tspan x="0" y="50">in your (the employers)</tspan><tspan x="0" y="75">home country </tspan></text>
    <g id="Group_800" data-name="Group 800" transform="translate(573.781 176.429)">
      <g id="Group_796" data-name="Group 796" transform="translate(0 0)">
        <circle id="Ellipse_36" data-name="Ellipse 36" cx="20" cy="20" r="20" transform="translate(0.424 0.408)" fill="#0054a5"/>
        <circle id="Ellipse_37" data-name="Ellipse 37" cx="9" cy="9" r="9" transform="translate(11.424 11.408)" fill="#fff"/>
      </g>
      <line id="Line_2" data-name="Line 2" y2="87.013" transform="translate(20.807 40.984)" fill="none" stroke="#0054a5" stroke-width="1"/>
    </g>
    <g id="Group_802" data-name="Group 802" transform="translate(162.676 92.568)">
      <g id="Group_795" data-name="Group 795" transform="translate(0 83.86)">
        <ellipse id="Ellipse_36-2" data-name="Ellipse 36" cx="20.5" cy="20" rx="20.5" ry="20" transform="translate(-0.472 0.408)" fill="#0054a5"/>
        <ellipse id="Ellipse_37-2" data-name="Ellipse 37" cx="8.5" cy="9" rx="8.5" ry="9" transform="translate(11.528 11.408)" fill="#fff"/>
      </g>
      <line id="Line_3" data-name="Line 3" y2="87.013" transform="translate(20.807 0)" fill="none" stroke="#0054a5" stroke-width="1"/>
    </g>
    <g id="Group_803" data-name="Group 803" transform="translate(976.059 92.568)">
      <g id="Group_795-2" data-name="Group 795" transform="translate(0 83.86)">
        <circle id="Ellipse_36-3" data-name="Ellipse 36" cx="20" cy="20" r="20" transform="translate(0.146 0.408)" fill="#0054a5"/>
        <circle id="Ellipse_37-3" data-name="Ellipse 37" cx="9" cy="9" r="9" transform="translate(11.146 11.408)" fill="#fff"/>
      </g>
      <line id="Line_3-2" data-name="Line 3" y2="87.013" transform="translate(20.807 0)" fill="none" stroke="#0054a5" stroke-width="1"/>
    </g>
    <g id="Group_804" data-name="Group 804" transform="translate(972.275)">
      <g id="demand_letter-01" data-name="demand letter-01">
        <path id="Path_4013" data-name="Path 4013" d="M13.8,97.477V80.363c0-.583-.218-1.347.364-1.675.619-.4,1.092.291,1.566.619q15.293,9.777,30.623,19.626c4.7,3.022,9.285,3.022,13.946-.036C66.56,94.819,72.86,90.85,79.014,86.626c4.005-2.731,8.266-5.1,12.344-7.683.91-.583,1.165-.255,1.238.619.036.473.073.983.073,1.457,0,10.6-.036,21.229.036,31.825,0,1.529-.51,1.93-1.93,2-1.6.109-3.459-.328-4.515,1.566-.364.655-.874.182-1.2-.109a3.823,3.823,0,0,0-3.241-.692L34.19,119.98c-4.042.364-8.12.655-12.125,1.274a7.414,7.414,0,0,1-8.375-7.355C13.981,108.4,13.8,102.939,13.8,97.477Z" transform="translate(-13.683 -51.67)" fill="#1664ff"/>
        <path id="Path_4014" data-name="Path 4014" d="M57.062,25.236H35.579c-3.641,0-5.425,1.821-5.425,5.462,0,1.493.583,3.9-.255,4.3-1.238.583-2.585-1.274-3.9-2.039C24.255,31.9,22.58,30.7,20.8,29.642c-1.238-.728-1.056-1.129,0-1.857Q31.828,20.3,42.861,12.746c3.1-2.112,6.227-4.187,9.322-6.263,3.459-2.33,6.664-2.4,10.123-.073,10.523,7.064,20.974,14.2,31.5,21.265,1.274.874,1.238,1.238-.073,2.039-2.8,1.675-5.535,3.459-8.229,5.28-.91.619-1.129.328-1.129-.619.036-1.274,0-2.549,0-3.823,0-3.459-1.821-5.316-5.243-5.316Z" transform="translate(-17.658 -4.699)" fill="#57a4ff"/>
        <path id="Path_4015" data-name="Path 4015" d="M97.064,85.586H85.085c-1.092,0-2.148-.036-2.185-1.493,0-1.529,1.129-1.493,2.185-1.493h24.142c1.056,0,2.185,0,2.185,1.493,0,1.457-1.092,1.493-2.185,1.493Z" transform="translate(-57.696 -54.234)" fill="#8a8a8a"/>
        <path id="Path_4016" data-name="Path 4016" d="M97.064,104.862H85.085c-1.092,0-2.148-.073-2.185-1.529,0-1.493,1.092-1.456,2.185-1.456h24.178c.583,0,1.347-.146,1.6.51.218.51.728.983.437,1.639-.328.728-.983.8-1.675.8C105.439,104.862,101.252,104.862,97.064,104.862Z" transform="translate(-57.696 -66.482)" fill="#8a8a8a"/>
      </g>
    </g>
    <g id="Group_801" data-name="Group 801" transform="translate(1387.163 176.429)">
      <g id="Group_796-2" data-name="Group 796" transform="translate(0 0)">
        <circle id="Ellipse_36-4" data-name="Ellipse 36" cx="20" cy="20" r="20" transform="translate(0.041 0.408)" fill="#0054a5"/>
        <circle id="Ellipse_37-4" data-name="Ellipse 37" cx="9" cy="9" r="9" transform="translate(11.041 11.408)" fill="#fff"/>
      </g>
      <line id="Line_2-2" data-name="Line 2" y2="87.013" transform="translate(20.807 40.984)" fill="none" stroke="#0054a5" stroke-width="1"/>
    </g>
    <text style="text-align: center;font-weight:400; font-family:Roboto Condensed" id="You_fill_out_our_demand_letter_form_stating_your_exact_workforce_requirements" data-name="You fill out our 
“demand letter” form,
stating your exact 
workforce requirements" transform="translate(1050.205 116.837)" fill="#0054a5" font-size="27" font-family="RobotoCondensed-Regular, Roboto"><tspan x="0" y="0">You fill out our </tspan><tspan x="0" y="25">“demand letter” form,</tspan><tspan x="0" y="50">stating your exact </tspan><tspan x="0" y="75">workforce requirements</tspan></text>
    <g id="Group_805" data-name="Group 805" transform="translate(1386.586 318.928)">
      <g id="document">
        <path id="Path_4017" data-name="Path 4017" d="M203.622,244.219V247.4a1.592,1.592,0,0,1-1.592,1.592h-6.368v6.368a1.592,1.592,0,0,1-1.592,1.592h-3.184a1.592,1.592,0,0,1-1.592-1.592v-6.368h-6.368a1.592,1.592,0,0,1-1.592-1.592v-3.184a1.592,1.592,0,0,1,1.592-1.592h6.368v-6.368a1.592,1.592,0,0,1,1.592-1.592h3.184a1.592,1.592,0,0,1,1.592,1.592v6.368h6.368A1.592,1.592,0,0,1,203.622,244.219Z" transform="translate(-162.228 -199.64)" fill="#f2f2f2"/>
        <path id="Path_4018" data-name="Path 4018" d="M147.1,181.333a19.1,19.1,0,1,1-19.1,19.1A19.1,19.1,0,0,1,147.1,181.333Zm11.145,20.7v-3.184a1.592,1.592,0,0,0-1.592-1.592h-6.368v-6.368a1.592,1.592,0,0,0-1.592-1.592h-3.184a1.592,1.592,0,0,0-1.592,1.592v6.368h-6.368a1.592,1.592,0,0,0-1.592,1.592v3.184a1.592,1.592,0,0,0,1.592,1.592h6.368v6.368a1.592,1.592,0,0,0,1.592,1.592H148.7a1.592,1.592,0,0,0,1.592-1.592v-6.368h6.368A1.592,1.592,0,0,0,158.25,202.03Z" transform="translate(-116.855 -154.268)" fill="#a8ddfd"/>
        <path id="Path_4019" data-name="Path 4019" d="M375.4,23.4h-9.552a3.194,3.194,0,0,1-3.184-3.184V10.667Z" transform="translate(-316.497 -9.075)" fill="#aac4da"/>
        <path id="Path_4020" data-name="Path 4020" d="M121.315,23.4V80.718a3.194,3.194,0,0,1-3.184,3.184H67.184A3.194,3.194,0,0,1,64,80.718V13.851a3.194,3.194,0,0,1,3.184-3.184h41.394v9.552a3.194,3.194,0,0,0,3.184,3.184Zm-9.552,31.841a19.1,19.1,0,1,0-19.1,19.1,19.1,19.1,0,0,0,19.1-19.1Z" transform="translate(-62.408 -9.075)" fill="#57a4ff"/>
        <g id="Group_782" data-name="Group 782" transform="translate(0)">
          <path id="Path_4021" data-name="Path 4021" d="M117.333,64h15.921v3.184H117.333Z" transform="translate(-107.781 -54.448)" fill="#8a8a8a"/>
          <path id="Path_4022" data-name="Path 4022" d="M117.333,106.667h3.184v3.184h-3.184Z" transform="translate(-107.781 -90.746)" fill="#8a8a8a"/>
          <path id="Path_4023" data-name="Path 4023" d="M160,106.667h3.184v3.184H160Z" transform="translate(-144.079 -90.746)" fill="#8a8a8a"/>
          <path id="Path_4024" data-name="Path 4024" d="M113.365,13.2,100.629.466A1.591,1.591,0,0,0,99.5,0H58.109a4.776,4.776,0,0,0-4.776,4.776h0V71.643a4.776,4.776,0,0,0,4.776,4.776h50.946a4.776,4.776,0,0,0,4.776-4.776V14.329A1.591,1.591,0,0,0,113.365,13.2Zm-2.718,58.44a1.592,1.592,0,0,1-1.592,1.592H58.109a1.592,1.592,0,0,1-1.592-1.592V4.776a1.592,1.592,0,0,1,1.592-1.592h39.8v7.96a4.776,4.776,0,0,0,4.776,4.776h3.184V12.737h-3.184a1.592,1.592,0,0,1-1.592-1.592V5.435l9.552,9.552Z" transform="translate(-53.333)" fill="#8a8a8a"/>
          <path id="Path_4025" data-name="Path 4025" d="M138.03,170.667a20.7,20.7,0,1,0,20.7,20.7A20.7,20.7,0,0,0,138.03,170.667Zm0,38.21a17.513,17.513,0,1,1,17.513-17.513A17.513,17.513,0,0,1,138.03,208.877Z" transform="translate(-107.781 -145.194)" fill="#8a8a8a"/>
          <path id="Path_4026" data-name="Path 4026" d="M192.956,231.96H188.18v-4.776A3.184,3.184,0,0,0,185,224h-3.184a3.184,3.184,0,0,0-3.184,3.184v4.776h-4.776a3.184,3.184,0,0,0-3.184,3.184v3.184a3.184,3.184,0,0,0,3.184,3.184h4.776v4.776a3.184,3.184,0,0,0,3.184,3.184H185a3.184,3.184,0,0,0,3.184-3.184v-4.776h4.776a3.184,3.184,0,0,0,3.184-3.184v-3.184A3.184,3.184,0,0,0,192.956,231.96Zm0,6.368h-6.368A1.592,1.592,0,0,0,185,239.921v6.368h-3.184v-6.368a1.592,1.592,0,0,0-1.592-1.592h-6.368v-3.184h6.368a1.592,1.592,0,0,0,1.592-1.592v-6.368H185v6.368a1.592,1.592,0,0,0,1.592,1.592h6.368Z" transform="translate(-153.154 -190.566)" fill="#8a8a8a"/>
        </g>
      </g>
    </g>
    <text style="text-align: center;font-weight:400; font-family:Roboto Condensed" id="We_collect_additional_documents_from_your_company_if_needed" data-name="We collect additional
documents from your
company, if needed" transform="translate(1449.205 244.837)" fill="#0054a5" font-size="27" font-family="RobotoCondensed-Regular, Roboto"><tspan x="0" y="0">We collect additional</tspan><tspan x="0" y="25">documents from your</tspan><tspan x="0" y="50">company, if needed</tspan></text>
  </g>
</svg>
