<svg xmlns="http://www.w3.org/2000/svg"  viewBox="0 0 344 96.968">
  <g id="THANEX_TRAC-05" data-name="THANEX   TRAC-05" transform="translate(-16.2 -16.4)">
    <path id="Path_1108" data-name="Path 1108" d="M360.156,53.587H16.25V20.44H360.156V53.587Z" transform="translate(-0.015 -1.194)" fill="#5a9fd6"/>
    <path id="Path_1109" data-name="Path 1109" d="M360.156,53.587H16.25V20.44H360.156V53.587Z" transform="translate(-0.015 -1.194)" fill="#215ea8"/>
    <path id="Path_1110" data-name="Path 1110" d="M52.8,17.39H64.15c4.319,0,7.249.7,8.82,2.05s2.346,3.931,2.346,7.693v-.747c0,3.818-.859,6.4-2.55,7.75a9.845,9.845,0,0,1-4.755,1.642,11.212,11.212,0,0,1,5.129,1.747Q75.8,39.512,75.8,45.042V44.26c0,4.227-.845,7.045-2.522,8.5s-4.925,2.191-9.764,2.191H52.8Zm7.679,15.6h1.557c2.261,0,3.783-.373,4.537-1.127s1.12-2.254,1.12-4.516v.7c0-1.951-.359-3.283-1.106-3.995S64.474,23,62.459,23h-1.98Zm0,16.309H62.9q3.128,0,4.171-1.2c.7-.789,1.036-2.4,1.036-4.8v.768c0-2.226-.373-3.7-1.078-4.4s-2.205-1.043-4.516-1.043H60.479V49.3Z" transform="translate(-10.815 -0.293)" fill="#fff"/>
    <path id="Path_1111" data-name="Path 1111" d="M63.458,55.021H52.63V17.21H64.1c4.333,0,7.327.7,8.9,2.114,1.465,1.3,2.269,3.663,2.374,7.045h0v.747c-.113,3.438-.979,5.819-2.578,7.08a9.159,9.159,0,0,1-4.03,1.543,10.455,10.455,0,0,1,4.389,1.649c1.67,1.247,2.578,3.523,2.691,6.855h0V45c-.092,3.762-.951,6.418-2.529,7.8S68.305,55.021,63.458,55.021Zm-10.568-.254H63.458c4.762,0,8.017-.7,9.659-2.156s2.416-4.065,2.473-8C75.534,41.184,74.667,38.8,73,37.57a11.138,11.138,0,0,0-5.072-1.726V35.6a9.843,9.843,0,0,0,4.692-1.62c1.606-1.261,2.438-3.706,2.494-7.263s-.824-5.918-2.3-7.221S68.39,17.457,64.1,17.457H52.891Zm9.976-5.389H60.3V38.465h2.191c2.36,0,3.861.345,4.6,1.078s1,1.846,1.078,3.7h0v.768c-.063,2.015-.43,3.4-1.057,4.121s-2.149,1.247-4.262,1.247Zm-2.3-.247h2.3c2.029,0,3.4-.395,4.072-1.162s.965-2.184,1.007-4.326c-.042-1.994-.38-3.311-1.014-3.931s-2.163-1-4.424-1H60.556Zm1.409-16.063H60.3V22.853h2.114c2.05,0,3.466.373,4.227,1.106s1.036,1.726,1.12,3.339h0V28c-.07,1.9-.451,3.163-1.148,3.861s-2.339,1.2-4.629,1.2Zm-1.409-.254h1.409c2.226,0,3.727-.366,4.452-1.092s1.043-1.98,1.078-4.03c0-1.726-.387-2.924-1.057-3.523a6.34,6.34,0,0,0-4.044-1.036H60.556Z" transform="translate(-10.765 -0.239)" fill="#0054a5"/>
    <path id="Path_1112" data-name="Path 1112" d="M100.757,17.39h9.011l8.518,37.557h-7.418l-1.487-8.109H101.23l-1.557,8.109H92.24l8.518-37.557Zm1.465,23.855h6.157L105.33,24.414h0Z" transform="translate(-22.469 -0.293)" fill="#fff"/>
    <path id="Path_1113" data-name="Path 1113" d="M118.377,55.021h-7.686L109.2,46.912h-7.961L99.7,55.021H92l8.581-37.811h9.208v.1Zm-7.475-.254h7.165l-8.454-37.339h-8.806L92.352,54.767h7.165l1.515-8.116h8.377Zm-2.445-13.449H102V41.17l3.107-16.788-.035-.141h.31v.141Zm-6.15-.254h5.847l-2.9-15.985Z" transform="translate(-22.398 -0.239)" fill="#0054a5"/>
    <path id="Path_1114" data-name="Path 1114" d="M143.608,54.947h-6.3V17.39h11.3l6.517,31.71V17.39h6.291V54.947H150.16l-6.552-31.971V54.947Z" transform="translate(-35.787 -0.293)" fill="#fff"/>
    <path id="Path_1115" data-name="Path 1115" d="M161.483,55.021H149.992l-6.341-30.857V55.021H137.1V17.21h11.526v.1l6.263,30.5V17.21h6.552Zm-11.272-.254h11.033V17.428H155.2V49.047h-.247l-6.489-31.611H137.375V54.774h6.045V22.931h.254Z" transform="translate(-35.725 -0.239)" fill="#0054a5"/>
    <path id="Path_1116" data-name="Path 1116" d="M192.638,55.282c-4.326,0-7.348-1.113-9.046-3.368S181.035,45.693,181,40V31.1c.035-5.129,1-8.827,2.931-11.1s5.087-3.4,9.462-3.4c3.8,0,6.636.916,8.454,2.762s2.705,4.607,2.586,8.292v1.12h-7.609v-1.12a6.9,6.9,0,0,0-.923-4.058,3.4,3.4,0,0,0-2.973-1.353,3.353,3.353,0,0,0-3.3,1.846c-.634,1.24-.951,3.431-.951,6.6v8.891c0,4.1.3,6.8.895,8.116s1.818,1.951,3.678,1.951a17.366,17.366,0,0,0,3.523-.585V40.416h-3.523V34.823h11.23V53.8a51.8,51.8,0,0,1-11.836,1.487Z" transform="translate(-48.697 -0.056)" fill="#fff"/>
    <path id="Path_1117" data-name="Path 1117" d="M192.579,55.352h0c-4.354,0-7.418-1.155-9.159-3.417s-2.593-6.284-2.621-11.977V31.04c0-5.15,1.022-8.912,2.966-11.181s5.171-3.459,9.553-3.459c3.818,0,6.7.951,8.567,2.818s2.748,4.685,2.621,8.391V28.8h-7.862V27.588a6.681,6.681,0,0,0-.909-3.98,3.769,3.769,0,0,0-6.045.465c-.627,1.219-.944,3.424-.944,6.552v8.891c0,4.058.3,6.77.881,8.06s1.747,1.881,3.565,1.881a16.2,16.2,0,0,0,3.4-.557V40.487h-3.523v-5.84h11.483V53.838h-.092a52.388,52.388,0,0,1-11.85,1.494Zm.754-38.706c-4.3,0-7.461,1.141-9.363,3.368s-2.874,5.939-2.9,11.026v8.9c0,5.636.888,9.638,2.571,11.836s4.657,3.325,8.926,3.325a53.141,53.141,0,0,0,11.7-1.465V34.893H193.284v5.34h3.523V49.1h-.1a17.331,17.331,0,0,1-3.523.592c-1.9,0-3.177-.7-3.79-2.029s-.9-4.009-.9-8.165v-8.87c0-3.17.324-5.411.958-6.665a4.03,4.03,0,0,1,6.481-.507,6.6,6.6,0,0,1,.958,4.135v.993h7.369v-.993c.12-3.635-.74-6.39-2.536-8.2s-4.643-2.741-8.391-2.741Z" transform="translate(-48.638)" fill="#0054a5"/>
    <path id="Path_1118" data-name="Path 1118" d="M224.39,54.947V17.39h7.679V49.361h9.757v5.587Z" transform="translate(-61.518 -0.293)" fill="#fff"/>
    <path id="Path_1119" data-name="Path 1119" d="M241.9,55.021H224.21V17.21h7.926V49.188H241.9Zm-17.444-.254h17.218v-5.3h-9.786V17.457h-7.433Z" transform="translate(-61.465 -0.239)" fill="#0054a5"/>
    <path id="Path_1120" data-name="Path 1120" d="M263.37,17.39h9.018l8.517,37.557H273.48l-1.486-8.109h-8.165l-1.536,8.109H254.86l8.51-37.557Zm1.451,23.855h6.15l-3.051-16.831h0Z" transform="translate(-70.522 -0.293)" fill="#fff"/>
    <path id="Path_1121" data-name="Path 1121" d="M281,55.021h-7.7l-1.5-8.109h-7.933l-1.543,8.109H254.64v-.148l8.546-37.663h9.208v.1Zm-7.489-.254h7.165l-8.454-37.339h-8.806l-8.454,37.339h7.165l1.522-8.116h8.384ZM271.1,41.318h-6.46V41.17l3.107-16.831h.247Zm-6.157-.254h5.854l-2.9-16.006Z" transform="translate(-70.457 -0.239)" fill="#0054a5"/>
    <path id="Path_1122" data-name="Path 1122" d="M322.172,22.977h-8.1V17.39h23.855v5.587h-8.088V54.947h-7.665V22.977Z" transform="translate(-88.018 -0.293)" fill="#fff"/>
    <path id="Path_1123" data-name="Path 1123" d="M329.918,55.021h-7.926V23.05h-8.1V17.21H338v5.84h-8.081Zm-7.672-.254h7.418V22.8h8.081V17.457h-23.6V22.8h8.1Z" transform="translate(-87.965 -0.239)" fill="#0054a5"/>
    <path id="Path_1124" data-name="Path 1124" d="M354.88,17.39h11.272c4.03,0,6.9.74,8.63,2.233s2.586,3.995,2.586,7.51c0,3.966-.881,6.651-2.614,8.038a9.933,9.933,0,0,1-4.016,1.62h.43a5.636,5.636,0,0,1,4.748,2.064,8.75,8.75,0,0,1,1.409,5.9c-.049,1.451-.07,2.966-.049,4.544s.085,2.867.162,3.713a7.608,7.608,0,0,0,.324,1.909h-7.651a9.494,9.494,0,0,1-.275-1.86c-.049-.838-.07-2.114-.07-3.762V44.76c.035-1.881-.324-3.213-1.064-3.98s-2.05-1.169-3.889-1.169h-2.262V54.947H354.88Zm7.672,16.478H364.7c1.994,0,3.332-.373,3.987-1.106s1.007-2.205,1.007-4.4q0-3.093-1.064-4.227T364.7,23.019h-2.149Z" transform="translate(-100.077 -0.293)" fill="#fff"/>
    <path id="Path_1125" data-name="Path 1125" d="M362.661,55.021H354.7V17.21h11.413c4.03,0,6.961.768,8.715,2.269s2.628,4.072,2.628,7.6c0,3.988-.895,6.728-2.663,8.137a8.983,8.983,0,0,1-3.114,1.409,5.636,5.636,0,0,1,4.29,2.114,8.884,8.884,0,0,1,1.451,5.981c-.049,1.409-.07,2.966-.049,4.544.035,1.839.085,2.945.162,3.7a8.058,8.058,0,0,0,.31,1.874l.056.169h-7.933v-.092a9.393,9.393,0,0,1-.282-1.881c-.049-.888-.07-2.191-.07-3.769V44.707c.035-1.846-.31-3.149-1.029-3.889a5.212,5.212,0,0,0-3.8-1.127h-2.114Zm-7.672-.254h7.39V39.437h2.4c1.874,0,3.213.4,3.98,1.2s1.134,2.163,1.1,4.072v4.544c0,1.578,0,2.881.077,3.755a8.809,8.809,0,0,0,.232,1.733h7.4a8.174,8.174,0,0,1-.268-1.768c-.077-.761-.134-1.874-.169-3.713,0-1.585,0-3.114.049-4.558a8.511,8.511,0,0,0-1.409-5.812,5.537,5.537,0,0,0-4.657-2.022h-.43v-.247a9.989,9.989,0,0,0,3.952-1.6c1.7-1.36,2.55-4.037,2.55-7.94,0-3.452-.852-5.946-2.529-7.411s-4.586-2.212-8.553-2.212H354.954Zm9.659-20.8h-2.268V22.853h2.268c1.952,0,3.3.395,4.03,1.162s1.1,2.205,1.1,4.319c0,2.254-.345,3.713-1.05,4.488S366.67,33.97,364.648,33.97Zm-1.987-.282h2.022c1.952,0,3.262-.359,3.889-1.071s.944-2.17.944-4.283c0-2.015-.345-3.4-1.029-4.114s-1.966-1.085-3.84-1.085h-1.987Z" transform="translate(-100.024 -0.239)" fill="#0054a5"/>
    <path id="Path_1126" data-name="Path 1126" d="M401.74,17.39h9l8.525,37.557h-7.426l-1.479-8.109h-8.186l-1.536,8.109H393.23l8.51-37.557Zm1.465,23.855h6.164L406.3,24.414h0l-3.114,16.831Z" transform="translate(-111.409 -0.293)" fill="#fff"/>
    <path id="Path_1127" data-name="Path 1127" d="M419.356,55.021h-7.693l-1.472-8.109h-7.968l-1.543,8.109H393l8.588-37.811h9.2v.1Zm-7.482-.254h7.193l-8.454-37.339h-8.806l-8.454,37.339h7.116l1.543-8.116H410.4ZM409.45,41.318h-6.46V41.17l3.093-16.753v-.176h.3v.176Zm-6.157-.254h5.854l-2.9-15.95Z" transform="translate(-111.341 -0.239)" fill="#0054a5"/>
    <path id="Path_1128" data-name="Path 1128" d="M460.224,41.959v1.113q.106,6.608-2.445,9.412T449.121,55.3c-4.3,0-7.341-1.014-9.1-3.051s-2.656-5.523-2.656-10.469V30.166c0-4.988.874-8.5,2.656-10.532s4.8-3.043,9.1-3.043c3.755,0,6.517.951,8.334,2.853,1.7,1.768,2.529,4.4,2.522,7.9v1.832h-7.623V28.059a8.954,8.954,0,0,0-.768-4.382,2.628,2.628,0,0,0-2.466-1.409,3.311,3.311,0,0,0-3.114,1.656,11.509,11.509,0,0,0-.951,5.425V40.917q0,4.882.888,6.8a3.191,3.191,0,0,0,3.177,1.923A2.818,2.818,0,0,0,451.777,48a10.3,10.3,0,0,0,.8-4.932V41.959Z" transform="translate(-124.452 -0.056)" fill="#fff"/>
    <path id="Path_1129" data-name="Path 1129" d="M449.08,55.352c-4.326,0-7.411-1.036-9.159-3.093s-2.691-5.523-2.691-10.568V30.11c0-5.009.9-8.581,2.691-10.617s4.861-3.093,9.159-3.093c3.755,0,6.58.972,8.419,2.888,1.712,1.789,2.579,4.481,2.564,8v1.959h-7.876V28a8.848,8.848,0,0,0-.747-4.319,2.487,2.487,0,0,0-2.36-1.409,3.177,3.177,0,0,0-3.008,1.6,11.387,11.387,0,0,0-.937,5.354V40.861c0,3.213.3,5.488.874,6.749a3.065,3.065,0,0,0,3.072,1.846,2.677,2.677,0,0,0,2.543-1.564,10.383,10.383,0,0,0,.8-4.868v-1.24h7.891v1.233c.07,4.4-.768,7.595-2.48,9.5S453.159,55.352,449.08,55.352Zm0-38.706c-4.227,0-7.278,1.022-9,3.008s-2.628,5.509-2.628,10.455v11.6q0,7.4,2.628,10.384c1.747,1.987,4.748,3.015,9,3.015,4.016,0,6.9-.93,8.567-2.762s2.48-4.981,2.409-9.328v-.979h-7.39v.979a10.362,10.362,0,0,1-.824,4.995,2.966,2.966,0,0,1-2.762,1.7,3.353,3.353,0,0,1-3.3-1.994c-.592-1.289-.895-3.6-.895-6.855v-11.6a11.654,11.654,0,0,1,.965-5.481,3.459,3.459,0,0,1,3.227-1.726,2.762,2.762,0,0,1,2.578,1.508,9.053,9.053,0,0,1,.782,4.452v.979h7.369v-1.7c0-3.452-.831-6.073-2.487-7.82-1.789-1.867-4.565-2.818-8.243-2.818Z" transform="translate(-124.411)" fill="#0054a5"/>
    <path id="Path_1130" data-name="Path 1130" d="M18,98.27h6.052a7.749,7.749,0,0,1,1.353.12,4.157,4.157,0,0,1,1.332.6,3.036,3.036,0,0,1,1.057,1.247,4.932,4.932,0,0,1,.4,2.114q-.07,3.995-4.467,4.037h-4.84v6.538H18Zm.86,7.362h5.016a3.79,3.79,0,0,0,1.656-.331,2.593,2.593,0,0,0,1.05-.768,2.762,2.762,0,0,0,.592-1.043,4.227,4.227,0,0,0,.155-1.134,6,6,0,0,0-.092-1.007,3.734,3.734,0,0,0-.479-1.064,2.642,2.642,0,0,0-1-.895A3.959,3.959,0,0,0,24,99.052H18.888Z" transform="translate(-0.532 -24.192)" fill="#1664ff"/>
    <path id="Path_1131" data-name="Path 1131" d="M48.124,105.461a8.4,8.4,0,0,1-1.768,5.432,6,6,0,0,1-2.114,1.642,6.89,6.89,0,0,1-5.714,0,6.171,6.171,0,0,1-2.114-1.641,9.159,9.159,0,0,1,0-10.906,6.08,6.08,0,0,1,4.974-2.219,6.094,6.094,0,0,1,4.981,2.219,8.454,8.454,0,0,1,1.754,5.474Zm-12.681,0a7.531,7.531,0,0,0,1.571,4.854,5.614,5.614,0,0,0,8.687,0,8.454,8.454,0,0,0,0-9.729,5.651,5.651,0,0,0-8.687,0,7.51,7.51,0,0,0-1.55,4.875Z" transform="translate(-5.441 -24.042)" fill="#1664ff"/>
    <path id="Path_1132" data-name="Path 1132" d="M55.38,98.27h.895l3.706,13.717h.063L63.806,98.27h1.106l3.825,13.717h0L72.387,98.27h.937l-4.086,14.682h-.979l-3.917-13.9h0l-3.847,13.9H59.487Z" transform="translate(-11.577 -24.192)" fill="#1664ff"/>
    <path id="Path_1133" data-name="Path 1133" d="M93.152,112.17v.782H83.5V98.27h9.56v.782h-8.7v5.876h8.179v.782H84.36v6.46Z" transform="translate(-19.887 -24.192)" fill="#1664ff"/>
    <path id="Path_1134" data-name="Path 1134" d="M100.06,98.267H106a5.636,5.636,0,0,1,3.213.817,3.345,3.345,0,0,1,1.3,2.966,3.523,3.523,0,0,1-3.043,3.755v.021a4.932,4.932,0,0,1,1.324.352,2.48,2.48,0,0,1,.8.7,3.966,3.966,0,0,1,.627,2.114q.085,1.177.106,2.24a3.234,3.234,0,0,0,.38,1.7h-.972a3.129,3.129,0,0,1-.134-.451,3.085,3.085,0,0,0-.1-.451,5.691,5.691,0,0,1-.085-1,20.987,20.987,0,0,0-.056-2.212,3.656,3.656,0,0,0-.218-1.022,2.212,2.212,0,0,0-.585-.8,2.381,2.381,0,0,0-.972-.55,5.467,5.467,0,0,0-1.585-.19h-5.072v6.679h-.86ZM106,105.488a4.058,4.058,0,0,0,2.628-.824,3.142,3.142,0,0,0,1.014-2.55,2.734,2.734,0,0,0-1.085-2.4,4.643,4.643,0,0,0-2.557-.7h-5.08v6.439Z" transform="translate(-24.78 -24.189)" fill="#1664ff"/>
    <path id="Path_1135" data-name="Path 1135" d="M128.312,112.17v.782H118.66V98.27h9.553v.782H119.52v5.876H127.7v.782H119.52v6.46Z" transform="translate(-30.276 -24.192)" fill="#1664ff"/>
    <path id="Path_1136" data-name="Path 1136" d="M135.22,98.27h4.657q3.762.056,5.22,2.233a9.039,9.039,0,0,1,1.353,5.087,8.3,8.3,0,0,1-1.578,5.22,5.932,5.932,0,0,1-5.037,2.114H135.22Zm.859,13.9h3.833a5.742,5.742,0,0,0,3.861-1.409q1.754-1.458,1.811-5.185a9.229,9.229,0,0,0-.606-3.579,4.565,4.565,0,0,0-1.508-1.959,4.763,4.763,0,0,0-1.9-.845,11.68,11.68,0,0,0-1.832-.155h-3.656Z" transform="translate(-35.169 -24.192)" fill="#1664ff"/>
    <path id="Path_1137" data-name="Path 1137" d="M163.207,98.269H168.9a6.2,6.2,0,0,1,2.114.31,3.4,3.4,0,0,1,1.374.859,3.128,3.128,0,0,1,.754,1.2,5.227,5.227,0,0,1,.2,1.409,3.17,3.17,0,0,1-.747,2.05,3.072,3.072,0,0,1-2.008,1.071l.042.042a1.733,1.733,0,0,1,.7.1,3.953,3.953,0,0,1,1.071.564,3.424,3.424,0,0,1,1.043,1.085,4.136,4.136,0,0,1,.416,1.853,3.663,3.663,0,0,1-1.36,3.051,5.587,5.587,0,0,1-3.6,1.064h-5.7Zm.867,6.658H168.9q3.586-.085,3.6-3.022a2.466,2.466,0,0,0-1.071-2.24,4.931,4.931,0,0,0-2.529-.613h-4.826Zm0,7.242h4.833c2.677,0,4.037-1.127,4.1-3.332a3.135,3.135,0,0,0-.345-1.564,2.431,2.431,0,0,0-.979-.944,4.326,4.326,0,0,0-1.317-.521,11.187,11.187,0,0,0-1.458-.1h-4.833Z" transform="translate(-43.437 -24.191)" fill="#1664ff"/>
    <path id="Path_1138" data-name="Path 1138" d="M190.726,98.27h.972l-5.714,8.539v6.143h-.867v-6.143L179.44,98.27h.986l5.143,7.75Z" transform="translate(-48.236 -24.192)" fill="#1664ff"/>
    <path id="Path_1139" data-name="Path 1139" d="M207.09,98.269h5.685a6.242,6.242,0,0,1,2.149.31,3.325,3.325,0,0,1,1.367.859,3.065,3.065,0,0,1,.761,1.2,5.5,5.5,0,0,1,.19,1.409,3.17,3.17,0,0,1-.747,2.05,3.037,3.037,0,0,1-2,1.071l.035.042a1.719,1.719,0,0,1,.7.1,3.854,3.854,0,0,1,1.071.564,3.354,3.354,0,0,1,1.043,1.085,4.044,4.044,0,0,1,.423,1.853,3.67,3.67,0,0,1-1.367,3.051,5.58,5.58,0,0,1-3.593,1.064h-5.7Zm.859,6.658h4.833c2.381-.056,3.586-1.064,3.6-3.022a2.48,2.48,0,0,0-1.071-2.24,4.981,4.981,0,0,0-2.529-.613h-4.833Zm0,7.242h4.84q4.009,0,4.093-3.332a3.213,3.213,0,0,0-.338-1.564,2.445,2.445,0,0,0-.986-.944,4.227,4.227,0,0,0-1.317-.521,11.074,11.074,0,0,0-1.451-.1h-4.84Z" transform="translate(-56.406 -24.191)" fill="#1664ff"/>
    <path id="Path_1140" data-name="Path 1140" d="M230.208,98.27l5.636,14.682h-.93l-1.8-4.713H226.3l-1.811,4.713h-.944l5.721-14.682Zm2.621,9.159-3.058-8.306h0l-3.163,8.306Z" transform="translate(-61.27 -24.192)" fill="#1664ff"/>
    <path id="Path_1141" data-name="Path 1141" d="M243.2,98.27h1.106l8.983,13.477h.042V98.27h.86v14.682h-1.029L244.1,99.369h0v13.583h-.9Z" transform="translate(-67.076 -24.192)" fill="#1664ff"/>
    <path id="Path_1142" data-name="Path 1142" d="M275.337,105.6v7.2h-.74v-3.114h-.042a4.607,4.607,0,0,1-1.994,2.522,6.34,6.34,0,0,1-3.389.944,6.608,6.608,0,0,1-2.818-.62,6.1,6.1,0,0,1-2.114-1.62,8.264,8.264,0,0,1-1.733-5.375,8.518,8.518,0,0,1,1.768-5.453,6,6,0,0,1,4.932-2.318,6.277,6.277,0,0,1,3.882,1.275,5.559,5.559,0,0,1,2.029,3.614h-.853a4.962,4.962,0,0,0-5.072-4.107,5.044,5.044,0,0,0-4.34,2.114,7.9,7.9,0,0,0-1.515,4.868,7.7,7.7,0,0,0,1.465,4.812,5.777,5.777,0,0,0,8.454.373,6.08,6.08,0,0,0,1.353-4.34h-5.256V105.6Z" transform="translate(-72.78 -24.043)" fill="#1664ff"/>
    <path id="Path_1143" data-name="Path 1143" d="M285,98.27h.867v13.9h8.081v.782H285Z" transform="translate(-79.428 -24.192)" fill="#1664ff"/>
    <path id="Path_1144" data-name="Path 1144" d="M304.388,98.27l5.636,14.682h-.93l-1.8-4.713h-6.806l-1.811,4.713h-.944l5.721-14.682Zm2.621,9.159-3.058-8.306h-.035l-3.177,8.334Z" transform="translate(-83.19 -24.192)" fill="#1664ff"/>
    <path id="Path_1145" data-name="Path 1145" d="M323.5,99.052V98.27h10.92v.782H329.4v13.9h-.859v-13.9Z" transform="translate(-90.804 -24.192)" fill="#1664ff"/>
    <path id="Path_1146" data-name="Path 1146" d="M341,98.267h5.939a5.636,5.636,0,0,1,3.22.817,3.345,3.345,0,0,1,1.3,2.966,3.523,3.523,0,0,1-3.043,3.755v.021a4.982,4.982,0,0,1,1.332.352,2.529,2.529,0,0,1,.789.7,3.974,3.974,0,0,1,.634,2.114q.085,1.177.106,2.24a3.312,3.312,0,0,0,.373,1.7h-.972a4.391,4.391,0,0,1-.134-.451,3.923,3.923,0,0,1-.092-.451,5.678,5.678,0,0,1-.092-1,20.991,20.991,0,0,0-.056-2.212,3.655,3.655,0,0,0-.211-1.022,2.3,2.3,0,0,0-.585-.8,2.409,2.409,0,0,0-.979-.55,5.453,5.453,0,0,0-1.578-.19h-5.072v6.679H341Zm5.946,7.221a4.051,4.051,0,0,0,2.621-.824,3.128,3.128,0,0,0,1.022-2.55,2.734,2.734,0,0,0-1.085-2.4,4.643,4.643,0,0,0-2.557-.7h-5.08v6.439Z" transform="translate(-95.976 -24.189)" fill="#1664ff"/>
    <path id="Path_1147" data-name="Path 1147" d="M364.208,98.27l5.636,14.682h-.937l-1.8-4.713H360.3l-1.8,4.713h-.944l5.721-14.682Zm2.614,9.159-3.051-8.306h-.042l-3.163,8.306Z" transform="translate(-100.866 -24.192)" fill="#1664ff"/>
    <path id="Path_1148" data-name="Path 1148" d="M388.013,102.5a4.439,4.439,0,0,0-1.656-2.9,5.263,5.263,0,0,0-3.191-1.043,5.171,5.171,0,0,0-4.326,2.036,8.285,8.285,0,0,0,0,9.729,5.164,5.164,0,0,0,4.326,2.057,4.615,4.615,0,0,0,3.523-1.627,5.974,5.974,0,0,0,1.564-3.656h.86a6.9,6.9,0,0,1-1.909,4.319,5.481,5.481,0,0,1-4.037,1.747,6.735,6.735,0,0,1-2.853-.62,6.235,6.235,0,0,1-2.114-1.642,9.2,9.2,0,0,1,0-10.906,6.8,6.8,0,0,1,8.024-1.522,5.115,5.115,0,0,1,1.712,1.578,5.693,5.693,0,0,1,.775,1.606,3.712,3.712,0,0,1,.183.845Z" transform="translate(-106.439 -24.044)" fill="#1664ff"/>
    <path id="Path_1149" data-name="Path 1149" d="M418.367,105.6v7.2h-.74v-3.114h-.042a4.608,4.608,0,0,1-1.994,2.522,6.341,6.341,0,0,1-3.389.944,6.63,6.63,0,0,1-2.818-.62,6.1,6.1,0,0,1-2.114-1.62,8.264,8.264,0,0,1-1.733-5.375,8.518,8.518,0,0,1,1.768-5.453,6,6,0,0,1,4.932-2.318,6.277,6.277,0,0,1,3.882,1.275,5.53,5.53,0,0,1,2.029,3.614h-.831a5.342,5.342,0,0,0-9.455-1.994,7.9,7.9,0,0,0-1.515,4.868,7.7,7.7,0,0,0,1.465,4.812,5.777,5.777,0,0,0,8.454.373,6.08,6.08,0,0,0,1.36-4.333h-5.256V105.6Z" transform="translate(-115.044 -24.043)" fill="#1664ff"/>
    <path id="Path_1150" data-name="Path 1150" d="M428.06,98.267h5.946a5.636,5.636,0,0,1,3.213.817,3.376,3.376,0,0,1,1.289,2.966,3.523,3.523,0,0,1-3.036,3.755v.021a5,5,0,0,1,1.324.352,2.451,2.451,0,0,1,.789.7,3.973,3.973,0,0,1,.634,2.114q.085,1.177.106,2.24a3.311,3.311,0,0,0,.373,1.7h-.972a4.391,4.391,0,0,1-.134-.451,3.011,3.011,0,0,0-.092-.451,5.689,5.689,0,0,1-.085-1,20.985,20.985,0,0,0-.063-2.212,3.424,3.424,0,0,0-.211-1.022,2.3,2.3,0,0,0-.585-.8,2.41,2.41,0,0,0-.979-.55,5.452,5.452,0,0,0-1.578-.19h-5.072v6.679h-.867Zm5.946,7.221a4.086,4.086,0,0,0,2.628-.824,3.142,3.142,0,0,0,1.014-2.55,2.734,2.734,0,0,0-1.085-2.4,4.643,4.643,0,0,0-2.557-.7h-5.08v6.439Z" transform="translate(-121.701 -24.189)" fill="#1664ff"/>
    <path id="Path_1151" data-name="Path 1151" d="M459.346,105.464a8.32,8.32,0,0,1-1.768,5.432,5.967,5.967,0,0,1-2.114,1.642,6.749,6.749,0,0,1-2.867.62,6.679,6.679,0,0,1-2.818-.62,6.108,6.108,0,0,1-2.114-1.642,9.159,9.159,0,0,1,0-10.906,6.686,6.686,0,0,1,9.948,0A8.384,8.384,0,0,1,459.346,105.464Zm-12.681,0a7.531,7.531,0,0,0,1.571,4.854,5.636,5.636,0,0,0,8.68,0,8.454,8.454,0,0,0,0-9.729,5.636,5.636,0,0,0-8.68,0A7.51,7.51,0,0,0,446.665,105.464Z" transform="translate(-126.962 -24.045)" fill="#1664ff"/>
    <path id="Path_1152" data-name="Path 1152" d="M469.359,98.27v8.8a10.962,10.962,0,0,0,.134,1.585,6.607,6.607,0,0,0,.571,1.789,3.628,3.628,0,0,0,1.353,1.465,4.453,4.453,0,0,0,2.417.613,4.261,4.261,0,0,0,3.678-1.479,6.721,6.721,0,0,0,.993-3.973v-8.8h.859v8.8a7.6,7.6,0,0,1-1.155,4.41q-1.233,1.782-4.375,1.825a5.594,5.594,0,0,1-2.945-.7,4.227,4.227,0,0,1-1.613-1.684,6.741,6.741,0,0,1-.641-2.064,10.112,10.112,0,0,1-.134-1.782v-8.8Z" transform="translate(-133.65 -24.192)" fill="#1664ff"/>
    <path id="Path_1153" data-name="Path 1153" d="M488.32,98.27h6.052a7.75,7.75,0,0,1,1.353.12,4.023,4.023,0,0,1,1.332.6,3.05,3.05,0,0,1,1.064,1.247,5.009,5.009,0,0,1,.395,2.114q-.063,3.995-4.467,4.037H489.18v6.538h-.859Zm.859,7.362H494.2a3.819,3.819,0,0,0,1.663-.331,2.572,2.572,0,0,0,1.043-.768,2.776,2.776,0,0,0,.6-1.043,4.531,4.531,0,0,0,.155-1.134,6.061,6.061,0,0,0-.1-1.007,3.734,3.734,0,0,0-.479-1.064,2.571,2.571,0,0,0-.993-.895,4,4,0,0,0-1.768-.338h-5.136Z" transform="translate(-139.507 -24.192)" fill="#1664ff"/>
    <path id="Path_1154" data-name="Path 1154" d="M19.906,142.943h.035l2.818-9.673h1.007l2.818,9.673h.042l2.818-9.652h.838l-3.29,10.568h-.916l-2.818-9.588h-.035l-2.818,9.588h-.958L16.2,133.291h.817Z" transform="translate(0 -34.534)" fill="#1664ff"/>
    <path id="Path_1155" data-name="Path 1155" d="M54.2,142.943h0l2.818-9.673h1.022l2.818,9.673h0l2.867-9.673h.867L61.3,143.838h-.937l-2.818-9.588h-.035L54.7,143.838h-.958L50.49,133.27h.81Z" transform="translate(-10.132 -34.534)" fill="#1664ff"/>
    <path id="Path_1156" data-name="Path 1156" d="M88.455,142.943H88.5l2.818-9.673h1.007l2.818,9.673h.042l2.867-9.673h.838L95.6,143.838h-.944l-2.818-9.588h-.042l-2.818,9.588h-.958L84.77,133.27h.817Z" transform="translate(-20.262 -34.534)" fill="#1664ff"/>
    <path id="Path_1157" data-name="Path 1157" d="M120.7,147.424V145.31h1v2.114Z" transform="translate(-30.879 -38.092)" fill="#1664ff"/>
    <path id="Path_1158" data-name="Path 1158" d="M141.18,127.47h.7v6.341h.042a3.523,3.523,0,0,1,1.557-1.881,4.607,4.607,0,0,1,2.325-.613,3.938,3.938,0,0,1,3.375,1.515,6.341,6.341,0,0,1,1.078,3.769,8.313,8.313,0,0,1-.472,3,4.931,4.931,0,0,1-1.2,1.768,3.945,3.945,0,0,1-1.451.8,5.065,5.065,0,0,1-1.332.211,4.269,4.269,0,0,1-1.691-.352,4.854,4.854,0,0,1-1.2-.761,3.734,3.734,0,0,1-.993-1.508h-.042v2.367h-.7Zm4.678,14.252a3.114,3.114,0,0,0,1.747-.472,3.6,3.6,0,0,0,1.134-1.169,7.291,7.291,0,0,0,.817-3.459,5.523,5.523,0,0,0-.916-3.177,3.227,3.227,0,0,0-2.818-1.409,3.522,3.522,0,0,0-2.959,1.289,5.368,5.368,0,0,0-.958,3.311,6.341,6.341,0,0,0,.916,3.523,3.311,3.311,0,0,0,3.036,1.564Z" transform="translate(-36.93 -32.82)" fill="#1664ff"/>
    <path id="Path_1159" data-name="Path 1159" d="M178.233,141.808a2.579,2.579,0,0,0,.092.867.528.528,0,0,0,.578.416,3.48,3.48,0,0,0,.564-.063v.662a2.359,2.359,0,0,1-.613.077c-.585,0-.951-.155-1.106-.472a1.782,1.782,0,0,1-.261-1.071v-.55h0a3.523,3.523,0,0,1-1.346,1.62,4.3,4.3,0,0,1-2.48.7,4.093,4.093,0,0,1-2.445-.7,2.607,2.607,0,0,1-1-2.3,3.093,3.093,0,0,1,.352-1.55,2.593,2.593,0,0,1,.9-.831,3.819,3.819,0,0,1,1.247-.493l.655-.148a4.771,4.771,0,0,1,.627-.042,7.768,7.768,0,0,0,3.058-.55,1.064,1.064,0,0,0,.423-.634,7.467,7.467,0,0,0,.056-1.014,2.268,2.268,0,0,0-.1-.549,2.114,2.114,0,0,0-.437-.7,2.9,2.9,0,0,0-.86-.613,3.931,3.931,0,0,0-1.465-.225,2.817,2.817,0,0,0-3.156,2.818h-.754c.148-2.332,1.444-3.523,3.9-3.523a5,5,0,0,1,2.466.55,2.332,2.332,0,0,1,1.12,2.205Zm-.747-4.044a1.332,1.332,0,0,1-.613.373,4.226,4.226,0,0,1-.916.2c-.7.085-1.409.169-2.2.247q-2.818.19-2.818,2.459a2.064,2.064,0,0,0,.7,1.613,2.818,2.818,0,0,0,2.008.7,3.67,3.67,0,0,0,2.114-.514,3.065,3.065,0,0,0,1.162-1.092,3.987,3.987,0,0,0,.5-1.219,4.888,4.888,0,0,0,.1-.768Z" transform="translate(-45.507 -34.435)" fill="#1664ff"/>
    <path id="Path_1160" data-name="Path 1160" d="M199.221,133.2h.74v2.283h.049a3.565,3.565,0,0,1,1.409-1.888,4.114,4.114,0,0,1,2.226-.634,4.227,4.227,0,0,1,2.114.472,2.649,2.649,0,0,1,1.078,1.177,4.114,4.114,0,0,1,.416,1.409c0,.479.042.895.042,1.233v6.538h-.74v-6.679a9.27,9.27,0,0,0-.042-1.029,3.48,3.48,0,0,0-.359-1.134,2.008,2.008,0,0,0-.859-.923,3.41,3.41,0,0,0-1.656-.366,3.283,3.283,0,0,0-2.691,1.233,4.854,4.854,0,0,0-1.007,3.191v5.707h-.74Z" transform="translate(-54.075 -34.441)" fill="#1664ff"/>
    <path id="Path_1161" data-name="Path 1161" d="M236.366,133.2v10.025a8.784,8.784,0,0,1-.056,1.064,4.861,4.861,0,0,1-.479,1.571,3.283,3.283,0,0,1-1.3,1.374,4.931,4.931,0,0,1-2.571.571,4.847,4.847,0,0,1-2.755-.7,3.149,3.149,0,0,1-1.233-2.557h.747a2.571,2.571,0,0,0,1.071,1.987,3.72,3.72,0,0,0,2.191.62,3.952,3.952,0,0,0,2.113-.507,2.818,2.818,0,0,0,1.1-1.092,3.972,3.972,0,0,0,.4-1.289c0-.38.042-.662.042-.838v-2.438h-.042a3.825,3.825,0,0,1-3.706,2.416,3.924,3.924,0,0,1-3.332-1.515,6.073,6.073,0,0,1-1.085-3.713,5.826,5.826,0,0,1,1.148-3.67,3.889,3.889,0,0,1,3.269-1.536,4.283,4.283,0,0,1,2.254.613,3.424,3.424,0,0,1,1.451,1.846h.042V133.2Zm-4.495.444a3.17,3.17,0,0,0-2.748,1.409,5.425,5.425,0,0,0-.923,3.121,5.277,5.277,0,0,0,.944,3.184,3.473,3.473,0,0,0,5.544-.042,5.291,5.291,0,0,0,.916-3.142,5.382,5.382,0,0,0-.916-3.163,3.311,3.311,0,0,0-2.818-1.367Z" transform="translate(-62.426 -34.444)" fill="#1664ff"/>
    <path id="Path_1162" data-name="Path 1162" d="M258.507,127.47v14.682h-.747V127.47Z" transform="translate(-71.379 -32.82)" fill="#1664ff"/>
    <path id="Path_1163" data-name="Path 1163" d="M283.461,141.779a2.572,2.572,0,0,0,.1.867.521.521,0,0,0,.578.416A3.482,3.482,0,0,0,284.7,143v.662a2.373,2.373,0,0,1-.62.078c-.578,0-.944-.155-1.1-.472a1.733,1.733,0,0,1-.261-1.071v-.55h-.042a3.481,3.481,0,0,1-1.339,1.62,4.319,4.319,0,0,1-2.48.7,4.079,4.079,0,0,1-2.445-.7,2.607,2.607,0,0,1-1-2.3,3.092,3.092,0,0,1,.352-1.55,2.48,2.48,0,0,1,.909-.9,3.776,3.776,0,0,1,1.24-.493l.655-.148a4.841,4.841,0,0,1,.627-.042,7.848,7.848,0,0,0,3.065-.55,1.029,1.029,0,0,0,.416-.634,6.345,6.345,0,0,0,.063-1.014,2.269,2.269,0,0,0-.1-.55,2.008,2.008,0,0,0-.444-.7,2.727,2.727,0,0,0-.86-.613,3.9,3.9,0,0,0-1.465-.225,2.817,2.817,0,0,0-3.156,2.818h-.7c.141-2.332,1.409-3.523,3.9-3.523a5.023,5.023,0,0,1,2.473.55,2.339,2.339,0,0,1,1.113,2.205Zm-.7-4.044a1.359,1.359,0,0,1-.62.373,4.165,4.165,0,0,1-.909.2c-.7.085-1.409.169-2.205.247q-2.818.19-2.818,2.459a2.064,2.064,0,0,0,.7,1.613,2.818,2.818,0,0,0,2.008.7,3.685,3.685,0,0,0,2.114-.514,3.065,3.065,0,0,0,1.162-1.092,4.169,4.169,0,0,0,.5-1.219,5.98,5.98,0,0,0,.1-.768Z" transform="translate(-76.593 -34.406)" fill="#1664ff"/>
    <path id="Path_1164" data-name="Path 1164" d="M307.758,132.6h-2.233v7.383c0,.824.19,1.346.585,1.564a2.818,2.818,0,0,0,1.627.268v.7a5.278,5.278,0,0,1-1.113-.035,2.551,2.551,0,0,1-.972-.317A1.606,1.606,0,0,1,305,141.4a3.03,3.03,0,0,1-.211-1.409v-7.4h-1.9v-.7h1.9V128.61h.74v3.283h2.233Z" transform="translate(-84.714 -33.157)" fill="#1664ff"/>
    <path id="Path_1165" data-name="Path 1165" d="M326.494,135.625h.07a3.149,3.149,0,0,1,1.409-1.768,4.34,4.34,0,0,1,2.487-.648v.782a3.213,3.213,0,0,0-1.346.106,3.685,3.685,0,0,0-1.479.923,3.8,3.8,0,0,0-.817,1.212,5.989,5.989,0,0,0-.338,1.839v5.777h-.74V133.279h.74Z" transform="translate(-91.466 -34.514)" fill="#1664ff"/>
    <path id="Path_1166" data-name="Path 1166" d="M354.911,141.779a2.571,2.571,0,0,0,.1.867.521.521,0,0,0,.578.416,3.482,3.482,0,0,0,.564-.063v.662a2.41,2.41,0,0,1-.62.077c-.578,0-.944-.155-1.1-.472a1.733,1.733,0,0,1-.261-1.071v-.55h-.042a3.522,3.522,0,0,1-1.339,1.62,4.325,4.325,0,0,1-2.487.7,4.107,4.107,0,0,1-2.445-.7,2.621,2.621,0,0,1-.993-2.3,3.022,3.022,0,0,1,.352-1.55,2.48,2.48,0,0,1,.909-.9,3.72,3.72,0,0,1,1.24-.493l.655-.148a4.846,4.846,0,0,1,.627-.042,7.768,7.768,0,0,0,3.058-.55,1.008,1.008,0,0,0,.423-.634,6.473,6.473,0,0,0,.056-1.014,2.2,2.2,0,0,0-.092-.55,2.114,2.114,0,0,0-.444-.7,2.818,2.818,0,0,0-.86-.613,3.931,3.931,0,0,0-1.465-.225,2.817,2.817,0,0,0-3.156,2.818h-.74c.141-2.332,1.444-3.523,3.9-3.523a5,5,0,0,1,2.466.55,2.332,2.332,0,0,1,1.12,2.205Zm-.74-4.044a1.409,1.409,0,0,1-.62.373,4.163,4.163,0,0,1-.909.2c-.7.085-1.444.169-2.205.247q-2.818.19-2.818,2.459a2.113,2.113,0,0,0,.7,1.613,2.818,2.818,0,0,0,2.008.7,3.671,3.671,0,0,0,2.114-.514,3.036,3.036,0,0,0,1.169-1.092,4.169,4.169,0,0,0,.5-1.219,5.975,5.975,0,0,0,.1-.768Z" transform="translate(-97.706 -34.406)" fill="#1664ff"/>
    <path id="Path_1167" data-name="Path 1167" d="M383.44,136.5a2.818,2.818,0,0,0-1.071-2.114,4,4,0,0,0-2.4-.7,3.438,3.438,0,0,0-2.91,1.409,5.3,5.3,0,0,0-1.043,3.276,5.925,5.925,0,0,0,1,3.523,3.417,3.417,0,0,0,2.959,1.409,3.459,3.459,0,0,0,2.417-.923,3.769,3.769,0,0,0,1.148-2.353h.74a4.452,4.452,0,0,1-1.409,2.917A4.347,4.347,0,0,1,379.98,144a4.114,4.114,0,0,1-3.586-1.726,6.841,6.841,0,0,1-1.106-3.917,6,6,0,0,1,1.2-3.818,4.227,4.227,0,0,1,3.487-1.606,4.749,4.749,0,0,1,2.867.845,3.523,3.523,0,0,1,1.346,2.677Z" transform="translate(-106.106 -34.432)" fill="#1664ff"/>
    <path id="Path_1168" data-name="Path 1168" d="M406.4,147.424V145.31h1v2.114Z" transform="translate(-115.301 -38.092)" fill="#1664ff"/>
    <path id="Path_1169" data-name="Path 1169" d="M434.145,136.518a2.818,2.818,0,0,0-1.071-2.114,4,4,0,0,0-2.4-.7,3.438,3.438,0,0,0-2.91,1.465,5.3,5.3,0,0,0-1.043,3.276,5.925,5.925,0,0,0,1,3.523,3.417,3.417,0,0,0,2.959,1.409,3.459,3.459,0,0,0,2.416-.923,3.769,3.769,0,0,0,1.148-2.367h.7A4.453,4.453,0,0,1,433.539,143a4.347,4.347,0,0,1-2.888,1.057,4.114,4.114,0,0,1-3.586-1.726,6.84,6.84,0,0,1-1.106-3.917,6,6,0,0,1,1.2-3.818,4.227,4.227,0,0,1,3.487-1.606,4.748,4.748,0,0,1,2.867.845,3.523,3.523,0,0,1,1.346,2.677Z" transform="translate(-121.079 -34.45)" fill="#1664ff"/>
    <path id="Path_1170" data-name="Path 1170" d="M454.838,138.5a6.171,6.171,0,0,1,1.226-3.91,4.53,4.53,0,0,1,6.953,0,6.869,6.869,0,0,1,0,7.792,4.488,4.488,0,0,1-6.953,0A6.143,6.143,0,0,1,454.838,138.5Zm.74,0a5.51,5.51,0,0,0,1.043,3.353,3.4,3.4,0,0,0,2.917,1.494,3.438,3.438,0,0,0,2.959-1.494,5.636,5.636,0,0,0,.993-3.353,5.727,5.727,0,0,0-.993-3.389,3.48,3.48,0,0,0-2.959-1.465,3.438,3.438,0,0,0-2.917,1.465A5.566,5.566,0,0,0,455.578,138.5Z" transform="translate(-129.613 -34.443)" fill="#1664ff"/>
    <path id="Path_1171" data-name="Path 1171" d="M484.66,133.176h.747v2.114h0a2.91,2.91,0,0,1,1.191-1.7,3.614,3.614,0,0,1,2.114-.7,4.452,4.452,0,0,1,1.332.176,3.1,3.1,0,0,1,.958.514,2.705,2.705,0,0,1,.9,1.55h.042a3.325,3.325,0,0,1,3.361-2.24,3.375,3.375,0,0,1,2.381.838,3.762,3.762,0,0,1,.93,2.755V143.7h-.747v-7.214a3.819,3.819,0,0,0-.3-1.627,1.944,1.944,0,0,0-.747-.838,2.113,2.113,0,0,0-.831-.359,3.924,3.924,0,0,0-.7-.07,3.128,3.128,0,0,0-2.388.993,3.987,3.987,0,0,0-.951,2.888v6.249h-.74v-7.235a3.671,3.671,0,0,0-.3-1.606,2.283,2.283,0,0,0-1.437-1.212,4.015,4.015,0,0,0-.7-.07,3.36,3.36,0,0,0-2.24.909,3.818,3.818,0,0,0-1.127,2.973v6.249h-.747Z" transform="translate(-138.426 -34.419)" fill="#1664ff"/>
  </g>
</svg>
