<svg xmlns="http://www.w3.org/2000/svg" width="326.98" height="1362.007" viewBox="0 0 326.98 1362.007">
 
 <defs><style>
        @import url('https://fonts.googleapis.com/css2?family=Roboto+Condensed:wght@300;400&amp;display=swap');
        </style></defs> <g id="Group_995" data-name="Group 995" transform="translate(-759.095 -3.486)">
    <g id="slideno2" transform="translate(1086.075 3.49) rotate(90)">
      <g id="Group_976" data-name="Group 976" transform="translate(517.51 844.49) rotate(-90)">
        <g id="Group_975" data-name="Group 975">
          <g id="Group_969" data-name="Group 969" transform="translate(844.49 -517.51) rotate(90)">
            <g id="Group_832" data-name="Group 832" transform="translate(67.898 56.087) rotate(-90)">
              <g id="سنهمم" transform="translate(0)">
                <path id="Path_4050" data-name="Path 4050" d="M39.933,6.057C44.875,12.28,46,21.324,40.763,28.5A17.939,17.939,0,0,0,37.4,36.841a14.475,14.475,0,0,0,.914,6.887,6.712,6.712,0,0,1,.249.705C32.5,46.8,26.478,49.162,20.373,51.569L20,50.822c-.332-.705-.664-1.411-1.038-2.074-2.035-3.485-5.108-4.688-9.095-3.817a11.979,11.979,0,0,1-3.654.041c-1.246-.124-1.62-.871-1.121-2.033a4.1,4.1,0,0,0-.581-4.273.832.832,0,0,1-.042-.705c.623-1.494.664-1.494-.581-2.572a1.634,1.634,0,0,1-.664-1.66c.083-.415.042-.83.083-1.245.042-1.079-.208-1.328-1.287-1.452a7.819,7.819,0,0,1-1.37-.207c-.581-.124-.831-.415-.5-1.037C.9,28.336,1.561,26.8,2.391,25.39a7.541,7.541,0,0,0,.748-6.265,11.807,11.807,0,0,1,.5-7.551A20.351,20.351,0,0,1,14.1,0c1.869,2.406,3.7,4.813,5.565,7.219a4.348,4.348,0,0,0-.457.332,12.042,12.042,0,0,0-1.993,18.835.839.839,0,0,1,.208,1.12c-.872,1.991-1.7,4.024-2.533,6.016a3.851,3.851,0,0,0,1.952,5.186,3.967,3.967,0,0,0,5.191-2.2c.872-2.033,1.7-4.107,2.533-6.14a.662.662,0,0,1,.748-.539A11.563,11.563,0,0,0,35.863,24.1a11.566,11.566,0,0,0,.249-12.114.871.871,0,0,1,.042-1.079C37.441,9.293,38.645,7.675,39.933,6.057Z" transform="translate(0 15.89)" fill="#1664ff"/>
                <path id="Path_4051" data-name="Path 4051" d="M0,0H30.772C27.367,4.481,24,8.92,20.64,13.359c-.664-.539-1.287-1.079-1.952-1.535A11.831,11.831,0,0,0,8.264,10.081a.927.927,0,0,1-.747-.166L.042.207A.554.554,0,0,0,0,0Z" transform="translate(13.936 12.073)" fill="#a8ddfd"/>
                <path id="Path_4052" data-name="Path 4052" d="M9.926,19.831A9.916,9.916,0,0,1,9.842,0a9.991,9.991,0,0,1,9.967,10.081A9.85,9.85,0,0,1,9.926,19.831Zm0-2.489A7.406,7.406,0,1,0,9.967,2.531,7.564,7.564,0,0,0,2.45,10.04,7.433,7.433,0,0,0,9.926,17.342Z" transform="translate(15.68 23.772)" fill="#8a8a8a"/>
                <path id="Path_4053" data-name="Path 4053" d="M2.794,0C3.874.456,4.87.913,5.95,1.369,5.327,2.9,4.663,4.481,4.04,6.057c-.208.539-.415,1.079-.664,1.577a1.893,1.893,0,0,1-2.409,1A1.677,1.677,0,0,1,.178,6.306C1.008,4.232,1.88,2.157,2.794,0Z" transform="translate(16.707 43.935)" fill="#8a8a8a"/>
                <path id="Path_4054" data-name="Path 4054" d="M8.056,6.928H0C1.329,4.605,2.616,2.365,3.987,0,5.357,2.365,6.686,4.605,8.056,6.928Z" transform="translate(13.521 2.863)" fill="#a8ddfd"/>
                <path id="Path_4055" data-name="Path 4055" d="M8.1,6.928H0C1.329,4.605,2.616,2.365,3.987,0,5.357,2.323,6.686,4.605,8.1,6.928Z" transform="translate(25.315 2.863)" fill="#a8ddfd"/>
                <path id="Path_4056" data-name="Path 4056" d="M8.1,6.928H0C1.329,4.605,2.616,2.365,3.987,0,5.4,2.323,6.728,4.605,8.1,6.928Z" transform="translate(37.067 2.863)" fill="#a8ddfd"/>
                <path id="Path_4057" data-name="Path 4057" d="M8.056,0c-1.37,2.282-2.7,4.481-4.07,6.762C2.658,4.481,1.37,2.282,0,0Z" transform="translate(31.212 1.991)" fill="#57a4ff"/>
                <path id="Path_4058" data-name="Path 4058" d="M3.945,6.762C2.658,4.564,1.412,2.448.208.373A1.818,1.818,0,0,0,0,0H8.015C6.645,2.282,5.316,4.481,3.945,6.762Z" transform="translate(19.459 1.991)" fill="#57a4ff"/>
                <path id="Path_4059" data-name="Path 4059" d="M2.619,2.105c-.54,0-1.038.041-1.578,0A1.025,1.025,0,0,1,0,1.068,1.014,1.014,0,0,1,1.082.031q1.62-.062,3.239,0A1.064,1.064,0,0,1,5.4,1.068a1.064,1.064,0,0,1-1.08,1.037h-1.7Z" transform="translate(50.686 9.801)" fill="#57a4ff"/>
                <path id="Path_4060" data-name="Path 4060" d="M2.7,0H4.277a1.03,1.03,0,0,1,1.08,1,1.072,1.072,0,0,1-1.08,1.079q-1.62.062-3.239,0A1,1,0,0,1,0,1.037,1.027,1.027,0,0,1,1.038,0H2.7Z" transform="translate(3.097 9.915)" fill="#57a4ff"/>
                <path id="Path_4061" data-name="Path 4061" d="M.994,3.554a6.635,6.635,0,0,1-.914-1A.778.778,0,0,1,.537,1.479C1.617.981,2.7.525,3.818.069c.457-.207.831.083,1.08.5s.332.954-.083,1.162C3.652,2.392,2.365,2.931.994,3.554Z" transform="translate(48.947 0.097)" fill="#57a4ff"/>
                <path id="Path_4062" data-name="Path 4062" d="M5.078,2.147a1.054,1.054,0,0,1-1.412,1.12A33.389,33.389,0,0,1,.552,1.94.925.925,0,0,1,.095.654.855.855,0,0,1,1.258.073C2.379.488,3.5.986,4.58,1.483,4.871,1.649,5,2.023,5.078,2.147Z" transform="translate(48.974 18.306)" fill="#57a4ff"/>
                <path id="Path_4063" data-name="Path 4063" d="M1.034.166a2.382,2.382,0,0,1,.581.166c.872.373,1.786.747,2.658,1.12A1.006,1.006,0,0,1,4.9,2.821a1.015,1.015,0,0,1-1.453.5c-.955-.373-1.91-.788-2.824-1.2A.928.928,0,0,1,.079.871C.2.539.619.29.868,0,.91.083.993.124,1.034.166Z" transform="translate(5.011)" fill="#57a4ff"/>
                <path id="Path_4064" data-name="Path 4064" d="M7.475,14.853A7.388,7.388,0,0,1,0,7.51,7.538,7.538,0,0,1,7.517,0a7.426,7.426,0,0,1-.042,14.852Zm5.233-7.426A5.378,5.378,0,0,0,7.434,2.075,5.4,5.4,0,0,0,2.076,7.427a5.45,5.45,0,0,0,5.357,5.352A5.324,5.324,0,0,0,12.708,7.427Z" transform="translate(18.131 26.261)" fill="#fff"/>
                <path id="Path_4065" data-name="Path 4065" d="M10.632,5.393A5.262,5.262,0,0,1,5.358,10.7,5.422,5.422,0,0,1,0,5.352,5.45,5.45,0,0,1,5.358,0,5.386,5.386,0,0,1,10.632,5.393Z" transform="translate(20.206 28.294)" fill="#1664ff"/>
              </g>
            </g>
            <g id="Group_833" data-name="Group 833" transform="translate(389.974 322.624) rotate(-90)">
              <g id="man_power-01" data-name="man power-01" transform="translate(0)">
                <path id="Path_4039" data-name="Path 4039" d="M38.128,21.789c-.862,0-1.455.054-2.1,0-1.024-.108-1.4.269-1.509,1.346a8.58,8.58,0,0,1-1.078,3.5c-1.186,1.831-.808,2.907,1.078,3.715A6.59,6.59,0,0,1,35.541,31c.539-.485.162-1.131.377-1.561a1.278,1.278,0,0,1,1.293-.861c.593.054.916.431,1.078,1.077.754,3.177-.054,4.846-3.072,6.03-.808.323-1.563.7-2.21-.215-.431-.646-.108-1.184,1.132-2.1-.539-.915-1.617-1.184-2.371-1.884s-1.347-.485-2.1.162a10.235,10.235,0,0,1-5.443,2.692c-1.725.215-2.317.969-2.048,2.638a12.96,12.96,0,0,1,0,2.046c.593.215.862-.269,1.293-.431a1.174,1.174,0,0,1,1.617.485,1.233,1.233,0,0,1-.216,1.507c-1.886,2.207-4.1,2.53-6.521.861-.7-.485-1.725-.861-1.186-2.046.593-1.292,1.617-.485,2.533-.269,0-.323.054-.592.054-.861.054-3.177.054-3.177-2.91-4.2a3.009,3.009,0,0,1-1.132-.485c-2.317-1.831-4.311-1.346-6.09.969.377.215.916.377,1.293.646a1.059,1.059,0,0,1,.431,1.454A1.377,1.377,0,0,1,10,37.457a4.5,4.5,0,0,1-4.689-4.684c0-.861-.323-1.938.916-2.207,1.347-.323,1.455.808,1.671,1.723.162-.054.323-.054.431-.108,2.425-1.723,2.425-1.723.97-4.146a9.1,9.1,0,0,1-1.563-3.984c-.108-1.938-.97-2.638-2.856-2.261a6.093,6.093,0,0,1-1.4,0c-.269.754.377,1.023.485,1.561a1.232,1.232,0,0,1-.647,1.4,1.247,1.247,0,0,1-1.347-.162A4.635,4.635,0,0,1,.781,18.236c.539-.808.916-2.154,2.263-1.507,1.186.538.485,1.615.162,2.584a12,12,0,0,1,1.4,0c2.048.377,3.234-.269,3.449-2.477A7.552,7.552,0,0,1,9.08,14.36c1.347-2.477,1.347-2.423-1.078-4.2-.377.808-.593,1.992-1.886,1.454-1.024-.431-.754-1.238-.593-2.1.647-3.392.97-3.715,4.689-4.146.808-.108,1.563-.108,1.778.915.162.808-.323,1.292-1.078,1.508-.269.108-.593.108-.97.215,1.94,2.53,1.94,2.477,4.311,1.184a16.836,16.836,0,0,1,2.263-.969c3.234-1.131,3.234-1.131,3.126-4.63-.431-.431-.7.108-1.024.162a1.227,1.227,0,0,1-1.509-.7c-.269-.646.054-1.023.431-1.454a4.758,4.758,0,0,1,7.383.323,1.229,1.229,0,0,1,.162,1.507,1.045,1.045,0,0,1-1.4.431c-.431-.162-.808-.377-1.293-.592a4.472,4.472,0,0,0-.108.7c-.108,3.123-.054,3.123,2.856,3.984a11.588,11.588,0,0,1,1.725.7c3.072,1.4,3.072,1.4,5.335-1.4-.916-.323-1.994-.592-1.563-1.831.377-1.184,1.347-.861,2.263-.7,3.072.592,4.257,2.1,4.1,5.222-.054.592-.162,1.077-.862,1.238a1.094,1.094,0,0,1-1.4-.592,13.466,13.466,0,0,1-.485-1.346c-.431-.054-.539.323-.808.485-1.832,1.238-2.317,2.584-.539,4.361a4.007,4.007,0,0,1,1.078,2.423C34.3,19.1,35.7,19.8,38.074,19.1c.216-.431-.377-.808-.323-1.238.108-1.077.862-1.831,1.778-1.131,1.186.915,2.425,2.315,2.317,3.715a6.04,6.04,0,0,1-2.695,4.2c-.754.538-1.617-.054-1.563-1.184C37.535,23.028,37.858,22.543,38.128,21.789Z" transform="translate(16.088 16.006)" fill="#1664ff"/>
                <path id="Path_4040" data-name="Path 4040" d="M7.276,0a7.266,7.266,0,0,1,7.383,7.268,7.408,7.408,0,0,1-7.168,7.322A7.38,7.38,0,0,1,0,7.377,7.368,7.368,0,0,1,7.276,0Z" transform="translate(30.126 59.653)" fill="#8a8a8a"/>
                <path id="Path_4041" data-name="Path 4041" d="M7.276,0a7.265,7.265,0,0,1,7.329,7.322A7.368,7.368,0,0,1,7.222,14.59,7.361,7.361,0,0,1,0,7.376,7.266,7.266,0,0,1,7.276,0Z" transform="translate(0 30.796)" fill="#8a8a8a"/>
                <path id="Path_4042" data-name="Path 4042" d="M7.383,0a7.3,7.3,0,0,1,7.275,7.376,7.417,7.417,0,0,1-7.491,7.214A7.3,7.3,0,0,1,7.383,0Z" transform="translate(8.731 50.985)" fill="#a8ddfd"/>
                <path id="Path_4043" data-name="Path 4043" d="M0,7.161a7.252,7.252,0,1,1,14.5.377,7.177,7.177,0,0,1-7.383,7A7.1,7.1,0,0,1,0,7.161Z" transform="translate(59.766 28.857)" fill="#8a8a8a"/>
                <path id="Path_4044" data-name="Path 4044" d="M7.17,0A7.333,7.333,0,0,1,14.5,7.322a7.161,7.161,0,0,1-7.114,7.214A7.112,7.112,0,0,1,0,7.376,7.143,7.143,0,0,1,7.17,0Z" transform="translate(29.639 0)" fill="#8a8a8a"/>
                <path id="Path_4045" data-name="Path 4045" d="M7.329,14.59A7.187,7.187,0,0,1,0,7.322,7.3,7.3,0,1,1,7.329,14.59Z" transform="translate(50.983 8.614)" fill="#a8ddfd"/>
                <path id="Path_4046" data-name="Path 4046" d="M14.6,7.217a7.369,7.369,0,0,1-7.222,7.43A7.461,7.461,0,0,1,0,7.271,7.361,7.361,0,0,1,7.168,0,7.333,7.333,0,0,1,14.6,7.217Z" transform="translate(7.815 9.635)" fill="#a8ddfd"/>
                <path id="Path_4047" data-name="Path 4047" d="M0,7.268A7.22,7.22,0,0,1,7.329,0a7.187,7.187,0,0,1,7.222,7.376,7.207,7.207,0,0,1-7.222,7.161A7.22,7.22,0,0,1,0,7.268Z" transform="translate(53.138 49.047)" fill="#a8ddfd"/>
                <path id="Path_4048" data-name="Path 4048" d="M18.136,19.881a8.02,8.02,0,0,0-3.18-4.415c-1.4-.861-2.749-1.615-3.449.808-.808-.485-.647-1.938-1.725-1.723a5.909,5.909,0,0,0-2.263.915,7.265,7.265,0,0,0-3.126,4.2C1.537,18.535-.565,13.151.136,9.382A11.424,11.424,0,0,1,9.836.068,11.251,11.251,0,0,1,21.477,6.744C23.471,11.321,22.231,16.381,18.136,19.881Z" transform="translate(25.949 25.936)" fill="#fefefe"/>
                <path id="Path_4049" data-name="Path 4049" d="M10.133,5.008a5.1,5.1,0,0,1-5.066,5.115A5.061,5.061,0,0,1,4.959,0,5,5,0,0,1,10.133,5.008Z" transform="translate(32.066 28.426)" fill="#57a4ff"/>
              </g>
            </g>
            <g id="Group_836" data-name="Group 836" transform="translate(712.139 66.952) rotate(-90)">
              <g id="App" transform="translate(0)">
                <path id="Path_4034" data-name="Path 4034" d="M23.5,13.673c.881-.528,1.939-1.629,3.172-1.849,1.63-.308,2.511,1.056,3.04,2.6,1.234,3.521,2.6,7,3.833,10.52,2.247,6.382.529,12.677-4.538,16.55A14.418,14.418,0,0,1,11.6,41.4c-3.128-2.289-6.124-4.754-9.12-7.219C.59,32.644.326,30.576,1.647,28.991c1.278-1.541,3.3-1.629,5.287-.176a11.221,11.221,0,0,0,2.908,1.8C8.3,26.394,6.758,22.125,5.216,17.9,3.586,13.453,1.912,8.964.326,4.518-.423,2.449.149.865,1.736.249c1.851-.7,3.3.088,4.142,2.377C7.111,5.971,8.345,9.316,9.4,12.177c1.366-.7,2.82-2.113,3.965-1.937,1.322.22,2.335,1.893,3.216,2.685.925-.572,2.291-2.069,3.3-1.893C21.254,11.3,22.444,12.837,23.5,13.673Z" transform="translate(15.888 31.707)" fill="#1664ff"/>
                <path id="Path_4035" data-name="Path 4035" d="M3,58.673H15.421c-.308,1.849-1.013,3.7-.7,5.326.308,1.585,1.674,2.905,2.732,4.666H14.011c-3,0-6.036.044-9.032-.044a4.668,4.668,0,0,1-4.891-4.4A22.232,22.232,0,0,1,0,61.8V6.6C0,1.5,1.454,0,6.477,0H32.251c3.657,0,5.551,1.717,5.6,5.282.044,11.532,0,23.02,0,34.553,0,.22-.088.44-.132.792-.837-.132-1.63-.264-2.644-.44V10.124H2.908C3,26.278,3,42.343,3,58.673Zm16.126-52.6h0c1.63-.044,3.216.044,4.847-.088.4-.044.749-.66,1.146-1.012-.4-.352-.749-1.012-1.146-1.012-3-.088-5.992-.088-9.032,0-.441,0-.837.748-1.278,1.144.441.308.837.88,1.278.924C16.346,6.162,17.712,6.074,19.122,6.074Z" transform="translate(0 0)" fill="#8a8a8a"/>
                <path id="Path_4036" data-name="Path 4036" d="M11.636,25.488A12.5,12.5,0,0,1,0,13.427,12.811,12.811,0,0,1,11.592.046C20.8-.7,27.938,7.749,25.339,16.288c-.352,1.188-.749,1.937-2.071.836,1.5-4.71.837-8.979-2.908-12.457a10.869,10.869,0,0,0-12.249-1.8A11.077,11.077,0,0,0,1.9,13.6a11.253,11.253,0,0,0,7.446,9.728,14.118,14.118,0,0,1,2.688,1.629A4.129,4.129,0,0,0,11.636,25.488Z" transform="translate(6.164 22.094)" fill="#a8ddfd"/>
                <path id="Path_4037" data-name="Path 4037" d="M5.68,15.92A7.934,7.934,0,0,1,.569,5.268,8.356,8.356,0,0,1,11.848.734c4.406,1.893,6.124,7.131,3.216,11.62a13.933,13.933,0,0,1,.22-2.333,7.155,7.155,0,0,0-3.7-7.967A6.927,6.927,0,0,0,3.3,3.463a6.812,6.812,0,0,0-1.013,8.5,17.106,17.106,0,0,0,1.895,2.113C4.622,14.555,4.975,15.084,5.68,15.92Z" transform="translate(10.666 26.6)" fill="#1664ff"/>
                <path id="Path_4038" data-name="Path 4038" d="M5.463,2.179c-1.41,0-2.776.088-4.186-.044C.837,2.091.441,1.519,0,1.21.441.814.837.066,1.278.066c3-.088,5.992-.088,9.032,0,.4,0,.749.66,1.146,1.012-.4.352-.749,1.012-1.146,1.012-1.63.132-3.216.088-4.847.088Z" transform="translate(13.658 3.895)" fill="#fff"/>
              </g>
            </g>
            <g id="Group_837" data-name="Group 837" transform="translate(1041.092 326.98) rotate(-90)">
              <g id="_93-letter-630x200-01" data-name="93-letter-630x200-01">
                <path id="Path_4027" data-name="Path 4027" d="M24.636,12.5a28.728,28.728,0,0,0,5.732,4.109c4.288,2.317,8.577,4.5,12.909,6.688a21.206,21.206,0,0,0,2.363.743.63.63,0,0,1,.394.481V37.808a.338.338,0,0,1-.044.131c-.175-.087-.394-.175-.569-.262-2.844-1.268-5.689-2.579-8.533-3.8a9.673,9.673,0,0,0-4.463-.656,29.258,29.258,0,0,1-4.376.087,18.783,18.783,0,0,1-5.689-1.617,20.865,20.865,0,0,0-2.888-1.137A16.183,16.183,0,0,1,20.7,31.775a3.062,3.062,0,0,1,.788,2.885c-.219.743-.569,1.4-1.444,1.486a1.468,1.468,0,0,1-1.05-.262c-1.269-1.049-2.45-2.1-3.676-3.191a2.961,2.961,0,0,1-.613-1.005c-.219-.568-.35-1.18-.569-1.836h-.963c.306.437.613.831.875,1.224a3.887,3.887,0,0,1-.131,4.065,1.719,1.719,0,0,1-2.8.044A20.734,20.734,0,0,1,9.5,32.956c-.263-.393-.481-.787-.656-1.093a10.757,10.757,0,0,1-1.488,1.093A1.52,1.52,0,0,1,5.12,31.907a15.738,15.738,0,0,1-.35-1.617c-1.356.7-2.757,1.4-4.157,2.1A1.392,1.392,0,0,1,0,32.475a2.578,2.578,0,0,1,.088-.612c.525-1.18,1.094-2.317,1.663-3.5l-.263-.131c-.788-.306-.963-.656-.7-1.443C1.4,25.174,2.1,23.644,2.625,22.027c.569-1.749,1.006-3.541,1.488-5.333.175-.656.438-1.311.569-1.967A2.062,2.062,0,0,1,6.3,13.153c3.063-.831,6.039-1.967,9.277-2.186.919-.044,1.838-.481,2.8-.612a10.4,10.4,0,0,1,2.319-.087,1,1,0,0,0,.919-.306C25.073,6.771,28.53,3.579,31.943.344c.438-.437.744-.481,1.138,0a19.562,19.562,0,0,0,1.838,1.967c.394.393.394.612-.044,1.005C31.637,6.159,28.4,9,25.161,11.885A1.561,1.561,0,0,1,24.636,12.5Z" transform="translate(36.713 9.666)" fill="#1664ff"/>
                <path id="Path_4028" data-name="Path 4028" d="M0,64.436V0H50.409V17.7c-1.4.306-2.8.612-4.288.918V4.371H4.376V60.108h41.7V47.474a5.639,5.639,0,0,0,4.332,1.093V64.479Q25.27,64.414,0,64.436Z" fill="#8a8a8a"/>
                <path id="Path_4029" data-name="Path 4029" d="M32.25.044a5.863,5.863,0,0,0-2.538,3.8.594.594,0,0,1-.656.525H.394A1.213,1.213,0,0,1,0,4.328V0Q16.081.066,32.25.044Z" transform="translate(8.62 20.24)" fill="#57a4ff"/>
                <path id="Path_4030" data-name="Path 4030" d="M0,0H28.968c-.481,1.4-.919,2.754-1.4,4.109a.785.785,0,0,1-.306.219,1.468,1.468,0,0,1-.438,0H.044C0,2.885,0,1.486,0,0Z" transform="translate(8.577 27.497)" fill="#57a4ff"/>
                <path id="Path_4031" data-name="Path 4031" d="M0,4.284V0H19.341V4.284Z" transform="translate(15.578 12.022)" fill="#57a4ff"/>
                <path id="Path_4032" data-name="Path 4032" d="M18.685,0V4.328H0V0Z" transform="translate(8.62 35.322)" fill="#57a4ff"/>
                <path id="Path_4033" data-name="Path 4033" d="M15.065,2.623A22.9,22.9,0,0,1,13.971,4.94c-.7,1.137-1.356,1.18-2.275.262C10.645,8,9.507,8.35,7.276,6.47c-.219.393-.35.831-.613,1.224a2.442,2.442,0,0,1-4.2.481,12.206,12.206,0,0,1-2.45-4.94c-.044-.087.044-.262.088-.393.131.087.306.131.35.262A27.035,27.035,0,0,0,1.456,5.727,9.58,9.58,0,0,0,3.075,8.044a1.77,1.77,0,0,0,2.932-.306,4.106,4.106,0,0,0,.656-1.4,1.223,1.223,0,0,0-.088-.874,7.948,7.948,0,0,1-.788-4.9A2.936,2.936,0,0,1,6.051.044c.131.131.35.219.438.393A7.549,7.549,0,0,1,7.363,5.2,1.939,1.939,0,0,0,8.807,6.951a1.335,1.335,0,0,0,1.707-.525,5.378,5.378,0,0,0,.744-2.973,2.826,2.826,0,0,1,.175-.568c.088.175.219.35.306.525a11.48,11.48,0,0,0,.35,1.311c.263.656.656.743,1.138.219a4.791,4.791,0,0,0,1.225-2.8c.044-.175.131-.35.175-.525a1.362,1.362,0,0,1,.394.306.619.619,0,0,0,.963,0A9.3,9.3,0,0,0,17.077.437,3.941,3.941,0,0,1,17.471,0a3.094,3.094,0,0,1,.044.612,8.153,8.153,0,0,1-.7,1.224A1.531,1.531,0,0,1,15.065,2.623ZM6.926,4.765a5.8,5.8,0,0,0-.613-3.628A6.061,6.061,0,0,0,6.926,4.765Z" transform="translate(18.454 45.682)" fill="#1664ff"/>
              </g>
            </g>
            <g id="slide2" transform="translate(0 23.609)">
              <line id="Line_10" data-name="Line 10" x2="1362" y2="10.01" transform="translate(0 137.081)" fill="none" stroke="#707070" stroke-width="1" stroke-dasharray="2 2"/>
              <text style="text-align: center;font-weight:400; font-family:Roboto Condensed" id="We_invite_you_to_visit_our_facilities_in_Bangladesh_or_you_monitor_our_interview_and_selection_process_via_our_app_Amiprobashi" data-name="We invite you to visit our facilities in Bangladesh, or you monitor our interview
and selection process 
via our app Amiprobashi" transform="translate(804 137.135) rotate(-90)" fill="#0054a5" font-size="15" font-family="RobotoCondensed-Regular, Roboto"><tspan x="0" y="14">WE INVITE YOU TO </tspan><tspan x="0" y="31">VISIT OUR FACILITIES </tspan><tspan x="0" y="48">IN BANGLADESH, OR </tspan><tspan x="0" y="65">YOU MONITOR OUR </tspan><tspan x="0" y="82">INTERVIEW</tspan><tspan x="0" y="99">AND SELECTION </tspan><tspan x="0" y="116">PROCESS </tspan><tspan x="0" y="133">VIA OUR APP </tspan><tspan x="0" y="150">AMIPROBASHI</tspan></text>
              <g id="Group_800" data-name="Group 800" transform="translate(410 121.218)">
                <g id="Group_796" data-name="Group 796" transform="translate(0 0)">
                  <ellipse id="Ellipse_36" data-name="Ellipse 36" cx="16" cy="16.016" rx="16" ry="16.016" fill="#0054a5"/>
                  <ellipse id="Ellipse_37" data-name="Ellipse 37" cx="7" cy="7.007" rx="7" ry="7.007" transform="translate(9 9.009)" fill="#fff"/>
                </g>
                <line id="Line_2" data-name="Line 2" y2="69.068" transform="translate(16.5 32.532)" fill="none" stroke="#0054a5" stroke-width="1"/>
              </g>
              <g id="Group_802" data-name="Group 802" transform="translate(84 53.937)">
                <g id="Group_795" data-name="Group 795" transform="translate(0 66.566)">
                  <ellipse id="Ellipse_36-2" data-name="Ellipse 36" cx="16" cy="16.016" rx="16" ry="16.016" transform="translate(0 0)" fill="#0054a5"/>
                  <ellipse id="Ellipse_37-2" data-name="Ellipse 37" cx="7" cy="7.007" rx="7" ry="7.007" transform="translate(9 9.009)" fill="#fff"/>
                </g>
                <line id="Line_3" data-name="Line 3" y2="69.068" transform="translate(16.5)" fill="none" stroke="#0054a5" stroke-width="1"/>
              </g>
              <g id="Group_803" data-name="Group 803" transform="translate(729 54.938)">
                <g id="Group_795-2" data-name="Group 795" transform="translate(0 66.566)">
                  <ellipse id="Ellipse_36-3" data-name="Ellipse 36" cx="16" cy="16.016" rx="16" ry="16.016" transform="translate(0 0)" fill="#0054a5"/>
                  <ellipse id="Ellipse_37-3" data-name="Ellipse 37" cx="7" cy="7.007" rx="7" ry="7.007" transform="translate(9 9.009)" fill="#fff"/>
                </g>
                <line id="Line_3-2" data-name="Line 3" y2="69.068" transform="translate(16.5)" fill="none" stroke="#0054a5" stroke-width="1"/>
              </g>
              <g id="Group_801" data-name="Group 801" transform="translate(1051 123.22)">
                <g id="Group_796-2" data-name="Group 796" transform="translate(0 0)">
                  <ellipse id="Ellipse_36-4" data-name="Ellipse 36" cx="16" cy="16.016" rx="16" ry="16.016" fill="#0054a5"/>
                  <ellipse id="Ellipse_37-4" data-name="Ellipse 37" cx="7" cy="7.007" rx="7" ry="7.007" transform="translate(9 9.009)" fill="#fff"/>
                </g>
                <line id="Line_2-2" data-name="Line 2" y2="69.068" transform="translate(16.5 32.532)" fill="none" stroke="#0054a5" stroke-width="1"/>
              </g>
              <text style="text-align: center;font-weight:400; font-family:Roboto Condensed" id="We_conduct_thorough_interviews_verification_from_our_vast_manpower_database" data-name="We conduct thorough interviews
&amp; verification from our vast manpower 
database" transform="translate(482.5 301.826) rotate(-90)" fill="#0054a5" font-size="15" font-family="RobotoCondensed-Regular, Roboto"><tspan x="0" y="14">WE CONDUCT </tspan><tspan x="0" y="31">THOROUGH </tspan><tspan x="0" y="48">INTERVIEWS</tspan><tspan x="0" y="65">&amp; VERIFICATION </tspan><tspan x="0" y="82">FROM OUR VAST </tspan><tspan x="0" y="99">MANPOWER </tspan><tspan x="0" y="116">DATABASE</tspan></text>
              <text style="text-align: center;font-weight:400; font-family:Roboto Condensed" id="You_decide_on_the_exact_individuals_you_want_joining_your_team_based_on_skill_sets" data-name="You decide on the exact  individuals
you want joining your team based on 
skill sets" transform="translate(143.5 136.635) rotate(-90)" fill="#0054a5" font-size="15" font-family="RobotoCondensed-Regular, Roboto"><tspan x="0" y="14">YOU DECIDE ON THE </tspan><tspan x="0" y="31" xml:space="preserve">EXACT  INDIVIDUALS</tspan><tspan x="0" y="48">YOU WANT JOINING </tspan><tspan x="0" y="65">YOUR TEAM BASED </tspan><tspan x="0" y="82">ON </tspan><tspan x="0" y="99">SKILL SETS</tspan></text>
              <text style="text-align: center;font-weight:400; font-family:Roboto Condensed" id="Agency_agreement:_we_mutually_agree_to_the_terms_conditions_of_our_agency_firmly_decide_on_our_responsibilities" data-name="Agency agreement: we mutually 
agree to the terms &amp; conditions
of our agency, &amp; firmly decide on 
our responsibilities" transform="translate(1124.5 302.298) rotate(-90)" fill="#0054a5" font-size="15" font-family="RobotoCondensed-Regular, Roboto"><tspan x="0" y="14">AGENCY AGREEMENT: </tspan><tspan x="0" y="31">WE MUTUALLY </tspan><tspan x="0" y="48">AGREE TO THE TERMS &amp; </tspan><tspan x="0" y="65">CONDITIONS</tspan><tspan x="0" y="82">OF OUR AGENCY, &amp; </tspan><tspan x="0" y="99">FIRMLY DECIDE ON </tspan><tspan x="0" y="116">OUR RESPONSIBILITIES</tspan></text>
            </g>
          </g>
        </g>
      </g>
    </g>
  </g>
</svg>
