<svg xmlns="http://www.w3.org/2000/svg" width="326.98" height="1362.007" viewBox="0 0 326.98 1362.007">
 
 <defs><style>
        @import url('https://fonts.googleapis.com/css2?family=Roboto+Condensed:wght@300;400&amp;display=swap');
        </style></defs> <g id="Group_970" data-name="Group 970" transform="translate(-1919.51 -210.381)">
    <g id="slideno3" transform="translate(1919.51 210.385)">
      <g id="slide30" transform="translate(326.98) rotate(90)">
        <g id="slide2" transform="translate(0 11.26)">
          <g id="slide3" transform="translate(0 0)">
            <g id="slide_1" data-name="slide 1">
              <line id="Line_10" data-name="Line 10" x2="1362" y2="10.011" transform="translate(0 144.967)" fill="none" stroke="#707070" stroke-width="1" stroke-dasharray="2 2"/>
              <text style="text-align: center;font-weight:400; font-family:Roboto Condensed" id="Visas_NOC_and_work_permits:_Jointly_we_complete_necessary_steps_to_execute_visas_and_work_permits._" data-name="Visas/ NOC/ and work permits:
Jointly, we complete necessary
steps to execute visas and
work permits. " transform="translate(469 303.832) rotate(-90)" fill="#0054a5" font-size="15" font-family="RobotoCondensed-Regular, Roboto"><tspan x="0" y="14">VISAS/ NOC/ AND </tspan><tspan x="0" y="31">WORK PERMITS:</tspan><tspan x="0" y="48">JOINTLY, WE </tspan><tspan x="0" y="65">COMPLETE </tspan><tspan x="0" y="82">NECESSARY</tspan><tspan x="0" y="99">STEPS TO EXECUTE </tspan><tspan x="0" y="116">VISAS AND</tspan><tspan x="0" y="133">WORK PERMITS. </tspan></text>
              <g id="Group_800" data-name="Group 800" transform="translate(410 130.643)">
                <g id="Group_796" data-name="Group 796" transform="translate(0 0)">
                  <ellipse id="Ellipse_36" data-name="Ellipse 36" cx="16" cy="16.018" rx="16" ry="16.018" fill="#0054a5"/>
                  <ellipse id="Ellipse_37" data-name="Ellipse 37" cx="7" cy="7.008" rx="7" ry="7.008" transform="translate(9 9.01)" fill="#fff"/>
                </g>
                <line id="Line_2" data-name="Line 2" y2="69.076" transform="translate(16.5 32.83)" fill="none" stroke="#0054a5" stroke-width="1"/>
              </g>
              <g id="Group_802" data-name="Group 802" transform="translate(84 63.463)">
                <g id="Group_795" data-name="Group 795" transform="translate(0 66.179)">
                  <ellipse id="Ellipse_36-2" data-name="Ellipse 36" cx="16" cy="16.018" rx="16" ry="16.018" fill="#0054a5"/>
                  <ellipse id="Ellipse_37-2" data-name="Ellipse 37" cx="7" cy="7.008" rx="7" ry="7.008" transform="translate(9 9.01)" fill="#fff"/>
                </g>
                <line id="Line_3" data-name="Line 3" y2="69.076" transform="translate(16.5 0)" fill="none" stroke="#0054a5" stroke-width="1"/>
              </g>
              <g id="Group_803" data-name="Group 803" transform="translate(729 63.463)">
                <g id="Group_795-2" data-name="Group 795" transform="translate(0 66.179)">
                  <ellipse id="Ellipse_36-3" data-name="Ellipse 36" cx="16" cy="16.018" rx="16" ry="16.018" fill="#0054a5"/>
                  <ellipse id="Ellipse_37-3" data-name="Ellipse 37" cx="7" cy="7.008" rx="7" ry="7.008" transform="translate(9 9.01)" fill="#fff"/>
                </g>
                <line id="Line_3-2" data-name="Line 3" y2="69.076" transform="translate(16.5 0)" fill="none" stroke="#0054a5" stroke-width="1"/>
              </g>
              <g id="Group_801" data-name="Group 801" transform="translate(1051 132.645)">
                <g id="Group_796-2" data-name="Group 796" transform="translate(0 0)">
                  <ellipse id="Ellipse_36-4" data-name="Ellipse 36" cx="16" cy="16.018" rx="16" ry="16.018" fill="#0054a5"/>
                  <ellipse id="Ellipse_37-4" data-name="Ellipse 37" cx="7" cy="7.008" rx="7" ry="7.008" transform="translate(9 9.01)" fill="#fff"/>
                </g>
                <line id="Line_2-2" data-name="Line 2" y2="69.076" transform="translate(16.5 32.869)" fill="none" stroke="#0054a5" stroke-width="1"/>
              </g>
              <text style="text-align: center;font-weight:400; font-family:Roboto Condensed" id="Consular_letter_-_we_ensure_authorization_from_employer_s_home_embassy_in_Bangladesh_withdraw_work_permits_finalize_all_documentation_checklist_" data-name="Consular letter - 
we ensure
authorization from employer’s
home embassy in Bangladesh &amp;
withdraw work permits &amp; finalize
all documentation checklist " transform="translate(799.5 145.159) rotate(-90)" fill="#0054a5" font-size="15" font-family="RobotoCondensed-Regular, Roboto"><tspan x="0" y="14">CONSULAR LETTER - </tspan><tspan x="0" y="31">WE ENSURE</tspan><tspan x="0" y="48">AUTHORIZATION FROM </tspan><tspan x="0" y="65">EMPLOYER’S</tspan><tspan x="0" y="82">HOME EMBASSY IN </tspan><tspan x="0" y="99">BANGLADESH &amp;</tspan><tspan x="0" y="116">WITHDRAW WORK </tspan><tspan x="0" y="133">PERMITS &amp; FINALIZE</tspan><tspan x="0" y="150">ALL DOCUMENTATION </tspan><tspan x="0" y="167">CHECKLIST </tspan></text>
              <text style="text-align: center;font-weight:400; font-family:Roboto Condensed" id="Employee_migration-_Thanex_takes_care_of_all_ticketing_and_logistics_your_new_recruit_is_on_their_way_to_join_your_thriving_company" data-name="Employee migration- Thanex takes 
care of all ticketing and logistics 
&amp; your new recruit is on their way 
to join your thriving company" transform="translate(1122.5 303.332) rotate(-90)" fill="#0054a5" font-size="15" font-family="RobotoCondensed-Regular, Roboto"><tspan x="0" y="14">EMPLOYEE </tspan><tspan x="0" y="31">MIGRATION- THANEX </tspan><tspan x="0" y="48">TAKES </tspan><tspan x="0" y="65">CARE OF ALL </tspan><tspan x="0" y="82">TICKETING AND </tspan><tspan x="0" y="99">LOGISTICS </tspan><tspan x="0" y="116">&amp; YOUR NEW RECRUIT </tspan><tspan x="0" y="133">IS ON THEIR WAY </tspan><tspan x="0" y="150">TO JOIN YOUR </tspan><tspan x="0" y="167">THRIVING COMPANY</tspan></text>
              <text style="text-align: center;font-weight:400; font-family:Roboto Condensed" id="Employment_contract:_a_standard_employment_contract_detailing_wages_hours_holidays_is_executed_between_you_and_your_new_recruit_" data-name="Employment contract: a standard employment contract detailing wages, hours, holidays, is executed between you and your new recruit " transform="translate(162.5 136.149) rotate(-90)" fill="#0054a5" font-size="15" font-family="RobotoCondensed-Regular, Roboto"><tspan x="0" y="14">EMPLOYMENT </tspan><tspan x="0" y="31">CONTRACT: A </tspan><tspan x="0" y="48">STANDARD </tspan><tspan x="0" y="65">EMPLOYMENT </tspan><tspan x="0" y="82">CONTRACT DETAILING </tspan><tspan x="0" y="99">WAGES, HOURS, </tspan><tspan x="0" y="116">HOLIDAYS, IS </tspan><tspan x="0" y="133">EXECUTED BETWEEN </tspan><tspan x="0" y="150">YOU AND YOUR NEW </tspan><tspan x="0" y="167">RECRUIT </tspan></text>
            </g>
          </g>
        </g>
        <g id="Group_839" data-name="Group 839" transform="translate(68.245 0)">
          <g id="Group_828" data-name="Group 828" transform="translate(0 60.391) rotate(-90)">
            <g id="contrac">
              <path id="Path_4066" data-name="Path 4066" d="M45.032,12.673C44.169,12.63,44,12.414,44,11.553s-.043-1.68,0-2.542c.043-.517-.129-.646-.647-.646H2.329c-.518,0-.733.043-.733.646,0,14.736.043,29.515,0,44.25A7.4,7.4,0,0,0,6.686,60.5c4.141,1.25,9.576-.819,9.921-6.894.086-1.206.173-1.336,1.38-1.336H50.165c1.251,0,1.423.215,1.337,1.422a9.143,9.143,0,0,1-7.247,8.531,9.9,9.9,0,0,1-2.243.215H8.713A9.057,9.057,0,0,1,.129,54.984,16.638,16.638,0,0,1,0,52.916V7.976C0,6.9.173,6.727,1.294,6.727H6.6c.388,0,.518-.086.518-.517.043-1.723.173-3.447.259-5.127.043-.9.345-1.12,1.208-1.077,4.4.215,8.8.474,13.2.689l17.081.9c4.313.215,8.67.474,12.983.689.863.043,1.035.259.992,1.12C52.8,4.443,52.71,5.52,52.71,6.554a1.022,1.022,0,0,1-.69.991.918.918,0,0,1-.949-1.12c.043-.646.043-1.336.129-1.982.043-.474-.129-.6-.561-.6-2.243-.086-4.443-.172-6.686-.3-5.866-.3-11.776-.6-17.642-.948-1.855-.086-3.753-.215-5.607-.3-3.71-.215-7.462-.388-11.172-.6-.431-.043-.518.129-.518.517C8.972,3.409,8.843,4.659,8.8,5.865c-.043,1.12-.086.9.863.9H44.385c1.078,0,1.251.215,1.251,1.25v3.533A1.406,1.406,0,0,1,45.032,12.673Zm-30.8,48.171c9.619,0,19.065.043,28.512,0a7.154,7.154,0,0,0,7.074-6.291c.086-.517,0-.689-.561-.646-3.537.043-7.117,0-10.654,0H18.85c-.518,0-.69.172-.733.646a8.651,8.651,0,0,1-.388,1.767A9.867,9.867,0,0,1,14.234,60.844Z" transform="translate(3.796)" fill="#8a8a8a"/>
              <path id="Path_4067" data-name="Path 4067" d="M36.294,10.994a1.137,1.137,0,0,0,.561-1.12c-.043-1.163,0-2.37,0-3.533,0-1.034-.216-1.25-1.251-1.25H.881c-.949,0-.906.215-.863-.9C.061,2.979.191,1.73.234.524c0-.388.086-.56.518-.517,3.71.215,7.462.431,11.172.6,1.855.086,3.753.215,5.607.3,5.866.3,11.776.6,17.642.948,2.243.129,4.443.215,6.686.3.474,0,.647.129.561.6-.086.646-.086,1.336-.129,1.982a.918.918,0,0,0,.949,1.12V7.331a3.954,3.954,0,0,0-2.674,1.206c-.863.9-1.812,1.723-2.631,2.671a1.417,1.417,0,0,1-1.725.431A1.673,1.673,0,0,0,36.294,10.994Z" transform="translate(12.534 1.679)" fill="#57a4ff"/>
              <path id="Path_4068" data-name="Path 4068" d="M22.886,4.309a1.365,1.365,0,0,0,1.725-.431c.82-.948,1.768-1.767,2.631-2.671A3.7,3.7,0,0,1,29.917,0,3.251,3.251,0,0,1,32.85,2.2,3.365,3.365,0,0,1,31.858,5.9c-.733.732-1.467,1.465-2.243,2.2-.259.259-.3.431-.043.732.474.6.431.862-.173,1.379a1.047,1.047,0,0,1-1.035-.345c-.173-.259-.345-.172-.518,0-1.639,1.68-3.278,3.318-4.917,4.955-.173.172-.388.3-.561.474L7.444,30.2a2.476,2.476,0,0,1-1.165.689c-.776.172-1.51.474-2.243.646a4.207,4.207,0,0,0-2.545,1.422.728.728,0,0,1-1.208.086A.723.723,0,0,1,.37,31.841a3.508,3.508,0,0,0,1.251-2.456c.086-.517.259-1.034.3-1.594A4.578,4.578,0,0,1,3.476,24.9C9.687,18.786,15.855,12.581,22.023,6.42l.6-.6a4.585,4.585,0,0,0-3.364,1.336c-.949.9-1.855,1.81-2.761,2.758l-2.329,2.327a.822.822,0,0,1-1.251.129c-.388-.345-.345-.819.086-1.293,1.682-1.68,3.364-3.4,5.09-5.084A6.66,6.66,0,0,1,22.886,4.309Zm3.968,4.223a.43.43,0,0,0-.173-.215,15.912,15.912,0,0,0-1.769-1.637.614.614,0,0,0-.949.086c-1.725,1.767-3.451,3.49-5.219,5.214L11.11,19.6c-.3.3-.388.474,0,.776a18.563,18.563,0,0,1,1.6,1.594c.3.3.474.259.733,0L26.509,8.919C26.639,8.79,26.725,8.661,26.854,8.531ZM11.887,23.482a.6.6,0,0,0-.129-.172L9.773,21.328c-.173-.172-.3-.043-.431.086l-4.4,4.395a.362.362,0,0,0,0,.6c.6.56,1.165,1.163,1.769,1.767.259.259.431.172.647-.043,1.423-1.422,2.847-2.887,4.313-4.309A.68.68,0,0,1,11.887,23.482ZM29.744,1.637A2.651,2.651,0,0,0,27.76,3.016c-.173.56.518.732.776,1.077a3.29,3.29,0,0,0,.388.388c1.121,1.12,1.121,1.12,2.157-.129a1.381,1.381,0,0,0,.259-1.68A1.766,1.766,0,0,0,29.744,1.637ZM3.044,30.2c.906-.259,1.769-.517,2.5-.732L3.6,27.533C3.432,28.351,3.26,29.213,3.044,30.2ZM28.752,6.722a3.769,3.769,0,0,0-.345-.431L26.984,4.869c-.647-.646-.647-.646-1.251.043-.129.172-.173.259.043.388a11.764,11.764,0,0,1,1.9,1.68c.129.129.216.345.431.215A2.274,2.274,0,0,0,28.752,6.722Z" transform="translate(25.942 9.01)" fill="#8a8a8a"/>
              <path id="Path_4069" data-name="Path 4069" d="M0,5.133C1.639,3.5,3.278,1.815,4.917.178c.173-.215.345-.259.518,0A1.047,1.047,0,0,0,6.47.523a5.208,5.208,0,0,1-.043.819c-.863-.043-1.121.215-1.165,1.034C5.133,6.167,5,10,4.874,13.794L4.357,29.176a1.251,1.251,0,0,0,.518,1.163H.043a1.144,1.144,0,0,0,.518-1.12V7.934A1.175,1.175,0,0,0,0,6.814C0,6.21,0,5.693,0,5.133Z" transform="translate(48.828 18.742)" fill="#57a4ff"/>
              <path id="Path_4070" data-name="Path 4070" d="M14.372,14.4a10.738,10.738,0,0,1,.474-1.163,6.278,6.278,0,0,1,.3-.819c.345-.732.733-1.422,1.682-1.422s1.337.689,1.682,1.422c.259.6.474,1.206.733,1.81.3-.172.3-.431.388-.646a10.113,10.113,0,0,1,.776-1.723,1.505,1.505,0,0,1,2.761,0,9.323,9.323,0,0,1,.82,1.9c.129.3.216.517.561.646a.692.692,0,0,1,.431.991.782.782,0,0,1-.949.517A1.835,1.835,0,0,1,22.7,14.741c-.3-.689-.6-1.379-.863-2.111a2.5,2.5,0,0,0-.431.9c-.129.345-.259.689-.388.991-.345.689-.733,1.379-1.639,1.379-.949,0-1.337-.689-1.682-1.422-.259-.6-.518-1.25-.776-1.9-.3.3-.3.689-.474,1.034-.173.3-.259.646-.431.991-.345.689-.733,1.293-1.639,1.293-.863,0-1.294-.646-1.6-1.336-.259-.474-.431-1.034-.69-1.637a21.288,21.288,0,0,1-1.294,2.628c-.6.9-.992,1.12-1.51.819-.518-.345-.474-.732.129-1.68a10.035,10.035,0,0,0,1.6-7.325c-.3-1.767-1.423-2.456-2.933-2.025-.561.172-.733.388-.647.991a17.087,17.087,0,0,1-.647,7.8,9.641,9.641,0,0,1-1.121,2.327,2.833,2.833,0,0,1-2.631,1.551A3.039,3.039,0,0,1,.439,15.775,7.277,7.277,0,0,1,.784,10a11.948,11.948,0,0,1,4.27-4.869A.711.711,0,0,0,5.4,4.185c-.388-1.077-.69-2.241-1.941-2.714a.687.687,0,0,1-.3-1.034A.815.815,0,0,1,4.192.048,4.052,4.052,0,0,1,6.349,2.117c.3.56.3,1.336.733,1.68.388.345,1.121-.215,1.725-.215,1.984-.043,3.494,1.336,3.882,3.576a10.022,10.022,0,0,1,0,3.4.783.783,0,0,0,.3.819,3.5,3.5,0,0,1,.949,1.637A5.01,5.01,0,0,0,14.372,14.4Zm-8.5-7.928a10.723,10.723,0,0,0-4.011,5,5.255,5.255,0,0,0,.129,3.964c.216.474.474.948,1.035,1.034.561.043.906-.345,1.208-.819C5.96,12.845,6.133,9.786,5.874,6.468Z" transform="translate(9.956 32.746)" fill="#1664ff"/>
              <path id="Path_4071" data-name="Path 4071" d="M.518,29.013A1.175,1.175,0,0,1,0,27.85L.518,12.468C.647,8.676.776,4.841.906,1.05.949.188,1.208-.07,2.07.016A1.191,1.191,0,0,1,2.545,1.05c-.259,7.713-.518,15.382-.776,23.095l-.129,3.878C1.6,28.841,1.38,29.013.518,29.013Z" transform="translate(53.141 20.068)" fill="#8a8a8a"/>
              <path id="Path_4072" data-name="Path 4072" d="M14.148,1.57H.647A.741.741,0,0,1,0,.838.761.761,0,0,1,.647.019a2.08,2.08,0,0,1,.518,0H27.735a.741.741,0,0,1,.647.732.761.761,0,0,1-.647.819,3.268,3.268,0,0,1-.647.043C22.775,1.57,18.461,1.57,14.148,1.57Z" transform="translate(10.784 14.291)" fill="#a8ddfd"/>
              <path id="Path_4073" data-name="Path 4073" d="M1.572,13.917V26.542a2.82,2.82,0,0,1,0,.6.755.755,0,0,1-.776.689.755.755,0,0,1-.776-.689,3.236,3.236,0,0,1,0-.646V1.293a2.82,2.82,0,0,1,0-.6A.755.755,0,0,1,.8,0a.755.755,0,0,1,.776.689,2.074,2.074,0,0,1,0,.517Z" transform="translate(0.067 11.596)" fill="#8a8a8a"/>
              <path id="Path_4074" data-name="Path 4074" d="M1.04,0A1.175,1.175,0,0,1,1.6,1.12V22.405a1.144,1.144,0,0,1-.518,1.12c-.82,0-1.078-.215-1.078-1.034V1.077C-.038.259.178.043,1.04,0Z" transform="translate(47.788 25.513)" fill="#8a8a8a"/>
              <path id="Path_4075" data-name="Path 4075" d="M3.968,7.885A4.025,4.025,0,0,1,0,4.007,4.171,4.171,0,0,1,3.968,0,4.2,4.2,0,0,1,7.937,3.964,4.158,4.158,0,0,1,3.968,7.885ZM1.6,3.921a2.207,2.207,0,0,0,2.329,2.37A2.207,2.207,0,0,0,6.3,3.964a2.292,2.292,0,0,0-2.286-2.37A2.219,2.219,0,0,0,1.6,3.921Z" transform="translate(37.829 40.033)" fill="#1664ff"/>
              <path id="Path_4076" data-name="Path 4076" d="M9.631,1.594H1C.271,1.594-.16,1.077.056.517.228.043.66,0,1.091,0H18.3c.647,0,.992.3.992.819s-.388.776-1.035.776Z" transform="translate(10.771 27.667)" fill="#a8ddfd"/>
              <path id="Path_4077" data-name="Path 4077" d="M7.764,1.637H1.078C.388,1.637,0,1.336,0,.819S.345,0,1.078,0H14.45c.69,0,1.078.3,1.078.819s-.388.819-1.078.819Z" transform="translate(10.784 20.644)" fill="#a8ddfd"/>
              <path id="Path_4078" data-name="Path 4078" d="M2.329,1.594H.863C.345,1.594,0,1.336,0,.819A.782.782,0,0,1,.863,0H3.925c.518,0,.863.259.863.776,0,.56-.345.819-.906.819Z" transform="translate(30.108 20.687)" fill="#a8ddfd"/>
              <path id="Path_4079" data-name="Path 4079" d="M.906,0a.826.826,0,0,1,.863.9.9.9,0,0,1-.906.862A.875.875,0,0,1,0,.865.826.826,0,0,1,.906,0Z" transform="translate(0 41.71)" fill="#2a3558"/>
              <path id="Path_4080" data-name="Path 4080" d="M0,6.98A9.4,9.4,0,0,0,3.451,2.413,5,5,0,0,0,3.839.646C3.882.172,4.055,0,4.572,0h30.41c.561,0,.647.129.561.646a7.158,7.158,0,0,1-7.074,6.291C19.065,7.023,9.619,6.98,0,6.98Z" transform="translate(18.03 53.864)" fill="#fdfdfd"/>
              <path id="Path_4081" data-name="Path 4081" d="M15.928,2.08c-.129.129-.216.259-.3.345L2.557,15.48c-.3.3-.431.345-.733,0a18.561,18.561,0,0,0-1.6-1.594c-.345-.3-.259-.517,0-.776L7.862,5.484C9.588,3.761,11.356,2.037,13.082.27a.616.616,0,0,1,.949-.086A20.938,20.938,0,0,1,15.8,1.822C15.842,1.908,15.842,1.994,15.928,2.08Z" transform="translate(36.868 15.462)" fill="#a8ddfd"/>
              <path id="Path_4082" data-name="Path 4082" d="M7.15,2.281c-.086.086-.173.215-.259.3C5.467,4,4,5.426,2.577,6.891c-.216.215-.388.3-.647.043C1.37,6.331.766,5.771.162,5.167a.362.362,0,0,1,0-.6L4.561.169c.129-.129.259-.259.431-.086L6.977,2.065A.43.43,0,0,1,7.15,2.281Z" transform="translate(30.679 30.212)" fill="#a8ddfd"/>
              <path id="Path_4083" data-name="Path 4083" d="M2.055,0A1.7,1.7,0,0,1,3.608,1.034a1.516,1.516,0,0,1-.259,1.68c-1.035,1.25-1.035,1.25-2.157.129L.8,2.456C.545,2.068-.145,1.9.027,1.379A2.886,2.886,0,0,1,2.055,0Z" transform="translate(53.632 10.648)" fill="#a8ddfd"/>
              <path id="Path_4084" data-name="Path 4084" d="M0,2.671C.216,1.68.388.819.561,0L2.5,1.939C1.725,2.154.906,2.413,0,2.671Z" transform="translate(28.986 36.543)" fill="#57a4ff"/>
              <path id="Path_4085" data-name="Path 4085" d="M3.127,2.306a3.786,3.786,0,0,1-.647.517c-.216.129-.3-.086-.431-.215A10.013,10.013,0,0,0,.151.927C-.065.8-.022.711.108.539.669-.15.712-.193,1.359.5L2.782,1.918A1.564,1.564,0,0,1,3.127,2.306Z" transform="translate(51.567 13.426)" fill="#a8ddfd"/>
              <path id="Path_4086" data-name="Path 4086" d="M0,2.327A2.229,2.229,0,0,1,2.372,0,2.266,2.266,0,0,1,4.659,2.37,2.207,2.207,0,0,1,2.286,4.7,2.218,2.218,0,0,1,0,2.327Z" transform="translate(39.425 41.627)" fill="#fdfdfd"/>
            </g>
          </g>
          <g id="Group_829" data-name="Group 829" transform="translate(325.617 316.825) rotate(-90)">
            <g id="noc">
              <path id="Path_4087" data-name="Path 4087" d="M.132,10.234c.218-.871,1-.784,1.57-.915,4.447-1,7.542-3.44,8.589-8.057A1.4,1.4,0,0,1,11.9,0H47.915a1.51,1.51,0,0,1,1.7,1.394c1,4.486,4.011,6.924,8.327,7.839a2.027,2.027,0,0,1,1.918,2.439c-.044,7.708-.174,15.417,0,23.081a19.283,19.283,0,0,1-5.188,13.805A55.548,55.548,0,0,1,32.307,63.583a6.15,6.15,0,0,1-4.491.131C18.181,60.055,9.723,54.7,3.445,46.381A17.158,17.158,0,0,1,0,35.624C.132,27.262.088,18.9.088,10.539a.627.627,0,0,1,.131-.087A.735.735,0,0,0,.132,10.234ZM2.05,37.671c-.218.131-.218.218,0,.348a17.8,17.8,0,0,0,4.011,8.536c6.016,7.186,13.733,11.933,22.366,15.286a4.106,4.106,0,0,0,3.052-.087c8.327-3.266,15.739-7.839,21.668-14.633,2.441-2.831,4.4-5.966,4.4-9.886.044-8.187,0-16.418.044-24.606a1.357,1.357,0,0,0-1.177-1.568,11.929,11.929,0,0,1-8.632-8.1c-.262-.871-.741-.915-1.439-.915H13.473a1.312,1.312,0,0,0-1.526,1.089,11.671,11.671,0,0,1-8.284,7.8c-1.177.348-1.613.784-1.613,2.09C2.138,21.252,2.094,29.44,2.05,37.671Z" fill="#57a4ff"/>
              <path id="Path_4088" data-name="Path 4088" d="M.044,0A.735.735,0,0,1,.131.218.627.627,0,0,0,0,.3.645.645,0,0,0,.044,0Z" transform="translate(0.088 10.234)" fill="#76af44"/>
              <path id="Path_4089" data-name="Path 4089" d="M0,35.58c0-8.187.044-16.418,0-24.606a1.794,1.794,0,0,1,1.613-2.09A11.671,11.671,0,0,0,9.9,1.089,1.345,1.345,0,0,1,11.423,0H44.3c.7,0,1.177.044,1.439.915a11.929,11.929,0,0,0,8.632,8.1c.916.261,1.221.61,1.177,1.568C55.5,18.77,55.543,27,55.5,35.188c-.044,3.92-1.962,7.055-4.4,9.886-5.929,6.794-13.341,11.367-21.668,14.633a4.106,4.106,0,0,1-3.052.087c-8.632-3.353-16.349-8.1-22.366-15.286A17.99,17.99,0,0,1,0,35.972.588.588,0,0,0,0,35.58Zm6.67-4.66A20.115,20.115,0,0,0,29.69,48.21,20.321,20.321,0,0,0,46.824,29.4c.044-.915.174-1.873-1.221-1.786-1.264.087-.828,1.089-.872,1.742a17.809,17.809,0,0,1-7.019,13.239A18.624,18.624,0,0,1,25.723,46.6,16.325,16.325,0,0,1,19.4,44.9a18.1,18.1,0,0,1,9.94-34.492,24.023,24.023,0,0,1,3.488.871c.61.174,1.09.261,1.439-.3.392-.653-.087-.915-.567-1.263-.7-.566-1.57-.479-2.267-.784C27.9,7.4,24.371,7.97,21.014,8.971c-8.24,2.482-13.036,8.144-14.387,16.636A21.629,21.629,0,0,0,6.67,30.92ZM51.925,15.112c0-.566-.392-.871-.741-1.219-1.57-1.568-3.183-3.049-4.665-4.66-1.046-1.132-1.788-1.045-2.834.044-4.8,4.878-9.679,9.625-14.431,14.5-1.046,1.089-1.657,1.35-2.747.044-1.439-1.655-3.1-3.136-4.621-4.7-.785-.827-1.482-1-2.354-.087-1.657,1.7-3.313,3.353-5.014,5.008a1.342,1.342,0,0,0,.044,2.221q6.082,6.01,12.164,12.15a1.406,1.406,0,0,0,2.354,0Q40.132,27.306,51.271,16.244A2.007,2.007,0,0,0,51.925,15.112Z" transform="translate(2.05 2.09)" fill="none"/>
              <path id="Path_4090" data-name="Path 4090" d="M.148,0V.348C-.027.218-.07.087.148,0Z" transform="translate(1.903 37.671)" fill="#76af44"/>
              <path id="Path_4091" data-name="Path 4091" d="M38.034,6.719a1.833,1.833,0,0,1-.7,1.089c-7.412,7.4-14.823,14.763-22.191,22.167a1.406,1.406,0,0,1-2.354,0Q6.775,23.9.628,17.824C-.157,17.04-.244,16.387.584,15.6c1.7-1.655,3.357-3.31,5.014-5.008.872-.915,1.57-.74,2.354.087,1.526,1.568,3.226,3.049,4.621,4.7,1.09,1.307,1.7,1,2.747-.044,4.752-4.878,9.635-9.668,14.431-14.5C30.8-.206,31.538-.336,32.585.8c1.482,1.611,3.1,3.136,4.665,4.66A1.728,1.728,0,0,1,38.034,6.719Zm-2.616-.044c-.262-.261-.436-.523-.654-.74a29.424,29.424,0,0,1-2.311-2.352c-.828-1.045-1.4-1.089-2.4-.044-4.8,4.921-9.679,9.755-14.562,14.589-1.482,1.481-1.613,1.481-3.139-.044C11.571,17.3,10.83,16.518,10,15.777c-1.134-1-2.049-3.048-3.357-2.874-1.221.174-2.223,1.96-3.357,2.961-.741.653-.61,1.045.044,1.7q4.9,4.769,9.679,9.668c.7.7,1.134.784,1.875.044q9.875-9.929,19.837-19.815C34.939,7.241,35.157,6.98,35.419,6.675Z" transform="translate(15.941 10.483)" fill="#fff"/>
              <path id="Path_4092" data-name="Path 4092" d="M0,17.619C1.4,9.126,6.191,3.465,14.387.982c3.357-1,6.888-1.568,10.42-.044.654.3,1.526.218,2.267.784.48.392.959.653.567,1.263-.349.566-.872.479-1.439.3a24.023,24.023,0,0,0-3.488-.871,18.1,18.1,0,0,0-9.94,34.492,17.126,17.126,0,0,0,6.322,1.7A18.382,18.382,0,0,0,31.085,34.6,17.884,17.884,0,0,0,38.1,21.364c.044-.61-.392-1.655.872-1.742,1.4-.087,1.264.915,1.221,1.786A20.181,20.181,0,0,1,.044,22.932,10.45,10.45,0,0,0,0,17.619Z" transform="translate(8.721 10.123)" fill="#8a8a8a"/>
              <path id="Path_4093" data-name="Path 4093" d="M.18,0a9.83,9.83,0,0,1,0,5.27A19.39,19.39,0,0,1,.18,0Z" transform="translate(8.541 27.741)" fill="#8a8a8a"/>
              <path id="Path_4094" data-name="Path 4094" d="M32.635,3.882c-.262.3-.48.566-.7.784-6.627,6.62-13.254,13.2-19.837,19.815-.741.74-1.177.653-1.875-.044C7.043,21.172,3.773,17.949.547,14.77c-.654-.653-.785-1.045-.044-1.7,1.134-1,2.136-2.831,3.357-2.961,1.308-.174,2.223,1.829,3.357,2.874.828.74,1.57,1.524,2.354,2.308,1.526,1.524,1.657,1.524,3.139.044C17.594,10.5,22.477,5.668,27.272.747c1-1.045,1.526-.958,2.4.044a29.426,29.426,0,0,0,2.311,2.352A5.637,5.637,0,0,1,32.635,3.882Z" transform="translate(18.724 13.277)" fill="#1664ff"/>
            </g>
          </g>
          <g id="Group_830" data-name="Group 830" transform="translate(642.79 68.032) rotate(-90)">
            <g id="Consular_letter-01" data-name="Consular letter-01">
              <path id="Path_4095" data-name="Path 4095" d="M24.849,48.563a30.082,30.082,0,0,1-6.03-.445c-.2-.04-.364-.04-.4-.283.162,0,.283-.04.445-.04.688.081.971-.162.931-.889-.081-1.051,0-2.1-.081-3.153-.364-3.517-.931-6.953-1.416-10.471a3.31,3.31,0,0,0-2.671-2.992c-1.5-.364-2.995-.687-4.492-1.051a2.018,2.018,0,0,1-1.093-3.153,12.193,12.193,0,0,0,1.5-2.628,11.316,11.316,0,0,0,.809-4.932c-.162-2.385-1.052-4.326-3.4-5.255a6.133,6.133,0,0,0-6.718.93c-.162.121-.243.283-.486.323A2.348,2.348,0,0,0,0,15.574,12.334,12.334,0,0,1,1.821,11.41,24.782,24.782,0,0,1,9.794,3,25.035,25.035,0,0,1,16.107.051,1.918,1.918,0,0,1,16.8.01c0,.323.04.647.04.97V18.4a3.558,3.558,0,0,0,3.8,3.841H40.269a3.519,3.519,0,0,0,3.8-3.841V10.561a6.767,6.767,0,0,1,1.578,2.506,24.048,24.048,0,0,1,2.266,7.681,24.653,24.653,0,0,1-.162,7.317c-.04.243-.081.526-.324.647a2.662,2.662,0,0,0-2.1-.809c-4.614.04-9.268,0-13.882,0H27.075a1.97,1.97,0,0,0-2.145,2.183v.768C24.89,36.718,24.849,42.66,24.849,48.563Z" transform="translate(11.858 9.039)" fill="#a8ddfd"/>
              <path id="Path_4096" data-name="Path 4096" d="M11.858,2.885A2.5,2.5,0,0,1,13.6,1.834c.243,0,.324-.2.486-.323A6.209,6.209,0,0,1,20.8.581c2.347.97,3.2,2.911,3.4,5.255a11.315,11.315,0,0,1-.809,4.932,9.545,9.545,0,0,1-1.5,2.628,2.018,2.018,0,0,0,1.093,3.153c1.5.364,2.995.687,4.492,1.051a3.31,3.31,0,0,1,2.671,2.992c.445,3.477,1.052,6.953,1.416,10.471.121,1.051.04,2.1.081,3.153.04.728-.243.97-.931.889-.162,0-.283.04-.445.04h-.445c-1.619,0-3.278-.04-4.9-.04H.89c-.486,0-1.052.121-.809-.728.04-.04.081-.04.121-.081.445-.04.931-.04,1.376-.081a16.008,16.008,0,0,0,4.169-.121H1.578A1.755,1.755,0,0,1,0,32.114V22.007a1.786,1.786,0,0,1,2.024-1.981h3.4c.283,0,.526-.04.648-.364A3.642,3.642,0,0,1,9.106,17.4a14.928,14.928,0,0,0,1.821-.445,10.646,10.646,0,0,1,1.9-.4c1.619-.162,1.781-1.981,1.093-3.194a13.8,13.8,0,0,1-1.5-2.709,18.608,18.608,0,0,1-1.052-6.509c.081-.364.2-.687.283-1.051.162,0,.2-.081.2-.2Zm8.3,31.25H6.475a1.4,1.4,0,0,0,.931.2h7.973c1.578,0,3.157-.04,4.735-.04,1.619,0,3.238.04,4.816.04.162,0,.4-.04.4-.081.081-.768.809-1.294.809-2.143-.04-3.962,0-7.883,0-11.845,0-.647.2-1.455-.121-1.9-.324-.485-1.174-.364-1.821-.526-.567-.162-1.214-.485-1.659-.323-.486.2-.526,1.011-.769,1.577-.364.768-.89,1.536-.162,2.385.121.121.081.4.081.606V32.357C21.733,33.327,21.247,33.852,20.155,34.135Zm-9.389-.809h8.782c1.052,0,1.376-.283,1.376-1.334V22.25c0-1.011-.324-1.294-1.3-1.294H2.185c-1.052,0-1.336.283-1.336,1.334v9.581c0,1.132.283,1.415,1.416,1.415C5.1,33.327,7.932,33.327,10.765,33.327ZM23.149,8.383a7.565,7.565,0,0,0,.2-2.83,4.534,4.534,0,0,0-3.035-4.285A5.216,5.216,0,0,0,14.57,2.279c-.243.2-.4.4-.769.4a1.314,1.314,0,0,0-1.336,1.132,8.36,8.36,0,0,0,.324,4.528c.4-.889.728-1.577,1.052-2.223a.616.616,0,0,0-.04-.809.4.4,0,0,1,0-.647c.243-.2.445-.04.648.162a5.983,5.983,0,0,0,7,1.617c.567-.2.809-.04,1.012.485A3.119,3.119,0,0,0,23.149,8.383ZM30.839,32.6c-.324-4.285-1.012-8.287-1.619-12.29A2.343,2.343,0,0,0,27.6,18.571c-.486-.162-.607-.081-.607.445V31.75c0,.081.04.121.081.243A3.318,3.318,0,0,1,30.839,32.6ZM12.951,9.192a6.321,6.321,0,0,1,.2,1.092c0,.485.648.364.688.809.2,1.577,1.3,2.385,2.59,3.113a2.617,2.617,0,0,0,2.712.081,10.066,10.066,0,0,1,1.133-.606,3.192,3.192,0,0,0,1.7-2.183,1.03,1.03,0,0,1,.567-.809c.4-.243.4-.809.324-1.213-.04-.243-.486-.04-.769-.081-.324,0-.324.243-.364.445a1.138,1.138,0,0,1-.688.849A1.979,1.979,0,0,1,18.252,9.6a.394.394,0,0,0-.445-.283.376.376,0,0,0-.364.283,1.964,1.964,0,0,1-2.873,1.011c-.243-.162-.486-.364-.486-.647C14,9.273,13.558,9.232,12.951,9.192Zm2.226,5.175c-.081.526-.2.889.081,1.213.89,1.011,1.74,1.981,2.671,3.032.809-.889,1.538-1.779,2.347-2.628a1.521,1.521,0,0,0,.4-1.657C18.859,15.741,17.038,15.9,15.177,14.367Zm-.607,5.741c-.364-.889-.728-1.7-1.052-2.506-.121-.243-.243-.243-.486-.2-.89.243-1.821.445-2.712.647a.416.416,0,0,0-.4.445V19.7c0,.283.121.4.4.4ZM28.532,34.3h1.74c.364,0,.486-.081.324-.445a2.281,2.281,0,0,0-4.169-.04c-.2.445-.04.526.364.526C27.4,34.3,27.965,34.3,28.532,34.3ZM19.79,20.107c.324-.04.567.121.688-.2.364-.889.769-1.779,1.133-2.668.162-.4-.243-.526-.445-.687-.243-.243-.324.081-.445.2-.648.687-1.255,1.415-1.9,2.143-.121.121-.4.283-.162.485C19.021,19.7,19.264,20.188,19.79,20.107Zm-3.845,0h.243A1.314,1.314,0,0,0,17.2,19.3c.2-.283-.243-.485-.4-.687-.486-.606-1.012-1.172-1.538-1.738-.162-.162-.243-.566-.526-.323-.283.2-.648.4-.364.93.364.728.648,1.455.971,2.223C15.419,19.986,15.581,20.188,15.946,20.107ZM18.779,7.737a6.4,6.4,0,0,1-2.752-.647c-.486-.2-.971-.889-1.376-.647s-.526.97-.769,1.5c-.081.162-.324.364-.081.485.2.121.243-.162.364-.283A2.587,2.587,0,0,1,17,7.939C17.888,8.707,18.131,8.666,18.779,7.737ZM6.84,20.107H8.62c.2,0,.445.081.445-.243,0-.485.162-1.172-.081-1.375-.324-.283-.89.081-1.255.4A2.877,2.877,0,0,0,6.84,20.107ZM19.952,9.92c.486.04.931.04.931-.687,0-.687-.364-.687-.89-.687-.486,0-.89,0-.89.687C19.1,9.839,19.386,10,19.952,9.92Zm-4.249,0c.486.04.85.04.85-.687,0-.687-.324-.687-.85-.728-.648-.04-.89.162-.89.849C14.853,10.041,15.339,9.879,15.7,9.92Zm4.614-2.3a1.453,1.453,0,0,1,1.336.728.27.27,0,0,0,.283.2c.121,0,.162-.081.162-.2a.871.871,0,0,0-1.133-.93A6.316,6.316,0,0,1,20.316,7.615Z" transform="translate(0 21.687)" fill="#8a8a8a"/>
              <path id="Path_4097" data-name="Path 4097" d="M27.277,15.514v7.843a3.519,3.519,0,0,1-3.8,3.841H3.845a3.558,3.558,0,0,1-3.8-3.841V5.933c0-.323-.04-.647-.04-.97.04-.647.04-1.294.121-1.94A3.434,3.434,0,0,1,3.481.03q10.2-.061,20.4,0c1.619,0,2.792,1.051,3.359,2.83.04.162.04.283.081.445C27.277,7.348,27.277,11.431,27.277,15.514ZM13.6,13.169H25.7c.607,0,.728-.2.728-.768-.04-2.87,0-5.741,0-8.611A2.752,2.752,0,0,0,23.473.8H3.8A2.7,2.7,0,0,0,.85,3.75c0,2.87.04,5.741,0,8.611,0,.647.2.768.809.768C5.666,13.169,9.632,13.169,13.6,13.169Zm.081.849H1.538c-.486,0-.648.121-.648.606.04,2.951,0,5.943,0,8.894a2.686,2.686,0,0,0,2.793,2.83c6.637.04,13.274.04,19.952,0a2.762,2.762,0,0,0,2.833-2.911V14.746c0-.606-.121-.809-.769-.809C21.652,14.018,17.645,14.018,13.679,14.018Z" transform="translate(28.653 4.046)" fill="#8a8a8a"/>
              <path id="Path_4098" data-name="Path 4098" d="M1.068,0A18.608,18.608,0,0,0,2.12,6.509a13.8,13.8,0,0,0,1.5,2.709c.688,1.213.526,3.032-1.093,3.194-.648.081-1.255.283-1.9.4C.461,11.643.258,10.471.137,9.258a18.5,18.5,0,0,1,0-4.487A22.818,22.818,0,0,1,.825.728.851.851,0,0,1,1.068,0Z" transform="translate(10.345 25.907)" fill="#c8eef9"/>
              <path id="Path_4099" data-name="Path 4099" d="M4.088,2.076A29.326,29.326,0,0,1,.325.823C.082.742-.08.54.041.3A.409.409,0,0,1,.648.055,30.77,30.77,0,0,0,4.372,1.267c.283.081.445.243.364.526C4.655,2.116,4.453,2.157,4.088,2.076Z" transform="translate(22.582 62.479)" fill="#8a8a8a"/>
              <path id="Path_4100" data-name="Path 4100" d="M.89.034a27.342,27.342,0,0,1,3.319.4c.324.04.809.081.688.566-.081.445-.486.323-.809.283a31.971,31.971,0,0,0-3.44-.4C.324.842,0,.842,0,.438.04-.007.364-.047.89.034Z" transform="translate(36.667)" fill="#8a8a8a"/>
              <path id="Path_4101" data-name="Path 4101" d="M.029,4.259A27.435,27.435,0,0,1,.676.54C.757.216.838-.067,1.243.014c.364.081.283.4.243.687C1.283,1.914,1.04,3.127.879,4.34c-.04.323-.121.566-.486.526S-.052,4.542.029,4.259Z" transform="translate(2.4 24.882)" fill="#8a8a8a"/>
              <path id="Path_4102" data-name="Path 4102" d="M2.183,0c.283.121.486.323.324.647A37.04,37.04,0,0,0,.847,4.285a.426.426,0,0,1-.607.283A.413.413,0,0,1,.038,4,29.511,29.511,0,0,1,1.7.364.476.476,0,0,1,2.183,0Z" transform="translate(4.293 17.174)" fill="#8a8a8a"/>
              <path id="Path_4103" data-name="Path 4103" d="M.04,1.7C.04,1.334,0,.93,0,.566,0,.243.081,0,.445,0c.283,0,.4.243.4.526a29.461,29.461,0,0,0,.324,3.76c.04.283.04.606-.324.647-.4.04-.486-.283-.526-.566C.2,3.477.121,2.587.04,1.7Z" transform="translate(2.226 33.062)" fill="#8a8a8a"/>
              <path id="Path_4104" data-name="Path 4104" d="M4.167.379A.743.743,0,0,1,3.8.9C2.791,1.592,1.779,2.319.849,3.088c-.243.2-.486.323-.728.04s-.081-.485.162-.687C1.253,1.632,2.306.864,3.358.136,3.763-.106,4.005-.025,4.167.379Z" transform="translate(13.721 5.153)" fill="#8a8a8a"/>
              <path id="Path_4105" data-name="Path 4105" d="M3.12,1.068C2.229.987,1.42.906.611.866.287.826-.037.785,0,.381s.4-.4.688-.364a35.929,35.929,0,0,0,3.6.243c.283,0,.607.04.607.4,0,.4-.324.445-.648.445A10.614,10.614,0,0,0,3.12,1.068Z" transform="translate(30.593 64.578)" fill="#8a8a8a"/>
              <path id="Path_4106" data-name="Path 4106" d="M3.7.031C4.142.153,4.83-.292,4.87.4S4.223.8,3.818.88c-1.052.162-2.064.283-3.116.445-.283.04-.567.081-.688-.283C-.067.638.216.516.54.476,1.633.314,2.726.153,3.7.031Z" transform="translate(28.437 0.002)" fill="#8a8a8a"/>
              <path id="Path_4107" data-name="Path 4107" d="M1.52.86A31.071,31.071,0,0,1,.873,4.378c-.081.283-.162.566-.526.485C-.1,4.782-.017,4.418.064,4.135A34.438,34.438,0,0,0,.711.577c.04-.283.081-.647.526-.566C1.6.092,1.561.416,1.52.86Z" transform="translate(66.228 36.164)" fill="#8a8a8a"/>
              <path id="Path_4108" data-name="Path 4108" d="M4.65.376C4.61.7,4.407.78,4.2.861A36.9,36.9,0,0,0,.724,2.276c-.283.162-.567.121-.688-.2s.081-.485.324-.566A28.493,28.493,0,0,1,4,.053C4.326-.069,4.569.012,4.65.376Z" transform="translate(20.644 1.598)" fill="#8a8a8a"/>
              <path id="Path_4109" data-name="Path 4109" d="M1.105,3.158c0,.4.04.809.04,1.213,0,.283-.081.566-.445.566-.324,0-.4-.243-.4-.526A29.39,29.39,0,0,0,.013.651C-.028.368.013.085.377,0c.364-.04.486.2.486.526.081.849.162,1.738.243,2.628Z" transform="translate(66.886 27.964)" fill="#8a8a8a"/>
              <path id="Path_4110" data-name="Path 4110" d="M2.094,4.235a.412.412,0,0,1-.243.485.374.374,0,0,1-.526-.283C.921,3.144.516,1.85.03.6A.431.431,0,0,1,.273.031c.2-.081.364,0,.526.2C.921.516,2.054,3.872,2.094,4.235Z" transform="translate(64.804 19.973)" fill="#8a8a8a"/>
              <path id="Path_4111" data-name="Path 4111" d="M.356,0C.6,0,.721.162.842.323A26.374,26.374,0,0,1,2.906,3.477c.162.243.243.526-.04.728-.324.2-.526,0-.648-.283A34.61,34.61,0,0,0,.154.809.559.559,0,0,1,.033.243C.033.081.195,0,.356,0Z" transform="translate(60.714 12.889)" fill="#8a8a8a"/>
              <path id="Path_4112" data-name="Path 4112" d="M.381,4.553C.017,4.472-.1,4.229.1,3.906.7,2.734,1.271,1.521,1.8.308A.4.4,0,0,1,2.323.025a.4.4,0,0,1,.2.606,32.289,32.289,0,0,1-1.7,3.6A.439.439,0,0,1,.381,4.553Z" transform="translate(63.24 44.155)" fill="#8a8a8a"/>
              <path id="Path_4113" data-name="Path 4113" d="M.459,4.038c-.445-.081-.567-.364-.364-.687A24.807,24.807,0,0,1,2.685.157a.406.406,0,0,1,.607-.04c.162.162.2.4.04.526-.89,1.051-1.781,2.1-2.59,3.234A1.015,1.015,0,0,1,.459,4.038Z" transform="translate(8.161 10.468)" fill="#8a8a8a"/>
              <path id="Path_4114" data-name="Path 4114" d="M.417,0a28.521,28.521,0,0,1,3.2,2.021.371.371,0,0,1-.081.4.386.386,0,0,1-.486.121A18.655,18.655,0,0,1,.134.687C-.028.566-.028.4.053.2A.354.354,0,0,1,.417,0Z" transform="translate(16.054 58.976)" fill="#8a8a8a"/>
              <path id="Path_4115" data-name="Path 4115" d="M0,0H4.169A15.957,15.957,0,0,1,0,.121Z" transform="translate(1.578 55.822)" fill="#c8eef9"/>
              <path id="Path_4116" data-name="Path 4116" d="M.081.445C.04.283.04.162,0,0A.323.323,0,0,1,.081.445Z" transform="translate(55.85 6.866)" fill="#c8eef9"/>
              <path id="Path_4117" data-name="Path 4117" d="M.162,0A.368.368,0,0,1,0,.323.368.368,0,0,1,.162,0Z" transform="translate(11.696 24.532)" fill="#c8eef9"/>
              <path id="Path_4118" data-name="Path 4118" d="M.121.033C.081.074.04.074,0,.114,0,.033.04-.047.121.033Z" transform="translate(0.081 56.032)" fill="#c8eef9"/>
              <path id="Path_4119" data-name="Path 4119" d="M0,0H.162A.084.084,0,0,1,0,0Z" transform="translate(29.827 56.874)" fill="#c8eef9"/>
              <path id="Path_4120" data-name="Path 4120" d="M9.956,12.33H1.416C.243,12.33,0,12.047,0,10.915V1.334C0,.283.283,0,1.336,0H18.779c1.012,0,1.3.283,1.3,1.294v9.743c0,1.011-.324,1.334-1.376,1.334C15.824,12.33,12.91,12.33,9.956,12.33ZM10,8.287a2.253,2.253,0,0,0,2.266-2.223A2.227,2.227,0,0,0,10,3.841,2.264,2.264,0,0,0,7.77,6.024,2.2,2.2,0,0,0,10,8.287Z" transform="translate(0.809 42.684)" fill="#fefefe"/>
              <path id="Path_4121" data-name="Path 4121" d="M0,16.8a1.752,1.752,0,0,0,1.578-1.9c.04-3.436,0-6.832,0-10.268A1.472,1.472,0,0,0,1.5,4.021c-.728-.849-.2-1.617.162-2.385C1.9,1.111,1.943.3,2.428.06c.445-.2,1.093.162,1.659.323.607.162,1.5.04,1.821.526a4.166,4.166,0,0,1,.121,1.9V14.654c0,.849-.728,1.375-.809,2.143,0,.04-.283.081-.4.081-1.619,0-3.238,0-4.816-.04Z" transform="translate(19.357 39.026)" fill="#57a4ff"/>
              <path id="Path_4122" data-name="Path 4122" d="M10.911,7.571a3.918,3.918,0,0,1-.728-1.5c-.2-.526-.445-.687-1.012-.485a5.983,5.983,0,0,1-7-1.617c-.2-.2-.4-.364-.648-.162a.4.4,0,0,0,0,.647c.283.283.2.526.04.809C1.238,5.954.914,6.642.51,7.491A8.8,8.8,0,0,1,.186,2.963,1.349,1.349,0,0,1,1.522,1.831a1.2,1.2,0,0,0,.769-.4A5.3,5.3,0,0,1,8.037.416,4.534,4.534,0,0,1,11.073,4.7,6.966,6.966,0,0,1,10.911,7.571Z" transform="translate(12.239 22.499)" fill="#1664ff"/>
              <path id="Path_4123" data-name="Path 4123" d="M3.845,14.143A3.477,3.477,0,0,0,.081,13.5C.04,13.375,0,13.335,0,13.254V.519C0-.006.121-.087.607.075A2.218,2.218,0,0,1,2.226,1.813C2.833,5.815,3.481,9.858,3.845,14.143Z" transform="translate(26.196 40.143)" fill="#57a4ff"/>
              <path id="Path_4124" data-name="Path 4124" d="M0,0C.607,0,1.052.081,1.093.768a.973.973,0,0,0,.486.647A1.955,1.955,0,0,0,4.452.4c.081-.243.2-.283.364-.283A.394.394,0,0,1,5.261.4,1.969,1.969,0,0,0,8.054,1.5,1.137,1.137,0,0,0,8.742.647c.04-.2.04-.485.364-.445.283,0,.688-.2.769.081.081.4.081,1.011-.324,1.213a1.26,1.26,0,0,0-.567.809,3.192,3.192,0,0,1-1.7,2.183,10.067,10.067,0,0,0-1.133.606A2.532,2.532,0,0,1,3.44,5.013,4.144,4.144,0,0,1,.85,1.9c-.04-.445-.688-.283-.688-.809A3.952,3.952,0,0,0,0,0Z" transform="translate(12.951 30.879)" fill="#fafbfb"/>
              <path id="Path_4125" data-name="Path 4125" d="M.066.04C1.928,1.577,3.749,1.415,5.57,0a1.521,1.521,0,0,1-.4,1.658c-.809.849-1.538,1.7-2.347,2.628L.147,1.253C-.1.93.026.566.066.04Z" transform="translate(15.11 36.013)" fill="#fafbfb"/>
              <path id="Path_4126" data-name="Path 4126" d="M4.614,2.729H.4c-.283,0-.4-.081-.4-.4V1.112C0,.829.121.748.4.667,1.3.465,2.226.263,3.116.02c.243-.04.364-.04.486.2C3.885,1.031,4.249,1.839,4.614,2.729Z" transform="translate(9.158 39.066)" fill="#57a4ff"/>
              <path id="Path_4127" data-name="Path 4127" d="M2.192,1.86H.451c-.4,0-.567-.081-.364-.526A2.351,2.351,0,0,1,2.192,0,2.329,2.329,0,0,1,4.256,1.374c.162.4.04.485-.324.445-.567.04-1.174.04-1.74.04Z" transform="translate(25.543 54.125)" fill="#57a4ff"/>
              <path id="Path_4128" data-name="Path 4128" d="M1.164,3.686C.638,3.767.4,3.241.071,2.918c-.2-.2.081-.364.162-.485C.84,1.7,1.488,1.018,2.135.29c.121-.121.243-.445.445-.2.162.2.607.323.445.687-.364.889-.769,1.779-1.133,2.668C1.731,3.807,1.488,3.645,1.164,3.686Z" transform="translate(18.626 38.108)" fill="#fafbfb"/>
              <path id="Path_4129" data-name="Path 4129" d="M1.716,3.674c-.324.081-.526-.121-.648-.445A17.655,17.655,0,0,0,.1,1.005C-.186.48.218.278.461.076.785-.167.866.237.987.4c.526.566,1.052,1.172,1.538,1.738.162.2.607.4.4.687-.243.364-.486.768-1.012.809A.3.3,0,0,1,1.716,3.674Z" transform="translate(14.23 38.121)" fill="#fafbfb"/>
              <path id="Path_4130" data-name="Path 4130" d="M5.1,1.3c-.648.93-.931.97-1.781.243a2.513,2.513,0,0,0-2.833.2c-.121.121-.162.4-.364.283-.283-.162,0-.364.081-.485.2-.526.364-1.253.769-1.5S1.863.5,2.349.7A9.065,9.065,0,0,0,5.1,1.3Z" transform="translate(13.678 28.119)" fill="#fafbfb"/>
              <path id="Path_4131" data-name="Path 4131" d="M0,1.713A2.578,2.578,0,0,1,.89.5c.364-.283.931-.687,1.255-.4.243.2.081.889.081,1.375,0,.283-.283.243-.445.243Z" transform="translate(6.042 40.081)" fill="#57a4ff"/>
              <path id="Path_4132" data-name="Path 4132" d="M.85,1.415C.283,1.5,0,1.334,0,.687,0,0,.4,0,.89,0s.85.04.89.687C1.781,1.455,1.376,1.455.85,1.415Z" transform="translate(19.102 30.192)" fill="#c8eef9"/>
              <path id="Path_4133" data-name="Path 4133" d="M.89,1.419c-.4-.04-.89.121-.89-.566C0,.206.243-.036.89,0c.486.04.809.04.85.728C1.74,1.419,1.416,1.46.89,1.419Z" transform="translate(14.812 30.188)" fill="#c8eef9"/>
              <path id="Path_4134" data-name="Path 4134" d="M13.639.04V.162C12.06.162,10.482.2,8.9.2H.931A1.2,1.2,0,0,1,0,0C4.614.04,9.146.04,13.639.04Z" transform="translate(6.516 55.782)" fill="#c8eef9"/>
              <path id="Path_4135" data-name="Path 4135" d="M0,.249C.283.168.445.087.648.046a.871.871,0,0,1,1.133.93c0,.121-.04.2-.162.2-.162,0-.2-.081-.283-.2A1.647,1.647,0,0,0,0,.249Z" transform="translate(20.316 29.054)" fill="#c8eef9"/>
              <path id="Path_4136" data-name="Path 4136" d="M0,11.643V1.092C0,.121.121,0,1.093,0H17.483c.89,0,1.052.162,1.052,1.051V22.4c0,.485-.04.93-.648,1.011-.567.081-1.093.121-1.255-.647-.081-.4-.324-.809-.445-1.213-.2-.566-.648-1.132.121-1.617.162-.081.162-.4.2-.647.04-.081-.04-.243,0-.283a3.594,3.594,0,0,0,0-3.153v-.162a4.349,4.349,0,0,0-2.752-2.506h-.081a3.31,3.31,0,0,0-3.076,0c-.081.04-.2,0-.283,0a4.65,4.65,0,0,0-2.55,2.628c0,.081.04.162,0,.243a3.347,3.347,0,0,0,0,3.153c.607,1.455-.364,2.506-.688,3.719-.121.4-.324.526-.769.526-1.781-.04-3.521-.04-5.3,0-.728,0-.971-.283-.971-1.011C.04,18.839,0,15.241,0,11.643ZM9.308,3.8h-6.8c-.324,0-.648,0-.648.4s.364.4.648.445H15.622a5.167,5.167,0,0,0,.769-.04.363.363,0,0,0,.283-.4.4.4,0,0,0-.283-.4,3.066,3.066,0,0,0-.607-.04C13.639,3.8,11.453,3.8,9.308,3.8Zm-.04,5.255h6.637c.324,0,.809.081.769-.445,0-.485-.445-.4-.769-.4H2.631c-.324,0-.809-.04-.769.445,0,.445.445.4.769.4Zm-5.3,9.3a6.017,6.017,0,0,0,2.509.364.8.8,0,0,0,.445-.243c.2-.283.081-.687-.2-.606-.648.2-1.093-.283-1.7-.243,1.052-.849,1.336-1.415,1.012-2.1A1.046,1.046,0,0,0,4.9,14.837c-.89.121-.971.889-1.093,1.577-.243-.081-.445-.4-.728-.162a.559.559,0,0,0-.121.687,1.044,1.044,0,0,1-.4,1.294.7.7,0,0,0-.243.93.993.993,0,0,0,.931.526c.445-.04.607-.323.688-.687A3.064,3.064,0,0,1,3.966,18.354ZM9.227,6.832H16.35a.372.372,0,0,0,.364-.4.354.354,0,0,0-.324-.364,3.066,3.066,0,0,0-.607-.04H2.428c-.283,0-.526.081-.526.4s.2.4.486.4h6.84Zm0,4.487h3.116c.324,0,.648-.04.648-.445s-.324-.4-.648-.4H6.233c-.324,0-.648,0-.648.4s.324.445.648.445Zm0-8.894h3.116c.324,0,.648,0,.648-.4s-.364-.445-.648-.445H6.233c-.324,0-.648,0-.648.445,0,.4.324.4.648.4Z" transform="translate(38.893 39.167)" fill="#fafbfb"/>
              <path id="Path_4137" data-name="Path 4137" d="M0,13.139V1.657C0,.4.4,0,1.619,0H19.588c1.214,0,1.619.4,1.619,1.617v23a1.579,1.579,0,0,1-2.226,1.617.421.421,0,0,1-.283-.4c0-.2.2-.162.324-.162,1.336-.162,1.659-.566,1.659-1.9V2.466c0-1.415-.486-1.94-1.9-1.94H2.307c-1.3,0-1.821.526-1.821,1.819V23.69c0,1.5.445,1.9,1.943,1.9H7.2c.162,0,.526-.2.486.243,0,.283-.243.323-.486.323H1.174C.364,26.156,0,25.631,0,24.741,0,20.941,0,17.02,0,13.139Z" transform="translate(37.557 37.711)" fill="#1664ff"/>
              <path id="Path_4138" data-name="Path 4138" d="M0,4.568C.4,3.032,1.174,1.658,1.74,0A1.874,1.874,0,0,0,3.764,1.253c.688,0,.85.445.607,1.092-.445,1.132-.89,2.264-1.416,3.517-.2-.647-.4-1.172-.567-1.7S1.9,3.477,1.417,3.8C.971,4.043.486,4.285,0,4.568Z" transform="translate(46.016 59.865)" fill="#1664ff"/>
              <path id="Path_4139" data-name="Path 4139" d="M4.314,4.2C3.707,3.881,3.181,3.6,2.7,3.355c-.445-.243-.728-.162-.89.364-.162.566-.364,1.092-.567,1.738C.834,4.407.389,3.436.065,2.466A1.424,1.424,0,0,1,1.279.687C1.846.687,2.008.606,2.655,0,3.181,1.374,3.707,2.709,4.314,4.2Z" transform="translate(51.374 60.431)" fill="#1664ff"/>
              <path id="Path_4140" data-name="Path 4140" d="M3.97,0H7.126C7.571,0,7.9.121,7.9.606a.661.661,0,0,1-.728.647H.772A.675.675,0,0,1,0,.606C-.037.121.287,0,.732,0Z" transform="translate(47.064 56.105)" fill="#1664ff"/>
              <path id="Path_4141" data-name="Path 4141" d="M3.567.713a3.056,3.056,0,0,0-2.55,1.213,2.22,2.22,0,0,1-.283.364.4.4,0,0,1-.648.04.369.369,0,0,1,.121-.566A2.161,2.161,0,0,0,1.381.551a.475.475,0,0,1,.445-.2A1.759,1.759,0,0,0,3.162.026a5.779,5.779,0,0,1,2.55.728,1.6,1.6,0,0,0,.89.889.492.492,0,0,1,.364.526.259.259,0,0,1-.2.283.624.624,0,0,1-.648-.283A2.811,2.811,0,0,0,3.567.713Z" transform="translate(47.467 52.765)" fill="#1664ff"/>
              <path id="Path_4142" data-name="Path 4142" d="M6.986.249V.33A8.685,8.685,0,0,1,4.963,1.947c-.081,0-.162-.04-.2,0-.971.768-1.9.04-2.873,0a.574.574,0,0,1-.567-.283A1.847,1.847,0,0,0,.268.653.376.376,0,0,1,.025.168C.147-.075.43.006.632.047c.121.04.2.2.324.323A3.185,3.185,0,0,0,6.1.37.776.776,0,0,1,6.824.006.232.232,0,0,1,6.986.249Z" transform="translate(47.528 58.201)" fill="#1664ff"/>
              <path id="Path_4143" data-name="Path 4143" d="M0,.758a2.239,2.239,0,0,1,3.359,0Z" transform="translate(49.294 54.377)" fill="#c8eef9"/>
              <path id="Path_4144" data-name="Path 4144" d="M0,0H3.076A2.07,2.07,0,0,1,0,0Z" transform="translate(49.415 58.288)" fill="#c8eef9"/>
              <path id="Path_4145" data-name="Path 4145" d="M0,0Z" transform="translate(46.016 64.393)" fill="#c8eef9"/>
              <path id="Path_4146" data-name="Path 4146" d="M12.748,12.33H.809C.2,12.33,0,12.209,0,11.562c.04-2.87,0-5.741,0-8.611A2.7,2.7,0,0,1,2.954,0H22.623a2.733,2.733,0,0,1,2.954,2.992V11.6c0,.566-.121.768-.728.768-4.047-.081-8.054-.04-12.1-.04ZM1.376,4.487V5.619c0,.323,0,.647.4.687.4,0,.4-.323.4-.647V3.719c0-1.051.486-1.5,1.538-1.536h2.1c.283,0,.526-.121.526-.4,0-.323-.243-.4-.526-.4H3.642A2.073,2.073,0,0,0,1.376,3.6Zm19.75-3.153h-1.3c-.283,0-.607.04-.607.4s.283.4.607.4h2.024c1.052,0,1.5.485,1.538,1.536V5.7c0,.283.04.606.445.566.364,0,.4-.323.4-.606V3.4a2.064,2.064,0,0,0-2.1-2.1A8.813,8.813,0,0,1,21.126,1.334ZM19.345,8.045C18.9,6.792,18.5,5.458,17.969,4.2a.419.419,0,0,0-.769.081c-.445,1.213-.85,2.466-1.3,3.679-.04.121-.081.243.081.323a.372.372,0,0,0,.4-.081,1.357,1.357,0,0,0,.2-.566c.081-.526.364-.687.931-.687.607,0,.971.121,1.052.768a1.252,1.252,0,0,0,.243.526c.04.081.243.081.364.04C19.345,8.287,19.386,8.166,19.345,8.045ZM7.892,7.519C7.528,6.347,7.163,5.336,6.88,4.326c-.081-.283-.243-.4-.486-.323-.324.081-.121.323-.04.485.364,1.092.728,2.183,1.052,3.275.081.243.081.485.445.485.324,0,.4-.243.486-.485.364-1.051.769-2.1,1.133-3.194.04-.162.4-.445,0-.606-.364-.121-.445.162-.567.445C8.62,5.417,8.3,6.387,7.892,7.519Zm5.625.809a1.332,1.332,0,0,0,1.457-.97c.162-.606-.162-1.132-.89-1.455-.243-.121-.445-.2-.688-.323a.544.544,0,0,1-.324-.606c.04-.323.283-.445.567-.526a1.7,1.7,0,0,1,.648.04c.162.04.324.162.445-.121.121-.323-.162-.323-.324-.4a1.493,1.493,0,0,0-1.862.728c-.243.647.04,1.172.89,1.536.486.2,1.133.364.89,1.092-.243.687-.85.606-1.416.445-.04,0-.081-.04-.162-.04-.162-.081-.283-.081-.364.121a.284.284,0,0,0,.162.364A2.786,2.786,0,0,0,13.517,8.328ZM10.6,6.226V7.8c0,.2-.081.485.283.485s.324-.243.324-.445v-3.4c0-.2.04-.4-.283-.445-.364,0-.324.243-.324.445Z" transform="translate(29.503 4.885)" fill="#1664ff"/>
              <path id="Path_4147" data-name="Path 4147" d="M12.789,0h12.02c.648,0,.769.2.769.809-.04,2.911,0,5.781,0,8.692a2.761,2.761,0,0,1-2.833,2.911c-6.637.04-13.274.04-19.952,0A2.686,2.686,0,0,1,0,9.581V.687C0,.162.162.081.648.081,4.654,0,8.7,0,12.789,0ZM5.99,8.287c.121.2.243.364.526.323A.346.346,0,0,0,6.8,8.247,2.079,2.079,0,0,0,4.857,5.741H3.723A2.062,2.062,0,0,0,1.619,8c0,.243,0,.526.283.647.324.121.445-.081.607-.323C3.723,8.287,4.857,8.287,5.99,8.287ZM24.2,6.185a4.067,4.067,0,0,0-8.135-.04,4.1,4.1,0,0,0,4.088,4.083A4.057,4.057,0,0,0,24.2,6.185ZM6.071,3.638a1.842,1.842,0,1,0-3.683.081A1.876,1.876,0,0,0,4.29,5.5,1.812,1.812,0,0,0,6.071,3.638Zm5.18,6.024H8.458c-.324,0-.648,0-.648.4,0,.445.364.445.648.445h5.585c.324,0,.648,0,.648-.4,0-.445-.324-.445-.648-.445Zm0-1.7h2.792c.324,0,.648,0,.648-.445,0-.364-.283-.4-.607-.4H8.378c-.324,0-.567.081-.567.445s.283.4.607.4Zm0-5.053h2.792c.324,0,.648,0,.648-.4,0-.364-.324-.4-.607-.4H8.418c-.283,0-.607,0-.607.4,0,.445.324.445.648.445C9.389,2.911,10.32,2.911,11.251,2.911ZM4.29,10.471h1.9c.324,0,.648,0,.648-.445,0-.364-.324-.4-.607-.4H2.307c-.283,0-.607.04-.607.4s.283.445.567.445ZM9.308,5.417h1.133a.393.393,0,0,0,.445-.4c0-.283-.162-.4-.445-.4H8.175a.361.361,0,0,0-.4.445c0,.283.2.364.445.364Zm3.926,0h1.052a.372.372,0,0,0,.4-.364.31.31,0,0,0-.324-.4h-2.1a.31.31,0,0,0-.324.4.372.372,0,0,0,.4.364Z" transform="translate(29.544 18.064)" fill="#fafbfb"/>
              <path id="Path_4148" data-name="Path 4148" d="M2.227,4.447A2.2,2.2,0,0,1,0,2.183,2.21,2.21,0,0,1,2.227,0,2.227,2.227,0,0,1,4.493,2.223,2.28,2.28,0,0,1,2.227,4.447ZM3.563,2.264A1.4,1.4,0,0,0,2.187.849a1.4,1.4,0,0,0-.04,2.789A1.374,1.374,0,0,0,3.563,2.264Z" transform="translate(8.579 46.524)" fill="#8a8a8a"/>
              <path id="Path_4149" data-name="Path 4149" d="M7.447,0h6.475a3.067,3.067,0,0,1,.607.04.4.4,0,0,1,.283.4.363.363,0,0,1-.283.4,4.651,4.651,0,0,1-.769.04H.648C.324.889,0,.849,0,.445S.364.04.648.04C2.914,0,5.18,0,7.447,0Z" transform="translate(40.754 42.967)" fill="#a8ddfd"/>
              <path id="Path_4150" data-name="Path 4150" d="M7.406.854H.769C.445.854.04.935,0,.45,0-.076.445.005.769.005H14.043c.324,0,.728-.081.769.4,0,.526-.445.445-.769.445Z" transform="translate(40.754 47.368)" fill="#a8ddfd"/>
              <path id="Path_4151" data-name="Path 4151" d="M1.8,3.571c-.04.162-.04.4-.081.606-.081.364-.243.687-.688.687A.993.993,0,0,1,.1,4.339a.663.663,0,0,1,.243-.93.977.977,0,0,0,.4-1.294.559.559,0,0,1,.121-.687c.283-.2.486.081.728.162C1.718.9,1.8.135,2.689.014A1.02,1.02,0,0,1,3.822.7c.324.687.04,1.213-1.012,2.1.607-.04,1.052.445,1.7.243.283-.081.4.323.2.606a.617.617,0,0,1-.445.243A5.229,5.229,0,0,1,1.8,3.571Zm.688-1.657c.324-.2.728-.283.607-.809C3.053.984,2.932.863,2.81.9,2.365,1.105,2.487,1.51,2.487,1.914Z" transform="translate(41.06 53.949)" fill="#a8ddfd"/>
              <path id="Path_4152" data-name="Path 4152" d="M7.37.809H.49C.207.809-.036.728,0,.4,0,.081.247,0,.531,0H13.886a3.066,3.066,0,0,1,.607.04A.354.354,0,0,1,14.817.4c0,.243-.121.4-.364.4H7.37Z" transform="translate(40.75 45.19)" fill="#a8ddfd"/>
              <path id="Path_4153" data-name="Path 4153" d="M3.683.849H.648C.324.849,0,.809,0,.4S.364,0,.648,0H6.759c.324,0,.648,0,.648.4s-.364.445-.648.445Z" transform="translate(44.437 49.637)" fill="#a8ddfd"/>
              <path id="Path_4154" data-name="Path 4154" d="M3.683.849H.648C.324.849,0,.849,0,.445S.324,0,.648,0H6.759c.324,0,.648,0,.648.445,0,.4-.324.4-.648.4Z" transform="translate(44.437 40.743)" fill="#a8ddfd"/>
              <path id="Path_4155" data-name="Path 4155" d="M0,3.113V2.223A2.073,2.073,0,0,1,2.266,0H4.452c.283,0,.526.081.526.4s-.243.4-.526.4h-2.1C1.3.809.85,1.294.809,2.345v1.94c0,.323,0,.647-.4.647S0,4.568,0,4.245Z" transform="translate(30.879 6.259)" fill="#fff"/>
              <path id="Path_4156" data-name="Path 4156" d="M1.943,0h.971a2.04,2.04,0,0,1,2.1,2.1V4.366c0,.283-.04.606-.4.606s-.445-.283-.445-.566V2.385c0-1.051-.486-1.5-1.538-1.536H.607C.324.849,0,.809,0,.445S.324.04.607.04C1.093,0,1.538,0,1.943,0Z" transform="translate(48.687 6.219)" fill="#fff"/>
              <path id="Path_4157" data-name="Path 4157" d="M3.436,4.074q.061.243-.121.243a1.006,1.006,0,0,1-.364-.04,1.531,1.531,0,0,1-.243-.526c-.081-.647-.445-.768-1.052-.768-.567,0-.85.162-.931.687a2.335,2.335,0,0,1-.2.566.372.372,0,0,1-.4.081c-.162-.04-.121-.2-.081-.323.4-1.213.809-2.466,1.3-3.679A.411.411,0,0,1,2.1.233C2.586,1.487,3.031,2.78,3.436,4.074Zm-1.7-3.4c-.162.526-.283.93-.445,1.334-.121.364-.121.526.324.526.567,0,.809-.081.526-.687A9.636,9.636,0,0,1,1.736.678Z" transform="translate(45.413 8.856)" fill="#f5f5f5"/>
              <path id="Path_4158" data-name="Path 4158" d="M1.623,3.506c.4-1.132.728-2.1,1.052-3.032.081-.283.2-.566.567-.445.364.162.04.445,0,.606-.364,1.051-.769,2.143-1.133,3.194-.081.243-.162.485-.486.485-.364,0-.364-.283-.445-.485C.813,2.737.449,1.646.125.554.085.393-.158.15.166.069c.243-.081.4.04.486.323C.894,1.322,1.259,2.333,1.623,3.506Z" transform="translate(35.772 8.899)" fill="#f5f5f5"/>
              <path id="Path_4159" data-name="Path 4159" d="M1.084,4.482a2.18,2.18,0,0,1-.89-.162C.032,4.24-.049,4.159.032,3.957c.04-.2.2-.2.364-.121.04.04.081.04.162.04.567.162,1.174.243,1.416-.445s-.4-.849-.89-1.092C.234,1.936-.09,1.45.194.8A1.535,1.535,0,0,1,2.055.076c.162.04.445.081.324.4C2.3.763,2.1.642,1.934.6a.9.9,0,0,0-.648-.04.693.693,0,0,0-.567.526.544.544,0,0,0,.324.606c.2.121.445.2.688.323.729.323,1.052.849.89,1.455A1.45,1.45,0,0,1,1.084,4.482Z" transform="translate(41.937 8.73)" fill="#f5f5f5"/>
              <path id="Path_4160" data-name="Path 4160" d="M0,2.187V.449C0,.246-.039-.037.325,0,.608,0,.608.246.608.449v3.4c0,.2.04.485-.324.445C-.08,4.289.042,4.006,0,3.8Z" transform="translate(40.105 8.923)" fill="#f5f5f5"/>
              <path id="Path_4161" data-name="Path 4161" d="M8.175,4.043A4.074,4.074,0,0,1,4.088,8.126,4.126,4.126,0,0,1,0,4.043,4.065,4.065,0,0,1,4.088,0,3.966,3.966,0,0,1,8.175,4.043ZM4.128,7.237A3.237,3.237,0,0,0,7.366,4.043,3.254,3.254,0,0,0,4.088.809,3.211,3.211,0,0,0,.89,4.043,3.161,3.161,0,0,0,4.128,7.237Z" transform="translate(45.57 20.206)" fill="#a8ddfd"/>
              <path id="Path_4162" data-name="Path 4162" d="M3.684,1.819A1.814,1.814,0,0,1,1.9,3.679,1.848,1.848,0,0,1,0,1.9,1.856,1.856,0,0,1,1.823,0,1.822,1.822,0,0,1,3.684,1.819Zm-1.9.97a1.03,1.03,0,0,0,1.052-.97.95.95,0,0,0-.971-.93c-.567.04-.89.323-.89.889A.872.872,0,0,0,1.782,2.789Z" transform="translate(31.93 19.883)" fill="#8a8a8a"/>
              <path id="Path_4163" data-name="Path 4163" d="M.892,2.587c-.162.2-.324.4-.607.323C0,2.789,0,2.547,0,2.264A2.04,2.04,0,0,1,2.106,0H3.239A2.037,2.037,0,0,1,5.182,2.506c-.04.2-.081.323-.283.364-.283.04-.4-.081-.526-.323-.081-1.5-.283-1.7-1.983-1.658C1.175.93.932,1.213.892,2.587Z" transform="translate(31.202 23.764)" fill="#8a8a8a"/>
              <path id="Path_4164" data-name="Path 4164" d="M3.44,0H6.233c.324,0,.648,0,.648.445s-.364.4-.648.4H.648C.324.849,0,.849,0,.4,0,0,.364,0,.648,0Z" transform="translate(37.355 27.726)" fill="#8a8a8a"/>
              <path id="Path_4165" data-name="Path 4165" d="M3.48.849H.607C.324.849.04.809,0,.445,0,.081.243,0,.567,0H6.273c.283,0,.607.04.607.4,0,.4-.324.445-.648.445Z" transform="translate(37.314 25.179)" fill="#8a8a8a"/>
              <path id="Path_4166" data-name="Path 4166" d="M0,1.657C.04.283.283,0,1.457,0c1.7,0,1.9.162,1.983,1.657Z" transform="translate(32.094 24.694)" fill="#c8eef9"/>
              <path id="Path_4167" data-name="Path 4167" d="M3.44.849H.648C.324.849,0,.849,0,.4,0,.04.324,0,.607,0H6.273c.283,0,.607.04.607.4,0,.445-.324.4-.648.4C5.3.849,4.371.849,3.44.849Z" transform="translate(37.355 20.126)" fill="#8a8a8a"/>
              <path id="Path_4168" data-name="Path 4168" d="M2.594.849H.57C.287.849-.037.768,0,.4,0,.04.287,0,.611,0H4.536c.283,0,.607,0,.607.4,0,.445-.324.445-.648.445a14.931,14.931,0,0,1-1.9,0Z" transform="translate(31.24 27.685)" fill="#8a8a8a"/>
              <path id="Path_4169" data-name="Path 4169" d="M1.5.809H.445C.2.809,0,.687,0,.445A.416.416,0,0,1,.4,0H2.671a.393.393,0,0,1,.445.4.393.393,0,0,1-.445.4Z" transform="translate(37.355 22.672)" fill="#8a8a8a"/>
              <path id="Path_4170" data-name="Path 4170" d="M1.3.8H.411a.372.372,0,0,1-.4-.364A.326.326,0,0,1,.33.03a18.273,18.273,0,0,1,2.1,0,.322.322,0,0,1,.324.4.372.372,0,0,1-.4.364Z" transform="translate(41.477 22.683)" fill="#8a8a8a"/>
              <path id="Path_4171" data-name="Path 4171" d="M2.752,1.415A1.373,1.373,0,0,1,1.336,2.789,1.41,1.41,0,0,1,0,1.415,1.4,1.4,0,0,1,1.376,0,1.373,1.373,0,0,1,2.752,1.415Z" transform="translate(9.389 47.373)" fill="#1664ff"/>
              <path id="Path_4172" data-name="Path 4172" d="M.015,1.019C.015.614-.106.21.339.008c.121-.04.243.081.283.2C.744.736.339.816.015,1.019Z" transform="translate(43.532 54.844)" fill="#c8eef9"/>
              <path id="Path_4173" data-name="Path 4173" d="M.542,0a9.639,9.639,0,0,0,.4,1.172c.283.606.04.687-.526.687C-.065,1.86-.065,1.7.1,1.334.218.93.34.526.542,0Z" transform="translate(46.607 9.534)" fill="#1664ff"/>
              <path id="Path_4174" data-name="Path 4174" d="M3.239,6.468A3.17,3.17,0,0,1,0,3.234,3.264,3.264,0,0,1,3.2,0,3.28,3.28,0,0,1,6.476,3.234,3.272,3.272,0,0,1,3.239,6.468Zm-.4-1.7a.84.84,0,0,0,.243-.081c.769-.768,1.538-1.5,2.266-2.264a.345.345,0,0,0,0-.526.406.406,0,0,0-.607,0c-.324.283-.607.606-.931.889-.283.283-.526.687-.85.809-.526.2-.607-.445-.931-.647a.517.517,0,0,0-.486-.081.353.353,0,0,0-.2.364C1.336,3.517,2.51,4.77,2.834,4.77Z" transform="translate(46.46 20.975)" fill="#1664ff"/>
              <path id="Path_4175" data-name="Path 4175" d="M.812,1.862A.857.857,0,0,1,0,.892.849.849,0,0,1,.893,0a.95.95,0,0,1,.971.93A1.026,1.026,0,0,1,.812,1.862Z" transform="translate(32.9 20.81)" fill="#c8eef9"/>
              <path id="Path_4176" data-name="Path 4176" d="M1.538,3.007A4.007,4.007,0,0,1,0,1.471a.424.424,0,0,1,.2-.364.536.536,0,0,1,.486.081c.364.162.445.849.931.647a3.98,3.98,0,0,0,.85-.809C2.752.743,3.076.42,3.4.137a.406.406,0,0,1,.607,0,.345.345,0,0,1,0,.526L1.74,2.926A.428.428,0,0,1,1.538,3.007Z" transform="translate(47.756 22.738)" fill="#fff"/>
            </g>
          </g>
          <g id="Group_831" data-name="Group 831" transform="translate(964.945 326.98) rotate(-90)">
            <g id="external">
              <ellipse id="Ellipse_33" data-name="Ellipse 33" cx="21.884" cy="21.86" rx="21.884" ry="21.86" transform="translate(14.878 14.86)" fill="#a8ddfd"/>
              <ellipse id="Ellipse_34" data-name="Ellipse 34" cx="11.854" cy="11.841" rx="11.854" ry="11.841" transform="translate(24.908 24.879)" fill="#57a4ff"/>
              <ellipse id="Ellipse_35" data-name="Ellipse 35" cx="3.647" cy="3.643" rx="3.647" ry="3.643" transform="translate(33.115 33.076)" fill="#1664ff"/>
              <path id="Path_4177" data-name="Path 4177" d="M0,.942A13.4,13.4,0,0,0,2.929,5.3L4.66,3.567A10.973,10.973,0,0,1,2.262,0Z" transform="translate(24.314 40.954)" fill="#8a8a8a"/>
              <path id="Path_4178" data-name="Path 4178" d="M.936,0,0,2.263A13.421,13.421,0,0,0,5.144,3.278h.012L5.144.83A10.963,10.963,0,0,1,.936,0Z" transform="translate(31.616 46.906)" fill="#8a8a8a"/>
              <path id="Path_4179" data-name="Path 4179" d="M4.224,3.269l.931-2.264A13.411,13.411,0,0,0,.037,0H0L.037,2.448A10.972,10.972,0,0,1,4.224,3.269Z" transform="translate(36.723 23.256)" fill="#8a8a8a"/>
              <path id="Path_4180" data-name="Path 4180" d="M3.278.932,1.011,0A13.362,13.362,0,0,0,0,5.125V5.15l2.451-.025A10.931,10.931,0,0,1,3.278.932Z" transform="translate(23.281 31.595)" fill="#8a8a8a"/>
              <path id="Path_4181" data-name="Path 4181" d="M5.306,2.259,4.361,0A13.429,13.429,0,0,0,0,2.931L1.738,4.657a10.975,10.975,0,0,1,3.568-2.4Z" transform="translate(27.205 24.293)" fill="#8a8a8a"/>
              <path id="Path_4182" data-name="Path 4182" d="M0,4.264,2.264,5.2A13.364,13.364,0,0,0,3.286.05V0L.835.05A10.939,10.939,0,0,1,0,4.264Z" transform="translate(46.953 36.67)" fill="#8a8a8a"/>
              <path id="Path_4183" data-name="Path 4183" d="M1.728,0,0,1.737A10.978,10.978,0,0,1,2.406,5.3l2.259-.947A13.406,13.406,0,0,0,1.728,0Z" transform="translate(44.53 27.166)" fill="#8a8a8a"/>
              <path id="Path_4184" data-name="Path 4184" d="M0,2.392l.941,2.26A13.415,13.415,0,0,0,5.307,1.73L3.574,0A11,11,0,0,1,0,2.392Z" transform="translate(40.989 44.505)" fill="#8a8a8a"/>
              <path id="Path_4185" data-name="Path 4185" d="M73.275,35.985l-3.676-4.9-1.96,1.469L69.844,35.5H59.979a23.115,23.115,0,0,0-5.94-14.306l6.908-6.9.327,2.979L63.71,17,63.1,11.487A1.224,1.224,0,0,0,62.021,10.4L56.5,9.8l-.268,2.434,2.983.327-6.907,6.9a23.166,23.166,0,0,0-14.321-5.933V3.672l2.941,2.2L42.4,3.917,37.495.245a1.225,1.225,0,0,0-1.469,0l-4.9,3.672,1.469,1.958,2.941-2.2v9.854a23.166,23.166,0,0,0-14.321,5.933l-6.907-6.9,2.983-.327L17.02,9.8l-5.521.6a1.224,1.224,0,0,0-1.084,1.084L9.81,17l2.436.267.327-2.979,6.908,6.9A23.114,23.114,0,0,0,13.54,35.5H3.676l2.205-2.937-1.96-1.469-3.676,4.9a1.224,1.224,0,0,0,0,1.469l3.676,4.9,1.96-1.469L3.676,37.944h9.865A23.115,23.115,0,0,0,19.48,52.25L12.5,59.223l-.52-3.635-2.427.347.866,6.058a1.225,1.225,0,0,0,1.04,1.038l6.065.866.347-2.423-3.639-.52,6.981-6.973a23.165,23.165,0,0,0,14.321,5.933v9.854l-2.941-2.2-1.469,1.958,4.9,3.672a1.224,1.224,0,0,0,1.469,0l4.9-3.672-1.469-1.958-2.941,2.2V59.914a23.166,23.166,0,0,0,14.321-5.933l6.907,6.9-2.983.327.268,2.434,5.521-.6A1.224,1.224,0,0,0,63.1,61.952l.605-5.515-2.436-.267-.327,2.979-6.908-6.9a23.114,23.114,0,0,0,5.94-14.306h9.865l-2.205,2.937L69.6,42.35l3.676-4.9a1.224,1.224,0,0,0,0-1.469ZM36.76,57.528A20.808,20.808,0,1,1,57.591,36.72,20.819,20.819,0,0,1,36.76,57.528Z" fill="#1664ff"/>
              <path id="Path_4186" data-name="Path 4186" d="M4.9,0A4.9,4.9,0,1,0,9.8,4.9,4.9,4.9,0,0,0,4.9,0Zm0,7.344A2.448,2.448,0,1,1,7.352,4.9,2.449,2.449,0,0,1,4.9,7.344Z" transform="translate(31.859 31.824)" fill="#8a8a8a"/>
            </g>
          </g>
        </g>
      </g>
    </g>
  </g>
</svg>
