<svg xmlns="http://www.w3.org/2000/svg" xmlns:xlink="http://www.w3.org/1999/xlink" width="326.98" height="1362" viewBox="0 0 326.98 1362">
  <defs>
    <clipPath id="clip-path">
      <rect x="516" y="-523" width="326.98" height="1362" fill="none"/>
    </clipPath>
  </defs>
  <g id="Group_993" data-name="Group 993" transform="translate(-2050.996 4.905)">
    <g id="_1" data-name="1" transform="translate(1534.996 518.095)" clip-path="url(#clip-path)" style="isolation: isolate">
      <g id="slide10" transform="translate(1618.004 7318.292) rotate(180)">
        <g id="Group_990" data-name="Group 990" transform="translate(-6224.193 8098.193) rotate(-90)">
          <line id="Line_22" data-name="Line 22" x2="1362" y2="10" transform="translate(256 7159.5)" fill="none" stroke="#707070" stroke-width="1" stroke-dasharray="2 2"/>
          <g id="Layer_1" transform="translate(304.315 7076.808) rotate(-90)">
            <g id="Group_977" data-name="Group 977" transform="translate(15.487 19.9)">
              <path id="Path_4661" data-name="Path 4661" d="M32.7,60.559a18.961,18.961,0,0,0,25.9-26.5,18.181,18.181,0,0,0-11.746-8.132A18.8,18.8,0,0,0,32.8,28.333V21.1c0-.9.3-1.2,1.2-1.2H61.914V30.642c0,1,.3,1.305,1.305,1.305H73.861V72.506c0,1.1-.2,1.406-1.406,1.406H34.105c-1.1,0-1.305-.3-1.305-1.305V61.061C32.7,60.961,32.7,60.86,32.7,60.559Zm21.082,7.329H68.841a.8.8,0,0,0,.7-.9.859.859,0,0,0-.7-.9H38.924a.962.962,0,0,0-.9.9.879.879,0,0,0,.8.9H53.782ZM66.131,54.335h-1a.739.739,0,0,0-.8.8c0,.5.2.9.7.9h2.209c.5,0,.7-.4.7-.9s-.3-.8-.9-.8Zm-.1,7.63h1c.5,0,.7-.3.8-.8,0-.5-.2-.9-.6-.9a8.889,8.889,0,0,0-2.309,0c-.5,0-.7.5-.7.9a.739.739,0,0,0,.8.8Zm0-23.291h1a.91.91,0,0,0,0-1.807H64.926a.82.82,0,0,0-.8.9.879.879,0,0,0,.8.9Zm0,4.116h-1a.879.879,0,0,0-.8.9.739.739,0,0,0,.8.8h2.008c.5,0,.8-.3.8-.9a.879.879,0,0,0-.8-.9C66.733,42.689,66.432,42.79,66.03,42.79Zm0,7.529h1.1c.5,0,.7-.4.8-.8,0-.4-.2-.9-.6-.9a8.879,8.879,0,0,0-2.309,0c-.5,0-.7.4-.6.9a.739.739,0,0,0,.8.8Z" transform="translate(-15.42 -19.9)" fill="#1664ff"/>
              <path id="Path_4662" data-name="Path 4662" d="M59.934,44.466A17.269,17.269,0,0,1,42.867,61.634C33.229,61.734,25.7,54,25.7,44.065a17.122,17.122,0,0,1,34.234.4ZM42.867,29.207a15.26,15.26,0,1,0,15.26,15.26A15.288,15.288,0,0,0,42.867,29.207Z" transform="translate(-15.447 -19.87)" fill="#8a8a8a"/>
              <path id="Path_4663" data-name="Path 4663" d="M27.848,58.106c.4-.4.8-.7,1.1-1l1.305,1.305a11.347,11.347,0,0,0-1.1,1.1c.4.4.9.7,1.305,1.1a1.031,1.031,0,0,1,0,1.707c-2.911,2.911-5.823,5.823-8.734,8.634a3.813,3.813,0,0,1-4.919-5.823c2.811-2.711,5.522-5.421,8.232-8.132.7-.7,1-.7,1.707,0A11.453,11.453,0,0,1,27.848,58.106Z" transform="translate(-15.487 -19.756)" fill="#8a8a8a"/>
              <path id="Path_4664" data-name="Path 4664" d="M63.6,30.137V20.8c3.112,3.012,6.325,6.124,9.537,9.236a.1.1,0,0,1-.1.1Z" transform="translate(-15.298 -19.896)" fill="#57a4ff"/>
              <path id="Path_4665" data-name="Path 4665" d="M53.761,67.707H38.9a.82.82,0,0,1-.8-.9.879.879,0,0,1,.8-.9H68.82a.8.8,0,0,1,.7.9.859.859,0,0,1-.7.9H53.761Z" transform="translate(-15.398 -19.719)" fill="#fff"/>
              <path id="Path_4666" data-name="Path 4666" d="M66.007,54.2h.9a.879.879,0,0,1,.9.8c0,.5-.2.9-.7.9a16.216,16.216,0,0,1-2.209,0c-.5,0-.7-.4-.7-.9a.739.739,0,0,1,.8-.8Z" transform="translate(-15.296 -19.765)" fill="#fff"/>
              <path id="Path_4667" data-name="Path 4667" d="M65.907,61.807h-1a.739.739,0,0,1-.8-.8c0-.5.2-.9.7-.9a8.889,8.889,0,0,1,2.309,0,.679.679,0,0,1,.6.9c0,.5-.3.7-.8.8Z" transform="translate(-15.296 -19.742)" fill="#fff"/>
              <path id="Path_4668" data-name="Path 4668" d="M65.907,38.607H65A.91.91,0,0,1,65,36.8h2.108a.82.82,0,0,1,.8.9.879.879,0,0,1-.8.9Z" transform="translate(-15.296 -19.834)" fill="#fff"/>
              <path id="Path_4669" data-name="Path 4669" d="M65.907,42.7h1a.91.91,0,0,1,0,1.807H64.9c-.5,0-.7-.4-.8-.8a.82.82,0,0,1,.8-.9,1.735,1.735,0,0,1,1-.1Z" transform="translate(-15.296 -19.811)" fill="#fff"/>
              <path id="Path_4670" data-name="Path 4670" d="M65.907,50.207h-1c-.5,0-.7-.4-.8-.8a.878.878,0,0,1,.6-.9,8.88,8.88,0,0,1,2.309,0,.733.733,0,0,1,.6.9.792.792,0,0,1-.8.8Z" transform="translate(-15.296 -19.788)" fill="#fff"/>
              <path id="Path_4671" data-name="Path 4671" d="M42.86,29.2A15.26,15.26,0,1,1,27.6,43.958,15.189,15.189,0,0,1,42.86,29.2Zm.1,2.51a12.8,12.8,0,0,0-.6,25.6A12.89,12.89,0,0,0,55.71,44.359,12.747,12.747,0,0,0,42.96,31.71Z" transform="translate(-15.44 -19.863)" fill="#fff"/>
              <path id="Path_4672" data-name="Path 4672" d="M42.951,31.7A12.7,12.7,0,0,1,55.7,44.45,12.95,12.95,0,0,1,42.348,57.4a12.855,12.855,0,0,1,.6-25.7Zm3.514,13.252a5.37,5.37,0,0,0,1.606-3.915,4.856,4.856,0,0,0-1.807-3.915,5.275,5.275,0,0,0-6.425-.2,5.075,5.075,0,0,0-1.907,2.811,5.6,5.6,0,0,0,1.506,5.321c-.2.1-.3.2-.5.2a10.451,10.451,0,0,0-4.618,4.216.914.914,0,0,0,0,1.2,1.534,1.534,0,0,0,1,.4h15.26a1.273,1.273,0,0,0,.6-.1.788.788,0,0,0,.4-1.2,27.927,27.927,0,0,0-2.108-2.711A17.692,17.692,0,0,0,46.464,44.952Z" transform="translate(-15.43 -19.854)" fill="#a8ddfd"/>
              <path id="Path_4673" data-name="Path 4673" d="M46.448,44.935a33.161,33.161,0,0,1,3.012,2.209,17.9,17.9,0,0,1,2.108,2.711c.3.5.2.9-.4,1.2H35.4a2.12,2.12,0,0,1-1-.4c-.4-.3-.3-.8,0-1.2a10.451,10.451,0,0,1,4.618-4.216c.1-.1.3-.1.5-.2a5.538,5.538,0,0,1-1.506-5.321A4.917,4.917,0,0,1,39.923,36.9a5.275,5.275,0,0,1,6.425.2,4.856,4.856,0,0,1,1.807,3.915A5.452,5.452,0,0,1,46.448,44.935Zm-.1-3.915a3.218,3.218,0,0,0-3.313-3.313,3.449,3.449,0,0,0-3.413,3.413,3.162,3.162,0,0,0,3.313,3.313A3.324,3.324,0,0,0,46.348,41.02Zm-9.437,8.132H49.159A7.984,7.984,0,0,0,36.911,49.152Z" transform="translate(-15.414 -19.837)" fill="#fff"/>
              <path id="Path_4674" data-name="Path 4674" d="M46.326,41.013a3.3,3.3,0,0,1-3.313,3.413A3.109,3.109,0,0,1,39.7,41.113,3.385,3.385,0,0,1,43.113,37.7,3.138,3.138,0,0,1,46.326,41.013Z" transform="translate(-15.392 -19.83)" fill="#1664ff"/>
              <path id="Path_4675" data-name="Path 4675" d="M36.9,49.111c2.811-3.915,9.236-3.915,12.248,0Z" transform="translate(-15.403 -19.797)" fill="#57a4ff"/>
            </g>
          </g>
          <g id="Layer_1-2" data-name="Layer_1" transform="translate(641.473 7332.42) rotate(-90)">
            <g id="Group_978" data-name="Group 978" transform="translate(13.103 10.178)">
              <path id="Path_4676" data-name="Path 4676" d="M46.454,62.245C45.3,60.829,44.064,59.59,43,58.174c-3.364-4.249-6.816-8.5-10.091-12.835a29.4,29.4,0,0,1-5.4-10.445,19.332,19.332,0,0,1,4.337-18.234,18.507,18.507,0,0,1,12.658-6.373,18.529,18.529,0,0,1,16.464,6.373c5.665,6.462,6.639,13.72,3.275,21.6a42.311,42.311,0,0,1-6.108,9.648c-3.806,4.78-7.612,9.471-11.507,14.251C46.631,62.068,46.631,62.068,46.454,62.245Zm0-16.376A15.845,15.845,0,1,0,30.7,29.937,15.663,15.663,0,0,0,46.454,45.87Z" transform="translate(-14.679 -10.178)" fill="#1664ff"/>
              <path id="Path_4677" data-name="Path 4677" d="M33.459,55.443H29.3a1.093,1.093,0,0,0-.708.354c-1.239,1.859-2.39,3.806-3.541,5.665a.325.325,0,0,0-.089.266h9.56a1.435,1.435,0,0,1,1.416,1.062,1.488,1.488,0,0,1-.8,1.682,3.319,3.319,0,0,1-.974.089H23.811a1.073,1.073,0,0,0-1.062.62c-1.682,2.744-3.364,5.4-5.045,8.144a5.077,5.077,0,0,1-.354.62H43.462v-3.1c.089-1.239,1.151-1.859,2.124-1.151a1.513,1.513,0,0,1,.62,1.151c.089,1.062,0,2.036,0,3.1H72.318l-.266-.531c-1.682-2.744-3.452-5.488-5.134-8.321a.954.954,0,0,0-.974-.531H55.5a1.751,1.751,0,0,1-.974-.177,1.369,1.369,0,0,1-.8-1.5,1.435,1.435,0,0,1,1.416-1.062h9.56a1.441,1.441,0,0,0-.266-.531c-1.151-1.77-2.213-3.541-3.364-5.4-.177-.354-.443-.443-.885-.443h-4.16c.708-.974,1.328-1.77,1.947-2.655.089-.089.354-.089.531-.089H60.9a2.029,2.029,0,0,1,2.036,1.151c2.39,3.895,4.78,7.7,7.17,11.507l5.577,9.029c.354.531.62,1.062.089,1.593a2.542,2.542,0,0,1-1.151.708c-.089.089-.266,0-.443,0H14.959a1.784,1.784,0,0,1-1.593-.531,1.459,1.459,0,0,1,.089-1.77c2.833-4.514,5.665-9.029,8.409-13.632,1.5-2.39,2.921-4.691,4.337-7.081a1.824,1.824,0,0,1,1.682-.974H30.45a.9.9,0,0,1,.885.443A12.575,12.575,0,0,1,33.459,55.443Z" transform="translate(-13.103 -15.059)" fill="#57a4ff"/>
              <path id="Path_4678" data-name="Path 4678" d="M47.084,26.368V21.854a.4.4,0,0,1,.266-.354.671.671,0,0,1,.354.177,5.121,5.121,0,0,0,2.478.8c.354-.089.531,0,.62.354a10.668,10.668,0,0,1,0,1.682c-.089.62-.974.885-1.682.531-.354-.177-.8-.354-1.328-.62V26.28h3.452c1.682,0,1.593-.266,1.5,1.5,0,.62.177.8.8.8h5.045c.531,0,.708.177.708.708V40.443c0,.354-.089.708-.531.708H49.651v-5.4c0-.974,0-.974-.974-.974H45.756c-.531,0-.708.177-.62.708v5.665c-.177,0-.443.089-.62.089H36.285c-.8,0-.885-.089-.885-.885V29.467c0-.62.177-.885.885-.8h5.045c.531,0,.708-.177.708-.708,0-1.593,0-1.593,1.682-1.593Zm8.409,8.675v-.708c.089-.62-.177-.8-.8-.8-1.239,0-1.239,0-1.239,1.151v.62c0,1.062,0,1.062.974,1.062.885,0,.974,0,.974-.974A.532.532,0,0,0,55.493,35.043Zm-16.11-.089c0,1.593.089,1.682,1.416,1.416.177,0,.443-.354.531-.531a5.926,5.926,0,0,0,0-1.77.569.569,0,0,0-.443-.443C39.118,33.538,39.383,33.45,39.383,34.955Zm18.677,0c0-1.416.177-1.416-.885-1.416s-1.062,0-1.062,1.062v.8c0,.885,0,.974.974.974,1.062,0,1.062,0,1.062-1.062C58.06,35.22,58.06,35.132,58.06,34.955Zm-2.567,3.718c0-1.593,0-1.593-1.416-1.5h-.089c-.177.177-.443.266-.443.443a14.3,14.3,0,0,0,0,1.947A.588.588,0,0,0,53.9,40c1.151.354,1.593,0,1.593-1.239Zm2.567,0V37.7a.753.753,0,0,0-.266-.443c-1.151-.354-1.682,0-1.682,1.151v1.151a.569.569,0,0,0,.443.443c1.328.266,1.5.089,1.5-1.239Zm-4.514-7.258V32.3c0,.443.177.62.62.62,1.593,0,1.328.089,1.328-1.328V31.06c0-.974,0-.974-.974-.974s-.974,0-.974.974Zm4.514.089v-.708c.089-.531-.177-.8-.708-.708-1.239,0-1.239,0-1.239,1.328v.708c0,.885,0,.885.885.885,1.062,0,1.062,0,1.062-1.062ZM41.419,38.584c0-1.593,0-1.593-1.416-1.416h-.089c-.177.177-.443.354-.443.531a6.539,6.539,0,0,0,0,1.859c0,.177.177.443.354.443,1.239.354,1.593,0,1.593-1.239Zm4.426-9.294c0-1.593.266-1.416-1.5-1.416a.569.569,0,0,0-.443.443,5.927,5.927,0,0,0,0,1.77c0,.177.266.443.354.531,1.239.266,1.593,0,1.593-1.239Zm2.567.089c0-1.593.266-1.416-1.416-1.5-.354,0-.62.089-.531.531v1.77a.728.728,0,0,0,.354.531c1.239.354,1.593,0,1.593-1.239C48.412,29.467,48.412,29.378,48.412,29.378Zm.708-.089c0,1.593-.266,1.5,1.416,1.416h.089c.177-.177.443-.354.443-.531a5.926,5.926,0,0,0,0-1.77.569.569,0,0,0-.443-.443c-1.416-.266-1.5-.177-1.5,1.328ZM36.816,31.5c0,1.593-.266,1.416,1.416,1.416a.469.469,0,0,0,.531-.531v-1.77c0-.177-.266-.443-.443-.531-1.239-.266-1.5,0-1.5,1.239C36.816,31.414,36.816,31.414,36.816,31.5Zm2.567,0c0,1.593-.266,1.416,1.416,1.416.354,0,.62-.177.531-.531v-1.77c0-.177-.266-.531-.443-.531-1.328-.266-1.5-.089-1.5,1.239C39.383,31.414,39.383,31.414,39.383,31.5Zm7.081,1.239v.708c.089.266.177.62.354.708.974.443,1.682,0,1.682-1.062v-.708c0-.974,0-.974-.974-.974-1.062,0-1.062,0-1.062,1.062C46.465,32.476,46.465,32.653,46.465,32.742Zm4.6.089c0-1.593,0-1.593-1.416-1.416h-.089c-.177.177-.443.354-.443.531a5.926,5.926,0,0,0,0,1.77c0,.177.266.443.354.531,1.151.266,1.593,0,1.593-1.151Q51.067,32.83,51.067,32.83ZM36.816,38.584c0,1.5,0,1.5.885,1.5,1.062,0,1.062,0,1.062-1.062v-.8c0-.974,0-.974-.974-.974s-.974,0-.974.974C36.816,38.318,36.816,38.407,36.816,38.584Zm9.029-5.754h0v-.974a.588.588,0,0,0-.354-.443c-1.151-.354-1.682,0-1.682,1.151v.8c0,.8.089.885.885.885,1.062,0,1.062,0,1.062-1.062A.669.669,0,0,0,45.845,32.83Zm-9.029,2.124c0,1.5.089,1.593,1.416,1.416h.089c.177-.177.443-.266.443-.443a6.539,6.539,0,0,0,0-1.859c0-.177-.177-.443-.354-.443-1.239-.266-1.593,0-1.593,1.239C36.816,34.866,36.816,34.955,36.816,34.955Z" transform="translate(-15.664 -11.478)" fill="#0054a5"/>
              <path id="Path_4679" data-name="Path 4679" d="M50.639,39.3v3.275H49.4V39.3Z" transform="translate(-17.271 -13.522)"/>
              <path id="Path_4680" data-name="Path 4680" d="M47.2,39.3h1.151v3.275H47.2Z" transform="translate(-17.019 -13.522)"/>
              <path id="Path_4681" data-name="Path 4681" d="M50.639,37.5v.8H49.4v-.8Z" transform="translate(-17.271 -13.315)"/>
              <path id="Path_4682" data-name="Path 4682" d="M47.2,38.3v-.8h1.151v.8Z" transform="translate(-17.019 -13.315)"/>
              <path id="Path_4683" data-name="Path 4683" d="M57.847,36.616v.443c0,.885,0,.885-.974.974-.974,0-.974,0-.974-1.062v-.62c0-1.151,0-1.151,1.239-1.151.62,0,.8.177.8.8A1.312,1.312,0,0,0,57.847,36.616Z" transform="translate(-18.018 -13.051)" fill="#fff"/>
              <path id="Path_4684" data-name="Path 4684" d="M39.9,36.527c0-1.5-.266-1.328,1.5-1.328a.569.569,0,0,1,.443.443,5.926,5.926,0,0,1,0,1.77.658.658,0,0,1-.531.531C39.987,38.12,39.9,38.12,39.9,36.527Z" transform="translate(-16.179 -13.05)" fill="#fff"/>
              <path id="Path_4685" data-name="Path 4685" d="M60.736,36.528v.443c0,1.062,0,1.062-1.062,1.062-.885,0-.974,0-.974-.974v-.8c0-1.062,0-1.062,1.062-1.062C60.913,35.2,60.736,35.111,60.736,36.528Z" transform="translate(-18.339 -13.051)" fill="#fff"/>
              <path id="Path_4686" data-name="Path 4686" d="M57.842,40.7v.177c0,1.151-.443,1.593-1.593,1.239-.177,0-.266-.266-.354-.443a14.3,14.3,0,0,1,0-1.947c0-.177.266-.266.443-.443h.089C57.842,39.02,57.842,39.108,57.842,40.7Z" transform="translate(-18.013 -13.507)" fill="#fff"/>
              <path id="Path_4687" data-name="Path 4687" d="M60.742,40.711v.177c0,1.239-.266,1.5-1.5,1.239-.177,0-.354-.266-.443-.443a5,5,0,0,1,0-1.151c0-1.151.531-1.5,1.682-1.151a.487.487,0,0,1,.266.443Z" transform="translate(-18.346 -13.517)" fill="#fff"/>
              <path id="Path_4688" data-name="Path 4688" d="M55.9,32.516v-.443c0-.974,0-.974.974-.974s.974,0,.974.974V32.6c0,1.416.266,1.239-1.328,1.328-.443,0-.62-.177-.62-.62C55.9,33.136,55.9,32.782,55.9,32.516Z" transform="translate(-18.018 -12.581)" fill="#fff"/>
              <path id="Path_4689" data-name="Path 4689" d="M60.747,32.616v.443c0,1.062,0,1.062-1.062,1.062-.885,0-.885,0-.885-.885v-.708c0-1.328,0-1.239,1.239-1.328.531,0,.8.177.708.708Z" transform="translate(-18.351 -12.592)" fill="#fff"/>
              <path id="Path_4690" data-name="Path 4690" d="M41.942,40.612v.177c0,1.328-.354,1.593-1.593,1.239-.177,0-.354-.266-.354-.443a13.029,13.029,0,0,1,0-1.859c0-.177.266-.354.443-.531h.089C41.942,39.107,41.942,39.107,41.942,40.612Z" transform="translate(-16.187 -13.507)" fill="#fff"/>
              <path id="Path_4691" data-name="Path 4691" d="M46.939,30.121V30.3c0,1.239-.354,1.5-1.593,1.239-.177,0-.354-.354-.354-.531a5.926,5.926,0,0,1,0-1.77.569.569,0,0,1,.443-.443C47.116,28.7,46.85,28.527,46.939,30.121Z" transform="translate(-16.758 -12.309)" fill="#fff"/>
              <path id="Path_4692" data-name="Path 4692" d="M49.842,30.211v.177c0,1.239-.354,1.5-1.593,1.239-.177,0-.354-.354-.354-.531a11.819,11.819,0,0,1,0-1.77c0-.443.177-.531.531-.531C50.108,28.706,49.842,28.618,49.842,30.211Z" transform="translate(-17.094 -12.311)" fill="#fff"/>
              <path id="Path_4693" data-name="Path 4693" d="M50.9,30.118h0c0-1.5.089-1.5,1.5-1.328a.569.569,0,0,1,.443.443,5.926,5.926,0,0,1,0,1.77c0,.177-.266.354-.443.531h-.089C50.632,31.534,50.9,31.622,50.9,30.118Z" transform="translate(-17.442 -12.306)" fill="#fff"/>
              <path id="Path_4694" data-name="Path 4694" d="M37,32.6v-.177c0-1.239.266-1.5,1.5-1.239.177,0,.354.354.443.531a11.8,11.8,0,0,1,0,1.77.469.469,0,0,1-.531.531C36.734,34.02,37.089,34.109,37,32.6Z" transform="translate(-15.848 -12.58)" fill="#fff"/>
              <path id="Path_4695" data-name="Path 4695" d="M39.9,32.6v-.177c0-1.328.266-1.5,1.5-1.239.177,0,.443.354.443.531a11.8,11.8,0,0,1,0,1.77.469.469,0,0,1-.531.531C39.634,34.019,39.989,34.107,39.9,32.6Z" transform="translate(-16.181 -12.578)" fill="#fff"/>
              <path id="Path_4696" data-name="Path 4696" d="M47.895,34v-.443c0-1.062,0-1.062,1.062-1.062.974,0,.974,0,.974.974v.708c0,1.062-.708,1.5-1.682,1.062-.177-.089-.266-.443-.354-.708C47.806,34.536,47.895,34.27,47.895,34Z" transform="translate(-17.094 -12.741)" fill="#fff"/>
              <path id="Path_4697" data-name="Path 4697" d="M52.839,34.1v.177c0,1.151-.354,1.5-1.593,1.151a.728.728,0,0,1-.354-.531,5.926,5.926,0,0,1,0-1.77c0-.177.266-.354.443-.531h.089C52.839,32.508,52.839,32.508,52.839,34.1Z" transform="translate(-17.435 -12.749)" fill="#fff"/>
              <path id="Path_4698" data-name="Path 4698" d="M37,40.616v-.443c0-.974,0-.974.974-.974s.974,0,.974.974v.8c0,1.062,0,1.062-1.062,1.062C37,42.033,37,42.033,37,40.616Z" transform="translate(-15.848 -13.511)" fill="#fff"/>
              <path id="Path_4699" data-name="Path 4699" d="M46.947,34.1v.354c0,1.062,0,1.062-1.062,1.062-.8,0-.885-.089-.885-.885v-.8c0-1.151.531-1.5,1.682-1.151a.884.884,0,0,1,.354.443,3.319,3.319,0,0,0-.089.974Z" transform="translate(-16.766 -12.747)" fill="#fff"/>
              <path id="Path_4700" data-name="Path 4700" d="M37,36.5v-.177c0-1.328.266-1.5,1.593-1.239.177,0,.354.266.354.443a13.03,13.03,0,0,1,0,1.859c0,.177-.266.354-.443.443h-.089C37.089,38.1,37,38.007,37,36.5Z" transform="translate(-15.848 -13.026)" fill="#fff"/>
            </g>
          </g>
          <g id="Group_980" data-name="Group 980" transform="translate(-22 6620)">
            <g id="Group_979" data-name="Group 979" transform="translate(363 24)">
              <circle id="Ellipse_57" data-name="Ellipse 57" cx="16" cy="16" r="16" transform="translate(325 500)" fill="#0054a5"/>
              <circle id="Ellipse_58" data-name="Ellipse 58" cx="7" cy="7" r="7" transform="translate(334 509)" fill="#fff"/>
            </g>
            <line id="Line_23" data-name="Line 23" y2="69" transform="translate(704.5 556.5)" fill="none" stroke="#0054a5" stroke-width="1"/>
          </g>
          <g id="Group_982" data-name="Group 982" transform="translate(-22 6620)">
            <g id="Group_981" data-name="Group 981" transform="translate(37 24)">
              <circle id="Ellipse_59" data-name="Ellipse 59" cx="16" cy="16" r="16" transform="translate(325 500)" fill="#0054a5"/>
              <circle id="Ellipse_60" data-name="Ellipse 60" cx="7" cy="7" r="7" transform="translate(334 509)" fill="#fff"/>
            </g>
            <line id="Line_24" data-name="Line 24" y2="69" transform="translate(378.5 457.5)" fill="none" stroke="#0054a5" stroke-width="1"/>
          </g>
          <g id="Group_984" data-name="Group 984" transform="translate(623 6620)">
            <g id="Group_983" data-name="Group 983" transform="translate(37 24)">
              <circle id="Ellipse_61" data-name="Ellipse 61" cx="16" cy="16" r="16" transform="translate(325 500)" fill="#0054a5"/>
              <circle id="Ellipse_62" data-name="Ellipse 62" cx="7" cy="7" r="7" transform="translate(334 509)" fill="#fff"/>
            </g>
            <line id="Line_25" data-name="Line 25" y2="69" transform="translate(378.5 457.5)" fill="none" stroke="#0054a5" stroke-width="1"/>
          </g>
          <g id="Group_985" data-name="Group 985" transform="translate(-6777.292 8147.049) rotate(-90)">
            <g id="demand_letter-01" data-name="demand letter-01" transform="translate(1084 7752)">
              <path id="Path_4701" data-name="Path 4701" d="M13.775,93.562V79.991c0-.462-.173-1.068.289-1.328.491-.318.866.231,1.242.491q12.127,7.753,24.284,15.563a9.358,9.358,0,0,0,11.059-.029c4.966-3.234,9.962-6.381,14.842-9.731,3.176-2.166,6.555-4.042,9.788-6.093.722-.462.924-.2.982.491.029.375.058.78.058,1.155,0,8.4-.029,16.834.029,25.236,0,1.213-.4,1.53-1.53,1.588-1.27.087-2.743-.26-3.58,1.242-.289.52-.693.144-.953-.087a3.032,3.032,0,0,0-2.57-.549l-37.768,3.465c-3.205.289-6.439.52-9.615,1.011a5.879,5.879,0,0,1-6.641-5.833C13.919,102.225,13.775,97.894,13.775,93.562Z" transform="translate(-13.683 -57.238)" fill="#1664ff"/>
              <path id="Path_4702" data-name="Path 4702" d="M49.376,20.984H32.34c-2.887,0-4.3,1.444-4.3,4.331,0,1.184.462,3.09-.2,3.407-.982.462-2.05-1.011-3.09-1.617-1.386-.837-2.714-1.79-4.129-2.628-.982-.577-.837-.9,0-1.473q8.749-5.934,17.5-11.925c2.454-1.675,4.938-3.321,7.392-4.966a6.5,6.5,0,0,1,8.027-.058c8.345,5.6,16.632,11.261,24.977,16.863,1.011.693.982.982-.058,1.617-2.223,1.328-4.389,2.743-6.526,4.187-.722.491-.9.26-.9-.491.029-1.011,0-2.021,0-3.032,0-2.743-1.444-4.216-4.158-4.216Z" transform="translate(-18.129 -4.699)" fill="#57a4ff"/>
              <path id="Path_4703" data-name="Path 4703" d="M94.132,84.968h-9.5c-.866,0-1.7-.029-1.732-1.184,0-1.213.9-1.184,1.732-1.184h19.144c.837,0,1.732,0,1.732,1.184,0,1.155-.866,1.184-1.732,1.184Z" transform="translate(-62.914 -60.106)" fill="#8a8a8a"/>
              <path id="Path_4704" data-name="Path 4704" d="M94.132,104.241h-9.5c-.866,0-1.7-.058-1.732-1.213,0-1.184.866-1.155,1.732-1.155h19.173c.462,0,1.068-.115,1.27.4.173.4.577.78.346,1.3-.26.577-.78.635-1.328.635C100.773,104.241,97.453,104.241,94.132,104.241Z" transform="translate(-62.914 -73.807)" fill="#8a8a8a"/>
            </g>
          </g>
          <g id="Group_987" data-name="Group 987" transform="translate(619 6622)">
            <g id="Group_986" data-name="Group 986" transform="translate(363 24)">
              <circle id="Ellipse_63" data-name="Ellipse 63" cx="16" cy="16" r="16" transform="translate(325 500)" fill="#0054a5"/>
              <circle id="Ellipse_64" data-name="Ellipse 64" cx="7" cy="7" r="7" transform="translate(334 509)" fill="#fff"/>
            </g>
            <line id="Line_26" data-name="Line 26" y2="69" transform="translate(704.5 556.5)" fill="none" stroke="#0054a5" stroke-width="1"/>
          </g>
          <g id="Group_989" data-name="Group 989" transform="translate(-6455.771 8792.287) rotate(-90)">
            <g id="document" transform="translate(1481 7752)">
              <path id="Path_4705" data-name="Path 4705" d="M199.008,242.241v2.525a1.263,1.263,0,0,1-1.263,1.263H192.7v5.05a1.263,1.263,0,0,1-1.263,1.263h-2.525a1.263,1.263,0,0,1-1.263-1.263v-5.05H182.6a1.263,1.263,0,0,1-1.263-1.263v-2.525a1.263,1.263,0,0,1,1.263-1.263h5.05v-5.05a1.263,1.263,0,0,1,1.263-1.263h2.525a1.263,1.263,0,0,1,1.263,1.263v5.05h5.05A1.263,1.263,0,0,1,199.008,242.241Z" transform="translate(-166.183 -206.891)" fill="#f2f2f2"/>
              <path id="Path_4706" data-name="Path 4706" d="M143.15,181.333A15.15,15.15,0,1,1,128,196.483,15.15,15.15,0,0,1,143.15,181.333Zm8.837,16.412V195.22a1.263,1.263,0,0,0-1.263-1.263h-5.05v-5.05a1.263,1.263,0,0,0-1.263-1.263h-2.525a1.263,1.263,0,0,0-1.263,1.263v5.05h-5.05a1.263,1.263,0,0,0-1.263,1.263v2.525a1.263,1.263,0,0,0,1.263,1.263h5.05v5.05a1.263,1.263,0,0,0,1.263,1.263h2.525a1.263,1.263,0,0,0,1.263-1.263v-5.05h5.05A1.263,1.263,0,0,0,151.987,197.745Z" transform="translate(-119.163 -159.871)" fill="#a8ddfd"/>
              <path id="Path_4707" data-name="Path 4707" d="M372.767,20.767h-7.575a2.533,2.533,0,0,1-2.525-2.525V10.667Z" transform="translate(-326.055 -9.404)" fill="#aac4da"/>
              <path id="Path_4708" data-name="Path 4708" d="M109.45,20.767v45.45a2.532,2.532,0,0,1-2.525,2.525h-40.4A2.532,2.532,0,0,1,64,66.217V13.192a2.533,2.533,0,0,1,2.525-2.525H99.35v7.575a2.533,2.533,0,0,0,2.525,2.525Zm-7.575,25.25a15.15,15.15,0,1,0-15.15,15.15,15.15,15.15,0,0,0,15.15-15.15Z" transform="translate(-62.737 -9.404)" fill="#57a4ff"/>
              <g id="Group_988" data-name="Group 988" transform="translate(0)">
                <path id="Path_4709" data-name="Path 4709" d="M117.333,64h12.625v2.525H117.333Z" transform="translate(-109.758 -56.425)" fill="#8a8a8a"/>
                <path id="Path_4710" data-name="Path 4710" d="M117.333,106.667h2.525v2.525h-2.525Z" transform="translate(-109.758 -94.042)" fill="#8a8a8a"/>
                <path id="Path_4711" data-name="Path 4711" d="M160,106.667h2.525v2.525H160Z" transform="translate(-147.375 -94.042)" fill="#8a8a8a"/>
                <path id="Path_4712" data-name="Path 4712" d="M100.938,10.47,90.838.37A1.262,1.262,0,0,0,89.945,0H57.12a3.787,3.787,0,0,0-3.787,3.787h0V56.812A3.787,3.787,0,0,0,57.12,60.6h40.4a3.787,3.787,0,0,0,3.787-3.787V11.362A1.262,1.262,0,0,0,100.938,10.47ZM98.783,56.812a1.263,1.263,0,0,1-1.263,1.263H57.12a1.263,1.263,0,0,1-1.263-1.263V3.787A1.263,1.263,0,0,1,57.12,2.525H88.683V8.837a3.787,3.787,0,0,0,3.787,3.787H95V10.1H92.47a1.263,1.263,0,0,1-1.263-1.263V4.31l7.575,7.575Z" transform="translate(-53.333)" fill="#8a8a8a"/>
                <path id="Path_4713" data-name="Path 4713" d="M133.745,170.667a16.412,16.412,0,1,0,16.412,16.412A16.412,16.412,0,0,0,133.745,170.667Zm0,30.3a13.887,13.887,0,1,1,13.887-13.887A13.887,13.887,0,0,1,133.745,200.967Z" transform="translate(-109.758 -150.467)" fill="#8a8a8a"/>
                <path id="Path_4714" data-name="Path 4714" d="M188.342,230.312h-3.787v-3.787A2.525,2.525,0,0,0,182.029,224H179.5a2.525,2.525,0,0,0-2.525,2.525v3.787h-3.787a2.525,2.525,0,0,0-2.525,2.525v2.525a2.525,2.525,0,0,0,2.525,2.525h3.787v3.787A2.525,2.525,0,0,0,179.5,244.2h2.525a2.525,2.525,0,0,0,2.525-2.525v-3.787h3.787a2.525,2.525,0,0,0,2.525-2.525v-2.525A2.525,2.525,0,0,0,188.342,230.312Zm0,5.05h-5.05a1.263,1.263,0,0,0-1.263,1.263v5.05H179.5v-5.05a1.263,1.263,0,0,0-1.263-1.263h-5.05v-2.525h5.05a1.263,1.263,0,0,0,1.263-1.263v-5.05h2.525v5.05a1.263,1.263,0,0,0,1.263,1.263h5.05Z" transform="translate(-156.779 -197.488)" fill="#8a8a8a"/>
              </g>
            </g>
          </g>
          <text style="text-align: center;font-weight:400; font-family:Roboto Condensed" id="Selection_and_Training_Only_selected_employees_will_be_sent_for_basic_language_and_skills_training_as_per_requirements._" data-name="Selection and Training Only selected employees will be sent for basic language and skills training as per requirements.
" transform="translate(415.5 7153.5) rotate(-90)" fill="#0054a5" font-size="15" font-family="RobotoCondensed-Regular, Roboto"><tspan x="0" y="14">SELECTION AND </tspan><tspan x="0" y="31">TRAINING ONLY </tspan><tspan x="0" y="48">SELECTED </tspan><tspan x="0" y="65">EMPLOYEES WILL BE </tspan><tspan x="0" y="82">SENT FOR BASIC </tspan><tspan x="0" y="99">LANGUAGE AND </tspan><tspan x="0" y="116">SKILLS TRAINING AS </tspan><tspan x="0" y="133">PER REQUIREMENTS.</tspan><tspan x="0" y="150"></tspan></text>
          <text style="text-align: center;font-weight:400; font-family:Roboto Condensed" id="Collect_your_Passport_-_Please_check_that_the_details_on_your_visa_are_correct_" data-name="Collect your Passport - Please check that the details on your visa are correct
" transform="translate(1042 7157) rotate(-90)" fill="#0054a5" font-size="15" font-family="RobotoCondensed-Regular, Roboto"><tspan x="0" y="14">COLLECT YOUR </tspan><tspan x="0" y="31">PASSPORT - PLEASE </tspan><tspan x="0" y="48">CHECK THAT THE </tspan><tspan x="0" y="65">DETAILS ON YOUR </tspan><tspan x="0" y="82">VISA ARE CORRECT</tspan><tspan x="0" y="99"></tspan></text>
          <text style="text-align: center;font-weight:400; font-family:Roboto Condensed" id="Documents_Submission_handover_valid_passport_medical_certificate_police_clearance_and_other_required_documents_to_the_agency." data-name="Documents Submission – handover valid passport, medical certificate, police clearance and other required documents to the agency." transform="translate(729 7322) rotate(-90)" fill="#0054a5" font-size="15" font-family="RobotoCondensed-Regular, Roboto"><tspan x="0" y="14">DOCUMENTS </tspan><tspan x="0" y="31">SUBMISSION – </tspan><tspan x="0" y="48">HANDOVER VALID </tspan><tspan x="0" y="65">PASSPORT, </tspan><tspan x="0" y="82">MEDICAL </tspan><tspan x="0" y="99">CERTIFICATE, </tspan><tspan x="0" y="116">POLICE CLEARANCE </tspan><tspan x="0" y="133">AND OTHER </tspan><tspan x="0" y="150">REQUIRED </tspan><tspan x="0" y="167">DOCUMENTS TO </tspan><tspan x="0" y="184">THE AGENCY.</tspan></text>
          <text style="text-align: center;font-weight:400; font-family:Roboto Condensed" id="BMET_Smart_Card_-_Smart_card_needs_to_be_collected_from_BMET_before_departure." data-name="BMET Smart Card - Smart card needs to be collected from BMET before departure." transform="translate(1379 7321) rotate(-90)" fill="#0054a5" font-size="15" font-family="RobotoCondensed-Regular, Roboto"><tspan x="0" y="14">BMET SMART CARD - </tspan><tspan x="0" y="31">SMART CARD NEEDS </tspan><tspan x="0" y="48">TO BE COLLECTED </tspan><tspan x="0" y="65">FROM BMET BEFORE </tspan><tspan x="0" y="82">DEPARTURE.</tspan></text>
        </g>
      </g>
    </g>
  </g>
</svg>
