<svg xmlns="http://www.w3.org/2000/svg" xmlns:xlink="http://www.w3.org/1999/xlink" width="326.98" height="1362" viewBox="0 0 326.98 1362">
  <defs><style>
        @import url('https://fonts.googleapis.com/css2?family=Roboto+Condensed:wght@300;400&amp;display=swap');
        </style>
    <clipPath id="clip-path">
      <rect x="1" y="-1" width="1362" height="326.98" fill="none"/>
    </clipPath>
  </defs>
  <g id="Group_994" data-name="Group 994" transform="translate(-2443.506 -15.585)">
    <g id="Group_972" data-name="Group 972" transform="translate(-1751 -35)">
      <g id="slideno6" transform="translate(3199.581 -373.411) rotate(90)">
        <g id="Group_949" data-name="Group 949" transform="translate(1 -829)">
          <g id="_1" data-name="1" transform="translate(421.996 -491.905)" clip-path="url(#clip-path)" style="isolation: isolate">
            <g id="slide10" transform="translate(-255.996 -7004.095)">
              <g id="Group_903" data-name="Group 903">
                <line id="Line_12" data-name="Line 12" x2="1362" y2="10" transform="translate(256 7159.5)" fill="none" stroke="#707070" stroke-width="1" stroke-dasharray="2 2"/>
                <g id="Layer_1" transform="translate(304.315 7076.808) rotate(-90)">
                  <g id="Group_890" data-name="Group 890" transform="translate(15.487 19.9)">
                    <path id="Path_4187" data-name="Path 4187" d="M32.7,60.559a18.961,18.961,0,0,0,25.9-26.5,18.181,18.181,0,0,0-11.746-8.132A18.8,18.8,0,0,0,32.8,28.333V21.1c0-.9.3-1.2,1.2-1.2H61.914V30.642c0,1,.3,1.305,1.305,1.305H73.861V72.506c0,1.1-.2,1.406-1.406,1.406H34.105c-1.1,0-1.305-.3-1.305-1.305V61.061C32.7,60.961,32.7,60.86,32.7,60.559Zm21.082,7.329H68.841a.8.8,0,0,0,.7-.9.859.859,0,0,0-.7-.9H38.924a.962.962,0,0,0-.9.9.879.879,0,0,0,.8.9H53.782ZM66.131,54.335h-1a.739.739,0,0,0-.8.8c0,.5.2.9.7.9h2.209c.5,0,.7-.4.7-.9s-.3-.8-.9-.8Zm-.1,7.63h1c.5,0,.7-.3.8-.8,0-.5-.2-.9-.6-.9a8.889,8.889,0,0,0-2.309,0c-.5,0-.7.5-.7.9a.739.739,0,0,0,.8.8Zm0-23.291h1a.91.91,0,0,0,0-1.807H64.926a.82.82,0,0,0-.8.9.879.879,0,0,0,.8.9Zm0,4.116h-1a.879.879,0,0,0-.8.9.739.739,0,0,0,.8.8h2.008c.5,0,.8-.3.8-.9a.879.879,0,0,0-.8-.9C66.733,42.689,66.432,42.79,66.03,42.79Zm0,7.529h1.1c.5,0,.7-.4.8-.8,0-.4-.2-.9-.6-.9a8.879,8.879,0,0,0-2.309,0c-.5,0-.7.4-.6.9a.739.739,0,0,0,.8.8Z" transform="translate(-15.42 -19.9)" fill="#1664ff"/>
                    <path id="Path_4188" data-name="Path 4188" d="M59.934,44.466A17.269,17.269,0,0,1,42.867,61.634C33.229,61.734,25.7,54,25.7,44.065a17.122,17.122,0,0,1,34.234.4ZM42.867,29.207a15.26,15.26,0,1,0,15.26,15.26A15.288,15.288,0,0,0,42.867,29.207Z" transform="translate(-15.447 -19.87)" fill="#8a8a8a"/>
                    <path id="Path_4189" data-name="Path 4189" d="M27.848,58.106c.4-.4.8-.7,1.1-1l1.305,1.305a11.347,11.347,0,0,0-1.1,1.1c.4.4.9.7,1.305,1.1a1.031,1.031,0,0,1,0,1.707c-2.911,2.911-5.823,5.823-8.734,8.634a3.813,3.813,0,0,1-4.919-5.823c2.811-2.711,5.522-5.421,8.232-8.132.7-.7,1-.7,1.707,0A11.453,11.453,0,0,1,27.848,58.106Z" transform="translate(-15.487 -19.756)" fill="#8a8a8a"/>
                    <path id="Path_4190" data-name="Path 4190" d="M63.6,30.137V20.8c3.112,3.012,6.325,6.124,9.537,9.236a.1.1,0,0,1-.1.1Z" transform="translate(-15.298 -19.896)" fill="#57a4ff"/>
                    <path id="Path_4191" data-name="Path 4191" d="M53.761,67.707H38.9a.82.82,0,0,1-.8-.9.879.879,0,0,1,.8-.9H68.82a.8.8,0,0,1,.7.9.859.859,0,0,1-.7.9H53.761Z" transform="translate(-15.398 -19.719)" fill="#fff"/>
                    <path id="Path_4192" data-name="Path 4192" d="M66.007,54.2h.9a.879.879,0,0,1,.9.8c0,.5-.2.9-.7.9a16.216,16.216,0,0,1-2.209,0c-.5,0-.7-.4-.7-.9a.739.739,0,0,1,.8-.8Z" transform="translate(-15.296 -19.765)" fill="#fff"/>
                    <path id="Path_4193" data-name="Path 4193" d="M65.907,61.807h-1a.739.739,0,0,1-.8-.8c0-.5.2-.9.7-.9a8.889,8.889,0,0,1,2.309,0,.679.679,0,0,1,.6.9c0,.5-.3.7-.8.8Z" transform="translate(-15.296 -19.742)" fill="#fff"/>
                    <path id="Path_4194" data-name="Path 4194" d="M65.907,38.607H65A.91.91,0,0,1,65,36.8h2.108a.82.82,0,0,1,.8.9.879.879,0,0,1-.8.9Z" transform="translate(-15.296 -19.834)" fill="#fff"/>
                    <path id="Path_4195" data-name="Path 4195" d="M65.907,42.7h1a.91.91,0,0,1,0,1.807H64.9c-.5,0-.7-.4-.8-.8a.82.82,0,0,1,.8-.9,1.735,1.735,0,0,1,1-.1Z" transform="translate(-15.296 -19.811)" fill="#fff"/>
                    <path id="Path_4196" data-name="Path 4196" d="M65.907,50.207h-1c-.5,0-.7-.4-.8-.8a.878.878,0,0,1,.6-.9,8.88,8.88,0,0,1,2.309,0,.733.733,0,0,1,.6.9.792.792,0,0,1-.8.8Z" transform="translate(-15.296 -19.788)" fill="#fff"/>
                    <path id="Path_4197" data-name="Path 4197" d="M42.86,29.2A15.26,15.26,0,1,1,27.6,43.958,15.189,15.189,0,0,1,42.86,29.2Zm.1,2.51a12.8,12.8,0,0,0-.6,25.6A12.89,12.89,0,0,0,55.71,44.359,12.747,12.747,0,0,0,42.96,31.71Z" transform="translate(-15.44 -19.863)" fill="#fff"/>
                    <path id="Path_4198" data-name="Path 4198" d="M42.951,31.7A12.7,12.7,0,0,1,55.7,44.45,12.95,12.95,0,0,1,42.348,57.4a12.855,12.855,0,0,1,.6-25.7Zm3.514,13.252a5.37,5.37,0,0,0,1.606-3.915,4.856,4.856,0,0,0-1.807-3.915,5.275,5.275,0,0,0-6.425-.2,5.075,5.075,0,0,0-1.907,2.811,5.6,5.6,0,0,0,1.506,5.321c-.2.1-.3.2-.5.2a10.451,10.451,0,0,0-4.618,4.216.914.914,0,0,0,0,1.2,1.534,1.534,0,0,0,1,.4h15.26a1.273,1.273,0,0,0,.6-.1.788.788,0,0,0,.4-1.2,27.927,27.927,0,0,0-2.108-2.711A17.692,17.692,0,0,0,46.464,44.952Z" transform="translate(-15.43 -19.854)" fill="#a8ddfd"/>
                    <path id="Path_4199" data-name="Path 4199" d="M46.448,44.935a33.161,33.161,0,0,1,3.012,2.209,17.9,17.9,0,0,1,2.108,2.711c.3.5.2.9-.4,1.2H35.4a2.12,2.12,0,0,1-1-.4c-.4-.3-.3-.8,0-1.2a10.451,10.451,0,0,1,4.618-4.216c.1-.1.3-.1.5-.2a5.538,5.538,0,0,1-1.506-5.321A4.917,4.917,0,0,1,39.923,36.9a5.275,5.275,0,0,1,6.425.2,4.856,4.856,0,0,1,1.807,3.915A5.452,5.452,0,0,1,46.448,44.935Zm-.1-3.915a3.218,3.218,0,0,0-3.313-3.313,3.449,3.449,0,0,0-3.413,3.413,3.162,3.162,0,0,0,3.313,3.313A3.324,3.324,0,0,0,46.348,41.02Zm-9.437,8.132H49.159A7.984,7.984,0,0,0,36.911,49.152Z" transform="translate(-15.414 -19.837)" fill="#fff"/>
                    <path id="Path_4200" data-name="Path 4200" d="M46.326,41.013a3.3,3.3,0,0,1-3.313,3.413A3.109,3.109,0,0,1,39.7,41.113,3.385,3.385,0,0,1,43.113,37.7,3.138,3.138,0,0,1,46.326,41.013Z" transform="translate(-15.392 -19.83)" fill="#1664ff"/>
                    <path id="Path_4201" data-name="Path 4201" d="M36.9,49.111c2.811-3.915,9.236-3.915,12.248,0Z" transform="translate(-15.403 -19.797)" fill="#57a4ff"/>
                  </g>
                </g>
                <g id="Group_893" data-name="Group 893" transform="translate(-22 6620)">
                  <g id="Group_892" data-name="Group 892" transform="translate(363 24)">
                    <circle id="Ellipse_38" data-name="Ellipse 38" cx="16" cy="16" r="16" transform="translate(325 500)" fill="#0054a5"/>
                    <circle id="Ellipse_39" data-name="Ellipse 39" cx="7" cy="7" r="7" transform="translate(334 509)" fill="#fff"/>
                  </g>
                  <line id="Line_13" data-name="Line 13" y2="69" transform="translate(704.5 556.5)" fill="none" stroke="#0054a5" stroke-width="1"/>
                </g>
                <g id="Group_895" data-name="Group 895" transform="translate(-22 6620)">
                  <g id="Group_894" data-name="Group 894" transform="translate(37 24)">
                    <circle id="Ellipse_40" data-name="Ellipse 40" cx="16" cy="16" r="16" transform="translate(325 500)" fill="#0054a5"/>
                    <circle id="Ellipse_41" data-name="Ellipse 41" cx="7" cy="7" r="7" transform="translate(334 509)" fill="#fff"/>
                  </g>
                  <line id="Line_14" data-name="Line 14" y2="69" transform="translate(378.5 457.5)" fill="none" stroke="#0054a5" stroke-width="1"/>
                </g>
              </g>
            </g>
          </g>
        </g>
        <g id="Group_968" data-name="Group 968" transform="translate(175 -9493)">
          <text style="text-align: center;font-weight:400; font-family:Roboto Condensed" id="FLY_-_It_s_time_to_leave_for_your_new_adventure." data-name="FLY! - It’s time to leave for your new adventure." transform="translate(724.5 8487.5) rotate(-90)" fill="#0054a5" font-size="15" font-family="RobotoCondensed-Regular, Roboto"><tspan x="0" y="14">FLY! - IT’S TIME TO </tspan><tspan x="0" y="31">LEAVE FOR YOUR NEW </tspan><tspan x="0" y="48">ADVENTURE.</tspan></text>
          <text style="text-align: center;font-weight:400; font-family:Roboto Condensed" id="Pre-Departure_Training_-_Please_join_the_agency_s_training_session_for_proper_departure_instructions._" data-name="Pre-Departure Training - Please join the agency’s training session for proper departure instructions. 
" transform="translate(389.5 8319.5) rotate(-90)" fill="#0054a5" font-size="15" font-family="RobotoCondensed-Regular, Roboto"><tspan x="0" y="14">PRE-DEPARTURE </tspan><tspan x="0" y="31">TRAINING - PLEASE </tspan><tspan x="0" y="48">JOIN THE AGENCY’S </tspan><tspan x="0" y="65">TRAINING SESSION FOR </tspan><tspan x="0" y="82">PROPER DEPARTURE </tspan><tspan x="0" y="99">INSTRUCTIONS. </tspan><tspan x="0" y="116"></tspan></text>
          <g id="plane" transform="translate(642.345 8486.598) rotate(-90)">
            <path id="Path_4561" data-name="Path 4561" d="M404.632,213.712l-5.206,5.206L402.4,230.7l9.612-9.612Z" transform="translate(-353.125 -187.542)" fill="#2f374f"/>
            <path id="Path_4562" data-name="Path 4562" d="M159.616,1.58,150.1,11.1l11.68,3.074,5.214-5.215Z" transform="translate(-132.699)" fill="#3b5a71"/>
            <path id="Path_4563" data-name="Path 4563" d="M3.6,286.555l-3.6,3.6,13.142,8.478L20.518,285.5Z" transform="translate(0 -251.006)" fill="#4bb9ec"/>
            <path id="Path_4564" data-name="Path 4564" d="M107.963,336.34l8.387,13.2,3.6-3.6,1.057-16.914Z" transform="translate(-95.448 -289.482)" fill="#1982bf"/>
            <path id="Path_4565" data-name="Path 4565" d="M297.4,152.037l-13.257,14.317,16.609,26.76,6.383-6.383Z" transform="translate(-251.204 -133.016)" fill="#1982bf"/>
            <path id="Path_4566" data-name="Path 4566" d="M9.469,27.2,3.093,33.573l26.768,16.6L44.179,36.916Z" transform="translate(-2.734 -22.647)" fill="#4bb9ec"/>
            <path id="Path_4567" data-name="Path 4567" d="M139.208,4.6,94.537,49.273l-1.592-1.59,1.536-3.922A34.692,34.692,0,0,1,101.7,32.67l21.7-21.7A34.612,34.612,0,0,1,134.336,3.86l.4-.172a3.986,3.986,0,0,1,4.407.849Z" transform="translate(-82.171 -1.575)" fill="#edf5ff"/>
            <path id="Path_4568" data-name="Path 4568" d="M152.541,18.812A34.943,34.943,0,0,1,145.4,30.244L123.678,51.965a35.283,35.283,0,0,1-11.211,7.1l-.066.028L108.547,60.6l-1.872-1.872L151.347,14.06l.345.345A3.981,3.981,0,0,1,152.541,18.812Z" transform="translate(-94.309 -11.033)" fill="#d5e8fe"/>
          </g>
        </g>
      </g>
    </g>
  </g>
</svg>
