<svg id="Group_808" data-name="Group 808" xmlns="http://www.w3.org/2000/svg" width="95" height="167" viewBox="0 0 95 167">
<defs><style>
        @import url('https://fonts.googleapis.com/css2?family=Roboto+Condensed:wght@300;400&amp;display=swap');
        </style></defs>
  <text style="text-align: center;font-weight:400; font-family:Roboto Condensed" id="Languages_Training:_JAPANESE_English" data-name="Languages
Training: 
JAPANESE
English" transform="translate(0 96)" fill="#0054a5" font-size="19" font-family="RobotoCondensed-Regular, Roboto"><tspan x="0" y="0">LANGUAGES</tspan><tspan x="0" y="22">TRAINING: </tspan><tspan x="0" y="44">JAPANESE</tspan><tspan x="0" y="66">ENGLISH</tspan></text>
  <g id="Group_814" data-name="Group 814" transform="translate(0)">
    <path id="Path_632" data-name="Path 632" d="M38,32.144a2.135,2.135,0,0,1,4.023-1,10.324,10.324,0,0,0,1.747-5.756c0-.157-.016-.308-.023-.463a2.118,2.118,0,0,1-3.439-1.677v-5.58A10.389,10.389,0,1,0,38,34.679Z" transform="translate(2.392 1.159)" fill="#8a8a8a"/>
    <path id="Path_633" data-name="Path 633" d="M32.463,57.925a3.463,3.463,0,1,1,3.463-3.463A3.467,3.467,0,0,1,32.463,57.925Z" transform="translate(3.317 6.709)" fill="#1664ff"/>
    <path id="Path_634" data-name="Path 634" d="M45.308,16.233h2.308v2.308h2.308V10.463a3.463,3.463,0,0,0-6.925,0v8.079h2.308Zm1.154-6.925a1.156,1.156,0,0,1,1.154,1.154v3.463H45.308V10.463A1.156,1.156,0,0,1,46.463,9.308Z" transform="translate(5.476 -0.075)" fill="#679cfc"/>
    <path id="Path_635" data-name="Path 635" d="M57.925,15.079a3.448,3.448,0,0,0-.884-2.308A3.461,3.461,0,0,0,54.463,7H51V18.542h3.463A3.467,3.467,0,0,0,57.925,15.079ZM53.308,9.308h1.154a1.154,1.154,0,1,1,0,2.308H53.308Zm0,4.617h1.154a1.154,1.154,0,1,1,0,2.308H53.308Z" transform="translate(6.709 -0.075)" fill="#679cfc"/>
    <path id="Path_636" data-name="Path 636" d="M54.233,35H51.925v4.617H47.308V35H45V46.542h9.233Zm-6.925,9.233V41.925h4.617v2.308Z" transform="translate(5.784 4.242)" fill="#1664ff"/>
    <path id="Path_637" data-name="Path 637" d="M41,43h2.308v2.308H41Z" transform="translate(5.167 5.476)" fill="#679cfc"/>
    <path id="Path_638" data-name="Path 638" d="M41,35h2.308v6.925H41Z" transform="translate(5.167 4.242)" fill="#679cfc"/>
    <path id="Path_639" data-name="Path 639" d="M55,43h2.308v2.308H55Z" transform="translate(7.326 5.476)" fill="#679cfc"/>
    <path id="Path_640" data-name="Path 640" d="M55,35h2.308v6.925H55Z" transform="translate(7.326 4.242)" fill="#679cfc"/>
    <path id="Path_641" data-name="Path 641" d="M72.56,21.775V5.617a2.311,2.311,0,0,0-2.308-2.308H44.859a2.311,2.311,0,0,0-2.308,2.308h-25.8A6.929,6.929,0,0,0,10.233,1,9.23,9.23,0,0,0,8.2,19.234L3.515,31.412A3.1,3.1,0,0,0,6.41,35.626H7.925v7.5a6.354,6.354,0,0,0,7.732,6.2l6.117-1.36V53.1A23.46,23.46,0,0,0,10.236,71.311l-.1,1.249H44.859V62.172a8.052,8.052,0,0,0-2.451-5.786c.048,0,.093.015.143.015h27.7a2.311,2.311,0,0,0,2.308-2.308V37.934a2.311,2.311,0,0,0-2.308-2.308H49.409a14.878,14.878,0,0,0,1.963-11.542H70.251a2.311,2.311,0,0,0,2.308-2.308ZM44.859,5.617H70.251V21.775H48.763l-2.035,4.071a.986.986,0,0,1-1.869-.44ZM3.308,10.233a6.932,6.932,0,0,1,6.925-6.925,4.617,4.617,0,1,1,0,9.233,2.308,2.308,0,1,1,0-4.617V5.617a4.617,4.617,0,1,0,0,9.233,6.932,6.932,0,0,0,6.925-6.925H42.551V13.7a14.964,14.964,0,0,0-16.573,3.463H10.233a6.932,6.932,0,0,1-6.925-6.925ZM15.157,47.072a4.1,4.1,0,0,1-.878.1,4.05,4.05,0,0,1-4.045-4.045v-2.88h8.079A1.156,1.156,0,0,1,19.467,41.4v4.717ZM28.7,70.251H12.68A21.131,21.131,0,0,1,25.928,53.643l.553-.214A3.485,3.485,0,0,0,28.7,50.2V47.167H26.392V50.2a1.16,1.16,0,0,1-.74,1.077l-.553.214c-.345.133-.68.285-1.016.433v-4.47l.128-.029a3.477,3.477,0,0,0,2.533-2.284l.741-2.223L25.3,42.185l-.741,2.223a1.159,1.159,0,0,1-.844.762l-1.937.431V41.4a3.467,3.467,0,0,0-3.463-3.463H10.233V33.317H6.41a.794.794,0,0,1-.793-.793.831.831,0,0,1,.052-.285l4.913-12.772H24.156a14.974,14.974,0,0,0,16,22.689l-1.49,1.49a10.319,10.319,0,0,0-3.042,7.345v3.192A8.085,8.085,0,0,0,28.7,62.171v8.08Zm13.85-8.079v8.079H31.009V62.172a5.771,5.771,0,0,1,11.542,0Zm-4.617-7.987V50.992a8.021,8.021,0,0,1,2.308-5.649v8.749a2.3,2.3,0,0,0,.174.875,7.99,7.99,0,0,0-2.483-.783Zm32.317-.092h-27.7V34.3a.986.986,0,0,1,1.867-.441l2.036,4.072h23.8ZM47.349,34.56l-.866-1.731A3.294,3.294,0,0,0,40.242,34.3v5.454a12.7,12.7,0,1,1,2.308-23.492v9.142a3.294,3.294,0,0,0,6.241,1.473l.552-1.1a12.478,12.478,0,0,1-1.994,8.785Z" transform="translate(-1 -1)" fill="#1664ff"/>
    <path id="Path_642" data-name="Path 642" d="M34.542,22.137V15H32.233v7.137a3.459,3.459,0,0,0-2.1,2.1H23v2.308h7.137a3.459,3.459,0,0,0,2.1,2.1v7.137h2.308V28.638a3.442,3.442,0,0,0,0-6.5Zm-1.154,4.4a1.154,1.154,0,1,1,1.154-1.154A1.156,1.156,0,0,1,33.388,26.542Z" transform="translate(2.392 1.159)" fill="#1664ff"/>
    <path id="Path_643" data-name="Path 643" d="M13.617,25.308A2.311,2.311,0,0,1,11.308,23H9a4.617,4.617,0,0,0,9.233,0H15.925A2.311,2.311,0,0,1,13.617,25.308Z" transform="translate(0.234 2.392)" fill="#a8ddfd"/>
    <path id="Path_644" data-name="Path 644" d="M27,39h2.308v2.308H27Z" transform="translate(3.009 4.859)" fill="#a8ddfd"/>
    <path id="Path_645" data-name="Path 645" d="M27,43h2.308v2.308H27Z" transform="translate(3.009 5.476)" fill="#a8ddfd"/>
  </g>
</svg>
