<svg id="Group_811" data-name="Group 811" xmlns="http://www.w3.org/2000/svg" width="104.028" height="157.533" viewBox="0 0 104.028 157.533">
<defs><style>
        @import url('https://fonts.googleapis.com/css2?family=Roboto+Condensed:wght@300;400&amp;display=swap');
        </style></defs>
  <text style="text-align: center;font-weight:400; font-family:Roboto Condensed" id="CIVIC_VALUE_OF_JAPANESE_CULTURE" data-name="CIVIC VALUE
OF JAPANESE
CULTURE" transform="translate(0.028 108.533)" fill="#0054a5" font-size="19" font-family="RobotoCondensed-Regular, Roboto"><tspan x="0" y="0">CIVIC VALUE</tspan><tspan x="0" y="22">OF JAPANESE</tspan><tspan x="0" y="44">CULTURE</tspan></text>
  <path id="Path_517" data-name="Path 517" d="M58.6,6.275V3.2h.324a21.608,21.608,0,0,1,0,3.237A.5.5,0,0,0,58.6,6.275Z" transform="translate(-9.613 95.448)" fill="#dfe0e3"/>
  <g id="Group_817" data-name="Group 817" transform="translate(0 0)">
    <path id="Path_515" data-name="Path 515" d="M10.6,47.313a11.1,11.1,0,0,0,.278-1.851,33.941,33.941,0,0,1,5.83-14.992c.093-.093.185-.278.37-.278,1.666-.093,3.239-.093,5-.093a1.625,1.625,0,0,0-.37.463A29.628,29.628,0,0,0,14.764,46.85a4.008,4.008,0,0,1-.093.463,2.393,2.393,0,0,1-1.111,2.314c-.925.74-1.758,1.666-2.591,2.406-.093.093-.185.278-.37.185Z" transform="translate(-10.6 -6.964)" fill="#679cfc"/>
    <path id="Path_516" data-name="Path 516" d="M81.683,53.5a5.811,5.811,0,0,0-.278,1.758,32.874,32.874,0,0,1-5.83,14.992.509.509,0,0,1-.463.278c-1.573.093-3.146,0-4.812,0a.481.481,0,0,1,.185-.37,28.74,28.74,0,0,0,7.033-17.583.956.956,0,0,1,.37-.74c1.2-1.111,2.406-2.221,3.517-3.332.185.093,0,.278.185.278C81.683,50.443,81.683,52.017,81.683,53.5Z" transform="translate(-15.051 -8.336)" fill="#679cfc"/>
    <path id="Path_518" data-name="Path 518" d="M57.921,58.011h.925a.412.412,0,0,1,.555.185c.093.185-.093.278-.185.37l-.278.278a.929.929,0,0,1-.925.555c-1.111.093-2.314.185-3.424.278-.833.093-1.573,0-2.406.093h-1.3a.245.245,0,0,0-.278.278,9.306,9.306,0,0,0,0,2.776c.093.463.093.463.648.37-.093-.185-.278-.185-.37-.37h.648c.555.093,1.2,0,1.851.093-.185.278-.37.555,0,.74.278.093,0,.278-.093.37-.185.185-.185.278.093.463a11.225,11.225,0,0,0,2.961,1.018,7.681,7.681,0,0,0,3.239.185h0c.278.093.648-.278.833.185.093.37-.278.463-.463.648a.091.091,0,0,1-.093.093,2.1,2.1,0,0,1-1.481.555c-2.129.185-4.257.278-6.386.37q-.694,0-.278.555c.093.185.185.278.278.463a1.076,1.076,0,0,1,.185.925,4.006,4.006,0,0,0-.093,1.481c-.093,1.481,0,2.869,0,4.35,0,.648,0,.648-.648.648H46.075a20.918,20.918,0,0,0-.093-2.406V70.134a.245.245,0,0,0-.278-.278h-.833a2.475,2.475,0,0,1,.185,2.406c-.093.278-.278.463-.555.37h-.185c-.925,0-.925,0-1.111-.925a2.369,2.369,0,0,1,.37-1.758l-.093-.093c-.925,0-.925,0-.925.833v4.627c0,.463-.278.37-.555.463-.37.093-.37-.185-.37-.463v-5c0-.463-.093-.648-.555-.555H40.43a2.147,2.147,0,0,1,.463,2.5,1.509,1.509,0,0,1-1.2,1.018A1.448,1.448,0,0,1,38.3,72.17a2.516,2.516,0,0,1,.37-2.406h-.093c-.925,0-.925,0-.925.833v4.72c0,.463-.185.37-.463.37s-.463,0-.463-.37v-5.09c0-.463-.093-.555-.555-.463h-.555a2.179,2.179,0,0,1,.463,1.2,1.214,1.214,0,0,1-1.2,1.481,1.189,1.189,0,0,1-1.018-1.111,1.844,1.844,0,0,1,.463-1.573h-.093c-1.018,0-1.018,0-1.018.925v4.627c0,.278-.093.37-.37.37H30.9a30.142,30.142,0,0,1-3.7-2.221,29.919,29.919,0,0,0-.093-4.072,2.348,2.348,0,0,1,.185-1.111c.185-.185.093-.463.093-.648,0-.278-.185-.185-.278-.185-1.573-.093-3.054-.185-4.627-.278-.555,0-1.2-.093-1.758-.093A8.387,8.387,0,0,1,19.7,65.6a15.241,15.241,0,0,0,5.368-.925c.093,0,.185-.093.278-.093a3.751,3.751,0,0,0,.833-.463c.37-.278,0-.463,0-.74,0-.925,0-.925.925-.925.555,0,1.018.093,1.573.093.278,0,.37-.093.37-.37a6.37,6.37,0,0,0-.185-2.314c-.093-.37-.37-.463-.74-.463a28.7,28.7,0,0,1-6.293-.278A1.493,1.493,0,0,1,21,58.844a1.142,1.142,0,0,1-.648-1.388c1.018.648,2.129.278,3.146-.093a14.241,14.241,0,0,0,1.758-.74,6.712,6.712,0,0,0,2.961-3.239,1.593,1.593,0,0,0,.185-1.111c0-.37.185-.37.463-.37,3.146,0,6.2.093,9.347.093H48.574c.278,0,.37-.093.37-.37A4,4,0,0,0,47,47.924c-.37-1.3-.648-1.573-1.666-1.388-.185-.093-.093-.185-.093-.37a1.625,1.625,0,0,1,.37-.463,1.25,1.25,0,0,0,1.481,0c.833.648,1.573,1.3,2.406,2.036a5.042,5.042,0,0,0,0-2.869,11.013,11.013,0,0,0-1.573-3.332A28.388,28.388,0,0,1,45.8,37.929c-.093-.093-.093-.185-.278-.185-1.018-.278-2.036-.463-3.054-.74a6.833,6.833,0,0,0-3.609.37,20.376,20.376,0,0,1-4.072,1.111,4.492,4.492,0,0,0-1.573,0c-.185,0-.278-.093-.185-.278a4.008,4.008,0,0,0,.093-.463A2.072,2.072,0,0,0,34.507,37a24.061,24.061,0,0,0,3.7-.925,23.9,23.9,0,0,1,2.406-.74.723.723,0,0,0-.37-.37,12.26,12.26,0,0,0-2.314-1.481.436.436,0,0,0-.555.093c-.463.463-.463.463-.925-.093,1.111-.185,1.388-.555,1.573-1.666A42.381,42.381,0,0,1,42,34.968a4.251,4.251,0,0,0,2.036,1.018,8.6,8.6,0,0,1,1.2.37,13.214,13.214,0,0,1-.278-2.684,1.32,1.32,0,0,0,1.018-1.388v-.555a5.578,5.578,0,0,0-.833-2.036c.185,0,.278-.093.463-.093a2.454,2.454,0,0,1,.463.555,37.441,37.441,0,0,1,.37,4.535,8.439,8.439,0,0,0,1.3,3.887c.648,1.2,1.388,2.406,2.129,3.517a8.294,8.294,0,0,1,1.018,6.756,14.5,14.5,0,0,0-.463,2.776c0,.278,0,.463.37.37.185,0,.37,0,.37.278A4.734,4.734,0,0,0,52.738,55.6,7.532,7.532,0,0,0,57.921,58.011Z" transform="translate(-11.279 -6.927)" fill="#1664ff"/>
    <path id="Path_519" data-name="Path 519" d="M59.7,56.184a7.225,7.225,0,0,1-5.09-2.129,10.072,10.072,0,0,0,.278-2.869c.093-.925.093-1.943.093-2.869,0-.278,0-.37-.37-.37-.74,0-.74-.093-.74-.833a11.8,11.8,0,0,0-.093-1.758c0-.278.093-.37.37-.37h.833c.278,0,.37-.093.37-.37.093-1.666.093-3.332.185-5.09.185-4.442.463-8.977.74-13.419v-.463c0-.278-.093-.37-.278-.37a.463.463,0,0,1,0-.925c.278,0,.37-.185.37-.463v-.833c0-.278.093-.648-.37-.74l-.093-.093c0-.555-.555-1.018-.37-1.666.093-.278-.093-.463-.37-.555a33.71,33.71,0,0,0-7.4-1.388c-.185,0-.37,0-.463-.185-1.2-1.2-2.406-2.5-3.7-3.794.463,0,.833-.093,1.2-.093a33.215,33.215,0,0,1,11.661,1.573c.37.093.463.093.463-.37.093-2.684.093-5.368.093-8.051,0-.648.463-1.2.278-1.851a1.975,1.975,0,0,1,0-.74h.185V6.3c0,.185-.093.463,0,.648h0a.622.622,0,0,1,.37.648v8.514a.62.62,0,0,0,.37.648,32.659,32.659,0,0,1,7.5,4.072c.278.185.37.37.278.648V26.2c-.185,0-.278-.185-.463-.278a30.315,30.315,0,0,0-6.2-4.164c-.555-.278-.648-.185-.648.37,0,.185,0,.278-.185.37-.278.093-.37.278-.278.463v.74c0,.37,0,.833.555.833.185,0,.185.185.185.37s-.093.37-.278.37c-.463,0-.463.278-.463.648.093,5.182.37,10.272.555,15.455,0,1.111.093,2.221.093,3.332,0,.278.093.37.37.37H59.8c.648.093.648.093.555.74,0,.648-.093,1.2-.093,1.851,0,.37-.185.463-.463.463h-.278c-.278,0-.37.093-.37.37.093,2.221.093,4.535.37,6.756A1.387,1.387,0,0,1,59.7,56.184Z" transform="translate(-13.06 -5.1)" fill="#679cfc"/>
    <path id="Path_520" data-name="Path 520" d="M54.493,73.95a4.006,4.006,0,0,1,.093-1.481,1.076,1.076,0,0,0-.185-.925,2.023,2.023,0,0,1-.278-.463q-.278-.555.278-.555c2.129-.093,4.257-.185,6.386-.37a2.269,2.269,0,0,0,1.481-.555c.648,2.036,1.758,3.794,2.591,5.738.093.185.185.185.278.093.278-.278.555-.463.833-.74a1.329,1.329,0,0,1,1.388-.463c1.388.093,2.776,0,4.164.093a1.006,1.006,0,0,1,.463.093,17.384,17.384,0,0,1-2.221,2.314,32.306,32.306,0,0,1-17.4,8.792c-.185,0-.278.093-.463-.093a43.94,43.94,0,0,1-3.7-3.517c1.018-.093,1.943-.185,2.869-.278a28.853,28.853,0,0,0,11.661-4.442c.093-.093.37-.093.185-.37a8.679,8.679,0,0,0-4.072-3.424A5.544,5.544,0,0,0,54.493,73.95Z" transform="translate(-13.403 -9.909)" fill="#8a8a8a"/>
    <path id="Path_521" data-name="Path 521" d="M43.267,19.409a30.251,30.251,0,0,0-9.439,2.036,29.093,29.093,0,0,0-8.7,5.368,1.616,1.616,0,0,1-1.111.37H19.3c-.093-.185.093-.278.185-.37A33.059,33.059,0,0,1,39.287,15.8a.834.834,0,0,1,.463.093c1.2,1.111,2.314,2.221,3.424,3.424C43.174,19.224,43.174,19.317,43.267,19.409Z" transform="translate(-11.246 -5.898)" fill="#8a8a8a"/>
    <path id="Path_522" data-name="Path 522" d="M69.978,24c.185,0,.278.185.37.278a33.279,33.279,0,0,1,10.828,19.8.834.834,0,0,1-.093.463c-1.111,1.2-2.221,2.314-3.424,3.424h-.093a21.286,21.286,0,0,0-.278-2.406A28.345,28.345,0,0,0,70.07,29.738a1.188,1.188,0,0,1-.37-.925c0-1.481.093-3.054.093-4.535C69.978,24.278,69.978,24.185,69.978,24Z" transform="translate(-15.006 -6.509)" fill="#8a8a8a"/>
    <path id="Path_523" data-name="Path 523" d="M27.991,77.028a18.7,18.7,0,0,0,3.7,2.221,21.667,21.667,0,0,0,4.257,1.758A26.77,26.77,0,0,0,43.539,82.4a.751.751,0,0,1,.74.37c1.018,1.111,2.036,2.128,3.146,3.239a1.277,1.277,0,0,1,.278.37c-.463,0-.925.093-1.388.093a33.236,33.236,0,0,1-19.157-5.182,8.386,8.386,0,0,1-1.481-1.018.56.56,0,0,1-.278-.555V74.9A28.8,28.8,0,0,0,27.991,77.028Z" transform="translate(-11.704 -10.304)" fill="#679cfc"/>
    <path id="Path_524" data-name="Path 524" d="M19.427,67.537a8.387,8.387,0,0,0,1.018,1.481c.463.74,1.111,1.388,1.666,2.129a.787.787,0,0,1,.278.463V76.7a.287.287,0,0,1-.093.185c-.278-.278-.555-.463-.833-.74A33.647,33.647,0,0,1,11.1,57.264c0-.185-.093-.37.093-.555.555-.555,1.111-1.2,1.666-1.758.555-.648,1.2-1.2,1.851-1.851.093.833.185,1.573.278,2.314A26.818,26.818,0,0,0,19.427,67.537Z" transform="translate(-10.635 -8.679)" fill="#8a8a8a"/>
    <path id="Path_525" data-name="Path 525" d="M54.948,62.17a20.915,20.915,0,0,1,2.406-.093c1.111-.093,2.314-.185,3.424-.278a52.123,52.123,0,0,0,1.573,6.293,7.6,7.6,0,0,1-3.239-.185,18.7,18.7,0,0,1-2.961-1.018c-.278-.093-.37-.185-.093-.463.093-.093.37-.278.093-.37-.37-.185-.278-.463,0-.74-.648-.093-1.3,0-1.851-.093C54.485,64.206,54.67,63.188,54.948,62.17Z" transform="translate(-13.858 -9.328)" fill="#679cfc"/>
    <path id="Path_526" data-name="Path 526" d="M48.337,26.553a1.522,1.522,0,0,1-.925-.185c-.833-.37-1.3-.833-1.018-1.851a3.329,3.329,0,0,1,1.2-1.943,1.251,1.251,0,0,1,1.573-.093l1.388.833a1.253,1.253,0,0,1,.37,1.851A2.7,2.7,0,0,1,48.337,26.553Z" transform="translate(-13.262 -6.378)" fill="#679cfc"/>
    <path id="Path_527" data-name="Path 527" d="M44.208,26.646A5.712,5.712,0,0,1,41.339,26a1.306,1.306,0,0,1-.74-1.481A3.377,3.377,0,0,1,42.264,22.3c.185-.093.278,0,.463,0a2.555,2.555,0,0,1,1.481,1.111,6.074,6.074,0,0,1,1.111,2.776c0,.185,0,.278-.185.278A8.015,8.015,0,0,0,44.208,26.646Z" transform="translate(-12.835 -6.379)" fill="#679cfc"/>
    <path id="Path_528" data-name="Path 528" d="M48.423,30.172a2.453,2.453,0,0,1-.463-.555c0-.093-.093-.093-.093-.185-.648-1.111-.555-1.388.648-1.851a5.737,5.737,0,0,1,2.5-.185,1.975,1.975,0,0,1,1.111.648,1.016,1.016,0,0,1,.185,1.388A8.189,8.189,0,0,1,51.2,31c-.185.185-.278.278-.555.185A6.1,6.1,0,0,1,48.423,30.172Z" transform="translate(-13.349 -6.758)" fill="#679cfc"/>
    <path id="Path_529" data-name="Path 529" d="M44.319,28.1c.925,0,.925.093.925.833a2.464,2.464,0,0,1-.278,1.111,15.073,15.073,0,0,1-1.018,1.573,1.411,1.411,0,0,1-1.573.463,2.144,2.144,0,0,1-1.388-1.3,1.26,1.26,0,0,1,.278-1.573,3.442,3.442,0,0,1,2.036-.925A8.25,8.25,0,0,1,44.319,28.1Z" transform="translate(-12.854 -6.815)" fill="#679cfc"/>
    <path id="Path_530" data-name="Path 530" d="M47.174,29.947a5.578,5.578,0,0,1,.833,2.036v.555a1.32,1.32,0,0,1-1.018,1.388,4.889,4.889,0,0,1-2.314,0c-.278-.093-.37-.185-.278-.463a11.974,11.974,0,0,1,1.111-3.517c.093-.185.185-.278.278-.463a.66.66,0,0,1,1.018.093A.723.723,0,0,1,47.174,29.947Z" transform="translate(-13.117 -6.903)" fill="#679cfc"/>
    <path id="Path_531" data-name="Path 531" d="M36.985,28.93a2.276,2.276,0,0,0-1.573.093,1.737,1.737,0,0,1-1.758-.278,1.384,1.384,0,0,1-.555-1.388A2.165,2.165,0,0,1,34.856,25.6a1.164,1.164,0,0,1,1.388.833C36.522,27.172,36.615,28,36.985,28.93Z" transform="translate(-12.276 -6.627)" fill="#679cfc"/>
    <path id="Path_532" data-name="Path 532" d="M46.578,46.623a2.544,2.544,0,0,0-1.666.093,1.77,1.77,0,0,1-1.758-.37,1.384,1.384,0,0,1-.555-1.388A2.394,2.394,0,0,1,44.449,43.2a1.213,1.213,0,0,1,1.388.833C46.207,44.864,46.207,45.7,46.578,46.623Z" transform="translate(-12.984 -7.94)" fill="#679cfc"/>
    <path id="Path_533" data-name="Path 533" d="M34.507,39.494a4.493,4.493,0,0,1,1.573,0,1.5,1.5,0,0,1,.925,1.573,1.982,1.982,0,0,1-1.388,1.758,1,1,0,0,1-1.388-.37A10.259,10.259,0,0,1,33.4,40.7c-.093-.185,0-.278.093-.37A4.452,4.452,0,0,1,34.507,39.494Z" transform="translate(-12.297 -7.659)" fill="#679cfc"/>
    <path id="Path_534" data-name="Path 534" d="M49.32,47.012a1.663,1.663,0,0,1-1.481,0,2.374,2.374,0,0,1-.648-2.406,6.376,6.376,0,0,1,.278-.74,1.019,1.019,0,0,1,1.388-.278,3.008,3.008,0,0,1,1.2,1.2,1.151,1.151,0,0,1-.093,1.573A1.458,1.458,0,0,1,49.32,47.012Z" transform="translate(-13.32 -7.958)" fill="#679cfc"/>
    <path id="Path_535" data-name="Path 535" d="M35.763,37.764a2.072,2.072,0,0,1-1.388.74c-1.018-.185-1.3-1.018-1.481-1.851a1.9,1.9,0,0,1,0-1.018c.185-.648.555-.925,1.2-.74a3.6,3.6,0,0,1,1.851,1.2C36.319,36.561,36.041,37.209,35.763,37.764Z" transform="translate(-12.257 -7.318)" fill="#679cfc"/>
    <path id="Path_536" data-name="Path 536" d="M35.89,30.573a2.806,2.806,0,0,1,.37,2.684.907.907,0,0,1-1.2.648,2.7,2.7,0,0,1-1.666-1.666,1.2,1.2,0,0,1,.463-1.481,1.421,1.421,0,0,1,1.481-.463c.093,0,.185.093.37.093C35.612,30.388,35.7,30.48,35.89,30.573Z" transform="translate(-12.291 -6.974)" fill="#679cfc"/>
    <path id="Path_537" data-name="Path 537" d="M37.4,27.646a2.348,2.348,0,0,1,.37-1.481,1.019,1.019,0,0,1,1.388-.278,2.942,2.942,0,0,1,1.111,1.018,1.4,1.4,0,0,1-.278,2.221c-.925.74-1.758.463-2.314-.555A2.452,2.452,0,0,1,37.4,27.646Z" transform="translate(-12.598 -6.638)" fill="#679cfc"/>
    <path id="Path_538" data-name="Path 538" d="M32.842,42.009c-.093.463,0,1.018-.555,1.3s-1.018,0-1.481-.278a2.453,2.453,0,0,1-.555-.463,1.316,1.316,0,0,1-.555-1.481A1.708,1.708,0,0,1,30.806,39.7a1.061,1.061,0,0,1,.925.093A2.9,2.9,0,0,1,32.842,42.009Z" transform="translate(-12.019 -7.675)" fill="#679cfc"/>
    <path id="Path_539" data-name="Path 539" d="M45.491,48.254a2.855,2.855,0,0,1,.278,2.961.7.7,0,0,1-.833.278A3.055,3.055,0,0,1,42.9,49.55c-.093-1.018,1.111-2.221,2.129-1.758h.185A.989.989,0,0,0,45.491,48.254Z" transform="translate(-13.008 -8.276)" fill="#679cfc"/>
    <path id="Path_540" data-name="Path 540" d="M31.922,38.743a1.317,1.317,0,0,1-2.036-.833,2.086,2.086,0,0,1,0-1.666,1.261,1.261,0,0,1,2.129-.185,1.945,1.945,0,0,1,0,2.406C32.014,38.558,31.922,38.651,31.922,38.743Z" transform="translate(-12.025 -7.371)" fill="#679cfc"/>
    <path id="Path_541" data-name="Path 541" d="M39.574,32.069c-.093,1.111-.463,1.481-1.573,1.666a1.485,1.485,0,0,1-1.2-1.481,1.5,1.5,0,0,1,.648-1.573.7.7,0,0,1,.37-.185c1.018-.185,1.481.093,1.666,1.111A.834.834,0,0,1,39.574,32.069Z" transform="translate(-12.552 -6.99)" fill="#679cfc"/>
    <path id="Path_542" data-name="Path 542" d="M47.61,48.2c1.018-.185,1.3.093,1.666,1.388a1.993,1.993,0,0,1-.185,1.018,1.671,1.671,0,0,1-1.3.925,1.2,1.2,0,0,1-1.111-.833,1.826,1.826,0,0,1,.463-2.221C47.333,48.288,47.425,48.2,47.61,48.2Z" transform="translate(-13.276 -8.31)" fill="#679cfc"/>
    <path id="Path_543" data-name="Path 543" d="M48.344,77.1a20.918,20.918,0,0,0,.093,2.406c-.833,0-.833,0-.74-.74,0-.463-.185-.925.185-1.388C47.974,77.1,48.066,77,48.344,77.1Z" transform="translate(-13.362 -10.466)" fill="#679cfc"/>
    <path id="Path_544" data-name="Path 544" d="M46.3,28.5c.093-.37.185-.74.278-1.018.093-.185.093-.278.37-.185.185.093.37.278.185.463A3.361,3.361,0,0,1,46.3,28.5Z" transform="translate(-13.262 -6.753)" fill="#1664ff"/>
    <path id="Path_545" data-name="Path 545" d="M37.843,30.429a.7.7,0,0,1-.37.185c-.093-.278-.185-.463-.278-.74,0-.093-.185-.278.093-.278.185,0,.463-.185.463.185C37.843,29.966,37.75,30.244,37.843,30.429Z" transform="translate(-12.578 -6.923)" fill="#1664ff"/>
    <path id="Path_546" data-name="Path 546" d="M47.638,48.133a.7.7,0,0,1-.37.185.8.8,0,0,1-.278-.555c0-.093-.185-.278-.093-.37a.694.694,0,0,1,.463-.093c.185,0,.093.278.185.37a.091.091,0,0,0,.093.093C47.546,47.855,47.453,48.04,47.638,48.133Z" transform="translate(-13.304 -8.247)" fill="#1664ff"/>
    <path id="Path_547" data-name="Path 547" d="M45.678,48.245l-.278-.278a2.023,2.023,0,0,0,.463-.278c.278-.185.37-.185.463.093.093.185.093.278-.185.37A4.008,4.008,0,0,1,45.678,48.245Z" transform="translate(-13.195 -8.266)" fill="#1664ff"/>
    <path id="Path_548" data-name="Path 548" d="M36.07,30.54a1.277,1.277,0,0,1-.37-.278,1.936,1.936,0,0,0,.555-.37c.185-.185.278-.093.37.093s.093.37-.185.37C36.348,30.447,36.163,30.447,36.07,30.54Z" transform="translate(-12.471 -6.941)" fill="#1664ff"/>
    <path id="Path_549" data-name="Path 549" d="M32.092,38.978c.093-.093.093-.185.185-.278.185.278.278.463.463.74C31.907,39.533,31.907,39.533,32.092,38.978Z" transform="translate(-12.195 -7.605)" fill="#1664ff"/>
    <path id="Path_550" data-name="Path 550" d="M45.3,27.3c.74-.093.74-.093.555.74A1.941,1.941,0,0,1,45.3,27.3Z" transform="translate(-13.187 -6.752)" fill="#1664ff"/>
    <path id="Path_551" data-name="Path 551" d="M32.978,39.8c.185,0,.185.093.185.185s0,.185-.185.185a.245.245,0,0,1-.278-.278A.932.932,0,0,1,32.978,39.8Z" transform="translate(-12.248 -7.687)" fill="#1664ff"/>
    <path id="Path_552" data-name="Path 552" d="M58.8,6.394Z" transform="translate(-14.194 -5.191)" fill="#dfe0e3"/>
    <path id="Path_553" data-name="Path 553" d="M58.8,7.1Z" transform="translate(-14.194 -5.249)" fill="#dfe0e3"/>
  </g>
</svg>
