<svg id="Group_809" data-name="Group 809" xmlns="http://www.w3.org/2000/svg" width="90" height="144.811" viewBox="0 0 90 144.811">
<defs><style>
        @import url('https://fonts.googleapis.com/css2?family=Roboto+Condensed:wght@300;400&amp;display=swap');
        </style></defs>
  <text style="text-align: center;font-weight:400; font-family:Roboto Condensed" id="basic_computer_skills" data-name="basic
computer
skills" transform="translate(3 95.811)" fill="#0054a5" font-size="19" font-family="RobotoCondensed-Regular, Roboto"><tspan x="0" y="0">BASIC</tspan><tspan x="0" y="22">COMPUTER</tspan><tspan x="0" y="44">SKILLS</tspan></text>
  <g id="Group_815" data-name="Group 815">
    <path id="Path_423" data-name="Path 423" d="M25.635,60.823a11.729,11.729,0,0,1-2.2-3.155A25.394,25.394,0,0,1,19.9,43.52c.956.956,2.39,1.052,2.964.1.478-.86,1.052-.765,1.721-.765h1.434c.765,0,.86-.1.86-.86v-4.78c0-.382,0-.478.478-.382a10.807,10.807,0,0,0,2.486,0c.478-.1.574,0,.574.478v3.346c0,.574.287.765.765.765h2.2a1.03,1.03,0,0,1,1.052.574,1.866,1.866,0,0,0,2.008.86,1.95,1.95,0,0,0,1.434-1.721,1.764,1.764,0,0,0-1.243-1.912,1.738,1.738,0,0,0-2.1.574c-.382.765-.956.765-1.625.765H31.753c-.287,0-.478-.1-.478-.382v-3.25c0-.191,0-.382.191-.382.669-.287,1.338-.669,2.1-1.052v.478c-.1.669.191.86.86.765h1.816a.836.836,0,0,1,.86.478,1.953,1.953,0,0,0,2.1.765,2.079,2.079,0,0,0,1.338-1.912,1.964,1.964,0,0,0-1.338-1.721,1.765,1.765,0,0,0-2.1.86.97.97,0,0,1-1.243.669h-.478c-.86,0-.956-.1-.86-.956,0-.191.191-.287.287-.478.287-.382.669-.765.956-1.147a.776.776,0,0,1,.765-.382H39.21A6.783,6.783,0,0,0,45.615,24.4a6.711,6.711,0,0,0-4.493-4.684c-.382-.1-.574-.287-.478-.669v-.478a30.9,30.9,0,0,1,6.6-.669,25.426,25.426,0,0,1,9.177,1.912,11.357,11.357,0,0,0-1.243,2.39c-.1.382-.382.765.191.956.478.191.574-.287.669-.574a9.655,9.655,0,0,1,1.338-2.39,3.4,3.4,0,0,0,.86.382A10.928,10.928,0,0,0,56.8,23.349a.524.524,0,0,1-.574.382H52.88c-.287,0-.382-.1-.574-.382a1.552,1.552,0,0,0-1.816-.765,1.636,1.636,0,0,0-1.147,1.53,1.55,1.55,0,0,0,1.147,1.53,1.489,1.489,0,0,0,1.816-.765c.1-.191.191-.382.478-.382H54.6a2.432,2.432,0,0,0-.191.669,12.706,12.706,0,0,0,.191,3.824c.1.287.191.669.574.574s.382-.382.287-.765a10.444,10.444,0,0,1-.191-3.442,3.252,3.252,0,0,0-.1-.956h.574q.717-.143.574.574a8.3,8.3,0,0,0,.382,4.3c.1.478,0,.478-.382.478H52.689a.868.868,0,0,1-.669-.287,1.372,1.372,0,0,0-2.1-.287A1.4,1.4,0,1,0,52.02,31c.191-.287.382-.287.669-.287h3.92a.908.908,0,0,1,.956.574,9.8,9.8,0,0,0,4.493,4.3c.86.478.86.478.765,1.434a11.326,11.326,0,0,1-4.206-2.677,11.892,11.892,0,0,1-2.2-3.059A.494.494,0,0,0,55.748,31c-.287.1-.287.382-.191.669,0,.1.1.191.1.287a12.32,12.32,0,0,0,6.118,5.736.785.785,0,0,0,.669.1c.382-.1.287.1.287.287v2.1a.869.869,0,0,1-.382.765,1.408,1.408,0,0,0-.574,1.625,1.438,1.438,0,0,0,1.338.956,1.59,1.59,0,0,0,1.338-.956,1.365,1.365,0,0,0-.574-1.625c-.287-.191-.287-.287-.287-.574V36.924c0-.382.191-.478.478-.382a8.942,8.942,0,0,0,4.493,0c.382-.1.478,0,.478.382V39.7a.776.776,0,0,1-.382.765,1.575,1.575,0,0,0-.382,2.294,1.6,1.6,0,0,0,2.39.191,1.489,1.489,0,0,0,0-2.294c-.574-.382-.574-.86-.574-1.434a6.246,6.246,0,0,0,0-1.338,1.826,1.826,0,0,1,1.53-2.39l.287.86a7.9,7.9,0,0,1-1.243.669.4.4,0,0,0-.287.574.494.494,0,0,0,.669.287c.382-.191.86-.382,1.243-.574a25.873,25.873,0,0,1,.86,8.126,26.723,26.723,0,0,1-4.3,13.384,16.908,16.908,0,0,1-1.53,2.1v-8.03a2.817,2.817,0,0,0-2.868-2.868h-2.1c-.382,0-.574-.1-.478-.478V46.006c0-.86-.382-1.243-1.243-1.243H33c-.956,0-1.338.382-1.338,1.338v3.346c0,.382-.1.574-.478.574H29.363a2.926,2.926,0,0,0-3.25,3.25A66.743,66.743,0,0,0,25.635,60.823ZM66.264,38.645a9.274,9.274,0,0,0,1.625-.1c.382,0,.669-.1.574-.574-.1-.382-.382-.382-.669-.382a16.352,16.352,0,0,1-3.059,0c-.382-.1-.669,0-.669.382-.1.382.287.478.574.574A4.664,4.664,0,0,0,66.264,38.645Z" transform="translate(-11.196 -9.201)" fill="#679cfc"/>
    <path id="Path_424" data-name="Path 424" d="M25.724,62.06V54.508a2.926,2.926,0,0,1,3.25-3.25H30.79c.382,0,.478-.1.478-.574V47.338c0-.956.382-1.338,1.338-1.338H60.235c.86,0,1.243.382,1.243,1.243V50.78c0,.382.1.574.478.478h2.1a2.817,2.817,0,0,1,2.868,2.868V76.018a1.271,1.271,0,0,0,.287.765c1.147,1.625,2.294,3.155,3.442,4.78a1.173,1.173,0,0,1,.191,1.243c-.191.382-.574.478-1.052.478H23.047c-.478,0-.86-.1-1.052-.574a1.173,1.173,0,0,1,.191-1.243c1.147-1.625,2.294-3.155,3.442-4.78a1.271,1.271,0,0,0,.287-.765V62.443C25.819,62.347,25.819,62.252,25.724,62.06ZM46.373,74.2H60.043c.478,0,.669-.1.669-.574V58.045c0-.478-.191-.574-.669-.574H42.931a.716.716,0,0,0-.765.478,4.043,4.043,0,0,1-6.883.574,2.172,2.172,0,0,0-2.294-1.052h-.1c-.478-.1-.669.1-.669.574V73.628c0,.478.1.574.574.574Zm.1-24H32.894c-.478,0-.669.1-.669.574v4.111c0,1.625,0,1.625,1.625,1.53.382,0,.478-.1.478-.478a4.063,4.063,0,1,1,8.126,0c0,.382.1.478.478.478H59.948c.478,0,.574-.191.574-.574V50.78c0-.478-.1-.669-.669-.669C55.455,50.206,50.962,50.206,46.468,50.206ZM70.177,82.423c-1.338-1.816-2.486-3.537-3.728-5.258a.7.7,0,0,0-.574-.191H26.967a.716.716,0,0,0-.765.478c-1.052,1.434-2.1,2.964-3.155,4.4-.1.191-.287.287-.287.478.1.191.382.1.574.1H39.585c1.243,0,1.243,0,1.625-1.243a.947.947,0,0,1,1.052-.765H49.91c1.625,0,1.434-.191,1.912,1.338a.744.744,0,0,0,.86.574H69.316A2.373,2.373,0,0,0,70.177,82.423ZM46.468,76.113H65.492c.382,0,.574.1.574-.478V54.221a1.986,1.986,0,0,0-1.816-2.008,10.808,10.808,0,0,0-2.486,0c-.669.1-.191.574-.287.956s.1.478.478.478h1.625c1.052,0,1.434.382,1.434,1.434V73.723c0,1.052-.382,1.434-1.434,1.434H29.261c-1.147,0-1.434-.382-1.434-1.434V54.986c0-.956.382-1.338,1.338-1.338H30.5c.956,0,.86.191.86-.956,0-.382-.1-.478-.478-.478H29.07a2.028,2.028,0,0,0-2.294,2.294V75.54c0,.574.1.669.669.669C33.754,76.113,40.063,76.113,46.468,76.113Zm0-26.767H60.043c.478,0,.669-.1.574-.574V47.721c.1-.574-.1-.765-.765-.765H32.511c-.287,0-.382.1-.382.382v1.434c0,.478.1.574.574.574Zm-15.1,14.913V54.986c0-.478-.1-.574-.574-.574H29.356c-.478,0-.574.1-.574.574V73.245c0,.574.1.86.765.765a6.246,6.246,0,0,1,1.338,0c.478.1.574-.191.574-.669C31.364,70.473,31.364,67.414,31.364,64.259Zm30.209.1v9.273c0,.382.1.574.574.574h1.434c.478,0,.574-.1.574-.574V55.177c0-.574-.1-.765-.669-.765a6.245,6.245,0,0,1-1.338,0c-.574-.1-.669.191-.669.669C61.573,58.141,61.573,61.3,61.573,64.355ZM37.2,57.376a3.276,3.276,0,0,1-.669-2.964,1.842,1.842,0,0,1,1.625-1.338,1.607,1.607,0,0,1,1.816.86,2.5,2.5,0,0,1,.1,2.581l-.574.86c1.53.574,2.008.191,2.1-1.338a3.252,3.252,0,0,0-.1-.956,3.212,3.212,0,1,0-6.023,2.2c.191.382.382.574.765.382A2.806,2.806,0,0,0,37.2,57.376ZM51.057,82.327c-.191-.956-.191-.956-1.243-.956H42.931c-.956,0-.956,0-1.147,1.052C44.939,82.327,48,82.327,51.057,82.327ZM40.35,58.523c-.382-.1-.669-.1-.956-.191a1,1,0,0,1-.574-1.53,2.207,2.207,0,0,0,.574-1.816.9.9,0,0,0-.956-.956.983.983,0,0,0-1.052.956A2.827,2.827,0,0,0,37.96,56.9a.95.95,0,0,1-.478,1.434c-.287.1-.574.1-.86.191A3.015,3.015,0,0,0,40.35,58.523Z" transform="translate(-11.285 -10.438)" fill="#a8ddfd"/>
    <path id="Path_425" data-name="Path 425" d="M72.674,35.089a1.844,1.844,0,0,0-1.53,2.39,6.263,6.263,0,0,1,0,1.338c0,.574,0,1.052.574,1.434a1.492,1.492,0,0,1,0,2.294,1.6,1.6,0,0,1-2.39-.191,1.508,1.508,0,0,1,.382-2.294c.287-.191.478-.382.382-.765V36.523c0-.382-.1-.478-.478-.382a11.84,11.84,0,0,1-4.493,0c-.382-.1-.574,0-.478.382v3.442a.578.578,0,0,0,.287.574,1.294,1.294,0,0,1,.574,1.625,1.319,1.319,0,0,1-1.338.956,1.438,1.438,0,0,1-1.338-.956,1.294,1.294,0,0,1,.574-1.625.869.869,0,0,0,.382-.765v-2.1c0-.191,0-.382-.287-.287a.84.84,0,0,1-.669-.1,11.575,11.575,0,0,1-6.118-5.736c0-.1-.1-.191-.1-.287-.1-.287-.191-.574.191-.669.287-.1.478,0,.669.287a9.989,9.989,0,0,0,2.2,3.059,10.907,10.907,0,0,0,4.206,2.677c.1-.956.1-.956-.765-1.434a10.274,10.274,0,0,1-4.493-4.3.96.96,0,0,0-.956-.574h-3.92a.868.868,0,0,0-.669.287,1.378,1.378,0,0,1-2.1.287,1.419,1.419,0,0,1,0-2.1,1.364,1.364,0,0,1,2.1.287c.191.287.382.287.669.287h3.633c.382,0,.574-.1.382-.478a9.452,9.452,0,0,1-.382-4.3q.143-.717-.574-.574h-.574a1.131,1.131,0,0,1,.1.956,10.443,10.443,0,0,0,.191,3.442c.1.382.1.669-.287.765s-.478-.191-.574-.574a12.866,12.866,0,0,1-.191-3.824,2.432,2.432,0,0,1,.191-.669H53.842c-.287,0-.287.191-.478.382a1.651,1.651,0,0,1-1.816.765,1.524,1.524,0,0,1-1.147-1.53,1.636,1.636,0,0,1,1.147-1.53,1.552,1.552,0,0,1,1.816.765c.191.287.287.382.574.382h3.346a.524.524,0,0,0,.574-.382,9.543,9.543,0,0,1,1.434-2.772,10.138,10.138,0,0,1,3.824-3.155.97.97,0,0,0,.669-1.338,11.234,11.234,0,0,0-5.449,4.111A11.753,11.753,0,0,0,57,22.184c-.1.287-.191.765-.669.574s-.287-.574-.191-.956a11.75,11.75,0,0,1,6.787-6.787c.765-.287.956-.574.86-1.338V12.72a1.352,1.352,0,0,0-.574-1.338,1.418,1.418,0,0,1,0-2.1,1.386,1.386,0,0,1,2.008.1,1.426,1.426,0,0,1-.191,2.1.671.671,0,0,0-.382.86v3.346c0,.382,0,.574.478.478a10.188,10.188,0,0,1,4.493-.1c.287.1.478,0,.478-.382V12.337a.681.681,0,0,0-.287-.574A1.583,1.583,0,1,1,72.1,9.947a1.731,1.731,0,0,1-.765,1.912.442.442,0,0,0-.287.478v2.008c0,.191,0,.382.287.382.191,0,.382.1.574.1A12.234,12.234,0,0,1,78.888,21.8c.1.191.1.287.191.478,0,.287-.1.478-.287.478-.191.1-.382,0-.478-.287-.1-.191-.1-.287-.191-.478a11.129,11.129,0,0,0-6.405-6.405c-.191-.1-.287-.191-.478-.1a.861.861,0,0,0,.574,1.243,10.158,10.158,0,0,1,5.545,6.023.668.668,0,0,0,.765.574h2.868a.722.722,0,0,0,.669-.382,1.6,1.6,0,0,1,1.816-.765,1.636,1.636,0,0,1,1.147,1.53,1.55,1.55,0,0,1-1.147,1.53,1.6,1.6,0,0,1-1.816-.765.722.722,0,0,0-.669-.382H79.557a11.029,11.029,0,0,1-.1,4.684c-.1.287-.191.478-.478.382-.287,0-.382-.287-.382-.574a11.911,11.911,0,0,0,.191-4.111c0-.1.1-.287.1-.382l-.1-.1c-1.052-.1-1.052-.1-.956.956a11.484,11.484,0,0,1-.382,4.015c-.191.478,0,.478.382.478h3.728c.287,0,.478,0,.669-.287a1.408,1.408,0,0,1,1.625-.574,1.438,1.438,0,0,1,.956,1.338,1.35,1.35,0,0,1-.956,1.338,1.408,1.408,0,0,1-1.625-.574c-.1-.191-.287-.382-.478-.287h-4.3c-.191,0-.382,0-.478.287A11.2,11.2,0,0,1,72.674,35.089Zm4.4-8.986A9.369,9.369,0,1,0,67.7,35.472,9.364,9.364,0,0,0,77.072,26.1ZM71.432,10.33a.739.739,0,0,0-.765-.669.682.682,0,0,0-.669.765c0,.478.287.669.765.669A.682.682,0,0,0,71.432,10.33Zm0,31.069a.739.739,0,0,0-.765-.669.719.719,0,0,0,.1,1.434A.811.811,0,0,0,71.432,41.4ZM52.79,23.618a.739.739,0,0,0-.765-.669.6.6,0,0,0-.669.669.682.682,0,0,0,.765.669C52.5,24.382,52.694,24.1,52.79,23.618Zm30.3.765c.478,0,.669-.287.669-.765A.682.682,0,0,0,83,22.948c-.478,0-.669.287-.669.765A.682.682,0,0,0,83.094,24.382ZM64.357,9.756a.452.452,0,0,0-.478.478.551.551,0,0,0,.574.574.446.446,0,0,0,.478-.574A.535.535,0,0,0,64.357,9.756ZM52.5,30.023a.507.507,0,0,0-.574-.574c-.287,0-.478.191-.478.574s.191.478.574.478A.452.452,0,0,0,52.5,30.023ZM64.357,41.208c-.382,0-.574.191-.478.478a.446.446,0,0,0,.574.478.452.452,0,0,0,.478-.478A.535.535,0,0,0,64.357,41.208ZM83.381,29.545a.439.439,0,0,0-.478.574c0,.287.191.478.574.478s.574-.191.478-.574S83.668,29.545,83.381,29.545Z" transform="translate(-12.54 -8.8)" fill="#8a8a8a"/>
    <path id="Path_426" data-name="Path 426" d="M39.957,18.134v.478c-.1.382.1.574.478.669a6.542,6.542,0,0,1,4.493,4.684,6.692,6.692,0,0,1-6.405,8.508H35.846a.869.869,0,0,0-.765.382c-.287.382-.669.765-.956,1.147a.813.813,0,0,0-.287.478c-.1.86-.1.956.86.956h.478a.97.97,0,0,0,1.243-.669,1.765,1.765,0,0,1,2.1-.86,1.836,1.836,0,0,1,1.338,1.721,1.95,1.95,0,0,1-1.338,1.912,1.7,1.7,0,0,1-2.1-.765.836.836,0,0,0-.86-.478H33.743c-.574,0-.86-.191-.86-.765v-.478a14.391,14.391,0,0,1-2.1,1.052.382.382,0,0,0-.191.382v3.25c0,.382.191.382.478.382h1.147c.669,0,1.243,0,1.625-.765a1.738,1.738,0,0,1,2.1-.574,2,2,0,0,1,1.243,1.912,2.063,2.063,0,0,1-1.434,1.721,1.738,1.738,0,0,1-2.008-.86,1.03,1.03,0,0,0-1.052-.574h-2.2c-.574,0-.86-.191-.765-.765V36.871c0-.478-.1-.574-.574-.478a7.228,7.228,0,0,1-2.486,0c-.382,0-.478.1-.478.382v4.78c0,.765-.1.86-.86.86H23.9c-.669,0-1.243-.1-1.721.765-.574.956-1.912.86-2.964-.1A2.183,2.183,0,0,1,19.5,40.5c1.147-.669,2.294-.669,2.772.287a1.292,1.292,0,0,0,1.53.669h1.147c.382,0,.478-.1.478-.478V36.489c0-.191.1-.382-.191-.478a12.082,12.082,0,0,1-2.486-1.243V36.68c0,.574-.191.765-.765.765H20.073c-.574-.1-1.052-.1-1.338.574a1.687,1.687,0,0,1-2.008.765,1.865,1.865,0,0,1-.287-3.537,1.629,1.629,0,0,1,2.1.574c.382.86,1.052.765,1.721.669,1.53.1,1.53.1,1.53-1.434v-.478a.961.961,0,0,0-.478-1.052c-.1-.191-.287-.382-.382-.574C20.551,32,19.786,31.9,18.83,31.9a9.731,9.731,0,0,1-3.346-.287A6.278,6.278,0,0,1,10.8,25.208,6.637,6.637,0,0,1,16.058,18.9c.765-.191.956-.382,1.147-1.147a8.372,8.372,0,0,1,6.214-7.17c3.537-1.052,6.6,0,9.082,2.772.191.191.287.382.669.287A5.241,5.241,0,0,1,39.957,18.134ZM37.663,31.517a7.5,7.5,0,0,0,2.1-.191,5.809,5.809,0,0,0,4.493-5.64,5.908,5.908,0,0,0-4.684-5.736c-.574-.1-.669-.382-.669-.956a4.221,4.221,0,0,0-5.927-4.3c-.478.191-.669.1-.956-.287a7.9,7.9,0,0,0-8.317-2.964,8.025,8.025,0,0,0-5.736,6.692c-.1.478.191,1.052-.191,1.338-.382.382-.956.191-1.434.287a6.006,6.006,0,0,0-4.78,5.545,5.44,5.44,0,0,0,4.3,5.545,17.482,17.482,0,0,0,3.155.191c.574,0,.574-.1.382-.574a8.935,8.935,0,0,1-.382-4.206,8.811,8.811,0,1,1,17.208,3.633c-.1.478-.574,1.052-.382,1.338A3.273,3.273,0,0,0,37.663,31.517ZM28.007,19.759a7.935,7.935,0,1,0,7.935,7.935A7.915,7.915,0,0,0,28.007,19.759ZM36.516,40.6a.958.958,0,0,0-.956-.956.956.956,0,0,0,0,1.912A1.028,1.028,0,0,0,36.516,40.6Zm2.677-4.971a1.047,1.047,0,0,0-1.052-.956.983.983,0,0,0-.956,1.052.958.958,0,0,0,.956.956A1.213,1.213,0,0,0,39.192,35.628ZM17.3,36.106a.956.956,0,1,0,.956.956A.9.9,0,0,0,17.3,36.106Zm3.728,4.971a.956.956,0,0,0,0,1.912,1.028,1.028,0,0,0,.956-.956A.958.958,0,0,0,21.029,41.077Z" transform="translate(-10.796 -8.861)" fill="#8a8a8a"/>
    <path id="Path_427" data-name="Path 427" d="M20.574,38.677a12.765,12.765,0,0,1,1.912,0c.574,0,.765-.191.765-.765V36a10.071,10.071,0,0,0,2.486,1.243c.287.1.191.287.191.478v4.493c0,.382-.1.478-.478.478H24.3c-.669,0-1.147,0-1.53-.669-.478-.86-1.53-.956-2.772-.287C20.1,40.684,20.478,39.728,20.574,38.677Z" transform="translate(-11.201 -9.998)" fill="#b3e1fd"/>
    <path id="Path_428" data-name="Path 428" d="M74.211,37.913c-.382.191-.86.382-1.243.574A.494.494,0,0,1,72.3,38.2a.464.464,0,0,1,.287-.574,3.967,3.967,0,0,0,1.243-.669,1.615,1.615,0,0,1,.478-.191,11.676,11.676,0,0,0,4.3-4.589c.191-.382.382-.669.86-.382a.579.579,0,0,1-.1.765,11.648,11.648,0,0,1-4.78,5.067C74.593,37.722,74.4,37.817,74.211,37.913Z" transform="translate(-13.503 -9.807)" fill="#8a8a8a"/>
    <path id="Path_429" data-name="Path 429" d="M79.627,31.682c-.478-.191-.669,0-.86.382a10.5,10.5,0,0,1-4.3,4.589c-.191.1-.287.191-.478.191l-.287-.86a9.634,9.634,0,0,0,4.111-4.4.526.526,0,0,1,.478-.287h1.243C79.627,31.587,79.627,31.587,79.627,31.682Z" transform="translate(-13.565 -9.791)" fill="#f9fafb"/>
    <path id="Path_430" data-name="Path 430" d="M50.647,9c1.052.191,2.2.287,3.25.478.287.1.669.1.574.574s-.478.382-.765.287c-1.147-.191-2.294-.382-3.442-.478-.382,0-.86,0-.765-.574.1-.382.574-.287.86-.287Z" transform="translate(-12.5 -8.808)" fill="#8a8a8a"/>
    <path id="Path_431" data-name="Path 431" d="M45.3,8.9a.49.49,0,0,1,.574.382c0,.382-.287.478-.669.478-1.243.1-2.486.191-3.633.382-.287.1-.669.1-.669-.382-.1-.382.287-.478.574-.574A26.732,26.732,0,0,0,45.3,8.9Z" transform="translate(-12.121 -8.804)" fill="#8a8a8a"/>
    <path id="Path_432" data-name="Path 432" d="M68.285,14.2a7.158,7.158,0,0,1,2.008.191c.287.1.574.191.478.574s-.287.382-.574.382a12.818,12.818,0,0,0-3.824,0c-.287,0-.574,0-.574-.382-.1-.382.191-.478.478-.574A7.158,7.158,0,0,1,68.285,14.2Z" transform="translate(-13.217 -9.038)" fill="#8a8a8a"/>
    <path id="Path_433" data-name="Path 433" d="M83.1,44.3V42.674c0-.287.1-.574.478-.574.287,0,.382.191.478.478.1,1.147.1,2.294.1,3.346,0,.287-.1.574-.478.574s-.478-.191-.478-.574a9.831,9.831,0,0,0-.1-1.625Z" transform="translate(-13.979 -10.266)" fill="#8a8a8a"/>
    <path id="Path_434" data-name="Path 434" d="M83.424,38.632c0,.382,0,.574-.287.669s-.478-.1-.574-.382c-.191-1.147-.478-2.2-.765-3.346A.4.4,0,0,1,82.085,35a.464.464,0,0,1,.574.287A15.234,15.234,0,0,1,83.424,38.632Z" transform="translate(-13.92 -9.952)" fill="#8a8a8a"/>
    <path id="Path_435" data-name="Path 435" d="M16.582,63.8a.6.6,0,0,1,.478.287,26.293,26.293,0,0,0,1.816,2.677c.191.287.287.478,0,.765-.287.191-.478,0-.669-.191A28.454,28.454,0,0,1,16.3,64.565C16.1,64.182,16.2,63.8,16.582,63.8Z" transform="translate(-11.034 -11.221)" fill="#8a8a8a"/>
    <path id="Path_436" data-name="Path 436" d="M20.984,69.7a.526.526,0,0,1,.478.287,24.932,24.932,0,0,0,2.294,2.2c.191.191.382.478.191.765-.287.287-.478.191-.765,0-.86-.765-1.625-1.53-2.39-2.294a.45.45,0,0,1-.1-.574C20.7,69.8,20.888,69.7,20.984,69.7Z" transform="translate(-11.229 -11.481)" fill="#8a8a8a"/>
    <path id="Path_437" data-name="Path 437" d="M82.1,57.276a1.772,1.772,0,0,0-.191.669c-.382.86-.669,1.721-1.052,2.581-.1.287-.287.478-.669.287-.287-.1-.287-.382-.191-.669.382-1.052.86-2.1,1.243-3.059a.4.4,0,0,1,.574-.287C82,56.8,82.1,56.99,82.1,57.276Z" transform="translate(-13.84 -10.912)" fill="#8a8a8a"/>
    <path id="Path_438" data-name="Path 438" d="M78.968,63.981c0,.1-.1.191-.191.382l-1.721,2.581c-.191.287-.478.478-.765.287a.5.5,0,0,1,0-.765l1.721-2.581c.191-.191.287-.382.574-.287C78.873,63.6,78.968,63.694,78.968,63.981Z" transform="translate(-13.671 -11.211)" fill="#8a8a8a"/>
    <path id="Path_439" data-name="Path 439" d="M12.83,53.824c0,.287-.1.478-.287.478a.4.4,0,0,1-.574-.287,23.027,23.027,0,0,1-.669-3.537c0-.287.1-.478.382-.478s.478.1.478.382C12.352,51.53,12.543,52.677,12.83,53.824Z" transform="translate(-10.819 -10.614)" fill="#8a8a8a"/>
    <path id="Path_440" data-name="Path 440" d="M83.83,50.078c-.191,1.243-.382,2.39-.669,3.537-.1.287-.287.382-.478.287a.488.488,0,0,1-.382-.478c.191-1.147.478-2.294.574-3.442,0-.287.191-.382.574-.382C83.734,49.6,83.83,49.887,83.83,50.078Z" transform="translate(-13.944 -10.596)" fill="#8a8a8a"/>
    <path id="Path_441" data-name="Path 441" d="M13.477,57.1c.287,0,.382.191.478.382.382,1.052.86,2.008,1.243,3.059.1.287.1.574-.191.669-.287.191-.478,0-.669-.287-.478-1.052-.956-2.1-1.338-3.155C12.9,57.482,13.094,57.2,13.477,57.1Z" transform="translate(-10.892 -10.926)" fill="#8a8a8a"/>
    <path id="Path_442" data-name="Path 442" d="M11.5,39.032a32.345,32.345,0,0,1,.765-3.25c.1-.287.287-.478.574-.382a.4.4,0,0,1,.287.574c-.287,1.147-.478,2.2-.765,3.25-.1.287-.191.478-.478.382C11.5,39.605,11.4,39.318,11.5,39.032Z" transform="translate(-10.826 -9.97)" fill="#8a8a8a"/>
    <path id="Path_443" data-name="Path 443" d="M74.544,69.781a.73.73,0,0,1-.191.478l-2.294,2.294c-.287.191-.478.382-.765.1s-.1-.574.191-.765a25.955,25.955,0,0,0,2.294-2.294c.191-.191.287-.287.574-.191A.5.5,0,0,1,74.544,69.781Z" transform="translate(-13.453 -11.466)" fill="#8a8a8a"/>
    <path id="Path_444" data-name="Path 444" d="M11.86,44.794V46.42c0,.287-.1.478-.382.478A.452.452,0,0,1,11,46.42V43.074c0-.287.1-.574.478-.574s.478.287.382.669v1.625Z" transform="translate(-10.805 -10.284)" fill="#8a8a8a"/>
    <path id="Path_445" data-name="Path 445" d="M21.952,34.7a1.121,1.121,0,0,1,.478,1.052v.478c0,1.53,0,1.53-1.53,1.434C21.282,36.708,21.569,35.752,21.952,34.7Z" transform="translate(-11.241 -9.94)" fill="#6fe9ec"/>
    <path id="Path_446" data-name="Path 446" d="M37.384,10.881a.635.635,0,0,1-.382.478c-.478.191-1.052.287-1.53.478a.376.376,0,0,1-.574-.287c-.1-.287.1-.478.382-.574a9.4,9.4,0,0,1,1.53-.478C37.1,10.4,37.384,10.5,37.384,10.881Z" transform="translate(-11.856 -8.874)" fill="#8a8a8a"/>
    <path id="Path_447" data-name="Path 447" d="M60.684,11.655c-.1.287-.287.478-.574.382l-1.721-.574a.349.349,0,0,1-.191-.478c.1-.191.191-.382.478-.287a10.193,10.193,0,0,1,1.816.669C60.588,11.272,60.588,11.464,60.684,11.655Z" transform="translate(-12.881 -8.882)" fill="#8a8a8a"/>
    <path id="Path_448" data-name="Path 448" d="M58.8,19.911A10.821,10.821,0,0,1,64.249,15.8a.97.97,0,0,1-.669,1.338,10.138,10.138,0,0,0-3.824,3.155A1.227,1.227,0,0,1,58.8,19.911Z" transform="translate(-12.91 -9.108)" fill="#f9fafb"/>
    <path id="Path_449" data-name="Path 449" d="M68.3,39.552c-.574,0-1.147-.1-1.625-.1-.287,0-.669-.1-.574-.574.1-.382.382-.382.669-.382a8.229,8.229,0,0,0,3.059,0c.382,0,.669,0,.669.382.1.382-.191.478-.574.574A4.526,4.526,0,0,1,68.3,39.552Z" transform="translate(-13.23 -10.108)" fill="#8a8a8a"/>
    <path id="Path_450" data-name="Path 450" d="M46.853,74.728H33.374c-.478,0-.574-.1-.574-.574V58.572c0-.478.191-.669.669-.574h.1a2.172,2.172,0,0,1,2.294,1.052,4.045,4.045,0,0,0,6.883-.574A.716.716,0,0,1,43.507,58H60.619c.478,0,.669.1.669.574V74.155c0,.478-.191.574-.669.574ZM52.78,63.448H46.566c-.765,0-.86,0-.86.86v7.839c0,.86,0,.86.956.86H58.9c.765,0,.86-.1.86-.86V64.213c0-.765,0-.86-.86-.86C56.891,63.448,54.788,63.448,52.78,63.448Zm.86-3.155h3.824c.287,0,.765,0,.765-.478s-.382-.478-.669-.478H49.912c-.382,0-.765,0-.765.478s.382.478.669.478ZM39.109,70.044h2.772a.64.64,0,0,0,.669-.382c0-.382-.287-.478-.669-.478H36.433a.612.612,0,0,0-.669.478c0,.382.287.478.669.478A25.047,25.047,0,0,1,39.109,70.044Zm9.369-9.464a1.658,1.658,0,0,0-1.53-1.625,1.628,1.628,0,1,0,1.53,1.625Zm-9.369,4.589h2.772c.287,0,.574-.1.574-.478s-.287-.478-.574-.478H36.337c-.287,0-.574.1-.574.478s.287.478.574.478Zm0-2.39h2.677c.382,0,.669,0,.669-.478,0-.382-.287-.478-.669-.478H36.337c-.287,0-.669,0-.669.478s.382.478.669.478Zm.1,3.92H36.337c-.287,0-.574,0-.574.382s.287.478.574.478h5.545c.287,0,.574-.1.574-.478s-.287-.478-.669-.478A23.294,23.294,0,0,1,39.205,66.7Zm-.1,5.736h2.772c.287,0,.574-.1.574-.478s-.287-.478-.574-.478H36.337c-.287,0-.574.1-.574.478s.287.478.574.478ZM50.868,61.058H49.625c-.287,0-.574.1-.574.478a.452.452,0,0,0,.478.478h2.581a.452.452,0,0,0,.478-.478c0-.287-.191-.382-.478-.382A5.451,5.451,0,0,0,50.868,61.058Z" transform="translate(-11.765 -10.965)" fill="#f9fafb"/>
    <path id="Path_451" data-name="Path 451" d="M46.948,50.4H60.428c.574,0,.669.191.669.669v5.067c0,.382-.1.574-.574.574H43.507c-.382,0-.478-.1-.478-.478a4.08,4.08,0,0,0-4.111-4.111A4,4,0,0,0,34.9,56.231c0,.382-.1.478-.478.478-1.625,0-1.625,0-1.625-1.53V51.069c0-.478.191-.574.669-.574C37.867,50.4,42.455,50.4,46.948,50.4Z" transform="translate(-11.765 -10.632)" fill="#fdfefe"/>
    <path id="Path_452" data-name="Path 452" d="M70.216,83.853H52.721c-.478,0-.765-.1-.86-.574-.478-1.53-.287-1.338-1.912-1.338H42.3a.947.947,0,0,0-1.052.765c-.382,1.243-.382,1.243-1.625,1.243H23.373c-.191,0-.478.1-.574-.1s.191-.287.287-.478c1.052-1.434,2.1-2.964,3.155-4.4a.851.851,0,0,1,.765-.478H65.914c.191,0,.478-.1.574.191C67.73,80.316,68.877,82.036,70.216,83.853Zm-23.8-3.92H65.34c.287,0,.382-.191.382-.478a.35.35,0,0,0-.382-.382H27.579a.452.452,0,0,0-.478.478c0,.287.191.382.478.478h.574C34.271,79.933,40.389,79.933,46.412,79.933Zm.1.574H27.483c-.382,0-.956-.191-.956.478,0,.574.574.382.956.382H66.009a.35.35,0,0,0,.382-.382c0-.287-.191-.382-.382-.478h-19.5Z" transform="translate(-11.324 -11.868)" fill="#f9fafb"/>
    <path id="Path_453" data-name="Path 453" d="M46.693,76.392H27.669c-.574,0-.669-.1-.669-.669V54.691A2.028,2.028,0,0,1,29.294,52.4h1.816c.382,0,.478.1.478.478,0,1.147.1.86-.86.956H29.39c-.956,0-1.338.382-1.338,1.338V73.906c0,1.147.382,1.434,1.434,1.434h34.32c1.052,0,1.434-.382,1.434-1.434V55.265c0-1.052-.382-1.434-1.434-1.434H62.18c-.382,0-.574-.1-.478-.478.1-.287-.382-.86.287-.956a10.805,10.805,0,0,1,2.486,0A1.986,1.986,0,0,1,66.291,54.4V75.818c0,.574-.287.478-.574.478C59.408,76.392,53,76.392,46.693,76.392Z" transform="translate(-11.51 -10.716)" fill="#f9fafb"/>
    <path id="Path_454" data-name="Path 454" d="M46.947,49.39H33.372c-.478,0-.669-.1-.574-.574V47.382c0-.287.1-.382.382-.382H60.522c.574,0,.765.191.765.765v1.052c.1.478-.1.574-.574.574ZM34.233,47.574q-.574.143-.574.574c0,.382.287.574.669.574a.551.551,0,0,0,.574-.574A.632.632,0,0,0,34.233,47.574Zm5.067.574c-.1-.287-.191-.574-.574-.574a.507.507,0,0,0-.574.574.632.632,0,0,0,.574.669C39.108,48.721,39.2,48.53,39.3,48.147Zm-2.772.574a.507.507,0,0,0,.574-.574c0-.382-.191-.669-.574-.669a.507.507,0,0,0-.574.574C35.954,48.53,36.145,48.721,36.527,48.721Z" transform="translate(-11.764 -10.482)" fill="#fdfefe"/>
    <path id="Path_455" data-name="Path 455" d="M31.677,64.655v9.273c0,.478-.1.669-.574.669a6.247,6.247,0,0,0-1.338,0c-.669.1-.765-.191-.765-.765V55.574c0-.478.191-.574.574-.574h1.434c.478,0,.574.1.574.574C31.677,58.537,31.677,61.6,31.677,64.655Z" transform="translate(-11.598 -10.834)" fill="#a8ddfd"/>
    <path id="Path_456" data-name="Path 456" d="M63.4,64.746V55.568c0-.478.1-.669.669-.669a6.246,6.246,0,0,0,1.338,0c.574-.1.669.191.669.765v18.45c0,.478-.1.669-.574.574H64.069c-.478,0-.574-.1-.574-.574C63.4,70.96,63.4,67.8,63.4,64.746Z" transform="translate(-13.112 -10.829)" fill="#a8ddfd"/>
    <path id="Path_457" data-name="Path 457" d="M37.812,57.688a4.5,4.5,0,0,1-.86.287c-.382.191-.574,0-.765-.382a3.212,3.212,0,1,1,6.023-2.2,3.252,3.252,0,0,1,.1.956c0,1.53-.574,1.912-2.1,1.338l.574-.86a2.737,2.737,0,0,0-.1-2.581,1.9,1.9,0,0,0-1.816-.86,1.954,1.954,0,0,0-1.625,1.338A3,3,0,0,0,37.812,57.688Z" transform="translate(-11.902 -10.749)" fill="#c3f8fb"/>
    <path id="Path_458" data-name="Path 458" d="M51.977,83.956H42.8C42.991,83,42.991,83,43.947,83H50.83C51.786,83,51.786,83,51.977,83.956Z" transform="translate(-12.205 -12.067)" fill="#c3f8fb"/>
    <path id="Path_459" data-name="Path 459" d="M41.028,58.893a3.015,3.015,0,0,1-3.728,0c.287-.1.574-.1.86-.191a.95.95,0,0,0,.478-1.434,2.827,2.827,0,0,1-.574-1.912.983.983,0,0,1,1.052-.956.9.9,0,0,1,.956.956,2.114,2.114,0,0,1-.574,1.816.963.963,0,0,0,.574,1.53C40.359,58.8,40.646,58.8,41.028,58.893Z" transform="translate(-11.963 -10.808)" fill="#f9fafb"/>
    <path id="Path_460" data-name="Path 460" d="M77.437,26.469A9.369,9.369,0,1,1,68.164,17.1,9.384,9.384,0,0,1,77.437,26.469Zm-2.868-4.206a.828.828,0,0,0-.382-.669l-1.052-1.052c-.86-.86-1.243-.86-2.008,0-.382.478-.669.287-.956,0-.287-.191-.1-.574-.1-.765a1.014,1.014,0,0,0-1.147-1.147H67.5c-1.147,0-1.338.191-1.338,1.338,0,.287.1.574-.287.669s-.574.1-.765-.191c-.86-.86-1.147-.86-2.1,0l-.765.765c-.86.86-.86,1.243,0,2.008.382.382.287.669,0,1.052-.191.287-.574.1-.765.1a1.014,1.014,0,0,0-1.147,1.147v1.338c0,1.243.191,1.53,1.434,1.434.382,0,.574.1.669.478.191.382-.1.574-.287.765-.669.765-.669,1.147,0,1.912l.86.86c.86.86,1.243.956,2.1,0a.648.648,0,0,1,.956-.1c.287.191.191.574.191.765,0,.86.287,1.147,1.243,1.147h1.338c1.243,0,1.53-.191,1.434-1.434a.6.6,0,0,1,.669-.669c.287,0,.382.287.574.478a.983.983,0,0,0,1.625,0,9.014,9.014,0,0,0,.956-.956c.765-.765.86-1.147,0-2.008a.761.761,0,0,1-.191-.86c.191-.382.478-.287.765-.287,1.052,0,1.338-.287,1.338-1.338V25.895c0-1.243-.191-1.434-1.434-1.434a.722.722,0,0,1-.669-.382c-.191-.382,0-.478.191-.765C74.187,23.027,74.474,22.836,74.569,22.262Z" transform="translate(-12.905 -9.165)" fill="#f9fafb"/>
    <path id="Path_461" data-name="Path 461" d="M72.334,10.369c-.1.478-.287.765-.669.765a.811.811,0,0,1-.765-.669.811.811,0,0,1,.669-.765A.739.739,0,0,1,72.334,10.369Z" transform="translate(-13.442 -8.84)" fill="#c3f8fb"/>
    <path id="Path_462" data-name="Path 462" d="M72.334,42.868a.719.719,0,1,1-.765-.669C72.047,42.1,72.238,42.39,72.334,42.868Z" transform="translate(-13.442 -10.27)" fill="#c3f8fb"/>
    <path id="Path_463" data-name="Path 463" d="M52.834,24.273a.926.926,0,0,1-.669.765.811.811,0,0,1-.765-.669.653.653,0,0,1,.669-.669C52.547,23.6,52.738,23.89,52.834,24.273Z" transform="translate(-12.584 -9.455)" fill="#c3f8fb"/>
    <path id="Path_464" data-name="Path 464" d="M84.569,25.034a.653.653,0,0,1-.669-.669.811.811,0,0,1,.669-.765.739.739,0,0,1,.765.669C85.238,24.747,84.952,25.034,84.569,25.034Z" transform="translate(-14.014 -9.452)" fill="#c3f8fb"/>
    <path id="Path_465" data-name="Path 465" d="M64.978,9.8a.606.606,0,0,1,.574.478c0,.382-.191.574-.478.574a.551.551,0,0,1-.574-.574C64.5,9.991,64.691,9.9,64.978,9.8Z" transform="translate(-13.16 -8.844)" fill="#c3f8fb"/>
    <path id="Path_466" data-name="Path 466" d="M52.552,30.974a.452.452,0,0,1-.478.478c-.382,0-.574-.191-.574-.478a.606.606,0,0,1,.478-.574Q52.408,30.4,52.552,30.974Z" transform="translate(-12.588 -9.751)" fill="#c3f8fb"/>
    <path id="Path_467" data-name="Path 467" d="M64.974,42.7a.478.478,0,1,1,0,.956c-.382,0-.574-.191-.574-.478A.606.606,0,0,1,64.974,42.7Z" transform="translate(-13.156 -10.292)" fill="#c3f8fb"/>
    <path id="Path_468" data-name="Path 468" d="M84.874,30.5a.452.452,0,0,1,.478.478c0,.382-.191.574-.478.574a.606.606,0,0,1-.574-.478C84.4,30.691,84.491,30.5,84.874,30.5Z" transform="translate(-14.032 -9.755)" fill="#c3f8fb"/>
    <path id="Path_469" data-name="Path 469" d="M37.716,31.567c-.478,0-1.243.1-1.434-.191-.287-.287.191-.86.382-1.338a8.867,8.867,0,0,0-6.692-10.994A8.7,8.7,0,0,0,19.456,26.4a8.935,8.935,0,0,0,.382,4.206c.191.478.191.574-.382.574-1.052-.1-2.1,0-3.155-.191A5.44,5.44,0,0,1,12,25.449,6.006,6.006,0,0,1,16.78,19.9c.478-.1,1.052.1,1.434-.287s.1-.86.191-1.338a7.89,7.89,0,0,1,5.736-6.692,7.741,7.741,0,0,1,8.317,2.964.683.683,0,0,0,.956.287,4.242,4.242,0,0,1,5.927,4.3c-.1.574.1.765.669.956A5.821,5.821,0,0,1,40.2,31.471,24.233,24.233,0,0,1,37.716,31.567ZM19.265,18.948c0,.287-.1.765.382.86.574,0,.478-.478.478-.765a5.9,5.9,0,0,1,4.78-5.545,3.921,3.921,0,0,1,1.052-.1c.382-.1.574-.478.287-.669a.91.91,0,0,0-.669-.191A6.724,6.724,0,0,0,19.265,18.948Zm24,6.979c0-.287,0-.574-.382-.669-.382,0-.478.287-.478.574a3.631,3.631,0,0,1-3.633,3.633c-.287,0-.574.1-.574.478s.382.478.669.478A4.743,4.743,0,0,0,43.26,25.927ZM17.449,30.133c.287,0,.669,0,.669-.382.1-.478-.287-.478-.669-.478a.862.862,0,0,1-.478-.1,3.516,3.516,0,0,1-2.964-2.39,3.586,3.586,0,0,1-.1-.956c0-.287-.191-.574-.478-.478-.287,0-.382.287-.382.574V26.4A4.521,4.521,0,0,0,17.449,30.133Z" transform="translate(-10.849 -8.91)" fill="#679cfc"/>
    <path id="Path_470" data-name="Path 470" d="M28.435,20.2A7.935,7.935,0,1,1,20.5,28.135,7.915,7.915,0,0,1,28.435,20.2Zm-3.728,4.875c0,.382.1.765.574.669.382-.1.382-.382.478-.765s.1-.669.191-1.052c.1-.574-.191-.86-.765-.765-.382.1-.669.1-1.052.191-.287.1-.669.1-.669.478-.1.382.287.478.478.574-.1.1-.191.287-.287.382a5.861,5.861,0,0,0,5.736,9.177.551.551,0,0,0,.574-.574c-.1-.382-.287-.382-.669-.382h-.287a4.957,4.957,0,0,1-4.971-2.772A4.562,4.562,0,0,1,24.706,25.075Zm8.221,6.883a5.982,5.982,0,0,0,1.243-4.684A5.808,5.808,0,0,0,27.861,22.4c-.287,0-.669.1-.574.478,0,.478.382.382.669.382a3.644,3.644,0,0,1,1.434.1,5.14,5.14,0,0,1,3.728,3.25,4.874,4.874,0,0,1-.86,4.78c0-.382-.1-.765-.478-.765s-.478.382-.478.669c-.1.382-.1.765-.191,1.052-.1.574.191.765.765.765a4.933,4.933,0,0,1,1.052-.191c.287-.1.574-.1.669-.478C33.5,32.15,33.119,32.054,32.928,31.959Z" transform="translate(-11.224 -9.302)" fill="#b3e1fd"/>
    <path id="Path_471" data-name="Path 471" d="M37.612,41.955a1.028,1.028,0,0,1-.956.956.956.956,0,1,1,0-1.912A.9.9,0,0,1,37.612,41.955Z" transform="translate(-11.893 -10.217)" fill="#f9fafb"/>
    <path id="Path_472" data-name="Path 472" d="M40.412,36.756a1.216,1.216,0,0,1-.956,1.052.9.9,0,0,1-.956-.956,1.042,1.042,0,0,1,.956-1.052A.958.958,0,0,1,40.412,36.756Z" transform="translate(-12.016 -9.989)" fill="#f9fafb"/>
    <path id="Path_473" data-name="Path 473" d="M17.556,37.3a.958.958,0,0,1,.956.956,1.028,1.028,0,0,1-.956.956.958.958,0,0,1-.956-.956A1.028,1.028,0,0,1,17.556,37.3Z" transform="translate(-11.052 -10.055)" fill="#f9fafb"/>
    <path id="Path_474" data-name="Path 474" d="M21.456,42.5a.958.958,0,0,1,.956.956,1.028,1.028,0,0,1-.956.956.958.958,0,0,1-.956-.956A.9.9,0,0,1,21.456,42.5Z" transform="translate(-11.224 -10.284)" fill="#f9fafb"/>
    <path id="Path_475" data-name="Path 475" d="M53.379,63.7h6.214c.765,0,.86,0,.86.86v7.935c0,.765-.1.86-.86.86H47.356c-.86,0-.956,0-.956-.86V64.656c0-.765,0-.86.86-.86C49.268,63.7,51.275,63.7,53.379,63.7Zm-.1,8.6h5.64c.478,0,.574-.1.574-.574V65.038c0-.382-.1-.574-.574-.574H47.738c-.478,0-.574.1-.574.574V71.73c0,.478.191.574.574.574Z" transform="translate(-12.364 -11.217)" fill="#8a8a8a"/>
    <path id="Path_476" data-name="Path 476" d="M54.388,60.356h-3.92c-.382,0-.765,0-.669-.478,0-.478.382-.478.765-.478h7.648c.382,0,.765,0,.669.478,0,.478-.382.478-.765.478Z" transform="translate(-12.513 -11.028)" fill="#8a8a8a"/>
    <path id="Path_477" data-name="Path 477" d="M39.246,70.556H36.569c-.287,0-.669,0-.669-.478,0-.382.287-.478.669-.478h5.449c.382,0,.669.1.669.478s-.287.382-.669.382A26.868,26.868,0,0,1,39.246,70.556Z" transform="translate(-11.901 -11.477)" fill="#8a8a8a"/>
    <path id="Path_478" data-name="Path 478" d="M49.055,60.625a1.658,1.658,0,0,1-1.53,1.625A1.611,1.611,0,0,1,45.9,60.625,1.675,1.675,0,0,1,47.525,59,1.738,1.738,0,0,1,49.055,60.625Zm-1.53-.669a.739.739,0,0,0-.765.669.728.728,0,0,0,.669.765.653.653,0,0,0,.669-.669A.668.668,0,0,0,47.525,59.956Z" transform="translate(-12.342 -11.01)" fill="#8a8a8a"/>
    <path id="Path_479" data-name="Path 479" d="M39.246,65.456H36.474c-.287,0-.574-.1-.574-.478s.287-.478.574-.478h5.545c.287,0,.574.1.574.478s-.287.478-.574.478Z" transform="translate(-11.901 -11.252)" fill="#8a8a8a"/>
    <path id="Path_480" data-name="Path 480" d="M39.246,62.956H36.569c-.382,0-.669,0-.669-.478,0-.382.382-.478.669-.478h5.449c.287,0,.669,0,.669.478,0,.382-.382.478-.669.478Z" transform="translate(-11.901 -11.142)" fill="#8a8a8a"/>
    <path id="Path_481" data-name="Path 481" d="M39.346,67.1h2.677c.382,0,.669,0,.669.478,0,.382-.287.478-.574.478H36.574c-.287,0-.574-.1-.574-.478s.287-.382.574-.382A25.959,25.959,0,0,1,39.346,67.1Z" transform="translate(-11.906 -11.367)" fill="#8a8a8a"/>
    <path id="Path_482" data-name="Path 482" d="M39.246,73.056H36.474c-.287,0-.574-.1-.574-.478s.287-.478.574-.478h5.545c.287,0,.574.1.574.478s-.287.478-.574.478Z" transform="translate(-11.901 -11.587)" fill="#8a8a8a"/>
    <path id="Path_483" data-name="Path 483" d="M51.621,61.2h1.338c.287,0,.478.1.478.382a.452.452,0,0,1-.478.478H50.378c-.287,0-.478-.1-.478-.478s.191-.478.574-.478a4.286,4.286,0,0,0,1.147.1Z" transform="translate(-12.518 -11.103)" fill="#8a8a8a"/>
    <path id="Path_484" data-name="Path 484" d="M46.615,79.956H27.878c-.287,0-.478-.1-.478-.478A.452.452,0,0,1,27.878,79H65.639a.411.411,0,0,1,.382.382c0,.287-.1.478-.382.478h-.574C58.852,79.956,52.733,79.956,46.615,79.956Z" transform="translate(-11.527 -11.891)" fill="#8a8a8a"/>
    <path id="Path_485" data-name="Path 485" d="M46.684,80.6h19.6c.287,0,.382.191.382.478a.35.35,0,0,1-.382.382H27.756c-.382,0-.86.191-.956-.382,0-.669.574-.478.956-.478Z" transform="translate(-11.501 -11.96)" fill="#8a8a8a"/>
    <path id="Path_486" data-name="Path 486" d="M34.269,47.6a.574.574,0,0,1,0,1.147c-.382,0-.669-.191-.669-.574A.716.716,0,0,1,34.269,47.6Z" transform="translate(-11.8 -10.508)" fill="#24688a"/>
    <path id="Path_487" data-name="Path 487" d="M39.547,48.169c-.1.382-.191.574-.574.574s-.574-.191-.574-.669a.551.551,0,0,1,.574-.574C39.356,47.6,39.452,47.882,39.547,48.169Z" transform="translate(-12.012 -10.504)" fill="#24688a"/>
    <path id="Path_488" data-name="Path 488" d="M36.674,48.747q-.574-.143-.574-.574a.507.507,0,0,1,.574-.574c.382,0,.574.191.574.669A.535.535,0,0,1,36.674,48.747Z" transform="translate(-11.91 -10.508)" fill="#24688a"/>
    <path id="Path_489" data-name="Path 489" d="M74.635,22.333a1.076,1.076,0,0,1-.669,1.052c-.191.191-.382.382-.191.765.1.287.287.382.669.382,1.243,0,1.434.191,1.434,1.434v1.147c0,1.052-.287,1.338-1.338,1.338-.287,0-.574-.191-.765.287-.191.382-.191.574.191.86.86.765.86,1.147,0,2.008l-.956.956a.983.983,0,0,1-1.625,0c-.191-.191-.287-.478-.574-.478-.382,0-.765.191-.669.669,0,1.243-.191,1.434-1.434,1.434H67.37c-.86,0-1.147-.287-1.243-1.147,0-.287.191-.574-.191-.765a.648.648,0,0,0-.956.1c-.86.86-1.147.86-2.1,0l-.86-.86c-.765-.765-.669-1.147,0-1.912.191-.191.478-.382.287-.765-.191-.287-.287-.478-.669-.478-1.243,0-1.434-.191-1.434-1.434V25.583c0-.765.382-1.052,1.147-1.147.287,0,.669.191.765-.1a.748.748,0,0,0,0-1.052c-.86-.86-.86-1.147,0-2.008l.765-.765c.86-.86,1.243-.86,2.1,0a.625.625,0,0,0,.765.191c.382-.191.287-.382.287-.669,0-1.147.287-1.338,1.338-1.338H68.8a1.014,1.014,0,0,1,1.147,1.147c0,.287-.191.669.1.765.287.191.574.382.956,0,.765-.86,1.147-.86,2.008,0l1.052,1.052A1.2,1.2,0,0,1,74.635,22.333Zm-.956,0c-.1-.1-.191-.191-.191-.287l-.669-.669c-.382-.574-.765-.478-1.147,0a.974.974,0,0,1-1.434.287,1.359,1.359,0,0,0-.574-.191.719.719,0,0,1-.478-.669c-.1-1.147-.1-1.147-1.243-1.147h-.191c-.669-.1-.86.1-.765.765a1.014,1.014,0,0,1-.86,1.243c-.191,0-.287.1-.478.191a.741.741,0,0,1-.956-.191c-.86-.765-.86-.765-1.625,0l-.1.1c-.669.669-.669.669,0,1.243a1.043,1.043,0,0,1,.287,1.243,1.359,1.359,0,0,0-.191.574.727.727,0,0,1-.765.574c-1.147.1-1.147.1-1.147,1.147v.287c-.191.669.1.86.765.765a.851.851,0,0,1,1.052.478c.1.287.287.669.382.956a.744.744,0,0,1-.191.765c-.191.287-.765.478-.669.86.1.287.478.574.765.86l.191.191c.287.478.669.478.956,0,.287-.287.574-.669,1.052-.478a5.847,5.847,0,0,1,1.147.478.64.64,0,0,1,.382.669c.1,1.147.1,1.147,1.147,1.147h.1c.86,0,.956,0,.86-.86a.964.964,0,0,1,.669-1.052,4.662,4.662,0,0,1,.669-.287.878.878,0,0,1,.956.191c.287.287.478.765.765.669.287,0,.574-.478.765-.765h0c.669-.669.669-.669,0-1.338a.906.906,0,0,1-.191-1.243c.1-.191.191-.478.287-.669a.719.719,0,0,1,.669-.478c.382,0,.86.191,1.052-.1s.1-.765.1-1.147v-.191c.1-.574-.191-.86-.765-.765-1.052.191-1.147-.574-1.434-1.243A.913.913,0,0,1,73.01,23C73.393,22.715,73.584,22.62,73.679,22.333Z" transform="translate(-12.971 -9.236)" fill="#fff"/>
    <path id="Path_490" data-name="Path 490" d="M19.6,19a6.814,6.814,0,0,1,6.309-6.5c.287,0,.478-.1.669.191s.1.669-.287.669a3.921,3.921,0,0,1-1.052.1A5.821,5.821,0,0,0,20.46,19c0,.382.1.86-.478.765C19.5,19.86,19.6,19.382,19.6,19Z" transform="translate(-11.183 -8.962)" fill="#8a8a8a"/>
    <path id="Path_491" data-name="Path 491" d="M44.462,26.569a4.756,4.756,0,0,1-4.493,4.493c-.287,0-.669,0-.669-.478,0-.382.287-.478.574-.478a3.831,3.831,0,0,0,3.633-3.633c0-.287.1-.574.478-.574C44.462,26,44.462,26.282,44.462,26.569Z" transform="translate(-12.051 -9.553)" fill="#8a8a8a"/>
    <path id="Path_492" data-name="Path 492" d="M17.5,30.78a4.432,4.432,0,0,1-4.4-3.728v-.478c0-.287.1-.574.382-.574a.452.452,0,0,1,.478.478c0,.287.1.574.1.86a3.376,3.376,0,0,0,2.964,2.39.862.862,0,0,1,.478.1c.382,0,.669,0,.669.478S17.784,30.78,17.5,30.78Z" transform="translate(-10.898 -9.557)" fill="#8a8a8a"/>
    <path id="Path_493" data-name="Path 493" d="M24.8,25.224a5.009,5.009,0,0,0,4.3,8.221h.287a.483.483,0,0,1,.669.382c.1.382-.191.478-.574.574a5.976,5.976,0,0,1-3.824-.669,5.853,5.853,0,0,1-1.912-8.508,1.32,1.32,0,0,0,.287-.382c-.191-.191-.574-.191-.478-.574s.382-.382.669-.478A4.066,4.066,0,0,1,25.28,23.6c.574-.1.86.191.765.765-.1.382-.1.669-.191,1.052-.1.287-.1.669-.478.765A.908.908,0,0,1,24.8,25.224Z" transform="translate(-11.319 -9.451)" fill="#8a8a8a"/>
    <path id="Path_494" data-name="Path 494" d="M33.236,32.063c.287.1.574.191.574.574-.1.382-.382.382-.669.478a4.933,4.933,0,0,1-1.052.191c-.574.1-.86-.191-.765-.765.1-.382.1-.765.191-1.052s.1-.669.478-.669.478.287.478.765a4.874,4.874,0,0,0,.86-4.78,4.653,4.653,0,0,0-3.728-3.25,3.644,3.644,0,0,0-1.434-.1c-.287,0-.669.1-.669-.382,0-.382.287-.478.574-.478a5.885,5.885,0,0,1,5.162,9.464Z" transform="translate(-11.532 -9.406)" fill="#8a8a8a"/>
    <path id="Path_495" data-name="Path 495" d="M53.323,72.339H47.874c-.478,0-.574-.1-.574-.574V65.074c0-.478.1-.574.574-.574H59.059c.478,0,.574.1.574.574v6.692c0,.478-.1.574-.574.574Z" transform="translate(-12.404 -11.252)" fill="#a8ddfd"/>
    <path id="Path_496" data-name="Path 496" d="M47.568,60a.682.682,0,0,1,.669.765.653.653,0,0,1-.669.669c-.478,0-.669-.287-.669-.765C46.8,60.287,47.09,60,47.568,60Z" transform="translate(-12.385 -11.054)" fill="#c3f8fb"/>
    <path id="Path_497" data-name="Path 497" d="M73.722,22.376c-.1.287-.287.382-.478.574-.382.382-.669.669-.382,1.243.287.669.478,1.434,1.434,1.243.574-.1.86.1.765.765v.191c0,.382.1.86-.1,1.147-.191.382-.669.1-1.052.1a.637.637,0,0,0-.669.478c-.1.191-.191.478-.287.669a.906.906,0,0,0,.191,1.243c.669.669.669.669,0,1.338h0c-.287.287-.478.669-.765.765s-.574-.478-.765-.669a.878.878,0,0,0-.956-.191,4.659,4.659,0,0,1-.669.287c-.574.191-.765.478-.669,1.052,0,.86,0,.86-.86.86h-.1c-1.147,0-1.147,0-1.147-1.147a.64.64,0,0,0-.382-.669,5.848,5.848,0,0,0-1.147-.478c-.478-.191-.765.191-1.052.478-.382.478-.669.478-.956,0,0-.1-.1-.1-.191-.191-.287-.287-.669-.478-.765-.86s.478-.574.669-.86a.794.794,0,0,0,.191-.765c-.1-.287-.287-.669-.382-.956a1.6,1.6,0,0,0-1.243-.382c-.669.1-.86-.191-.765-.765v-.287c0-1.052,0-1.052,1.147-1.147a.727.727,0,0,0,.765-.574c.1-.191.1-.382.191-.574a.85.85,0,0,0-.287-1.243c-.669-.574-.574-.669,0-1.243l.1-.1c.765-.765.765-.765,1.625,0a.878.878,0,0,0,.956.191c.191-.1.287-.191.478-.191a1.014,1.014,0,0,0,.86-1.243c-.1-.669.191-.86.765-.765h.191c1.147,0,1.147,0,1.243,1.147a.637.637,0,0,0,.478.669c.191.1.382.1.574.191a.974.974,0,0,0,1.434-.287c.382-.478.765-.574,1.147,0a4.416,4.416,0,0,0,.669.669C73.531,22.184,73.627,22.28,73.722,22.376Zm-5.64,7.552a3.346,3.346,0,1,0-3.346-3.346A3.387,3.387,0,0,0,68.082,29.928Z" transform="translate(-13.014 -9.279)" fill="#c3f8fb"/>
    <path id="Path_498" data-name="Path 498" d="M68.246,30.092a3.346,3.346,0,1,1,0-6.692,3.346,3.346,0,1,1,0,6.692Zm0-5.831a2.449,2.449,0,0,0-2.39,2.486,2.438,2.438,0,0,0,4.875-.1A2.515,2.515,0,0,0,68.246,24.26Z" transform="translate(-13.178 -9.443)" fill="#fff"/>
    <path id="Path_499" data-name="Path 499" d="M68.29,24.3a2.515,2.515,0,0,1,2.486,2.39,2.585,2.585,0,0,1-2.39,2.486,2.515,2.515,0,0,1-2.486-2.39A2.449,2.449,0,0,1,68.29,24.3Z" transform="translate(-13.222 -9.482)" fill="#f9fafb"/>
  </g>
</svg>
