<svg xmlns="http://www.w3.org/2000/svg" width="104" height="162.244" viewBox="0 0 104 162.244">
<defs><style>
        @import url('https://fonts.googleapis.com/css2?family=Roboto+Condensed:wght@300;400&amp;display=swap');
        </style></defs>
  <g id="Group_812" data-name="Group 812" transform="translate(-0.028 9)">
    <g id="Group_622" data-name="Group 622" transform="translate(0)">
      <text style="text-align: center;font-weight:400; font-family:Roboto Condensed" id="Career_oriented_Training_education" data-name="Career
oriented
Training
&amp; education" transform="translate(0.028 82.244)" fill="#0054a5" font-size="19" font-family="RobotoCondensed-Regular, Roboto"><tspan x="0" y="0">CAREER</tspan><tspan x="0" y="22">ORIENTED</tspan><tspan x="0" y="44">TRAINING</tspan><tspan x="0" y="66">&amp; EDUCATION</tspan></text>
      <g id="Group_818" data-name="Group 818" transform="translate(6.521 -9)">
        <path id="Path_554" data-name="Path 554" d="M42.595,10.842v13.43a3.377,3.377,0,0,1-.617,1.93c-.077.077-.077.154-.154.154a2.885,2.885,0,0,1-1.544.926H40.2a3.12,3.12,0,0,1-3.55-1.466L29.936,14.238a1.513,1.513,0,0,1,.695-2.161A29.86,29.86,0,0,1,40.9,9.3,1.542,1.542,0,0,1,42.595,10.842Z" transform="translate(-13.799 -9.292)" fill="#1664ff"/>
        <path id="Path_555" data-name="Path 555" d="M73.4,25.632h0l-.232.154L67,29.337l-.232.154L61.9,32.27a3.16,3.16,0,0,1-3.782-.54h0a3.16,3.16,0,0,1-.54-3.782L64.3,16.37a1.627,1.627,0,0,1,2.238-.54,28.774,28.774,0,0,1,7.487,7.487A1.822,1.822,0,0,1,73.4,25.632Z" transform="translate(-20.065 -10.73)" fill="#1664ff"/>
        <path id="Path_556" data-name="Path 556" d="M78.629,42.794H65.276a3.128,3.128,0,0,1-3.01-2.316V40.4a3.12,3.12,0,0,1,1.466-3.55L75.31,30.136a1.513,1.513,0,0,1,2.161.695,31.05,31.05,0,0,1,2.547,8.259.464.464,0,0,0,.077.309c.077.617.154,1.158.232,1.775A1.7,1.7,0,0,1,78.629,42.794Z" transform="translate(-21.199 -14)" fill="#a8ddfd"/>
        <path id="Path_557" data-name="Path 557" d="M32.177,62l-3.4,5.789-.386.695-2.47,4.322-.386.695v.077a1.627,1.627,0,0,1-2.238.54,28.774,28.774,0,0,1-7.487-7.487,1.509,1.509,0,0,1,.54-2.238L19.6,62.545l6.792-3.936,1.544-.926a3.16,3.16,0,0,1,3.782.54h0A3.263,3.263,0,0,1,32.177,62Z" transform="translate(-10.56 -20.243)" fill="#1664ff"/>
        <path id="Path_558" data-name="Path 558" d="M42.617,65.485v13.43a1.626,1.626,0,0,1-.386,1,1.066,1.066,0,0,1-.309.232,1.551,1.551,0,0,1-1,.309h0a1.314,1.314,0,0,1-.54-.077c-.232,0-.54-.077-.772-.077a22.62,22.62,0,0,1-2.238-.386,28.024,28.024,0,0,1-6.638-2.238,1.513,1.513,0,0,1-.695-2.161l6.715-11.578a3.224,3.224,0,0,1,3.55-1.466h.077A3.172,3.172,0,0,1,42.617,65.485Z" transform="translate(-13.822 -21.407)" fill="#a8ddfd"/>
        <path id="Path_559" data-name="Path 559" d="M60.186,77.671a32.9,32.9,0,0,1-6.561,2.238c-.077,0-.232.077-.309.077A24.509,24.509,0,0,1,50,80.45a1.542,1.542,0,0,1-1.7-1.544V65.476a3.127,3.127,0,0,1,2.315-3.01h.077a3.12,3.12,0,0,1,3.55,1.466l5.789,9.957.54,1,.386.617A1.6,1.6,0,0,1,60.186,77.671Z" transform="translate(-18.038 -21.399)" fill="#1664ff"/>
        <path id="Path_560" data-name="Path 560" d="M73.9,66.558c-.232.386-.54.695-.772,1.081h0a34.206,34.206,0,0,1-4.94,5.094c-.077.077-.232.154-.309.232-.463.386-1,.772-1.544,1.158a1.509,1.509,0,0,1-2.238-.54L57.382,62a3.16,3.16,0,0,1,.54-3.782h0a3.16,3.16,0,0,1,3.782-.54L73.282,64.4A1.451,1.451,0,0,1,73.9,66.558Z" transform="translate(-20.019 -20.243)" fill="#a8ddfd"/>
        <path id="Path_561" data-name="Path 561" d="M80.236,50.1a29.883,29.883,0,0,1-.926,5.248c0,.077-.077.232-.077.309a26.758,26.758,0,0,1-1.775,4.708,1.513,1.513,0,0,1-2.161.695l-.54-.309-1-.54L63.641,54.343a3.224,3.224,0,0,1-1.466-3.55v-.077a3.127,3.127,0,0,1,3.01-2.315h13.43A1.621,1.621,0,0,1,80,49.172,2.055,2.055,0,0,1,80.236,50.1Z" transform="translate(-21.185 -18.215)" fill="#1664ff"/>
        <path id="Path_562" data-name="Path 562" d="M31.607,31.714h0a3.208,3.208,0,0,1-3.628.695c-.077,0-.154-.077-.232-.154l-.463-.309L16.17,25.539a1.627,1.627,0,0,1-.54-2.238,28.774,28.774,0,0,1,7.487-7.487,1.509,1.509,0,0,1,2.238.54L32.07,27.932a2.742,2.742,0,0,1,.309.695c0,.154.077.232.077.386A3.13,3.13,0,0,1,31.607,31.714Z" transform="translate(-10.53 -10.714)" fill="#a8ddfd"/>
        <path id="Path_563" data-name="Path 563" d="M60.881,14.161l-1.389,2.47-.154.309L56.559,21.8l-.154.309-.154.232-2.007,3.473a3.224,3.224,0,0,1-3.55,1.466h-.077a3.127,3.127,0,0,1-2.315-3.01V10.842A1.542,1.542,0,0,1,50,9.3a29.86,29.86,0,0,1,10.265,2.779A1.443,1.443,0,0,1,60.881,14.161Z" transform="translate(-18.038 -9.292)" fill="#a8ddfd"/>
        <path id="Path_564" data-name="Path 564" d="M25.616,54.32l-1.93,1.158-.309.154-6.406,3.7-.309.154-2.624,1.466a1.513,1.513,0,0,1-2.161-.695A29.86,29.86,0,0,1,9.1,50a1.542,1.542,0,0,1,1.544-1.7h13.43a3.128,3.128,0,0,1,3.01,2.316v.077A3.287,3.287,0,0,1,25.616,54.32Z" transform="translate(-9.093 -18.192)" fill="#a8ddfd"/>
        <path id="Path_565" data-name="Path 565" d="M27.082,40.3h0a3.918,3.918,0,0,1-.695,1.389l-.077.077a2.969,2.969,0,0,1-2.238.926H10.642A1.542,1.542,0,0,1,9.1,41a29.86,29.86,0,0,1,2.779-10.265,1.513,1.513,0,0,1,2.161-.695l11.578,6.715A3.318,3.318,0,0,1,27.082,40.3Z" transform="translate(-9.093 -13.977)" fill="#1664ff"/>
        <path id="Path_566" data-name="Path 566" d="M59.794,18.1l-2.779,4.863-.154.232-.154.309-.232-.077-4.708-4.708V17.8L50.3,16.252,54,14.4l3.7,1.621Z" transform="translate(-18.495 -10.458)" fill="#fff" opacity="0.35"/>
        <path id="_x34_8._Student_cap_2_" d="M57.632,15.975,54.082,14.2h-.154l-3.55,1.775c-.077,0-.077.077-.077.154s0,.077.077.154l1.158.617v1.158c0,.772,1.081,1.312,2.47,1.312s2.47-.54,2.47-1.312V16.9l.386-.232v1.158a.521.521,0,0,0-.309.463.48.48,0,0,0,.309.463l-.309.849v.154c0,.077.077.077.154.077h.772c.077,0,.077,0,.154-.077V19.6l-.386-.926a.5.5,0,0,0,0-.926V16.438l.463-.232c.077,0,.077-.077.077-.154C57.71,16.052,57.71,15.975,57.632,15.975Zm-.772,3.473.154-.463.154.463Zm.154-1.081a.154.154,0,1,1,0-.309h0a.154.154,0,1,1,0,.309Zm-.849-.309c0,.232-.232.463-.617.695a4.014,4.014,0,0,1-3.087,0,.893.893,0,0,1-.617-.695v-1l2.084,1.081h.154l2.084-1.081Zm.849-1.852L54,15.975a.154.154,0,1,0,0,.309l2.47.232L54,17.75,50.763,16.13,54,14.509l3.242,1.621Z" transform="translate(-18.495 -10.413)" fill="#fff"/>
        <path id="Path_567" data-name="Path 567" d="M43.685,17.236v7.873a3.377,3.377,0,0,1-.617,1.93l-7.95-7.95c-.077-.077-.154-.154-.154-.232A1.733,1.733,0,0,1,35.272,17l-.232-.463h0A.528.528,0,0,1,34.5,16a.521.521,0,0,1,.309-.463.59.59,0,0,1,.154-.386,1.815,1.815,0,0,1,1.775-.617c.386-.772.849-1.235,1.466-1.235.54,0,1.081.463,1.466,1.235h.463a.521.521,0,0,1,.463-.309c.154,0,.232.077.386.154h0Z" transform="translate(-14.889 -10.207)" fill="#c7e9fe" opacity="0.35"/>
        <path id="Path_568" data-name="Path 568" d="M41.247,15.252a.6.6,0,0,0-.309-.309v-.077c0-.154-.077-.232-.154-.386h0a.59.59,0,0,0-.386-.154.521.521,0,0,0-.463.309h-.463C39.085,13.863,38.622,13.4,38,13.4c-.54,0-1.081.463-1.466,1.235a1.815,1.815,0,0,0-1.775.617c-.077.154-.154.232-.154.386a.423.423,0,0,0-.309.463.528.528,0,0,0,.54.54h0l.232.463a1.733,1.733,0,0,0-.309,1.852c.077.077.077.154.154.232a1.7,1.7,0,0,0,1.312.463h.309c.386.772.849,1.235,1.466,1.235a.578.578,0,0,0,.386-.077.585.585,0,0,0,.309.154.528.528,0,0,0,.54-.54.464.464,0,0,0-.077-.309l.232-.463H39.7a1.653,1.653,0,0,0,1.466-.617,1.733,1.733,0,0,0-.309-1.852C41.4,16.41,41.555,15.716,41.247,15.252Zm-.772-.617a.232.232,0,1,1-.232.232A.2.2,0,0,1,40.475,14.635Zm-.54.232a.516.516,0,0,0,.54.463.59.59,0,0,0,.386-.154c.077.077.154.154.154.232.232.386.077.849-.232,1.466a4.045,4.045,0,0,0-.849-.772,4.425,4.425,0,0,0-.309-1.081C39.78,14.866,39.857,14.866,39.934,14.866Zm0,1.621.617.617a4.657,4.657,0,0,1-.617.617V17.1A.845.845,0,0,0,39.934,16.487Zm-.386-.772a1.244,1.244,0,0,0-.54-.309c-.154-.077-.386-.232-.54-.309.309-.077.54-.154.849-.232C39.394,15.175,39.471,15.484,39.548,15.716Zm-1.466-2.007c.386,0,.772.309,1.081.926a5.686,5.686,0,0,0-1.081.309A7.92,7.92,0,0,0,37,14.635C37.31,14.017,37.7,13.709,38.082,13.709Zm-1.235,1.235a2.012,2.012,0,0,1,.849.232,1.935,1.935,0,0,0-.54.309c-.154.077-.386.232-.54.309C36.693,15.484,36.77,15.175,36.847,14.944Zm-1.93,1.389a.232.232,0,1,1,.232-.232A.2.2,0,0,1,34.917,16.333Zm.154-.695c0-.077.077-.154.077-.232q.347-.579,1.389-.463a4.425,4.425,0,0,0-.309,1.081,8.45,8.45,0,0,0-.849.772c-.077-.077-.077-.154-.154-.309a.424.424,0,0,0,.232-.386A.432.432,0,0,0,35.072,15.638Zm1.081,2.084-.617-.617a4.658,4.658,0,0,1,.617-.617v1.235Zm-1,1c-.232-.386-.077-.849.232-1.466a4.046,4.046,0,0,0,.849.772,4.425,4.425,0,0,0,.309,1.081C35.844,19.266,35.381,19.112,35.149,18.726Zm1.466-.309a3.356,3.356,0,0,0,.54.309c.154.077.386.232.54.309-.309.077-.54.154-.849.232C36.77,18.957,36.693,18.726,36.616,18.417ZM38.854,20.5a.232.232,0,1,1,.232-.232Q38.97,20.5,38.854,20.5Zm.154-.695c-.077,0-.154-.077-.232-.077a.528.528,0,0,0-.54.54v.154c-.077,0-.154.077-.232.077-.386,0-.772-.309-1.081-.926A5.685,5.685,0,0,0,38,19.266a7.919,7.919,0,0,0,1.081.309C39.163,19.575,39.085,19.729,39.008,19.806Zm.309-.617a2.012,2.012,0,0,1-.849-.232,1.934,1.934,0,0,0,.54-.309c.154-.077.386-.232.54-.309A6.261,6.261,0,0,1,39.317,19.189Zm-.463-.695a3.606,3.606,0,0,1-.772.386,2.414,2.414,0,0,1-.772-.386c-.232-.154-.54-.309-.772-.463a3.758,3.758,0,0,1-.077-.926,3.758,3.758,0,0,1,.077-.926,6.786,6.786,0,0,1,.772-.463,3.605,3.605,0,0,1,.772-.386,2.414,2.414,0,0,1,.772.386c.232.154.54.309.772.463,0,.309.077.617.077.926a3.758,3.758,0,0,1-.077.926A6.789,6.789,0,0,1,38.854,18.494Zm2.161.232q-.347.579-1.389.463a4.425,4.425,0,0,0,.309-1.081,8.45,8.45,0,0,0,.849-.772A1.62,1.62,0,0,1,41.015,18.726Z" transform="translate(-14.844 -10.229)" fill="#fff"/>
        <path id="Path_569" data-name="Path 569" d="M38.995,17.2a.695.695,0,1,0,.695.695A.692.692,0,0,0,38.995,17.2Zm0,1.158a.386.386,0,1,1,.386-.386A.365.365,0,0,1,38.995,18.358Z" transform="translate(-15.756 -11.096)" fill="#c7e9fe"/>
        <path id="Path_570" data-name="Path 570" d="M33.08,33.128h0a3.208,3.208,0,0,1-3.628.695c-.077,0-.154-.077-.232-.154l-.463-.309-6.1-6.02-.077-.077a2.124,2.124,0,0,1-.617-1.158,3.157,3.157,0,0,1,0-1.7,1.752,1.752,0,0,1,1-1.081,1.349,1.349,0,0,1,1.312.232,1.254,1.254,0,0,0-1.158-.849.154.154,0,0,1,0-.309,1.3,1.3,0,0,1,.772.232.953.953,0,0,1,.309-.617.936.936,0,0,1,1-.232.076.076,0,0,1,.077.077l8.722,8.567A3.43,3.43,0,0,1,33.08,33.128Z" transform="translate(-12.003 -12.127)" fill="#fff" opacity="0.35"/>
        <path id="Path_571" data-name="Path 571" d="M27.051,24.37a1.752,1.752,0,0,0-1-1.081.839.839,0,0,0-.386-.077,1.7,1.7,0,0,0-1,.309,1.1,1.1,0,0,0-.154-.463.953.953,0,0,0,.617-.309.936.936,0,0,0,.232-1,.076.076,0,0,0-.077-.077.076.076,0,0,1-.077-.077,1.171,1.171,0,0,0-1,.232,1.551,1.551,0,0,0-.309.617,1.3,1.3,0,0,0-.772-.232.154.154,0,1,0,0,.309,1.254,1.254,0,0,1,1.158.849,1.923,1.923,0,0,0-1.312-.232,1.573,1.573,0,0,0-1,1.081,2.563,2.563,0,0,0,0,1.7,4.091,4.091,0,0,0,.617,1.158l.077.077c.077.077.154.154.232.154a1.734,1.734,0,0,0,1.466.309c.077,0,.077,0,.154-.077.077,0,.077.077.154.077a.839.839,0,0,0,.386.077,1.626,1.626,0,0,0,1-.386,2.941,2.941,0,0,0,1-1.466A1.633,1.633,0,0,0,27.051,24.37Zm-2.779-1.621a.8.8,0,0,1,.849-.849.876.876,0,0,1-.232.617C24.658,22.749,24.5,22.826,24.272,22.749Zm2.47,3.242a2.108,2.108,0,0,1-.849,1.235,1.106,1.106,0,0,1-1.158.232.269.269,0,0,1-.154-.077h-.154a.269.269,0,0,0-.154.077c-.772.232-1.7-.463-2.007-1.544a1.874,1.874,0,0,1,.849-2.393,1.254,1.254,0,0,1,1.312.386l.077.077c.077,0,.077,0,.077-.077a1.293,1.293,0,0,1,1.312-.386,1.528,1.528,0,0,1,.926,1.621A1.094,1.094,0,0,1,26.742,25.991Z" transform="translate(-11.994 -12.092)" fill="#fff"/>
        <path id="Path_572" data-name="Path 572" d="M23.26,24.4a1.018,1.018,0,0,0-.695.849,1.913,1.913,0,0,0,0,1.312c0,.077.077.077.154.077H22.8c.077,0,.154-.077.077-.232a1.505,1.505,0,0,1,0-1.158.882.882,0,0,1,.54-.617c.077,0,.154-.077.077-.232C23.415,24.477,23.338,24.4,23.26,24.4Z" transform="translate(-12.14 -12.74)" fill="#fff"/>
        <path id="Path_573" data-name="Path 573" d="M27.33,43.315a2.969,2.969,0,0,1-2.238.926H16.833l-2.856-2.779c-.077-.077-.077-.154-.077-.309V36.986a.365.365,0,0,1,.386-.386h6.175a.777.777,0,0,1,.232.077Z" transform="translate(-10.189 -15.523)" fill="#fff" opacity="0.35"/>
        <path id="Path_574" data-name="Path 574" d="M20.669,36.654h0a.4.4,0,0,0-.309-.154H14.186a.365.365,0,0,0-.386.386v4.168c0,.077.077.232.077.309.077.077.154.077.309.077h3.473l-.463.772v.154c0,.077.077.077.154.077l.54-.077.154.463c0,.077.077.077.154.077h0c.077,0,.077,0,.154-.077l.463-.849.463.849c.077.232.077.232.154.232h0c.077,0,.077-.077.154-.077l.154-.463.54.077c.077,0,.154,0,.154-.077v-.154l-.463-.772h.463a.365.365,0,0,0,.386-.386V37.04A.59.59,0,0,0,20.669,36.654Zm-5.017,3.319h2.161l-.232.463H15.344a.7.7,0,0,0-.463-.463V38.121a.7.7,0,0,0,.463-.463H19.2a.7.7,0,0,0,.463.463v1.7a1.239,1.239,0,0,0-.849-.386,1.077,1.077,0,0,0-.695.232h-2.47a.154.154,0,1,0,0,.309Zm2.624,2.547-.077-.309c0-.077-.077-.154-.154-.077l-.309.077.309-.54a1.552,1.552,0,0,0,.617.309Zm.54-.849a.926.926,0,1,1,.926-.926A.939.939,0,0,1,18.817,41.671Zm1.158.54-.309-.077c-.077,0-.154,0-.154.077l-.077.309-.309-.54a1.551,1.551,0,0,0,.617-.309Zm.54-1.081c0,.077,0,.077-.077.077h-.386a1.428,1.428,0,0,0,0-.926V37.966a.166.166,0,0,0-.154-.154.332.332,0,0,1-.309-.309.166.166,0,0,0-.154-.154H15.266a.166.166,0,0,0-.154.154.332.332,0,0,1-.309.309.166.166,0,0,0-.154.154v2.161a.166.166,0,0,0,.154.154.332.332,0,0,1,.309.309.166.166,0,0,0,.154.154h2.316c0,.154.077.309.077.463h-3.4c-.077,0-.077,0-.077-.077V36.963c0-.077,0-.077.077-.077h6.175c.077,0,.077,0,.077.077Z" transform="translate(-10.167 -15.5)" fill="#fff"/>
        <path id="Path_575" data-name="Path 575" d="M17.454,38.909h1.312a.154.154,0,1,0,0-.309H17.454a.154.154,0,0,0,0,.309Z" transform="translate(-10.965 -15.979)" fill="#fff"/>
        <path id="Path_576" data-name="Path 576" d="M16.154,39.909H19.4a.154.154,0,1,0,0-.309H16.154a.154.154,0,1,0,0,.309Z" transform="translate(-10.668 -16.208)" fill="#fff"/>
        <path id="Path_577" data-name="Path 577" d="M20.117,41.2a.617.617,0,1,0,.617.617A.609.609,0,0,0,20.117,41.2Zm0,.926a.309.309,0,1,1,.309-.309A.332.332,0,0,1,20.117,42.126Z" transform="translate(-11.467 -16.573)" fill="#fff"/>
        <path id="Path_578" data-name="Path 578" d="M24.5,56.317l-6.406,3.7-.309.154-2.316-2.161-.077-.077V56.857a.166.166,0,0,1,.154-.154h.463V56.24h0a.636.636,0,0,0,.54-.772A2.153,2.153,0,0,1,15.081,54,1.874,1.874,0,0,1,14,52.381a.166.166,0,0,1,.154-.154H15v-.772a.166.166,0,0,1,.154-.154h3.628a.166.166,0,0,1,.154.154v.772h.849c.077,0,.077,0,.077.077Z" transform="translate(-10.212 -18.877)" fill="#fff" opacity="0.35"/>
        <path id="Path_579" data-name="Path 579" d="M20.266,51.9l-.077-.077H19.34v-.772a.166.166,0,0,0-.154-.154H15.558a.166.166,0,0,0-.154.154v.772h-.849a.166.166,0,0,0-.154.154A1.786,1.786,0,0,0,15.481,53.6a1.9,1.9,0,0,0,1.466,1.466.767.767,0,0,1-.54.772h0V56.3h-.463a.166.166,0,0,0-.154.154v1.081c0,.077,0,.077.077.077l.077.077h3.242a.166.166,0,0,0,.154-.154V56.457a.166.166,0,0,0-.154-.154h-.463V55.84c0-.077,0-.077-.077-.077h0a.636.636,0,0,1-.54-.772,1.924,1.924,0,0,0,1.389-1.466A1.874,1.874,0,0,0,20.575,51.9C20.343,51.981,20.266,51.981,20.266,51.9Zm-5.634.309h.695v1h0v.077A1.307,1.307,0,0,1,14.632,52.212ZM18.8,56.843v.772H15.866v-.772Zm-.617-.617v.309H16.407v-.309Zm-1.312-.309.154-.154a1.431,1.431,0,0,0,.154-.54h.386a.752.752,0,0,0,.309.695Zm2.084-2.7a1.7,1.7,0,1,1-3.4,0v-1.93h3.319v1.93Zm.309.077h0V52.212h.695A1.307,1.307,0,0,1,19.263,53.293Z" transform="translate(-10.303 -18.786)" fill="#fff"/>
        <path id="Path_580" data-name="Path 580" d="M18.458,58.9h-1a.154.154,0,1,0,0,.309h1a.154.154,0,1,0,0-.309Z" transform="translate(-10.965 -20.612)" fill="#fff"/>
        <path id="Path_581" data-name="Path 581" d="M18.83,53.017c0-.077-.077-.077-.154-.077l-.463-.077-.232-.386c0-.077-.077-.077-.154-.077s-.077,0-.154.077l-.154.386-.463.077c-.077,0-.077.077-.154.077,0,.077,0,.154.077.154l.309.309-.077.463c0,.077,0,.154.077.154s.077.077.154,0l.386-.232.386.232h.154c.077,0,.077-.077.077-.154l-.077-.463.309-.309C18.83,53.095,18.83,53.095,18.83,53.017Zm-.695.309a.269.269,0,0,0-.077.154l.077.232-.232-.077h-.154l-.232.077.077-.232c0-.077,0-.077-.077-.154l-.154-.154h.232c.077,0,.077-.077.154-.077l.077-.232.077.232c0,.077.077.077.154.077h.232Z" transform="translate(-10.874 -19.128)" fill="#fff"/>
        <path id="Path_582" data-name="Path 582" d="M30.01,70.485,27.54,74.73l-.386.695-3.55-3.55c-.077-.077-.077-.154-.077-.309v-1A2.3,2.3,0,0,0,23.14,69.4a3.126,3.126,0,0,1-.54-1.621A2.06,2.06,0,0,1,24.607,65.7a1.862,1.862,0,0,1,1.312.54Z" transform="translate(-12.174 -22.163)" fill="#fff" opacity="0.35"/>
        <path id="Path_583" data-name="Path 583" d="M24.666,66.909a.154.154,0,1,0,0-.309A1.534,1.534,0,0,0,23.2,68.144a.154.154,0,1,0,.309,0A1.2,1.2,0,0,1,24.666,66.909Z" transform="translate(-12.311 -22.368)" fill="#fff"/>
        <path id="Path_584" data-name="Path 584" d="M25.7,68.7c0-.077-.077-.077-.154-.077H25l.077-.772c0-.077,0-.154-.077-.154s-.154,0-.154.077L24,69.089v.154c0,.077.077.077.154.077h.54l-.077.772c0,.077,0,.154.077.154h.077c.077,0,.077,0,.154-.077l.849-1.312C25.7,68.858,25.7,68.781,25.7,68.7Zm-.772.849L25,69.244v-.077l-.077-.077H24.54l.386-.617v.386l.077.077h.386Z" transform="translate(-12.494 -22.618)" fill="#fff"/>
        <path id="Path_585" data-name="Path 585" d="M26,66.517l-.077-.077a2.19,2.19,0,0,0-1.312-.54A2.06,2.06,0,0,0,22.6,67.984a3.126,3.126,0,0,0,.54,1.621,2.3,2.3,0,0,1,.386,1.158v1c0,.077.077.232.077.309.077.077.154.077.309.077h1.312a.365.365,0,0,0,.386-.386v-1A2.3,2.3,0,0,1,26,69.6a3.126,3.126,0,0,0,.54-1.621A2.265,2.265,0,0,0,26,66.517ZM25.3,71.226H24.53a.154.154,0,1,0,0,.309H25.3v.154c0,.077,0,.077-.077.077H23.835c-.077,0-.077,0-.077-.077v-.695H25.3Zm.463-1.852a2.1,2.1,0,0,0-.463,1.312H23.758a2.1,2.1,0,0,0-.463-1.312,2.312,2.312,0,0,1-.463-1.389,1.7,1.7,0,1,1,3.4,0A2.312,2.312,0,0,1,25.765,69.373Z" transform="translate(-12.174 -22.208)" fill="#fff"/>
        <path id="Path_586" data-name="Path 586" d="M60.665,79.8A32.905,32.905,0,0,1,54.1,82.043c-.077,0-.232.077-.309.077L50.477,78.8h0l-.077-.077V75.482h0l.772-1.081a.269.269,0,0,1,.154-.077h.617l2.007-1V71.854A.166.166,0,0,1,54.1,71.7h1.389c.077,0,.077,0,.077.077l5.4,5.4.386.617A1.385,1.385,0,0,1,60.665,79.8Z" transform="translate(-18.517 -23.532)" fill="#fff" opacity="0.35"/>
        <path id="Path_587" data-name="Path 587" d="M57.932,75.336h0v-.077h0l-.849-1.081a.269.269,0,0,0-.154-.077h-.617l-2.007-1v-.54H55.54a.269.269,0,0,0,.154-.077c0-.077,0-.154-.077-.154l-.309-.309.309-.309c.077-.077.077-.077.077-.154v-.077l-.077-.077H54.3a.166.166,0,0,0-.154.154v1.466l-2.007,1h-.617c-.077,0-.077,0-.154.077L50.6,75.182h0v3.242c0,.077,0,.077.077.077h0l.077.077h7.178a.166.166,0,0,0,.154-.154l-.154-3.087Zm-3.55-3.55h.772l-.232.077a.269.269,0,0,0-.077.154c0,.077,0,.077.077.154l.154.154H54.3v-.54Zm-2.47,6.638H50.832V75.491h1.081Zm0-3.242h-1l.54-.772h.386v.772Zm2.161,3.242H53.61V77.189h.463Zm.695,0H54.3V77.189h.463Zm1.389,0H55V77.034a.166.166,0,0,0-.154-.154H53.379a.166.166,0,0,0-.154.154v1.389H52.066V74.333l2.007-1,2.007,1v4.091Zm.309-4.014h.386l.54.772h-.926Zm1.158,4.014H56.543V75.491h1.081Z" transform="translate(-18.563 -23.464)" fill="#fff"/>
        <path id="Path_588" data-name="Path 588" d="M51.454,79.1a.166.166,0,0,0-.154.154v.309a.154.154,0,1,0,.309,0v-.309C51.686,79.177,51.609,79.1,51.454,79.1Z" transform="translate(-18.723 -25.221)" fill="#fff"/>
        <path id="Path_589" data-name="Path 589" d="M58.954,79.717a.166.166,0,0,0,.154-.154v-.309a.154.154,0,1,0-.309,0v.309C58.8,79.64,58.8,79.717,58.954,79.717Z" transform="translate(-20.434 -25.221)" fill="#fff"/>
        <path id="Path_590" data-name="Path 590" d="M51.454,77.5a.166.166,0,0,0-.154.154v.309a.154.154,0,0,0,.309,0v-.309C51.686,77.577,51.609,77.5,51.454,77.5Z" transform="translate(-18.723 -24.855)" fill="#fff"/>
        <path id="Path_591" data-name="Path 591" d="M58.954,78.117a.166.166,0,0,0,.154-.154v-.309a.154.154,0,0,0-.309,0v.309C58.8,78.04,58.8,78.117,58.954,78.117Z" transform="translate(-20.434 -24.855)" fill="#fff"/>
        <path id="Path_592" data-name="Path 592" d="M53.354,78.5a.166.166,0,0,0-.154.154v.309a.154.154,0,1,0,.309,0v-.309A.166.166,0,0,0,53.354,78.5Z" transform="translate(-19.156 -25.083)" fill="#fff"/>
        <path id="Path_593" data-name="Path 593" d="M57.054,79.117a.166.166,0,0,0,.154-.154v-.309a.154.154,0,0,0-.309,0v.309A.166.166,0,0,0,57.054,79.117Z" transform="translate(-20 -25.083)" fill="#fff"/>
        <path id="Path_594" data-name="Path 594" d="M53.354,76.9a.166.166,0,0,0-.154.154v.309a.154.154,0,0,0,.309,0v-.309A.166.166,0,0,0,53.354,76.9Z" transform="translate(-19.156 -24.718)" fill="#fff"/>
        <path id="Path_595" data-name="Path 595" d="M57.054,77.517a.166.166,0,0,0,.154-.154v-.309a.154.154,0,0,0-.309,0v.309A.166.166,0,0,0,57.054,77.517Z" transform="translate(-20 -24.718)" fill="#fff"/>
        <path id="Path_596" data-name="Path 596" d="M55.254,76.9a.166.166,0,0,0-.154.154v.309a.154.154,0,0,0,.309,0v-.309A.166.166,0,0,0,55.254,76.9Z" transform="translate(-19.59 -24.718)" fill="#fff"/>
        <path id="Path_597" data-name="Path 597" d="M55.163,74.8a.463.463,0,1,0,.463.463A.5.5,0,0,0,55.163,74.8Zm0,.772a.232.232,0,1,1,.232-.232C55.317,75.417,55.24,75.572,55.163,75.572Z" transform="translate(-19.498 -24.24)" fill="#fff"/>
        <path id="Path_598" data-name="Path 598" d="M81.867,55.94c0,.077-.077.232-.077.309a26.756,26.756,0,0,1-1.775,4.708,1.513,1.513,0,0,1-2.161.695l-.54-.309L73.84,57.869l-.077-.077a.166.166,0,0,1,.154-.154h.232a.513.513,0,0,0,.386-.309.944.944,0,0,0,.232-.695l-.309-.309a4.3,4.3,0,0,1-.695-1.466,2.375,2.375,0,0,1-.463-1.466,2.775,2.775,0,0,1,.154-.849,2,2,0,0,1,.849-1.081A2.312,2.312,0,0,1,75.693,51a2.491,2.491,0,0,1,1.621.617Z" transform="translate(-23.742 -18.809)" fill="#fff" opacity="0.35"/>
        <path id="Path_599" data-name="Path 599" d="M77.568,57.592h-.232a.513.513,0,0,1-.386-.309.943.943,0,0,1-.232-.695,3.607,3.607,0,0,0,1-1.852,2.375,2.375,0,0,0,.463-1.466,2.491,2.491,0,0,0-.617-1.621v-.077l-.154-.154a2.491,2.491,0,0,0-1.621-.617,2.312,2.312,0,0,0-1.389.463,2.777,2.777,0,0,0-.849,1.081,3.282,3.282,0,0,0-.154.849,2.541,2.541,0,0,0,.463,1.466,4.3,4.3,0,0,0,.695,1.466c.077.154.232.232.309.309a1.844,1.844,0,0,1-.232.695.513.513,0,0,1-.386.309h-.232a.166.166,0,0,0-.154.154c0,.077,0,.077.077.077l.077.077h.463a4.284,4.284,0,0,0,2.779,0h.463a.166.166,0,0,0,.154-.154ZM73.94,53.424a1.431,1.431,0,0,0-.154.54,2.254,2.254,0,0,1-.154-.695,2.743,2.743,0,0,1,.154-.772,2.124,2.124,0,0,1,2.007-1.389,2.1,2.1,0,0,1,2.161,2.084,2.253,2.253,0,0,1-.154.695,2.118,2.118,0,0,0-.772-1.389.145.145,0,0,0-.232,0,1.86,1.86,0,0,1-1.389.54,1.5,1.5,0,0,1-.617-.077C74.4,52.961,74.017,53.115,73.94,53.424Zm.849,2.547a3.917,3.917,0,0,1-.695-1.389h0V54.2a2.254,2.254,0,0,1,.154-.695.467.467,0,0,1,.463-.232,2.284,2.284,0,0,0,.772.154,2.437,2.437,0,0,0,1.466-.54,1.59,1.59,0,0,1,.54,1.312v.386h0a3.918,3.918,0,0,1-.695,1.389,1.124,1.124,0,0,1-2.007,0Zm-.077,1.621a1.84,1.84,0,0,0,.463-.849,1.245,1.245,0,0,0,.695.232,1.454,1.454,0,0,0,.617-.154,1.3,1.3,0,0,0,.463.849A4.376,4.376,0,0,1,74.712,57.592Z" transform="translate(-23.765 -18.763)" fill="#fff"/>
        <path id="Path_600" data-name="Path 600" d="M77.279,54.8h-1a.166.166,0,0,0-.154.154v.154h-.309v-.154a.166.166,0,0,0-.154-.154h-1a.166.166,0,0,0-.154.154v.772a.166.166,0,0,0,.154.154h1a.166.166,0,0,0,.154-.154v-.232a.154.154,0,0,1,.309,0v.232a.166.166,0,0,0,.154.154h1a.166.166,0,0,0,.154-.154v-.772A.166.166,0,0,0,77.279,54.8Zm-1.7.772h-.695v-.463h.695Zm1.544,0H76.43v-.463h.695Z" transform="translate(-24.016 -19.676)" fill="#fff"/>
        <path id="Path_601" data-name="Path 601" d="M74.683,52.449l.077.077c.077,0,.077,0,.154-.077a1.642,1.642,0,0,1,1.158-.54.154.154,0,0,0,0-.309,1.807,1.807,0,0,0-1.389.617A.145.145,0,0,0,74.683,52.449Z" transform="translate(-24.045 -18.945)" fill="#fff"/>
        <path id="Path_602" data-name="Path 602" d="M80.99,44.3H74.43l-1.852-1.852h0a.284.284,0,0,1-.077-.232V36.886a.365.365,0,0,1,.386-.386h5.248a.284.284,0,0,1,.232.077h0L82.3,40.514a.464.464,0,0,0,.077.309c.077.617.154,1.158.232,1.775A1.6,1.6,0,0,1,80.99,44.3Z" transform="translate(-23.56 -15.5)" fill="#fff" opacity="0.35"/>
        <path id="Path_603" data-name="Path 603" d="M78.443,36.654h0c-.154-.077-.232-.154-.309-.154H72.886a.365.365,0,0,0-.386.386v5.248a.284.284,0,0,0,.077.232h0a.284.284,0,0,0,.232.077h5.248a.365.365,0,0,0,.386-.386V36.886A.145.145,0,0,0,78.443,36.654Zm-.849,2.316a.55.55,0,0,0-.232-.463.567.567,0,0,0-.463-.154h0a.609.609,0,0,0-.617.617.578.578,0,0,0,.077.386h-.695V38.43a.166.166,0,0,0-.154-.154.464.464,0,0,0-.309.077.284.284,0,0,1-.232.077h0a.332.332,0,0,1-.309-.309.329.329,0,0,1,.54-.232.464.464,0,0,0,.309.077.166.166,0,0,0,.154-.154v-.926h2.47a.076.076,0,0,1,.077.077v2.47h-.695A.979.979,0,0,0,77.594,38.97ZM75.356,37.5a.578.578,0,0,0-.386-.077.55.55,0,0,0-.463.232c-.154.154-.232.309-.154.463a.609.609,0,0,0,.617.617h0a.7.7,0,0,0,.386-.077v.695H74.43a.166.166,0,0,0-.154.154.464.464,0,0,0,.077.309.284.284,0,0,1,.077.232.332.332,0,0,1-.309.309h0a.329.329,0,0,1-.232-.54.464.464,0,0,0,.077-.309.166.166,0,0,0-.154-.154h-.926v-2.47a.076.076,0,0,1,.077-.077h2.47V37.5Zm-2.547,2.161H73.5a.578.578,0,0,0-.077.386.55.55,0,0,0,.232.463.567.567,0,0,0,.463.154h0a.609.609,0,0,0,.617-.617.578.578,0,0,0-.077-.386h.695v.926a.166.166,0,0,0,.154.154.464.464,0,0,0,.309-.077.284.284,0,0,1,.232-.077h0a.332.332,0,0,1,.309.309.329.329,0,0,1-.54.232.464.464,0,0,0-.309-.077.166.166,0,0,0-.154.154v.926h-2.47a.076.076,0,0,1-.077-.077Zm2.856,1.852a.578.578,0,0,0,.386.077.55.55,0,0,0,.463-.232c.154-.154.232-.309.154-.463a.609.609,0,0,0-.617-.617h0c-.154,0-.232.077-.386.077v-.695h.926a.166.166,0,0,0,.154-.154.464.464,0,0,0-.077-.309.284.284,0,0,1-.077-.232.332.332,0,0,1,.309-.309h0a.329.329,0,0,1,.232.54.464.464,0,0,0-.077.309.166.166,0,0,0,.154.154h.926v2.47a.076.076,0,0,1-.077.077h-2.47v-.695Z" transform="translate(-23.56 -15.5)" fill="#fff"/>
        <path id="Path_604" data-name="Path 604" d="M74.865,27l-6.175,3.55-.232.154L64.6,26.846v-.077c0-.077,0-.077.077-.077l.772-.772c-.154-.154-.077-.386,0-.54l2.47-2.47-.077-.077a.373.373,0,0,1,0-.54l.926-.926a.373.373,0,0,1,.54,0Z" transform="translate(-21.757 -12.02)" fill="#fff" opacity="0.35"/>
        <path id="_x34_4._Telescope_2_" d="M70.52,22.678l-1.312-1.312a.373.373,0,0,0-.54,0l-.926.926a.373.373,0,0,0,0,.54l.077.077-2.47,2.47a.373.373,0,0,0,0,.54l-.772.772-.077.077v.077h0l.54.54h.077c.077,0,.077,0,.077-.077l.772-.772a.284.284,0,0,0,.232.077.464.464,0,0,0,.309-.077l.695-.695a1.066,1.066,0,0,0,.232.309l-1.081,1.93c-.077.077,0,.154.077.232h.077c.077,0,.077,0,.154-.077l.926-1.621v1.852a.154.154,0,0,0,.309,0V26.614l.926,1.621c0,.077.077.077.154.077h.077a.284.284,0,0,0,.077-.232l-1.081-1.93a.467.467,0,0,0,.232-.463.521.521,0,0,0-.309-.463l1.081-1.081.077.077c.077.077.154.077.309.077.077,0,.232-.077.309-.077l.926-.926A.832.832,0,0,0,70.52,22.678Zm-5.4,4.4-.309-.309.617-.617.309.309ZM67.9,25.765a.232.232,0,1,1-.463,0,.232.232,0,1,1,.463,0Zm-1.621.617H66.2l-.077-.077-.54-.54-.077-.077v-.077l2.47-2.47.772.772Zm4.014-3.4-.926.926h-.154L67.9,22.6v-.077l.54-.54.695.695.077.077c.077,0,.077,0,.077-.077a.145.145,0,0,0,0-.232l-.54-.617.154-.154h.077l1.312,1.312Z" transform="translate(-21.734 -12.02)" fill="#fff"/>
        <path id="Path_605" data-name="Path 605" d="M43.89,74.858V81.11a1.626,1.626,0,0,1-.386,1,1.066,1.066,0,0,1-.309.232,1.551,1.551,0,0,1-1,.309l-5.017-5.017h0l-.849-.849a.641.641,0,0,1-.154-.617l.154-.463-.849-.232A.076.076,0,0,1,35.4,75.4v-.154a1.571,1.571,0,0,1,.463-.54,2.8,2.8,0,0,1,2.007-.849l.463-.54h0a3.8,3.8,0,0,1,1.158-.772h0c.077,0,.154-.077.232-.077a2.894,2.894,0,0,1,1.621,0h.077Z" transform="translate(-15.095 -23.68)" fill="#fff" opacity="0.35"/>
        <path id="Path_606" data-name="Path 606" d="M41.589,84.057c-.232,0-.54-.077-.772-.077a22.622,22.622,0,0,1-2.238-.386l-3.4-3.4h0a.145.145,0,0,1,0-.232l.617-.617-.309-.309h0a.145.145,0,0,1,0-.232L35.8,78.5h.154l.463.463Z" transform="translate(-15.032 -25.083)" fill="#fff" opacity="0.35"/>
        <path id="Path_607" data-name="Path 607" d="M36.046,78.614l-.309.309L35.66,79c-.077,0-.077,0-.077-.077a.145.145,0,0,1,0-.232l.309-.309a.145.145,0,0,1,.232,0A.284.284,0,0,1,36.046,78.614Z" transform="translate(-15.123 -25.044)" fill="#fff"/>
        <path id="Path_608" data-name="Path 608" d="M36.418,79.214,35.337,80.3l-.077.077a.076.076,0,0,1-.077-.077h0a.145.145,0,0,1,0-.232l1.081-1.081a.145.145,0,0,1,.232,0A.284.284,0,0,1,36.418,79.214Z" transform="translate(-15.032 -25.18)" fill="#fff"/>
        <path id="Path_609" data-name="Path 609" d="M36.923,79.583l-.54.54a.145.145,0,0,0,0,.232l.077.077a.076.076,0,0,0,.077-.077l.54-.54a.145.145,0,0,0,0-.232C37.078,79.506,37,79.506,36.923,79.583Z" transform="translate(-15.306 -25.317)" fill="#fff"/>
        <path id="Path_610" data-name="Path 610" d="M40.7,74.509A.978.978,0,0,0,40,74.2a.943.943,0,0,0-.695.309A.978.978,0,0,0,39,75.2a.943.943,0,0,0,.309.695.978.978,0,0,0,.695.309A.943.943,0,0,0,40.7,75.9.978.978,0,0,0,40.7,74.509Zm-.232,1.158a.567.567,0,0,1-.463.154,1.1,1.1,0,0,1-.463-.154.567.567,0,0,1-.154-.463,1.1,1.1,0,0,1,.154-.463A.567.567,0,0,1,40,74.586a1.1,1.1,0,0,1,.463.154A.7.7,0,0,1,40.466,75.667Z" transform="translate(-15.916 -24.103)" fill="#fff"/>
        <path id="Path_611" data-name="Path 611" d="M41.5,72.543h0l-.077-.077h-.077a2.894,2.894,0,0,0-1.621,0c-.077,0-.154.077-.232.077h0a2.371,2.371,0,0,0-1.158.772h0l-.463.54a2.8,2.8,0,0,0-2.007.849c-.154.154-.309.386-.463.54V75.4a.076.076,0,0,0,.077.077l.849.232-.154.463a.6.6,0,0,0,.154.617l.849.849h0a1.1,1.1,0,0,0,.463.154h.232l.463-.154.232.849a.076.076,0,0,0,.077.077H38.8a3.357,3.357,0,0,0,.54-.463,2.8,2.8,0,0,0,.849-2.007l.54-.463h0a3.8,3.8,0,0,0,.772-1.158h0c0-.077.077-.154.077-.232A4.142,4.142,0,0,0,41.5,72.543Zm-5.712,2.7a.6.6,0,0,1,.309-.309,2.22,2.22,0,0,1,1.544-.695l-1.081,1.235Zm.695,1,.154-.386.232.232-.309.463C36.481,76.479,36.4,76.325,36.481,76.248Zm.232.54.309-.463.232.232-.386.386Zm.386.309.386-.386.232.232-.463.309Zm.617.386a.464.464,0,0,1-.309-.077l.463-.309.232.232Zm1.389.463-.309.309-.232-.772L39.8,76.4A2.6,2.6,0,0,1,39.1,77.946ZM40.494,75.4,38.41,77.174l-1.621-1.621,1.235-1.466h0l.54-.617a2.723,2.723,0,0,1,1-.617l1.621,1.621A4.155,4.155,0,0,1,40.494,75.4Zm.772-1.312L39.877,72.7a2.822,2.822,0,0,1,1.389,0A4.2,4.2,0,0,1,41.266,74.087Z" transform="translate(-15.095 -23.68)" fill="#fff"/>
        <path id="Path_612" data-name="Path 612" d="M74.8,69.514h0a30.859,30.859,0,0,1-4.94,5.094c-.077.077-.232.154-.309.232l-4.168-4.168h0l-.077-.077v-.617h0a1.16,1.16,0,0,1-1-1.158V67.97a1.187,1.187,0,0,1,1.158-1.158h1.389v-.154A1.187,1.187,0,0,1,68,65.5h2.238a1.239,1.239,0,0,1,.849.386Z" transform="translate(-21.689 -22.117)" fill="#fff" opacity="0.35"/>
        <path id="Path_613" data-name="Path 613" d="M65.458,70.748h0c-.077,0-.077,0-.077-.077h0l-.077-.077v-.617h0a1.16,1.16,0,0,1-1-1.158V67.97a1.187,1.187,0,0,1,1.158-1.158h1.389v-.154A1.187,1.187,0,0,1,68,65.5h2.238a1.328,1.328,0,0,1,1.235,1.235v.695a1.169,1.169,0,0,1-1,1.158h0V69.2c0,.077,0,.077-.077.154h-.154l-1-.772h-.309v.154A1.187,1.187,0,0,1,67.773,69.9h-1l-1,.772C65.535,70.671,65.535,70.748,65.458,70.748Zm0-3.7a.857.857,0,0,0-.849.849v.849a.857.857,0,0,0,.849.849.166.166,0,0,1,.154.154v.463l.849-.617h1.158a.857.857,0,0,0,.849-.849v-.154h-.386a1.187,1.187,0,0,1-1.158-1.158v-.386Zm2.624-1.312a.857.857,0,0,0-.849.849v.154h.386a1.187,1.187,0,0,1,1.158,1.158v.386h.463l.849.617v-.463a.166.166,0,0,1,.154-.154.857.857,0,0,0,.849-.849v-.849a.857.857,0,0,0-.849-.849Zm-.849,1.7a.857.857,0,0,0,.849.849h.386v-.386a.857.857,0,0,0-.849-.849h-.386Z" transform="translate(-21.689 -22.117)" fill="#fff"/>
        <path id="Path_614" data-name="Path 614" d="M49.928,54.025c0,.269-.135.269-.269.269-.4.269-.942.4-1.346.673-.269.135-.538.135-.673-.269-.135-.673-.538-.942-1.211-.673h-.135c-.807-.135-1.211.135-1.346.942,0,.269-.269.4-.538.269-.538-.135-.942-.4-1.48-.538-.269-.135-.4-.269-.269-.538.269-.807.269-.807-.4-1.48-.538-.538-1.077-.942-1.749-.4a.258.258,0,0,1-.4-.135c-.135-.269-.269-.4-.269-.673-.135-.4-.4-.673-.4-1.077s.538-.4.942-.538c.135-.135.269-.269.135-.4a2.293,2.293,0,0,1,0-1.346c0-.4-.135-.4-.4-.4-.942-.269-.942-.4-.538-1.211,0-.135,0-.135.135-.269.4-1.077.4-1.077,1.48-.673.269,0,.269,0,.4-.135s.269-.4.4-.538c.673-.4.807-.942.269-1.749-.135-.269,0-.4.135-.4.538-.269.942-.4,1.48-.673.269-.135.538-.135.538.269.135.807.673.942,1.346.807h.135c.807.135,1.211-.135,1.346-.942,0-.269.269-.4.538-.269.4.135.942.4,1.48.538.4.135.4.269.269.538-.269.807-.269.807.4,1.48l.135.135a.953.953,0,0,0,1.615.269c.269-.135.4-.135.538.135a15.791,15.791,0,0,0,.673,1.48c.135.269,0,.4-.269.538-.807.135-.942.673-.807,1.346v.135c0,.942,0,.942.807,1.211.269.135.4.269.269.538-.135.4-.4.942-.538,1.346-.135.269-.269.4-.538.269-.673-.4-1.077-.269-1.48.4a.132.132,0,0,1-.135.135.953.953,0,0,0-.269,1.615C49.928,53.891,49.928,54.025,49.928,54.025Zm-.942-11.3c0-.135,0-.135-.135-.269-.4-.135-.673-.269-1.077-.4-.269-.135-.4,0-.4.269,0,.135-.135.269-.135.4-.135.4-.269.538-.673.4a3.314,3.314,0,0,0-1.615.135c-.269.135-.4,0-.538-.269-.4-.807-.4-.807-1.346-.4-.135,0-.269.135-.4.135-.135.135-.269.135-.135.4.135.135.135.269.269.538a.634.634,0,0,1-.135.807,3.144,3.144,0,0,0-.942.942c-.269.538-.538.673-1.077.269q-.606-.4-.807.4c0,.135,0,.135-.135.269-.269.807-.269.807.538,1.077.4.135.538.269.4.673v1.077c.135.942.135.942-.673,1.346-.269.135-.269.269-.135.538a.494.494,0,0,1,.135.4c.4.673.4.807,1.077.4a.634.634,0,0,1,.807.135,3.177,3.177,0,0,0,1.211,1.077.492.492,0,0,1,.269.673c0,.135-.135.269-.135.4-.135.4,0,.538.269.538.135,0,.269.135.4.135.673.269.807.269.942-.538.135-.4.269-.538.673-.4a3.314,3.314,0,0,0,1.615-.135c.269-.135.538,0,.538.269,0,.135.135.269.269.4.135.269.269.4.538.269a.494.494,0,0,1,.4-.135c.807-.4.807-.4.4-1.077a.634.634,0,0,1,.135-.807,3.177,3.177,0,0,0,1.077-1.211c.135-.269.269-.269.538-.135.942.269.942.269,1.346-.673,0-.135,0-.135.135-.269.135-.269,0-.4-.135-.4s-.269-.135-.538-.135c-.4-.135-.4-.269-.4-.673a2.752,2.752,0,0,0,0-1.48c-.135-.4,0-.538.4-.673.807-.269.807-.4.4-1.077v-.135c-.135-.538-.4-.673-.807-.269a.656.656,0,0,1-1.077-.269,1.051,1.051,0,0,0-.538-.538c-.942-.673-1.346-1.211-.807-2.019Z" transform="translate(-20.256 -19.781)" fill="#1664ff"/>
        <path id="Path_630" data-name="Path 630" d="M44.148,47.4c0,.123-.061.123-.123.123-.184.123-.429.184-.613.307-.123.061-.245.061-.307-.123-.061-.307-.245-.429-.552-.307h-.061c-.368-.061-.552.061-.613.429,0,.123-.123.184-.245.123-.245-.061-.429-.184-.675-.245-.123-.061-.184-.123-.123-.245.123-.368.123-.368-.184-.675-.245-.245-.491-.429-.8-.184a.117.117,0,0,1-.184-.061c-.061-.123-.123-.184-.123-.307-.061-.184-.184-.307-.184-.491s.245-.184.429-.245c.061-.061.123-.123.061-.184a1.045,1.045,0,0,1,0-.613c0-.184-.061-.184-.184-.184-.429-.123-.429-.184-.245-.552,0-.061,0-.061.061-.123.184-.491.184-.491.675-.307.123,0,.123,0,.184-.061s.123-.184.184-.245c.307-.184.368-.429.123-.8-.061-.123,0-.184.061-.184.245-.123.429-.184.675-.307.123-.061.245-.061.245.123.061.368.307.429.613.368h.061c.368.061.552-.061.613-.429,0-.123.123-.184.245-.123.184.061.429.184.675.245.184.061.184.123.123.245-.123.368-.123.368.184.675l.061.061a.434.434,0,0,0,.736.123c.123-.061.184-.061.245.061a7.2,7.2,0,0,0,.307.675c.061.123,0,.184-.123.245-.368.061-.429.307-.368.613v.061c0,.429,0,.429.368.552.123.061.184.123.123.245-.061.184-.184.429-.245.613-.061.123-.123.184-.245.123-.307-.184-.491-.123-.675.184a.06.06,0,0,1-.061.061.434.434,0,0,0-.123.736C44.148,47.342,44.148,47.4,44.148,47.4Zm-.429-5.151c0-.061,0-.061-.061-.123-.184-.061-.307-.123-.491-.184-.123-.061-.184,0-.184.123,0,.061-.061.123-.061.184-.061.184-.123.245-.307.184a1.51,1.51,0,0,0-.736.061c-.123.061-.184,0-.245-.123-.184-.368-.184-.368-.613-.184-.061,0-.123.061-.184.061-.061.061-.123.061-.061.184.061.061.061.123.123.245a.289.289,0,0,1-.061.368,1.433,1.433,0,0,0-.429.429c-.123.245-.245.307-.491.123q-.276-.184-.368.184c0,.061,0,.061-.061.123-.123.368-.123.368.245.491.184.061.245.123.184.307V45.2c.061.429.061.429-.307.613-.123.061-.123.123-.061.245a.225.225,0,0,1,.061.184c.184.307.184.368.491.184a.289.289,0,0,1,.368.061,1.448,1.448,0,0,0,.552.491.224.224,0,0,1,.123.307c0,.061-.061.123-.061.184-.061.184,0,.245.123.245.061,0,.123.061.184.061.307.123.368.123.429-.245.061-.184.123-.245.307-.184a1.51,1.51,0,0,0,.736-.061c.123-.061.245,0,.245.123,0,.061.061.123.123.184.061.123.123.184.245.123a.225.225,0,0,1,.184-.061c.368-.184.368-.184.184-.491a.289.289,0,0,1,.061-.368,1.448,1.448,0,0,0,.491-.552c.061-.123.123-.123.245-.061.429.123.429.123.613-.307,0-.061,0-.061.061-.123.061-.123,0-.184-.061-.184s-.123-.061-.245-.061c-.184-.061-.184-.123-.184-.307a1.254,1.254,0,0,0,0-.675c-.061-.184,0-.245.184-.307.368-.123.368-.184.184-.491v-.061c-.061-.245-.184-.307-.368-.123a.3.3,0,0,1-.491-.123.479.479,0,0,0-.245-.245c-.429-.307-.613-.552-.368-.92Z" transform="translate(-6.494 -15.433)" fill="#1664ff"/>
        <path id="Path_617" data-name="Path 617" d="M37.124,42.231a1.194,1.194,0,0,0-.824-.915,1.074,1.074,0,0,0,.824-.915c.183.458.366.824.915.915A1.171,1.171,0,0,0,37.124,42.231Z" transform="translate(-19.529 -22.192)" fill="#1664ff"/>
        <path id="Path_618" data-name="Path 618" d="M57.2,48.6a1.677,1.677,0,0,0,1.7,1.53,2.174,2.174,0,0,0-1.7,1.7,1.982,1.982,0,0,0-1.7-1.7C56.52,50.13,56.86,49.45,57.2,48.6Z" transform="translate(-12.105 -16.831)" fill="#fff"/>
        <path id="Path_619" data-name="Path 619" d="M38.4,51.82c.51-.17.68-.51.85-1.02.17.51.34.85.85.85a1.741,1.741,0,0,0-.85,1.02C39.08,52.16,38.91,51.82,38.4,51.82Z" transform="translate(-24.883 -16.102)" fill="#fff"/>
        <path id="Path_620" data-name="Path 620" d="M53.42,45.3a1.092,1.092,0,0,0,.85.85c-.51.17-.68.51-.85,1.02a1.263,1.263,0,0,0-1.02-1.02A1.343,1.343,0,0,0,53.42,45.3Z" transform="translate(-14.275 -19.142)" fill="#1664ff"/>
        <path id="Path_621" data-name="Path 621" d="M37.72,50.2c-.17-.51-.51-.68-1.02-.85.51-.17.85-.34,1.02-.85.17.51.51.68,1.02.85C38.23,49.52,37.89,49.69,37.72,50.2Z" transform="translate(-25.263 -16.902)" fill="#fff"/>
        <path id="Path_622" data-name="Path 622" d="M53.4,44.42a1.077,1.077,0,0,0,.85-1.02c.34.34.34.85,1.02.85-.51.34-.85.51-.85,1.02A1.342,1.342,0,0,0,53.4,44.42Z" transform="translate(-13.575 -20.471)" fill="#1664ff"/>
        <path id="Path_623" data-name="Path 623" d="M41.07,51.82c-.51.17-.68.51-.85,1.02a1.263,1.263,0,0,0-1.02-1.02,1.532,1.532,0,0,0,1.02-1.02C40.39,51.31,40.56,51.65,41.07,51.82Z" transform="translate(-21.892 -13.266)" fill="#fff"/>
        <path id="Path_624" data-name="Path 624" d="M57.22,43c.17.68.34.85.85,1.02a1.092,1.092,0,0,0-.85.85c-.34-.34-.34-.85-1.02-.85A1.263,1.263,0,0,0,57.22,43Z" transform="translate(-11.615 -20.752)" fill="#1664ff"/>
        <path id="Path_625" data-name="Path 625" d="M50.55,45.07c-.17-.51-.34-.85-.85-.85a1.741,1.741,0,0,0,.85-1.02,1.092,1.092,0,0,0,.85.85A1.654,1.654,0,0,0,50.55,45.07Z" transform="translate(-16.165 -20.612)" fill="#a8ddfd"/>
        <path id="Path_626" data-name="Path 626" d="M49.95,41.2a.8.8,0,0,1,.85.85.911.911,0,0,1-.85.85.85.85,0,0,1,0-1.7Zm0,1.36a.51.51,0,1,0-.51-.51A.451.451,0,0,0,49.95,42.56Z" transform="translate(-16.584 -22.011)" fill="#078cb1"/>
        <path id="Path_627" data-name="Path 627" d="M47.648,47.492a2.555,2.555,0,0,1-2.557,2.557,2.625,2.625,0,1,1,2.557-2.557Zm-.4,0A2.268,2.268,0,0,0,44.957,45.2a2.358,2.358,0,0,0-2.288,2.288,2.243,2.243,0,0,0,2.153,2.288A2.387,2.387,0,0,0,47.245,47.492Z" transform="translate(-19.188 -18.765)" fill="#436685"/>
        <path id="Path_631" data-name="Path 631" d="M44.791,46.026a1.164,1.164,0,0,1-1.165,1.165,1.2,1.2,0,1,1,1.165-1.165Zm-.184,0a1.034,1.034,0,0,0-1.042-1.042,1.075,1.075,0,0,0-1.042,1.042,1.022,1.022,0,0,0,.981,1.042A1.088,1.088,0,0,0,44.607,46.026Z" transform="translate(-7.69 -16.571)" fill="#436685"/>
      </g>
    </g>
  </g>
</svg>
