<svg xmlns="http://www.w3.org/2000/svg" width="130" height="216.793" viewBox="0 0 130 216.793">
<defs><style>
        @import url('https://fonts.googleapis.com/css2?family=Roboto+Condensed:wght@300;400&amp;display=swap');
        </style></defs>
  <g id="Group_810" data-name="Group 810" transform="translate(0)">
    <g id="Group_621" data-name="Group 621" transform="translate(0 0)">
      <text style="text-align: center;font-weight:400; font-family:Roboto Condensed" id="Technical_Skills_vocational_training_Development_Certification" data-name="Technical
Skills
vocational
training
Development &amp;
Certification" transform="translate(0 101.793)" fill="#0054a5" font-size="19" font-family="RobotoCondensed-Regular, Roboto"><tspan x="0" y="0">TECHNICAL</tspan><tspan x="0" y="22">SKILLS</tspan><tspan x="0" y="44">VOCATIONAL</tspan><tspan x="0" y="66">TRAINING</tspan><tspan x="0" y="88">DEVELOPMENT &amp;</tspan><tspan x="0" y="110">CERTIFICATION</tspan></text>
      <g id="Group_816" data-name="Group 816">
        <path id="Path_500" data-name="Path 500" d="M153.128,127.761a1.115,1.115,0,0,0,.987.6h5.7C157.8,140.587,146.326,148.11,136.5,148.11a24.823,24.823,0,0,1-18.885-9.578,1.113,1.113,0,1,0-1.764,1.359,27.268,27.268,0,0,0,9.458,7.714,25.422,25.422,0,0,0,11.19,2.732,26.525,26.525,0,0,0,16.385-6.075,25.35,25.35,0,0,0,9.182-15.9h6.3a1.114,1.114,0,0,0,.917-1.746l-7.129-10.332a1.115,1.115,0,0,0-1.834,0L153.2,126.61a1.113,1.113,0,0,0-.07,1.15Zm8.116-8.888,5.008,7.257H156.236Zm0,0" transform="translate(-97.227 -97.384)" fill="#1664ff"/>
        <path id="Path_501" data-name="Path 501" d="M47.473,34.131a1.114,1.114,0,0,0,1.834,0L56.436,23.8a1.114,1.114,0,0,0-.917-1.746h-5.7C51.831,9.824,63.309,2.3,73.129,2.3a24.82,24.82,0,0,1,18.885,9.578,1.114,1.114,0,1,0,1.765-1.36A27.274,27.274,0,0,0,84.32,2.806,25.423,25.423,0,0,0,73.129.074,26.524,26.524,0,0,0,56.744,6.148a25.347,25.347,0,0,0-9.181,15.9h-6.3a1.114,1.114,0,0,0-.916,1.746ZM53.4,24.28,48.39,31.537,43.382,24.28Zm0,0" transform="translate(-33.758 -0.074)" fill="#1664ff"/>
        <path id="Path_502" data-name="Path 502" d="M184.925,116.789a9.76,9.76,0,0,0,2.68,6.939,6.4,6.4,0,0,1,1.753,4.241,1.114,1.114,0,0,0,.127,2.22H200.16a1.114,1.114,0,0,0,.014-2.228,6.145,6.145,0,0,1,1.8-4.207,9.875,9.875,0,1,0-17.052-6.966Zm9.767-7.506a7.671,7.671,0,0,1,5.665,12.943,8.4,8.4,0,0,0-2.407,5.734h-6.366a8.649,8.649,0,0,0-2.367-5.77,7.544,7.544,0,0,1-2.065-5.367A7.821,7.821,0,0,1,194.692,109.283Zm0,0" transform="translate(-155.499 -90.07)" fill="#a8ddfd"/>
        <path id="Path_503" data-name="Path 503" d="M220.759,261.508a1.114,1.114,0,0,0,0,2.228h6.524a1.114,1.114,0,0,0,0-2.228Zm0,0" transform="translate(-184.697 -219.911)" fill="#1664ff"/>
        <path id="Path_504" data-name="Path 504" d="M240.974,62.184V58.551a1.114,1.114,0,1,0-2.228,0v3.633a1.114,1.114,0,0,0,2.228,0Zm0,0" transform="translate(-200.758 -48.31)" fill="#1664ff"/>
        <path id="Path_505" data-name="Path 505" d="M296.769,93.331l2.668-2.52a1.114,1.114,0,0,0-1.53-1.62l-2.669,2.521a1.114,1.114,0,1,0,1.53,1.619Zm0,0" transform="translate(-247.97 -74.756)" fill="#1664ff"/>
        <path id="Path_506" data-name="Path 506" d="M170.563,86.687a1.114,1.114,0,0,0-1.586,1.564l2.558,2.595a1.114,1.114,0,1,0,1.586-1.564Zm0,0" transform="translate(-141.825 -72.632)" fill="#1664ff"/>
        <path id="Path_507" data-name="Path 507" d="M227.834,391.471a1.114,1.114,0,0,0-1.576,0l-1.2,1.2-1.2-1.2a1.114,1.114,0,1,0-1.575,1.575l1.2,1.2-1.2,1.2a1.114,1.114,0,1,0,1.575,1.576l1.2-1.2,1.2,1.2a1.114,1.114,0,1,0,1.576-1.576l-1.2-1.2,1.2-1.2A1.115,1.115,0,0,0,227.834,391.471Zm0,0" transform="translate(-186.647 -328.921)" fill="#a8ddfd"/>
        <path id="Path_508" data-name="Path 508" d="M41.465,391.533l-3.479,3.187-1.517-1.645a1.114,1.114,0,1,0-1.638,1.51l2.27,2.461a1.113,1.113,0,0,0,1.571.066l4.3-3.936a1.114,1.114,0,0,0-1.5-1.643Zm0,0" transform="translate(-29.041 -329.002)" fill="#a8ddfd"/>
        <path id="Path_509" data-name="Path 509" d="M68.753,348.469a9.886,9.886,0,0,0-9.682,7.957l-10.97.04a9.868,9.868,0,0,0-19.37-.043h-9.16a9.878,9.878,0,1,0,.18,2.228h8.8a9.866,9.866,0,0,0,19.722.042l10.619-.038a9.868,9.868,0,1,0,9.861-10.186ZM9.89,365.98a7.642,7.642,0,1,1,7.642-7.642A7.642,7.642,0,0,1,9.89,365.98Zm28.522,0a7.642,7.642,0,1,1,7.641-7.642A7.642,7.642,0,0,1,38.413,365.98Zm30.34,0a7.642,7.642,0,1,1,7.641-7.642A7.642,7.642,0,0,1,68.753,365.98Zm0,0" transform="translate(0.002 -293.018)" fill="#8a8a8a"/>
        <path id="Path_510" data-name="Path 510" d="M411.413,391.533l-3.479,3.187-1.516-1.645a1.114,1.114,0,1,0-1.638,1.51l2.269,2.461a1.114,1.114,0,0,0,1.571.066l4.3-3.936a1.114,1.114,0,1,0-1.5-1.643Zm0,0" transform="translate(-340.127 -329.002)" fill="#a8ddfd"/>
      </g>
    </g>
  </g>
</svg>
