<svg xmlns="http://www.w3.org/2000/svg" width="135" height="120.989" viewBox="0 0 135 120.989">
<defs><style>
        @import url('https://fonts.googleapis.com/css2?family=Roboto+Condensed:wght@300;400&amp;display=swap');
        </style></defs>
  <g id="Group_813" data-name="Group 813" transform="translate(-0.028 1.501)">
    <g id="Group_623" data-name="Group 623" transform="translate(0 0)">
      <text style="text-align: center;font-weight:400; font-family:Roboto Condensed" id="COMMUNICATION_SKILLS" data-name="COMMUNICATION
SKILLS" transform="translate(0.028 92.488)" fill="#0054a5" font-size="19" font-family="RobotoCondensed-Regular, Roboto"><tspan x="0" y="0">COMMUNICATION</tspan><tspan x="0" y="22">SKILLS</tspan></text>
      <g id="Group_819" data-name="Group 819" transform="translate(6.521 0)">
        <path id="Path_417" data-name="Path 417" d="M37.7,70.085a33.045,33.045,0,1,1,33-32.62A33.032,33.032,0,0,1,37.7,70.085Z" transform="translate(-4.686 -3.997)" fill="none" stroke="#679cfc" stroke-width="3"/>
        <path id="Path_418" data-name="Path 418" d="M45.2,50.224v6.924c0,.385.077.539.462.539H56.893a.988.988,0,0,1,.769.308c1.539,1.539,3.077,3.077,4.539,4.616.077.077.154.231.308.231.154-.077.077-.231.077-.308V58.148c0-.308.077-.462.462-.385h1.385A3.448,3.448,0,0,0,67.894,54.3V43.685A3.415,3.415,0,0,0,64.509,40.3H48.661A3.5,3.5,0,0,0,45.2,43.762C45.276,45.839,45.2,47.993,45.2,50.224Z" transform="translate(-14.032 -12.37)" fill="#679cfc"/>
        <path id="Path_419" data-name="Path 419" d="M45.741,62.248h-5.77c-.539,0-.539,0-.539-.539V51.862c0-.385-.077-.462-.462-.462H32.662A3.448,3.448,0,0,0,29.2,54.862V65.248a3.482,3.482,0,0,0,3.539,3.539h1.308c.308,0,.462.077.462.462v4.308c0,.154-.077.308.077.385s.231-.154.308-.231l4.539-4.539a1.235,1.235,0,0,1,.846-.385h8.309a3.558,3.558,0,0,0,3.385-3.231V62.4c0-.231-.077-.308-.308-.308C49.741,62.248,47.741,62.248,45.741,62.248Z" transform="translate(-10.341 -14.932)" fill="#a8ddfd"/>
        <path id="Path_420" data-name="Path 420" d="M30.87,36.6H25.023A1.781,1.781,0,0,0,23.1,38.369v6a1.7,1.7,0,0,0,1.923,1.769h.846c.231,0,.308.077.308.308v1.846c0,.154-.077.308.077.308.077.077.154-.077.308-.154.923-.692,1.923-1.385,2.847-2.077a1.3,1.3,0,0,1,.769-.231h6.539a1.743,1.743,0,0,0,1.923-1.923V38.677A1.836,1.836,0,0,0,36.563,36.6Z" transform="translate(-8.934 -11.518)" fill="#1664ff"/>
        <path id="Path_421" data-name="Path 421" d="M44.816,26.9A1.428,1.428,0,0,0,43.2,28.516v4.308a1.415,1.415,0,0,0,1.539,1.539h5.078a1.023,1.023,0,0,1,.615.231c.692.539,1.462,1.077,2.231,1.616.077.077.154.154.231.077a.283.283,0,0,0,.077-.231V34.67c0-.154.077-.308.231-.231h.615a1.315,1.315,0,0,0,1.462-1.385V28.362a1.354,1.354,0,0,0-1.462-1.385H49.278C47.739,26.9,46.277,26.9,44.816,26.9Z" transform="translate(-13.57 -9.279)" fill="#679cfc"/>
        <path id="Path_422" data-name="Path 422" d="M27.716,22.3A1.428,1.428,0,0,0,26.1,23.916v4.308a1.415,1.415,0,0,0,1.539,1.539h5.078a1.023,1.023,0,0,1,.615.231c.692.539,1.462,1.077,2.231,1.616.077.077.154.154.231.077a.283.283,0,0,0,.077-.231V30.07c0-.154.077-.308.231-.231h.615a1.315,1.315,0,0,0,1.462-1.385V23.762a1.354,1.354,0,0,0-1.462-1.385H32.178C30.639,22.3,29.177,22.3,27.716,22.3Z" transform="translate(-9.626 -8.219)" fill="#b3e1fd"/>
      </g>
    </g>
  </g>
</svg>
