<svg xmlns="http://www.w3.org/2000/svg" xmlns:xlink="http://www.w3.org/1999/xlink" viewBox="0 0 281 249">
  <defs><style>
        @import url('https://fonts.googleapis.com/css2?family=Roboto+Condensed:wght@300;400&amp;display=swap');
        </style>
    <filter id="Rectangle_391" x="0" y="0" width="281" height="249" filterUnits="userSpaceOnUse">
      <feOffset dy="3" input="SourceAlpha"/>
      <feGaussianBlur stdDeviation="3" result="blur"/>
      <feFlood flood-color="#95b2bb"/>
      <feComposite operator="in" in2="blur"/>
      <feComposite in="SourceGraphic"/>
    </filter>
  </defs>
  <g id="Group_667" data-name="Group 667" transform="translate(-270 -9015)">
    <g transform="matrix(1, 0, 0, 1, 270, 9015)" filter="url(#Rectangle_391)">
      <path id="Rectangle_391-2" data-name="Rectangle 391" d="M2,0H227a36,36,0,0,1,36,36V195a36,36,0,0,1-36,36H36A36,36,0,0,1,0,195V2A2,2,0,0,1,2,0Z" transform="translate(9 6)" fill="#fff"/>
    </g>
    <g id="Group_634" data-name="Group 634" transform="translate(-2678 1137.273)">
      <text style="text-align: center;font-weight:400; font-family:Roboto Condensed" id="Recruit_and_retain_the_best_candidates" data-name="Recruit and retain
the best candidates" transform="translate(3083 8064)" fill="#0054a5" font-size="15" font-family="RobotoCondensed-Regular, Roboto"><tspan x="-64.493" y="0">RECRUIT AND RETAIN</tspan><tspan x="-69.456" y="17">THE BEST CANDIDATES</tspan></text>
      <g id="RR-01" transform="translate(3037 7926.727)">
        <path id="Path_811" data-name="Path 811" d="M45.607,67.168a15.578,15.578,0,0,0-3.954,3.268c-.437.536-.661,0-.886-.15a48.431,48.431,0,0,1-9.6-10.365,54.979,54.979,0,0,1-8.843-24.2,93.409,93.409,0,0,1-.686-13.6c0-4.852,2.781-7.883,7.621-8.319A47.4,47.4,0,0,0,44.8,10.031a47.4,47.4,0,0,0,6.536-3.679A8.2,8.2,0,0,1,61,6.464a37.992,37.992,0,0,0,16.214,6.685c1.958.287,3.929.461,5.887.674a7.484,7.484,0,0,1,7.06,7.434c0,12.148-2.22,23.785-8.269,34.487a54.53,54.53,0,0,1-12.822,15.2c-.424.349-.674.5-1.085-.062A12.086,12.086,0,0,0,66.4,69.176c-.574-.536-1.247-1-1.871-1.522.848-.736,1.721-1.459,2.569-2.22A51.138,51.138,0,0,0,82.875,38.269a75.334,75.334,0,0,0,1.883-16.115c0-1.958-.661-2.769-2.594-2.944a50.863,50.863,0,0,1-14.83-3.131,42.332,42.332,0,0,1-9.068-4.9,3.343,3.343,0,0,0-4.365,0,45.575,45.575,0,0,1-17.773,7.234c-2.2.4-4.4.624-6.61.836a2.295,2.295,0,0,0-2.42,2.495,68.6,68.6,0,0,0,3.068,24.1A43.654,43.654,0,0,0,45.607,67.168Z" transform="translate(-9.471 -4.83)" fill="#1664ff"/>
        <path id="Path_812" data-name="Path 812" d="M54.01,80.005a39.91,39.91,0,0,0,1.958-5.388c.312-1.048.611-2.1.861-3.156.112-.5.349-.561.773-.461,3.293.848,6.586,1.671,9.866,2.495a3.23,3.23,0,0,1,2.2,2.245,20.043,20.043,0,0,1,1,6.3c.075,1.472.062,1.5-1.322,2a39.514,39.514,0,0,1-9.666,2.046,75.811,75.811,0,0,1-15.416,0,37.905,37.905,0,0,1-10.2-2.283.948.948,0,0,1-.7-1.135,25.17,25.17,0,0,1,.886-6.536,3.742,3.742,0,0,1,2.931-2.806c3.068-.736,6.112-1.534,9.167-2.32.536-.137.773,0,.9.536a74.133,74.133,0,0,0,2.495,7.845,1.509,1.509,0,0,0,.374.649c.237-1.846.486-3.742.686-5.55a3.053,3.053,0,0,0-.424-1.147c-.4-.873-.075-1.434.873-1.459h1.9c.649,0,1.085.649.8,1.085-.948,1.5-.312,3.018-.2,4.528A18.321,18.321,0,0,0,54.01,80.005Z" transform="translate(-6.573 11.519)" fill="#1664ff"/>
        <path id="Path_813" data-name="Path 813" d="M28.569,80.042c.2-1.547.387-3.018.611-4.478a3.393,3.393,0,0,0-.337-2.233c-.449-.823-.062-1.422.886-1.434h1.746c.811,0,1.247.649.848,1.322a3.829,3.829,0,0,0-.337,2.594c.225,1.409.387,2.831.723,4.278.586-1.771,1.247-3.517,1.746-5.288.349-1.11.649-2.245.923-3.368.112-.437.324-.549.723-.449l3.006.773c0,.287-.249.3-.387.4a5.987,5.987,0,0,0-2.07,2.756,23.7,23.7,0,0,0-1.185,8.456,2.357,2.357,0,0,0,1.409,2.145c.237.125.412.287.349.549s-.324.175-.5.187a70.782,70.782,0,0,1-18.647-.861A27.99,27.99,0,0,1,12.5,83.771c-.312-.125-.649-.225-.624-.686a23.536,23.536,0,0,1,1.048-7.321,3.442,3.442,0,0,1,2.495-2.345c3.131-.761,6.236-1.572,9.379-2.382.561-.15.8,0,.948.561a76.816,76.816,0,0,0,2.495,7.783A.647.647,0,0,0,28.569,80.042Z" transform="translate(-11.878 11.519)" fill="#dad5d3"/>
        <path id="Path_814" data-name="Path 814" d="M73.5,80.035a56.935,56.935,0,0,0,2.582-7.608c.412-1.572.412-1.584,2-1.172,2.819.711,5.638,1.459,8.469,2.133a3.5,3.5,0,0,1,2.632,2.495,16.338,16.338,0,0,1,.886,4.627,12.153,12.153,0,0,0,.15,2.332.848.848,0,0,1-.636.985,36.932,36.932,0,0,1-9.167,2.145,75.685,75.685,0,0,1-14.842.3c-.237,0-.561.087-.661-.287s.249-.424.449-.549A2.345,2.345,0,0,0,66.6,83.353a27.664,27.664,0,0,0-.811-7.284A6.573,6.573,0,0,0,62.75,71.8l3.405-.8c.486-.125.486.274.549.561.686,2.707,1.547,5.363,2.495,7.982a1.247,1.247,0,0,0,.324.524c.249-1.821.5-3.642.711-5.475a3.638,3.638,0,0,0-.437-1.247c-.387-.873,0-1.434.886-1.447h1.9a.8.8,0,0,1,.761,1.172,4.727,4.727,0,0,0-.3,3.43C73.19,77.69,73.339,78.862,73.5,80.035Z" transform="translate(0.701 11.526)" fill="#dad5d3"/>
        <path id="Path_815" data-name="Path 815" d="M57.656,60.374a20.779,20.779,0,0,1-1.858,8.17,10.377,10.377,0,0,1-2.495,3.5,4.989,4.989,0,0,1-6.922-.1,13.059,13.059,0,0,1-3.305-5.725,22.164,22.164,0,0,1-.985-6.748A6.86,6.86,0,0,1,48.5,52.529a9.9,9.9,0,0,1,4.515.412,6.573,6.573,0,0,1,4.69,6.561Z" transform="translate(-4.408 6.94)" fill="#1664ff"/>
        <path id="Path_816" data-name="Path 816" d="M35.974,60.615A21.8,21.8,0,0,1,34.19,68.36,10.889,10.889,0,0,1,31.546,72.1a4.989,4.989,0,0,1-6.922-.125,14.456,14.456,0,0,1-3.742-7.421,19.731,19.731,0,0,1-.5-5.276,6.823,6.823,0,0,1,6.411-6.723,9.978,9.978,0,0,1,4.453.412,6.6,6.6,0,0,1,4.74,6.511Z" transform="translate(-9.779 6.949)" fill="#dad5d3"/>
        <path id="Path_817" data-name="Path 817" d="M63.292,59.98a7.87,7.87,0,0,1,.2-2.233,6.349,6.349,0,0,1,4.428-4.765,9.554,9.554,0,0,1,6.236-.087,6.236,6.236,0,0,1,4.74,5.737,18.185,18.185,0,0,1-2.856,11.724A5.924,5.924,0,0,1,72.3,73.238a4.989,4.989,0,0,1-4.7-1.247,13.982,13.982,0,0,1-3.654-6.985,19.432,19.432,0,0,1-.649-5.026Z" transform="translate(0.832 6.936)" fill="#dad5d3"/>
        <path id="Path_818" data-name="Path 818" d="M50.872,30.287a9.3,9.3,0,0,1-1.547-18.459,9.2,9.2,0,0,1,6.835,1.5.811.811,0,0,1,.461.861c-.1.574-.674.773-1.247.4a7.833,7.833,0,1,0,3.056,4.141,1.467,1.467,0,0,0-.125-.374.723.723,0,0,1,.474-.91.711.711,0,0,1,.923.474,8.956,8.956,0,0,1,.5,2.22,9.317,9.317,0,0,1-9.33,10.153Z" transform="translate(-4.509 -3.134)" fill="#1664ff"/>
        <path id="Path_819" data-name="Path 819" d="M50.807,23.8a1.372,1.372,0,0,1-1.11-.649c-.935-1.247-1.846-2.594-2.756-3.9a.636.636,0,0,1,0-.935.686.686,0,0,1,.985,0c.8.674,1.621,1.335,2.407,2.033.249.212.374.212.6,0q2.694-3.131,5.413-6.236c.2-.237.412-.449.611-.674a.561.561,0,0,1,.836-.1.6.6,0,0,1,.125.886c-.649,1-1.247,2-1.971,2.981L52.092,23A1.6,1.6,0,0,1,50.807,23.8Z" transform="translate(-3.259 -2.762)" fill="#1664ff"/>
        <path id="Path_820" data-name="Path 820" d="M51.449,56.889H49.566a8.731,8.731,0,0,1-8.656-8.731V36.11h5.1V48.221a3.58,3.58,0,0,0,3.567,3.567h1.883a3.567,3.567,0,0,0,3.567-3.567V36.11h5.1V48.221a8.731,8.731,0,0,1-8.681,8.668Z" transform="translate(-4.699 2.904)" fill="#2e3e50"/>
        <path id="Path_821" data-name="Path 821" d="M53.8,36.11V48.221a3.567,3.567,0,0,1-3.567,3.567H48.346a3.567,3.567,0,0,1-3.567-3.567V36.11H39.69V48.221a8.731,8.731,0,0,0,8.656,8.731h1.883a8.731,8.731,0,0,0,8.656-8.731V36.11Z" transform="translate(-5.001 2.904)" fill="#57a4ff"/>
        <rect id="Rectangle_106" data-name="Rectangle 106" width="5.089" height="6.199" transform="translate(36.211 36.17)" fill="#bababa"/>
        <rect id="Rectangle_107" data-name="Rectangle 107" width="5.089" height="6.199" transform="translate(34.689 36.17)" fill="#a8ddfd"/>
        <rect id="Rectangle_108" data-name="Rectangle 108" width="5.089" height="6.199" transform="translate(50.317 36.17)" fill="#bababa"/>
        <rect id="Rectangle_109" data-name="Rectangle 109" width="5.089" height="6.199" transform="translate(48.796 36.17)" fill="#a8ddfd"/>
        <path id="Path_822" data-name="Path 822" d="M58.6,23.547a.511.511,0,1,1-.227-.509A.511.511,0,0,1,58.6,23.547Z" transform="translate(-0.576 -0.348)" fill="#1664ff"/>
        <path id="Path_823" data-name="Path 823" d="M36.313,26.1a.511.511,0,1,1-.5-.5A.5.5,0,0,1,36.313,26.1Z" transform="translate(-6.089 0.305)" fill="#1664ff"/>
        <path id="Path_824" data-name="Path 824" d="M61.368,25.863a1.646,1.646,0,0,0-.935.935,1.621,1.621,0,0,0-.923-.935,1.6,1.6,0,0,0,.923-.923,1.621,1.621,0,0,0,.935.923Z" transform="translate(-0.1 0.142)" fill="#1664ff"/>
        <path id="Path_825" data-name="Path 825" d="M39.158,22.725a1.584,1.584,0,0,0-.923.935,1.609,1.609,0,0,0-.935-.935,1.646,1.646,0,0,0,.935-.935A1.621,1.621,0,0,0,39.158,22.725Z" transform="translate(-5.592 -0.637)" fill="#1664ff"/>
        <path id="Path_826" data-name="Path 826" d="M52.715,33.549H51.73V29.134l2.544.362,2.17-4.365.873.424-2.482,5.014-2.12-.3Z" transform="translate(-2.024 0.189)" fill="#1664ff"/>
        <path id="Path_827" data-name="Path 827" d="M54.21,33.408l.636-1.572,2.008-.05,3.293-3.767" transform="translate(-1.411 0.904)" fill="#a7a9ac"/>
        <path id="Path_828" data-name="Path 828" d="M54.761,33.647l-.911-.362.761-1.871,2.108-.05,3.156-3.6.736.649-3.442,3.929-1.9.037Z" transform="translate(-1.5 0.84)" fill="#1664ff"/>
        <path id="Path_829" data-name="Path 829" d="M44.6,33.549h-.973v-3.28l-2.12.3L39.01,25.554l.873-.424L42.066,29.5l2.532-.362Z" transform="translate(-5.169 0.189)" fill="#1664ff"/>
        <path id="Path_830" data-name="Path 830" d="M42.185,33.408l-.636-1.572-2-.05L36.26,28.02" transform="translate(-5.849 0.904)" fill="#a7a9ac"/>
        <path id="Path_831" data-name="Path 831" d="M41.81,33.647,41.3,32.375l-1.9-.037L35.96,28.409l.736-.649,3.156,3.6,2.108.05.761,1.871Z" transform="translate(-5.923 0.84)" fill="#1664ff"/>
      </g>
    </g>
  </g>
</svg>
