<svg xmlns="http://www.w3.org/2000/svg" xmlns:xlink="http://www.w3.org/1999/xlink" viewBox="0 0 281 249">
  <defs>
    <filter id="Rectangle_392" x="0" y="0" width="281" height="249" filterUnits="userSpaceOnUse">
      <feOffset dy="3" input="SourceAlpha"/>
      <feGaussianBlur stdDeviation="3" result="blur"/>
      <feFlood flood-color="#95b2bb"/>
      <feComposite operator="in" in2="blur"/>
      <feComposite in="SourceGraphic"/>
    </filter>
  </defs>
  <g id="Group_1072" data-name="Group 1072" transform="translate(-368)">
    <g transform="matrix(1, 0, 0, 1, 368, 0)" filter="url(#Rectangle_392)">
      <path id="Rectangle_392-2" data-name="Rectangle 392" d="M2,0H227a36,36,0,0,1,36,36V195a36,36,0,0,1-36,36H36A36,36,0,0,1,0,195V2A2,2,0,0,1,2,0Z" transform="translate(9 6)" fill="#fff"/>
    </g>
    <g id="Group_1071" data-name="Group 1071">
      <path id="Path_4762" data-name="Path 4762" d="M-75.809-2.681a1.752,1.752,0,0,0-.417-1.2A3.657,3.657,0,0,0-77.7-4.746a6.043,6.043,0,0,1-2.307-1.208,2.546,2.546,0,0,1-.806-1.97A2.7,2.7,0,0,1-79.922-10a3.243,3.243,0,0,1,2.281-.817,3.179,3.179,0,0,1,2.373.908A3.018,3.018,0,0,1-74.4-7.632l-.015.044h-1.428a2.242,2.242,0,0,0-.5-1.516,1.646,1.646,0,0,0-1.311-.579,1.544,1.544,0,0,0-1.227.5,1.823,1.823,0,0,0-.436,1.245,1.545,1.545,0,0,0,.461,1.15,4.449,4.449,0,0,0,1.553.857,5.463,5.463,0,0,1,2.219,1.245A2.71,2.71,0,0,1-74.323-2.7a2.6,2.6,0,0,1-.9,2.076,3.481,3.481,0,0,1-2.355.773,3.79,3.79,0,0,1-2.446-.835,2.8,2.8,0,0,1-1-2.4l.015-.044h1.436A2.107,2.107,0,0,0-79-1.5a2.012,2.012,0,0,0,1.425.535,1.76,1.76,0,0,0,1.3-.465A1.68,1.68,0,0,0-75.809-2.681Zm9.529-6.841h-2.827V0H-70.6V-9.521h-2.805v-1.143h7.126Zm2.754,4.929V0h-1.487V-10.657h3.142a3.35,3.35,0,0,1,2.377.784,2.927,2.927,0,0,1,.839,2.249,2.7,2.7,0,0,1-.392,1.461,2.583,2.583,0,0,1-1.124.97,2.041,2.041,0,0,1,1.183.923,3.218,3.218,0,0,1,.363,1.6v.93a4.182,4.182,0,0,0,.1.916,1.283,1.283,0,0,0,.337.659V0h-1.531a1.268,1.268,0,0,1-.326-.736,6.64,6.64,0,0,1-.077-1.022v-.9a2.209,2.209,0,0,0-.414-1.414,1.384,1.384,0,0,0-1.146-.52Zm0-1.135h1.582a1.746,1.746,0,0,0,1.362-.487A1.99,1.99,0,0,0-60.143-7.6a2.133,2.133,0,0,0-.428-1.421,1.61,1.61,0,0,0-1.3-.505h-1.655ZM-55.052,0h-1.487V-10.664h1.487Zm9.331,0h-1.494l-4.131-7.866-.044.015V0h-1.487V-10.664h1.487L-47.26-2.82l.044-.007v-7.837h1.494Zm8.84-1.392A3.292,3.292,0,0,1-38.093-.315a4.331,4.331,0,0,1-2.142.469A3.646,3.646,0,0,1-42.927-.864a3.915,3.915,0,0,1-1.022-2.9V-6.929A3.95,3.95,0,0,1-42.96-9.8a3.5,3.5,0,0,1,2.629-1.018,3.485,3.485,0,0,1,2.5.835,2.915,2.915,0,0,1,.85,2.285L-37-7.654h-1.4a2.124,2.124,0,0,0-.487-1.49A1.827,1.827,0,0,0-40.3-9.675a1.933,1.933,0,0,0-1.578.7,3.131,3.131,0,0,0-.575,2.032v3.179a3.162,3.162,0,0,0,.6,2.076,2,2,0,0,0,1.622.714,2.623,2.623,0,0,0,1.2-.234,1.608,1.608,0,0,0,.656-.571V-4.263h-1.963V-5.347h3.457Zm7.075-3.56h-3.618v3.823h4.263V0h-5.75V-10.664H-29.2v1.143h-4.226v3.435h3.618ZM-20.511,0h-1.494l-4.131-7.866-.044.015V0h-1.487V-10.664h1.487L-22.05-2.82l.044-.007v-7.837h1.494Zm8.2-9.521h-2.827V0H-16.63V-9.521h-2.805v-1.143h7.126Zm6.05,4.929V0H-7.745V-10.657H-4.6a3.35,3.35,0,0,1,2.377.784,2.927,2.927,0,0,1,.839,2.249A2.7,2.7,0,0,1-1.78-6.163a2.583,2.583,0,0,1-1.124.97,2.041,2.041,0,0,1,1.183.923,3.218,3.218,0,0,1,.363,1.6v.93a4.182,4.182,0,0,0,.1.916,1.283,1.283,0,0,0,.337.659V0H-2.457a1.268,1.268,0,0,1-.326-.736A6.64,6.64,0,0,1-2.86-1.758v-.9a2.209,2.209,0,0,0-.414-1.414,1.384,1.384,0,0,0-1.146-.52Zm0-1.135h1.582a1.746,1.746,0,0,0,1.362-.487A1.99,1.99,0,0,0-2.875-7.6,2.133,2.133,0,0,0-3.3-9.016a1.61,1.61,0,0,0-1.3-.505H-6.259ZM5.7-4.951H2.084v3.823H6.346V0H.6V-10.664H6.31v1.143H2.084v3.435H5.7Zm8.811,1.743.015.044a3.144,3.144,0,0,1-.879,2.446,3.458,3.458,0,0,1-2.5.872A3.393,3.393,0,0,1,8.536-.9a4.174,4.174,0,0,1-.974-2.948V-6.8a4.245,4.245,0,0,1,.959-2.952A3.3,3.3,0,0,1,11.1-10.818a3.614,3.614,0,0,1,2.549.846A3.118,3.118,0,0,1,14.535-7.5l-.015.044H13.092a2.414,2.414,0,0,0-.5-1.681A1.938,1.938,0,0,0,11.1-9.675a1.763,1.763,0,0,0-1.516.736,3.558,3.558,0,0,0-.535,2.113v2.981A3.532,3.532,0,0,0,9.6-1.714a1.82,1.82,0,0,0,1.553.74,1.864,1.864,0,0,0,1.45-.531,2.485,2.485,0,0,0,.483-1.7Zm3.105-1.384V0H16.132V-10.657h3.142a3.35,3.35,0,0,1,2.377.784,2.927,2.927,0,0,1,.839,2.249A2.7,2.7,0,0,1,22.1-6.163a2.583,2.583,0,0,1-1.124.97,2.041,2.041,0,0,1,1.183.923,3.218,3.218,0,0,1,.363,1.6v.93a4.182,4.182,0,0,0,.1.916,1.283,1.283,0,0,0,.337.659V0H21.42a1.268,1.268,0,0,1-.326-.736,6.64,6.64,0,0,1-.077-1.022v-.9A2.209,2.209,0,0,0,20.6-4.072a1.384,1.384,0,0,0-1.146-.52Zm0-1.135H19.2a1.746,1.746,0,0,0,1.362-.487A1.99,1.99,0,0,0,21-7.6a2.133,2.133,0,0,0-.428-1.421,1.61,1.61,0,0,0-1.3-.505H17.618Zm13.835-4.937v7.053a3.742,3.742,0,0,1-1,2.769,3.5,3.5,0,0,1-2.585,1,3.393,3.393,0,0,1-2.538-1,3.785,3.785,0,0,1-.978-2.765v-7.053h1.487v7.053a3.02,3.02,0,0,0,.56,1.937,1.791,1.791,0,0,0,1.469.7,1.866,1.866,0,0,0,1.512-.7,2.963,2.963,0,0,0,.575-1.941v-7.053ZM34.977,0H33.49V-10.664h1.487Zm8.342-9.521H40.492V0H39V-9.521H36.193v-1.143h7.126Zm5.72,7.559h.044l2.556-8.7h1.9V0H52.064V-7.683L52.02-7.69,49.574,0H48.556L46.073-7.808l-.044.007V0H44.55V-10.664H46.49Zm11.6-2.988H57.023v3.823h4.263V0h-5.75V-10.664h5.713v1.143H57.023v3.435h3.618ZM69.935,0H68.441L64.31-7.866l-.044.015V0H62.78V-10.664h1.487L68.4-2.82l.044-.007v-7.837h1.494Zm8.2-9.521H75.311V0H73.817V-9.521H71.012v-1.143h7.126ZM-68.782,14.319a1.752,1.752,0,0,0-.417-1.2,3.657,3.657,0,0,0-1.472-.861,6.043,6.043,0,0,1-2.307-1.208,2.546,2.546,0,0,1-.806-1.97A2.7,2.7,0,0,1-72.894,7a3.243,3.243,0,0,1,2.281-.817,3.179,3.179,0,0,1,2.373.908,3.018,3.018,0,0,1,.864,2.278l-.015.044h-1.428a2.242,2.242,0,0,0-.5-1.516,1.646,1.646,0,0,0-1.311-.579,1.544,1.544,0,0,0-1.227.5,1.823,1.823,0,0,0-.436,1.245,1.545,1.545,0,0,0,.461,1.15,4.449,4.449,0,0,0,1.553.857,5.463,5.463,0,0,1,2.219,1.245,2.71,2.71,0,0,1,.762,1.992,2.6,2.6,0,0,1-.9,2.076,3.481,3.481,0,0,1-2.355.773,3.79,3.79,0,0,1-2.446-.835,2.8,2.8,0,0,1-1-2.4l.015-.044h1.436a2.107,2.107,0,0,0,.575,1.619,2.012,2.012,0,0,0,1.425.535,1.76,1.76,0,0,0,1.3-.465A1.68,1.68,0,0,0-68.782,14.319Zm9.529-6.841H-62.08V17h-1.494V7.479h-2.805V6.336h7.126Zm2.754,4.929V17h-1.487V6.343h3.142a3.35,3.35,0,0,1,2.377.784,2.927,2.927,0,0,1,.839,2.249,2.7,2.7,0,0,1-.392,1.461,2.583,2.583,0,0,1-1.124.97,2.041,2.041,0,0,1,1.183.923,3.218,3.218,0,0,1,.363,1.6v.93a4.182,4.182,0,0,0,.1.916,1.283,1.283,0,0,0,.337.659V17H-52.7a1.268,1.268,0,0,1-.326-.736,6.64,6.64,0,0,1-.077-1.022v-.9a2.209,2.209,0,0,0-.414-1.414,1.384,1.384,0,0,0-1.146-.52Zm0-1.135h1.582a1.746,1.746,0,0,0,1.362-.487A1.99,1.99,0,0,0-53.115,9.4a2.133,2.133,0,0,0-.428-1.421,1.61,1.61,0,0,0-1.3-.505H-56.5ZM-44.927,14.3h-3.186l-.769,2.7h-1.545l3.2-10.664h1.443L-42.612,17h-1.545Zm-2.849-1.179h2.52l-1.23-4.336h-.044Zm11.821-5.647h-2.827V17h-1.494V7.479h-2.805V6.336h7.126Zm6.379,4.57h-3.618v3.823h4.263V17h-5.75V6.336h5.713V7.479h-4.226v3.435h3.618Zm8.943,3.56a3.292,3.292,0,0,1-1.212,1.077,4.331,4.331,0,0,1-2.142.469,3.646,3.646,0,0,1-2.692-1.018,3.915,3.915,0,0,1-1.022-2.9V10.071A3.95,3.95,0,0,1-26.711,7.2a3.5,3.5,0,0,1,2.629-1.018,3.485,3.485,0,0,1,2.5.835,2.915,2.915,0,0,1,.85,2.285l-.015.044h-1.4a2.124,2.124,0,0,0-.487-1.49,1.827,1.827,0,0,0-1.417-.531,1.933,1.933,0,0,0-1.578.7,3.131,3.131,0,0,0-.575,2.032v3.179a3.162,3.162,0,0,0,.6,2.076,2,2,0,0,0,1.622.714,2.623,2.623,0,0,0,1.2-.234,1.608,1.608,0,0,0,.656-.571V12.737h-1.963V11.653h3.457ZM-17.043,17H-18.53V6.336h1.487Zm7.28-4.951h-3.618v3.823h4.263V17h-5.75V6.336h5.713V7.479h-4.226v3.435h3.618Zm7,2.271a1.752,1.752,0,0,0-.417-1.2,3.657,3.657,0,0,0-1.472-.861,6.043,6.043,0,0,1-2.307-1.208,2.546,2.546,0,0,1-.806-1.97A2.7,2.7,0,0,1-6.874,7a3.243,3.243,0,0,1,2.281-.817,3.179,3.179,0,0,1,2.373.908,3.018,3.018,0,0,1,.864,2.278l-.015.044H-2.8A2.242,2.242,0,0,0-3.3,7.9a1.646,1.646,0,0,0-1.311-.579,1.544,1.544,0,0,0-1.227.5A1.823,1.823,0,0,0-6.27,9.061a1.545,1.545,0,0,0,.461,1.15,4.449,4.449,0,0,0,1.553.857,5.463,5.463,0,0,1,2.219,1.245A2.71,2.71,0,0,1-1.274,14.3a2.6,2.6,0,0,1-.9,2.076,3.481,3.481,0,0,1-2.355.773,3.79,3.79,0,0,1-2.446-.835,2.8,2.8,0,0,1-1-2.4l.015-.044h1.436A2.107,2.107,0,0,0-5.951,15.5a2.012,2.012,0,0,0,1.425.535,1.76,1.76,0,0,0,1.3-.465A1.68,1.68,0,0,0-2.761,14.319ZM10.063,7.479H7.236V17H5.742V7.479H2.937V6.336h7.126Zm8.247,5.662A4.07,4.07,0,0,1,17.285,16.1a3.648,3.648,0,0,1-2.747,1.058,3.548,3.548,0,0,1-2.7-1.058,4.124,4.124,0,0,1-1-2.955V10.21a4.154,4.154,0,0,1,1-2.959,3.52,3.52,0,0,1,2.7-1.069,3.647,3.647,0,0,1,2.75,1.066,4.088,4.088,0,0,1,1.029,2.963Zm-1.479-2.952a3.244,3.244,0,0,0-.6-2.113,2.085,2.085,0,0,0-1.7-.721,1.98,1.98,0,0,0-1.644.721,3.333,3.333,0,0,0-.575,2.113V13.14a3.361,3.361,0,0,0,.579,2.131A1.986,1.986,0,0,0,14.539,16a2.075,2.075,0,0,0,1.7-.721,3.3,3.3,0,0,0,.593-2.135Zm8,2.219V17H23.342V6.343h3.142a3.35,3.35,0,0,1,2.377.784A2.927,2.927,0,0,1,29.7,9.375a2.7,2.7,0,0,1-.392,1.461,2.583,2.583,0,0,1-1.124.97,2.041,2.041,0,0,1,1.183.923,3.218,3.218,0,0,1,.363,1.6v.93a4.182,4.182,0,0,0,.1.916,1.283,1.283,0,0,0,.337.659V17H28.63a1.268,1.268,0,0,1-.326-.736,6.64,6.64,0,0,1-.077-1.022v-.9a2.209,2.209,0,0,0-.414-1.414,1.384,1.384,0,0,0-1.146-.52Zm0-1.135h1.582a1.746,1.746,0,0,0,1.362-.487A1.99,1.99,0,0,0,28.213,9.4a2.133,2.133,0,0,0-.428-1.421,1.61,1.61,0,0,0-1.3-.505H24.829Zm11.96.776H33.171v3.823h4.263V17h-5.75V6.336H37.4V7.479H33.171v3.435H36.79ZM45.6,13.792l.015.044a3.144,3.144,0,0,1-.879,2.446,3.458,3.458,0,0,1-2.5.872A3.393,3.393,0,0,1,39.624,16.1a4.174,4.174,0,0,1-.974-2.948V10.2a4.245,4.245,0,0,1,.959-2.952,3.3,3.3,0,0,1,2.578-1.062,3.614,3.614,0,0,1,2.549.846A3.118,3.118,0,0,1,45.623,9.5l-.015.044H44.18a2.414,2.414,0,0,0-.5-1.681,1.938,1.938,0,0,0-1.494-.538,1.763,1.763,0,0,0-1.516.736,3.558,3.558,0,0,0-.535,2.113v2.981a3.532,3.532,0,0,0,.549,2.131,1.82,1.82,0,0,0,1.553.74,1.864,1.864,0,0,0,1.45-.531,2.485,2.485,0,0,0,.483-1.7Zm3.105-1.384V17H47.219V6.343h3.142a3.35,3.35,0,0,1,2.377.784,2.927,2.927,0,0,1,.839,2.249,2.7,2.7,0,0,1-.392,1.461,2.583,2.583,0,0,1-1.124.97,2.041,2.041,0,0,1,1.183.923,3.218,3.218,0,0,1,.363,1.6v.93a4.182,4.182,0,0,0,.1.916,1.283,1.283,0,0,0,.337.659V17H52.507a1.268,1.268,0,0,1-.326-.736,6.64,6.64,0,0,1-.077-1.022v-.9a2.209,2.209,0,0,0-.414-1.414,1.384,1.384,0,0,0-1.146-.52Zm0-1.135h1.582a1.746,1.746,0,0,0,1.362-.487A1.99,1.99,0,0,0,52.09,9.4a2.133,2.133,0,0,0-.428-1.421,1.61,1.61,0,0,0-1.3-.505H48.706ZM62.542,6.336v7.053a3.742,3.742,0,0,1-1,2.769,3.5,3.5,0,0,1-2.585,1,3.393,3.393,0,0,1-2.538-1,3.785,3.785,0,0,1-.978-2.765V6.336h1.487v7.053a3.02,3.02,0,0,0,.56,1.937,1.791,1.791,0,0,0,1.469.7,1.866,1.866,0,0,0,1.512-.7,2.963,2.963,0,0,0,.575-1.941V6.336ZM66.064,17H64.578V6.336h1.487Zm8.342-9.521H71.58V17H70.085V7.479H67.28V6.336h7.126ZM-34.545,34h-1.494l-4.131-7.866-.044.015V34H-41.7V23.336h1.487l4.131,7.844.044-.007V23.336h1.494Zm7.141-4.951h-3.618v3.823h4.263V34h-5.75V23.336H-26.8v1.143h-4.226v3.435H-27.4Zm9.258,1.868h.044l1.384-7.581h1.56L-17.347,34h-1.37l-1.86-7.566h-.044L-22.489,34h-1.37l-2.19-10.664h1.567L-23.09,30.9h.044l1.794-7.566h1.3Zm13.931-6.438H-7.042V34H-8.536V24.479h-2.805V23.336h7.126ZM1.2,31.3H-1.989L-2.758,34H-4.3l3.2-10.664H.341L3.512,34H1.967Zm-2.849-1.179H.868L-.363,25.79H-.406Zm7.874,2.747h4.314V34h-5.8V23.336H6.222Zm10.847-3.823H13.451v3.823h4.263V34h-5.75V23.336h5.713v1.143H13.451v3.435h3.618ZM26.364,34H24.869l-4.131-7.866-.044.015V34H19.208V23.336h1.487l4.131,7.844.044-.007V23.336h1.494Zm8.2-9.521H31.74V34H30.245V24.479H27.44V23.336h7.126Zm6.021,6.841a1.752,1.752,0,0,0-.417-1.2,3.657,3.657,0,0,0-1.472-.861,6.043,6.043,0,0,1-2.307-1.208,2.546,2.546,0,0,1-.806-1.97A2.7,2.7,0,0,1,36.475,24a3.243,3.243,0,0,1,2.281-.817,3.179,3.179,0,0,1,2.373.908,3.018,3.018,0,0,1,.864,2.278l-.015.044H40.551a2.242,2.242,0,0,0-.5-1.516,1.646,1.646,0,0,0-1.311-.579,1.544,1.544,0,0,0-1.227.5,1.823,1.823,0,0,0-.436,1.245,1.545,1.545,0,0,0,.461,1.15,4.449,4.449,0,0,0,1.553.857,5.463,5.463,0,0,1,2.219,1.245,2.71,2.71,0,0,1,.762,1.992,2.6,2.6,0,0,1-.9,2.076,3.481,3.481,0,0,1-2.355.773,3.79,3.79,0,0,1-2.446-.835,2.8,2.8,0,0,1-1-2.4l.015-.044h1.436A2.107,2.107,0,0,0,37.4,32.5a2.012,2.012,0,0,0,1.425.535,1.76,1.76,0,0,0,1.3-.465A1.68,1.68,0,0,0,40.587,31.319Z" transform="translate(508.51 174.273)" fill="#0054a5"/>
      <g id="Layer_1" transform="translate(459.51 42)">
        <g id="Group_238" data-name="Group 238">
          <path id="Path_892" data-name="Path 892" d="M108.994,56.489v7.84a.873.873,0,0,0-.145.581,39.177,39.177,0,0,1-1.742,9.147A48.879,48.879,0,0,1,63.4,108.9a43.831,43.831,0,0,1-16.261-1.742,7.115,7.115,0,0,1-2.759-1.016c.871-2.033.581-4.21.726-6.388a1.27,1.27,0,0,0-.726-1.307c-2.9-1.6-5.807-3.194-8.566-4.936-.29-.145-.726-.29-.436-.871,2.178-3.339,2.468-6.969,1.887-10.889-.581-3.484-2.613-5.662-5.953-6.243a19.673,19.673,0,0,0-5.082-.145c-4.065.581-6.243,2.613-6.824,6.679a19.17,19.17,0,0,0-.29,4.065,2,2,0,0,1-.436-.581A50.732,50.732,0,0,1,11.428,62.3,44.951,44.951,0,0,1,12.444,49.81a49.608,49.608,0,0,1,5.372-14.228,54.315,54.315,0,0,1,8.276-10.744,45.786,45.786,0,0,1,10.889-7.985,47.22,47.22,0,0,1,15.971-5.372c1.307-.145,2.613-.436,3.92-.581H63.55a8.486,8.486,0,0,0,2.759.29,54.877,54.877,0,0,1,10.744,2.468c2.323.871,4.5,1.887,6.679,2.9,0,.29-.145.581-.145.871a15.346,15.346,0,0,0,1.6,10.453c.436.726.29,1.016-.436,1.307-2.9,1.6-5.662,3.194-8.421,4.791-.29.145-.726.29-.726.726,0,2.033-.29,3.92.29,5.953.871,2.613,2.468,3.92,5.227,3.92h22.94A4.972,4.972,0,0,0,106.671,44a61.04,61.04,0,0,1,2.033,8.566A30.922,30.922,0,0,0,108.994,56.489ZM60.066,75.508H72.116a4.4,4.4,0,0,0,3.194-1.452A7.232,7.232,0,0,0,76.762,71.3c.436-1.6.145-3.194.29-4.791a1.565,1.565,0,0,0-.871-1.6c-2.9-1.6-5.662-3.194-8.421-4.791-.29-.145-.726-.145-.436-.726,2.178-3.339,2.468-6.969,1.887-10.744A6.952,6.952,0,0,0,63.26,42.26a14.392,14.392,0,0,0-6.1,0c-2.9.726-4.936,2.468-5.517,5.372-.871,4.065-.726,7.84,1.452,11.47.29.581.145.726-.29,1.016-2.178,1.161-4.21,2.468-6.388,3.63-1.016.581-2.178.871-2.759,1.742s-.145,2.178-.145,3.339a8.463,8.463,0,0,0,.871,4.21,4.315,4.315,0,0,0,4.21,2.468C52.225,75.363,56.145,75.508,60.066,75.508ZM88.813,63.893a1.565,1.565,0,0,1,.29,1.016V78.121a9.155,9.155,0,0,1-9.437,9.437H52.951c-2.033,0-1.887,0-2.033,2.033,0,1.016.29,1.161,1.161,1.161H79.811A12.217,12.217,0,0,0,92.3,78.267V65.055a1.344,1.344,0,0,1,.145-1.016l1.742,1.742c1.6,1.6,1.6,1.6,3.194,0,.436-.436.436-.726,0-1.161-1.742-1.742-3.63-3.484-5.372-5.372-1.016-1.016-1.742-1.016-2.759,0l-4.21,4.21c-1.6,1.6-1.6,1.6,0,3.339.436.436.726.436,1.016,0A26.089,26.089,0,0,0,88.813,63.893ZM31.173,53.149,31.028,53V38.921a9.155,9.155,0,0,1,9.437-9.437H67.18c2.033,0,2.033,0,2.033-2.033,0-.871-.145-1.161-1.016-1.161H40.465A12.217,12.217,0,0,0,27.979,38.776V51.843A1.72,1.72,0,0,1,27.834,53l-1.742-1.742c-1.6-1.742-1.6-1.6-3.339,0-.436.436-.436.726,0,1.016,1.742,1.742,3.63,3.484,5.372,5.372,1.016,1.016,1.742,1.016,2.759,0l4.21-4.21c1.742-1.742,1.742-1.742,0-3.339-.436-.436-.581-.29-1.016,0A19.667,19.667,0,0,1,31.173,53.149Z" transform="translate(-11.101 -10.9)" fill="#1664ff"/>
          <path id="Path_893" data-name="Path 893" d="M86.493,44.248a5.7,5.7,0,0,1-2.613.581H60.94c-2.759,0-4.356-1.161-5.227-3.92-.581-1.887-.29-3.92-.29-5.953,0-.436.436-.581.726-.726,2.759-1.6,5.662-3.194,8.421-4.791.581-.29.871-.581.436-1.307-2.033-3.194-2.178-6.824-1.6-10.453,0-.29.145-.581.145-.871a7.342,7.342,0,0,1,5.662-5.517c.29,0,.581,0,.726-.29h4.646c.29.29.871.29,1.161.436a6.558,6.558,0,0,1,5.082,4.936c1.016,4.21.871,8.13-1.452,11.905-.29.436-.29.581.145.871,3.194,1.742,6.243,3.63,9.437,5.372v5.662C88.38,41.78,87.944,43.231,86.493,44.248ZM72.264,41.78h11.47a1.761,1.761,0,0,0,1.742-1.016c.726-1.307.436-2.613.436-4.065,0-.29-.29-.436-.581-.436-2.759-1.6-5.517-3.049-8.13-4.646-.436-.145-.581-.29-1.016,0a7.864,7.864,0,0,1-7.985,0,1.228,1.228,0,0,0-1.016,0c-2.759,1.6-5.517,3.194-8.13,4.646-.29.145-.581.29-.581.581a10.26,10.26,0,0,0,.29,3.63c.436.871.871,1.452,2.033,1.307Zm6.1-21.2a8.543,8.543,0,0,0-.29-2.468A4.318,4.318,0,0,0,74.3,14.339a19.458,19.458,0,0,0-2.9-.145c-3.339.145-4.791,1.6-5.227,4.936a1.309,1.309,0,0,1-.145.726,10.682,10.682,0,0,0,1.742,7.259c2.323,3.194,6.388,3.339,8.711.145A10.358,10.358,0,0,0,78.362,20.582Z" transform="translate(8.786 -10.855)" fill="#8a8a8a"/>
          <path id="Path_894" data-name="Path 894" d="M44.169,86.229c-.29.436-.581.726-.871,1.161a4.341,4.341,0,0,1-3.339,1.6H16.874c-3.049,0-4.936-1.452-5.517-4.5a31.451,31.451,0,0,1-.145-5.227c0-.436.29-.581.581-.726,2.9-1.6,5.662-3.339,8.566-4.936.581-.29.726-.581.29-1.161-1.307-1.887-1.6-4.065-1.887-6.243a19.17,19.17,0,0,1,.29-4.065c.726-3.92,2.759-6.1,6.824-6.679a14.948,14.948,0,0,1,5.082.145,7.083,7.083,0,0,1,5.953,6.243c.581,3.775.29,7.55-1.887,10.889-.436.581,0,.581.436.871,2.9,1.6,5.662,3.339,8.566,4.936a1.27,1.27,0,0,1,.726,1.307C44.749,82.018,45.04,84.2,44.169,86.229Zm-16.116-.29H39.087c1.6,0,2.033-.29,2.468-1.887A10.762,10.762,0,0,0,41.7,81c0-.436-.29-.436-.581-.581-2.759-1.6-5.517-3.049-8.13-4.646a.865.865,0,0,0-1.016,0,7.864,7.864,0,0,1-7.985,0,.865.865,0,0,0-1.016,0c-2.759,1.6-5.517,3.194-8.421,4.791-.145.145-.436.29-.436.581a10.26,10.26,0,0,0,.29,3.63c.436.871.871,1.452,2.033,1.307C20.5,85.938,24.278,85.938,28.053,85.938Zm6.1-20.907v-1.6c-.29-3.339-1.887-4.791-5.227-4.936h-1.6c-3.339.145-4.791,1.452-5.227,4.791v.436a11.579,11.579,0,0,0,1.6,7.55c2.323,3.339,6.388,3.339,8.711.145A10.884,10.884,0,0,0,34.151,65.032Z" transform="translate(-11.175 9.159)" fill="#8a8a8a"/>
          <path id="Path_895" data-name="Path 895" d="M50.145,65.849H38.53a4.406,4.406,0,0,1-4.21-2.468,6.926,6.926,0,0,1-.871-4.21c0-1.161-.436-2.468.145-3.339s1.887-1.161,2.759-1.742c2.178-1.161,4.21-2.468,6.388-3.63.436-.29.581-.436.29-1.016a14.5,14.5,0,0,1-1.452-11.47A6.805,6.805,0,0,1,47.1,32.6a14.392,14.392,0,0,1,6.1,0,7.249,7.249,0,0,1,5.953,6.388c.581,3.775.29,7.4-1.887,10.744-.436.581.145.581.436.726,2.759,1.6,5.662,3.194,8.421,4.791a1.565,1.565,0,0,1,.871,1.6c-.145,1.6.145,3.194-.29,4.791A6.318,6.318,0,0,1,65.245,64.4a3.919,3.919,0,0,1-3.194,1.452C58.131,65.7,54.211,65.849,50.145,65.849Zm0-3.194h11.47A1.874,1.874,0,0,0,63.5,61.349c.581-1.161.29-2.178.436-3.339a1.1,1.1,0,0,0-.581-1.016c-2.759-1.6-5.372-3.049-8.13-4.646a.883.883,0,0,0-1.161,0,7.863,7.863,0,0,1-7.985,0c-.436-.145-.581-.29-1.016,0-2.759,1.6-5.517,3.194-8.13,4.646-.29.145-.581.145-.581.581a8.218,8.218,0,0,0,.436,3.775c.436.871.871,1.307,1.887,1.162C42.6,62.655,46.37,62.655,50.145,62.655Zm6.1-20.762V40.3c-.29-3.339-1.887-4.936-5.227-5.082h-1.6c-3.484.145-4.936,1.452-5.372,4.791a.533.533,0,0,1-.145.436,11.88,11.88,0,0,0,1.6,7.4c2.323,3.339,6.533,3.484,8.856.145A9.245,9.245,0,0,0,56.243,41.894Z" transform="translate(-1.181 -1.241)" fill="#8a8a8a"/>
          <path id="Path_896" data-name="Path 896" d="M76.539,49.083c-.871,1.016-1.887,1.887-2.759,2.9-.436.436-.581.436-1.016,0-1.742-1.6-1.742-1.6,0-3.339l4.21-4.21c1.016-1.016,1.742-1.016,2.759,0,1.742,1.742,3.484,3.63,5.372,5.372.436.436.436.726,0,1.161-1.6,1.6-1.6,1.6-3.194,0l-1.742-1.742c-.436.29-.29.726-.29,1.016V63.457A12.217,12.217,0,0,1,67.392,75.943H39.661c-.871,0-1.161-.145-1.161-1.161.145-1.887,0-2.033,2.033-2.033H67.247a9.073,9.073,0,0,0,9.437-9.437V50.1A.725.725,0,0,0,76.539,49.083Z" transform="translate(1.172 3.91)" fill="#fff"/>
          <path id="Path_897" data-name="Path 897" d="M27.768,48.314c.871-1.016,1.887-1.887,2.759-2.9.29-.436.581-.436,1.016,0,1.742,1.6,1.742,1.6,0,3.339l-4.21,4.21c-1.016,1.016-1.742,1.016-2.759,0-1.742-1.742-3.484-3.63-5.372-5.372-.436-.436-.436-.581,0-1.016,1.6-1.742,1.6-1.742,3.339,0l1.742,1.742a1.72,1.72,0,0,0,.145-1.161V34.086A12.217,12.217,0,0,1,36.914,21.6H64.645c.871,0,1.161.29,1.016,1.161,0,2.033,0,2.033-2.033,2.033H36.914a9.24,9.24,0,0,0-9.437,9.437V48.314Z" transform="translate(-7.696 -6.065)" fill="#fff"/>
          <path id="Path_898" data-name="Path 898" d="M71.3,35.415H59.83A1.938,1.938,0,0,1,57.8,34.109a9.993,9.993,0,0,1-.29-3.63c0-.436.29-.436.581-.581,2.759-1.6,5.517-3.049,8.13-4.646.436-.145.581-.29,1.016,0a7.864,7.864,0,0,0,7.985,0,1.228,1.228,0,0,1,1.016,0c2.759,1.6,5.517,3.194,8.13,4.646.145.145.581.145.581.436a9.756,9.756,0,0,1-.436,4.065,1.761,1.761,0,0,1-1.742,1.016Z" transform="translate(9.751 -4.491)" fill="#dfdede"/>
          <path id="Path_899" data-name="Path 899" d="M75.051,19.588a10.358,10.358,0,0,1-1.887,6.679c-2.323,3.194-6.388,3.049-8.711-.145a10.682,10.682,0,0,1-1.742-7.259,1.309,1.309,0,0,1,.145-.726c.29-3.339,1.742-4.791,5.227-4.936a19.458,19.458,0,0,1,2.9.145c2.178.436,3.484,1.452,3.775,3.775A8.543,8.543,0,0,1,75.051,19.588Z" transform="translate(12.097 -9.861)" fill="#a8ddfd"/>
          <path id="Path_900" data-name="Path 900" d="M27.1,79.642H15.63A1.938,1.938,0,0,1,13.6,78.335a9.994,9.994,0,0,1-.29-3.63c0-.29.29-.436.436-.581,2.759-1.6,5.517-3.194,8.421-4.791a1.228,1.228,0,0,1,1.016,0,7.864,7.864,0,0,0,7.985,0,1.228,1.228,0,0,1,1.016,0c2.759,1.6,5.517,3.194,8.13,4.646.29.145.581.145.581.581a10.762,10.762,0,0,1-.145,3.049c-.436,1.6-.871,1.887-2.468,1.887C34.5,79.642,30.875,79.642,27.1,79.642Z" transform="translate(-10.222 15.455)" fill="#dfdede"/>
          <path id="Path_901" data-name="Path 901" d="M30.782,64.079a9.3,9.3,0,0,1-1.742,6.243,5.1,5.1,0,0,1-8.711-.145,10.612,10.612,0,0,1-1.6-7.55v-.436c.436-3.339,1.887-4.646,5.227-4.791h1.6c3.339.145,4.936,1.6,5.227,4.936Z" transform="translate(-7.806 10.112)" fill="#a8ddfd"/>
          <path id="Path_902" data-name="Path 902" d="M49.2,56.431H37.728a1.818,1.818,0,0,1-1.887-1.161,8.218,8.218,0,0,1-.436-3.775c0-.29.29-.436.581-.581,2.759-1.6,5.517-3.049,8.13-4.646a.865.865,0,0,1,1.016,0,7.863,7.863,0,0,0,7.985,0,.883.883,0,0,1,1.161,0c2.759,1.6,5.372,3.049,8.13,4.646a.972.972,0,0,1,.581,1.016,6.467,6.467,0,0,1-.436,3.339,1.874,1.874,0,0,1-1.887,1.307C56.893,56.431,52.973,56.431,49.2,56.431Z" transform="translate(-0.233 4.983)" fill="#dfdede"/>
          <path id="Path_903" data-name="Path 903" d="M52.922,40.933a8.964,8.964,0,0,1-1.742,6.243c-2.323,3.339-6.533,3.339-8.856-.145a10.992,10.992,0,0,1-1.6-7.4.533.533,0,0,1,.145-.436c.436-3.484,1.887-4.791,5.372-4.791h1.6c3.339.145,4.936,1.742,5.227,5.082A4.046,4.046,0,0,0,52.922,40.933Z" transform="translate(2.14 -0.281)" fill="#a8ddfd"/>
        </g>
      </g>
    </g>
  </g>
</svg>
