<svg xmlns="http://www.w3.org/2000/svg" xmlns:xlink="http://www.w3.org/1999/xlink" viewBox="0 0 281 249">
  <defs><style>
        @import url('https://fonts.googleapis.com/css2?family=Roboto+Condensed:wght@300;400&amp;display=swap');
        </style>
    <filter id="Rectangle_392" x="0" y="0" width="281" height="249" filterUnits="userSpaceOnUse">
      <feOffset dy="3" input="SourceAlpha"/>
      <feGaussianBlur stdDeviation="3" result="blur"/>
      <feFlood flood-color="#95b2bb"/>
      <feComposite operator="in" in2="blur"/>
      <feComposite in="SourceGraphic"/>
    </filter>
  </defs>
  <g id="Group_668" data-name="Group 668" transform="translate(-638 -9015)">
    <g transform="matrix(1, 0, 0, 1, 638, 9015)" filter="url(#Rectangle_392)">
      <path id="Rectangle_392-2" data-name="Rectangle 392" d="M2,0H227a36,36,0,0,1,36,36V195a36,36,0,0,1-36,36H36A36,36,0,0,1,0,195V2A2,2,0,0,1,2,0Z" transform="translate(9 6)" fill="#fff"/>
    </g>
    <g id="Group_635" data-name="Group 635" transform="translate(697.51 9064)">
      <text style="text-align: center;font-weight:400; font-family:Roboto Condensed" id="Stringent_recruitment_strategies_to_recruit_new_talents" data-name="Stringent recruitment 
strategies to recruit
new talents" transform="translate(82 137.273)" fill="#0054a5" font-size="15" font-family="RobotoCondensed-Regular, Roboto"><tspan x="-81.691" y="0">STRINGENT RECRUITMENT </tspan><tspan x="-74.663" y="17">STRATEGIES TO RECRUIT</tspan><tspan x="-42.719" y="34">NEW TALENTS</tspan></text>
      <g id="Layer_1" transform="translate(33 0)">
        <g id="Group_238" data-name="Group 238">
          <path id="Path_892" data-name="Path 892" d="M108.994,56.489v7.84a.873.873,0,0,0-.145.581,39.177,39.177,0,0,1-1.742,9.147A48.879,48.879,0,0,1,63.4,108.9a43.831,43.831,0,0,1-16.261-1.742,7.115,7.115,0,0,1-2.759-1.016c.871-2.033.581-4.21.726-6.388a1.27,1.27,0,0,0-.726-1.307c-2.9-1.6-5.807-3.194-8.566-4.936-.29-.145-.726-.29-.436-.871,2.178-3.339,2.468-6.969,1.887-10.889-.581-3.484-2.613-5.662-5.953-6.243a19.673,19.673,0,0,0-5.082-.145c-4.065.581-6.243,2.613-6.824,6.679a19.17,19.17,0,0,0-.29,4.065,2,2,0,0,1-.436-.581A50.732,50.732,0,0,1,11.428,62.3,44.951,44.951,0,0,1,12.444,49.81a49.608,49.608,0,0,1,5.372-14.228,54.315,54.315,0,0,1,8.276-10.744,45.786,45.786,0,0,1,10.889-7.985,47.22,47.22,0,0,1,15.971-5.372c1.307-.145,2.613-.436,3.92-.581H63.55a8.486,8.486,0,0,0,2.759.29,54.877,54.877,0,0,1,10.744,2.468c2.323.871,4.5,1.887,6.679,2.9,0,.29-.145.581-.145.871a15.346,15.346,0,0,0,1.6,10.453c.436.726.29,1.016-.436,1.307-2.9,1.6-5.662,3.194-8.421,4.791-.29.145-.726.29-.726.726,0,2.033-.29,3.92.29,5.953.871,2.613,2.468,3.92,5.227,3.92h22.94A4.972,4.972,0,0,0,106.671,44a61.04,61.04,0,0,1,2.033,8.566A30.922,30.922,0,0,0,108.994,56.489ZM60.066,75.508H72.116a4.4,4.4,0,0,0,3.194-1.452A7.232,7.232,0,0,0,76.762,71.3c.436-1.6.145-3.194.29-4.791a1.565,1.565,0,0,0-.871-1.6c-2.9-1.6-5.662-3.194-8.421-4.791-.29-.145-.726-.145-.436-.726,2.178-3.339,2.468-6.969,1.887-10.744A6.952,6.952,0,0,0,63.26,42.26a14.392,14.392,0,0,0-6.1,0c-2.9.726-4.936,2.468-5.517,5.372-.871,4.065-.726,7.84,1.452,11.47.29.581.145.726-.29,1.016-2.178,1.161-4.21,2.468-6.388,3.63-1.016.581-2.178.871-2.759,1.742s-.145,2.178-.145,3.339a8.463,8.463,0,0,0,.871,4.21,4.315,4.315,0,0,0,4.21,2.468C52.225,75.363,56.145,75.508,60.066,75.508ZM88.813,63.893a1.565,1.565,0,0,1,.29,1.016V78.121a9.155,9.155,0,0,1-9.437,9.437H52.951c-2.033,0-1.887,0-2.033,2.033,0,1.016.29,1.161,1.161,1.161H79.811A12.217,12.217,0,0,0,92.3,78.267V65.055a1.344,1.344,0,0,1,.145-1.016l1.742,1.742c1.6,1.6,1.6,1.6,3.194,0,.436-.436.436-.726,0-1.161-1.742-1.742-3.63-3.484-5.372-5.372-1.016-1.016-1.742-1.016-2.759,0l-4.21,4.21c-1.6,1.6-1.6,1.6,0,3.339.436.436.726.436,1.016,0A26.089,26.089,0,0,0,88.813,63.893ZM31.173,53.149,31.028,53V38.921a9.155,9.155,0,0,1,9.437-9.437H67.18c2.033,0,2.033,0,2.033-2.033,0-.871-.145-1.161-1.016-1.161H40.465A12.217,12.217,0,0,0,27.979,38.776V51.843A1.72,1.72,0,0,1,27.834,53l-1.742-1.742c-1.6-1.742-1.6-1.6-3.339,0-.436.436-.436.726,0,1.016,1.742,1.742,3.63,3.484,5.372,5.372,1.016,1.016,1.742,1.016,2.759,0l4.21-4.21c1.742-1.742,1.742-1.742,0-3.339-.436-.436-.581-.29-1.016,0A19.667,19.667,0,0,1,31.173,53.149Z" transform="translate(-11.101 -10.9)" fill="#1664ff"/>
          <path id="Path_893" data-name="Path 893" d="M86.493,44.248a5.7,5.7,0,0,1-2.613.581H60.94c-2.759,0-4.356-1.161-5.227-3.92-.581-1.887-.29-3.92-.29-5.953,0-.436.436-.581.726-.726,2.759-1.6,5.662-3.194,8.421-4.791.581-.29.871-.581.436-1.307-2.033-3.194-2.178-6.824-1.6-10.453,0-.29.145-.581.145-.871a7.342,7.342,0,0,1,5.662-5.517c.29,0,.581,0,.726-.29h4.646c.29.29.871.29,1.161.436a6.558,6.558,0,0,1,5.082,4.936c1.016,4.21.871,8.13-1.452,11.905-.29.436-.29.581.145.871,3.194,1.742,6.243,3.63,9.437,5.372v5.662C88.38,41.78,87.944,43.231,86.493,44.248ZM72.264,41.78h11.47a1.761,1.761,0,0,0,1.742-1.016c.726-1.307.436-2.613.436-4.065,0-.29-.29-.436-.581-.436-2.759-1.6-5.517-3.049-8.13-4.646-.436-.145-.581-.29-1.016,0a7.864,7.864,0,0,1-7.985,0,1.228,1.228,0,0,0-1.016,0c-2.759,1.6-5.517,3.194-8.13,4.646-.29.145-.581.29-.581.581a10.26,10.26,0,0,0,.29,3.63c.436.871.871,1.452,2.033,1.307Zm6.1-21.2a8.543,8.543,0,0,0-.29-2.468A4.318,4.318,0,0,0,74.3,14.339a19.458,19.458,0,0,0-2.9-.145c-3.339.145-4.791,1.6-5.227,4.936a1.309,1.309,0,0,1-.145.726,10.682,10.682,0,0,0,1.742,7.259c2.323,3.194,6.388,3.339,8.711.145A10.358,10.358,0,0,0,78.362,20.582Z" transform="translate(8.786 -10.855)" fill="#8a8a8a"/>
          <path id="Path_894" data-name="Path 894" d="M44.169,86.229c-.29.436-.581.726-.871,1.161a4.341,4.341,0,0,1-3.339,1.6H16.874c-3.049,0-4.936-1.452-5.517-4.5a31.451,31.451,0,0,1-.145-5.227c0-.436.29-.581.581-.726,2.9-1.6,5.662-3.339,8.566-4.936.581-.29.726-.581.29-1.161-1.307-1.887-1.6-4.065-1.887-6.243a19.17,19.17,0,0,1,.29-4.065c.726-3.92,2.759-6.1,6.824-6.679a14.948,14.948,0,0,1,5.082.145,7.083,7.083,0,0,1,5.953,6.243c.581,3.775.29,7.55-1.887,10.889-.436.581,0,.581.436.871,2.9,1.6,5.662,3.339,8.566,4.936a1.27,1.27,0,0,1,.726,1.307C44.749,82.018,45.04,84.2,44.169,86.229Zm-16.116-.29H39.087c1.6,0,2.033-.29,2.468-1.887A10.762,10.762,0,0,0,41.7,81c0-.436-.29-.436-.581-.581-2.759-1.6-5.517-3.049-8.13-4.646a.865.865,0,0,0-1.016,0,7.864,7.864,0,0,1-7.985,0,.865.865,0,0,0-1.016,0c-2.759,1.6-5.517,3.194-8.421,4.791-.145.145-.436.29-.436.581a10.26,10.26,0,0,0,.29,3.63c.436.871.871,1.452,2.033,1.307C20.5,85.938,24.278,85.938,28.053,85.938Zm6.1-20.907v-1.6c-.29-3.339-1.887-4.791-5.227-4.936h-1.6c-3.339.145-4.791,1.452-5.227,4.791v.436a11.579,11.579,0,0,0,1.6,7.55c2.323,3.339,6.388,3.339,8.711.145A10.884,10.884,0,0,0,34.151,65.032Z" transform="translate(-11.175 9.159)" fill="#8a8a8a"/>
          <path id="Path_895" data-name="Path 895" d="M50.145,65.849H38.53a4.406,4.406,0,0,1-4.21-2.468,6.926,6.926,0,0,1-.871-4.21c0-1.161-.436-2.468.145-3.339s1.887-1.161,2.759-1.742c2.178-1.161,4.21-2.468,6.388-3.63.436-.29.581-.436.29-1.016a14.5,14.5,0,0,1-1.452-11.47A6.805,6.805,0,0,1,47.1,32.6a14.392,14.392,0,0,1,6.1,0,7.249,7.249,0,0,1,5.953,6.388c.581,3.775.29,7.4-1.887,10.744-.436.581.145.581.436.726,2.759,1.6,5.662,3.194,8.421,4.791a1.565,1.565,0,0,1,.871,1.6c-.145,1.6.145,3.194-.29,4.791A6.318,6.318,0,0,1,65.245,64.4a3.919,3.919,0,0,1-3.194,1.452C58.131,65.7,54.211,65.849,50.145,65.849Zm0-3.194h11.47A1.874,1.874,0,0,0,63.5,61.349c.581-1.161.29-2.178.436-3.339a1.1,1.1,0,0,0-.581-1.016c-2.759-1.6-5.372-3.049-8.13-4.646a.883.883,0,0,0-1.161,0,7.863,7.863,0,0,1-7.985,0c-.436-.145-.581-.29-1.016,0-2.759,1.6-5.517,3.194-8.13,4.646-.29.145-.581.145-.581.581a8.218,8.218,0,0,0,.436,3.775c.436.871.871,1.307,1.887,1.162C42.6,62.655,46.37,62.655,50.145,62.655Zm6.1-20.762V40.3c-.29-3.339-1.887-4.936-5.227-5.082h-1.6c-3.484.145-4.936,1.452-5.372,4.791a.533.533,0,0,1-.145.436,11.88,11.88,0,0,0,1.6,7.4c2.323,3.339,6.533,3.484,8.856.145A9.245,9.245,0,0,0,56.243,41.894Z" transform="translate(-1.181 -1.241)" fill="#8a8a8a"/>
          <path id="Path_896" data-name="Path 896" d="M76.539,49.083c-.871,1.016-1.887,1.887-2.759,2.9-.436.436-.581.436-1.016,0-1.742-1.6-1.742-1.6,0-3.339l4.21-4.21c1.016-1.016,1.742-1.016,2.759,0,1.742,1.742,3.484,3.63,5.372,5.372.436.436.436.726,0,1.161-1.6,1.6-1.6,1.6-3.194,0l-1.742-1.742c-.436.29-.29.726-.29,1.016V63.457A12.217,12.217,0,0,1,67.392,75.943H39.661c-.871,0-1.161-.145-1.161-1.161.145-1.887,0-2.033,2.033-2.033H67.247a9.073,9.073,0,0,0,9.437-9.437V50.1A.725.725,0,0,0,76.539,49.083Z" transform="translate(1.172 3.91)" fill="#fff"/>
          <path id="Path_897" data-name="Path 897" d="M27.768,48.314c.871-1.016,1.887-1.887,2.759-2.9.29-.436.581-.436,1.016,0,1.742,1.6,1.742,1.6,0,3.339l-4.21,4.21c-1.016,1.016-1.742,1.016-2.759,0-1.742-1.742-3.484-3.63-5.372-5.372-.436-.436-.436-.581,0-1.016,1.6-1.742,1.6-1.742,3.339,0l1.742,1.742a1.72,1.72,0,0,0,.145-1.161V34.086A12.217,12.217,0,0,1,36.914,21.6H64.645c.871,0,1.161.29,1.016,1.161,0,2.033,0,2.033-2.033,2.033H36.914a9.24,9.24,0,0,0-9.437,9.437V48.314Z" transform="translate(-7.696 -6.065)" fill="#fff"/>
          <path id="Path_898" data-name="Path 898" d="M71.3,35.415H59.83A1.938,1.938,0,0,1,57.8,34.109a9.993,9.993,0,0,1-.29-3.63c0-.436.29-.436.581-.581,2.759-1.6,5.517-3.049,8.13-4.646.436-.145.581-.29,1.016,0a7.864,7.864,0,0,0,7.985,0,1.228,1.228,0,0,1,1.016,0c2.759,1.6,5.517,3.194,8.13,4.646.145.145.581.145.581.436a9.756,9.756,0,0,1-.436,4.065,1.761,1.761,0,0,1-1.742,1.016Z" transform="translate(9.751 -4.491)" fill="#dfdede"/>
          <path id="Path_899" data-name="Path 899" d="M75.051,19.588a10.358,10.358,0,0,1-1.887,6.679c-2.323,3.194-6.388,3.049-8.711-.145a10.682,10.682,0,0,1-1.742-7.259,1.309,1.309,0,0,1,.145-.726c.29-3.339,1.742-4.791,5.227-4.936a19.458,19.458,0,0,1,2.9.145c2.178.436,3.484,1.452,3.775,3.775A8.543,8.543,0,0,1,75.051,19.588Z" transform="translate(12.097 -9.861)" fill="#a8ddfd"/>
          <path id="Path_900" data-name="Path 900" d="M27.1,79.642H15.63A1.938,1.938,0,0,1,13.6,78.335a9.994,9.994,0,0,1-.29-3.63c0-.29.29-.436.436-.581,2.759-1.6,5.517-3.194,8.421-4.791a1.228,1.228,0,0,1,1.016,0,7.864,7.864,0,0,0,7.985,0,1.228,1.228,0,0,1,1.016,0c2.759,1.6,5.517,3.194,8.13,4.646.29.145.581.145.581.581a10.762,10.762,0,0,1-.145,3.049c-.436,1.6-.871,1.887-2.468,1.887C34.5,79.642,30.875,79.642,27.1,79.642Z" transform="translate(-10.222 15.455)" fill="#dfdede"/>
          <path id="Path_901" data-name="Path 901" d="M30.782,64.079a9.3,9.3,0,0,1-1.742,6.243,5.1,5.1,0,0,1-8.711-.145,10.612,10.612,0,0,1-1.6-7.55v-.436c.436-3.339,1.887-4.646,5.227-4.791h1.6c3.339.145,4.936,1.6,5.227,4.936Z" transform="translate(-7.806 10.112)" fill="#a8ddfd"/>
          <path id="Path_902" data-name="Path 902" d="M49.2,56.431H37.728a1.818,1.818,0,0,1-1.887-1.161,8.218,8.218,0,0,1-.436-3.775c0-.29.29-.436.581-.581,2.759-1.6,5.517-3.049,8.13-4.646a.865.865,0,0,1,1.016,0,7.863,7.863,0,0,0,7.985,0,.883.883,0,0,1,1.161,0c2.759,1.6,5.372,3.049,8.13,4.646a.972.972,0,0,1,.581,1.016,6.467,6.467,0,0,1-.436,3.339,1.874,1.874,0,0,1-1.887,1.307C56.893,56.431,52.973,56.431,49.2,56.431Z" transform="translate(-0.233 4.983)" fill="#dfdede"/>
          <path id="Path_903" data-name="Path 903" d="M52.922,40.933a8.964,8.964,0,0,1-1.742,6.243c-2.323,3.339-6.533,3.339-8.856-.145a10.992,10.992,0,0,1-1.6-7.4.533.533,0,0,1,.145-.436c.436-3.484,1.887-4.791,5.372-4.791h1.6c3.339.145,4.936,1.742,5.227,5.082A4.046,4.046,0,0,0,52.922,40.933Z" transform="translate(2.14 -0.281)" fill="#a8ddfd"/>
        </g>
      </g>
    </g>
  </g>
</svg>
