<svg xmlns="http://www.w3.org/2000/svg" xmlns:xlink="http://www.w3.org/1999/xlink" viewBox="0 0 281 249">
  <defs><style>
        @import url('https://fonts.googleapis.com/css2?family=Roboto+Condensed:wght@300;400&amp;display=swap');
        </style>
    <filter id="Rectangle_397" x="0" y="0" width="281" height="249" filterUnits="userSpaceOnUse">
      <feOffset dy="3" input="SourceAlpha"/>
      <feGaussianBlur stdDeviation="3" result="blur"/>
      <feFlood flood-color="#95b2bb"/>
      <feComposite operator="in" in2="blur"/>
      <feComposite in="SourceGraphic"/>
    </filter>
  </defs>
  <g id="Group_669" data-name="Group 669" transform="translate(-1006 -9015)">
    <g transform="matrix(1, 0, 0, 1, 1006, 9015)" filter="url(#Rectangle_397)">
      <path id="Rectangle_397-2" data-name="Rectangle 397" d="M2,0H227a36,36,0,0,1,36,36V195a36,36,0,0,1-36,36H36A36,36,0,0,1,0,195V2A2,2,0,0,1,2,0Z" transform="translate(9 6)" fill="#fff"/>
    </g>
    <g id="Group_636" data-name="Group 636" transform="translate(-2493 1137.273)">
      <text style="text-align: center;font-weight:400; font-family:Roboto Condensed" id="Each_candidate_assessed_through_Government_s_new_BMET_guidelines." data-name="Each candidate assessed
through Government’s
new BMET guidelines." transform="translate(3640 8064)" fill="#0054a5" font-size="15" font-family="RobotoCondensed-Regular, Roboto"><tspan x="-86.023" y="0">EACH CANDIDATE ASSESSED</tspan><tspan x="-80.537" y="17">THROUGH GOVERNMENT’S</tspan><tspan x="-72.535" y="34">NEW BMET GUIDELINES.</tspan></text>
      <g id="copyright" transform="translate(3590 7926.727)">
        <path id="Path_904" data-name="Path 904" d="M74.974,14.45V94.6A3.281,3.281,0,0,1,71.7,97.874H6.272A3.281,3.281,0,0,1,3,94.6V6.272A3.281,3.281,0,0,1,6.272,3H63.523V14.45Z" transform="translate(-1.364 -1.364)" fill="#fff"/>
        <path id="Path_905" data-name="Path 905" d="M50.815,10V90.152a3.281,3.281,0,0,1-3.272,3.272H41a3.281,3.281,0,0,0,3.272-3.272V10Z" transform="translate(22.795 3.086)" fill="#dad5d3"/>
        <path id="Path_906" data-name="Path 906" d="M47.715,22.358c0,1.063-1,1.914-2.045,2.748a7.063,7.063,0,0,0-2.225,2.257c-.736,1.8.834,5.2-.523,6.559s-4.76-.213-6.559.523a7.063,7.063,0,0,0-2.257,2.225c-.834,1.047-1.685,2.045-2.748,2.045s-1.914-1-2.748-2.045a7.063,7.063,0,0,0-2.257-2.225c-1.8-.736-5.2.834-6.559-.523s.213-4.76-.523-6.559a7.063,7.063,0,0,0-2.225-2.257C16,24.271,15,23.421,15,22.358c0-2,3.55-3.272,4.269-5.005.736-1.8-.834-5.2.523-6.559s4.76.213,6.559-.523C28.086,9.55,29.362,6,31.358,6s3.272,3.55,5.005,4.269c1.8.736,5.2-.834,6.559.523s-.213,4.76.523,6.559C44.166,19.086,47.715,20.362,47.715,22.358Z" transform="translate(6.265 0.543)" fill="#64c1f7"/>
        <ellipse id="Ellipse_12" data-name="Ellipse 12" cx="6.677" cy="6.259" rx="6.677" ry="6.259" transform="translate(31.547 16.524)" fill="#1664ff"/>
        <path id="Path_907" data-name="Path 907" d="M78.8,29.815V45.7A32.682,32.682,0,0,1,65.089,72.315L55.9,78.887l-9.193-6.576c-.7-.507-1.39-1.031-2.045-1.6a32.152,32.152,0,0,1-5.938-6.543,31.287,31.287,0,0,1-3.451-6.543,29.848,29.848,0,0,1-1.816-6.543A31.042,31.042,0,0,1,33,45.7V29.815l3.468-1.489h.016l6.9-2.961L55.9,20Z" transform="translate(17.709 9.444)" fill="#e0e0e2"/>
        <path id="Path_908" data-name="Path 908" d="M71.172,29.815V45.7A32.682,32.682,0,0,1,57.46,72.315l-9.189,6.573L45,76.548l5.921-4.237A32.679,32.679,0,0,0,64.629,45.7V29.815L45,21.407,48.272,20Z" transform="translate(25.338 9.444)" fill="#c6c5ca"/>
        <path id="Path_909" data-name="Path 909" d="M69.715,31.543V41.865A26.172,26.172,0,0,1,59.9,62.3L53.358,67.53,46.815,62.3A26.172,26.172,0,0,1,37,41.865V31.543L53.358,25Z" transform="translate(20.252 12.623)" fill="#57a4ff"/>
        <path id="Path_910" data-name="Path 910" d="M64.629,31.543V41.865A26.172,26.172,0,0,1,54.815,62.3L48.272,67.53,45,64.913,48.272,62.3a26.172,26.172,0,0,0,9.815-20.431V31.543L45,26.309,48.272,25Z" transform="translate(25.338 12.623)" fill="#2488ff"/>
        <path id="Path_911" data-name="Path 911" d="M51.45,14.45H40V3Z" transform="translate(22.159 -1.364)" fill="#a8ddfd"/>
        <path id="Path_912" data-name="Path 912" d="M47.405,26.84,40.5,29.8h-.016L37.018,31.29v8.293L26.68,29.245a7.063,7.063,0,0,1,2.257-2.225c1.8-.736,5.2.834,6.559-.523s-.213-4.76.523-6.559a7.063,7.063,0,0,1,2.225-2.257Z" transform="translate(13.691 7.969)" fill="#1664ff"/>
        <path id="Path_913" data-name="Path 913" d="M32.144,29.245,21,40.384,19.86,29.965,9.44,28.82,20.58,17.68A7.063,7.063,0,0,1,22.8,19.937c.736,1.8-.834,5.2.523,6.559s4.76-.213,6.559.523a7.063,7.063,0,0,1,2.257,2.225Z" transform="translate(2.73 7.969)" fill="#1664ff"/>
        <path id="Path_914" data-name="Path 914" d="M99.148,39.753l-21.9-9.389V15.086a1.69,1.69,0,0,0-.474-1.161L65.321,2.474A1.69,1.69,0,0,0,64.159,2H6.907A4.922,4.922,0,0,0,2,6.907V95.238a4.922,4.922,0,0,0,4.907,4.907H72.338a4.922,4.922,0,0,0,4.907-4.907V91.165L85.768,85.1a34.454,34.454,0,0,0,14.378-27.955V41.258a1.636,1.636,0,0,0-1-1.5ZM65.795,7.578l5.872,5.872H65.795Zm8.179,87.66a1.636,1.636,0,0,1-1.636,1.636H6.907a1.636,1.636,0,0,1-1.636-1.636V6.907A1.636,1.636,0,0,1,6.907,5.272H62.523v9.815a1.636,1.636,0,0,0,1.636,1.636h9.815V30.364l-10.5,4.5-7.148-7.148A4.06,4.06,0,0,0,57.616,24.9c0-1.93-1.6-3.19-2.879-4.2a6.4,6.4,0,0,1-1.5-1.423,5.917,5.917,0,0,1,.033-2.208c.18-1.685.393-3.582-.916-4.891s-3.222-1.1-4.891-.916a5.827,5.827,0,0,1-2.192.033,6.1,6.1,0,0,1-1.439-1.5c-1.014-1.292-2.274-2.879-4.2-2.879s-3.19,1.6-4.2,2.879A6.4,6.4,0,0,1,34,11.291a5.917,5.917,0,0,1-2.208-.033c-1.685-.18-3.582-.393-4.891.916s-1.1,3.206-.916,4.891a5.827,5.827,0,0,1,.033,2.192,6.1,6.1,0,0,1-1.5,1.439c-1.292,1.014-2.879,2.274-2.879,4.2a4.06,4.06,0,0,0,1.292,2.814l-9.913,9.913a1.636,1.636,0,0,0-.376,1.7,1.613,1.613,0,0,0,1.358,1.08L23.1,41.422l1.014,9.111a1.613,1.613,0,0,0,1.08,1.358,1.57,1.57,0,0,0,.54.1,1.647,1.647,0,0,0,1.161-.474L36.809,41.6a3.708,3.708,0,0,0,5.627,0l8.637,8.62v6.919a35.687,35.687,0,0,0,.213,3.746H11.815v3.272H51.809c.245,1.112.523,2.192.851,3.272H11.815V70.7H53.887a35.728,35.728,0,0,0,1.619,3.272H11.815v3.272H57.6a32.037,32.037,0,0,0,2.683,3.272H11.815v3.272H63.75c.556.442,1.129.883,1.7,1.309l8.522,6.069ZM26.9,37.627c1.309,1.309,3.206,1.1,4.891.916a6.191,6.191,0,0,1,2.192-.033,2.264,2.264,0,0,1,.687.589l-7.672,7.688-.785-7.034a1.636,1.636,0,0,0-1.439-1.439l-7.034-.785,7.688-7.672a2.243,2.243,0,0,1,.589.671,5.916,5.916,0,0,1-.033,2.208C25.8,34.421,25.588,36.318,26.9,37.627Zm6.4-2.486a17.892,17.892,0,0,0-1.865.147,6.281,6.281,0,0,1-2.208.033,5.936,5.936,0,0,1,.016-2.225,7.668,7.668,0,0,0-.2-3.811,7.433,7.433,0,0,0-2.5-2.748C26,26.111,24.9,25.244,24.9,24.9s1.1-1.21,1.636-1.636a7.433,7.433,0,0,0,2.5-2.748,7.668,7.668,0,0,0,.2-3.811A6.281,6.281,0,0,1,29.2,14.5a5.936,5.936,0,0,1,2.225.016,7.668,7.668,0,0,0,3.811-.2,7.433,7.433,0,0,0,2.748-2.5c.425-.54,1.292-1.636,1.636-1.636s1.21,1.1,1.636,1.636a7.433,7.433,0,0,0,2.748,2.5,7.668,7.668,0,0,0,3.811.2,6.281,6.281,0,0,1,2.208-.033,5.936,5.936,0,0,1-.016,2.225,7.668,7.668,0,0,0,.2,3.811,7.433,7.433,0,0,0,2.5,2.748c.54.425,1.636,1.292,1.636,1.636s-1.1,1.21-1.636,1.636a7.433,7.433,0,0,0-2.5,2.748,7.668,7.668,0,0,0-.2,3.811,6.281,6.281,0,0,1,.033,2.208,6.3,6.3,0,0,1-2.225-.016,7.669,7.669,0,0,0-3.811.2,7.433,7.433,0,0,0-2.748,2.5c-.425.54-1.292,1.636-1.636,1.636s-1.21-1.1-1.636-1.636a7.433,7.433,0,0,0-2.748-2.5,4.942,4.942,0,0,0-1.947-.344ZM45.25,38.51a5.917,5.917,0,0,1,2.208.033c1.668.18,3.582.393,4.891-.916s1.1-3.206.916-4.891a5.827,5.827,0,0,1-.033-2.192,2.264,2.264,0,0,1,.589-.687l6.412,6.4-8.162,3.5a1.636,1.636,0,0,0-1,1.5v4.351L44.579,39.1a2.243,2.243,0,0,1,.671-.589ZM96.874,57.142A31.117,31.117,0,0,1,83.854,82.43L75.61,88.319,67.365,82.43A31.117,31.117,0,0,1,54.345,57.142v-14.8L75.61,33.227l21.265,9.111Z" transform="translate(-2 -2)" fill="#8a8a8a"/>
        <path id="Path_915" data-name="Path 915" d="M53.387,24.116,37.029,30.659A1.636,1.636,0,0,0,36,32.179V42.5A27.667,27.667,0,0,0,46.436,64.215l6.535,5.234a1.636,1.636,0,0,0,2.045,0l6.535-5.234A27.667,27.667,0,0,0,71.987,42.5V32.179a1.636,1.636,0,0,0-1.029-1.52L54.6,24.116A1.636,1.636,0,0,0,53.387,24.116Zm15.329,9.17V42.5a24.409,24.409,0,0,1-9.209,19.158l-5.513,4.413-5.513-4.417A24.409,24.409,0,0,1,39.272,42.5V33.286L53.993,27.4Z" transform="translate(19.616 11.987)" fill="#8a8a8a"/>
        <path id="Path_916" data-name="Path 916" d="M43.606,40.44l-2.313,2.313L46.2,47.66a1.636,1.636,0,0,0,1.156.479h.054a1.636,1.636,0,0,0,1.178-.558L60.039,34.5l-2.463-2.153L47.27,44.12Z" transform="translate(22.981 17.291)" fill="#fff"/>
        <path id="Path_917" data-name="Path 917" d="M36.358,19.179a8.179,8.179,0,1,0-8.179,8.179,8.179,8.179,0,0,0,8.179-8.179Zm-13.086,0a4.907,4.907,0,1,1,4.907,4.907,4.907,4.907,0,0,1-4.907-4.907Z" transform="translate(9.444 3.722)" fill="#8a8a8a"/>
      </g>
    </g>
  </g>
</svg>
