<svg xmlns="http://www.w3.org/2000/svg" xmlns:xlink="http://www.w3.org/1999/xlink" viewBox="0 0 281 249">
  <defs>
    <filter id="Rectangle_397" x="0" y="0" width="281" height="249" filterUnits="userSpaceOnUse">
      <feOffset dy="3" input="SourceAlpha"/>
      <feGaussianBlur stdDeviation="3" result="blur"/>
      <feFlood flood-color="#95b2bb"/>
      <feComposite operator="in" in2="blur"/>
      <feComposite in="SourceGraphic"/>
    </filter>
  </defs>
  <g transform="matrix(1, 0, 0, 1, 0, 0)" filter="url(#Rectangle_397)">
    <path id="Rectangle_397-2" data-name="Rectangle 397" d="M2,0H227a36,36,0,0,1,36,36V195a36,36,0,0,1-36,36H36A36,36,0,0,1,0,195V2A2,2,0,0,1,2,0Z" transform="translate(9 6)" fill="#fff"/>
  </g>
  <path id="Path_4761" data-name="Path 4761" d="M-79.9-4.951h-3.618v3.823h4.263V0H-85V-10.664h5.713v1.143h-4.226v3.435H-79.9ZM-73.044-2.7H-76.23L-77,0h-1.545l3.2-10.664H-73.9L-70.73,0h-1.545Zm-2.849-1.179h2.52L-74.6-8.21h-.044Zm12.979.667.015.044a3.144,3.144,0,0,1-.879,2.446,3.458,3.458,0,0,1-2.5.872A3.393,3.393,0,0,1-68.892-.9a4.174,4.174,0,0,1-.974-2.948V-6.8a4.245,4.245,0,0,1,.959-2.952,3.3,3.3,0,0,1,2.578-1.062,3.614,3.614,0,0,1,2.549.846A3.118,3.118,0,0,1-62.893-7.5l-.015.044h-1.428a2.414,2.414,0,0,0-.5-1.681,1.938,1.938,0,0,0-1.494-.538,1.763,1.763,0,0,0-1.516.736,3.558,3.558,0,0,0-.535,2.113v2.981a3.532,3.532,0,0,0,.549,2.131,1.82,1.82,0,0,0,1.553.74,1.864,1.864,0,0,0,1.45-.531,2.485,2.485,0,0,0,.483-1.7ZM-54.141,0h-1.487V-4.7H-59.8V0h-1.487V-10.664H-59.8v4.827h4.175v-4.827h1.487Zm12-3.208.015.044A3.144,3.144,0,0,1-43-.718a3.458,3.458,0,0,1-2.5.872A3.393,3.393,0,0,1-48.113-.9a4.174,4.174,0,0,1-.974-2.948V-6.8a4.245,4.245,0,0,1,.959-2.952,3.3,3.3,0,0,1,2.578-1.062A3.614,3.614,0,0,1-43-9.972,3.118,3.118,0,0,1-42.114-7.5l-.015.044h-1.428a2.414,2.414,0,0,0-.5-1.681,1.938,1.938,0,0,0-1.494-.538,1.763,1.763,0,0,0-1.516.736A3.558,3.558,0,0,0-47.6-6.826v2.981a3.532,3.532,0,0,0,.549,2.131,1.82,1.82,0,0,0,1.553.74,1.864,1.864,0,0,0,1.45-.531,2.485,2.485,0,0,0,.483-1.7Zm6.343.513h-3.186L-39.749,0h-1.545l3.2-10.664h1.443L-33.479,0h-1.545Zm-2.849-1.179h2.52l-1.23-4.336H-37.4ZM-25.1,0h-1.494l-4.131-7.866-.044.015V0h-1.487V-10.664h1.487l4.131,7.844.044-.007v-7.837H-25.1Zm2.036,0V-10.664h3.025a3.543,3.543,0,0,1,2.823,1.282,4.9,4.9,0,0,1,1.095,3.3V-4.57a4.879,4.879,0,0,1-1.095,3.3A3.551,3.551,0,0,1-20.039,0Zm1.487-9.521v8.394h1.538a2.034,2.034,0,0,0,1.758-.963,4.3,4.3,0,0,0,.659-2.479V-6.1a4.259,4.259,0,0,0-.659-2.457,2.034,2.034,0,0,0-1.758-.963ZM-12.722,0h-1.487V-10.664h1.487Zm2.175,0V-10.664h3.025A3.543,3.543,0,0,1-4.7-9.382,4.9,4.9,0,0,1-3.6-6.086V-4.57A4.879,4.879,0,0,1-4.7-1.274,3.551,3.551,0,0,1-7.522,0ZM-9.06-9.521v8.394h1.538a2.034,2.034,0,0,0,1.758-.963A4.3,4.3,0,0,0-5.1-4.57V-6.1a4.259,4.259,0,0,0-.659-2.457,2.034,2.034,0,0,0-1.758-.963ZM2.739-2.7H-.447L-1.216,0H-2.761l3.2-10.664H1.882L5.054,0H3.508ZM-.11-3.875H2.41L1.179-8.21H1.135ZM11.711-9.521H8.884V0H7.39V-9.521H4.585v-1.143h7.126Zm6.379,4.57H14.473v3.823h4.263V0h-5.75V-10.664H18.7v1.143H14.473v3.435h3.618ZM28.242-2.7H25.056L24.287,0H22.742l3.2-10.664h1.443L30.557,0H29.011ZM25.393-3.875h2.52L26.682-8.21h-.044Zm11.25,1.194a1.752,1.752,0,0,0-.417-1.2,3.657,3.657,0,0,0-1.472-.861,6.043,6.043,0,0,1-2.307-1.208,2.546,2.546,0,0,1-.806-1.97A2.7,2.7,0,0,1,32.531-10a3.243,3.243,0,0,1,2.281-.817,3.179,3.179,0,0,1,2.373.908,3.018,3.018,0,0,1,.864,2.278l-.015.044H36.606a2.242,2.242,0,0,0-.5-1.516A1.646,1.646,0,0,0,34.8-9.683a1.544,1.544,0,0,0-1.227.5,1.823,1.823,0,0,0-.436,1.245A1.545,1.545,0,0,0,33.6-6.79a4.449,4.449,0,0,0,1.553.857,5.463,5.463,0,0,1,2.219,1.245A2.71,2.71,0,0,1,38.13-2.7a2.6,2.6,0,0,1-.9,2.076,3.481,3.481,0,0,1-2.355.773,3.79,3.79,0,0,1-2.446-.835,2.8,2.8,0,0,1-1-2.4l.015-.044h1.436A2.107,2.107,0,0,0,33.453-1.5a2.012,2.012,0,0,0,1.425.535,1.76,1.76,0,0,0,1.3-.465A1.68,1.68,0,0,0,36.643-2.681Zm8.013,0a1.752,1.752,0,0,0-.417-1.2,3.657,3.657,0,0,0-1.472-.861,6.043,6.043,0,0,1-2.307-1.208,2.546,2.546,0,0,1-.806-1.97A2.7,2.7,0,0,1,40.543-10a3.243,3.243,0,0,1,2.281-.817A3.179,3.179,0,0,1,45.2-9.91a3.018,3.018,0,0,1,.864,2.278l-.015.044H44.619a2.242,2.242,0,0,0-.5-1.516,1.646,1.646,0,0,0-1.311-.579,1.544,1.544,0,0,0-1.227.5,1.823,1.823,0,0,0-.436,1.245,1.545,1.545,0,0,0,.461,1.15,4.449,4.449,0,0,0,1.553.857,5.463,5.463,0,0,1,2.219,1.245A2.71,2.71,0,0,1,46.143-2.7a2.6,2.6,0,0,1-.9,2.076,3.481,3.481,0,0,1-2.355.773,3.79,3.79,0,0,1-2.446-.835,2.8,2.8,0,0,1-1-2.4l.015-.044h1.436A2.107,2.107,0,0,0,41.466-1.5a2.012,2.012,0,0,0,1.425.535,1.76,1.76,0,0,0,1.3-.465A1.68,1.68,0,0,0,44.656-2.681ZM52.91-4.951H49.292v3.823h4.263V0h-5.75V-10.664h5.713v1.143H49.292v3.435H52.91Zm7,2.271a1.752,1.752,0,0,0-.417-1.2,3.657,3.657,0,0,0-1.472-.861,6.043,6.043,0,0,1-2.307-1.208,2.546,2.546,0,0,1-.806-1.97A2.7,2.7,0,0,1,55.8-10a3.243,3.243,0,0,1,2.281-.817,3.179,3.179,0,0,1,2.373.908,3.018,3.018,0,0,1,.864,2.278l-.015.044H59.875a2.242,2.242,0,0,0-.5-1.516,1.646,1.646,0,0,0-1.311-.579,1.544,1.544,0,0,0-1.227.5A1.823,1.823,0,0,0,56.4-7.939a1.545,1.545,0,0,0,.461,1.15,4.449,4.449,0,0,0,1.553.857,5.463,5.463,0,0,1,2.219,1.245A2.71,2.71,0,0,1,61.4-2.7a2.6,2.6,0,0,1-.9,2.076,3.481,3.481,0,0,1-2.355.773A3.79,3.79,0,0,1,55.7-.681a2.8,2.8,0,0,1-1-2.4l.015-.044h1.436A2.107,2.107,0,0,0,56.722-1.5a2.012,2.012,0,0,0,1.425.535,1.76,1.76,0,0,0,1.3-.465A1.68,1.68,0,0,0,59.912-2.681Zm8.013,0a1.752,1.752,0,0,0-.417-1.2,3.657,3.657,0,0,0-1.472-.861,6.043,6.043,0,0,1-2.307-1.208,2.546,2.546,0,0,1-.806-1.97A2.7,2.7,0,0,1,63.812-10a3.243,3.243,0,0,1,2.281-.817,3.179,3.179,0,0,1,2.373.908,3.018,3.018,0,0,1,.864,2.278l-.015.044H67.888a2.242,2.242,0,0,0-.5-1.516,1.646,1.646,0,0,0-1.311-.579,1.544,1.544,0,0,0-1.227.5,1.823,1.823,0,0,0-.436,1.245,1.545,1.545,0,0,0,.461,1.15,4.449,4.449,0,0,0,1.553.857A5.463,5.463,0,0,1,68.65-4.687,2.71,2.71,0,0,1,69.412-2.7a2.6,2.6,0,0,1-.9,2.076A3.481,3.481,0,0,1,66.16.154a3.79,3.79,0,0,1-2.446-.835,2.8,2.8,0,0,1-1-2.4l.015-.044H64.16A2.107,2.107,0,0,0,64.735-1.5a2.012,2.012,0,0,0,1.425.535,1.76,1.76,0,0,0,1.3-.465A1.68,1.68,0,0,0,67.925-2.681Zm8.254-2.271H72.561v3.823h4.263V0h-5.75V-10.664h5.713v1.143H72.561v3.435h3.618ZM78.318,0V-10.664h3.025a3.543,3.543,0,0,1,2.823,1.282,4.9,4.9,0,0,1,1.095,3.3V-4.57a4.879,4.879,0,0,1-1.095,3.3A3.551,3.551,0,0,1,81.343,0ZM79.8-9.521v8.394h1.538A2.034,2.034,0,0,0,83.1-2.091,4.3,4.3,0,0,0,83.76-4.57V-6.1A4.259,4.259,0,0,0,83.1-8.558a2.034,2.034,0,0,0-1.758-.963Zm-152.944,17h-2.827V17h-1.494V7.479h-2.805V6.336h7.126ZM-64.717,17H-66.2V12.3h-4.175V17h-1.487V6.336h1.487v4.827H-66.2V6.336h1.487Zm3.516-4.592V17h-1.487V6.343h3.142a3.35,3.35,0,0,1,2.377.784,2.927,2.927,0,0,1,.839,2.249,2.7,2.7,0,0,1-.392,1.461,2.583,2.583,0,0,1-1.124.97,2.041,2.041,0,0,1,1.183.923,3.218,3.218,0,0,1,.363,1.6v.93a4.182,4.182,0,0,0,.1.916,1.283,1.283,0,0,0,.337.659V17H-57.4a1.268,1.268,0,0,1-.326-.736,6.64,6.64,0,0,1-.077-1.022v-.9a2.209,2.209,0,0,0-.414-1.414,1.384,1.384,0,0,0-1.146-.52Zm0-1.135h1.582a1.746,1.746,0,0,0,1.362-.487A1.99,1.99,0,0,0-57.817,9.4a2.133,2.133,0,0,0-.428-1.421,1.61,1.61,0,0,0-1.3-.505H-61.2Zm14.033,1.868A4.07,4.07,0,0,1-48.193,16.1a3.648,3.648,0,0,1-2.747,1.058,3.548,3.548,0,0,1-2.7-1.058,4.124,4.124,0,0,1-1-2.955V10.21a4.154,4.154,0,0,1,1-2.959,3.52,3.52,0,0,1,2.7-1.069A3.647,3.647,0,0,1-48.2,7.248a4.088,4.088,0,0,1,1.029,2.963Zm-1.479-2.952a3.244,3.244,0,0,0-.6-2.113,2.085,2.085,0,0,0-1.7-.721,1.98,1.98,0,0,0-1.644.721,3.333,3.333,0,0,0-.575,2.113V13.14a3.361,3.361,0,0,0,.579,2.131A1.986,1.986,0,0,0-50.94,16a2.075,2.075,0,0,0,1.7-.721,3.3,3.3,0,0,0,.593-2.135Zm10.2-3.853v7.053a3.742,3.742,0,0,1-1,2.769,3.5,3.5,0,0,1-2.585,1,3.393,3.393,0,0,1-2.538-1,3.785,3.785,0,0,1-.978-2.765V6.336h1.487v7.053a3.02,3.02,0,0,0,.56,1.937,1.791,1.791,0,0,0,1.469.7,1.866,1.866,0,0,0,1.512-.7,2.963,2.963,0,0,0,.575-1.941V6.336Zm8.708,9.272a3.292,3.292,0,0,1-1.212,1.077,4.331,4.331,0,0,1-2.142.469,3.646,3.646,0,0,1-2.692-1.018,3.915,3.915,0,0,1-1.022-2.9V10.071A3.95,3.95,0,0,1-35.815,7.2a3.5,3.5,0,0,1,2.629-1.018,3.485,3.485,0,0,1,2.5.835,2.915,2.915,0,0,1,.85,2.285l-.015.044h-1.4a2.124,2.124,0,0,0-.487-1.49,1.827,1.827,0,0,0-1.417-.531,1.933,1.933,0,0,0-1.578.7,3.131,3.131,0,0,0-.575,2.032v3.179a3.162,3.162,0,0,0,.6,2.076,2,2,0,0,0,1.622.714,2.623,2.623,0,0,0,1.2-.234,1.608,1.608,0,0,0,.656-.571V12.737h-1.963V11.653h3.457ZM-20.618,17H-22.1V12.3h-4.175V17h-1.487V6.336h1.487v4.827H-22.1V6.336h1.487Zm12.136-1.392a3.292,3.292,0,0,1-1.212,1.077,4.331,4.331,0,0,1-2.142.469,3.646,3.646,0,0,1-2.692-1.018,3.915,3.915,0,0,1-1.022-2.9V10.071A3.95,3.95,0,0,1-14.561,7.2a3.5,3.5,0,0,1,2.629-1.018,3.485,3.485,0,0,1,2.5.835A2.915,2.915,0,0,1-8.584,9.3l-.015.044H-10a2.124,2.124,0,0,0-.487-1.49A1.827,1.827,0,0,0-11.9,7.325a1.933,1.933,0,0,0-1.578.7,3.131,3.131,0,0,0-.575,2.032v3.179a3.162,3.162,0,0,0,.6,2.076,2,2,0,0,0,1.622.714,2.623,2.623,0,0,0,1.2-.234,1.608,1.608,0,0,0,.656-.571V12.737h-1.963V11.653h3.457ZM.667,13.14A4.07,4.07,0,0,1-.359,16.1a3.648,3.648,0,0,1-2.747,1.058,3.548,3.548,0,0,1-2.7-1.058,4.124,4.124,0,0,1-1-2.955V10.21a4.154,4.154,0,0,1,1-2.959,3.52,3.52,0,0,1,2.7-1.069A3.647,3.647,0,0,1-.363,7.248,4.088,4.088,0,0,1,.667,10.21ZM-.813,10.188a3.244,3.244,0,0,0-.6-2.113,2.085,2.085,0,0,0-1.7-.721,1.98,1.98,0,0,0-1.644.721,3.333,3.333,0,0,0-.575,2.113V13.14a3.361,3.361,0,0,0,.579,2.131A1.986,1.986,0,0,0-3.105,16a2.075,2.075,0,0,0,1.7-.721A3.3,3.3,0,0,0-.813,13.14Zm5.991,4.365.154.652h.044l.154-.645L7.749,6.336H9.338L6.079,17H4.629L1.377,6.336H2.959Zm10.43-2.5H11.99v3.823h4.263V17H10.5V6.336h5.713V7.479H11.99v3.435h3.618Zm3.618.359V17H17.739V6.343h3.142a3.35,3.35,0,0,1,2.377.784A2.927,2.927,0,0,1,24.1,9.375a2.7,2.7,0,0,1-.392,1.461,2.583,2.583,0,0,1-1.124.97,2.041,2.041,0,0,1,1.183.923,3.218,3.218,0,0,1,.363,1.6v.93a4.182,4.182,0,0,0,.1.916,1.283,1.283,0,0,0,.337.659V17H23.027a1.268,1.268,0,0,1-.326-.736,6.64,6.64,0,0,1-.077-1.022v-.9a2.209,2.209,0,0,0-.414-1.414,1.384,1.384,0,0,0-1.146-.52Zm0-1.135h1.582a1.746,1.746,0,0,0,1.362-.487A1.99,1.99,0,0,0,22.61,9.4a2.133,2.133,0,0,0-.428-1.421,1.61,1.61,0,0,0-1.3-.505H19.226ZM33.237,17H31.743L27.612,9.134l-.044.015V17H26.082V6.336h1.487L31.7,14.18l.044-.007V6.336h1.494Zm6.482-1.963h.044l2.556-8.7h1.9V17H42.744V9.317L42.7,9.31,40.254,17H39.236L36.753,9.192l-.044.007V17H35.229V6.336H37.17Zm11.6-2.988H47.7v3.823h4.263V17h-5.75V6.336h5.713V7.479H47.7v3.435h3.618ZM60.615,17H59.121L54.99,9.134l-.044.015V17H53.459V6.336h1.487l4.131,7.844.044-.007V6.336h1.494Zm8.2-9.521H65.991V17H64.5V7.479H61.692V6.336h7.126Zm2.673.381-.623,2.278h-.74l.022-2.263V6.336h1.34Zm6.914,6.46a1.752,1.752,0,0,0-.417-1.2,3.657,3.657,0,0,0-1.472-.861,6.043,6.043,0,0,1-2.307-1.208,2.546,2.546,0,0,1-.806-1.97A2.7,2.7,0,0,1,74.293,7a3.243,3.243,0,0,1,2.281-.817,3.179,3.179,0,0,1,2.373.908,3.018,3.018,0,0,1,.864,2.278l-.015.044H78.369a2.242,2.242,0,0,0-.5-1.516,1.646,1.646,0,0,0-1.311-.579,1.544,1.544,0,0,0-1.227.5A1.823,1.823,0,0,0,74.9,9.061a1.545,1.545,0,0,0,.461,1.15,4.449,4.449,0,0,0,1.553.857,5.463,5.463,0,0,1,2.219,1.245,2.71,2.71,0,0,1,.762,1.992,2.6,2.6,0,0,1-.9,2.076,3.481,3.481,0,0,1-2.355.773,3.79,3.79,0,0,1-2.446-.835,2.8,2.8,0,0,1-1-2.4l.015-.044h1.436a2.107,2.107,0,0,0,.575,1.619,2.012,2.012,0,0,0,1.425.535,1.76,1.76,0,0,0,1.3-.465A1.68,1.68,0,0,0,78.406,14.319ZM-64.362,34h-1.494l-4.131-7.866-.044.015V34h-1.487V23.336h1.487L-65.9,31.18l.044-.007V23.336h1.494Zm7.141-4.951h-3.618v3.823h4.263V34h-5.75V23.336h5.713v1.143h-4.226v3.435h3.618Zm9.258,1.868h.044l1.384-7.581h1.56L-47.164,34h-1.37l-1.86-7.566h-.044L-52.306,34h-1.37l-2.19-10.664H-54.3l1.392,7.566h.044l1.794-7.566h1.3ZM-40.411,34V23.336h2.952a3.626,3.626,0,0,1,2.391.718,2.644,2.644,0,0,1,.861,2.153,2.39,2.39,0,0,1-.374,1.326,2.182,2.182,0,0,1-1.04.85,2.069,2.069,0,0,1,1.432.883,2.954,2.954,0,0,1,.5,1.718,2.887,2.887,0,0,1-.846,2.245A3.33,3.33,0,0,1-36.866,34Zm1.487-4.973v3.845h2.058a1.591,1.591,0,0,0,1.245-.487,2.013,2.013,0,0,0,.439-1.4,2.163,2.163,0,0,0-.428-1.406,1.545,1.545,0,0,0-1.2-.557h-2.109Zm0-1.069h1.692a1.516,1.516,0,0,0,1.124-.465,1.791,1.791,0,0,0,.406-1.256,1.773,1.773,0,0,0-.447-1.318,1.8,1.8,0,0,0-1.311-.439h-1.465Zm11.235,4.08h.044l2.556-8.7h1.9V34h-1.479V26.317l-.044-.007L-27.155,34h-1.018l-2.483-7.808-.044.007V34h-1.479V23.336h1.941Zm11.6-2.988h-3.618v3.823h4.263V34h-5.75V23.336h5.713v1.143h-4.226v3.435h3.618Zm8.518-4.57H-10.4V34h-1.494V24.479H-14.7V23.336H-7.57ZM3.8,32.608a3.292,3.292,0,0,1-1.212,1.077,4.331,4.331,0,0,1-2.142.469,3.646,3.646,0,0,1-2.692-1.018,3.915,3.915,0,0,1-1.022-2.9V27.071A3.95,3.95,0,0,1-2.274,24.2,3.5,3.5,0,0,1,.355,23.182a3.485,3.485,0,0,1,2.5.835A2.915,2.915,0,0,1,3.7,26.3l-.015.044h-1.4a2.124,2.124,0,0,0-.487-1.49,1.827,1.827,0,0,0-1.417-.531,1.933,1.933,0,0,0-1.578.7,3.131,3.131,0,0,0-.575,2.032v3.179a3.162,3.162,0,0,0,.6,2.076,2,2,0,0,0,1.622.714,2.623,2.623,0,0,0,1.2-.234,1.608,1.608,0,0,0,.656-.571V29.737H.348V28.653H3.8Zm8.95-9.272v7.053a3.742,3.742,0,0,1-1,2.769,3.5,3.5,0,0,1-2.585,1,3.393,3.393,0,0,1-2.538-1,3.785,3.785,0,0,1-.978-2.765V23.336H7.145v7.053a3.02,3.02,0,0,0,.56,1.937,1.791,1.791,0,0,0,1.469.7,1.866,1.866,0,0,0,1.512-.7,2.963,2.963,0,0,0,.575-1.941V23.336ZM16.278,34H14.791V23.336h1.487Zm2.175,0V23.336h3.025A3.543,3.543,0,0,1,24.3,24.618a4.9,4.9,0,0,1,1.095,3.3V29.43a4.879,4.879,0,0,1-1.095,3.3A3.551,3.551,0,0,1,21.478,34Zm1.487-9.521v8.394h1.538a2.034,2.034,0,0,0,1.758-.963A4.3,4.3,0,0,0,23.9,29.43V27.9a4.259,4.259,0,0,0-.659-2.457,2.034,2.034,0,0,0-1.758-.963Zm12.341,4.57H28.663v3.823h4.263V34h-5.75V23.336h5.713v1.143H28.663v3.435h3.618Zm3.625,3.823h4.314V34h-5.8V23.336h1.487ZM43.268,34H41.781V23.336h1.487ZM52.6,34H51.1l-4.131-7.866-.044.015V34H45.443V23.336H46.93l4.131,7.844.044-.007V23.336H52.6Zm7.141-4.951H56.122v3.823h4.263V34h-5.75V23.336h5.713v1.143H56.122v3.435H59.74Zm7,2.271a1.752,1.752,0,0,0-.417-1.2,3.657,3.657,0,0,0-1.472-.861,6.043,6.043,0,0,1-2.307-1.208,2.546,2.546,0,0,1-.806-1.97A2.7,2.7,0,0,1,62.629,24a3.243,3.243,0,0,1,2.281-.817,3.179,3.179,0,0,1,2.373.908,3.018,3.018,0,0,1,.864,2.278l-.015.044H66.705a2.242,2.242,0,0,0-.5-1.516,1.646,1.646,0,0,0-1.311-.579,1.544,1.544,0,0,0-1.227.5,1.823,1.823,0,0,0-.436,1.245,1.545,1.545,0,0,0,.461,1.15,4.449,4.449,0,0,0,1.553.857,5.463,5.463,0,0,1,2.219,1.245,2.71,2.71,0,0,1,.762,1.992,2.6,2.6,0,0,1-.9,2.076,3.481,3.481,0,0,1-2.355.773,3.79,3.79,0,0,1-2.446-.835,2.8,2.8,0,0,1-1-2.4l.015-.044h1.436a2.107,2.107,0,0,0,.575,1.619,2.012,2.012,0,0,0,1.425.535,1.76,1.76,0,0,0,1.3-.465A1.68,1.68,0,0,0,66.742,31.319ZM71.385,34h-1.5V32.513h1.5Z" transform="translate(141 175.273)" fill="#0054a5"/>
  <g id="copyright" transform="translate(91 42)">
    <path id="Path_904" data-name="Path 904" d="M74.974,14.45V94.6A3.281,3.281,0,0,1,71.7,97.874H6.272A3.281,3.281,0,0,1,3,94.6V6.272A3.281,3.281,0,0,1,6.272,3H63.523V14.45Z" transform="translate(-1.364 -1.364)" fill="#fff"/>
    <path id="Path_905" data-name="Path 905" d="M50.815,10V90.152a3.281,3.281,0,0,1-3.272,3.272H41a3.281,3.281,0,0,0,3.272-3.272V10Z" transform="translate(22.795 3.086)" fill="#dad5d3"/>
    <path id="Path_906" data-name="Path 906" d="M47.715,22.358c0,1.063-1,1.914-2.045,2.748a7.063,7.063,0,0,0-2.225,2.257c-.736,1.8.834,5.2-.523,6.559s-4.76-.213-6.559.523a7.063,7.063,0,0,0-2.257,2.225c-.834,1.047-1.685,2.045-2.748,2.045s-1.914-1-2.748-2.045a7.063,7.063,0,0,0-2.257-2.225c-1.8-.736-5.2.834-6.559-.523s.213-4.76-.523-6.559a7.063,7.063,0,0,0-2.225-2.257C16,24.271,15,23.421,15,22.358c0-2,3.55-3.272,4.269-5.005.736-1.8-.834-5.2.523-6.559s4.76.213,6.559-.523C28.086,9.55,29.362,6,31.358,6s3.272,3.55,5.005,4.269c1.8.736,5.2-.834,6.559.523s-.213,4.76.523,6.559C44.166,19.086,47.715,20.362,47.715,22.358Z" transform="translate(6.265 0.543)" fill="#64c1f7"/>
    <ellipse id="Ellipse_12" data-name="Ellipse 12" cx="6.677" cy="6.259" rx="6.677" ry="6.259" transform="translate(31.547 16.524)" fill="#1664ff"/>
    <path id="Path_907" data-name="Path 907" d="M78.8,29.815V45.7A32.682,32.682,0,0,1,65.089,72.315L55.9,78.887l-9.193-6.576c-.7-.507-1.39-1.031-2.045-1.6a32.152,32.152,0,0,1-5.938-6.543,31.287,31.287,0,0,1-3.451-6.543,29.848,29.848,0,0,1-1.816-6.543A31.042,31.042,0,0,1,33,45.7V29.815l3.468-1.489h.016l6.9-2.961L55.9,20Z" transform="translate(17.709 9.444)" fill="#e0e0e2"/>
    <path id="Path_908" data-name="Path 908" d="M71.172,29.815V45.7A32.682,32.682,0,0,1,57.46,72.315l-9.189,6.573L45,76.548l5.921-4.237A32.679,32.679,0,0,0,64.629,45.7V29.815L45,21.407,48.272,20Z" transform="translate(25.338 9.444)" fill="#c6c5ca"/>
    <path id="Path_909" data-name="Path 909" d="M69.715,31.543V41.865A26.172,26.172,0,0,1,59.9,62.3L53.358,67.53,46.815,62.3A26.172,26.172,0,0,1,37,41.865V31.543L53.358,25Z" transform="translate(20.252 12.623)" fill="#57a4ff"/>
    <path id="Path_910" data-name="Path 910" d="M64.629,31.543V41.865A26.172,26.172,0,0,1,54.815,62.3L48.272,67.53,45,64.913,48.272,62.3a26.172,26.172,0,0,0,9.815-20.431V31.543L45,26.309,48.272,25Z" transform="translate(25.338 12.623)" fill="#2488ff"/>
    <path id="Path_911" data-name="Path 911" d="M51.45,14.45H40V3Z" transform="translate(22.159 -1.364)" fill="#a8ddfd"/>
    <path id="Path_912" data-name="Path 912" d="M47.405,26.84,40.5,29.8h-.016L37.018,31.29v8.293L26.68,29.245a7.063,7.063,0,0,1,2.257-2.225c1.8-.736,5.2.834,6.559-.523s-.213-4.76.523-6.559a7.063,7.063,0,0,1,2.225-2.257Z" transform="translate(13.691 7.969)" fill="#1664ff"/>
    <path id="Path_913" data-name="Path 913" d="M32.144,29.245,21,40.384,19.86,29.965,9.44,28.82,20.58,17.68A7.063,7.063,0,0,1,22.8,19.937c.736,1.8-.834,5.2.523,6.559s4.76-.213,6.559.523a7.063,7.063,0,0,1,2.257,2.225Z" transform="translate(2.73 7.969)" fill="#1664ff"/>
    <path id="Path_914" data-name="Path 914" d="M99.148,39.753l-21.9-9.389V15.086a1.69,1.69,0,0,0-.474-1.161L65.321,2.474A1.69,1.69,0,0,0,64.159,2H6.907A4.922,4.922,0,0,0,2,6.907V95.238a4.922,4.922,0,0,0,4.907,4.907H72.338a4.922,4.922,0,0,0,4.907-4.907V91.165L85.768,85.1a34.454,34.454,0,0,0,14.378-27.955V41.258a1.636,1.636,0,0,0-1-1.5ZM65.795,7.578l5.872,5.872H65.795Zm8.179,87.66a1.636,1.636,0,0,1-1.636,1.636H6.907a1.636,1.636,0,0,1-1.636-1.636V6.907A1.636,1.636,0,0,1,6.907,5.272H62.523v9.815a1.636,1.636,0,0,0,1.636,1.636h9.815V30.364l-10.5,4.5-7.148-7.148A4.06,4.06,0,0,0,57.616,24.9c0-1.93-1.6-3.19-2.879-4.2a6.4,6.4,0,0,1-1.5-1.423,5.917,5.917,0,0,1,.033-2.208c.18-1.685.393-3.582-.916-4.891s-3.222-1.1-4.891-.916a5.827,5.827,0,0,1-2.192.033,6.1,6.1,0,0,1-1.439-1.5c-1.014-1.292-2.274-2.879-4.2-2.879s-3.19,1.6-4.2,2.879A6.4,6.4,0,0,1,34,11.291a5.917,5.917,0,0,1-2.208-.033c-1.685-.18-3.582-.393-4.891.916s-1.1,3.206-.916,4.891a5.827,5.827,0,0,1,.033,2.192,6.1,6.1,0,0,1-1.5,1.439c-1.292,1.014-2.879,2.274-2.879,4.2a4.06,4.06,0,0,0,1.292,2.814l-9.913,9.913a1.636,1.636,0,0,0-.376,1.7,1.613,1.613,0,0,0,1.358,1.08L23.1,41.422l1.014,9.111a1.613,1.613,0,0,0,1.08,1.358,1.57,1.57,0,0,0,.54.1,1.647,1.647,0,0,0,1.161-.474L36.809,41.6a3.708,3.708,0,0,0,5.627,0l8.637,8.62v6.919a35.687,35.687,0,0,0,.213,3.746H11.815v3.272H51.809c.245,1.112.523,2.192.851,3.272H11.815V70.7H53.887a35.728,35.728,0,0,0,1.619,3.272H11.815v3.272H57.6a32.037,32.037,0,0,0,2.683,3.272H11.815v3.272H63.75c.556.442,1.129.883,1.7,1.309l8.522,6.069ZM26.9,37.627c1.309,1.309,3.206,1.1,4.891.916a6.191,6.191,0,0,1,2.192-.033,2.264,2.264,0,0,1,.687.589l-7.672,7.688-.785-7.034a1.636,1.636,0,0,0-1.439-1.439l-7.034-.785,7.688-7.672a2.243,2.243,0,0,1,.589.671,5.916,5.916,0,0,1-.033,2.208C25.8,34.421,25.588,36.318,26.9,37.627Zm6.4-2.486a17.892,17.892,0,0,0-1.865.147,6.281,6.281,0,0,1-2.208.033,5.936,5.936,0,0,1,.016-2.225,7.668,7.668,0,0,0-.2-3.811,7.433,7.433,0,0,0-2.5-2.748C26,26.111,24.9,25.244,24.9,24.9s1.1-1.21,1.636-1.636a7.433,7.433,0,0,0,2.5-2.748,7.668,7.668,0,0,0,.2-3.811A6.281,6.281,0,0,1,29.2,14.5a5.936,5.936,0,0,1,2.225.016,7.668,7.668,0,0,0,3.811-.2,7.433,7.433,0,0,0,2.748-2.5c.425-.54,1.292-1.636,1.636-1.636s1.21,1.1,1.636,1.636a7.433,7.433,0,0,0,2.748,2.5,7.668,7.668,0,0,0,3.811.2,6.281,6.281,0,0,1,2.208-.033,5.936,5.936,0,0,1-.016,2.225,7.668,7.668,0,0,0,.2,3.811,7.433,7.433,0,0,0,2.5,2.748c.54.425,1.636,1.292,1.636,1.636s-1.1,1.21-1.636,1.636a7.433,7.433,0,0,0-2.5,2.748,7.668,7.668,0,0,0-.2,3.811,6.281,6.281,0,0,1,.033,2.208,6.3,6.3,0,0,1-2.225-.016,7.669,7.669,0,0,0-3.811.2,7.433,7.433,0,0,0-2.748,2.5c-.425.54-1.292,1.636-1.636,1.636s-1.21-1.1-1.636-1.636a7.433,7.433,0,0,0-2.748-2.5,4.942,4.942,0,0,0-1.947-.344ZM45.25,38.51a5.917,5.917,0,0,1,2.208.033c1.668.18,3.582.393,4.891-.916s1.1-3.206.916-4.891a5.827,5.827,0,0,1-.033-2.192,2.264,2.264,0,0,1,.589-.687l6.412,6.4-8.162,3.5a1.636,1.636,0,0,0-1,1.5v4.351L44.579,39.1a2.243,2.243,0,0,1,.671-.589ZM96.874,57.142A31.117,31.117,0,0,1,83.854,82.43L75.61,88.319,67.365,82.43A31.117,31.117,0,0,1,54.345,57.142v-14.8L75.61,33.227l21.265,9.111Z" transform="translate(-2 -2)" fill="#8a8a8a"/>
    <path id="Path_915" data-name="Path 915" d="M53.387,24.116,37.029,30.659A1.636,1.636,0,0,0,36,32.179V42.5A27.667,27.667,0,0,0,46.436,64.215l6.535,5.234a1.636,1.636,0,0,0,2.045,0l6.535-5.234A27.667,27.667,0,0,0,71.987,42.5V32.179a1.636,1.636,0,0,0-1.029-1.52L54.6,24.116A1.636,1.636,0,0,0,53.387,24.116Zm15.329,9.17V42.5a24.409,24.409,0,0,1-9.209,19.158l-5.513,4.413-5.513-4.417A24.409,24.409,0,0,1,39.272,42.5V33.286L53.993,27.4Z" transform="translate(19.616 11.987)" fill="#8a8a8a"/>
    <path id="Path_916" data-name="Path 916" d="M43.606,40.44l-2.313,2.313L46.2,47.66a1.636,1.636,0,0,0,1.156.479h.054a1.636,1.636,0,0,0,1.178-.558L60.039,34.5l-2.463-2.153L47.27,44.12Z" transform="translate(22.981 17.291)" fill="#fff"/>
    <path id="Path_917" data-name="Path 917" d="M36.358,19.179a8.179,8.179,0,1,0-8.179,8.179,8.179,8.179,0,0,0,8.179-8.179Zm-13.086,0a4.907,4.907,0,1,1,4.907,4.907,4.907,4.907,0,0,1-4.907-4.907Z" transform="translate(9.444 3.722)" fill="#8a8a8a"/>
  </g>
</svg>
