<svg xmlns="http://www.w3.org/2000/svg" xmlns:xlink="http://www.w3.org/1999/xlink" viewBox="0 0 281 249">
  <defs>
    <filter id="Rectangle_400" x="0" y="0" width="281" height="249" filterUnits="userSpaceOnUse">
      <feOffset dy="3" input="SourceAlpha"/>
      <feGaussianBlur stdDeviation="3" result="blur"/>
      <feFlood flood-color="#95b2bb"/>
      <feComposite operator="in" in2="blur"/>
      <feComposite in="SourceGraphic"/>
    </filter>
  </defs>
  <g id="Group_1074" data-name="Group 1074" transform="translate(-1104)">
    <g transform="matrix(1, 0, 0, 1, 1104, 0)" filter="url(#Rectangle_400)">
      <path id="Rectangle_400-2" data-name="Rectangle 400" d="M2,0H227a36,36,0,0,1,36,36V195a36,36,0,0,1-36,36H36A36,36,0,0,1,0,195V2A2,2,0,0,1,2,0Z" transform="translate(9 6)" fill="#fff"/>
    </g>
    <g id="Group_1073" data-name="Group 1073">
      <path id="Path_4760" data-name="Path 4760" d="M-95.614-3.86A4.07,4.07,0,0,1-96.639-.9,3.648,3.648,0,0,1-99.386.154a3.548,3.548,0,0,1-2.7-1.058,4.124,4.124,0,0,1-1-2.955V-6.79a4.154,4.154,0,0,1,1-2.959,3.52,3.52,0,0,1,2.7-1.069,3.647,3.647,0,0,1,2.75,1.066A4.088,4.088,0,0,1-95.614-6.79Zm-1.479-2.952a3.244,3.244,0,0,0-.6-2.113,2.085,2.085,0,0,0-1.7-.721,1.98,1.98,0,0,0-1.644.721,3.333,3.333,0,0,0-.575,2.113V-3.86a3.361,3.361,0,0,0,.579,2.131A1.986,1.986,0,0,0-99.386-1a2.075,2.075,0,0,0,1.7-.721,3.3,3.3,0,0,0,.593-2.135Zm10.2-3.853v7.053a3.742,3.742,0,0,1-1,2.769,3.5,3.5,0,0,1-2.585,1,3.393,3.393,0,0,1-2.538-1,3.785,3.785,0,0,1-.978-2.765v-7.053H-92.5v7.053a3.02,3.02,0,0,0,.56,1.937,1.791,1.791,0,0,0,1.469.7,1.866,1.866,0,0,0,1.512-.7,2.963,2.963,0,0,0,.575-1.941v-7.053Zm3.384,6.072V0h-1.487V-10.657h3.142a3.35,3.35,0,0,1,2.377.784,2.927,2.927,0,0,1,.839,2.249,2.7,2.7,0,0,1-.392,1.461,2.583,2.583,0,0,1-1.124.97,2.041,2.041,0,0,1,1.183.923,3.218,3.218,0,0,1,.363,1.6v.93a4.182,4.182,0,0,0,.1.916,1.283,1.283,0,0,0,.337.659V0h-1.531a1.268,1.268,0,0,1-.326-.736,6.64,6.64,0,0,1-.077-1.022v-.9a2.209,2.209,0,0,0-.414-1.414,1.384,1.384,0,0,0-1.146-.52Zm0-1.135h1.582a1.746,1.746,0,0,0,1.362-.487A1.99,1.99,0,0,0-80.123-7.6a2.133,2.133,0,0,0-.428-1.421,1.61,1.61,0,0,0-1.3-.505h-1.655ZM-66.178-3.86A4.07,4.07,0,0,1-67.2-.9,3.648,3.648,0,0,1-69.95.154,3.548,3.548,0,0,1-72.653-.9a4.124,4.124,0,0,1-1-2.955V-6.79a4.154,4.154,0,0,1,1-2.959,3.52,3.52,0,0,1,2.7-1.069,3.647,3.647,0,0,1,2.75,1.066A4.088,4.088,0,0,1-66.178-6.79Zm-1.479-2.952a3.244,3.244,0,0,0-.6-2.113,2.085,2.085,0,0,0-1.7-.721,1.98,1.98,0,0,0-1.644.721,3.333,3.333,0,0,0-.575,2.113V-3.86A3.361,3.361,0,0,0-71.6-1.729,1.986,1.986,0,0,0-69.95-1a2.075,2.075,0,0,0,1.7-.721,3.3,3.3,0,0,0,.593-2.135Zm10.342,3.728h.044l1.384-7.581h1.56L-56.517,0h-1.37l-1.86-7.566h-.044L-61.659,0h-1.37l-2.19-10.664h1.567L-62.26-3.1h.044l1.794-7.566h1.3ZM-45.9,0H-47.4L-51.53-7.866l-.044.015V0H-53.06V-10.664h1.487l4.131,7.844.044-.007v-7.837H-45.9Zm6.819-4.2V0h-1.487V-10.664h3.464a3.152,3.152,0,0,1,2.377.89,3.224,3.224,0,0,1,.861,2.34,3.221,3.221,0,0,1-.861,2.344,3.159,3.159,0,0,1-2.377.886Zm0-1.143h1.978a1.543,1.543,0,0,0,1.311-.59,2.386,2.386,0,0,0,.447-1.483,2.46,2.46,0,0,0-.443-1.5,1.53,1.53,0,0,0-1.315-.6h-1.978Zm8.269.754V0H-32.3V-10.657h3.142a3.35,3.35,0,0,1,2.377.784,2.927,2.927,0,0,1,.839,2.249,2.7,2.7,0,0,1-.392,1.461,2.583,2.583,0,0,1-1.124.97,2.041,2.041,0,0,1,1.183.923,3.218,3.218,0,0,1,.363,1.6v.93a4.182,4.182,0,0,0,.1.916,1.283,1.283,0,0,0,.337.659V0h-1.531a1.268,1.268,0,0,1-.326-.736,6.64,6.64,0,0,1-.077-1.022v-.9a2.209,2.209,0,0,0-.414-1.414,1.384,1.384,0,0,0-1.146-.52Zm0-1.135h1.582a1.746,1.746,0,0,0,1.362-.487A1.99,1.99,0,0,0-27.433-7.6a2.133,2.133,0,0,0-.428-1.421,1.61,1.61,0,0,0-1.3-.505h-1.655ZM-16.783-3.86A4.07,4.07,0,0,1-17.809-.9,3.648,3.648,0,0,1-20.555.154,3.548,3.548,0,0,1-23.258-.9a4.124,4.124,0,0,1-1-2.955V-6.79a4.154,4.154,0,0,1,1-2.959,3.52,3.52,0,0,1,2.7-1.069,3.647,3.647,0,0,1,2.75,1.066A4.088,4.088,0,0,1-16.783-6.79Zm-1.479-2.952a3.244,3.244,0,0,0-.6-2.113,2.085,2.085,0,0,0-1.7-.721,1.98,1.98,0,0,0-1.644.721,3.333,3.333,0,0,0-.575,2.113V-3.86A3.361,3.361,0,0,0-22.2-1.729,1.986,1.986,0,0,0-20.555-1a2.075,2.075,0,0,0,1.7-.721,3.3,3.3,0,0,0,.593-2.135Zm9.4-2.71h-2.827V0H-13.18V-9.521h-2.805v-1.143h7.126ZM-.612-3.86A4.07,4.07,0,0,1-1.637-.9,3.648,3.648,0,0,1-4.384.154,3.548,3.548,0,0,1-7.086-.9a4.124,4.124,0,0,1-1-2.955V-6.79a4.154,4.154,0,0,1,1-2.959,3.52,3.52,0,0,1,2.7-1.069,3.647,3.647,0,0,1,2.75,1.066A4.088,4.088,0,0,1-.612-6.79ZM-2.091-6.812a3.244,3.244,0,0,0-.6-2.113,2.085,2.085,0,0,0-1.7-.721,1.98,1.98,0,0,0-1.644.721A3.333,3.333,0,0,0-6.61-6.812V-3.86a3.361,3.361,0,0,0,.579,2.131A1.986,1.986,0,0,0-4.384-1a2.075,2.075,0,0,0,1.7-.721A3.3,3.3,0,0,0-2.091-3.86Zm9.9,3.6.015.044A3.144,3.144,0,0,1,6.94-.718a3.458,3.458,0,0,1-2.5.872A3.393,3.393,0,0,1,1.827-.9,4.174,4.174,0,0,1,.853-3.845V-6.8a4.245,4.245,0,0,1,.959-2.952,3.3,3.3,0,0,1,2.578-1.062,3.614,3.614,0,0,1,2.549.846A3.118,3.118,0,0,1,7.826-7.5l-.015.044H6.383a2.414,2.414,0,0,0-.5-1.681,1.938,1.938,0,0,0-1.494-.538,1.763,1.763,0,0,0-1.516.736A3.558,3.558,0,0,0,2.34-6.826v2.981a3.532,3.532,0,0,0,.549,2.131,1.82,1.82,0,0,0,1.553.74,1.864,1.864,0,0,0,1.45-.531,2.485,2.485,0,0,0,.483-1.7Zm8.8-.652A4.07,4.07,0,0,1,15.582-.9,3.648,3.648,0,0,1,12.836.154,3.548,3.548,0,0,1,10.133-.9a4.124,4.124,0,0,1-1-2.955V-6.79a4.154,4.154,0,0,1,1-2.959,3.52,3.52,0,0,1,2.7-1.069,3.647,3.647,0,0,1,2.75,1.066A4.088,4.088,0,0,1,16.608-6.79ZM15.128-6.812a3.244,3.244,0,0,0-.6-2.113,2.085,2.085,0,0,0-1.7-.721,1.98,1.98,0,0,0-1.644.721,3.333,3.333,0,0,0-.575,2.113V-3.86a3.361,3.361,0,0,0,.579,2.131A1.986,1.986,0,0,0,12.836-1a2.075,2.075,0,0,0,1.7-.721,3.3,3.3,0,0,0,.593-2.135Zm4.709,5.684h4.314V0h-5.8V-10.664h1.487ZM35.255-9.521H32.428V0H30.934V-9.521H28.129v-1.143h7.126ZM43.5-3.86A4.07,4.07,0,0,1,42.477-.9,3.648,3.648,0,0,1,39.73.154,3.548,3.548,0,0,1,37.028-.9a4.124,4.124,0,0,1-1-2.955V-6.79a4.154,4.154,0,0,1,1-2.959,3.52,3.52,0,0,1,2.7-1.069,3.647,3.647,0,0,1,2.75,1.066A4.088,4.088,0,0,1,43.5-6.79ZM42.023-6.812a3.244,3.244,0,0,0-.6-2.113,2.085,2.085,0,0,0-1.7-.721,1.98,1.98,0,0,0-1.644.721A3.333,3.333,0,0,0,37.5-6.812V-3.86a3.361,3.361,0,0,0,.579,2.131A1.986,1.986,0,0,0,39.73-1a2.075,2.075,0,0,0,1.7-.721,3.3,3.3,0,0,0,.593-2.135ZM53.756-4.739H50.028V0H48.541V-10.664H54.4v1.143H50.028v3.647h3.728Zm9-5.925v7.053a3.742,3.742,0,0,1-1,2.769,3.5,3.5,0,0,1-2.585,1,3.393,3.393,0,0,1-2.538-1,3.785,3.785,0,0,1-.978-2.765v-7.053h1.487v7.053a3.02,3.02,0,0,0,.56,1.937,1.791,1.791,0,0,0,1.469.7,1.866,1.866,0,0,0,1.512-.7,2.963,2.963,0,0,0,.575-1.941v-7.053Zm3.384,6.072V0H64.655V-10.657H67.8a3.35,3.35,0,0,1,2.377.784,2.927,2.927,0,0,1,.839,2.249,2.7,2.7,0,0,1-.392,1.461,2.583,2.583,0,0,1-1.124.97,2.041,2.041,0,0,1,1.183.923,3.218,3.218,0,0,1,.363,1.6v.93a4.182,4.182,0,0,0,.1.916,1.283,1.283,0,0,0,.337.659V0H69.943a1.268,1.268,0,0,1-.326-.736,6.64,6.64,0,0,1-.077-1.022v-.9a2.209,2.209,0,0,0-.414-1.414,1.384,1.384,0,0,0-1.146-.52Zm0-1.135h1.582a1.746,1.746,0,0,0,1.362-.487A1.99,1.99,0,0,0,69.525-7.6,2.133,2.133,0,0,0,69.1-9.016a1.61,1.61,0,0,0-1.3-.505H66.141ZM78.79-9.521H75.963V0H74.469V-9.521H71.664v-1.143H78.79ZM87.213,0H85.726V-4.7H81.552V0H80.065V-10.664h1.487v4.827h4.175v-4.827h1.487Zm7.141-4.951H90.736v3.823H95V0h-5.75V-10.664h5.713v1.143H90.736v3.435h3.618Zm3.618.359V0H96.486V-10.657h3.142A3.35,3.35,0,0,1,102-9.873a2.927,2.927,0,0,1,.839,2.249,2.7,2.7,0,0,1-.392,1.461,2.583,2.583,0,0,1-1.124.97,2.041,2.041,0,0,1,1.183.923,3.218,3.218,0,0,1,.363,1.6v.93a4.182,4.182,0,0,0,.1.916,1.283,1.283,0,0,0,.337.659V0h-1.531a1.268,1.268,0,0,1-.326-.736,6.64,6.64,0,0,1-.077-1.022v-.9a2.209,2.209,0,0,0-.414-1.414,1.384,1.384,0,0,0-1.146-.52Zm0-1.135h1.582a1.746,1.746,0,0,0,1.362-.487,1.99,1.99,0,0,0,.439-1.381,2.133,2.133,0,0,0-.428-1.421,1.61,1.61,0,0,0-1.3-.505H97.972ZM-74.934,12.049h-3.618v3.823h4.263V17h-5.75V6.336h5.713V7.479h-4.226v3.435h3.618ZM-65.64,17h-1.494l-4.131-7.866-.044.015V17H-72.8V6.336h1.487l4.131,7.844.044-.007V6.336h1.494Zm6.9-2.681a1.752,1.752,0,0,0-.417-1.2,3.657,3.657,0,0,0-1.472-.861,6.043,6.043,0,0,1-2.307-1.208,2.546,2.546,0,0,1-.806-1.97A2.7,2.7,0,0,1-62.853,7a3.243,3.243,0,0,1,2.281-.817A3.179,3.179,0,0,1-58.2,7.09a3.018,3.018,0,0,1,.864,2.278l-.015.044h-1.428a2.242,2.242,0,0,0-.5-1.516,1.646,1.646,0,0,0-1.311-.579,1.544,1.544,0,0,0-1.227.5,1.823,1.823,0,0,0-.436,1.245,1.545,1.545,0,0,0,.461,1.15,4.449,4.449,0,0,0,1.553.857,5.463,5.463,0,0,1,2.219,1.245,2.71,2.71,0,0,1,.762,1.992,2.6,2.6,0,0,1-.9,2.076,3.481,3.481,0,0,1-2.355.773,3.79,3.79,0,0,1-2.446-.835,2.8,2.8,0,0,1-1-2.4l.015-.044H-62.5A2.107,2.107,0,0,0-61.93,15.5a2.012,2.012,0,0,0,1.425.535,1.76,1.76,0,0,0,1.3-.465A1.68,1.68,0,0,0-58.74,14.319Zm10.129-7.983v7.053a3.742,3.742,0,0,1-1,2.769,3.5,3.5,0,0,1-2.585,1,3.393,3.393,0,0,1-2.538-1,3.785,3.785,0,0,1-.978-2.765V6.336h1.487v7.053a3.02,3.02,0,0,0,.56,1.937,1.791,1.791,0,0,0,1.469.7,1.866,1.866,0,0,0,1.512-.7,2.963,2.963,0,0,0,.575-1.941V6.336Zm3.384,6.072V17h-1.487V6.343h3.142a3.35,3.35,0,0,1,2.377.784,2.927,2.927,0,0,1,.839,2.249,2.7,2.7,0,0,1-.392,1.461,2.583,2.583,0,0,1-1.124.97,2.041,2.041,0,0,1,1.183.923,3.218,3.218,0,0,1,.363,1.6v.93a4.182,4.182,0,0,0,.1.916,1.283,1.283,0,0,0,.337.659V17h-1.531a1.268,1.268,0,0,1-.326-.736,6.64,6.64,0,0,1-.077-1.022v-.9a2.209,2.209,0,0,0-.414-1.414,1.384,1.384,0,0,0-1.146-.52Zm0-1.135h1.582a1.746,1.746,0,0,0,1.362-.487A1.99,1.99,0,0,0-41.843,9.4a2.133,2.133,0,0,0-.428-1.421,1.61,1.61,0,0,0-1.3-.505h-1.655Zm11.96.776h-3.618v3.823h4.263V17h-5.75V6.336h5.713V7.479h-4.226v3.435h3.618ZM-23.115,14.3H-26.3L-27.07,17h-1.545l3.2-10.664h1.443L-20.8,17h-1.545Zm-2.849-1.179h2.52l-1.23-4.336h-.044Zm7.874,2.747h4.314V17h-5.8V6.336h1.487Zm7.229,0h4.314V17h-5.8V6.336h1.487Zm15.71-2.08.015.044a3.144,3.144,0,0,1-.879,2.446,3.458,3.458,0,0,1-2.5.872A3.393,3.393,0,0,1-1.128,16.1,4.174,4.174,0,0,1-2.1,13.155V10.2a4.245,4.245,0,0,1,.959-2.952A3.3,3.3,0,0,1,1.436,6.182a3.614,3.614,0,0,1,2.549.846A3.118,3.118,0,0,1,4.871,9.5l-.015.044H3.428a2.414,2.414,0,0,0-.5-1.681,1.938,1.938,0,0,0-1.494-.538,1.763,1.763,0,0,0-1.516.736,3.558,3.558,0,0,0-.535,2.113v2.981a3.532,3.532,0,0,0,.549,2.131,1.82,1.82,0,0,0,1.553.74,1.864,1.864,0,0,0,1.45-.531,2.485,2.485,0,0,0,.483-1.7Zm3.105-1.384V17H6.467V6.343H9.609a3.35,3.35,0,0,1,2.377.784,2.927,2.927,0,0,1,.839,2.249,2.7,2.7,0,0,1-.392,1.461,2.583,2.583,0,0,1-1.124.97,2.041,2.041,0,0,1,1.183.923,3.218,3.218,0,0,1,.363,1.6v.93a4.182,4.182,0,0,0,.1.916,1.283,1.283,0,0,0,.337.659V17H11.755a1.268,1.268,0,0,1-.326-.736,6.64,6.64,0,0,1-.077-1.022v-.9a2.209,2.209,0,0,0-.414-1.414,1.384,1.384,0,0,0-1.146-.52Zm0-1.135H9.536a1.746,1.746,0,0,0,1.362-.487A1.99,1.99,0,0,0,11.338,9.4a2.133,2.133,0,0,0-.428-1.421,1.61,1.61,0,0,0-1.3-.505H7.954Zm11.96.776H16.3v3.823h4.263V17H14.81V6.336h5.713V7.479H16.3v3.435h3.618ZM22.053,17V6.336h3.025A3.543,3.543,0,0,1,27.9,7.618,4.9,4.9,0,0,1,29,10.914V12.43a4.879,4.879,0,0,1-1.095,3.3A3.551,3.551,0,0,1,25.078,17ZM23.54,7.479v8.394h1.538a2.034,2.034,0,0,0,1.758-.963A4.3,4.3,0,0,0,27.5,12.43V10.9a4.259,4.259,0,0,0-.659-2.457,2.034,2.034,0,0,0-1.758-.963Zm12.341,4.57H32.263v3.823h4.263V17h-5.75V6.336h5.713V7.479H32.263v3.435h3.618ZM45.176,17H43.682L39.551,9.134l-.044.015V17H38.02V6.336h1.487l4.131,7.844.044-.007V6.336h1.494Zm8.2-9.521H50.552V17H49.058V7.479H46.252V6.336h7.126ZM56.272,17H54.785V6.336h1.487ZM63.3,14.3H60.11L59.341,17H57.8L61,6.336h1.443L65.61,17H64.065Zm-2.849-1.179h2.52L61.736,8.79h-.044Zm7.874,2.747h4.314V17h-5.8V6.336H68.32Zm10.605-1.553a1.752,1.752,0,0,0-.417-1.2,3.657,3.657,0,0,0-1.472-.861,6.043,6.043,0,0,1-2.307-1.208,2.546,2.546,0,0,1-.806-1.97A2.7,2.7,0,0,1,74.813,7a3.243,3.243,0,0,1,2.281-.817,3.179,3.179,0,0,1,2.373.908,3.018,3.018,0,0,1,.864,2.278l-.015.044H78.889a2.242,2.242,0,0,0-.5-1.516,1.646,1.646,0,0,0-1.311-.579,1.544,1.544,0,0,0-1.227.5,1.823,1.823,0,0,0-.436,1.245,1.545,1.545,0,0,0,.461,1.15,4.449,4.449,0,0,0,1.553.857,5.463,5.463,0,0,1,2.219,1.245,2.71,2.71,0,0,1,.762,1.992,2.6,2.6,0,0,1-.9,2.076,3.481,3.481,0,0,1-2.355.773,3.79,3.79,0,0,1-2.446-.835,2.8,2.8,0,0,1-1-2.4l.015-.044h1.436a2.107,2.107,0,0,0,.575,1.619,2.012,2.012,0,0,0,1.425.535,1.76,1.76,0,0,0,1.3-.465A1.68,1.68,0,0,0,78.926,14.319ZM-76.289,31.3h-3.186l-.769,2.7H-81.79l3.2-10.664h1.443L-73.975,34H-75.52Zm-2.849-1.179h2.52l-1.23-4.336h-.044Zm7.866-.718V34h-1.487V23.343h3.142a3.35,3.35,0,0,1,2.377.784,2.927,2.927,0,0,1,.839,2.249,2.7,2.7,0,0,1-.392,1.461,2.583,2.583,0,0,1-1.124.97,2.041,2.041,0,0,1,1.183.923,3.218,3.218,0,0,1,.363,1.6v.93a4.182,4.182,0,0,0,.1.916,1.283,1.283,0,0,0,.337.659V34h-1.531a1.268,1.268,0,0,1-.326-.736,6.64,6.64,0,0,1-.077-1.022v-.9a2.209,2.209,0,0,0-.414-1.414,1.384,1.384,0,0,0-1.146-.52Zm0-1.135h1.582a1.746,1.746,0,0,0,1.362-.487,1.99,1.99,0,0,0,.439-1.381,2.133,2.133,0,0,0-.428-1.421,1.61,1.61,0,0,0-1.3-.505h-1.655Zm11.96.776H-62.93v3.823h4.263V34h-5.75V23.336H-58.7v1.143H-62.93v3.435h3.618ZM-47.2,30.792l.015.044a3.144,3.144,0,0,1-.879,2.446,3.458,3.458,0,0,1-2.5.872A3.393,3.393,0,0,1-53.181,33.1a4.174,4.174,0,0,1-.974-2.948V27.2a4.245,4.245,0,0,1,.959-2.952,3.3,3.3,0,0,1,2.578-1.062,3.614,3.614,0,0,1,2.549.846,3.118,3.118,0,0,1,.886,2.472l-.015.044h-1.428a2.414,2.414,0,0,0-.5-1.681,1.938,1.938,0,0,0-1.494-.538,1.763,1.763,0,0,0-1.516.736,3.558,3.558,0,0,0-.535,2.113v2.981a3.532,3.532,0,0,0,.549,2.131,1.82,1.82,0,0,0,1.553.74,1.864,1.864,0,0,0,1.45-.531,2.485,2.485,0,0,0,.483-1.7ZM-38.43,34h-1.487V29.3h-4.175V34h-1.487V23.336h1.487v4.827h4.175V23.336h1.487Zm7.141-4.951h-3.618v3.823h4.263V34h-5.75V23.336h5.713v1.143h-4.226v3.435h3.618Zm8.811,1.743.015.044a3.144,3.144,0,0,1-.879,2.446,3.458,3.458,0,0,1-2.5.872A3.393,3.393,0,0,1-28.455,33.1a4.174,4.174,0,0,1-.974-2.948V27.2a4.245,4.245,0,0,1,.959-2.952,3.3,3.3,0,0,1,2.578-1.062,3.614,3.614,0,0,1,2.549.846,3.118,3.118,0,0,1,.886,2.472l-.015.044H-23.9a2.414,2.414,0,0,0-.5-1.681,1.938,1.938,0,0,0-1.494-.538,1.763,1.763,0,0,0-1.516.736,3.558,3.558,0,0,0-.535,2.113v2.981a3.532,3.532,0,0,0,.549,2.131,1.82,1.82,0,0,0,1.553.74,1.864,1.864,0,0,0,1.45-.531,2.485,2.485,0,0,0,.483-1.7Zm3.845-1.589h-.732V34h-1.487V23.336h1.487v4.673h.63l2.974-4.673h1.8l-3.516,5.01L-13.689,34h-1.89Zm11.162-.154h-3.618v3.823h4.263V34h-5.75V23.336h5.713v1.143h-4.226v3.435h3.618ZM-5.332,34V23.336h3.025A3.543,3.543,0,0,1,.516,24.618a4.9,4.9,0,0,1,1.095,3.3V29.43a4.879,4.879,0,0,1-1.095,3.3A3.551,3.551,0,0,1-2.307,34Zm1.487-9.521v8.394h1.538a2.034,2.034,0,0,0,1.758-.963A4.3,4.3,0,0,0,.11,29.43V27.9a4.259,4.259,0,0,0-.659-2.457,2.034,2.034,0,0,0-1.758-.963ZM11.4,31.3H8.218L7.449,34H5.9L9.1,23.336h1.443L13.718,34H12.173ZM8.555,30.125h2.52L9.844,25.79H9.8ZM22.1,34H20.6l-4.131-7.866-.044.015V34H14.941V23.336h1.487l4.131,7.844.044-.007V23.336H22.1Zm2.036,0V23.336h3.025a3.543,3.543,0,0,1,2.823,1.282,4.9,4.9,0,0,1,1.095,3.3V29.43a4.879,4.879,0,0,1-1.095,3.3A3.551,3.551,0,0,1,27.158,34Zm1.487-9.521v8.394h1.538a2.034,2.034,0,0,0,1.758-.963,4.3,4.3,0,0,0,.659-2.479V27.9a4.259,4.259,0,0,0-.659-2.457,2.034,2.034,0,0,0-1.758-.963Zm13.462,7.075.154.652h.044l.154-.645,2.219-8.225h1.589L39.983,34h-1.45L35.281,23.336h1.582Zm10.43-2.5H45.894v3.823h4.263V34h-5.75V23.336H50.12v1.143H45.894v3.435h3.618Zm8.518-4.57H55.2V34H53.708V24.479H50.9V23.336H58.03Zm7.771,0H62.974V34H61.479V24.479H58.674V23.336H65.8Zm6.379,4.57H68.562v3.823h4.263V34h-5.75V23.336h5.713v1.143H68.562v3.435H72.18ZM74.319,34V23.336h3.025a3.543,3.543,0,0,1,2.823,1.282,4.9,4.9,0,0,1,1.095,3.3V29.43a4.879,4.879,0,0,1-1.095,3.3A3.551,3.551,0,0,1,77.344,34Zm1.487-9.521v8.394h1.538a2.034,2.034,0,0,0,1.758-.963,4.3,4.3,0,0,0,.659-2.479V27.9a4.259,4.259,0,0,0-.659-2.457,2.034,2.034,0,0,0-1.758-.963Z" transform="translate(1248 175.273)" fill="#0054a5"/>
      <g id="list" transform="translate(1204.494 42)">
        <path id="Path_933" data-name="Path 933" d="M80.8,152.206H11.872A2.872,2.872,0,0,1,9,149.334V69.872A2.872,2.872,0,0,1,11.872,67H80.8a2.872,2.872,0,0,1,2.872,2.872v79.462A2.872,2.872,0,0,1,80.8,152.206Z" transform="translate(-9 -54.171)" fill="#57a4ff"/>
        <path id="Path_934" data-name="Path 934" d="M238.465,67H204v85.206h34.465a2.872,2.872,0,0,0,2.872-2.872V69.872A2.872,2.872,0,0,0,238.465,67Z" transform="translate(-166.663 -54.171)" fill="#246dff"/>
        <path id="Path_935" data-name="Path 935" d="M39,97h63.186v73.717H39Z" transform="translate(-33.256 -78.427)" fill="#f4f1f1"/>
        <path id="Path_936" data-name="Path 936" d="M204,97h31.593v73.717H204Z" transform="translate(-166.663 -78.427)" fill="#dad5d3"/>
        <g id="Group_239" data-name="Group 239" transform="translate(21.062 32.551)">
          <path id="Path_937" data-name="Path 937" d="M126.659,185.318a2.862,2.862,0,0,1-2.031-.841l-4.787-4.787a2.872,2.872,0,1,1,4.062-4.062l2.756,2.756,7.543-7.543a2.872,2.872,0,0,1,4.062,4.062l-9.574,9.574A2.863,2.863,0,0,1,126.659,185.318Z" transform="translate(-119 -170)" fill="#57a4ff"/>
          <path id="Path_938" data-name="Path 938" d="M126.659,282.818a2.862,2.862,0,0,1-2.031-.841l-4.787-4.787a2.872,2.872,0,1,1,4.062-4.062l2.756,2.756,7.543-7.543a2.872,2.872,0,1,1,4.062,4.062l-9.574,9.574A2.863,2.863,0,0,1,126.659,282.818Z" transform="translate(-119 -248.832)" fill="#57a4ff"/>
          <path id="Path_939" data-name="Path 939" d="M126.659,380.318a2.862,2.862,0,0,1-2.031-.841l-4.787-4.787a2.872,2.872,0,1,1,4.062-4.062l2.756,2.756,7.543-7.543a2.872,2.872,0,1,1,4.062,4.062l-9.574,9.574A2.863,2.863,0,0,1,126.659,380.318Z" transform="translate(-119 -327.663)" fill="#57a4ff"/>
        </g>
        <path id="Path_940" data-name="Path 940" d="M206.989,170.852a2.869,2.869,0,0,0-2.988-.674V177.9l2.988-2.988A2.872,2.872,0,0,0,206.989,170.852Z" transform="translate(-166.663 -137.46)" fill="#08475e"/>
        <path id="Path_941" data-name="Path 941" d="M206.989,268.352a2.869,2.869,0,0,0-2.988-.674V275.4l2.988-2.988A2.872,2.872,0,0,0,206.989,268.352Z" transform="translate(-166.663 -216.292)" fill="#08475e"/>
        <path id="Path_942" data-name="Path 942" d="M206.989,365.852a2.869,2.869,0,0,0-2.988-.674V372.9l2.988-2.988A2.872,2.872,0,0,0,206.989,365.852Z" transform="translate(-166.663 -295.123)" fill="#08475e"/>
        <ellipse id="Ellipse_13" data-name="Ellipse 13" cx="2.921" cy="2.921" rx="2.921" ry="2.921" transform="translate(11.66 41.562)" fill="#57a4ff"/>
        <ellipse id="Ellipse_14" data-name="Ellipse 14" cx="2.872" cy="2.872" rx="2.872" ry="2.872" transform="translate(11.488 59.836)" fill="#57a4ff"/>
        <ellipse id="Ellipse_15" data-name="Ellipse 15" cx="2.921" cy="2.921" rx="2.921" ry="2.921" transform="translate(5.66 95.283)" fill="#57a4ff"/>
        <path id="Path_943" data-name="Path 943" d="M142.508,25.275H111.872A2.872,2.872,0,0,1,109,22.4V9a2.872,2.872,0,0,1,2.872-2.872h4.787V2.872A2.872,2.872,0,0,1,119.531,0h15.318a2.872,2.872,0,0,1,2.872,2.872V6.127h4.787A2.872,2.872,0,0,1,145.38,9V22.4A2.872,2.872,0,0,1,142.508,25.275Z" transform="translate(-89.853)" fill="#57a4ff"/>
        <path id="Path_944" data-name="Path 944" d="M219.318,6.127h-4.787V2.872A2.872,2.872,0,0,0,211.659,0H204V25.275h15.318A2.872,2.872,0,0,0,222.19,22.4V9A2.872,2.872,0,0,0,219.318,6.127Z" transform="translate(-166.663)" fill="#5aaae7"/>
        <path id="Path_945" data-name="Path 945" d="M249.6,350.785a2.872,2.872,0,0,1-2.615-4.061l6.77-14.893a2.872,2.872,0,0,1,4.646-.842l8.124,8.124a2.872,2.872,0,0,1-.842,4.646l-14.893,6.77A2.872,2.872,0,0,1,249.6,350.785Z" transform="translate(-201.208 -266.933)" fill="#a8ddfd"/>
        <path id="Path_946" data-name="Path 946" d="M266.013,355.754,251.12,370.647a2.871,2.871,0,0,0,3.219.584l14.893-6.77a2.872,2.872,0,0,0,.842-4.646Z" transform="translate(-204.76 -287.637)" fill="#57a4ff"/>
        <path id="Path_947" data-name="Path 947" d="M286.475,210.929,314.908,182.5a2.872,2.872,0,0,1,4.062,0l8.123,8.123a2.872,2.872,0,0,1,0,4.062L298.66,223.114Z" transform="translate(-233.346 -146.873)" fill="#57a4ff"/>
        <path id="Path_948" data-name="Path 948" d="M348.757,207.261l-30.463,30.463,6.093,6.093,28.432-28.432a2.872,2.872,0,0,0,0-4.062Z" transform="translate(-259.072 -167.576)" fill="#1664ff"/>
      </g>
    </g>
  </g>
</svg>
