<svg xmlns="http://www.w3.org/2000/svg" xmlns:xlink="http://www.w3.org/1999/xlink"  viewBox="0 0 281 249">
  <defs>
    <filter id="Rectangle_394" x="0" y="0" width="281" height="249" filterUnits="userSpaceOnUse">
      <feOffset dy="3" input="SourceAlpha"/>
      <feGaussianBlur stdDeviation="3" result="blur"/>
      <feFlood flood-color="#95b2bb"/>
      <feComposite operator="in" in2="blur"/>
      <feComposite in="SourceGraphic"/>
    </filter>
  </defs>
  <g id="Group_1078" data-name="Group 1078" transform="translate(-368 -355)">
    <g transform="matrix(1, 0, 0, 1, 368, 355)" filter="url(#Rectangle_394)">
      <path id="Rectangle_394-2" data-name="Rectangle 394" d="M2,0H227a36,36,0,0,1,36,36V195a36,36,0,0,1-36,36H36A36,36,0,0,1,0,195V2A2,2,0,0,1,2,0Z" transform="translate(9 6)" fill="#fff"/>
    </g>
    <g id="Group_1077" data-name="Group 1077">
      <path id="Path_4757" data-name="Path 4757" d="M-75.809-2.681a1.752,1.752,0,0,0-.417-1.2A3.657,3.657,0,0,0-77.7-4.746a6.043,6.043,0,0,1-2.307-1.208,2.546,2.546,0,0,1-.806-1.97A2.7,2.7,0,0,1-79.922-10a3.243,3.243,0,0,1,2.281-.817,3.179,3.179,0,0,1,2.373.908A3.018,3.018,0,0,1-74.4-7.632l-.015.044h-1.428a2.242,2.242,0,0,0-.5-1.516,1.646,1.646,0,0,0-1.311-.579,1.544,1.544,0,0,0-1.227.5,1.823,1.823,0,0,0-.436,1.245,1.545,1.545,0,0,0,.461,1.15,4.449,4.449,0,0,0,1.553.857,5.463,5.463,0,0,1,2.219,1.245A2.71,2.71,0,0,1-74.323-2.7a2.6,2.6,0,0,1-.9,2.076,3.481,3.481,0,0,1-2.355.773,3.79,3.79,0,0,1-2.446-.835,2.8,2.8,0,0,1-1-2.4l.015-.044h1.436A2.107,2.107,0,0,0-79-1.5a2.012,2.012,0,0,0,1.425.535,1.76,1.76,0,0,0,1.3-.465A1.68,1.68,0,0,0-75.809-2.681Zm9.529-6.841h-2.827V0H-70.6V-9.521h-2.805v-1.143h7.126Zm2.754,4.929V0h-1.487V-10.657h3.142a3.35,3.35,0,0,1,2.377.784,2.927,2.927,0,0,1,.839,2.249,2.7,2.7,0,0,1-.392,1.461,2.583,2.583,0,0,1-1.124.97,2.041,2.041,0,0,1,1.183.923,3.218,3.218,0,0,1,.363,1.6v.93a4.182,4.182,0,0,0,.1.916,1.283,1.283,0,0,0,.337.659V0h-1.531a1.268,1.268,0,0,1-.326-.736,6.64,6.64,0,0,1-.077-1.022v-.9a2.209,2.209,0,0,0-.414-1.414,1.384,1.384,0,0,0-1.146-.52Zm0-1.135h1.582a1.746,1.746,0,0,0,1.362-.487A1.99,1.99,0,0,0-60.143-7.6a2.133,2.133,0,0,0-.428-1.421,1.61,1.61,0,0,0-1.3-.505h-1.655ZM-55.052,0h-1.487V-10.664h1.487Zm9.331,0h-1.494l-4.131-7.866-.044.015V0h-1.487V-10.664h1.487L-47.26-2.82l.044-.007v-7.837h1.494Zm8.84-1.392A3.292,3.292,0,0,1-38.093-.315a4.331,4.331,0,0,1-2.142.469A3.646,3.646,0,0,1-42.927-.864a3.915,3.915,0,0,1-1.022-2.9V-6.929A3.95,3.95,0,0,1-42.96-9.8a3.5,3.5,0,0,1,2.629-1.018,3.485,3.485,0,0,1,2.5.835,2.915,2.915,0,0,1,.85,2.285L-37-7.654h-1.4a2.124,2.124,0,0,0-.487-1.49A1.827,1.827,0,0,0-40.3-9.675a1.933,1.933,0,0,0-1.578.7,3.131,3.131,0,0,0-.575,2.032v3.179a3.162,3.162,0,0,0,.6,2.076,2,2,0,0,0,1.622.714,2.623,2.623,0,0,0,1.2-.234,1.608,1.608,0,0,0,.656-.571V-4.263h-1.963V-5.347h3.457Zm7.075-3.56h-3.618v3.823h4.263V0h-5.75V-10.664H-29.2v1.143h-4.226v3.435h3.618ZM-20.511,0h-1.494l-4.131-7.866-.044.015V0h-1.487V-10.664h1.487L-22.05-2.82l.044-.007v-7.837h1.494Zm8.2-9.521h-2.827V0H-16.63V-9.521h-2.805v-1.143h7.126Zm6.05,4.929V0H-7.745V-10.657H-4.6a3.35,3.35,0,0,1,2.377.784,2.927,2.927,0,0,1,.839,2.249A2.7,2.7,0,0,1-1.78-6.163a2.583,2.583,0,0,1-1.124.97,2.041,2.041,0,0,1,1.183.923,3.218,3.218,0,0,1,.363,1.6v.93a4.182,4.182,0,0,0,.1.916,1.283,1.283,0,0,0,.337.659V0H-2.457a1.268,1.268,0,0,1-.326-.736A6.64,6.64,0,0,1-2.86-1.758v-.9a2.209,2.209,0,0,0-.414-1.414,1.384,1.384,0,0,0-1.146-.52Zm0-1.135h1.582a1.746,1.746,0,0,0,1.362-.487A1.99,1.99,0,0,0-2.875-7.6,2.133,2.133,0,0,0-3.3-9.016a1.61,1.61,0,0,0-1.3-.505H-6.259ZM5.7-4.951H2.084v3.823H6.346V0H.6V-10.664H6.31v1.143H2.084v3.435H5.7Zm8.811,1.743.015.044a3.144,3.144,0,0,1-.879,2.446,3.458,3.458,0,0,1-2.5.872A3.393,3.393,0,0,1,8.536-.9a4.174,4.174,0,0,1-.974-2.948V-6.8a4.245,4.245,0,0,1,.959-2.952A3.3,3.3,0,0,1,11.1-10.818a3.614,3.614,0,0,1,2.549.846A3.118,3.118,0,0,1,14.535-7.5l-.015.044H13.092a2.414,2.414,0,0,0-.5-1.681A1.938,1.938,0,0,0,11.1-9.675a1.763,1.763,0,0,0-1.516.736,3.558,3.558,0,0,0-.535,2.113v2.981A3.532,3.532,0,0,0,9.6-1.714a1.82,1.82,0,0,0,1.553.74,1.864,1.864,0,0,0,1.45-.531,2.485,2.485,0,0,0,.483-1.7Zm3.105-1.384V0H16.132V-10.657h3.142a3.35,3.35,0,0,1,2.377.784,2.927,2.927,0,0,1,.839,2.249A2.7,2.7,0,0,1,22.1-6.163a2.583,2.583,0,0,1-1.124.97,2.041,2.041,0,0,1,1.183.923,3.218,3.218,0,0,1,.363,1.6v.93a4.182,4.182,0,0,0,.1.916,1.283,1.283,0,0,0,.337.659V0H21.42a1.268,1.268,0,0,1-.326-.736,6.64,6.64,0,0,1-.077-1.022v-.9A2.209,2.209,0,0,0,20.6-4.072a1.384,1.384,0,0,0-1.146-.52Zm0-1.135H19.2a1.746,1.746,0,0,0,1.362-.487A1.99,1.99,0,0,0,21-7.6a2.133,2.133,0,0,0-.428-1.421,1.61,1.61,0,0,0-1.3-.505H17.618Zm13.835-4.937v7.053a3.742,3.742,0,0,1-1,2.769,3.5,3.5,0,0,1-2.585,1,3.393,3.393,0,0,1-2.538-1,3.785,3.785,0,0,1-.978-2.765v-7.053h1.487v7.053a3.02,3.02,0,0,0,.56,1.937,1.791,1.791,0,0,0,1.469.7,1.866,1.866,0,0,0,1.512-.7,2.963,2.963,0,0,0,.575-1.941v-7.053ZM34.977,0H33.49V-10.664h1.487Zm8.342-9.521H40.492V0H39V-9.521H36.193v-1.143h7.126Zm5.72,7.559h.044l2.556-8.7h1.9V0H52.064V-7.683L52.02-7.69,49.574,0H48.556L46.073-7.808l-.044.007V0H44.55V-10.664H46.49Zm11.6-2.988H57.023v3.823h4.263V0h-5.75V-10.664h5.713v1.143H57.023v3.435h3.618ZM69.935,0H68.441L64.31-7.866l-.044.015V0H62.78V-10.664h1.487L68.4-2.82l.044-.007v-7.837h1.494Zm8.2-9.521H75.311V0H73.817V-9.521H71.012v-1.143h7.126ZM-68.782,14.319a1.752,1.752,0,0,0-.417-1.2,3.657,3.657,0,0,0-1.472-.861,6.043,6.043,0,0,1-2.307-1.208,2.546,2.546,0,0,1-.806-1.97A2.7,2.7,0,0,1-72.894,7a3.243,3.243,0,0,1,2.281-.817,3.179,3.179,0,0,1,2.373.908,3.018,3.018,0,0,1,.864,2.278l-.015.044h-1.428a2.242,2.242,0,0,0-.5-1.516,1.646,1.646,0,0,0-1.311-.579,1.544,1.544,0,0,0-1.227.5,1.823,1.823,0,0,0-.436,1.245,1.545,1.545,0,0,0,.461,1.15,4.449,4.449,0,0,0,1.553.857,5.463,5.463,0,0,1,2.219,1.245,2.71,2.71,0,0,1,.762,1.992,2.6,2.6,0,0,1-.9,2.076,3.481,3.481,0,0,1-2.355.773,3.79,3.79,0,0,1-2.446-.835,2.8,2.8,0,0,1-1-2.4l.015-.044h1.436a2.107,2.107,0,0,0,.575,1.619,2.012,2.012,0,0,0,1.425.535,1.76,1.76,0,0,0,1.3-.465A1.68,1.68,0,0,0-68.782,14.319Zm9.529-6.841H-62.08V17h-1.494V7.479h-2.805V6.336h7.126Zm2.754,4.929V17h-1.487V6.343h3.142a3.35,3.35,0,0,1,2.377.784,2.927,2.927,0,0,1,.839,2.249,2.7,2.7,0,0,1-.392,1.461,2.583,2.583,0,0,1-1.124.97,2.041,2.041,0,0,1,1.183.923,3.218,3.218,0,0,1,.363,1.6v.93a4.182,4.182,0,0,0,.1.916,1.283,1.283,0,0,0,.337.659V17H-52.7a1.268,1.268,0,0,1-.326-.736,6.64,6.64,0,0,1-.077-1.022v-.9a2.209,2.209,0,0,0-.414-1.414,1.384,1.384,0,0,0-1.146-.52Zm0-1.135h1.582a1.746,1.746,0,0,0,1.362-.487A1.99,1.99,0,0,0-53.115,9.4a2.133,2.133,0,0,0-.428-1.421,1.61,1.61,0,0,0-1.3-.505H-56.5ZM-44.927,14.3h-3.186l-.769,2.7h-1.545l3.2-10.664h1.443L-42.612,17h-1.545Zm-2.849-1.179h2.52l-1.23-4.336h-.044Zm11.821-5.647h-2.827V17h-1.494V7.479h-2.805V6.336h7.126Zm6.379,4.57h-3.618v3.823h4.263V17h-5.75V6.336h5.713V7.479h-4.226v3.435h3.618Zm8.943,3.56a3.292,3.292,0,0,1-1.212,1.077,4.331,4.331,0,0,1-2.142.469,3.646,3.646,0,0,1-2.692-1.018,3.915,3.915,0,0,1-1.022-2.9V10.071A3.95,3.95,0,0,1-26.711,7.2a3.5,3.5,0,0,1,2.629-1.018,3.485,3.485,0,0,1,2.5.835,2.915,2.915,0,0,1,.85,2.285l-.015.044h-1.4a2.124,2.124,0,0,0-.487-1.49,1.827,1.827,0,0,0-1.417-.531,1.933,1.933,0,0,0-1.578.7,3.131,3.131,0,0,0-.575,2.032v3.179a3.162,3.162,0,0,0,.6,2.076,2,2,0,0,0,1.622.714,2.623,2.623,0,0,0,1.2-.234,1.608,1.608,0,0,0,.656-.571V12.737h-1.963V11.653h3.457ZM-17.043,17H-18.53V6.336h1.487Zm7.28-4.951h-3.618v3.823h4.263V17h-5.75V6.336h5.713V7.479h-4.226v3.435h3.618Zm7,2.271a1.752,1.752,0,0,0-.417-1.2,3.657,3.657,0,0,0-1.472-.861,6.043,6.043,0,0,1-2.307-1.208,2.546,2.546,0,0,1-.806-1.97A2.7,2.7,0,0,1-6.874,7a3.243,3.243,0,0,1,2.281-.817,3.179,3.179,0,0,1,2.373.908,3.018,3.018,0,0,1,.864,2.278l-.015.044H-2.8A2.242,2.242,0,0,0-3.3,7.9a1.646,1.646,0,0,0-1.311-.579,1.544,1.544,0,0,0-1.227.5A1.823,1.823,0,0,0-6.27,9.061a1.545,1.545,0,0,0,.461,1.15,4.449,4.449,0,0,0,1.553.857,5.463,5.463,0,0,1,2.219,1.245A2.71,2.71,0,0,1-1.274,14.3a2.6,2.6,0,0,1-.9,2.076,3.481,3.481,0,0,1-2.355.773,3.79,3.79,0,0,1-2.446-.835,2.8,2.8,0,0,1-1-2.4l.015-.044h1.436A2.107,2.107,0,0,0-5.951,15.5a2.012,2.012,0,0,0,1.425.535,1.76,1.76,0,0,0,1.3-.465A1.68,1.68,0,0,0-2.761,14.319ZM10.063,7.479H7.236V17H5.742V7.479H2.937V6.336h7.126Zm8.247,5.662A4.07,4.07,0,0,1,17.285,16.1a3.648,3.648,0,0,1-2.747,1.058,3.548,3.548,0,0,1-2.7-1.058,4.124,4.124,0,0,1-1-2.955V10.21a4.154,4.154,0,0,1,1-2.959,3.52,3.52,0,0,1,2.7-1.069,3.647,3.647,0,0,1,2.75,1.066,4.088,4.088,0,0,1,1.029,2.963Zm-1.479-2.952a3.244,3.244,0,0,0-.6-2.113,2.085,2.085,0,0,0-1.7-.721,1.98,1.98,0,0,0-1.644.721,3.333,3.333,0,0,0-.575,2.113V13.14a3.361,3.361,0,0,0,.579,2.131A1.986,1.986,0,0,0,14.539,16a2.075,2.075,0,0,0,1.7-.721,3.3,3.3,0,0,0,.593-2.135Zm8,2.219V17H23.342V6.343h3.142a3.35,3.35,0,0,1,2.377.784A2.927,2.927,0,0,1,29.7,9.375a2.7,2.7,0,0,1-.392,1.461,2.583,2.583,0,0,1-1.124.97,2.041,2.041,0,0,1,1.183.923,3.218,3.218,0,0,1,.363,1.6v.93a4.182,4.182,0,0,0,.1.916,1.283,1.283,0,0,0,.337.659V17H28.63a1.268,1.268,0,0,1-.326-.736,6.64,6.64,0,0,1-.077-1.022v-.9a2.209,2.209,0,0,0-.414-1.414,1.384,1.384,0,0,0-1.146-.52Zm0-1.135h1.582a1.746,1.746,0,0,0,1.362-.487A1.99,1.99,0,0,0,28.213,9.4a2.133,2.133,0,0,0-.428-1.421,1.61,1.61,0,0,0-1.3-.505H24.829Zm11.96.776H33.171v3.823h4.263V17h-5.75V6.336H37.4V7.479H33.171v3.435H36.79ZM45.6,13.792l.015.044a3.144,3.144,0,0,1-.879,2.446,3.458,3.458,0,0,1-2.5.872A3.393,3.393,0,0,1,39.624,16.1a4.174,4.174,0,0,1-.974-2.948V10.2a4.245,4.245,0,0,1,.959-2.952,3.3,3.3,0,0,1,2.578-1.062,3.614,3.614,0,0,1,2.549.846A3.118,3.118,0,0,1,45.623,9.5l-.015.044H44.18a2.414,2.414,0,0,0-.5-1.681,1.938,1.938,0,0,0-1.494-.538,1.763,1.763,0,0,0-1.516.736,3.558,3.558,0,0,0-.535,2.113v2.981a3.532,3.532,0,0,0,.549,2.131,1.82,1.82,0,0,0,1.553.74,1.864,1.864,0,0,0,1.45-.531,2.485,2.485,0,0,0,.483-1.7Zm3.105-1.384V17H47.219V6.343h3.142a3.35,3.35,0,0,1,2.377.784,2.927,2.927,0,0,1,.839,2.249,2.7,2.7,0,0,1-.392,1.461,2.583,2.583,0,0,1-1.124.97,2.041,2.041,0,0,1,1.183.923,3.218,3.218,0,0,1,.363,1.6v.93a4.182,4.182,0,0,0,.1.916,1.283,1.283,0,0,0,.337.659V17H52.507a1.268,1.268,0,0,1-.326-.736,6.64,6.64,0,0,1-.077-1.022v-.9a2.209,2.209,0,0,0-.414-1.414,1.384,1.384,0,0,0-1.146-.52Zm0-1.135h1.582a1.746,1.746,0,0,0,1.362-.487A1.99,1.99,0,0,0,52.09,9.4a2.133,2.133,0,0,0-.428-1.421,1.61,1.61,0,0,0-1.3-.505H48.706ZM62.542,6.336v7.053a3.742,3.742,0,0,1-1,2.769,3.5,3.5,0,0,1-2.585,1,3.393,3.393,0,0,1-2.538-1,3.785,3.785,0,0,1-.978-2.765V6.336h1.487v7.053a3.02,3.02,0,0,0,.56,1.937,1.791,1.791,0,0,0,1.469.7,1.866,1.866,0,0,0,1.512-.7,2.963,2.963,0,0,0,.575-1.941V6.336ZM66.064,17H64.578V6.336h1.487Zm8.342-9.521H71.58V17H70.085V7.479H67.28V6.336h7.126ZM-34.545,34h-1.494l-4.131-7.866-.044.015V34H-41.7V23.336h1.487l4.131,7.844.044-.007V23.336h1.494Zm7.141-4.951h-3.618v3.823h4.263V34h-5.75V23.336H-26.8v1.143h-4.226v3.435H-27.4Zm9.258,1.868h.044l1.384-7.581h1.56L-17.347,34h-1.37l-1.86-7.566h-.044L-22.489,34h-1.37l-2.19-10.664h1.567L-23.09,30.9h.044l1.794-7.566h1.3Zm13.931-6.438H-7.042V34H-8.536V24.479h-2.805V23.336h7.126ZM1.2,31.3H-1.989L-2.758,34H-4.3l3.2-10.664H.341L3.512,34H1.967Zm-2.849-1.179H.868L-.363,25.79H-.406Zm7.874,2.747h4.314V34h-5.8V23.336H6.222Zm10.847-3.823H13.451v3.823h4.263V34h-5.75V23.336h5.713v1.143H13.451v3.435h3.618ZM26.364,34H24.869l-4.131-7.866-.044.015V34H19.208V23.336h1.487l4.131,7.844.044-.007V23.336h1.494Zm8.2-9.521H31.74V34H30.245V24.479H27.44V23.336h7.126Zm6.021,6.841a1.752,1.752,0,0,0-.417-1.2,3.657,3.657,0,0,0-1.472-.861,6.043,6.043,0,0,1-2.307-1.208,2.546,2.546,0,0,1-.806-1.97A2.7,2.7,0,0,1,36.475,24a3.243,3.243,0,0,1,2.281-.817,3.179,3.179,0,0,1,2.373.908,3.018,3.018,0,0,1,.864,2.278l-.015.044H40.551a2.242,2.242,0,0,0-.5-1.516,1.646,1.646,0,0,0-1.311-.579,1.544,1.544,0,0,0-1.227.5,1.823,1.823,0,0,0-.436,1.245,1.545,1.545,0,0,0,.461,1.15,4.449,4.449,0,0,0,1.553.857,5.463,5.463,0,0,1,2.219,1.245,2.71,2.71,0,0,1,.762,1.992,2.6,2.6,0,0,1-.9,2.076,3.481,3.481,0,0,1-2.355.773,3.79,3.79,0,0,1-2.446-.835,2.8,2.8,0,0,1-1-2.4l.015-.044h1.436A2.107,2.107,0,0,0,37.4,32.5a2.012,2.012,0,0,0,1.425.535,1.76,1.76,0,0,0,1.3-.465A1.68,1.68,0,0,0,40.587,31.319Z" transform="translate(509 522.775)" fill="#0054a5"/>
      <g id="talent-management" transform="translate(463 391)">
        <g id="Group_241" data-name="Group 241" transform="translate(28.075 20.397)">
          <g id="Group_240" data-name="Group 240">
            <path id="Path_980" data-name="Path 980" d="M82.525,44.546v10.84L78.9,56.61a31.685,31.685,0,0,1-4.473,10.825l1.69,3.424-7.663,7.663-3.424-1.69A31.685,31.685,0,0,1,54.2,81.3l-1.224,3.628H42.139L40.915,81.3A31.685,31.685,0,0,1,30.09,76.832l-3.424,1.69-6.4-6.4a8.692,8.692,0,0,0,2.52-6.134V63.079A2.9,2.9,0,0,0,25.5,61.2a24.778,24.778,0,1,0,8.581-31.994l-.335.175a18.955,18.955,0,0,0,.393-8.494,31.907,31.907,0,0,1,6.775-2.258L42.139,15h10.84L54.2,18.628A31.685,31.685,0,0,1,65.027,23.1l3.424-1.69,7.663,7.663L74.424,32.5A31.685,31.685,0,0,1,78.9,43.323Z" transform="translate(-20.27 -15)" fill="#1664ff"/>
          </g>
        </g>
        <g id="Group_242" data-name="Group 242" transform="translate(32.013 29.139)">
          <path id="Path_981" data-name="Path 981" d="M46.323,73.449a26.12,26.12,0,0,1-23.35-14.326L25.568,57.8a23.316,23.316,0,1,0,8.068-30.112l-.439.24-1.377-2.567.332-.178A25.953,25.953,0,0,1,46.323,21a26.225,26.225,0,1,1,0,52.449Z" transform="translate(-22.973 -21)" fill="#8a8a8a"/>
        </g>
        <g id="Group_243" data-name="Group 243" transform="translate(58.277 58.277)">
          <path id="Path_982" data-name="Path 982" d="M41,41H52.655V52.655H41Z" transform="translate(-41 -41)" fill="#57a4ff"/>
        </g>
        <g id="Group_244" data-name="Group 244" transform="translate(58.277 40.794)">
          <path id="Path_983" data-name="Path 983" d="M41,29H52.655V40.655H41Z" transform="translate(-41 -29)" fill="#57a4ff"/>
        </g>
        <g id="Group_245" data-name="Group 245" transform="translate(0 0)">
          <path id="Path_984" data-name="Path 984" d="M15,1h2.914V6.828H15Z" transform="translate(5.397 -1)" fill="#8a8a8a"/>
          <path id="Path_985" data-name="Path 985" d="M0,0H2.914V5.254H0Z" transform="matrix(0.832, -0.555, 0.555, 0.832, 3.16, 6.633)" fill="#8a8a8a"/>
          <path id="Path_986" data-name="Path 986" d="M0,0H5.254V2.914H0Z" transform="matrix(0.555, -0.832, 0.832, 0.555, 35.222, 9.395)" fill="#8a8a8a"/>
          <path id="Path_987" data-name="Path 987" d="M44,38.293,41.509,40.78H29V55.349H43.569V42.84l2.487-2.487ZM40.655,52.435H31.914V43.694H38.6l-4.8,4.8,2.06,2.06,4.8-4.8Z" transform="translate(11.794 16.04)" fill="#8a8a8a"/>
          <path id="Path_988" data-name="Path 988" d="M54.3,37.6H42.285A20.842,20.842,0,0,0,23.837,7H21.871a20.872,20.872,0,0,0-16.3,33.91l3.762,4.7a15.214,15.214,0,0,1,3.243,8.01H11.2a4.36,4.36,0,0,0-1.136,8.573,4.332,4.332,0,0,0,2.593,5.729v1.725a10.2,10.2,0,0,0,20.4,0V67.923a4.332,4.332,0,0,0,2.593-5.729,4.36,4.36,0,0,0-1.136-8.573H33.13a15.2,15.2,0,0,1,3.245-8.01l3.76-4.7a20.822,20.822,0,0,0,1.659-2.437V52.165H56.363V39.656l2.487-2.487-2.06-2.06ZM22.854,76.932a7.293,7.293,0,0,1-7.285-7.285V68.191H30.139v1.457A7.293,7.293,0,0,1,22.854,76.932ZM31.6,65.277H14.112a1.457,1.457,0,1,1,0-2.914H31.6a1.457,1.457,0,1,1,0,2.914Zm4.371-7.285a1.457,1.457,0,0,1-1.457,1.457H11.2a1.457,1.457,0,1,1,0-2.914H34.509A1.457,1.457,0,0,1,35.966,57.992Zm-20.46-4.371a18.144,18.144,0,0,0-3.794-9.691c.026-.006.05-.019.077-.023l5.382-1.091c.1-.029.2-.071.293-.106a5.813,5.813,0,0,0,10.777-.01c.135.05.268.1.408.146l5.267,1.062c.028.006.052.019.079.025a18.122,18.122,0,0,0-3.8,9.69Zm.063-20.4a1.457,1.457,0,1,1,0-2.914Zm1.457-7.285H15.569V27.4a4.309,4.309,0,0,0-1.811.405l-.508-1.018a5.614,5.614,0,0,1,5.021-8.128h9.166a5.615,5.615,0,0,1,5.023,8.127L31.95,27.8a4.33,4.33,0,0,0-1.811-.4V25.94H28.682A5.462,5.462,0,0,1,24.875,24.4l-2.021-1.944L20.833,24.4A5.462,5.462,0,0,1,17.026,25.94Zm13.112,4.371a1.457,1.457,0,1,1,0,2.914ZM18.483,33.225v-4.5a8.37,8.37,0,0,0,4.371-2.223,8.365,8.365,0,0,0,4.371,2.223v4.5a4.371,4.371,0,0,1-8.742,0Zm4.371,7.285a7.171,7.171,0,0,0,2.245-.39,5.738,5.738,0,0,0,.621.864,2.9,2.9,0,0,1-5.732.009,5.885,5.885,0,0,0,.622-.873,7.162,7.162,0,0,0,2.244.39Zm15-1.421-1.932,2.417a7.225,7.225,0,0,0-1.432-.456L29.34,40.015a2.915,2.915,0,0,1-1.706-1.337,7.3,7.3,0,0,0,1.888-2.539h.616a4.376,4.376,0,0,0,4.371-4.371,4.321,4.321,0,0,0-.392-1.788l.948-1.9a8.528,8.528,0,0,0-7.628-12.342H18.272a8.529,8.529,0,0,0-7.63,12.343l.947,1.9a4.356,4.356,0,0,0,3.98,6.158h.618a7.292,7.292,0,0,0,1.89,2.541,2.8,2.8,0,0,1-1.594,1.307l-5.271,1.062a7.229,7.229,0,0,0-1.429.456L7.849,39.089A17.957,17.957,0,0,1,21.871,9.914h1.967A17.957,17.957,0,0,1,37.859,39.089ZM53.449,49.251H44.708V40.509h6.681l-4.8,4.8,2.06,2.06,4.8-4.8Z" transform="translate(-1 1.742)" fill="#8a8a8a"/>
          <path id="Path_989" data-name="Path 989" d="M41,48H52.655v2.914H41Z" transform="translate(17.277 20.476)" fill="#8a8a8a"/>
          <path id="Path_990" data-name="Path 990" d="M41,44H52.655v2.914H41Z" transform="translate(17.277 18.648)" fill="#8a8a8a"/>
          <path id="Path_991" data-name="Path 991" d="M41,40H52.655v2.914H41Z" transform="translate(17.277 16.82)" fill="#8a8a8a"/>
          <path id="Path_992" data-name="Path 992" d="M41,36H52.655v2.914H41Z" transform="translate(17.277 14.992)" fill="#8a8a8a"/>
          <path id="Path_993" data-name="Path 993" d="M41,32H52.655v2.914H41Z" transform="translate(17.277 13.165)" fill="#8a8a8a"/>
          <path id="Path_994" data-name="Path 994" d="M41,28H52.655v2.914H41Z" transform="translate(17.277 11.337)" fill="#8a8a8a"/>
        </g>
      </g>
    </g>
  </g>
</svg>
