<svg xmlns="http://www.w3.org/2000/svg" xmlns:xlink="http://www.w3.org/1999/xlink"  viewBox="0 0 281 249">
  <defs><style>
        @import url('https://fonts.googleapis.com/css2?family=Roboto+Condensed:wght@300;400&amp;display=swap');
        </style>
    <filter id="Rectangle_394" x="0" y="0" width="281" height="249" filterUnits="userSpaceOnUse">
      <feOffset dy="3" input="SourceAlpha"/>
      <feGaussianBlur stdDeviation="3" result="blur"/>
      <feFlood flood-color="#95b2bb"/>
      <feComposite operator="in" in2="blur"/>
      <feComposite in="SourceGraphic"/>
    </filter>
  </defs>
  <g id="Group_672" data-name="Group 672" transform="translate(-638 -9370)">
    <g transform="matrix(1, 0, 0, 1, 638, 9370)" filter="url(#Rectangle_394)">
      <path id="Rectangle_394-2" data-name="Rectangle 394" d="M2,0H227a36,36,0,0,1,36,36V195a36,36,0,0,1-36,36H36A36,36,0,0,1,0,195V2A2,2,0,0,1,2,0Z" transform="translate(9 6)" fill="#fff"/>
    </g>
    <g id="Group_639" data-name="Group 639" transform="translate(-2584 1227.775)">
      <text style="text-align: center;font-weight:400; font-family:Roboto Condensed" id="Stringent_recruitment_strategies_to_recruit_new_talents" data-name="Stringent recruitment 
strategies to recruit
new talents" transform="translate(3362 8311)" fill="#0054a5" font-size="15" font-family="RobotoCondensed-Regular, Roboto"><tspan x="-81.691" y="0">STRINGENT RECRUITMENT </tspan><tspan x="-74.663" y="17">STRATEGIES TO RECRUIT</tspan><tspan x="-42.719" y="34">NEW TALENTS</tspan></text>
      <g id="talent-management" transform="translate(3316 8178.225)">
        <g id="Group_241" data-name="Group 241" transform="translate(28.075 20.397)">
          <g id="Group_240" data-name="Group 240">
            <path id="Path_980" data-name="Path 980" d="M82.525,44.546v10.84L78.9,56.61a31.685,31.685,0,0,1-4.473,10.825l1.69,3.424-7.663,7.663-3.424-1.69A31.685,31.685,0,0,1,54.2,81.3l-1.224,3.628H42.139L40.915,81.3A31.685,31.685,0,0,1,30.09,76.832l-3.424,1.69-6.4-6.4a8.692,8.692,0,0,0,2.52-6.134V63.079A2.9,2.9,0,0,0,25.5,61.2a24.778,24.778,0,1,0,8.581-31.994l-.335.175a18.955,18.955,0,0,0,.393-8.494,31.907,31.907,0,0,1,6.775-2.258L42.139,15h10.84L54.2,18.628A31.685,31.685,0,0,1,65.027,23.1l3.424-1.69,7.663,7.663L74.424,32.5A31.685,31.685,0,0,1,78.9,43.323Z" transform="translate(-20.27 -15)" fill="#1664ff"/>
          </g>
        </g>
        <g id="Group_242" data-name="Group 242" transform="translate(32.013 29.139)">
          <path id="Path_981" data-name="Path 981" d="M46.323,73.449a26.12,26.12,0,0,1-23.35-14.326L25.568,57.8a23.316,23.316,0,1,0,8.068-30.112l-.439.24-1.377-2.567.332-.178A25.953,25.953,0,0,1,46.323,21a26.225,26.225,0,1,1,0,52.449Z" transform="translate(-22.973 -21)" fill="#8a8a8a"/>
        </g>
        <g id="Group_243" data-name="Group 243" transform="translate(58.277 58.277)">
          <path id="Path_982" data-name="Path 982" d="M41,41H52.655V52.655H41Z" transform="translate(-41 -41)" fill="#57a4ff"/>
        </g>
        <g id="Group_244" data-name="Group 244" transform="translate(58.277 40.794)">
          <path id="Path_983" data-name="Path 983" d="M41,29H52.655V40.655H41Z" transform="translate(-41 -29)" fill="#57a4ff"/>
        </g>
        <g id="Group_245" data-name="Group 245" transform="translate(0 0)">
          <path id="Path_984" data-name="Path 984" d="M15,1h2.914V6.828H15Z" transform="translate(5.397 -1)" fill="#8a8a8a"/>
          <path id="Path_985" data-name="Path 985" d="M0,0H2.914V5.254H0Z" transform="matrix(0.832, -0.555, 0.555, 0.832, 3.16, 6.633)" fill="#8a8a8a"/>
          <path id="Path_986" data-name="Path 986" d="M0,0H5.254V2.914H0Z" transform="matrix(0.555, -0.832, 0.832, 0.555, 35.222, 9.395)" fill="#8a8a8a"/>
          <path id="Path_987" data-name="Path 987" d="M44,38.293,41.509,40.78H29V55.349H43.569V42.84l2.487-2.487ZM40.655,52.435H31.914V43.694H38.6l-4.8,4.8,2.06,2.06,4.8-4.8Z" transform="translate(11.794 16.04)" fill="#8a8a8a"/>
          <path id="Path_988" data-name="Path 988" d="M54.3,37.6H42.285A20.842,20.842,0,0,0,23.837,7H21.871a20.872,20.872,0,0,0-16.3,33.91l3.762,4.7a15.214,15.214,0,0,1,3.243,8.01H11.2a4.36,4.36,0,0,0-1.136,8.573,4.332,4.332,0,0,0,2.593,5.729v1.725a10.2,10.2,0,0,0,20.4,0V67.923a4.332,4.332,0,0,0,2.593-5.729,4.36,4.36,0,0,0-1.136-8.573H33.13a15.2,15.2,0,0,1,3.245-8.01l3.76-4.7a20.822,20.822,0,0,0,1.659-2.437V52.165H56.363V39.656l2.487-2.487-2.06-2.06ZM22.854,76.932a7.293,7.293,0,0,1-7.285-7.285V68.191H30.139v1.457A7.293,7.293,0,0,1,22.854,76.932ZM31.6,65.277H14.112a1.457,1.457,0,1,1,0-2.914H31.6a1.457,1.457,0,1,1,0,2.914Zm4.371-7.285a1.457,1.457,0,0,1-1.457,1.457H11.2a1.457,1.457,0,1,1,0-2.914H34.509A1.457,1.457,0,0,1,35.966,57.992Zm-20.46-4.371a18.144,18.144,0,0,0-3.794-9.691c.026-.006.05-.019.077-.023l5.382-1.091c.1-.029.2-.071.293-.106a5.813,5.813,0,0,0,10.777-.01c.135.05.268.1.408.146l5.267,1.062c.028.006.052.019.079.025a18.122,18.122,0,0,0-3.8,9.69Zm.063-20.4a1.457,1.457,0,1,1,0-2.914Zm1.457-7.285H15.569V27.4a4.309,4.309,0,0,0-1.811.405l-.508-1.018a5.614,5.614,0,0,1,5.021-8.128h9.166a5.615,5.615,0,0,1,5.023,8.127L31.95,27.8a4.33,4.33,0,0,0-1.811-.4V25.94H28.682A5.462,5.462,0,0,1,24.875,24.4l-2.021-1.944L20.833,24.4A5.462,5.462,0,0,1,17.026,25.94Zm13.112,4.371a1.457,1.457,0,1,1,0,2.914ZM18.483,33.225v-4.5a8.37,8.37,0,0,0,4.371-2.223,8.365,8.365,0,0,0,4.371,2.223v4.5a4.371,4.371,0,0,1-8.742,0Zm4.371,7.285a7.171,7.171,0,0,0,2.245-.39,5.738,5.738,0,0,0,.621.864,2.9,2.9,0,0,1-5.732.009,5.885,5.885,0,0,0,.622-.873,7.162,7.162,0,0,0,2.244.39Zm15-1.421-1.932,2.417a7.225,7.225,0,0,0-1.432-.456L29.34,40.015a2.915,2.915,0,0,1-1.706-1.337,7.3,7.3,0,0,0,1.888-2.539h.616a4.376,4.376,0,0,0,4.371-4.371,4.321,4.321,0,0,0-.392-1.788l.948-1.9a8.528,8.528,0,0,0-7.628-12.342H18.272a8.529,8.529,0,0,0-7.63,12.343l.947,1.9a4.356,4.356,0,0,0,3.98,6.158h.618a7.292,7.292,0,0,0,1.89,2.541,2.8,2.8,0,0,1-1.594,1.307l-5.271,1.062a7.229,7.229,0,0,0-1.429.456L7.849,39.089A17.957,17.957,0,0,1,21.871,9.914h1.967A17.957,17.957,0,0,1,37.859,39.089ZM53.449,49.251H44.708V40.509h6.681l-4.8,4.8,2.06,2.06,4.8-4.8Z" transform="translate(-1 1.742)" fill="#8a8a8a"/>
          <path id="Path_989" data-name="Path 989" d="M41,48H52.655v2.914H41Z" transform="translate(17.277 20.476)" fill="#8a8a8a"/>
          <path id="Path_990" data-name="Path 990" d="M41,44H52.655v2.914H41Z" transform="translate(17.277 18.648)" fill="#8a8a8a"/>
          <path id="Path_991" data-name="Path 991" d="M41,40H52.655v2.914H41Z" transform="translate(17.277 16.82)" fill="#8a8a8a"/>
          <path id="Path_992" data-name="Path 992" d="M41,36H52.655v2.914H41Z" transform="translate(17.277 14.992)" fill="#8a8a8a"/>
          <path id="Path_993" data-name="Path 993" d="M41,32H52.655v2.914H41Z" transform="translate(17.277 13.165)" fill="#8a8a8a"/>
          <path id="Path_994" data-name="Path 994" d="M41,28H52.655v2.914H41Z" transform="translate(17.277 11.337)" fill="#8a8a8a"/>
        </g>
      </g>
    </g>
  </g>
</svg>
