<svg xmlns="http://www.w3.org/2000/svg" xmlns:xlink="http://www.w3.org/1999/xlink" viewBox="0 0 281 249">
  <defs>
    <filter id="Rectangle_398" x="0" y="0" width="281" height="249" filterUnits="userSpaceOnUse">
      <feOffset dy="3" input="SourceAlpha"/>
      <feGaussianBlur stdDeviation="3" result="blur"/>
      <feFlood flood-color="#95b2bb"/>
      <feComposite operator="in" in2="blur"/>
      <feComposite in="SourceGraphic"/>
    </filter>
  </defs>
  <g id="Group_1080" data-name="Group 1080" transform="translate(-736 -355)">
    <g transform="matrix(1, 0, 0, 1, 736, 355)" filter="url(#Rectangle_398)">
      <path id="Rectangle_398-2" data-name="Rectangle 398" d="M2,0H227a36,36,0,0,1,36,36V195a36,36,0,0,1-36,36H36A36,36,0,0,1,0,195V2A2,2,0,0,1,2,0Z" transform="translate(9 6)" fill="#fff"/>
    </g>
    <g id="Group_1079" data-name="Group 1079">
      <path id="Path_4758" data-name="Path 4758" d="M-93.472,0V-10.664h3.025a3.543,3.543,0,0,1,2.823,1.282,4.9,4.9,0,0,1,1.095,3.3V-4.57a4.879,4.879,0,0,1-1.095,3.3A3.551,3.551,0,0,1-90.447,0Zm1.487-9.521v8.394h1.538a2.034,2.034,0,0,0,1.758-.963A4.3,4.3,0,0,0-88.03-4.57V-6.1a4.259,4.259,0,0,0-.659-2.457,2.034,2.034,0,0,0-1.758-.963ZM-83.13,0h-1.487V-10.664h1.487Zm8.979-1.392A3.292,3.292,0,0,1-75.363-.315,4.331,4.331,0,0,1-77.5.154,3.646,3.646,0,0,1-80.2-.864a3.915,3.915,0,0,1-1.022-2.9V-6.929A3.95,3.95,0,0,1-80.229-9.8,3.5,3.5,0,0,1-77.6-10.818a3.485,3.485,0,0,1,2.5.835,2.915,2.915,0,0,1,.85,2.285l-.015.044h-1.4a2.124,2.124,0,0,0-.487-1.49,1.827,1.827,0,0,0-1.417-.531,1.933,1.933,0,0,0-1.578.7,3.131,3.131,0,0,0-.575,2.032v3.179a3.162,3.162,0,0,0,.6,2.076A2,2,0,0,0-77.5-.974a2.623,2.623,0,0,0,1.2-.234,1.608,1.608,0,0,0,.656-.571V-4.263h-1.963V-5.347h3.457ZM-70.562,0h-1.487V-10.664h1.487Zm8.342-9.521h-2.827V0h-1.494V-9.521h-2.805v-1.143h7.126ZM-56.807-2.7h-3.186L-60.762,0h-1.545l3.2-10.664h1.443L-54.492,0h-1.545Zm-2.849-1.179h2.52l-1.23-4.336h-.044Zm7.874,2.747h4.314V0h-5.8V-10.664h1.487Zm10.518-3.464V0h-1.487V-10.657h3.142a3.35,3.35,0,0,1,2.377.784,2.927,2.927,0,0,1,.839,2.249,2.7,2.7,0,0,1-.392,1.461,2.583,2.583,0,0,1-1.124.97,2.041,2.041,0,0,1,1.183.923,3.218,3.218,0,0,1,.363,1.6v.93a4.182,4.182,0,0,0,.1.916,1.283,1.283,0,0,0,.337.659V0h-1.531a1.268,1.268,0,0,1-.326-.736,6.64,6.64,0,0,1-.077-1.022v-.9a2.209,2.209,0,0,0-.414-1.414,1.384,1.384,0,0,0-1.146-.52Zm0-1.135h1.582a1.746,1.746,0,0,0,1.362-.487A1.99,1.99,0,0,0-37.881-7.6a2.133,2.133,0,0,0-.428-1.421,1.61,1.61,0,0,0-1.3-.505h-1.655Zm11.96.776h-3.618v3.823h4.263V0h-5.75V-10.664H-28.7v1.143h-4.226v3.435H-29.3Zm3.625.747V0h-1.487V-10.664H-23.7a3.152,3.152,0,0,1,2.377.89,3.224,3.224,0,0,1,.861,2.34,3.221,3.221,0,0,1-.861,2.344A3.159,3.159,0,0,1-23.7-4.2Zm0-1.143H-23.7a1.543,1.543,0,0,0,1.311-.59,2.386,2.386,0,0,0,.447-1.483,2.46,2.46,0,0,0-.443-1.5,1.53,1.53,0,0,0-1.315-.6h-1.978ZM-11.711-3.86A4.07,4.07,0,0,1-12.737-.9,3.648,3.648,0,0,1-15.483.154,3.548,3.548,0,0,1-18.186-.9a4.124,4.124,0,0,1-1-2.955V-6.79a4.154,4.154,0,0,1,1-2.959,3.52,3.52,0,0,1,2.7-1.069,3.647,3.647,0,0,1,2.75,1.066A4.088,4.088,0,0,1-11.711-6.79Zm-1.479-2.952a3.244,3.244,0,0,0-.6-2.113,2.085,2.085,0,0,0-1.7-.721,1.98,1.98,0,0,0-1.644.721,3.333,3.333,0,0,0-.575,2.113V-3.86a3.361,3.361,0,0,0,.579,2.131A1.986,1.986,0,0,0-15.483-1a2.075,2.075,0,0,0,1.7-.721,3.3,3.3,0,0,0,.593-2.135Zm4.7,2.219V0H-9.976V-10.657h3.142a3.35,3.35,0,0,1,2.377.784,2.927,2.927,0,0,1,.839,2.249A2.7,2.7,0,0,1-4.01-6.163a2.583,2.583,0,0,1-1.124.97,2.041,2.041,0,0,1,1.183.923,3.218,3.218,0,0,1,.363,1.6v.93a4.182,4.182,0,0,0,.1.916,1.283,1.283,0,0,0,.337.659V0H-4.687a1.268,1.268,0,0,1-.326-.736A6.64,6.64,0,0,1-5.09-1.758v-.9A2.209,2.209,0,0,0-5.5-4.072a1.384,1.384,0,0,0-1.146-.52Zm0-1.135h1.582a1.746,1.746,0,0,0,1.362-.487A1.99,1.99,0,0,0-5.1-7.6a2.133,2.133,0,0,0-.428-1.421,1.61,1.61,0,0,0-1.3-.505H-8.489ZM4.16-9.521H1.333V0H-.161V-9.521H-2.966v-1.143H4.16Zm6.021,6.841a1.752,1.752,0,0,0-.417-1.2,3.657,3.657,0,0,0-1.472-.861A6.043,6.043,0,0,1,5.984-5.955a2.546,2.546,0,0,1-.806-1.97A2.7,2.7,0,0,1,6.068-10a3.243,3.243,0,0,1,2.281-.817,3.179,3.179,0,0,1,2.373.908,3.018,3.018,0,0,1,.864,2.278l-.015.044H10.144a2.242,2.242,0,0,0-.5-1.516,1.646,1.646,0,0,0-1.311-.579,1.544,1.544,0,0,0-1.227.5,1.823,1.823,0,0,0-.436,1.245,1.545,1.545,0,0,0,.461,1.15,4.449,4.449,0,0,0,1.553.857,5.463,5.463,0,0,1,2.219,1.245A2.71,2.71,0,0,1,11.667-2.7a2.6,2.6,0,0,1-.9,2.076A3.481,3.481,0,0,1,8.416.154,3.79,3.79,0,0,1,5.969-.681a2.8,2.8,0,0,1-1-2.4L4.98-3.12H6.416A2.107,2.107,0,0,0,6.991-1.5a2.012,2.012,0,0,0,1.425.535,1.76,1.76,0,0,0,1.3-.465A1.68,1.68,0,0,0,10.181-2.681Zm11.66-2.058H18.113V0H16.626V-10.664h5.859v1.143H18.113v3.647h3.728Zm9.2.879A4.07,4.07,0,0,1,30.015-.9,3.648,3.648,0,0,1,27.268.154,3.548,3.548,0,0,1,24.565-.9a4.124,4.124,0,0,1-1-2.955V-6.79a4.154,4.154,0,0,1,1-2.959,3.52,3.52,0,0,1,2.7-1.069,3.647,3.647,0,0,1,2.75,1.066A4.088,4.088,0,0,1,31.04-6.79ZM29.561-6.812a3.244,3.244,0,0,0-.6-2.113,2.085,2.085,0,0,0-1.7-.721,1.98,1.98,0,0,0-1.644.721,3.333,3.333,0,0,0-.575,2.113V-3.86a3.361,3.361,0,0,0,.579,2.131A1.986,1.986,0,0,0,27.268-1a2.075,2.075,0,0,0,1.7-.721,3.3,3.3,0,0,0,.593-2.135Zm4.7,2.219V0H32.776V-10.657h3.142a3.35,3.35,0,0,1,2.377.784,2.927,2.927,0,0,1,.839,2.249,2.7,2.7,0,0,1-.392,1.461,2.583,2.583,0,0,1-1.124.97A2.041,2.041,0,0,1,38.8-4.27a3.218,3.218,0,0,1,.363,1.6v.93a4.182,4.182,0,0,0,.1.916,1.283,1.283,0,0,0,.337.659V0H38.064a1.268,1.268,0,0,1-.326-.736,6.64,6.64,0,0,1-.077-1.022v-.9a2.209,2.209,0,0,0-.414-1.414,1.384,1.384,0,0,0-1.146-.52Zm0-1.135h1.582a1.746,1.746,0,0,0,1.362-.487A1.99,1.99,0,0,0,37.646-7.6a2.133,2.133,0,0,0-.428-1.421,1.61,1.61,0,0,0-1.3-.505H34.263Zm16.824,2.52.015.044a3.144,3.144,0,0,1-.879,2.446,3.458,3.458,0,0,1-2.5.872A3.393,3.393,0,0,1,45.11-.9a4.174,4.174,0,0,1-.974-2.948V-6.8A4.245,4.245,0,0,1,45.1-9.756a3.3,3.3,0,0,1,2.578-1.062,3.614,3.614,0,0,1,2.549.846A3.118,3.118,0,0,1,51.108-7.5l-.015.044H49.666a2.414,2.414,0,0,0-.5-1.681,1.938,1.938,0,0,0-1.494-.538,1.763,1.763,0,0,0-1.516.736,3.558,3.558,0,0,0-.535,2.113v2.981a3.532,3.532,0,0,0,.549,2.131,1.82,1.82,0,0,0,1.553.74,1.864,1.864,0,0,0,1.45-.531,2.485,2.485,0,0,0,.483-1.7ZM54.2-1.128h4.314V0h-5.8V-10.664H54.2ZM61.56,0H60.073V-10.664H61.56Zm7.28-4.951H65.222v3.823h4.263V0h-5.75V-10.664h5.713v1.143H65.222v3.435H68.84ZM78.135,0H76.641L72.51-7.866l-.044.015V0H70.979V-10.664h1.487L76.6-2.82l.044-.007v-7.837h1.494Zm8.2-9.521H83.511V0H82.017V-9.521H79.211v-1.143h7.126Zm6.021,6.841a1.752,1.752,0,0,0-.417-1.2,3.657,3.657,0,0,0-1.472-.861,6.043,6.043,0,0,1-2.307-1.208,2.546,2.546,0,0,1-.806-1.97A2.7,2.7,0,0,1,88.246-10a3.243,3.243,0,0,1,2.281-.817A3.179,3.179,0,0,1,92.9-9.91a3.018,3.018,0,0,1,.864,2.278l-.015.044H92.322a2.242,2.242,0,0,0-.5-1.516,1.646,1.646,0,0,0-1.311-.579,1.544,1.544,0,0,0-1.227.5,1.823,1.823,0,0,0-.436,1.245,1.545,1.545,0,0,0,.461,1.15,4.449,4.449,0,0,0,1.553.857,5.463,5.463,0,0,1,2.219,1.245A2.71,2.71,0,0,1,93.845-2.7a2.6,2.6,0,0,1-.9,2.076,3.481,3.481,0,0,1-2.355.773,3.79,3.79,0,0,1-2.446-.835,2.8,2.8,0,0,1-1-2.4l.015-.044h1.436A2.107,2.107,0,0,0,89.169-1.5a2.012,2.012,0,0,0,1.425.535,1.76,1.76,0,0,0,1.3-.465A1.68,1.68,0,0,0,92.358-2.681Z" transform="translate(881 523.775)" fill="#0054a5"/>
      <g id="file-graph-website-report-Digital_Marketing" data-name="file-graph-website-report-Digital Marketing" transform="translate(836 391)">
        <path id="Path_995" data-name="Path 995" d="M69.242,3V84.3H3V19.56H19.56V3Z" transform="translate(-1.495 -1.495)" fill="#64c1f7"/>
        <path id="Path_996" data-name="Path 996" d="M28.538,29.538H18V19A10.538,10.538,0,0,1,28.539,29.538Z" transform="translate(6.088 6.593)" fill="#a8ddfd"/>
        <path id="Path_997" data-name="Path 997" d="M18.538,32.538H29.077A10.538,10.538,0,1,1,18.538,22Z" transform="translate(1.033 8.11)" fill="#1664ff"/>
        <path id="Path_998" data-name="Path 998" d="M19.56,3V19.56H3Z" transform="translate(-1.495 -1.495)" fill="#3e8bda"/>
        <path id="Path_999" data-name="Path 999" d="M26,31H77.187v9.033H26Z" transform="translate(10.132 12.659)" fill="#1664ff"/>
        <path id="Path_1000" data-name="Path 1000" d="M26,37H77.187V73.132H26Z" transform="translate(10.132 15.692)" fill="#57a4ff"/>
        <g id="Group_246" data-name="Group 246" transform="translate(48.176 60.22)">
          <path id="Path_1001" data-name="Path 1001" d="M34,49h6.022V59.538H34Z" transform="translate(-34 -38.462)" fill="#64c1f7"/>
          <path id="Path_1002" data-name="Path 1002" d="M41,46h6.022V61.055H41Z" transform="translate(-30.461 -39.978)" fill="#64c1f7"/>
          <path id="Path_1003" data-name="Path 1003" d="M48,42h6.022V63.077H48Z" transform="translate(-26.923 -42)" fill="#64c1f7"/>
        </g>
        <path id="Path_1004" data-name="Path 1004" d="M35.022,11v9.033L29,18.527V12.505Z" transform="translate(11.648 2.549)" fill="#57a4ff"/>
        <path id="Path_1005" data-name="Path 1005" d="M33,10H45.044V22.044H33Z" transform="translate(13.67 2.044)" fill="#e8e5fb"/>
        <path id="Path_1006" data-name="Path 1006" d="M42.528,18,41.022,31.549H35V18Z" transform="translate(14.681 6.088)" fill="#fff"/>
        <path id="Path_1007" data-name="Path 1007" d="M60.134,12.888a2.943,2.943,0,0,1,.888,2.123,3.02,3.02,0,0,1-3.011,3.011H55V12h3.011a2.943,2.943,0,0,1,2.123.888Z" transform="translate(24.791 3.055)" fill="#a8ddfd"/>
        <path id="Path_1008" data-name="Path 1008" d="M62.077,5V32.1L41,24.571V12.527Z" transform="translate(17.714 -0.484)" fill="#57a4ff"/>
        <path id="Path_1009" data-name="Path 1009" d="M29.583,31.538H20.549V22.505A1.505,1.505,0,0,0,19.044,21,12.044,12.044,0,1,0,31.088,33.044,1.505,1.505,0,0,0,29.583,31.538ZM19.044,42.077a9.033,9.033,0,0,1-1.505-17.941v8.908a1.505,1.505,0,0,0,1.506,1.505h8.908a9.048,9.048,0,0,1-8.908,7.527Z" transform="translate(0.527 7.604)" fill="#8a8a8a"/>
        <path id="Path_1010" data-name="Path 1010" d="M18.506,18A1.505,1.505,0,0,0,17,19.505V30.044a1.505,1.505,0,0,0,1.506,1.505H29.044a1.505,1.505,0,0,0,1.505-1.505A12.058,12.058,0,0,0,18.505,18Zm1.505,10.538v-7.4a9.059,9.059,0,0,1,7.4,7.4Z" transform="translate(5.582 6.088)" fill="#8a8a8a"/>
        <path id="Path_1011" data-name="Path 1011" d="M7,40H29.583v3.011H7Z" transform="translate(0.527 17.209)" fill="#8a8a8a"/>
        <path id="Path_1012" data-name="Path 1012" d="M7,44H29.583v3.011H7Z" transform="translate(0.527 19.231)" fill="#8a8a8a"/>
        <path id="Path_1013" data-name="Path 1013" d="M7,48h3.011v3.011H7Z" transform="translate(0.527 21.253)" fill="#8a8a8a"/>
        <path id="Path_1014" data-name="Path 1014" d="M11,48H27.56v3.011H11Z" transform="translate(2.549 21.253)" fill="#8a8a8a"/>
        <path id="Path_1015" data-name="Path 1015" d="M89.319,44.154H71.253V31.447L81.28,35.031A1.5,1.5,0,0,0,83.3,33.615V24.582H84.8a4.516,4.516,0,1,0,0-9.033H83.3V6.516a1.527,1.527,0,0,0-.632-1.235A1.558,1.558,0,0,0,81.28,5.1L71.253,8.684V5.011A3.02,3.02,0,0,0,68.242,2H20.066A1.555,1.555,0,0,0,19,2.437L2.437,19A1.555,1.555,0,0,0,2,20.066V84.8a1.506,1.506,0,0,0,1.506,1.506H36.627v4.516a1.506,1.506,0,0,0,1.505,1.506H89.319a1.506,1.506,0,0,0,1.506-1.506V45.659a1.505,1.505,0,0,0-1.506-1.505ZM83.3,18.56H84.8a1.505,1.505,0,1,1,0,3.011H83.3ZM80.286,8.654V31.478L62.22,25.034V15.1ZM18.56,7.134V18.56H7.134ZM36.626,45.659V83.3H5.011V21.571H20.066a1.505,1.505,0,0,0,1.505-1.505V5.011h46.67V9.753l-7.783,2.785H48.67a1.505,1.505,0,0,0-1.505,1.505v.331l-4.878,1.219a1.506,1.506,0,0,0-1.144,1.46v6.022a1.506,1.506,0,0,0,1.144,1.46l4.878,1.219v.331a1.505,1.505,0,0,0,1.505,1.505h1.506V39.637a1.505,1.505,0,0,0,1.506,1.505H57.7a1.489,1.489,0,0,0,1.49-1.34l1.355-12.179,7.693,2.755V44.154H38.132a1.505,1.505,0,0,0-1.505,1.505ZM50.176,24.582V15.549h9.033v9.033Zm7.347,3.011L56.349,38.132H53.187V27.593ZM47.165,17.476v5.179L44.154,21.9V18.229ZM87.813,89.319H39.637V56.2H87.813Zm0-36.132H39.637V47.165H87.813Z" transform="translate(-2 -2)" fill="#8a8a8a"/>
        <path id="Path_1016" data-name="Path 1016" d="M29,33h3.011v3.011H29Z" transform="translate(11.648 13.67)" fill="#8a8a8a"/>
        <path id="Path_1017" data-name="Path 1017" d="M33,33h3.011v3.011H33Z" transform="translate(13.67 13.67)" fill="#8a8a8a"/>
        <path id="Path_1018" data-name="Path 1018" d="M37,33h3.011v3.011H37Z" transform="translate(15.692 13.67)" fill="#8a8a8a"/>
        <path id="Path_1019" data-name="Path 1019" d="M64.121,62.077V42.505A1.506,1.506,0,0,0,62.615,41H56.593a1.505,1.505,0,0,0-1.505,1.505V62.077H53.583V48.527a1.506,1.506,0,0,0-1.506-1.505H46.055a1.505,1.505,0,0,0-1.505,1.505V62.077H43.044V53.044a1.506,1.506,0,0,0-1.506-1.505H35.516a1.506,1.506,0,0,0-1.506,1.505v9.033H31v3.011H67.132V62.077Zm-24.088,0H37.022V54.549h3.011Zm10.538,0H47.561V50.033h3.011Zm10.539,0H58.1V44.011H61.11Z" transform="translate(12.659 17.714)" fill="#8a8a8a"/>
      </g>
    </g>
  </g>
</svg>
