<svg xmlns="http://www.w3.org/2000/svg" xmlns:xlink="http://www.w3.org/1999/xlink" viewBox="0 0 281 249">
  <defs><style>
        @import url('https://fonts.googleapis.com/css2?family=Roboto+Condensed:wght@300;400&amp;display=swap');
        </style>
    <filter id="Rectangle_398" x="0" y="0" width="281" height="249" filterUnits="userSpaceOnUse">
      <feOffset dy="3" input="SourceAlpha"/>
      <feGaussianBlur stdDeviation="3" result="blur"/>
      <feFlood flood-color="#95b2bb"/>
      <feComposite operator="in" in2="blur"/>
      <feComposite in="SourceGraphic"/>
    </filter>
  </defs>
  <g id="Group_673" data-name="Group 673" transform="translate(-1006 -9370)">
    <g transform="matrix(1, 0, 0, 1, 1006, 9370)" filter="url(#Rectangle_398)">
      <path id="Rectangle_398-2" data-name="Rectangle 398" d="M2,0H227a36,36,0,0,1,36,36V195a36,36,0,0,1-36,36H36A36,36,0,0,1,0,195V2A2,2,0,0,1,2,0Z" transform="translate(9 6)" fill="#fff"/>
    </g>
    <g id="Group_640" data-name="Group 640" transform="translate(1054 9408)">
      <text style="text-align: center;font-weight:400; font-family:Roboto Condensed" id="Digital_reports_for_clients" data-name="Digital reports for clients" transform="translate(94 132.775)" fill="#0054a5" font-size="15" font-family="RobotoCondensed-Regular, Roboto"><tspan x="-94.49" y="0">DIGITAL REPORTS FOR CLIENTS</tspan></text>
      <g id="file-graph-website-report-Digital_Marketing" data-name="file-graph-website-report-Digital Marketing" transform="translate(49)">
        <path id="Path_995" data-name="Path 995" d="M69.242,3V84.3H3V19.56H19.56V3Z" transform="translate(-1.495 -1.495)" fill="#64c1f7"/>
        <path id="Path_996" data-name="Path 996" d="M28.538,29.538H18V19A10.538,10.538,0,0,1,28.539,29.538Z" transform="translate(6.088 6.593)" fill="#a8ddfd"/>
        <path id="Path_997" data-name="Path 997" d="M18.538,32.538H29.077A10.538,10.538,0,1,1,18.538,22Z" transform="translate(1.033 8.11)" fill="#1664ff"/>
        <path id="Path_998" data-name="Path 998" d="M19.56,3V19.56H3Z" transform="translate(-1.495 -1.495)" fill="#3e8bda"/>
        <path id="Path_999" data-name="Path 999" d="M26,31H77.187v9.033H26Z" transform="translate(10.132 12.659)" fill="#1664ff"/>
        <path id="Path_1000" data-name="Path 1000" d="M26,37H77.187V73.132H26Z" transform="translate(10.132 15.692)" fill="#57a4ff"/>
        <g id="Group_246" data-name="Group 246" transform="translate(48.176 60.22)">
          <path id="Path_1001" data-name="Path 1001" d="M34,49h6.022V59.538H34Z" transform="translate(-34 -38.462)" fill="#64c1f7"/>
          <path id="Path_1002" data-name="Path 1002" d="M41,46h6.022V61.055H41Z" transform="translate(-30.461 -39.978)" fill="#64c1f7"/>
          <path id="Path_1003" data-name="Path 1003" d="M48,42h6.022V63.077H48Z" transform="translate(-26.923 -42)" fill="#64c1f7"/>
        </g>
        <path id="Path_1004" data-name="Path 1004" d="M35.022,11v9.033L29,18.527V12.505Z" transform="translate(11.648 2.549)" fill="#57a4ff"/>
        <path id="Path_1005" data-name="Path 1005" d="M33,10H45.044V22.044H33Z" transform="translate(13.67 2.044)" fill="#e8e5fb"/>
        <path id="Path_1006" data-name="Path 1006" d="M42.528,18,41.022,31.549H35V18Z" transform="translate(14.681 6.088)" fill="#fff"/>
        <path id="Path_1007" data-name="Path 1007" d="M60.134,12.888a2.943,2.943,0,0,1,.888,2.123,3.02,3.02,0,0,1-3.011,3.011H55V12h3.011a2.943,2.943,0,0,1,2.123.888Z" transform="translate(24.791 3.055)" fill="#a8ddfd"/>
        <path id="Path_1008" data-name="Path 1008" d="M62.077,5V32.1L41,24.571V12.527Z" transform="translate(17.714 -0.484)" fill="#57a4ff"/>
        <path id="Path_1009" data-name="Path 1009" d="M29.583,31.538H20.549V22.505A1.505,1.505,0,0,0,19.044,21,12.044,12.044,0,1,0,31.088,33.044,1.505,1.505,0,0,0,29.583,31.538ZM19.044,42.077a9.033,9.033,0,0,1-1.505-17.941v8.908a1.505,1.505,0,0,0,1.506,1.505h8.908a9.048,9.048,0,0,1-8.908,7.527Z" transform="translate(0.527 7.604)" fill="#8a8a8a"/>
        <path id="Path_1010" data-name="Path 1010" d="M18.506,18A1.505,1.505,0,0,0,17,19.505V30.044a1.505,1.505,0,0,0,1.506,1.505H29.044a1.505,1.505,0,0,0,1.505-1.505A12.058,12.058,0,0,0,18.505,18Zm1.505,10.538v-7.4a9.059,9.059,0,0,1,7.4,7.4Z" transform="translate(5.582 6.088)" fill="#8a8a8a"/>
        <path id="Path_1011" data-name="Path 1011" d="M7,40H29.583v3.011H7Z" transform="translate(0.527 17.209)" fill="#8a8a8a"/>
        <path id="Path_1012" data-name="Path 1012" d="M7,44H29.583v3.011H7Z" transform="translate(0.527 19.231)" fill="#8a8a8a"/>
        <path id="Path_1013" data-name="Path 1013" d="M7,48h3.011v3.011H7Z" transform="translate(0.527 21.253)" fill="#8a8a8a"/>
        <path id="Path_1014" data-name="Path 1014" d="M11,48H27.56v3.011H11Z" transform="translate(2.549 21.253)" fill="#8a8a8a"/>
        <path id="Path_1015" data-name="Path 1015" d="M89.319,44.154H71.253V31.447L81.28,35.031A1.5,1.5,0,0,0,83.3,33.615V24.582H84.8a4.516,4.516,0,1,0,0-9.033H83.3V6.516a1.527,1.527,0,0,0-.632-1.235A1.558,1.558,0,0,0,81.28,5.1L71.253,8.684V5.011A3.02,3.02,0,0,0,68.242,2H20.066A1.555,1.555,0,0,0,19,2.437L2.437,19A1.555,1.555,0,0,0,2,20.066V84.8a1.506,1.506,0,0,0,1.506,1.506H36.627v4.516a1.506,1.506,0,0,0,1.505,1.506H89.319a1.506,1.506,0,0,0,1.506-1.506V45.659a1.505,1.505,0,0,0-1.506-1.505ZM83.3,18.56H84.8a1.505,1.505,0,1,1,0,3.011H83.3ZM80.286,8.654V31.478L62.22,25.034V15.1ZM18.56,7.134V18.56H7.134ZM36.626,45.659V83.3H5.011V21.571H20.066a1.505,1.505,0,0,0,1.505-1.505V5.011h46.67V9.753l-7.783,2.785H48.67a1.505,1.505,0,0,0-1.505,1.505v.331l-4.878,1.219a1.506,1.506,0,0,0-1.144,1.46v6.022a1.506,1.506,0,0,0,1.144,1.46l4.878,1.219v.331a1.505,1.505,0,0,0,1.505,1.505h1.506V39.637a1.505,1.505,0,0,0,1.506,1.505H57.7a1.489,1.489,0,0,0,1.49-1.34l1.355-12.179,7.693,2.755V44.154H38.132a1.505,1.505,0,0,0-1.505,1.505ZM50.176,24.582V15.549h9.033v9.033Zm7.347,3.011L56.349,38.132H53.187V27.593ZM47.165,17.476v5.179L44.154,21.9V18.229ZM87.813,89.319H39.637V56.2H87.813Zm0-36.132H39.637V47.165H87.813Z" transform="translate(-2 -2)" fill="#8a8a8a"/>
        <path id="Path_1016" data-name="Path 1016" d="M29,33h3.011v3.011H29Z" transform="translate(11.648 13.67)" fill="#8a8a8a"/>
        <path id="Path_1017" data-name="Path 1017" d="M33,33h3.011v3.011H33Z" transform="translate(13.67 13.67)" fill="#8a8a8a"/>
        <path id="Path_1018" data-name="Path 1018" d="M37,33h3.011v3.011H37Z" transform="translate(15.692 13.67)" fill="#8a8a8a"/>
        <path id="Path_1019" data-name="Path 1019" d="M64.121,62.077V42.505A1.506,1.506,0,0,0,62.615,41H56.593a1.505,1.505,0,0,0-1.505,1.505V62.077H53.583V48.527a1.506,1.506,0,0,0-1.506-1.505H46.055a1.505,1.505,0,0,0-1.505,1.505V62.077H43.044V53.044a1.506,1.506,0,0,0-1.506-1.505H35.516a1.506,1.506,0,0,0-1.506,1.505v9.033H31v3.011H67.132V62.077Zm-24.088,0H37.022V54.549h3.011Zm10.538,0H47.561V50.033h3.011Zm10.539,0H58.1V44.011H61.11Z" transform="translate(12.659 17.714)" fill="#8a8a8a"/>
      </g>
    </g>
  </g>
</svg>
