<svg xmlns="http://www.w3.org/2000/svg" xmlns:xlink="http://www.w3.org/1999/xlink" viewBox="0 0 281 249">
  <defs><style>
        @import url('https://fonts.googleapis.com/css2?family=Roboto+Condensed:wght@300;400&amp;display=swap');
        </style>
    <filter id="Rectangle_401" x="0" y="0" width="281" height="249" filterUnits="userSpaceOnUse">
      <feOffset dy="3" input="SourceAlpha"/>
      <feGaussianBlur stdDeviation="3" result="blur"/>
      <feFlood flood-color="#95b2bb"/>
      <feComposite operator="in" in2="blur"/>
      <feComposite in="SourceGraphic"/>
    </filter>
  </defs>
  <g id="Group_674" data-name="Group 674" transform="translate(-1373 -9370)">
    <g transform="matrix(1, 0, 0, 1, 1373, 9370)" filter="url(#Rectangle_401)">
      <path id="Rectangle_401-2" data-name="Rectangle 401" d="M2,0H227a36,36,0,0,1,36,36V195a36,36,0,0,1-36,36H36A36,36,0,0,1,0,195V2A2,2,0,0,1,2,0Z" transform="translate(9 6)" fill="#fff"/>
    </g>
    <g id="Group_638" data-name="Group 638" transform="translate(-2408 1227.775)">
      <text style="text-align: center;font-weight:400; font-family:Roboto Condensed" id="Digital_integration:_AmiProbashi_App" data-name="Digital integration:
 ‘AmiProbashi’ App" transform="translate(3922 8311)" fill="#0054a5" font-size="15" font-family="RobotoCondensed-Regular, Roboto"><tspan x="-67.943" y="0">DIGITAL INTEGRATION:</tspan><tspan x="-61.794" y="17" xml:space="preserve"> ‘AMIPROBASHI’ APP</tspan></text>
      <g id="Page-1" transform="translate(3878 8178.225)">
        <g id="_012---media-grid" data-name="012---media-grid">
          <rect id="Rectangle-path" width="37" height="37" rx="6" transform="translate(1.892 1.775)" fill="#02a9f4"/>
          <path id="Shape" d="M22.331,1H18a8.662,8.662,0,0,1,8.662,8.662V29.875A8.662,8.662,0,0,1,18,38.537h4.331a8.662,8.662,0,0,0,8.662-8.662V9.662A8.662,8.662,0,0,0,22.331,1Z" transform="translate(7.987 0.444)" fill="#0377bc"/>
          <rect id="Rectangle-path-2" data-name="Rectangle-path" width="39" height="37" rx="6" transform="translate(46.892 1.775)" fill="#1664ff"/>
          <path id="Shape-2" data-name="Shape" d="M54.331,1H50a8.662,8.662,0,0,1,8.662,8.662V29.875A8.662,8.662,0,0,1,50,38.537h4.331a8.662,8.662,0,0,0,8.662-8.662V9.662A8.662,8.662,0,0,0,54.331,1Z" transform="translate(22.187 0.444)" fill="#a8ddfd"/>
          <rect id="Rectangle-path-3" data-name="Rectangle-path" width="37" height="38" rx="6" transform="translate(1.892 47.775)" fill="#64c1f7"/>
          <path id="Shape-3" data-name="Shape" d="M22.331,33H18a8.662,8.662,0,0,1,8.662,8.662V61.875A8.662,8.662,0,0,1,18,70.537h4.331a8.662,8.662,0,0,0,8.662-8.662V41.662A8.662,8.662,0,0,0,22.331,33Z" transform="translate(7.987 14.644)" fill="#1664ff"/>
          <rect id="Rectangle-path-4" data-name="Rectangle-path" width="39" height="38" rx="6" transform="translate(46.892 47.775)" fill="#a8ddfd"/>
          <path id="Shape-4" data-name="Shape" d="M54.331,33H50a8.662,8.662,0,0,1,8.662,8.662V61.875A8.662,8.662,0,0,1,50,70.537h4.331a8.662,8.662,0,0,0,8.662-8.662V41.662A8.662,8.662,0,0,0,54.331,33Z" transform="translate(22.187 14.644)" fill="#02a9f4"/>
          <g id="Group_247" data-name="Group 247" transform="translate(5.775 5.775)">
            <path id="Shape-5" data-name="Shape" d="M5.444,12.662A1.444,1.444,0,0,1,4,11.219V8.331A4.331,4.331,0,0,1,8.331,4h5.775a1.444,1.444,0,1,1,0,2.887H8.331A1.444,1.444,0,0,0,6.887,8.331v2.887A1.444,1.444,0,0,1,5.444,12.662Z" transform="translate(-4 -4)" fill="#f5f5f5"/>
            <path id="Shape-6" data-name="Shape" d="M18.331,6.887H15.444a1.444,1.444,0,1,1,0-2.887h2.887a1.444,1.444,0,1,1,0,2.887Z" transform="translate(0.437 -4)" fill="#f5f5f5"/>
            <path id="Shape-7" data-name="Shape" d="M23.331,24.887H20.444a1.444,1.444,0,1,1,0-2.887h2.888a1.444,1.444,0,1,1,0,2.887Z" transform="translate(2.656 3.987)" fill="#f5f5f5"/>
            <path id="Shape-8" data-name="Shape" d="M55.331,24.887H52.444a1.444,1.444,0,1,1,0-2.887h2.887a1.444,1.444,0,1,1,0,2.887Z" transform="translate(16.856 3.987)" fill="#f5f5f5"/>
            <path id="Shape-9" data-name="Shape" d="M5.444,44.662A1.444,1.444,0,0,1,4,43.219V40.331A4.331,4.331,0,0,1,8.331,36h5.775a1.444,1.444,0,1,1,0,2.887H8.331a1.444,1.444,0,0,0-1.444,1.444v2.887A1.444,1.444,0,0,1,5.444,44.662Z" transform="translate(-4 10.2)" fill="#f5f5f5"/>
            <path id="Shape-10" data-name="Shape" d="M18.331,38.887H15.444a1.444,1.444,0,1,1,0-2.887h2.887a1.444,1.444,0,1,1,0,2.887Z" transform="translate(0.437 10.2)" fill="#f5f5f5"/>
            <path id="Shape-11" data-name="Shape" d="M37.444,12.662A1.444,1.444,0,0,1,36,11.219V8.331A4.331,4.331,0,0,1,40.331,4h5.775a1.444,1.444,0,1,1,0,2.887H40.331a1.444,1.444,0,0,0-1.444,1.444v2.887A1.444,1.444,0,0,1,37.444,12.662Z" transform="translate(10.2 -4)" fill="#f5f5f5"/>
            <path id="Shape-12" data-name="Shape" d="M50.331,6.887H47.444a1.444,1.444,0,1,1,0-2.887h2.887a1.444,1.444,0,1,1,0,2.887Z" transform="translate(14.637 -4)" fill="#f5f5f5"/>
            <path id="Shape-13" data-name="Shape" d="M37.444,44.662A1.444,1.444,0,0,1,36,43.219V40.331A4.331,4.331,0,0,1,40.331,36h5.775a1.444,1.444,0,1,1,0,2.887H40.331a1.444,1.444,0,0,0-1.444,1.444v2.887A1.444,1.444,0,0,1,37.444,44.662Z" transform="translate(10.2 10.2)" fill="#f5f5f5"/>
            <path id="Shape-14" data-name="Shape" d="M50.331,38.887H47.444a1.444,1.444,0,1,1,0-2.887h2.887a1.444,1.444,0,1,1,0,2.887Z" transform="translate(14.637 10.2)" fill="#f5f5f5"/>
            <path id="Shape-15" data-name="Shape" d="M23.331,56.887H20.444a1.444,1.444,0,1,1,0-2.887h2.888a1.444,1.444,0,1,1,0,2.887Z" transform="translate(2.656 18.187)" fill="#f5f5f5"/>
            <path id="Shape-16" data-name="Shape" d="M55.331,56.887H52.444a1.444,1.444,0,1,1,0-2.887h2.887a1.444,1.444,0,1,1,0,2.887Z" transform="translate(16.856 18.187)" fill="#f5f5f5"/>
          </g>
          <path id="Shape-17" data-name="Shape" d="M10.106,40.425H30.319A10.118,10.118,0,0,0,40.425,30.319V10.106A10.118,10.118,0,0,0,30.319,0H10.106A10.118,10.118,0,0,0,0,10.106V30.319A10.118,10.118,0,0,0,10.106,40.425ZM2.887,10.106a7.227,7.227,0,0,1,7.219-7.219H30.319a7.227,7.227,0,0,1,7.219,7.219V30.319a7.227,7.227,0,0,1-7.219,7.219H10.106a7.227,7.227,0,0,1-7.219-7.219Z" fill="#8a8a8a"/>
          <path id="Shape-18" data-name="Shape" d="M62.319,0H42.106A10.118,10.118,0,0,0,32,10.106V30.319A10.118,10.118,0,0,0,42.106,40.425H62.319A10.118,10.118,0,0,0,72.425,30.319V10.106A10.118,10.118,0,0,0,62.319,0Zm7.219,30.319a7.227,7.227,0,0,1-7.219,7.219H42.106a7.227,7.227,0,0,1-7.219-7.219V10.106a7.227,7.227,0,0,1,7.219-7.219H62.319a7.227,7.227,0,0,1,7.219,7.219Z" transform="translate(14.2)" fill="#8a8a8a"/>
          <path id="Shape-19" data-name="Shape" d="M10.106,72.425H30.319A10.118,10.118,0,0,0,40.425,62.319V42.106A10.118,10.118,0,0,0,30.319,32H10.106A10.118,10.118,0,0,0,0,42.106V62.319A10.118,10.118,0,0,0,10.106,72.425ZM2.887,42.106a7.227,7.227,0,0,1,7.219-7.219H30.319a7.227,7.227,0,0,1,7.219,7.219V62.319a7.227,7.227,0,0,1-7.219,7.219H10.106a7.227,7.227,0,0,1-7.219-7.219Z" transform="translate(0 14.2)" fill="#8a8a8a"/>
          <path id="Shape-20" data-name="Shape" d="M62.319,32H42.106A10.118,10.118,0,0,0,32,42.106V62.319A10.118,10.118,0,0,0,42.106,72.425H62.319A10.118,10.118,0,0,0,72.425,62.319V42.106A10.118,10.118,0,0,0,62.319,32Zm7.219,30.319a7.227,7.227,0,0,1-7.219,7.219H42.106a7.227,7.227,0,0,1-7.219-7.219V42.106a7.227,7.227,0,0,1,7.219-7.219H62.319a7.227,7.227,0,0,1,7.219,7.219Z" transform="translate(14.2 14.2)" fill="#8a8a8a"/>
        </g>
      </g>
    </g>
  </g>
</svg>
