<svg xmlns="http://www.w3.org/2000/svg" xmlns:xlink="http://www.w3.org/1999/xlink"  viewBox="0 0 281 249">
  <defs>
    <filter id="Rectangle_401" x="0" y="0" width="281" height="249" filterUnits="userSpaceOnUse">
      <feOffset dy="3" input="SourceAlpha"/>
      <feGaussianBlur stdDeviation="3" result="blur"/>
      <feFlood flood-color="#95b2bb"/>
      <feComposite operator="in" in2="blur"/>
      <feComposite in="SourceGraphic"/>
    </filter>
  </defs>
  <g id="Group_1082" data-name="Group 1082" transform="translate(-1103 -355)">
    <g transform="matrix(1, 0, 0, 1, 1103, 355)" filter="url(#Rectangle_401)">
      <path id="Rectangle_401-2" data-name="Rectangle 401" d="M2,0H227a36,36,0,0,1,36,36V195a36,36,0,0,1-36,36H36A36,36,0,0,1,0,195V2A2,2,0,0,1,2,0Z" transform="translate(9 6)" fill="#fff"/>
    </g>
    <path id="Path_4759" data-name="Path 4759" d="M-66.925,0V-10.664H-63.9a3.543,3.543,0,0,1,2.823,1.282,4.9,4.9,0,0,1,1.095,3.3V-4.57a4.879,4.879,0,0,1-1.095,3.3A3.551,3.551,0,0,1-63.9,0Zm1.487-9.521v8.394H-63.9a2.034,2.034,0,0,0,1.758-.963,4.3,4.3,0,0,0,.659-2.479V-6.1a4.259,4.259,0,0,0-.659-2.457A2.034,2.034,0,0,0-63.9-9.521ZM-56.583,0H-58.07V-10.664h1.487ZM-47.6-1.392A3.292,3.292,0,0,1-48.816-.315a4.331,4.331,0,0,1-2.142.469A3.646,3.646,0,0,1-53.65-.864a3.915,3.915,0,0,1-1.022-2.9V-6.929A3.95,3.95,0,0,1-53.683-9.8a3.5,3.5,0,0,1,2.629-1.018,3.485,3.485,0,0,1,2.5.835,2.915,2.915,0,0,1,.85,2.285l-.015.044h-1.4a2.124,2.124,0,0,0-.487-1.49,1.827,1.827,0,0,0-1.417-.531,1.933,1.933,0,0,0-1.578.7,3.131,3.131,0,0,0-.575,2.032v3.179a3.162,3.162,0,0,0,.6,2.076,2,2,0,0,0,1.622.714,2.623,2.623,0,0,0,1.2-.234A1.608,1.608,0,0,0-49.1-1.78V-4.263h-1.963V-5.347H-47.6ZM-44.015,0H-45.5V-10.664h1.487Zm8.342-9.521H-38.5V0h-1.494V-9.521H-42.8v-1.143h7.126ZM-30.26-2.7h-3.186L-34.215,0H-35.76l3.2-10.664h1.443L-27.946,0h-1.545Zm-2.849-1.179h2.52L-31.82-8.21h-.044Zm7.874,2.747h4.314V0h-5.8V-10.664h1.487ZM-14.579,0h-1.487V-10.664h1.487Zm9.331,0H-6.742l-4.131-7.866-.044.015V0H-12.4V-10.664h1.487L-6.786-2.82l.044-.007v-7.837h1.494Zm8.2-9.521H.128V0H-1.366V-9.521H-4.171v-1.143H2.955Zm6.379,4.57H5.717v3.823H9.979V0H4.23V-10.664H9.943v1.143H5.717v3.435H9.335Zm8.943,3.56A3.292,3.292,0,0,1,17.065-.315a4.331,4.331,0,0,1-2.142.469A3.646,3.646,0,0,1,12.231-.864a3.915,3.915,0,0,1-1.022-2.9V-6.929A3.95,3.95,0,0,1,12.2-9.8a3.5,3.5,0,0,1,2.629-1.018,3.485,3.485,0,0,1,2.5.835,2.915,2.915,0,0,1,.85,2.285l-.015.044h-1.4a2.124,2.124,0,0,0-.487-1.49,1.827,1.827,0,0,0-1.417-.531,1.933,1.933,0,0,0-1.578.7A3.131,3.131,0,0,0,12.7-6.943v3.179a3.162,3.162,0,0,0,.6,2.076,2,2,0,0,0,1.622.714,2.623,2.623,0,0,0,1.2-.234,1.608,1.608,0,0,0,.656-.571V-4.263H14.821V-5.347h3.457Zm3.45-3.2V0H20.24V-10.657h3.142a3.35,3.35,0,0,1,2.377.784A2.927,2.927,0,0,1,26.6-7.625a2.7,2.7,0,0,1-.392,1.461,2.583,2.583,0,0,1-1.124.97,2.041,2.041,0,0,1,1.183.923,3.218,3.218,0,0,1,.363,1.6v.93a4.182,4.182,0,0,0,.1.916,1.283,1.283,0,0,0,.337.659V0H25.529A1.268,1.268,0,0,1,25.2-.736a6.64,6.64,0,0,1-.077-1.022v-.9a2.209,2.209,0,0,0-.414-1.414,1.384,1.384,0,0,0-1.146-.52Zm0-1.135h1.582a1.746,1.746,0,0,0,1.362-.487A1.99,1.99,0,0,0,25.111-7.6a2.133,2.133,0,0,0-.428-1.421,1.61,1.61,0,0,0-1.3-.505H21.727ZM33.3-2.7H30.114L29.344,0H27.8L31-10.664h1.443L35.614,0H34.069ZM30.45-3.875h2.52L31.74-8.21H31.7ZM42.272-9.521H39.445V0H37.95V-9.521H35.145v-1.143h7.126ZM45.165,0H43.678V-10.664h1.487Zm9.353-3.86A4.07,4.07,0,0,1,53.492-.9,3.648,3.648,0,0,1,50.746.154,3.548,3.548,0,0,1,48.043-.9a4.124,4.124,0,0,1-1-2.955V-6.79a4.154,4.154,0,0,1,1-2.959,3.52,3.52,0,0,1,2.7-1.069,3.647,3.647,0,0,1,2.75,1.066A4.088,4.088,0,0,1,54.518-6.79ZM53.038-6.812a3.244,3.244,0,0,0-.6-2.113,2.085,2.085,0,0,0-1.7-.721,1.98,1.98,0,0,0-1.644.721,3.333,3.333,0,0,0-.575,2.113V-3.86A3.361,3.361,0,0,0,49.1-1.729,1.986,1.986,0,0,0,50.746-1a2.075,2.075,0,0,0,1.7-.721,3.3,3.3,0,0,0,.593-2.135ZM63.417,0H61.923L57.792-7.866l-.044.015V0H56.261V-10.664h1.487L61.879-2.82l.044-.007v-7.837h1.494Zm3.53,0h-1.5V-1.487h1.5Zm0-6.416h-1.5V-7.9h1.5ZM-57.532,8.658l.615-2.322h.747l-.022,2.329v1.472h-1.34Zm7.463,5.647h-3.186l-.769,2.7h-1.545l3.2-10.664h1.443L-47.754,17H-49.3Zm-2.849-1.179h2.52l-1.23-4.336h-.044Zm10.833,1.912h.044l2.556-8.7h1.9V17H-39.06V9.317L-39.1,9.31-41.55,17h-1.018l-2.483-7.808L-45.1,9.2V17h-1.479V6.336h1.941ZM-33.97,17h-1.487V6.336h1.487Zm3.662-4.2V17h-1.487V6.336h3.464a3.152,3.152,0,0,1,2.377.89,3.224,3.224,0,0,1,.861,2.34,3.221,3.221,0,0,1-.861,2.344,3.159,3.159,0,0,1-2.377.886Zm0-1.143h1.978a1.543,1.543,0,0,0,1.311-.59,2.386,2.386,0,0,0,.447-1.483,2.46,2.46,0,0,0-.443-1.5,1.53,1.53,0,0,0-1.315-.6h-1.978Zm8.269.754V17h-1.487V6.343h3.142a3.35,3.35,0,0,1,2.377.784,2.927,2.927,0,0,1,.839,2.249,2.7,2.7,0,0,1-.392,1.461,2.583,2.583,0,0,1-1.124.97,2.041,2.041,0,0,1,1.183.923,3.218,3.218,0,0,1,.363,1.6v.93a4.182,4.182,0,0,0,.1.916,1.283,1.283,0,0,0,.337.659V17h-1.531a1.268,1.268,0,0,1-.326-.736,6.64,6.64,0,0,1-.077-1.022v-.9a2.209,2.209,0,0,0-.414-1.414,1.384,1.384,0,0,0-1.146-.52Zm0-1.135h1.582a1.746,1.746,0,0,0,1.362-.487A1.99,1.99,0,0,0-18.655,9.4a2.133,2.133,0,0,0-.428-1.421,1.61,1.61,0,0,0-1.3-.505h-1.655ZM-8.005,13.14A4.07,4.07,0,0,1-9.031,16.1a3.648,3.648,0,0,1-2.747,1.058,3.548,3.548,0,0,1-2.7-1.058,4.124,4.124,0,0,1-1-2.955V10.21a4.154,4.154,0,0,1,1-2.959,3.52,3.52,0,0,1,2.7-1.069,3.647,3.647,0,0,1,2.75,1.066A4.088,4.088,0,0,1-8.005,10.21Zm-1.479-2.952a3.244,3.244,0,0,0-.6-2.113,2.085,2.085,0,0,0-1.7-.721,1.98,1.98,0,0,0-1.644.721A3.333,3.333,0,0,0-14,10.188V13.14a3.361,3.361,0,0,0,.579,2.131A1.986,1.986,0,0,0-11.777,16a2.075,2.075,0,0,0,1.7-.721,3.3,3.3,0,0,0,.593-2.135ZM-6.262,17V6.336h2.952a3.626,3.626,0,0,1,2.391.718A2.644,2.644,0,0,1-.059,9.207a2.39,2.39,0,0,1-.374,1.326,2.182,2.182,0,0,1-1.04.85,2.069,2.069,0,0,1,1.432.883,2.954,2.954,0,0,1,.5,1.718,2.887,2.887,0,0,1-.846,2.245A3.33,3.33,0,0,1-2.717,17Zm1.487-4.973v3.845h2.058a1.591,1.591,0,0,0,1.245-.487,2.013,2.013,0,0,0,.439-1.4,2.163,2.163,0,0,0-.428-1.406,1.545,1.545,0,0,0-1.2-.557H-4.775Zm0-1.069h1.692a1.516,1.516,0,0,0,1.124-.465,1.791,1.791,0,0,0,.406-1.256A1.773,1.773,0,0,0-2,7.918a1.8,1.8,0,0,0-1.311-.439H-4.775ZM6.731,14.3H3.545L2.776,17H1.23l3.2-10.664H5.874L9.045,17H7.5ZM3.882,13.125H6.4L5.171,8.79H5.127Zm11.25,1.194a1.752,1.752,0,0,0-.417-1.2,3.657,3.657,0,0,0-1.472-.861,6.043,6.043,0,0,1-2.307-1.208,2.546,2.546,0,0,1-.806-1.97A2.7,2.7,0,0,1,11.019,7,3.243,3.243,0,0,1,13.3,6.182a3.179,3.179,0,0,1,2.373.908,3.018,3.018,0,0,1,.864,2.278l-.015.044H15.1A2.242,2.242,0,0,0,14.6,7.9a1.646,1.646,0,0,0-1.311-.579,1.544,1.544,0,0,0-1.227.5,1.823,1.823,0,0,0-.436,1.245,1.545,1.545,0,0,0,.461,1.15,4.449,4.449,0,0,0,1.553.857,5.463,5.463,0,0,1,2.219,1.245,2.71,2.71,0,0,1,.762,1.992,2.6,2.6,0,0,1-.9,2.076,3.481,3.481,0,0,1-2.355.773,3.79,3.79,0,0,1-2.446-.835,2.8,2.8,0,0,1-1-2.4l.015-.044h1.436a2.107,2.107,0,0,0,.575,1.619,2.012,2.012,0,0,0,1.425.535,1.76,1.76,0,0,0,1.3-.465A1.68,1.68,0,0,0,15.132,14.319ZM25.43,17H23.943V12.3H19.768V17H18.281V6.336h1.487v4.827h4.175V6.336H25.43Zm3.655,0H27.6V6.336h1.487Zm3.574-9.141-.623,2.278H31.3l.022-2.263V6.336h1.34ZM42.722,14.3H39.536L38.767,17H37.222l3.2-10.664h1.443L45.037,17H43.491Zm-2.849-1.179h2.52L41.162,8.79h-.044Zm7.874-.33V17H46.26V6.336h3.464a3.152,3.152,0,0,1,2.377.89,3.224,3.224,0,0,1,.861,2.34A3.221,3.221,0,0,1,52.1,11.91a3.159,3.159,0,0,1-2.377.886Zm0-1.143h1.978a1.543,1.543,0,0,0,1.311-.59,2.386,2.386,0,0,0,.447-1.483,2.46,2.46,0,0,0-.443-1.5,1.53,1.53,0,0,0-1.315-.6H47.747ZM56.023,12.8V17H54.536V6.336H58a3.152,3.152,0,0,1,2.377.89,3.224,3.224,0,0,1,.861,2.34,3.221,3.221,0,0,1-.861,2.344A3.159,3.159,0,0,1,58,12.8Zm0-1.143H58a1.543,1.543,0,0,0,1.311-.59,2.386,2.386,0,0,0,.447-1.483,2.46,2.46,0,0,0-.443-1.5A1.53,1.53,0,0,0,58,7.479H56.023Z" transform="translate(1244 521.775)" fill="#0054a5"/>
    <g id="Page-1" transform="translate(1200 391)">
      <g id="_012---media-grid" data-name="012---media-grid">
        <rect id="Rectangle-path" width="37" height="37" rx="6" transform="translate(1.892 1.775)" fill="#02a9f4"/>
        <path id="Shape" d="M22.331,1H18a8.662,8.662,0,0,1,8.662,8.662V29.875A8.662,8.662,0,0,1,18,38.537h4.331a8.662,8.662,0,0,0,8.662-8.662V9.662A8.662,8.662,0,0,0,22.331,1Z" transform="translate(7.987 0.444)" fill="#0377bc"/>
        <rect id="Rectangle-path-2" data-name="Rectangle-path" width="39" height="37" rx="6" transform="translate(46.892 1.775)" fill="#1664ff"/>
        <path id="Shape-2" data-name="Shape" d="M54.331,1H50a8.662,8.662,0,0,1,8.662,8.662V29.875A8.662,8.662,0,0,1,50,38.537h4.331a8.662,8.662,0,0,0,8.662-8.662V9.662A8.662,8.662,0,0,0,54.331,1Z" transform="translate(22.187 0.444)" fill="#a8ddfd"/>
        <rect id="Rectangle-path-3" data-name="Rectangle-path" width="37" height="38" rx="6" transform="translate(1.892 47.775)" fill="#64c1f7"/>
        <path id="Shape-3" data-name="Shape" d="M22.331,33H18a8.662,8.662,0,0,1,8.662,8.662V61.875A8.662,8.662,0,0,1,18,70.537h4.331a8.662,8.662,0,0,0,8.662-8.662V41.662A8.662,8.662,0,0,0,22.331,33Z" transform="translate(7.987 14.644)" fill="#1664ff"/>
        <rect id="Rectangle-path-4" data-name="Rectangle-path" width="39" height="38" rx="6" transform="translate(46.892 47.775)" fill="#a8ddfd"/>
        <path id="Shape-4" data-name="Shape" d="M54.331,33H50a8.662,8.662,0,0,1,8.662,8.662V61.875A8.662,8.662,0,0,1,50,70.537h4.331a8.662,8.662,0,0,0,8.662-8.662V41.662A8.662,8.662,0,0,0,54.331,33Z" transform="translate(22.187 14.644)" fill="#02a9f4"/>
        <g id="Group_247" data-name="Group 247" transform="translate(5.775 5.775)">
          <path id="Shape-5" data-name="Shape" d="M5.444,12.662A1.444,1.444,0,0,1,4,11.219V8.331A4.331,4.331,0,0,1,8.331,4h5.775a1.444,1.444,0,1,1,0,2.887H8.331A1.444,1.444,0,0,0,6.887,8.331v2.887A1.444,1.444,0,0,1,5.444,12.662Z" transform="translate(-4 -4)" fill="#f5f5f5"/>
          <path id="Shape-6" data-name="Shape" d="M18.331,6.887H15.444a1.444,1.444,0,1,1,0-2.887h2.887a1.444,1.444,0,1,1,0,2.887Z" transform="translate(0.437 -4)" fill="#f5f5f5"/>
          <path id="Shape-7" data-name="Shape" d="M23.331,24.887H20.444a1.444,1.444,0,1,1,0-2.887h2.888a1.444,1.444,0,1,1,0,2.887Z" transform="translate(2.656 3.987)" fill="#f5f5f5"/>
          <path id="Shape-8" data-name="Shape" d="M55.331,24.887H52.444a1.444,1.444,0,1,1,0-2.887h2.887a1.444,1.444,0,1,1,0,2.887Z" transform="translate(16.856 3.987)" fill="#f5f5f5"/>
          <path id="Shape-9" data-name="Shape" d="M5.444,44.662A1.444,1.444,0,0,1,4,43.219V40.331A4.331,4.331,0,0,1,8.331,36h5.775a1.444,1.444,0,1,1,0,2.887H8.331a1.444,1.444,0,0,0-1.444,1.444v2.887A1.444,1.444,0,0,1,5.444,44.662Z" transform="translate(-4 10.2)" fill="#f5f5f5"/>
          <path id="Shape-10" data-name="Shape" d="M18.331,38.887H15.444a1.444,1.444,0,1,1,0-2.887h2.887a1.444,1.444,0,1,1,0,2.887Z" transform="translate(0.437 10.2)" fill="#f5f5f5"/>
          <path id="Shape-11" data-name="Shape" d="M37.444,12.662A1.444,1.444,0,0,1,36,11.219V8.331A4.331,4.331,0,0,1,40.331,4h5.775a1.444,1.444,0,1,1,0,2.887H40.331a1.444,1.444,0,0,0-1.444,1.444v2.887A1.444,1.444,0,0,1,37.444,12.662Z" transform="translate(10.2 -4)" fill="#f5f5f5"/>
          <path id="Shape-12" data-name="Shape" d="M50.331,6.887H47.444a1.444,1.444,0,1,1,0-2.887h2.887a1.444,1.444,0,1,1,0,2.887Z" transform="translate(14.637 -4)" fill="#f5f5f5"/>
          <path id="Shape-13" data-name="Shape" d="M37.444,44.662A1.444,1.444,0,0,1,36,43.219V40.331A4.331,4.331,0,0,1,40.331,36h5.775a1.444,1.444,0,1,1,0,2.887H40.331a1.444,1.444,0,0,0-1.444,1.444v2.887A1.444,1.444,0,0,1,37.444,44.662Z" transform="translate(10.2 10.2)" fill="#f5f5f5"/>
          <path id="Shape-14" data-name="Shape" d="M50.331,38.887H47.444a1.444,1.444,0,1,1,0-2.887h2.887a1.444,1.444,0,1,1,0,2.887Z" transform="translate(14.637 10.2)" fill="#f5f5f5"/>
          <path id="Shape-15" data-name="Shape" d="M23.331,56.887H20.444a1.444,1.444,0,1,1,0-2.887h2.888a1.444,1.444,0,1,1,0,2.887Z" transform="translate(2.656 18.187)" fill="#f5f5f5"/>
          <path id="Shape-16" data-name="Shape" d="M55.331,56.887H52.444a1.444,1.444,0,1,1,0-2.887h2.887a1.444,1.444,0,1,1,0,2.887Z" transform="translate(16.856 18.187)" fill="#f5f5f5"/>
        </g>
        <path id="Shape-17" data-name="Shape" d="M10.106,40.425H30.319A10.118,10.118,0,0,0,40.425,30.319V10.106A10.118,10.118,0,0,0,30.319,0H10.106A10.118,10.118,0,0,0,0,10.106V30.319A10.118,10.118,0,0,0,10.106,40.425ZM2.887,10.106a7.227,7.227,0,0,1,7.219-7.219H30.319a7.227,7.227,0,0,1,7.219,7.219V30.319a7.227,7.227,0,0,1-7.219,7.219H10.106a7.227,7.227,0,0,1-7.219-7.219Z" fill="#8a8a8a"/>
        <path id="Shape-18" data-name="Shape" d="M62.319,0H42.106A10.118,10.118,0,0,0,32,10.106V30.319A10.118,10.118,0,0,0,42.106,40.425H62.319A10.118,10.118,0,0,0,72.425,30.319V10.106A10.118,10.118,0,0,0,62.319,0Zm7.219,30.319a7.227,7.227,0,0,1-7.219,7.219H42.106a7.227,7.227,0,0,1-7.219-7.219V10.106a7.227,7.227,0,0,1,7.219-7.219H62.319a7.227,7.227,0,0,1,7.219,7.219Z" transform="translate(14.2)" fill="#8a8a8a"/>
        <path id="Shape-19" data-name="Shape" d="M10.106,72.425H30.319A10.118,10.118,0,0,0,40.425,62.319V42.106A10.118,10.118,0,0,0,30.319,32H10.106A10.118,10.118,0,0,0,0,42.106V62.319A10.118,10.118,0,0,0,10.106,72.425ZM2.887,42.106a7.227,7.227,0,0,1,7.219-7.219H30.319a7.227,7.227,0,0,1,7.219,7.219V62.319a7.227,7.227,0,0,1-7.219,7.219H10.106a7.227,7.227,0,0,1-7.219-7.219Z" transform="translate(0 14.2)" fill="#8a8a8a"/>
        <path id="Shape-20" data-name="Shape" d="M62.319,32H42.106A10.118,10.118,0,0,0,32,42.106V62.319A10.118,10.118,0,0,0,42.106,72.425H62.319A10.118,10.118,0,0,0,72.425,62.319V42.106A10.118,10.118,0,0,0,62.319,32Zm7.219,30.319a7.227,7.227,0,0,1-7.219,7.219H42.106a7.227,7.227,0,0,1-7.219-7.219V42.106a7.227,7.227,0,0,1,7.219-7.219H62.319a7.227,7.227,0,0,1,7.219,7.219Z" transform="translate(14.2 14.2)" fill="#8a8a8a"/>
      </g>
    </g>
  </g>
</svg>
