<svg xmlns="http://www.w3.org/2000/svg" xmlns:xlink="http://www.w3.org/1999/xlink" viewBox="0 0 279 237">
  <defs><style>
        @import url('https://fonts.googleapis.com/css2?family=Roboto+Condensed:wght@300;400&amp;display=swap');
        </style>
    <filter id="Rectangle_395" x="0" y="0" width="279" height="232" filterUnits="userSpaceOnUse">
      <feOffset dy="3" input="SourceAlpha"/>
      <feGaussianBlur stdDeviation="3" result="blur"/>
      <feFlood flood-color="#95b2bb"/>
      <feComposite operator="in" in2="blur"/>
      <feComposite in="SourceGraphic"/>
    </filter>
  </defs>
  <g id="Group_665" data-name="Group 665" transform="translate(-270 -9738)">
    <text style="text-align: center;font-weight:400; font-family:Roboto Condensed" id="ABOUT_US" data-name="ABOUT US" transform="translate(277 9960)" fill="#fff" font-size="59" font-family="RobotoCondensed-Regular, Roboto"><tspan x="0" y="0">ABOUT US</tspan></text>
    <g transform="matrix(1, 0, 0, 1, 270, 9738)" filter="url(#Rectangle_395)">
      <path id="Rectangle_395-2" data-name="Rectangle 395" d="M2,0H225a36,36,0,0,1,36,36V178a36,36,0,0,1-36,36H36A36,36,0,0,1,0,178V2A2,2,0,0,1,2,0Z" transform="translate(9 6)" fill="#fff"/>
    </g>
    <g id="Group_642" data-name="Group 642" transform="translate(300 9764.572)">
      <text style="text-align: center;font-weight:400; font-family:Roboto Condensed" id="Professional_Standards:_ethical_standards_complete_confidentiality_of_candidates_and_clients" data-name="Professional Standards:
ethical standards &amp; complete
confidentiality of 
candidates and clients" transform="translate(109 126.428)" fill="#0054a5" font-size="14" font-family="RobotoCondensed-Regular, Roboto"><tspan x="-81.57" y="0">PROFESSIONAL STANDARDS:</tspan><tspan x="-98.229" y="16">ETHICAL STANDARDS &amp; COMPLETE</tspan><tspan x="-61.51" y="32">CONFIDENTIALITY OF </tspan><tspan x="-75.089" y="48">CANDIDATES AND CLIENTS</tspan></text>
      <g id="Layer_1" transform="translate(66.506)">
        <g id="Group_248" data-name="Group 248" transform="translate(3)">
          <path id="Path_1020" data-name="Path 1020" d="M24.083,58.747a21.036,21.036,0,0,1,.817-3.131,11.97,11.97,0,0,0-1.5-11.3c-2.178-3-1.77-6.126-.272-9.121a4.279,4.279,0,0,1,2.451-2.178c5.037-2.314,7.76-6.4,9.121-11.572a7.994,7.994,0,0,1,7.079-5.854,11.6,11.6,0,0,1,3.131.545,13.2,13.2,0,0,0,7.624.272,23.041,23.041,0,0,0,4.22-1.77c1.634-.817,3.131-1.77,5.037-1.634,3.267.272,5.99,1.225,7.488,4.493,1.906,4.22,5.173,6.535,9.53,7.624.272.136.681.136.953.272,4.629,1.089,6.263,5.854,5.582,9.258a36.739,36.739,0,0,0-.817,5.582,11.869,11.869,0,0,0,2.451,7.9,7.007,7.007,0,0,1,1.5,4.629c-.272,2.587-.817,5.173-3.131,6.807a12.927,12.927,0,0,1-2.314,1.361,10.552,10.552,0,0,0-6.126,8.169c-.545,3.812-2.859,5.99-6.126,7.352a6.046,6.046,0,0,1-4.629.136,13.8,13.8,0,0,0-5.718-1.089,10.525,10.525,0,0,0-5.718,2.178c-.136.136-.408.272-.545.545a5.578,5.578,0,0,1-5.31,1.5c-1.634-.408-3.267-.953-4.9-1.5a5.831,5.831,0,0,1-3.4-3.54A11.654,11.654,0,0,0,36.2,69.094a11.888,11.888,0,0,0-4.765-1.77,6.861,6.861,0,0,1-5.31-3.676A9.068,9.068,0,0,1,24.083,58.747Zm30.9-37.3A24.645,24.645,0,1,0,79.629,46.358,24.75,24.75,0,0,0,54.987,21.444Z" transform="translate(-19.182 -12.99)" fill="#a8ddfd"/>
          <path id="Path_1021" data-name="Path 1021" d="M83.174,86.895c-5.31-2.451-10.619-5.037-16.065-7.624-1.77,5.854-3.4,11.436-5.173,17.426C58.124,87.848,54.312,79.135,50.5,70.421a41.389,41.389,0,0,0,11.572-3A46.2,46.2,0,0,0,72.283,61.3c3.812,8.577,7.352,17.018,10.891,25.595Z" transform="translate(-8.841 4.47)" fill="#57a4ff"/>
          <path id="Path_1022" data-name="Path 1022" d="M41.274,96.1c-1.634-5.718-3.4-11.436-5.173-17.154-5.446,2.587-10.755,5.037-16.2,7.624,3.676-8.169,7.352-16.2,11.027-24.369a40.609,40.609,0,0,0,21.647,8.441C48.762,79.218,45.086,87.658,41.41,96.1Z" transform="translate(-19.9 4.795)" fill="#64c1f7"/>
          <path id="Path_1023" data-name="Path 1023" d="M52.706,19.2A24.645,24.645,0,1,1,28.2,43.569,24.608,24.608,0,0,1,52.706,19.2Zm.136,3.4A21.238,21.238,0,1,0,74.08,43.978,21.3,21.3,0,0,0,52.842,22.6Z" transform="translate(-16.901 -10.746)" fill="#fff"/>
          <path id="Path_1024" data-name="Path 1024" d="M51.938,21.7A21.238,21.238,0,1,1,30.7,42.666,21.295,21.295,0,0,1,51.938,21.7Zm-3,24.1-.545-.545-4.765-4.765c-.408-.408-.681-.408-1.089,0-1.089,1.089-2.042,2.178-3.131,3.131-.408.408-.545.681,0,1.089L48.4,53.693c.545.545.817.545,1.225,0,5.718-5.718,11.436-11.572,17.29-17.29.136-.136.408-.408.408-.545l-4.22-4.22C58.473,36.4,53.708,41.032,48.943,45.8Z" transform="translate(-15.997 -9.843)" fill="#1664ff"/>
          <path id="Path_1025" data-name="Path 1025" d="M46.711,43.123,60.734,29.1l4.22,4.22a1.879,1.879,0,0,0-.408.545C58.828,39.583,53.11,45.3,47.392,51.155c-.545.545-.817.545-1.225,0L37.181,42.17c-.408-.408-.408-.681,0-1.089,1.089-1.089,2.178-2.042,3.131-3.131.408-.408.681-.408,1.089,0l4.765,4.765C46.3,42.714,46.439,42.85,46.711,43.123Z" transform="translate(-13.765 -7.168)" fill="#fff"/>
        </g>
      </g>
    </g>
  </g>
</svg>
