<svg xmlns="http://www.w3.org/2000/svg" xmlns:xlink="http://www.w3.org/1999/xlink" viewBox="0 0 279 232">
  <defs>
    <filter id="Rectangle_395" x="0" y="0" width="279" height="232" filterUnits="userSpaceOnUse">
      <feOffset dy="3" input="SourceAlpha"/>
      <feGaussianBlur stdDeviation="3" result="blur"/>
      <feFlood flood-color="#95b2bb"/>
      <feComposite operator="in" in2="blur"/>
      <feComposite in="SourceGraphic"/>
    </filter>
  </defs>
  <g id="Group_1085" data-name="Group 1085" transform="translate(0 -723)">
    <g transform="matrix(1, 0, 0, 1, 0, 723)" filter="url(#Rectangle_395)">
      <path id="Rectangle_395-2" data-name="Rectangle 395" d="M2,0H225a36,36,0,0,1,36,36V178a36,36,0,0,1-36,36H36A36,36,0,0,1,0,178V2A2,2,0,0,1,2,0Z" transform="translate(9 6)" fill="#fff"/>
    </g>
    <g id="Group_1083" data-name="Group 1083">
      <path id="Path_4756" data-name="Path 4756" d="M15.109,9.8V14H13.622V3.336h3.464a3.152,3.152,0,0,1,2.377.89,3.224,3.224,0,0,1,.861,2.34,3.221,3.221,0,0,1-.861,2.344,3.159,3.159,0,0,1-2.377.886Zm0-1.143h1.978a1.543,1.543,0,0,0,1.311-.59,2.386,2.386,0,0,0,.447-1.483,2.46,2.46,0,0,0-.443-1.5,1.53,1.53,0,0,0-1.315-.6H15.109Zm8.269.754V14H21.891V3.343h3.142a3.35,3.35,0,0,1,2.377.784,2.927,2.927,0,0,1,.839,2.249,2.7,2.7,0,0,1-.392,1.461,2.583,2.583,0,0,1-1.124.97,2.041,2.041,0,0,1,1.183.923,3.218,3.218,0,0,1,.363,1.6v.93a4.182,4.182,0,0,0,.1.916,1.283,1.283,0,0,0,.337.659V14H27.179a1.268,1.268,0,0,1-.326-.736,6.64,6.64,0,0,1-.077-1.022v-.9a2.209,2.209,0,0,0-.414-1.414,1.384,1.384,0,0,0-1.146-.52Zm0-1.135H24.96a1.746,1.746,0,0,0,1.362-.487A1.99,1.99,0,0,0,26.761,6.4a2.133,2.133,0,0,0-.428-1.421,1.61,1.61,0,0,0-1.3-.505H23.378ZM37.411,10.14A4.07,4.07,0,0,1,36.385,13.1a3.648,3.648,0,0,1-2.747,1.058,3.548,3.548,0,0,1-2.7-1.058,4.124,4.124,0,0,1-1-2.955V7.21a4.154,4.154,0,0,1,1-2.959,3.52,3.52,0,0,1,2.7-1.069,3.647,3.647,0,0,1,2.75,1.066A4.088,4.088,0,0,1,37.411,7.21ZM35.931,7.188a3.244,3.244,0,0,0-.6-2.113,2.085,2.085,0,0,0-1.7-.721,1.98,1.98,0,0,0-1.644.721,3.333,3.333,0,0,0-.575,2.113V10.14a3.361,3.361,0,0,0,.579,2.131A1.986,1.986,0,0,0,33.639,13a2.075,2.075,0,0,0,1.7-.721,3.3,3.3,0,0,0,.593-2.135Zm8.438,2.073H40.641V14H39.154V3.336h5.859V4.479H40.641V8.126h3.728ZM51.5,9.049H47.877v3.823H52.14V14H46.39V3.336H52.1V4.479H47.877V7.914H51.5Zm7,2.271a1.752,1.752,0,0,0-.417-1.2,3.657,3.657,0,0,0-1.472-.861A6.043,6.043,0,0,1,54.3,8.045a2.546,2.546,0,0,1-.806-1.97A2.7,2.7,0,0,1,54.385,4a3.243,3.243,0,0,1,2.281-.817,3.179,3.179,0,0,1,2.373.908A3.018,3.018,0,0,1,59.9,6.368l-.015.044H58.461a2.242,2.242,0,0,0-.5-1.516,1.646,1.646,0,0,0-1.311-.579,1.544,1.544,0,0,0-1.227.5,1.823,1.823,0,0,0-.436,1.245,1.545,1.545,0,0,0,.461,1.15A4.449,4.449,0,0,0,57,8.067a5.463,5.463,0,0,1,2.219,1.245,2.71,2.71,0,0,1,.762,1.992,2.6,2.6,0,0,1-.9,2.076,3.481,3.481,0,0,1-2.355.773,3.79,3.79,0,0,1-2.446-.835,2.8,2.8,0,0,1-1-2.4l.015-.044h1.436a2.107,2.107,0,0,0,.575,1.619,2.012,2.012,0,0,0,1.425.535,1.76,1.76,0,0,0,1.3-.465A1.68,1.68,0,0,0,58.5,11.319Zm8.013,0a1.752,1.752,0,0,0-.417-1.2,3.657,3.657,0,0,0-1.472-.861,6.043,6.043,0,0,1-2.307-1.208,2.546,2.546,0,0,1-.806-1.97A2.7,2.7,0,0,1,62.4,4a3.243,3.243,0,0,1,2.281-.817,3.179,3.179,0,0,1,2.373.908,3.018,3.018,0,0,1,.864,2.278l-.015.044H66.473a2.242,2.242,0,0,0-.5-1.516,1.646,1.646,0,0,0-1.311-.579,1.544,1.544,0,0,0-1.227.5A1.823,1.823,0,0,0,63,6.061a1.545,1.545,0,0,0,.461,1.15,4.449,4.449,0,0,0,1.553.857,5.463,5.463,0,0,1,2.219,1.245A2.71,2.71,0,0,1,68,11.3a2.6,2.6,0,0,1-.9,2.076,3.481,3.481,0,0,1-2.355.773,3.79,3.79,0,0,1-2.446-.835,2.8,2.8,0,0,1-1-2.4l.015-.044h1.436A2.107,2.107,0,0,0,63.32,12.5a2.012,2.012,0,0,0,1.425.535,1.76,1.76,0,0,0,1.3-.465A1.68,1.68,0,0,0,66.51,11.319ZM71.278,14H69.791V3.336h1.487Zm9.353-3.86A4.07,4.07,0,0,1,79.606,13.1a3.648,3.648,0,0,1-2.747,1.058,3.548,3.548,0,0,1-2.7-1.058,4.124,4.124,0,0,1-1-2.955V7.21a4.154,4.154,0,0,1,1-2.959,3.52,3.52,0,0,1,2.7-1.069A3.647,3.647,0,0,1,79.6,4.248,4.088,4.088,0,0,1,80.631,7.21ZM79.152,7.188a3.244,3.244,0,0,0-.6-2.113,2.085,2.085,0,0,0-1.7-.721,1.98,1.98,0,0,0-1.644.721,3.333,3.333,0,0,0-.575,2.113V10.14a3.361,3.361,0,0,0,.579,2.131A1.986,1.986,0,0,0,76.859,13a2.075,2.075,0,0,0,1.7-.721,3.3,3.3,0,0,0,.593-2.135ZM89.53,14H88.036L83.905,6.134l-.044.015V14H82.374V3.336h1.487l4.131,7.844.044-.007V3.336H89.53Zm6.885-2.7H93.229L92.46,14H90.914l3.2-10.664h1.443L98.729,14H97.184Zm-2.849-1.179h2.52L94.855,5.79h-.044Zm7.874,2.747h4.314V14h-5.8V3.336h1.487Zm13.9-1.553a1.752,1.752,0,0,0-.417-1.2,3.657,3.657,0,0,0-1.472-.861,6.043,6.043,0,0,1-2.307-1.208,2.546,2.546,0,0,1-.806-1.97A2.7,2.7,0,0,1,111.228,4a3.243,3.243,0,0,1,2.281-.817,3.179,3.179,0,0,1,2.373.908,3.018,3.018,0,0,1,.864,2.278l-.015.044H115.3a2.242,2.242,0,0,0-.5-1.516,1.646,1.646,0,0,0-1.311-.579,1.544,1.544,0,0,0-1.227.5,1.823,1.823,0,0,0-.436,1.245,1.545,1.545,0,0,0,.461,1.15,4.449,4.449,0,0,0,1.553.857,5.463,5.463,0,0,1,2.219,1.245,2.71,2.71,0,0,1,.762,1.992,2.6,2.6,0,0,1-.9,2.076,3.481,3.481,0,0,1-2.355.773,3.79,3.79,0,0,1-2.446-.835,2.8,2.8,0,0,1-1-2.4l.015-.044h1.436a2.107,2.107,0,0,0,.575,1.619,2.012,2.012,0,0,0,1.425.535,1.76,1.76,0,0,0,1.3-.465A1.68,1.68,0,0,0,115.341,11.319Zm9.529-6.841h-2.827V14h-1.494V4.479h-2.805V3.336h7.126Zm5.413,6.826H127.1l-.769,2.7h-1.545l3.2-10.664h1.443L132.6,14h-1.545Zm-2.849-1.179h2.52l-1.23-4.336h-.044ZM140.975,14h-1.494L135.35,6.134l-.044.015V14H133.82V3.336h1.487l4.131,7.844.044-.007V3.336h1.494Zm2.036,0V3.336h3.025a3.543,3.543,0,0,1,2.823,1.282,4.9,4.9,0,0,1,1.095,3.3V9.43a4.879,4.879,0,0,1-1.095,3.3A3.551,3.551,0,0,1,146.036,14ZM144.5,4.479v8.394h1.538a2.034,2.034,0,0,0,1.758-.963,4.3,4.3,0,0,0,.659-2.479V7.9a4.259,4.259,0,0,0-.659-2.457,2.034,2.034,0,0,0-1.758-.963ZM156.3,11.3h-3.186l-.769,2.7H150.8L154,3.336h1.443L158.612,14h-1.545Zm-2.849-1.179h2.52l-1.23-4.336h-.044Zm7.866-.718V14h-1.487V3.343h3.142a3.35,3.35,0,0,1,2.377.784,2.927,2.927,0,0,1,.839,2.249,2.7,2.7,0,0,1-.392,1.461,2.583,2.583,0,0,1-1.124.97,2.041,2.041,0,0,1,1.183.923,3.218,3.218,0,0,1,.363,1.6v.93a4.182,4.182,0,0,0,.1.916,1.283,1.283,0,0,0,.337.659V14h-1.531a1.268,1.268,0,0,1-.326-.736,6.64,6.64,0,0,1-.077-1.022v-.9a2.209,2.209,0,0,0-.414-1.414,1.384,1.384,0,0,0-1.146-.52Zm0-1.135H162.9a1.746,1.746,0,0,0,1.362-.487A1.99,1.99,0,0,0,164.7,6.4a2.133,2.133,0,0,0-.428-1.421,1.61,1.61,0,0,0-1.3-.505h-1.655ZM168.17,14V3.336H171.2a3.543,3.543,0,0,1,2.823,1.282,4.9,4.9,0,0,1,1.095,3.3V9.43a4.879,4.879,0,0,1-1.095,3.3A3.551,3.551,0,0,1,171.2,14Zm1.487-9.521v8.394H171.2a2.034,2.034,0,0,0,1.758-.963,4.3,4.3,0,0,0,.659-2.479V7.9a4.259,4.259,0,0,0-.659-2.457,2.034,2.034,0,0,0-1.758-.963Zm12.1,6.841a1.752,1.752,0,0,0-.417-1.2,3.657,3.657,0,0,0-1.472-.861,6.043,6.043,0,0,1-2.307-1.208,2.546,2.546,0,0,1-.806-1.97A2.7,2.7,0,0,1,177.644,4a3.243,3.243,0,0,1,2.281-.817,3.179,3.179,0,0,1,2.373.908,3.018,3.018,0,0,1,.864,2.278l-.015.044H181.72a2.242,2.242,0,0,0-.5-1.516,1.646,1.646,0,0,0-1.311-.579,1.544,1.544,0,0,0-1.227.5,1.823,1.823,0,0,0-.436,1.245,1.545,1.545,0,0,0,.461,1.15,4.449,4.449,0,0,0,1.553.857,5.463,5.463,0,0,1,2.219,1.245,2.71,2.71,0,0,1,.762,1.992,2.6,2.6,0,0,1-.9,2.076,3.481,3.481,0,0,1-2.355.773,3.79,3.79,0,0,1-2.446-.835,2.8,2.8,0,0,1-1-2.4l.015-.044h1.436a2.107,2.107,0,0,0,.575,1.619,2.012,2.012,0,0,0,1.425.535,1.76,1.76,0,0,0,1.3-.465A1.68,1.68,0,0,0,181.757,11.319ZM186.4,14h-1.5V12.513h1.5Zm0-6.416h-1.5V6.1h1.5ZM35.43,26.049H31.812v3.823h4.263V31h-5.75V20.336h5.713v1.143H31.812v3.435H35.43Zm8.518-4.57H41.121V31H39.626V21.479H36.821V20.336h7.126ZM52.371,31H50.884V26.3H46.709V31H45.222V20.336h1.487v4.827h4.175V20.336h1.487Zm3.655,0H54.539V20.336h1.487Zm8.848-3.208.015.044a3.144,3.144,0,0,1-.879,2.446,3.458,3.458,0,0,1-2.5.872A3.393,3.393,0,0,1,58.9,30.1a4.174,4.174,0,0,1-.974-2.948V24.2a4.245,4.245,0,0,1,.959-2.952,3.3,3.3,0,0,1,2.578-1.062,3.614,3.614,0,0,1,2.549.846A3.118,3.118,0,0,1,64.9,23.5l-.015.044H63.452a2.414,2.414,0,0,0-.5-1.681,1.938,1.938,0,0,0-1.494-.538,1.763,1.763,0,0,0-1.516.736,3.558,3.558,0,0,0-.535,2.113v2.981a3.532,3.532,0,0,0,.549,2.131,1.82,1.82,0,0,0,1.553.74,1.864,1.864,0,0,0,1.45-.531,2.485,2.485,0,0,0,.483-1.7Zm6.343.513H68.03L67.261,31H65.715l3.2-10.664h1.443L73.53,31H71.985Zm-2.849-1.179h2.52l-1.23-4.336h-.044Zm7.874,2.747h4.314V31h-5.8V20.336H76.24Zm13.9-1.553a1.752,1.752,0,0,0-.417-1.2,3.657,3.657,0,0,0-1.472-.861,6.043,6.043,0,0,1-2.307-1.208,2.546,2.546,0,0,1-.806-1.97A2.7,2.7,0,0,1,86.029,21a3.243,3.243,0,0,1,2.281-.817,3.179,3.179,0,0,1,2.373.908,3.018,3.018,0,0,1,.864,2.278l-.015.044H90.1a2.242,2.242,0,0,0-.5-1.516,1.646,1.646,0,0,0-1.311-.579,1.544,1.544,0,0,0-1.227.5,1.823,1.823,0,0,0-.436,1.245,1.545,1.545,0,0,0,.461,1.15,4.449,4.449,0,0,0,1.553.857,5.463,5.463,0,0,1,2.219,1.245,2.71,2.71,0,0,1,.762,1.992,2.6,2.6,0,0,1-.9,2.076,3.481,3.481,0,0,1-2.355.773,3.79,3.79,0,0,1-2.446-.835,2.8,2.8,0,0,1-1-2.4l.015-.044h1.436a2.107,2.107,0,0,0,.575,1.619,2.012,2.012,0,0,0,1.425.535,1.76,1.76,0,0,0,1.3-.465A1.68,1.68,0,0,0,90.142,28.319Zm9.529-6.841H96.843V31H95.349V21.479H92.544V20.336H99.67Zm5.413,6.826H101.9l-.769,2.7H99.583l3.2-10.664h1.443L107.4,31h-1.545Zm-2.849-1.179h2.52l-1.23-4.336h-.044ZM115.776,31h-1.494l-4.131-7.866-.044.015V31h-1.487V20.336h1.487l4.131,7.844.044-.007V20.336h1.494Zm2.036,0V20.336h3.025a3.543,3.543,0,0,1,2.823,1.282,4.9,4.9,0,0,1,1.095,3.3V26.43a4.879,4.879,0,0,1-1.095,3.3A3.551,3.551,0,0,1,120.837,31Zm1.487-9.521v8.394h1.538a2.034,2.034,0,0,0,1.758-.963,4.3,4.3,0,0,0,.659-2.479V24.9a4.259,4.259,0,0,0-.659-2.457,2.034,2.034,0,0,0-1.758-.963ZM131.1,28.3h-3.186l-.769,2.7H125.6l3.2-10.664h1.443L133.413,31h-1.545Zm-2.849-1.179h2.52l-1.23-4.336h-.044Zm7.866-.718V31h-1.487V20.343h3.142a3.35,3.35,0,0,1,2.377.784,2.927,2.927,0,0,1,.839,2.249,2.7,2.7,0,0,1-.392,1.461,2.583,2.583,0,0,1-1.124.97,2.041,2.041,0,0,1,1.183.923,3.218,3.218,0,0,1,.363,1.6v.93a4.182,4.182,0,0,0,.1.916,1.283,1.283,0,0,0,.337.659V31h-1.531a1.268,1.268,0,0,1-.326-.736,6.64,6.64,0,0,1-.077-1.022v-.9a2.209,2.209,0,0,0-.414-1.414,1.384,1.384,0,0,0-1.146-.52Zm0-1.135H137.7a1.746,1.746,0,0,0,1.362-.487A1.99,1.99,0,0,0,139.5,23.4a2.133,2.133,0,0,0-.428-1.421,1.61,1.61,0,0,0-1.3-.505h-1.655ZM142.971,31V20.336H146a3.543,3.543,0,0,1,2.823,1.282,4.9,4.9,0,0,1,1.095,3.3V26.43a4.879,4.879,0,0,1-1.095,3.3A3.551,3.551,0,0,1,146,31Zm1.487-9.521v8.394H146a2.034,2.034,0,0,0,1.758-.963,4.3,4.3,0,0,0,.659-2.479V24.9a4.259,4.259,0,0,0-.659-2.457A2.034,2.034,0,0,0,146,21.479Zm12.1,6.841a1.752,1.752,0,0,0-.417-1.2,3.657,3.657,0,0,0-1.472-.861,6.043,6.043,0,0,1-2.307-1.208,2.546,2.546,0,0,1-.806-1.97,2.7,2.7,0,0,1,.89-2.076,3.243,3.243,0,0,1,2.281-.817,3.179,3.179,0,0,1,2.373.908,3.018,3.018,0,0,1,.864,2.278l-.015.044h-1.428a2.242,2.242,0,0,0-.5-1.516,1.646,1.646,0,0,0-1.311-.579,1.544,1.544,0,0,0-1.227.5,1.823,1.823,0,0,0-.436,1.245,1.545,1.545,0,0,0,.461,1.15,4.449,4.449,0,0,0,1.553.857,5.463,5.463,0,0,1,2.219,1.245,2.71,2.71,0,0,1,.762,1.992,2.6,2.6,0,0,1-.9,2.076,3.481,3.481,0,0,1-2.355.773,3.79,3.79,0,0,1-2.446-.835,2.8,2.8,0,0,1-1-2.4l.015-.044h1.436a2.107,2.107,0,0,0,.575,1.619,2.012,2.012,0,0,0,1.425.535,1.76,1.76,0,0,0,1.3-.465A1.68,1.68,0,0,0,156.558,28.319Zm5.918-.125a2.719,2.719,0,0,1,.461-1.575,6.55,6.55,0,0,1,1.377-1.392,7.02,7.02,0,0,1-.74-1.289,3.034,3.034,0,0,1-.242-1.179,2.607,2.607,0,0,1,.659-1.908,2.412,2.412,0,0,1,1.8-.67,2.211,2.211,0,0,1,2.307,2.256,2.39,2.39,0,0,1-.3,1.234,3.867,3.867,0,0,1-.89,1l-.813.659,2.168,2.856.044-.007a3.9,3.9,0,0,0,.366-.967,4.884,4.884,0,0,0,.132-1.157h1.26a6.1,6.1,0,0,1-.245,1.776,4.39,4.39,0,0,1-.736,1.439L170.393,31h-1.75l-.579-.769a4.119,4.119,0,0,1-1.168.688,3.681,3.681,0,0,1-1.315.234,3.113,3.113,0,0,1-2.263-.817A2.849,2.849,0,0,1,162.476,28.195Zm3.149,1.831a2.585,2.585,0,0,0,.923-.172,2.881,2.881,0,0,0,.85-.509L165.032,26.2l-.154.125a3.088,3.088,0,0,0-.71.985,2.308,2.308,0,0,0-.183.853,2.049,2.049,0,0,0,.432,1.337A1.471,1.471,0,0,0,165.625,30.026Zm-.894-7.28a2.031,2.031,0,0,0,.165.769,4.523,4.523,0,0,0,.494.872l.754-.586a1.593,1.593,0,0,0,.509-.615,1.815,1.815,0,0,0,.135-.71,1.256,1.256,0,0,0-.271-.813.906.906,0,0,0-.747-.337.871.871,0,0,0-.765.41A1.776,1.776,0,0,0,164.731,22.746ZM74.786,44.792l.015.044a3.144,3.144,0,0,1-.879,2.446,3.458,3.458,0,0,1-2.5.872A3.393,3.393,0,0,1,68.81,47.1a4.174,4.174,0,0,1-.974-2.948V41.2a4.245,4.245,0,0,1,.959-2.952,3.3,3.3,0,0,1,2.578-1.062,3.614,3.614,0,0,1,2.549.846,3.118,3.118,0,0,1,.886,2.472l-.015.044H73.365a2.414,2.414,0,0,0-.5-1.681,1.938,1.938,0,0,0-1.494-.538,1.763,1.763,0,0,0-1.516.736,3.558,3.558,0,0,0-.535,2.113v2.981a3.532,3.532,0,0,0,.549,2.131,1.82,1.82,0,0,0,1.553.74,1.864,1.864,0,0,0,1.45-.531,2.485,2.485,0,0,0,.483-1.7Zm8.8-.652A4.07,4.07,0,0,1,82.565,47.1a3.648,3.648,0,0,1-2.747,1.058,3.548,3.548,0,0,1-2.7-1.058,4.124,4.124,0,0,1-1-2.955V41.21a4.154,4.154,0,0,1,1-2.959,3.52,3.52,0,0,1,2.7-1.069,3.647,3.647,0,0,1,2.75,1.066A4.088,4.088,0,0,1,83.59,41.21Zm-1.479-2.952a3.244,3.244,0,0,0-.6-2.113,2.085,2.085,0,0,0-1.7-.721,1.98,1.98,0,0,0-1.644.721,3.333,3.333,0,0,0-.575,2.113V44.14a3.361,3.361,0,0,0,.579,2.131A1.986,1.986,0,0,0,79.818,47a2.075,2.075,0,0,0,1.7-.721,3.3,3.3,0,0,0,.593-2.135Zm7.668,4.849h.044l2.556-8.7h1.9V48H92.8V40.317l-.044-.007L90.314,48H89.3l-2.483-7.808-.044.007V48H85.289V37.336H87.23ZM97.762,43.8V48H96.276V37.336H99.74a3.152,3.152,0,0,1,2.377.89,3.617,3.617,0,0,1,0,4.684,3.159,3.159,0,0,1-2.377.886Zm0-1.143H99.74a1.543,1.543,0,0,0,1.311-.59,2.386,2.386,0,0,0,.447-1.483,2.46,2.46,0,0,0-.443-1.5,1.53,1.53,0,0,0-1.315-.6H97.762Zm8.276,4.219h4.314V48h-5.8V37.336h1.487Zm10.847-3.823h-3.618v3.823h4.263V48h-5.75V37.336h5.713v1.143h-4.226v3.435h3.618Zm8.518-4.57h-2.827V48h-1.494V38.479h-2.805V37.336H125.4Zm6.379,4.57h-3.618v3.823h4.263V48h-5.75V37.336h5.713v1.143h-4.226v3.435h3.618ZM43.435,61.792l.015.044a3.144,3.144,0,0,1-.879,2.446,3.458,3.458,0,0,1-2.5.872A3.393,3.393,0,0,1,37.458,64.1a4.174,4.174,0,0,1-.974-2.948V58.2a4.245,4.245,0,0,1,.959-2.952,3.3,3.3,0,0,1,2.578-1.062,3.614,3.614,0,0,1,2.549.846,3.118,3.118,0,0,1,.886,2.472l-.015.044H42.014a2.414,2.414,0,0,0-.5-1.681,1.938,1.938,0,0,0-1.494-.538,1.763,1.763,0,0,0-1.516.736,3.558,3.558,0,0,0-.535,2.113v2.981a3.532,3.532,0,0,0,.549,2.131,1.82,1.82,0,0,0,1.553.74,1.864,1.864,0,0,0,1.45-.531,2.485,2.485,0,0,0,.483-1.7Zm8.8-.652A4.07,4.07,0,0,1,51.213,64.1a3.648,3.648,0,0,1-2.747,1.058,3.548,3.548,0,0,1-2.7-1.058,4.124,4.124,0,0,1-1-2.955V58.21a4.154,4.154,0,0,1,1-2.959,3.52,3.52,0,0,1,2.7-1.069,3.647,3.647,0,0,1,2.75,1.066,4.088,4.088,0,0,1,1.029,2.963Zm-1.479-2.952a3.244,3.244,0,0,0-.6-2.113,2.085,2.085,0,0,0-1.7-.721,1.98,1.98,0,0,0-1.644.721,3.333,3.333,0,0,0-.575,2.113V61.14a3.361,3.361,0,0,0,.579,2.131A1.986,1.986,0,0,0,48.467,64a2.075,2.075,0,0,0,1.7-.721,3.3,3.3,0,0,0,.593-2.135ZM61.138,65H59.644l-4.131-7.866-.044.015V65H53.982V54.336h1.487L59.6,62.18l.044-.007V54.336h1.494Zm7.251-4.739H64.661V65H63.174V54.336h5.859v1.143H64.661v3.647h3.728ZM72.029,65H70.542V54.336h1.487ZM74.2,65V54.336h3.025a3.543,3.543,0,0,1,2.823,1.282,4.9,4.9,0,0,1,1.095,3.3V60.43a4.879,4.879,0,0,1-1.095,3.3A3.551,3.551,0,0,1,77.229,65Zm1.487-9.521v8.394h1.538a2.034,2.034,0,0,0,1.758-.963,4.3,4.3,0,0,0,.659-2.479V58.9a4.259,4.259,0,0,0-.659-2.457,2.034,2.034,0,0,0-1.758-.963Zm12.341,4.57H84.414v3.823h4.263V65h-5.75V54.336H88.64v1.143H84.414v3.435h3.618ZM97.327,65H95.833L91.7,57.134l-.044.015V65H90.171V54.336h1.487l4.131,7.844.044-.007V54.336h1.494Zm8.2-9.521H102.7V65h-1.494V55.479H98.4V54.336h7.126ZM108.423,65h-1.487V54.336h1.487Zm7.024-2.7h-3.186l-.769,2.7h-1.545l3.2-10.664h1.443L117.761,65h-1.545ZM112.6,61.125h2.52l-1.23-4.336h-.044Zm7.874,2.747h4.314V65h-5.8V54.336h1.487ZM127.832,65h-1.487V54.336h1.487Zm8.342-9.521h-2.827V65h-1.494V55.479h-2.805V54.336h7.126Zm4.468,4.058h.044l2.227-5.2h1.67l-3.2,6.826V65H139.9V61.052l-3.142-6.716h1.655Zm15.652,1.6a4.07,4.07,0,0,1-1.025,2.955,3.648,3.648,0,0,1-2.747,1.058,3.548,3.548,0,0,1-2.7-1.058,4.124,4.124,0,0,1-1-2.955V58.21a4.154,4.154,0,0,1,1-2.959,3.52,3.52,0,0,1,2.7-1.069,3.647,3.647,0,0,1,2.75,1.066,4.088,4.088,0,0,1,1.029,2.963Zm-1.479-2.952a3.244,3.244,0,0,0-.6-2.113,2.085,2.085,0,0,0-1.7-.721,1.98,1.98,0,0,0-1.644.721,3.333,3.333,0,0,0-.575,2.113V61.14a3.361,3.361,0,0,0,.579,2.131,1.986,1.986,0,0,0,1.648.725,2.075,2.075,0,0,0,1.7-.721,3.3,3.3,0,0,0,.593-2.135Zm8.438,2.073h-3.728V65h-1.487V54.336H163.9v1.143h-4.373v3.647h3.728ZM27.238,78.792l.015.044a3.144,3.144,0,0,1-.879,2.446,3.458,3.458,0,0,1-2.5.872A3.393,3.393,0,0,1,21.261,81.1a4.174,4.174,0,0,1-.974-2.948V75.2a4.245,4.245,0,0,1,.959-2.952,3.3,3.3,0,0,1,2.578-1.062,3.614,3.614,0,0,1,2.549.846A3.118,3.118,0,0,1,27.26,74.5l-.015.044H25.817a2.414,2.414,0,0,0-.5-1.681,1.938,1.938,0,0,0-1.494-.538,1.763,1.763,0,0,0-1.516.736,3.558,3.558,0,0,0-.535,2.113v2.981a3.532,3.532,0,0,0,.549,2.131,1.82,1.82,0,0,0,1.553.74,1.864,1.864,0,0,0,1.45-.531,2.485,2.485,0,0,0,.483-1.7Zm6.343.513H30.394L29.625,82H28.08l3.2-10.664h1.443L35.895,82H34.349Zm-2.849-1.179h2.52L32.02,73.79h-.044ZM44.274,82H42.78l-4.131-7.866-.044.015V82H37.118V71.336H38.6l4.131,7.844.044-.007V71.336h1.494Zm2.036,0V71.336h3.025a3.543,3.543,0,0,1,2.823,1.282,4.9,4.9,0,0,1,1.095,3.3V77.43a4.879,4.879,0,0,1-1.095,3.3A3.551,3.551,0,0,1,49.335,82ZM47.8,72.479v8.394h1.538a2.034,2.034,0,0,0,1.758-.963,4.3,4.3,0,0,0,.659-2.479V75.9a4.259,4.259,0,0,0-.659-2.457,2.034,2.034,0,0,0-1.758-.963ZM56.652,82H55.165V71.336h1.487Zm2.175,0V71.336h3.025a3.543,3.543,0,0,1,2.823,1.282,4.9,4.9,0,0,1,1.095,3.3V77.43a4.879,4.879,0,0,1-1.095,3.3A3.551,3.551,0,0,1,61.852,82Zm1.487-9.521v8.394h1.538a2.034,2.034,0,0,0,1.758-.963,4.3,4.3,0,0,0,.659-2.479V75.9a4.259,4.259,0,0,0-.659-2.457,2.034,2.034,0,0,0-1.758-.963Zm11.8,6.826H68.927L68.158,82H66.613l3.2-10.664h1.443L74.427,82H72.882Zm-2.849-1.179h2.52l-1.23-4.336h-.044Zm11.821-5.647H78.258V82H76.764V72.479H73.959V71.336h7.126Zm6.379,4.57H83.846v3.823h4.263V82H82.36V71.336h5.713v1.143H83.846v3.435h3.618Zm7,2.271a1.752,1.752,0,0,0-.417-1.2,3.657,3.657,0,0,0-1.472-.861,6.043,6.043,0,0,1-2.307-1.208,2.546,2.546,0,0,1-.806-1.97A2.7,2.7,0,0,1,90.354,72a3.243,3.243,0,0,1,2.281-.817,3.179,3.179,0,0,1,2.373.908,3.018,3.018,0,0,1,.864,2.278l-.015.044H94.43a2.242,2.242,0,0,0-.5-1.516,1.646,1.646,0,0,0-1.311-.579,1.544,1.544,0,0,0-1.227.5,1.823,1.823,0,0,0-.436,1.245,1.545,1.545,0,0,0,.461,1.15,4.449,4.449,0,0,0,1.553.857,5.463,5.463,0,0,1,2.219,1.245,2.71,2.71,0,0,1,.762,1.992,2.6,2.6,0,0,1-.9,2.076,3.481,3.481,0,0,1-2.355.773,3.79,3.79,0,0,1-2.446-.835,2.8,2.8,0,0,1-1-2.4l.015-.044H90.7a2.107,2.107,0,0,0,.575,1.619,2.012,2.012,0,0,0,1.425.535,1.76,1.76,0,0,0,1.3-.465A1.68,1.68,0,0,0,94.467,79.319Zm11.162-.015h-3.186l-.769,2.7h-1.545l3.2-10.664h1.443L107.943,82H106.4Zm-2.849-1.179h2.52l-1.23-4.336h-.044ZM116.322,82h-1.494L110.7,74.134l-.044.015V82h-1.487V71.336h1.487l4.131,7.844.044-.007V71.336h1.494Zm2.036,0V71.336h3.025a3.543,3.543,0,0,1,2.823,1.282,4.9,4.9,0,0,1,1.095,3.3V77.43a4.879,4.879,0,0,1-1.095,3.3A3.551,3.551,0,0,1,121.383,82Zm1.487-9.521v8.394h1.538a2.034,2.034,0,0,0,1.758-.963,4.3,4.3,0,0,0,.659-2.479V75.9a4.259,4.259,0,0,0-.659-2.457,2.034,2.034,0,0,0-1.758-.963Zm17.2,6.313.015.044a3.144,3.144,0,0,1-.879,2.446,3.458,3.458,0,0,1-2.5.872,3.393,3.393,0,0,1-2.615-1.051,4.174,4.174,0,0,1-.974-2.948V75.2a4.245,4.245,0,0,1,.959-2.952,3.3,3.3,0,0,1,2.578-1.062,3.614,3.614,0,0,1,2.549.846,3.118,3.118,0,0,1,.886,2.472l-.015.044h-1.428a2.414,2.414,0,0,0-.5-1.681,1.938,1.938,0,0,0-1.494-.538,1.763,1.763,0,0,0-1.516.736,3.558,3.558,0,0,0-.535,2.113v2.981a3.532,3.532,0,0,0,.549,2.131,1.82,1.82,0,0,0,1.553.74,1.864,1.864,0,0,0,1.45-.531,2.485,2.485,0,0,0,.483-1.7Zm3.113,2.08h4.314V82h-5.8V71.336h1.487ZM147.523,82h-1.487V71.336h1.487Zm7.28-4.951h-3.618v3.823h4.263V82H149.7V71.336h5.713v1.143h-4.226v3.435H154.8ZM164.1,82H162.6l-4.131-7.866-.044.015V82h-1.487V71.336h1.487l4.131,7.844.044-.007V71.336H164.1Zm8.2-9.521h-2.827V82H167.98V72.479h-2.805V71.336H172.3Zm6.021,6.841a1.752,1.752,0,0,0-.417-1.2,3.657,3.657,0,0,0-1.472-.861,6.043,6.043,0,0,1-2.307-1.208,2.546,2.546,0,0,1-.806-1.97,2.7,2.7,0,0,1,.89-2.076,3.243,3.243,0,0,1,2.281-.817,3.179,3.179,0,0,1,2.373.908,3.018,3.018,0,0,1,.864,2.278l-.015.044h-1.428a2.242,2.242,0,0,0-.5-1.516,1.646,1.646,0,0,0-1.311-.579,1.544,1.544,0,0,0-1.227.5,1.823,1.823,0,0,0-.436,1.245,1.545,1.545,0,0,0,.461,1.15,4.449,4.449,0,0,0,1.553.857,5.463,5.463,0,0,1,2.219,1.245,2.71,2.71,0,0,1,.762,1.992,2.6,2.6,0,0,1-.9,2.076,3.481,3.481,0,0,1-2.355.773,3.79,3.79,0,0,1-2.446-.835,2.8,2.8,0,0,1-1-2.4l.015-.044h1.436a2.107,2.107,0,0,0,.575,1.619,2.012,2.012,0,0,0,1.425.535,1.76,1.76,0,0,0,1.3-.465A1.68,1.68,0,0,0,178.322,79.319Z" transform="translate(42 852)" fill="#0054a5"/>
      <g id="Layer_1" transform="translate(102.506 746.572)">
        <g id="Group_248" data-name="Group 248">
          <path id="Path_1020" data-name="Path 1020" d="M24.083,58.747a21.036,21.036,0,0,1,.817-3.131,11.97,11.97,0,0,0-1.5-11.3c-2.178-3-1.77-6.126-.272-9.121a4.279,4.279,0,0,1,2.451-2.178c5.037-2.314,7.76-6.4,9.121-11.572a7.994,7.994,0,0,1,7.079-5.854,11.6,11.6,0,0,1,3.131.545,13.2,13.2,0,0,0,7.624.272,23.041,23.041,0,0,0,4.22-1.77c1.634-.817,3.131-1.77,5.037-1.634,3.267.272,5.99,1.225,7.488,4.493,1.906,4.22,5.173,6.535,9.53,7.624.272.136.681.136.953.272,4.629,1.089,6.263,5.854,5.582,9.258a36.739,36.739,0,0,0-.817,5.582,11.869,11.869,0,0,0,2.451,7.9,7.007,7.007,0,0,1,1.5,4.629c-.272,2.587-.817,5.173-3.131,6.807a12.927,12.927,0,0,1-2.314,1.361,10.552,10.552,0,0,0-6.126,8.169c-.545,3.812-2.859,5.99-6.126,7.352a6.046,6.046,0,0,1-4.629.136,13.8,13.8,0,0,0-5.718-1.089,10.525,10.525,0,0,0-5.718,2.178c-.136.136-.408.272-.545.545a5.578,5.578,0,0,1-5.31,1.5c-1.634-.408-3.267-.953-4.9-1.5a5.831,5.831,0,0,1-3.4-3.54A11.654,11.654,0,0,0,36.2,69.094a11.888,11.888,0,0,0-4.765-1.77,6.861,6.861,0,0,1-5.31-3.676A9.068,9.068,0,0,1,24.083,58.747Zm30.9-37.3A24.645,24.645,0,1,0,79.629,46.358,24.75,24.75,0,0,0,54.987,21.444Z" transform="translate(-19.182 -12.99)" fill="#a8ddfd"/>
          <path id="Path_1021" data-name="Path 1021" d="M83.174,86.895c-5.31-2.451-10.619-5.037-16.065-7.624-1.77,5.854-3.4,11.436-5.173,17.426C58.124,87.848,54.312,79.135,50.5,70.421a41.389,41.389,0,0,0,11.572-3A46.2,46.2,0,0,0,72.283,61.3c3.812,8.577,7.352,17.018,10.891,25.595Z" transform="translate(-8.841 4.47)" fill="#57a4ff"/>
          <path id="Path_1022" data-name="Path 1022" d="M41.274,96.1c-1.634-5.718-3.4-11.436-5.173-17.154-5.446,2.587-10.755,5.037-16.2,7.624,3.676-8.169,7.352-16.2,11.027-24.369a40.609,40.609,0,0,0,21.647,8.441C48.762,79.218,45.086,87.658,41.41,96.1Z" transform="translate(-19.9 4.795)" fill="#64c1f7"/>
          <path id="Path_1023" data-name="Path 1023" d="M52.706,19.2A24.645,24.645,0,1,1,28.2,43.569,24.608,24.608,0,0,1,52.706,19.2Zm.136,3.4A21.238,21.238,0,1,0,74.08,43.978,21.3,21.3,0,0,0,52.842,22.6Z" transform="translate(-16.901 -10.746)" fill="#fff"/>
          <path id="Path_1024" data-name="Path 1024" d="M51.938,21.7A21.238,21.238,0,1,1,30.7,42.666,21.295,21.295,0,0,1,51.938,21.7Zm-3,24.1-.545-.545-4.765-4.765c-.408-.408-.681-.408-1.089,0-1.089,1.089-2.042,2.178-3.131,3.131-.408.408-.545.681,0,1.089L48.4,53.693c.545.545.817.545,1.225,0,5.718-5.718,11.436-11.572,17.29-17.29.136-.136.408-.408.408-.545l-4.22-4.22C58.473,36.4,53.708,41.032,48.943,45.8Z" transform="translate(-15.997 -9.843)" fill="#1664ff"/>
          <path id="Path_1025" data-name="Path 1025" d="M46.711,43.123,60.734,29.1l4.22,4.22a1.879,1.879,0,0,0-.408.545C58.828,39.583,53.11,45.3,47.392,51.155c-.545.545-.817.545-1.225,0L37.181,42.17c-.408-.408-.408-.681,0-1.089,1.089-1.089,2.178-2.042,3.131-3.131.408-.408.681-.408,1.089,0l4.765,4.765C46.3,42.714,46.439,42.85,46.711,43.123Z" transform="translate(-13.765 -7.168)" fill="#fff"/>
        </g>
      </g>
    </g>
  </g>
</svg>
