<svg xmlns="http://www.w3.org/2000/svg"  viewBox="0 0 398.267 113">
  <g id="Group_1101" data-name="Group 1101" transform="translate(-278 -924)">
    <g id="Path_4714" data-name="Path 4714" transform="translate(278 926)" fill="#fff" opacity="0.79">
      <path d="M 311.7333984375 49.5 L 24.99999046325684 49.5 C 21.69228172302246 49.5 18.48382377624512 48.85229110717773 15.46365737915039 47.57487487792969 C 12.54628276824951 46.34091567993164 9.926074028015137 44.57433319091797 7.675907611846924 42.32412338256836 C 5.425699234008789 40.07391738891602 3.659074306488037 37.45375061035156 2.425115823745728 34.53637313842773 C 1.147699236869812 31.51620864868164 0.4999908804893494 28.30770874023438 0.4999908804893494 25 L 0.4999908804893494 1.724125027656555 C 0.4999908804893494 1.049124956130981 1.049157500267029 0.5 1.724157571792603 0.5 L 311.7333984375 0.5 C 315.0411071777344 0.5 318.2496032714844 1.147708296775818 321.269775390625 2.425124883651733 C 324.1871643066406 3.659083366394043 326.8073120117188 5.425666809082031 329.0575256347656 7.675875186920166 C 331.3077392578125 9.926083564758301 333.0743103027344 12.54625034332275 334.3082885742188 15.46362495422363 C 335.585693359375 18.48379135131836 336.2333984375 21.69229125976563 336.2333984375 25 C 336.2333984375 28.30770874023438 335.585693359375 31.51620864868164 334.3082885742188 34.53637313842773 C 333.0743103027344 37.45375061035156 331.3077392578125 40.07391738891602 329.0575256347656 42.32412338256836 C 326.8073120117188 44.57433319091797 324.1871643066406 46.34091567993164 321.269775390625 47.57487487792969 C 318.2496032714844 48.85229110717773 315.0411071777344 49.5 311.7333984375 49.5 Z" stroke="none"/>
      <path d="M 1.724151611328125 1 C 1.324859619140625 1 1 1.324832916259766 1 1.724124908447266 L 1 25 C 1 28.24041748046875 1.6343994140625 31.38337516784668 2.8856201171875 34.34158325195313 C 4.0943603515625 37.19937515258789 5.824981689453125 39.7661247253418 8.0294189453125 41.9705810546875 C 10.23385620117188 44.17499923706055 12.80062866210938 45.90562438964844 15.65841674804688 47.11437606811523 C 18.61660766601563 48.36558151245117 21.75958251953125 49 25 49 L 311.7333984375 49 C 314.9738159179688 49 318.1167907714844 48.36558151245117 321.0749816894531 47.11437606811523 C 323.9327697753906 45.90562438964844 326.4995422363281 44.17499923706055 328.7039794921875 41.9705810546875 C 330.9084167480469 39.7661247253418 332.6390380859375 37.19937515258789 333.8477783203125 34.34158325195313 C 335.0989990234375 31.38337516784668 335.7333984375 28.24041748046875 335.7333984375 25 C 335.7333984375 21.75958251953125 335.0989990234375 18.61662483215332 333.8477783203125 15.65841674804688 C 332.6390380859375 12.80062484741211 330.9084167480469 10.2338752746582 328.7039794921875 8.029415130615234 C 326.4995422363281 5.825000762939453 323.9327697753906 4.094375610351563 321.0749816894531 2.885623931884766 C 318.1167907714844 1.634418487548828 314.9738159179688 1 311.7333984375 1 L 1.724151611328125 1 M 1.724151611328125 0 L 311.7333984375 0 C 325.54052734375 0 336.7333984375 11.19287490844727 336.7333984375 25 C 336.7333984375 38.80712509155273 325.54052734375 50 311.7333984375 50 L 25 50 C 11.19287109375 50 0 38.80712509155273 0 25 L 0 1.724124908447266 C 0 0.7719154357910156 0.77191162109375 0 1.724151611328125 0 Z" stroke="none" fill="#707070"/>
    </g>
    <g id="Path_4715" data-name="Path 4715" transform="translate(278 987)" fill="#fff" opacity="0.79">
      <path d="M 311.7333984375 49.5 L 24.99999046325684 49.5 C 21.69228172302246 49.5 18.48382377624512 48.85229110717773 15.46365737915039 47.57487487792969 C 12.54628276824951 46.34091567993164 9.926074028015137 44.57433319091797 7.675907611846924 42.32412338256836 C 5.425699234008789 40.07391738891602 3.659074306488037 37.45375061035156 2.425115823745728 34.53637313842773 C 1.147699236869812 31.51620864868164 0.4999908804893494 28.30770874023438 0.4999908804893494 25 L 0.4999908804893494 1.724125027656555 C 0.4999908804893494 1.049124956130981 1.049157500267029 0.5 1.724157571792603 0.5 L 311.7333984375 0.5 C 315.0411071777344 0.5 318.2496032714844 1.147708296775818 321.269775390625 2.425124883651733 C 324.1871643066406 3.659083366394043 326.8073120117188 5.425666809082031 329.0575256347656 7.675875186920166 C 331.3077392578125 9.926083564758301 333.0743103027344 12.54625034332275 334.3082885742188 15.46362495422363 C 335.585693359375 18.48379135131836 336.2333984375 21.69229125976563 336.2333984375 25 C 336.2333984375 28.30770874023438 335.585693359375 31.51620864868164 334.3082885742188 34.53637313842773 C 333.0743103027344 37.45375061035156 331.3077392578125 40.07391738891602 329.0575256347656 42.32412338256836 C 326.8073120117188 44.57433319091797 324.1871643066406 46.34091567993164 321.269775390625 47.57487487792969 C 318.2496032714844 48.85229110717773 315.0411071777344 49.5 311.7333984375 49.5 Z" stroke="none"/>
      <path d="M 1.724151611328125 1 C 1.324859619140625 1 1 1.324832916259766 1 1.724124908447266 L 1 25 C 1 28.24041748046875 1.6343994140625 31.38337516784668 2.8856201171875 34.34158325195313 C 4.0943603515625 37.19937515258789 5.824981689453125 39.7661247253418 8.0294189453125 41.9705810546875 C 10.23385620117188 44.17499923706055 12.80062866210938 45.90562438964844 15.65841674804688 47.11437606811523 C 18.61660766601563 48.36558151245117 21.75958251953125 49 25 49 L 311.7333984375 49 C 314.9738159179688 49 318.1167907714844 48.36558151245117 321.0749816894531 47.11437606811523 C 323.9327697753906 45.90562438964844 326.4995422363281 44.17499923706055 328.7039794921875 41.9705810546875 C 330.9084167480469 39.7661247253418 332.6390380859375 37.19937515258789 333.8477783203125 34.34158325195313 C 335.0989990234375 31.38337516784668 335.7333984375 28.24041748046875 335.7333984375 25 C 335.7333984375 21.75958251953125 335.0989990234375 18.61662483215332 333.8477783203125 15.65841674804688 C 332.6390380859375 12.80062484741211 330.9084167480469 10.2338752746582 328.7039794921875 8.029415130615234 C 326.4995422363281 5.825000762939453 323.9327697753906 4.094375610351563 321.0749816894531 2.885623931884766 C 318.1167907714844 1.634418487548828 314.9738159179688 1 311.7333984375 1 L 1.724151611328125 1 M 1.724151611328125 0 L 311.7333984375 0 C 325.54052734375 0 336.7333984375 11.19287490844727 336.7333984375 25 C 336.7333984375 38.80712509155273 325.54052734375 50 311.7333984375 50 L 25 50 C 11.19287109375 50 0 38.80712509155273 0 25 L 0 1.724124908447266 C 0 0.7719154357910156 0.77191162109375 0 1.724151611328125 0 Z" stroke="none" fill="#707070"/>
    </g>
    <g id="Group_1" data-name="Group 1" transform="translate(326.51 924)">
      <path id="Path_4785" data-name="Path 4785" d="M7.5-9.448h4.272v2.124H7.5v5.542H5.066V-7.324H.806V-9.448h4.26v-5.273H7.5Zm17.541-3.784a4.324,4.324,0,0,1-.7,2.435,4.288,4.288,0,0,1-1.868,1.581,4.936,4.936,0,0,1,2.216,1.7,4.38,4.38,0,0,1,.836,2.649,4.844,4.844,0,0,1-1.483,3.784A5.431,5.431,0,0,1,20.25.256a5.819,5.819,0,0,1-3.961-1.343,4.747,4.747,0,0,1-1.544-3.784A4.309,4.309,0,0,1,15.6-7.526a5.017,5.017,0,0,1,2.319-1.691A4.336,4.336,0,0,1,15.96-10.8a4.244,4.244,0,0,1-.714-2.435,4.525,4.525,0,0,1,1.385-3.558,5.207,5.207,0,0,1,3.607-1.239A4.889,4.889,0,0,1,23.7-16.791,4.612,4.612,0,0,1,25.036-13.232Zm-2.014,8.3a3.517,3.517,0,0,0-.806-2.393,2.521,2.521,0,0,0-1.978-.928,2.765,2.765,0,0,0-2.13.928,3.407,3.407,0,0,0-.848,2.393A3.38,3.38,0,0,0,18.1-2.521a2.817,2.817,0,0,0,2.148.9,2.52,2.52,0,0,0,1.984-.9A3.53,3.53,0,0,0,23.021-4.932Zm-.488-8.252a3.3,3.3,0,0,0-.653-2.124,2.018,2.018,0,0,0-1.642-.818,2.28,2.28,0,0,0-1.8.787,3.157,3.157,0,0,0-.69,2.155,3.289,3.289,0,0,0,.7,2.2,2.252,2.252,0,0,0,1.8.83,1.986,1.986,0,0,0,1.642-.83A3.5,3.5,0,0,0,22.533-13.184Zm16.393-.049a4.324,4.324,0,0,1-.7,2.435,4.288,4.288,0,0,1-1.868,1.581,4.936,4.936,0,0,1,2.216,1.7,4.38,4.38,0,0,1,.836,2.649,4.844,4.844,0,0,1-1.483,3.784A5.431,5.431,0,0,1,34.141.256,5.819,5.819,0,0,1,30.18-1.086a4.747,4.747,0,0,1-1.544-3.784,4.309,4.309,0,0,1,.854-2.655A5.017,5.017,0,0,1,31.81-9.216,4.336,4.336,0,0,1,29.85-10.8a4.244,4.244,0,0,1-.714-2.435,4.525,4.525,0,0,1,1.385-3.558,5.207,5.207,0,0,1,3.607-1.239,4.889,4.889,0,0,1,3.461,1.239A4.612,4.612,0,0,1,38.926-13.232Zm-2.014,8.3a3.517,3.517,0,0,0-.806-2.393,2.521,2.521,0,0,0-1.978-.928A2.765,2.765,0,0,0,32-7.324a3.407,3.407,0,0,0-.848,2.393,3.38,3.38,0,0,0,.842,2.411,2.817,2.817,0,0,0,2.148.9,2.52,2.52,0,0,0,1.984-.9A3.53,3.53,0,0,0,36.912-4.932Zm-.488-8.252a3.3,3.3,0,0,0-.653-2.124,2.018,2.018,0,0,0-1.642-.818,2.28,2.28,0,0,0-1.8.787,3.157,3.157,0,0,0-.69,2.155,3.289,3.289,0,0,0,.7,2.2,2.252,2.252,0,0,0,1.8.83,1.986,1.986,0,0,0,1.642-.83A3.5,3.5,0,0,0,36.424-13.184ZM53.11-6.323a7.462,7.462,0,0,1-1.422,4.816A4.622,4.622,0,0,1,47.9.256a4.652,4.652,0,0,1-3.809-1.764,7.44,7.44,0,0,1-1.428-4.816v-5.115a7.52,7.52,0,0,1,1.416-4.81,4.6,4.6,0,0,1,3.8-1.782,4.639,4.639,0,0,1,3.809,1.776,7.47,7.47,0,0,1,1.428,4.816ZM50.6-11.792a6.032,6.032,0,0,0-.714-3.174,2.239,2.239,0,0,0-2.008-1.16,2.225,2.225,0,0,0-2,1.16,6.074,6.074,0,0,0-.708,3.174v5.811a6.058,6.058,0,0,0,.72,3.186A2.248,2.248,0,0,0,47.9-1.624a2.209,2.209,0,0,0,2-1.166,6.18,6.18,0,0,0,.7-3.192Zm12.6,5.176H57V-8.508h6.189ZM77.766,0H67.5V-1.648l5.029-6.58a16.5,16.5,0,0,0,1.715-2.808,5.273,5.273,0,0,0,.482-2.124,3.57,3.57,0,0,0-.592-2.161,2.023,2.023,0,0,0-1.74-.806,2.271,2.271,0,0,0-1.984.989,4.3,4.3,0,0,0-.69,2.515H67.292l-.037-.073a5.253,5.253,0,0,1,1.355-3.784A4.852,4.852,0,0,1,72.4-18.03a4.729,4.729,0,0,1,3.564,1.324,4.883,4.883,0,0,1,1.282,3.546,5.969,5.969,0,0,1-.775,2.911A26.87,26.87,0,0,1,74.092-6.8L70.625-1.88h7.141Zm9.923-6.616H81.5V-8.508h6.189Zm14.123-6.616a4.324,4.324,0,0,1-.7,2.435,4.288,4.288,0,0,1-1.868,1.581,4.936,4.936,0,0,1,2.216,1.7,4.38,4.38,0,0,1,.836,2.649,4.844,4.844,0,0,1-1.483,3.784A5.431,5.431,0,0,1,97.027.256a5.819,5.819,0,0,1-3.961-1.343,4.747,4.747,0,0,1-1.544-3.784,4.309,4.309,0,0,1,.854-2.655A5.017,5.017,0,0,1,94.7-9.216,4.336,4.336,0,0,1,92.736-10.8a4.244,4.244,0,0,1-.714-2.435,4.525,4.525,0,0,1,1.385-3.558,5.207,5.207,0,0,1,3.607-1.239,4.889,4.889,0,0,1,3.461,1.239A4.612,4.612,0,0,1,101.812-13.232ZM99.8-4.932a3.517,3.517,0,0,0-.806-2.393,2.521,2.521,0,0,0-1.978-.928,2.765,2.765,0,0,0-2.13.928,3.407,3.407,0,0,0-.848,2.393,3.38,3.38,0,0,0,.842,2.411,2.817,2.817,0,0,0,2.148.9,2.52,2.52,0,0,0,1.984-.9A3.53,3.53,0,0,0,99.8-4.932Zm-.488-8.252a3.3,3.3,0,0,0-.653-2.124,2.018,2.018,0,0,0-1.642-.818,2.28,2.28,0,0,0-1.8.787,3.157,3.157,0,0,0-.69,2.155,3.289,3.289,0,0,0,.7,2.2,2.252,2.252,0,0,0,1.8.83,1.986,1.986,0,0,0,1.642-.83A3.5,3.5,0,0,0,99.31-13.184Zm16.393-.049a4.324,4.324,0,0,1-.7,2.435,4.288,4.288,0,0,1-1.868,1.581,4.936,4.936,0,0,1,2.216,1.7,4.38,4.38,0,0,1,.836,2.649,4.844,4.844,0,0,1-1.483,3.784,5.431,5.431,0,0,1-3.79,1.343,5.819,5.819,0,0,1-3.961-1.343,4.747,4.747,0,0,1-1.544-3.784,4.309,4.309,0,0,1,.854-2.655,5.017,5.017,0,0,1,2.319-1.691,4.336,4.336,0,0,1-1.959-1.581,4.244,4.244,0,0,1-.714-2.435,4.525,4.525,0,0,1,1.385-3.558,5.207,5.207,0,0,1,3.607-1.239,4.889,4.889,0,0,1,3.461,1.239A4.612,4.612,0,0,1,115.7-13.232Zm-2.014,8.3a3.517,3.517,0,0,0-.806-2.393,2.521,2.521,0,0,0-1.978-.928,2.765,2.765,0,0,0-2.13.928,3.407,3.407,0,0,0-.848,2.393,3.38,3.38,0,0,0,.842,2.411,2.817,2.817,0,0,0,2.148.9,2.52,2.52,0,0,0,1.984-.9A3.53,3.53,0,0,0,113.688-4.932Zm-.488-8.252a3.3,3.3,0,0,0-.653-2.124,2.018,2.018,0,0,0-1.642-.818,2.28,2.28,0,0,0-1.8.787,3.157,3.157,0,0,0-.69,2.155,3.289,3.289,0,0,0,.7,2.2,2.252,2.252,0,0,0,1.8.83,1.986,1.986,0,0,0,1.642-.83A3.5,3.5,0,0,0,113.2-13.184Zm11.388,3.125a2.339,2.339,0,0,0,1.978-.824A3.539,3.539,0,0,0,127.2-13.1a3.511,3.511,0,0,0-.641-2.185,2.21,2.21,0,0,0-1.874-.842,2.4,2.4,0,0,0-1.88.842,3.124,3.124,0,0,0-.745,2.148h-2.417l-.024-.073a4.356,4.356,0,0,1,1.4-3.436,5.115,5.115,0,0,1,3.668-1.385,5.151,5.151,0,0,1,3.68,1.282,4.788,4.788,0,0,1,1.361,3.662,4.273,4.273,0,0,1-.647,2.307,4.3,4.3,0,0,1-1.782,1.6,4.132,4.132,0,0,1,1.99,1.611,4.835,4.835,0,0,1,.7,2.661,4.91,4.91,0,0,1-1.483,3.79A5.393,5.393,0,0,1,124.686.256a5.621,5.621,0,0,1-3.7-1.324,4.324,4.324,0,0,1-1.532-3.644l.024-.073h2.4a3.319,3.319,0,0,0,.787,2.252,2.551,2.551,0,0,0,2.02.909,2.53,2.53,0,0,0,2.039-.9,3.54,3.54,0,0,0,.757-2.362,3.641,3.641,0,0,0-.732-2.49,2.751,2.751,0,0,0-2.161-.818h-1.709v-1.868Zm18.9-3.174a4.324,4.324,0,0,1-.7,2.435,4.288,4.288,0,0,1-1.868,1.581,4.936,4.936,0,0,1,2.216,1.7,4.38,4.38,0,0,1,.836,2.649,4.844,4.844,0,0,1-1.483,3.784A5.431,5.431,0,0,1,138.7.256a5.819,5.819,0,0,1-3.961-1.343,4.746,4.746,0,0,1-1.544-3.784,4.309,4.309,0,0,1,.854-2.655,5.017,5.017,0,0,1,2.319-1.691,4.336,4.336,0,0,1-1.959-1.581,4.244,4.244,0,0,1-.714-2.435,4.525,4.525,0,0,1,1.385-3.558,5.207,5.207,0,0,1,3.607-1.239,4.889,4.889,0,0,1,3.461,1.239A4.612,4.612,0,0,1,143.484-13.232Zm-2.014,8.3a3.517,3.517,0,0,0-.806-2.393,2.521,2.521,0,0,0-1.978-.928,2.765,2.765,0,0,0-2.13.928,3.407,3.407,0,0,0-.848,2.393,3.38,3.38,0,0,0,.842,2.411,2.817,2.817,0,0,0,2.148.9,2.52,2.52,0,0,0,1.984-.9A3.53,3.53,0,0,0,141.47-4.932Zm-.488-8.252a3.3,3.3,0,0,0-.653-2.124,2.018,2.018,0,0,0-1.642-.818,2.28,2.28,0,0,0-1.8.787,3.157,3.157,0,0,0-.69,2.155,3.289,3.289,0,0,0,.7,2.2,2.252,2.252,0,0,0,1.8.83,1.986,1.986,0,0,0,1.642-.83A3.5,3.5,0,0,0,140.981-13.184Zm16.686,6.86a7.462,7.462,0,0,1-1.422,4.816,4.622,4.622,0,0,1-3.79,1.764,4.652,4.652,0,0,1-3.809-1.764,7.44,7.44,0,0,1-1.428-4.816v-5.115a7.52,7.52,0,0,1,1.416-4.81,4.6,4.6,0,0,1,3.8-1.782,4.639,4.639,0,0,1,3.809,1.776,7.47,7.47,0,0,1,1.428,4.816Zm-2.515-5.469a6.032,6.032,0,0,0-.714-3.174,2.239,2.239,0,0,0-2.008-1.16,2.225,2.225,0,0,0-2,1.16,6.074,6.074,0,0,0-.708,3.174v5.811a6.058,6.058,0,0,0,.72,3.186,2.248,2.248,0,0,0,2.014,1.172,2.209,2.209,0,0,0,2-1.166,6.18,6.18,0,0,0,.7-3.192Zm16.405,5.469a7.462,7.462,0,0,1-1.422,4.816,4.622,4.622,0,0,1-3.79,1.764,4.652,4.652,0,0,1-3.809-1.764,7.44,7.44,0,0,1-1.428-4.816v-5.115a7.52,7.52,0,0,1,1.416-4.81,4.6,4.6,0,0,1,3.8-1.782,4.639,4.639,0,0,1,3.809,1.776,7.47,7.47,0,0,1,1.428,4.816Zm-2.515-5.469a6.032,6.032,0,0,0-.714-3.174,2.239,2.239,0,0,0-2.008-1.16,2.225,2.225,0,0,0-2,1.16,6.074,6.074,0,0,0-.708,3.174v5.811a6.058,6.058,0,0,0,.72,3.186,2.248,2.248,0,0,0,2.014,1.172,2.209,2.209,0,0,0,2-1.166,6.18,6.18,0,0,0,.7-3.192ZM181.994,0H179.5V-15.674l-3.467.22V-17.3l5.957-.732Zm13.537-6.616h-6.189V-8.508h6.189Zm12.89.549h2.063v1.892H208.42V0h-2.5V-4.175h-6.775l-.073-1.392,6.763-12.207h2.588Zm-6.9,0h4.395v-8.276l-.073-.024-.33.757Z" transform="translate(0.49 36.436)" fill="#1664ff"/>
      <g id="call-24px" transform="translate(292.869)">
        <path id="Path_3" data-name="Path 3" d="M0,0H56.887V55.032H0Z" fill="none"/>
      </g>
    </g>
    <g id="Group_292" data-name="Group 292" transform="translate(-979.267 192)">
      <g id="Group_291" data-name="Group 291">
        <path id="Path_1409" data-name="Path 1409" d="M22.8,0A22.8,22.8,0,1,1,0,22.8,22.8,22.8,0,0,1,22.8,0Z" transform="translate(1608 737)" fill="#fafafa"/>
        <g id="phone-call" transform="translate(1619 747.985)">
          <g id="Group_289" data-name="Group 289" transform="translate(0.756 0.77)">
            <path id="Path_1420" data-name="Path 1420" d="M60.977,21.51,59.7,22.789l-5.116-5.116,1.279-1.279a1.357,1.357,0,0,1,1.919,0l3.211,3.211A1.357,1.357,0,0,1,60.977,21.51Z" transform="translate(-52.758 -15.997)" fill="#6994ff"/>
            <path id="Path_1421" data-name="Path 1421" d="M37,70.649l-.959.959c-2.3,2.3-8.451-.138-13.749-5.436-4.364-4.364-6.784-9.31-6.219-12.2.223-1.138.7-1.469,1.743-2.507l5.116,5.116c-1.015,1.015-.974.973-1,1-.809.922.477,3.6,2.915,6.036,2.472,2.473,5.192,3.761,6.075,2.878l.959-.959Z" transform="translate(-15.995 -49.788)" fill="#1664ff"/>
            <path id="Path_1422" data-name="Path 1422" d="M358.667,319.2l-1.279,1.279-5.116-5.116,1.279-1.279a1.357,1.357,0,0,1,1.919,0l3.211,3.211A1.357,1.357,0,0,1,358.667,319.2Z" transform="translate(-336.379 -299.618)" fill="#1664ff"/>
          </g>
          <path id="Path_1423" data-name="Path 1423" d="M80.045,19.6a1.807,1.807,0,0,1-2.571.014l-2.892-2.892.334-.334a1.357,1.357,0,0,1,1.919,0Z" transform="translate(-71.057 -15.225)" fill="#80aaff"/>
          <path id="Path_1424" data-name="Path 1424" d="M37.68,69.7c-2.3,2.3-8.451-.138-13.749-5.436-3.52-3.52-5.775-7.418-6.219-10.311.223-1.138.7-1.469,1.743-2.507l5.116,5.116c-1.015,1.015-.974.973-1,1-.809.922.477,3.6,2.915,6.036,2.472,2.473,5.192,3.761,6.075,2.878l.959-.959C38.015,70.009,37.7,69.681,37.68,69.7Z" transform="translate(-16.875 -49.002)" fill="#679cfc"/>
          <path id="Path_1425" data-name="Path 1425" d="M377.735,317.3a1.807,1.807,0,0,1-2.571.014l-2.892-2.892.334-.334a1.357,1.357,0,0,1,1.919,0Z" transform="translate(-354.678 -298.847)" fill="#679cfc"/>
          <path id="Path_1426" data-name="Path 1426" d="M23.579,17.9l-3.2-3.2a2.112,2.112,0,0,0-2.988,0L15.155,16.94c-.307.307-2.458-.33-5.006-2.878A13.055,13.055,0,0,1,7.6,10.64c-.46-.971-.419-1.494-.329-1.583L9.51,6.818a2.115,2.115,0,0,0,0-2.988l-3.2-3.2a2.115,2.115,0,0,0-2.988,0L1.086,2.871C-.251,4.208-.357,6.538.788,9.433c2.89,7.309,12.019,14.779,17.581,14.779a4.053,4.053,0,0,0,2.972-1.086l2.238-2.238A2.112,2.112,0,0,0,23.579,17.9ZM5.243,1.7l3.2,3.2a.6.6,0,0,1,0,.849L7.7,6.493,3.649,2.446,4.394,1.7a.6.6,0,0,1,.849,0ZM15.335,22.017C10.155,19.969,4.242,14.056,2.194,8.877c-.9-2.266-.91-4.065-.039-4.936l.425-.425L6.626,7.563,6.2,7.987c-2.841,2.841,7.179,12.866,10.022,10.022l.425-.425L20.7,21.632l-.425.425c-.871.871-2.67.857-4.936-.039Zm7.174-2.2-.744.744-4.047-4.047.744-.744a.6.6,0,0,1,.849,0l3.2,3.2A.6.6,0,0,1,22.509,19.818Z" transform="translate(0)" fill="#0054a5"/>
          <path id="Path_1427" data-name="Path 1427" d="M272.748,171.107a1.06,1.06,0,0,1,1.059,1.059.756.756,0,0,0,1.512,0,2.574,2.574,0,0,0-2.571-2.571.756.756,0,1,0,0,1.512Z" transform="translate(-259.137 -161.566)" fill="#0054a5"/>
          <path id="Path_1428" data-name="Path 1428" d="M272.748,94.306a4.694,4.694,0,0,1,4.688,4.688.756.756,0,1,0,1.512,0,6.208,6.208,0,0,0-6.2-6.2.756.756,0,1,0,0,1.512Z" transform="translate(-259.137 -88.394)" fill="#0054a5"/>
          <path id="Path_1429" data-name="Path 1429" d="M272.748,17.506a8.327,8.327,0,0,1,8.318,8.318.756.756,0,1,0,1.512,0,9.841,9.841,0,0,0-9.83-9.83.756.756,0,1,0,0,1.512Z" transform="translate(-259.137 -15.224)" fill="#0054a5"/>
        </g>
      </g>
    </g>
    <g id="Group_290" data-name="Group 290" transform="translate(-982.467 189.8)">
      <path id="Path_1430" data-name="Path 1430" d="M22.8,0A22.8,22.8,0,1,1,0,22.8,22.8,22.8,0,0,1,22.8,0Z" transform="translate(1611.2 799.2)" fill="#f5f5f5"/>
      <g id="email_1_" data-name="email (1)" transform="translate(1622.5 809.5)">
        <path id="Path_1411" data-name="Path 1411" d="M104,21.77V11.258A1.258,1.258,0,0,1,105.258,10H116.4a1.258,1.258,0,0,1,1.258,1.258V21.77Z" transform="translate(-99.328 -9.551)" fill="#1664ff"/>
        <path id="Path_1412" data-name="Path 1412" d="M32.1,145l-3.965-2.869H13.965L10,145l3.965,2.869H28.136Z" transform="translate(-9.551 -135.747)" fill="#1664ff"/>
        <rect id="Rectangle_176" data-name="Rectangle 176" width="13.589" height="13.027" transform="translate(4.672 2.875)" fill="#fff"/>
        <path id="Path_1413" data-name="Path 1413" d="M10,206v13.3H32.1V206l-10.867,8.062Z" transform="translate(-9.551 -196.746)" fill="#679cfc"/>
        <path id="Path_1414" data-name="Path 1414" d="M10,332H32.1l-11.051-8Z" transform="translate(-9.551 -309.445)" fill="#8cceea"/>
        <path id="Path_1415" data-name="Path 1415" d="M23,9.254a.446.446,0,0,0-.186-.364h0L18.849,6.021a.453.453,0,0,0-.072-.042V1.707A1.709,1.709,0,0,0,17.07,0H5.93A1.709,1.709,0,0,0,4.223,1.707V5.979a.452.452,0,0,0-.072.042L.186,8.89h0A.446.446,0,0,0,0,9.254H0v13.3A.449.449,0,0,0,.449,23H22.569A.449.449,0,0,0,23,22.551V9.254ZM14.129,15.9,22.1,10.133V21.671ZM.9,10.133,8.871,15.9.9,21.671Zm20.886-.88L18.777,11.43V7.078ZM5.93.9H17.07a.81.81,0,0,1,.809.809v.719H8.423a.449.449,0,0,0,0,.9h9.456V12.08l-4.516,3.268h0l-1.6-1.157a.449.449,0,0,0-.527,0l-1.6,1.157L5.121,12.08V1.707A.81.81,0,0,1,5.93.9ZM4.223,7.078V11.43L1.216,9.254ZM1.836,22.1,11.5,15.109l3.828,2.77H13.244a.449.449,0,1,0,0,.9h3.325l1.242.9h-6.6a.449.449,0,1,0,0,.9h7.837L21.164,22.1Z" fill="#0054a5"/>
        <path id="Path_1416" data-name="Path 1416" d="M197.449,438a.449.449,0,1,0,.318.132A.453.453,0,0,0,197.449,438Z" transform="translate(-188.15 -418.324)" fill="#0054a5"/>
        <path id="Path_1417" data-name="Path 1417" d="M136.961,54.9h0a.449.449,0,1,0-.453-.449A.448.448,0,0,0,136.965,54.9Z" transform="translate(-130.38 -51.574)" fill="#0054a5"/>
        <path id="Path_1418" data-name="Path 1418" d="M183.392,99.93h2.18a.449.449,0,0,0,0-.9h-2.18a2.518,2.518,0,0,1-2.515-2.515v-.045a2.515,2.515,0,1,1,5.031,0v.72a.4.4,0,0,1-.807,0v-.813a1.844,1.844,0,0,0-1.842-1.842,1.932,1.932,0,0,0,0,3.863h.559a.449.449,0,1,0,0-.9h-.559a1.033,1.033,0,0,1,0-2.066.944.944,0,0,1,.943.943v.813a1.3,1.3,0,1,0,2.6,0v-.72a3.414,3.414,0,1,0-6.828,0v.045A3.418,3.418,0,0,0,183.392,99.93Z" transform="translate(-171.893 -88.877)" fill="#0054a5"/>
        <path id="Path_1419" data-name="Path 1419" d="M180.428,266.9h5.929a.449.449,0,1,0,0-.9h-5.929a.449.449,0,1,0,0,.9Z" transform="translate(-171.894 -254.051)" fill="#0054a5"/>
      </g>
    </g>
    <path id="Path_4716" data-name="Path 4716" d="M4.077,0H1.587V-13.208h2.49Zm0-16.675H1.587v-2.368h2.49Zm6.273,3.467.146,1.965a4.462,4.462,0,0,1,1.416-1.63,3.376,3.376,0,0,1,1.941-.58,3.245,3.245,0,0,1,2.74,1.294,6.67,6.67,0,0,1,.983,4.028V0H15.1V-8.118a4.937,4.937,0,0,0-.519-2.637,1.764,1.764,0,0,0-1.569-.769,2.417,2.417,0,0,0-1.465.446,3.119,3.119,0,0,0-.977,1.227V0H8.08V-13.208ZM22.239,0V-11.438H20.494v-1.77h1.746v-1.7a4.728,4.728,0,0,1,1.019-3.247,3.614,3.614,0,0,1,2.85-1.147,4.361,4.361,0,0,1,.751.067q.385.067.836.189l-.232,1.819a4.318,4.318,0,0,0-.488-.1,3.984,3.984,0,0,0-.562-.037,1.434,1.434,0,0,0-1.263.635,3.212,3.212,0,0,0-.433,1.819v1.7H26.9v1.77H24.717V0Zm7.1-6.75a7.893,7.893,0,0,1,1.392-4.822,4.5,4.5,0,0,1,3.821-1.88,4.511,4.511,0,0,1,3.827,1.88,7.869,7.869,0,0,1,1.4,4.822v.33a7.833,7.833,0,0,1-1.392,4.816A4.5,4.5,0,0,1,34.58.256a4.534,4.534,0,0,1-3.845-1.862,7.833,7.833,0,0,1-1.392-4.816Zm2.49.33a7.667,7.667,0,0,0,.677,3.455A2.2,2.2,0,0,0,34.58-1.624a2.17,2.17,0,0,0,2.032-1.349,7.675,7.675,0,0,0,.677-3.448v-.33a7.632,7.632,0,0,0-.684-3.436,2.19,2.19,0,0,0-2.051-1.361,2.178,2.178,0,0,0-2.045,1.361,7.691,7.691,0,0,0-.677,3.436Zm29.015.208A8.838,8.838,0,0,1,59.487-1.66,4.161,4.161,0,0,1,55.758.256a2.114,2.114,0,0,1-1.465-.549,2.9,2.9,0,0,1-.842-1.55A3.98,3.98,0,0,1,52.157-.275a3.09,3.09,0,0,1-1.77.519,2.464,2.464,0,0,1-2.264-1.465,6.859,6.859,0,0,1-.58-3.857,10.257,10.257,0,0,1,1.544-5,3.736,3.736,0,0,1,3.131-1.886,4.738,4.738,0,0,1,1.9.317,8.183,8.183,0,0,1,1.593.989l-.037.037h.061l-.562,7.043a3.665,3.665,0,0,0,.208,1.923.9.9,0,0,0,.793.519,2.411,2.411,0,0,0,2.155-1.428,8.167,8.167,0,0,0,.9-3.65q.183-4.59-1.55-7.153a6.042,6.042,0,0,0-5.383-2.563,6.493,6.493,0,0,0-5.463,2.771A12.715,12.715,0,0,0,44.6-5.835a11.524,11.524,0,0,0,1.648,7.208,6.05,6.05,0,0,0,5.3,2.692,7.786,7.786,0,0,0,1.947-.256,6.222,6.222,0,0,0,1.678-.671l.415,1.306a5.656,5.656,0,0,1-1.868.8,9,9,0,0,1-2.209.287,7.784,7.784,0,0,1-6.58-3.046Q42.611-.562,42.806-5.835a13.77,13.77,0,0,1,2.777-8.356,8.277,8.277,0,0,1,6.757-3.168,7.557,7.557,0,0,1,6.451,2.985Q61.019-11.389,60.848-6.213ZM49.605-5.078a6.574,6.574,0,0,0,.226,2.7A1.237,1.237,0,0,0,51-1.4a2.26,2.26,0,0,0,1.276-.385,3.18,3.18,0,0,0,1.031-1.4q0-.073.006-.165t.018-.226l.513-6.531a3.97,3.97,0,0,0-.6-.22,2.456,2.456,0,0,0-.653-.085,2.245,2.245,0,0,0-2.045,1.331A10.318,10.318,0,0,0,49.605-5.078Zm18-11.414v3.284h2.063v1.77H67.61v7.861a2.579,2.579,0,0,0,.311,1.459.967.967,0,0,0,.824.433,1.99,1.99,0,0,0,.391-.037q.183-.037.427-.11l.256,1.709a3.891,3.891,0,0,1-.787.275,3.84,3.84,0,0,1-.9.1,2.774,2.774,0,0,1-2.222-.922,4.406,4.406,0,0,1-.793-2.911v-7.861H63.374v-1.77H65.12v-3.284Zm7.763,5.054a4.377,4.377,0,0,1,1.379-1.483,3.29,3.29,0,0,1,1.831-.531,3.343,3.343,0,0,1,2.808,1.318A6.63,6.63,0,0,1,82.4-8.081V0h-2.49V-8.105a4.941,4.941,0,0,0-.525-2.618,1.735,1.735,0,0,0-1.55-.8,2.571,2.571,0,0,0-1.471.415,3,3,0,0,0-.995,1.16V0h-2.49V-19.043h2.49ZM93.084,0q-.159-.6-.25-1.068A6.729,6.729,0,0,1,92.718-2,4.85,4.85,0,0,1,91.332-.385a3.2,3.2,0,0,1-1.959.641,3.468,3.468,0,0,1-2.716-1.05,4.127,4.127,0,0,1-.946-2.869A3.6,3.6,0,0,1,87.023-6.6a5.617,5.617,0,0,1,3.656-1.074h2.026V-9.033a2.964,2.964,0,0,0-.537-1.886A1.848,1.848,0,0,0,90.63-11.6a1.84,1.84,0,0,0-1.434.586,2.15,2.15,0,0,0-.531,1.5L86.3-9.5l-.024-.073a3.356,3.356,0,0,1,1.2-2.71,4.7,4.7,0,0,1,3.32-1.172A4.449,4.449,0,0,1,93.975-12.3,4.309,4.309,0,0,1,95.2-9.009v6.128a10.848,10.848,0,0,0,.1,1.471A9.367,9.367,0,0,0,95.6,0Zm-3.2-1.648a2.782,2.782,0,0,0,1.794-.629A2.911,2.911,0,0,0,92.706-3.8V-6.14H90.643a2.279,2.279,0,0,0-1.794.726A2.542,2.542,0,0,0,88.2-3.662,2.277,2.277,0,0,0,88.641-2.2,1.5,1.5,0,0,0,89.886-1.648Zm11.388-11.56.146,1.965a4.462,4.462,0,0,1,1.416-1.63,3.376,3.376,0,0,1,1.941-.58,3.245,3.245,0,0,1,2.74,1.294A6.67,6.67,0,0,1,108.5-8.13V0h-2.478V-8.118a4.937,4.937,0,0,0-.519-2.637,1.764,1.764,0,0,0-1.569-.769,2.417,2.417,0,0,0-1.465.446,3.119,3.119,0,0,0-.977,1.227V0H99V-13.208ZM117.105.256a4.613,4.613,0,0,1-3.864-1.807,7.464,7.464,0,0,1-1.4-4.7v-.574a7.748,7.748,0,0,1,1.392-4.767,4.335,4.335,0,0,1,3.638-1.862,4,4,0,0,1,3.436,1.6,7.089,7.089,0,0,1,1.178,4.3v1.392h-7.166a6.522,6.522,0,0,0,.726,3.284,2.4,2.4,0,0,0,2.228,1.257,4.636,4.636,0,0,0,1.807-.323,4.62,4.62,0,0,0,1.416-.946l.806,1.538a5.264,5.264,0,0,1-1.74,1.147A6.181,6.181,0,0,1,117.105.256Zm-.232-11.8a1.943,1.943,0,0,0-1.709.995,5.927,5.927,0,0,0-.793,2.631h4.675V-8.2a4.835,4.835,0,0,0-.531-2.417A1.763,1.763,0,0,0,116.874-11.548Zm11.864,3.162h.073l2.124-4.822h2.856l-3.577,6.519L133.914,0h-2.832l-2.234-4.98h-.073L126.553,0h-2.832L127.4-6.689l-3.564-6.519h2.808ZM139.394,0H136.9V-13.208h2.49Zm0-16.675H136.9v-2.368h2.49Zm6.273,3.467.146,1.965a4.462,4.462,0,0,1,1.416-1.63,3.376,3.376,0,0,1,1.941-.58,3.245,3.245,0,0,1,2.74,1.294,6.67,6.67,0,0,1,.983,4.028V0h-2.478V-8.118a4.937,4.937,0,0,0-.519-2.637,1.764,1.764,0,0,0-1.569-.769,2.417,2.417,0,0,0-1.465.446,3.119,3.119,0,0,0-.977,1.227V0H143.4V-13.208Zm14.245-3.284v3.284h2.063v1.77h-2.063v7.861a2.579,2.579,0,0,0,.311,1.459.967.967,0,0,0,.824.433,1.99,1.99,0,0,0,.391-.037q.183-.037.427-.11l.256,1.709a3.891,3.891,0,0,1-.787.275,3.84,3.84,0,0,1-.9.1,2.774,2.774,0,0,1-2.222-.922,4.406,4.406,0,0,1-.793-2.911v-7.861h-1.746v-1.77h1.746v-3.284ZM167.979,0h-2.5V-2.478h2.5Zm8.935-1.624a1.95,1.95,0,0,0,1.532-.708,2.818,2.818,0,0,0,.616-1.917H181.3l.024.073a4.081,4.081,0,0,1-1.257,3.149A4.334,4.334,0,0,1,176.914.256a4.362,4.362,0,0,1-3.772-1.862,7.981,7.981,0,0,1-1.331-4.755v-.464a8.015,8.015,0,0,1,1.331-4.755,4.353,4.353,0,0,1,3.772-1.874,4.185,4.185,0,0,1,3.217,1.337,4.778,4.778,0,0,1,1.2,3.473l-.024.061h-2.246a3.587,3.587,0,0,0-.592-2.142,1.831,1.831,0,0,0-1.556-.824,2.079,2.079,0,0,0-2.008,1.343,8.114,8.114,0,0,0-.616,3.381v.464a8.2,8.2,0,0,0,.61,3.406A2.076,2.076,0,0,0,176.914-1.624ZM184.14-6.75a7.893,7.893,0,0,1,1.392-4.822,4.5,4.5,0,0,1,3.821-1.88,4.511,4.511,0,0,1,3.827,1.88,7.869,7.869,0,0,1,1.4,4.822v.33a7.833,7.833,0,0,1-1.392,4.816A4.5,4.5,0,0,1,189.376.256a4.534,4.534,0,0,1-3.845-1.862,7.833,7.833,0,0,1-1.392-4.816Zm2.49.33a7.667,7.667,0,0,0,.677,3.455,2.2,2.2,0,0,0,2.069,1.343,2.17,2.17,0,0,0,2.032-1.349,7.675,7.675,0,0,0,.677-3.448v-.33a7.632,7.632,0,0,0-.684-3.436,2.19,2.19,0,0,0-2.051-1.361,2.178,2.178,0,0,0-2.045,1.361,7.691,7.691,0,0,0-.677,3.436Zm13.585-6.787.134,1.794a4.108,4.108,0,0,1,1.4-1.508,3.638,3.638,0,0,1,1.971-.531,3.085,3.085,0,0,1,1.9.6,3.614,3.614,0,0,1,1.208,1.837,4.51,4.51,0,0,1,1.4-1.794,3.359,3.359,0,0,1,2.057-.647,3.128,3.128,0,0,1,2.7,1.4,7.44,7.44,0,0,1,.983,4.254V0h-2.49V-7.812a5.834,5.834,0,0,0-.513-2.887,1.682,1.682,0,0,0-1.526-.824,1.865,1.865,0,0,0-1.434.635,3.869,3.869,0,0,0-.848,1.672q.012.22.024.458t.012.482V0H204.72V-7.812a5.744,5.744,0,0,0-.525-2.85,1.683,1.683,0,0,0-1.526-.861,2.151,2.151,0,0,0-1.367.439,2.9,2.9,0,0,0-.879,1.208V0h-2.49V-13.208Z" transform="translate(327 1022)" fill="#1664ff"/>
  </g>
</svg>
