<svg xmlns="http://www.w3.org/2000/svg"  viewBox="0 0 398.267 113">

 <defs><style>
        @import url('https://fonts.googleapis.com/css2?family=Roboto+Condensed:wght@300;400&amp;display=swap');
        </style><style>
        @import url('https://fonts.googleapis.com/css2?family=Roboto+Condensed:wght@300;400&amp;display=swap');
        </style></defs>
  <g id="Group_855" data-name="Group 855" transform="translate(-278 -924)">
    <g id="Group_1" data-name="Group 1" transform="translate(326.51 924)">
      <g id="call-24px" transform="translate(292.869)">
        <path id="Path_3" data-name="Path 3" d="M0,0H56.887V55.032H0Z" fill="none"/>
      </g>
    </g>
    <g id="Group_852" data-name="Group 852">
      <path id="Rectangle_159" data-name="Rectangle 159" d="M1.724,0H311.733a25,25,0,0,1,25,25v0a25,25,0,0,1-25,25H25A25,25,0,0,1,0,25V1.724A1.724,1.724,0,0,1,1.724,0Z" transform="translate(278 926)" fill="#fff" opacity="0.79"/>
      <text style="text-align: center;font-weight:400; font-family:Roboto Condensed" id="_880-2-8838001-4" data-name="+880-2-8838001-4" transform="translate(327 960.436)" fill="#1664ff" font-size="25" font-family="RobotoCondensed-Regular, Roboto" letter-spacing="0.04em"><tspan x="0" y="0">+880-2-8838001-4</tspan></text>
    </g>
    <g id="Group_292" data-name="Group 292" transform="translate(-979.267 192)">
      <g id="Group_291" data-name="Group 291">
        <path id="Path_1409" data-name="Path 1409" d="M22.8,0A22.8,22.8,0,1,1,0,22.8,22.8,22.8,0,0,1,22.8,0Z" transform="translate(1608 737)" fill="#fafafa"/>
        <g id="phone-call" transform="translate(1619 747.985)">
          <g id="Group_289" data-name="Group 289" transform="translate(0.756 0.77)">
            <path id="Path_1420" data-name="Path 1420" d="M60.977,21.51,59.7,22.789l-5.116-5.116,1.279-1.279a1.357,1.357,0,0,1,1.919,0l3.211,3.211A1.357,1.357,0,0,1,60.977,21.51Z" transform="translate(-52.758 -15.997)" fill="#6994ff"/>
            <path id="Path_1421" data-name="Path 1421" d="M37,70.649l-.959.959c-2.3,2.3-8.451-.138-13.749-5.436-4.364-4.364-6.784-9.31-6.219-12.2.223-1.138.7-1.469,1.743-2.507l5.116,5.116c-1.015,1.015-.974.973-1,1-.809.922.477,3.6,2.915,6.036,2.472,2.473,5.192,3.761,6.075,2.878l.959-.959Z" transform="translate(-15.995 -49.788)" fill="#1664ff"/>
            <path id="Path_1422" data-name="Path 1422" d="M358.667,319.2l-1.279,1.279-5.116-5.116,1.279-1.279a1.357,1.357,0,0,1,1.919,0l3.211,3.211A1.357,1.357,0,0,1,358.667,319.2Z" transform="translate(-336.379 -299.618)" fill="#1664ff"/>
          </g>
          <path id="Path_1423" data-name="Path 1423" d="M80.045,19.6a1.807,1.807,0,0,1-2.571.014l-2.892-2.892.334-.334a1.357,1.357,0,0,1,1.919,0Z" transform="translate(-71.057 -15.225)" fill="#80aaff"/>
          <path id="Path_1424" data-name="Path 1424" d="M37.68,69.7c-2.3,2.3-8.451-.138-13.749-5.436-3.52-3.52-5.775-7.418-6.219-10.311.223-1.138.7-1.469,1.743-2.507l5.116,5.116c-1.015,1.015-.974.973-1,1-.809.922.477,3.6,2.915,6.036,2.472,2.473,5.192,3.761,6.075,2.878l.959-.959C38.015,70.009,37.7,69.681,37.68,69.7Z" transform="translate(-16.875 -49.002)" fill="#679cfc"/>
          <path id="Path_1425" data-name="Path 1425" d="M377.735,317.3a1.807,1.807,0,0,1-2.571.014l-2.892-2.892.334-.334a1.357,1.357,0,0,1,1.919,0Z" transform="translate(-354.678 -298.847)" fill="#679cfc"/>
          <path id="Path_1426" data-name="Path 1426" d="M23.579,17.9l-3.2-3.2a2.112,2.112,0,0,0-2.988,0L15.155,16.94c-.307.307-2.458-.33-5.006-2.878A13.055,13.055,0,0,1,7.6,10.64c-.46-.971-.419-1.494-.329-1.583L9.51,6.818a2.115,2.115,0,0,0,0-2.988l-3.2-3.2a2.115,2.115,0,0,0-2.988,0L1.086,2.871C-.251,4.208-.357,6.538.788,9.433c2.89,7.309,12.019,14.779,17.581,14.779a4.053,4.053,0,0,0,2.972-1.086l2.238-2.238A2.112,2.112,0,0,0,23.579,17.9ZM5.243,1.7l3.2,3.2a.6.6,0,0,1,0,.849L7.7,6.493,3.649,2.446,4.394,1.7a.6.6,0,0,1,.849,0ZM15.335,22.017C10.155,19.969,4.242,14.056,2.194,8.877c-.9-2.266-.91-4.065-.039-4.936l.425-.425L6.626,7.563,6.2,7.987c-2.841,2.841,7.179,12.866,10.022,10.022l.425-.425L20.7,21.632l-.425.425c-.871.871-2.67.857-4.936-.039Zm7.174-2.2-.744.744-4.047-4.047.744-.744a.6.6,0,0,1,.849,0l3.2,3.2A.6.6,0,0,1,22.509,19.818Z" transform="translate(0)" fill="#0054a5"/>
          <path id="Path_1427" data-name="Path 1427" d="M272.748,171.107a1.06,1.06,0,0,1,1.059,1.059.756.756,0,0,0,1.512,0,2.574,2.574,0,0,0-2.571-2.571.756.756,0,1,0,0,1.512Z" transform="translate(-259.137 -161.566)" fill="#0054a5"/>
          <path id="Path_1428" data-name="Path 1428" d="M272.748,94.306a4.694,4.694,0,0,1,4.688,4.688.756.756,0,1,0,1.512,0,6.208,6.208,0,0,0-6.2-6.2.756.756,0,1,0,0,1.512Z" transform="translate(-259.137 -88.394)" fill="#0054a5"/>
          <path id="Path_1429" data-name="Path 1429" d="M272.748,17.506a8.327,8.327,0,0,1,8.318,8.318.756.756,0,1,0,1.512,0,9.841,9.841,0,0,0-9.83-9.83.756.756,0,1,0,0,1.512Z" transform="translate(-259.137 -15.224)" fill="#0054a5"/>
        </g>
      </g>
    </g>
    <g id="Group_290" data-name="Group 290" transform="translate(-982.467 189.8)">
      <g id="Group_854" data-name="Group 854">
        <path id="Path_1430" data-name="Path 1430" d="M22.8,0A22.8,22.8,0,1,1,0,22.8,22.8,22.8,0,0,1,22.8,0Z" transform="translate(1611.2 799.2)" fill="#f5f5f5"/>
        <g id="email_1_" data-name="email (1)" transform="translate(1622.5 809.5)">
          <path id="Path_1411" data-name="Path 1411" d="M104,21.77V11.258A1.258,1.258,0,0,1,105.258,10H116.4a1.258,1.258,0,0,1,1.258,1.258V21.77Z" transform="translate(-99.328 -9.551)" fill="#1664ff"/>
          <path id="Path_1412" data-name="Path 1412" d="M32.1,145l-3.965-2.869H13.965L10,145l3.965,2.869H28.136Z" transform="translate(-9.551 -135.747)" fill="#1664ff"/>
          <rect id="Rectangle_176" data-name="Rectangle 176" width="13.589" height="13.027" transform="translate(4.672 2.875)" fill="#fff"/>
          <path id="Path_1413" data-name="Path 1413" d="M10,206v13.3H32.1V206l-10.867,8.062Z" transform="translate(-9.551 -196.746)" fill="#679cfc"/>
          <path id="Path_1414" data-name="Path 1414" d="M10,332H32.1l-11.051-8Z" transform="translate(-9.551 -309.445)" fill="#8cceea"/>
          <path id="Path_1415" data-name="Path 1415" d="M23,9.254a.446.446,0,0,0-.186-.364h0L18.849,6.021a.453.453,0,0,0-.072-.042V1.707A1.709,1.709,0,0,0,17.07,0H5.93A1.709,1.709,0,0,0,4.223,1.707V5.979a.452.452,0,0,0-.072.042L.186,8.89h0A.446.446,0,0,0,0,9.254H0v13.3A.449.449,0,0,0,.449,23H22.569A.449.449,0,0,0,23,22.551V9.254ZM14.129,15.9,22.1,10.133V21.671ZM.9,10.133,8.871,15.9.9,21.671Zm20.886-.88L18.777,11.43V7.078ZM5.93.9H17.07a.81.81,0,0,1,.809.809v.719H8.423a.449.449,0,0,0,0,.9h9.456V12.08l-4.516,3.268h0l-1.6-1.157a.449.449,0,0,0-.527,0l-1.6,1.157L5.121,12.08V1.707A.81.81,0,0,1,5.93.9ZM4.223,7.078V11.43L1.216,9.254ZM1.836,22.1,11.5,15.109l3.828,2.77H13.244a.449.449,0,1,0,0,.9h3.325l1.242.9h-6.6a.449.449,0,1,0,0,.9h7.837L21.164,22.1Z" fill="#0054a5"/>
          <path id="Path_1416" data-name="Path 1416" d="M197.449,438a.449.449,0,1,0,.318.132A.453.453,0,0,0,197.449,438Z" transform="translate(-188.15 -418.324)" fill="#0054a5"/>
          <path id="Path_1417" data-name="Path 1417" d="M136.961,54.9h0a.449.449,0,1,0-.453-.449A.448.448,0,0,0,136.965,54.9Z" transform="translate(-130.38 -51.574)" fill="#0054a5"/>
          <path id="Path_1418" data-name="Path 1418" d="M183.392,99.93h2.18a.449.449,0,0,0,0-.9h-2.18a2.518,2.518,0,0,1-2.515-2.515v-.045a2.515,2.515,0,1,1,5.031,0v.72a.4.4,0,0,1-.807,0v-.813a1.844,1.844,0,0,0-1.842-1.842,1.932,1.932,0,0,0,0,3.863h.559a.449.449,0,1,0,0-.9h-.559a1.033,1.033,0,0,1,0-2.066.944.944,0,0,1,.943.943v.813a1.3,1.3,0,1,0,2.6,0v-.72a3.414,3.414,0,1,0-6.828,0v.045A3.418,3.418,0,0,0,183.392,99.93Z" transform="translate(-171.893 -88.877)" fill="#0054a5"/>
          <path id="Path_1419" data-name="Path 1419" d="M180.428,266.9h5.929a.449.449,0,1,0,0-.9h-5.929a.449.449,0,1,0,0,.9Z" transform="translate(-171.894 -254.051)" fill="#0054a5"/>
        </g>
      </g>
    </g>
    <g id="Group_851" data-name="Group 851">
      <g id="Group_853" data-name="Group 853">
        <path id="Rectangle_177" data-name="Rectangle 177" d="M1.724,0H311.733a25,25,0,0,1,25,25v0a25,25,0,0,1-25,25H25A25,25,0,0,1,0,25V1.724A1.724,1.724,0,0,1,1.724,0Z" transform="translate(278 987)" fill="#fff" opacity="0.79"/>
        <text style="text-align: center;font-weight:400; font-family:Roboto Condensed" id="info_thanexint.com" data-name="info@thanexint.com" transform="translate(327 1022)" fill="#1664ff" font-size="25" font-family="RobotoCondensed-Regular, Roboto" letter-spacing="0.04em"><tspan x="0" y="0">info@thanexint.com</tspan></text>
      </g>
    </g>
  </g>
</svg>
