<svg xmlns="http://www.w3.org/2000/svg" xmlns:xlink="http://www.w3.org/1999/xlink"  viewBox="0 0 281 249">
  <defs>
    <filter id="Rectangle_364" x="0" y="0" width="281" height="249" filterUnits="userSpaceOnUse">
      <feOffset dy="3" input="SourceAlpha"/>
      <feGaussianBlur stdDeviation="3" result="blur"/>
      <feFlood flood-color="#95b2bb"/>
      <feComposite operator="in" in2="blur"/>
      <feComposite in="SourceGraphic"/>
    </filter>
  </defs>
  <g id="Group_1098" data-name="Group 1098" transform="translate(-3396 -5101)">
    <g transform="matrix(1, 0, 0, 1, 3396, 5101)" filter="url(#Rectangle_364)">
      <path id="Rectangle_364-2" data-name="Rectangle 364" d="M2,0H227a36,36,0,0,1,36,36V195a36,36,0,0,1-36,36H36A36,36,0,0,1,0,195V2A2,2,0,0,1,2,0Z" transform="translate(9 6)" fill="#fff"/>
    </g>
    <g id="Layer_1" transform="translate(3484 5140)" style="mix-blend-mode: multiply;isolation: isolate">
      <g id="Group_544" data-name="Group 544" transform="translate(0 0)">
        <path id="Path_3596" data-name="Path 3596" d="M22.108,59.887c-1.872-.535-3.655-.981-5.26-1.6A20.1,20.1,0,0,1,8.29,27.347c4.992-6.6,11.857-9.271,19.88-7.667,8.291,1.6,13.551,6.775,15.868,14.888.178.8.357,1.248,1.337,1.159.713,0,.981-.267,1.159-.981L50.547,18.7c.624.267,1.248.535,1.783.8,4.547,2.05,9,4.1,13.551,6.151a4.073,4.073,0,0,1,1.426.981,2.278,2.278,0,0,1,.178,2.674,2.119,2.119,0,0,1-2.5.891,18.088,18.088,0,0,1-2.318-.981c-2.942-1.337-5.884-2.674-8.915-4.1-.891,3.477-1.783,6.954-2.674,10.52H61.69C59.64,56.41,57.589,77,55.539,97.686H26.031C24.6,85.116,23.356,72.457,22.108,59.887ZM40.295,40.363c-.267-11.678-9.539-16.938-16.671-16.492A15.689,15.689,0,0,0,8.825,38.58a15.419,15.419,0,0,0,3.388,10.7c3.566,4.457,8.38,6.24,14.085,5.973.267,2.05.446,4.1.624,6.062H54.469c.713-6.954,1.426-13.907,2.05-20.95ZM30.043,93.139H51.26c.981-10.074,2.05-20.058,3.031-30.132H27.011C27.992,73.081,29.062,83.065,30.043,93.139Z" transform="translate(-4.103 -18.7)" fill="#8a8a8a"/>
        <path id="Path_3597" data-name="Path 3597" d="M66.3,104.926c.713-6.775,1.337-13.551,2.05-20.326h47.873c0,2.318.178,4.636,0,6.954-.446,5.616-3.209,9.806-8.469,12.124a14.311,14.311,0,0,1-5.705,1.248c-11.678.089-23.268.089-34.946.089C66.835,105.015,66.657,104.926,66.3,104.926Zm45.287-15.779H72.54c-.357,3.744-.713,7.4-1.07,11.144a3.152,3.152,0,0,1,.535.089c9.985,0,19.88.089,29.865,0C108.021,100.29,112.122,95.476,111.587,89.147Z" transform="translate(-10.852 -25.851)" fill="#8a8a8a"/>
        <path id="Path_3598" data-name="Path 3598" d="M117.094,67.681H69.4c.891-8.2,1.783-16.4,2.674-24.694.267,0,.446-.089.713-.089,8.113,0,16.314-.089,24.427.089,8.023.089,15.779,5.795,18.632,13.283a22.51,22.51,0,0,1,1.248,9.093Zm-4.279-4.547a39.392,39.392,0,0,0-1.248-4.9,16.381,16.381,0,0,0-15.6-10.7H76.978c-.267,0-.535.089-.8.089-.535,5.171-1.159,10.341-1.694,15.512Z" transform="translate(-11.189 -21.323)" fill="#8a8a8a"/>
        <path id="Path_3599" data-name="Path 3599" d="M69.2,80.34c.178-2.14.357-4.1.535-6.24h40.919a3.394,3.394,0,0,1,3.031,1.248,2.915,2.915,0,0,1,.446,3.031,3,3,0,0,1-2.5,1.961H69.2Z" transform="translate(-11.167 -24.712)" fill="#8a8a8a"/>
        <path id="Path_3600" data-name="Path 3600" d="M40.856,40.989H57.081c-.713,7.043-1.426,13.907-2.05,20.95H27.484c-.178-1.961-.446-3.923-.624-6.062-5.795.267-10.52-1.426-14.175-5.973A15.419,15.419,0,0,1,9.3,39.206,15.844,15.844,0,0,1,24.185,24.5C31.317,24.051,40.589,29.311,40.856,40.989ZM25.79,39.117C29.178,36.264,32.3,33.679,35.507,31a13.528,13.528,0,0,0-8.647-4.368C26.5,30.737,26.147,34.749,25.79,39.117Zm0-12.57A13.765,13.765,0,0,0,16.7,29.489c2.674,3.12,5.26,6.24,8.023,9.539C25.077,34.749,25.434,30.648,25.79,26.547ZM38.984,41.078A13.935,13.935,0,0,0,36.131,31.9c-3.209,2.674-6.24,5.26-9.628,8.113C30.872,40.365,34.883,40.722,38.984,41.078Zm-12.57,0c2.764,3.3,5.349,6.419,7.934,9.45a12.259,12.259,0,0,0,4.457-8.38C34.794,41.792,30.782,41.524,26.414,41.078ZM24.453,54.094a13.777,13.777,0,0,0,9.093-2.764c-2.674-3.209-5.26-6.33-8.023-9.539C25.166,45.982,24.81,49.993,24.453,54.094Zm-.624-14.353c-2.764-3.3-5.438-6.419-8.023-9.539a13,13,0,0,0-4.279,8.469C15.627,39.028,19.639,39.385,23.829,39.741ZM23.74,40.9c-4.279-.357-8.291-.713-12.3-1.159a13.7,13.7,0,0,0,2.853,9.093C17.41,46.16,20.441,43.664,23.74,40.9ZM23.383,54c.357-4.1.713-8.113,1.07-12.3-3.209,2.674-6.33,5.26-9.45,7.934A13.087,13.087,0,0,0,23.383,54Z" transform="translate(-4.665 -19.326)" fill="#a8ddfd"/>
        <path id="Path_3601" data-name="Path 3601" d="M32.831,98.532C31.85,88.458,30.87,78.474,29.8,68.4H57.079c-.981,10.074-2.05,20.058-3.031,30.132Z" transform="translate(-6.891 -24.093)" fill="#1664ff"/>
        <path id="Path_3602" data-name="Path 3602" d="M112.217,89.689c.535,6.24-3.566,11.144-9.717,11.144-9.985.089-19.88,0-29.865,0a1.569,1.569,0,0,1-.535-.089c.357-3.744.713-7.4,1.07-11.144C86.185,89.689,99.2,89.689,112.217,89.689Z" transform="translate(-11.482 -26.394)" fill="#679cfc"/>
        <path id="Path_3603" data-name="Path 3603" d="M113.434,63.7H75.1c.535-5.171,1.159-10.341,1.694-15.512.267,0,.535-.089.8-.089H96.585a16.141,16.141,0,0,1,15.6,10.7C112.721,60.313,112.988,61.918,113.434,63.7ZM99.348,51.4c-.178.089-.535.267-.624.535-.357.713.089.981.713,1.248,3.655,1.516,6.686,3.744,8.113,7.667.178.624.446,1.159,1.248.891.713-.267.535-.891.357-1.426-1.6-4.457-5.081-6.954-9.271-8.647C99.794,51.488,99.616,51.488,99.348,51.4Z" transform="translate(-11.807 -21.89)" fill="#1664ff"/>
        <path id="Path_3604" data-name="Path 3604" d="M27.8,39.381c.357-4.368.713-8.38,1.07-12.481a13.107,13.107,0,0,1,8.558,4.368C34.308,33.943,31.188,36.528,27.8,39.381Z" transform="translate(-6.674 -19.59)" fill="#1664ff"/>
        <path id="Path_3605" data-name="Path 3605" d="M26.693,26.8c-.357,4.19-.713,8.2-1.07,12.57-2.764-3.3-5.349-6.419-8.023-9.539A12.546,12.546,0,0,1,26.693,26.8Z" transform="translate(-5.568 -19.576)" fill="#679cfc"/>
        <path id="Path_3606" data-name="Path 3606" d="M41.081,41.982c-4.1-.357-8.113-.713-12.481-1.07,3.3-2.853,6.419-5.438,9.628-8.113A13.03,13.03,0,0,1,41.081,41.982Z" transform="translate(-6.761 -20.23)" fill="#679cfc"/>
        <path id="Path_3607" data-name="Path 3607" d="M28.5,43.1c4.368.357,8.38.713,12.392,1.07a12.259,12.259,0,0,1-4.457,8.38C33.849,49.519,31.264,46.488,28.5,43.1Z" transform="translate(-6.75 -21.348)" fill="#1664ff"/>
        <path id="Path_3608" data-name="Path 3608" d="M26.3,56.2c.357-4.1.713-8.113,1.07-12.3,2.764,3.209,5.349,6.33,8.023,9.539A13.169,13.169,0,0,1,26.3,56.2Z" transform="translate(-6.512 -21.435)" fill="#679cfc"/>
        <path id="Path_3609" data-name="Path 3609" d="M24.1,40.428c-4.279-.357-8.2-.713-12.3-1.159A13.2,13.2,0,0,1,16.079,30.8C18.754,34.009,21.339,37.13,24.1,40.428Z" transform="translate(-4.938 -20.013)" fill="#1664ff"/>
        <path id="Path_3610" data-name="Path 3610" d="M24,42.759c-3.3,2.764-6.33,5.349-9.45,7.934A13.235,13.235,0,0,1,11.7,41.6C15.8,41.957,19.81,42.313,24,42.759Z" transform="translate(-4.925 -21.185)" fill="#679cfc"/>
        <path id="Path_3611" data-name="Path 3611" d="M24.08,56.1a13.967,13.967,0,0,1-8.38-4.368c3.12-2.585,6.24-5.171,9.45-7.934C24.793,48.079,24.437,52.091,24.08,56.1Z" transform="translate(-5.361 -21.424)" fill="#1664ff"/>
        <path id="Path_3612" data-name="Path 3612" d="M102.2,51.8a1.193,1.193,0,0,0,.446.089c4.19,1.694,7.667,4.19,9.271,8.647.178.624.357,1.159-.357,1.426s-.981-.267-1.248-.891c-1.426-3.923-4.457-6.062-8.112-7.667-.624-.267-1.07-.535-.713-1.248C101.752,52.067,102.109,51.978,102.2,51.8Z" transform="translate(-14.657 -22.292)" fill="#8a8a8a"/>
      </g>
    </g>
    <path id="Path_4783" data-name="Path 4783" d="M-62-1.963h.044l2.556-8.7h1.9V0h-1.479V-7.683l-.044-.007L-61.461,0h-1.018l-2.483-7.808-.044.007V0h-1.479V-10.664h1.941ZM-49.9-2.7h-3.186L-53.856,0H-55.4l3.2-10.664h1.443L-47.586,0h-1.545ZM-52.75-3.875h2.52l-1.23-4.336H-51.5ZM-38.457,0h-1.494l-4.131-7.866-.044.015V0h-1.487V-10.664h1.487L-40-2.82l.044-.007v-7.837h1.494Zm9.766-10.664v7.053a3.742,3.742,0,0,1-1,2.769,3.5,3.5,0,0,1-2.585,1,3.393,3.393,0,0,1-2.538-1,3.785,3.785,0,0,1-.978-2.765v-7.053H-34.3v7.053a3.02,3.02,0,0,0,.56,1.937,1.791,1.791,0,0,0,1.469.7,1.866,1.866,0,0,0,1.512-.7,2.963,2.963,0,0,0,.575-1.941v-7.053Zm7.869,5.925H-24.55V0h-1.487V-10.664h5.859v1.143H-24.55v3.647h3.728ZM-13.766-2.7h-3.186L-17.721,0h-1.545l3.2-10.664h1.443L-11.451,0H-13Zm-2.849-1.179h2.52l-1.23-4.336h-.044Zm13.729.667.015.044A3.144,3.144,0,0,1-3.751-.718a3.458,3.458,0,0,1-2.5.872A3.393,3.393,0,0,1-8.863-.9a4.174,4.174,0,0,1-.974-2.948V-6.8a4.245,4.245,0,0,1,.959-2.952A3.3,3.3,0,0,1-6.3-10.818a3.614,3.614,0,0,1,2.549.846A3.118,3.118,0,0,1-2.865-7.5l-.015.044H-4.307a2.414,2.414,0,0,0-.5-1.681A1.938,1.938,0,0,0-6.3-9.675a1.763,1.763,0,0,0-1.516.736A3.558,3.558,0,0,0-8.35-6.826v2.981A3.532,3.532,0,0,0-7.8-1.714a1.82,1.82,0,0,0,1.553.74A1.864,1.864,0,0,0-4.8-1.505a2.485,2.485,0,0,0,.483-1.7ZM5.656-9.521H2.829V0H1.335V-9.521H-1.47v-1.143H5.656Zm9-1.143v7.053a3.742,3.742,0,0,1-1,2.769,3.5,3.5,0,0,1-2.585,1,3.393,3.393,0,0,1-2.538-1,3.785,3.785,0,0,1-.978-2.765v-7.053H9.051v7.053a3.02,3.02,0,0,0,.56,1.937,1.791,1.791,0,0,0,1.469.7,1.866,1.866,0,0,0,1.512-.7,2.963,2.963,0,0,0,.575-1.941v-7.053Zm4.134,6.072V0H17.308V-10.657H20.45a3.35,3.35,0,0,1,2.377.784,2.927,2.927,0,0,1,.839,2.249,2.7,2.7,0,0,1-.392,1.461,2.583,2.583,0,0,1-1.124.97,2.041,2.041,0,0,1,1.183.923,3.218,3.218,0,0,1,.363,1.6v.93a4.182,4.182,0,0,0,.1.916,1.283,1.283,0,0,0,.337.659V0H22.6a1.268,1.268,0,0,1-.326-.736,6.64,6.64,0,0,1-.077-1.022v-.9a2.209,2.209,0,0,0-.414-1.414,1.384,1.384,0,0,0-1.146-.52Zm0-1.135h1.582a1.746,1.746,0,0,0,1.362-.487A1.99,1.99,0,0,0,22.178-7.6a2.133,2.133,0,0,0-.428-1.421,1.61,1.61,0,0,0-1.3-.505H18.795Zm12.71.776H27.887v3.823H32.15V0H26.4V-10.664h5.713v1.143H27.887v3.435h3.618Zm4.368.359V0H34.386V-10.657h3.142a3.35,3.35,0,0,1,2.377.784,2.927,2.927,0,0,1,.839,2.249,2.7,2.7,0,0,1-.392,1.461,2.583,2.583,0,0,1-1.124.97,2.041,2.041,0,0,1,1.183.923,3.218,3.218,0,0,1,.363,1.6v.93a4.182,4.182,0,0,0,.1.916,1.283,1.283,0,0,0,.337.659V0H39.675a1.268,1.268,0,0,1-.326-.736,6.64,6.64,0,0,1-.077-1.022v-.9a2.209,2.209,0,0,0-.414-1.414,1.384,1.384,0,0,0-1.146-.52Zm0-1.135h1.582a1.746,1.746,0,0,0,1.362-.487A1.99,1.99,0,0,0,39.257-7.6a2.133,2.133,0,0,0-.428-1.421,1.61,1.61,0,0,0-1.3-.505H35.873ZM58.748-3.86A4.07,4.07,0,0,1,57.723-.9,3.648,3.648,0,0,1,54.976.154,3.548,3.548,0,0,1,52.274-.9a4.124,4.124,0,0,1-1-2.955V-6.79a4.154,4.154,0,0,1,1-2.959,3.52,3.52,0,0,1,2.7-1.069,3.647,3.647,0,0,1,2.75,1.066A4.088,4.088,0,0,1,58.748-6.79ZM57.269-6.812a3.244,3.244,0,0,0-.6-2.113,2.085,2.085,0,0,0-1.7-.721,1.98,1.98,0,0,0-1.644.721,3.333,3.333,0,0,0-.575,2.113V-3.86a3.361,3.361,0,0,0,.579,2.131A1.986,1.986,0,0,0,54.976-1a2.075,2.075,0,0,0,1.7-.721,3.3,3.3,0,0,0,.593-2.135Zm9.188,2.073H62.728V0H61.241V-10.664H67.1v1.143H62.728v3.647h3.728Zm-130.559,17h-3.728V17h-1.487V6.336h5.859V7.479h-4.373v3.647H-64.1Zm9.949.879A4.07,4.07,0,0,1-55.179,16.1a3.648,3.648,0,0,1-2.747,1.058,3.548,3.548,0,0,1-2.7-1.058,4.124,4.124,0,0,1-1-2.955V10.21a4.154,4.154,0,0,1,1-2.959,3.52,3.52,0,0,1,2.7-1.069,3.647,3.647,0,0,1,2.75,1.066,4.088,4.088,0,0,1,1.029,2.963Zm-1.479-2.952a3.244,3.244,0,0,0-.6-2.113,2.085,2.085,0,0,0-1.7-.721,1.98,1.98,0,0,0-1.644.721,3.333,3.333,0,0,0-.575,2.113V13.14a3.361,3.361,0,0,0,.579,2.131A1.986,1.986,0,0,0-57.926,16a2.075,2.075,0,0,0,1.7-.721,3.3,3.3,0,0,0,.593-2.135Zm11.15,2.952A4.07,4.07,0,0,1-45.508,16.1a3.648,3.648,0,0,1-2.747,1.058,3.548,3.548,0,0,1-2.7-1.058,4.124,4.124,0,0,1-1-2.955V10.21a4.154,4.154,0,0,1,1-2.959,3.52,3.52,0,0,1,2.7-1.069,3.647,3.647,0,0,1,2.75,1.066,4.088,4.088,0,0,1,1.029,2.963Zm-1.479-2.952a3.244,3.244,0,0,0-.6-2.113,2.085,2.085,0,0,0-1.7-.721,1.98,1.98,0,0,0-1.644.721,3.333,3.333,0,0,0-.575,2.113V13.14a3.361,3.361,0,0,0,.579,2.131A1.986,1.986,0,0,0-48.255,16a2.075,2.075,0,0,0,1.7-.721,3.3,3.3,0,0,0,.593-2.135ZM-41.99,17V6.336h3.025a3.543,3.543,0,0,1,2.823,1.282,4.9,4.9,0,0,1,1.095,3.3V12.43a4.879,4.879,0,0,1-1.095,3.3A3.551,3.551,0,0,1-38.965,17ZM-40.5,7.479v8.394h1.538a2.034,2.034,0,0,0,1.758-.963,4.3,4.3,0,0,0,.659-2.479V10.9a4.259,4.259,0,0,0-.659-2.457,2.034,2.034,0,0,0-1.758-.963Zm12.85,6.841a1.752,1.752,0,0,0-.417-1.2,3.657,3.657,0,0,0-1.472-.861,6.043,6.043,0,0,1-2.307-1.208,2.546,2.546,0,0,1-.806-1.97A2.7,2.7,0,0,1-31.766,7a3.243,3.243,0,0,1,2.281-.817,3.179,3.179,0,0,1,2.373.908,3.018,3.018,0,0,1,.864,2.278l-.015.044H-27.69a2.242,2.242,0,0,0-.5-1.516A1.646,1.646,0,0,0-29.5,7.317a1.544,1.544,0,0,0-1.227.5,1.823,1.823,0,0,0-.436,1.245,1.545,1.545,0,0,0,.461,1.15,4.449,4.449,0,0,0,1.553.857,5.463,5.463,0,0,1,2.219,1.245,2.71,2.71,0,0,1,.762,1.992,2.6,2.6,0,0,1-.9,2.076,3.481,3.481,0,0,1-2.355.773,3.79,3.79,0,0,1-2.446-.835,2.8,2.8,0,0,1-1-2.4l.015-.044h1.436a2.107,2.107,0,0,0,.575,1.619,2.012,2.012,0,0,0,1.425.535,1.76,1.76,0,0,0,1.3-.465A1.68,1.68,0,0,0-27.653,14.319Zm7.418-.125a2.719,2.719,0,0,1,.461-1.575A6.55,6.55,0,0,1-18.4,11.229a7.02,7.02,0,0,1-.74-1.289,3.034,3.034,0,0,1-.242-1.179,2.607,2.607,0,0,1,.659-1.908,2.412,2.412,0,0,1,1.8-.67,2.224,2.224,0,0,1,1.67.656,2.21,2.21,0,0,1,.637,1.6,2.39,2.39,0,0,1-.3,1.234,3.867,3.867,0,0,1-.89,1l-.813.659,2.168,2.856.044-.007a3.9,3.9,0,0,0,.366-.967,4.884,4.884,0,0,0,.132-1.157h1.26a6.1,6.1,0,0,1-.245,1.776,4.39,4.39,0,0,1-.736,1.439L-12.318,17h-1.75l-.579-.769a4.119,4.119,0,0,1-1.168.688,3.681,3.681,0,0,1-1.315.234,3.113,3.113,0,0,1-2.263-.817A2.849,2.849,0,0,1-20.235,14.195Zm3.149,1.831a2.585,2.585,0,0,0,.923-.172,2.881,2.881,0,0,0,.85-.509L-17.679,12.2l-.154.125a3.088,3.088,0,0,0-.71.985,2.308,2.308,0,0,0-.183.853,2.049,2.049,0,0,0,.432,1.337A1.471,1.471,0,0,0-17.086,16.026Zm-.894-7.28a2.031,2.031,0,0,0,.165.769,4.523,4.523,0,0,0,.494.872l.754-.586a1.593,1.593,0,0,0,.509-.615,1.815,1.815,0,0,0,.135-.71,1.256,1.256,0,0,0-.271-.813.906.906,0,0,0-.747-.337.871.871,0,0,0-.765.41A1.776,1.776,0,0,0-17.979,8.746ZM-6.2,17V6.336h2.952a3.626,3.626,0,0,1,2.391.718A2.644,2.644,0,0,1,0,9.207a2.39,2.39,0,0,1-.374,1.326,2.182,2.182,0,0,1-1.04.85,2.069,2.069,0,0,1,1.432.883,2.954,2.954,0,0,1,.5,1.718,2.887,2.887,0,0,1-.846,2.245A3.33,3.33,0,0,1-2.659,17Zm1.487-4.973v3.845h2.058a1.591,1.591,0,0,0,1.245-.487,2.013,2.013,0,0,0,.439-1.4A2.163,2.163,0,0,0-1.4,12.583a1.545,1.545,0,0,0-1.2-.557H-4.717Zm0-1.069h1.692A1.516,1.516,0,0,0-1.9,10.492a1.791,1.791,0,0,0,.406-1.256,1.773,1.773,0,0,0-.447-1.318,1.8,1.8,0,0,0-1.311-.439H-4.717ZM7.928,12.049H4.31v3.823H8.572V17H2.823V6.336H8.536V7.479H4.31v3.435H7.928Zm5.818,2.5.154.652h.044l.154-.645,2.219-8.225h1.589L14.647,17H13.2L9.945,6.336h1.582Zm11.18-2.5H21.308v3.823H25.57V17h-5.75V6.336h5.713V7.479H21.308v3.435h3.618Zm4.368.359V17H27.807V6.343h3.142a3.35,3.35,0,0,1,2.377.784,2.927,2.927,0,0,1,.839,2.249,2.7,2.7,0,0,1-.392,1.461,2.583,2.583,0,0,1-1.124.97,2.041,2.041,0,0,1,1.183.923,3.218,3.218,0,0,1,.363,1.6v.93a4.182,4.182,0,0,0,.1.916,1.283,1.283,0,0,0,.337.659V17H33.1a1.268,1.268,0,0,1-.326-.736,6.64,6.64,0,0,1-.077-1.022v-.9a2.209,2.209,0,0,0-.414-1.414,1.384,1.384,0,0,0-1.146-.52Zm0-1.135h1.582a1.746,1.746,0,0,0,1.362-.487A1.99,1.99,0,0,0,32.678,9.4a2.133,2.133,0,0,0-.428-1.421,1.61,1.61,0,0,0-1.3-.505H29.294ZM41.616,14.3H38.43L37.661,17H36.116l3.2-10.664h1.443L43.931,17H42.385Zm-2.849-1.179h2.52L40.056,8.79h-.044Zm13.86,2.483a3.292,3.292,0,0,1-1.212,1.077,4.331,4.331,0,0,1-2.142.469,3.646,3.646,0,0,1-2.692-1.018,3.915,3.915,0,0,1-1.022-2.9V10.071A3.95,3.95,0,0,1,46.548,7.2a4.02,4.02,0,0,1,5.127-.183,2.915,2.915,0,0,1,.85,2.285l-.015.044h-1.4a2.124,2.124,0,0,0-.487-1.49,1.827,1.827,0,0,0-1.417-.531,1.933,1.933,0,0,0-1.578.7,3.131,3.131,0,0,0-.575,2.032v3.179a3.162,3.162,0,0,0,.6,2.076,2,2,0,0,0,1.622.714,2.623,2.623,0,0,0,1.2-.234,1.608,1.608,0,0,0,.656-.571V12.737H49.17V11.653h3.457Zm7.825-3.56H56.834v3.823H61.1V17h-5.75V6.336h5.713V7.479H56.834v3.435h3.618ZM68.2,14.319a1.752,1.752,0,0,0-.417-1.2,3.657,3.657,0,0,0-1.472-.861,6.043,6.043,0,0,1-2.307-1.208,2.546,2.546,0,0,1-.806-1.97A2.7,2.7,0,0,1,64.092,7a3.243,3.243,0,0,1,2.281-.817,3.179,3.179,0,0,1,2.373.908,3.018,3.018,0,0,1,.864,2.278l-.015.044H68.168a2.242,2.242,0,0,0-.5-1.516,1.646,1.646,0,0,0-1.311-.579,1.544,1.544,0,0,0-1.227.5A1.823,1.823,0,0,0,64.7,9.061a1.545,1.545,0,0,0,.461,1.15,4.449,4.449,0,0,0,1.553.857,5.463,5.463,0,0,1,2.219,1.245,2.71,2.71,0,0,1,.762,1.992,2.6,2.6,0,0,1-.9,2.076,3.481,3.481,0,0,1-2.355.773,3.79,3.79,0,0,1-2.446-.835,2.8,2.8,0,0,1-1-2.4L63,13.88H64.44a2.107,2.107,0,0,0,.575,1.619,2.012,2.012,0,0,0,1.425.535,1.76,1.76,0,0,0,1.3-.465A1.68,1.68,0,0,0,68.2,14.319Z" transform="translate(3537 5288)" fill="#0054a5"/>
  </g>
</svg>
