<svg xmlns="http://www.w3.org/2000/svg" xmlns:xlink="http://www.w3.org/1999/xlink"  viewBox="0 0 281 249">
  <defs>
    <filter id="Rectangle_341" x="0" y="0" width="281" height="249" filterUnits="userSpaceOnUse">
      <feOffset dy="3" input="SourceAlpha"/>
      <feGaussianBlur stdDeviation="3" result="blur"/>
      <feFlood flood-color="#95b2bb"/>
      <feComposite operator="in" in2="blur"/>
      <feComposite in="SourceGraphic"/>
    </filter>
  </defs>
  <g id="Group_1096" data-name="Group 1096" transform="translate(-3765 -4719)">
    <g transform="matrix(1, 0, 0, 1, 3765, 4719)" filter="url(#Rectangle_341)">
      <path id="Rectangle_341-2" data-name="Rectangle 341" d="M2,0H227a36,36,0,0,1,36,36V195a36,36,0,0,1-36,36H36A36,36,0,0,1,0,195V2A2,2,0,0,1,2,0Z" transform="translate(9 6)" fill="#fff"/>
    </g>
    <g id="Layer_1" transform="translate(3858 4755)" style="mix-blend-mode: multiply;isolation: isolate">
      <g id="Group_542" data-name="Group 542" transform="translate(0 0)">
        <path id="Path_3555" data-name="Path 3555" d="M78.912,58.7a18.458,18.458,0,0,1,.453,2.565,26.709,26.709,0,0,1-.151,3.47.749.749,0,0,1-.905.83c-.6-.151-.679-.6-.528-1.132a8.365,8.365,0,0,0-.3-4.9,2.306,2.306,0,0,0-.905-.754c-.226-.151-.6-.226-.754-.453a9.754,9.754,0,0,0-12.448-3.847h-.226c-.075-.075-.151-.151-.151-.226,0-3.244-.075-6.563.075-9.807.075-1.66,1.132-2.49,2.791-2.565h5.432V35.239c0-1.056.3-1.433,1.358-1.433.754,0,.981-.3.981-.981-.075-1.056,0-2.112,0-3.244,0-.453-.075-.754-.679-.905a1.2,1.2,0,0,1-.679-.905,1.264,1.264,0,0,1,.754-.905,2.1,2.1,0,0,1,2.64,2.037v4.074c0,.6.151.83.754.83,1.282,0,1.509.3,1.509,1.584V41.8H81.7c.3-1.509.6-3.093.905-4.677.453-2.49.905-4.979,1.433-7.469a2.634,2.634,0,0,1,3.018-2.414h13.957c1.961,0,2.791.679,3.169,2.565.754,3.772,1.509,7.544,2.188,11.316.151.679.377.981,1.132.905a1.4,1.4,0,0,1,1.66,1.056l2.716,8.827v.3c-4.149-5.13-9.279-7.318-15.692-5.205-5.507,1.886-8.374,6.035-9.128,11.844C84.419,58.7,81.7,58.7,78.912,58.7ZM92.944,37.653V33.278c0-.6-.226-.754-.754-.754-1.132,0-2.263.075-3.395,0-.905-.075-1.207.3-1.282,1.132-.377,2.64-.905,5.356-1.207,8a25.643,25.643,0,0,0-.151,4.828,1.622,1.622,0,0,0,.754,1.132c.151.151.754-.151.981-.377,1.584-1.358,3.093-2.791,4.6-4.225a2.237,2.237,0,0,0,.528-1.132C93.019,40.52,92.944,39.087,92.944,37.653ZM102,42.029c-.528-3.018-.981-5.884-1.433-8.751-.075-.6-.377-.754-.981-.754-1.358,0-2.791.075-4.149,0-.679,0-.981.151-.981.981.075,2.716.075,5.432.151,8.148,0,.151.075.226.075.377Zm-33.42,5.507h0a5.592,5.592,0,0,0,.075,1.584,1.134,1.134,0,0,0,.754.679c.226,0,.679-.377.679-.6a22.206,22.206,0,0,0,0-3.169c0-.226-.528-.6-.754-.6s-.6.453-.679.754A3.883,3.883,0,0,0,68.576,47.536Zm2.942.075a10.059,10.059,0,0,0,0,1.509,1.2,1.2,0,0,0,.679.679,1.289,1.289,0,0,0,.679-.6,22.206,22.206,0,0,0,0-3.169c0-.226-.453-.6-.754-.6-.151,0-.528.377-.6.6A11.1,11.1,0,0,0,71.519,47.612Zm4.376-.075a11.143,11.143,0,0,0-.075-1.584c-.075-.226-.453-.6-.679-.6s-.679.377-.679.528a22.206,22.206,0,0,0,0,3.169c0,.226.453.679.6.6a1.244,1.244,0,0,0,.754-.6A4.814,4.814,0,0,0,75.894,47.536Z" transform="translate(-17.92 -26.759)" fill="#8a8a8a"/>
        <path id="Path_3556" data-name="Path 3556" d="M16.717,58.191V72.147c0,1.207,0,1.207,1.282,1.207h8.3c-.3,1.207-.6,2.263-.905,3.319-.754,2.791-.754,2.791-3.546,2.791H5.929c-.83,0-1.132-.226-1.132-1.132a36.692,36.692,0,0,0,0-4.074c0-.754.226-.981.981-.981,2.791.075,5.507,0,8.3,0,.528,0,.83-.075.83-.679V58.417a.074.074,0,0,0-.075-.075,18.235,18.235,0,0,1-3.47.981,7.01,7.01,0,0,1-8.072-7.695A6.857,6.857,0,0,1,7.06,45.969,2.847,2.847,0,0,0,8.645,43.4a7.194,7.194,0,0,1,14.032-2.112,6.929,6.929,0,0,1,.377,2.112,2.551,2.551,0,0,0,1.509,2.49,6.959,6.959,0,0,1,3.847,6.941,6.774,6.774,0,0,1-4.376,6.111,6.965,6.965,0,0,1-6.337-.3C17.4,58.492,17.169,58.417,16.717,58.191Zm1.358-14.258a1.553,1.553,0,0,0-1.433-1.509,1.434,1.434,0,1,0,1.433,1.509ZM20.263,52a1.274,1.274,0,0,0,1.207-1.358,1.211,1.211,0,0,0-1.207-1.282A1.272,1.272,0,0,0,18.98,50.8,1.367,1.367,0,0,0,20.263,52Z" transform="translate(-3.253 -29.115)" fill="#a8ddfd"/>
        <path id="Path_3557" data-name="Path 3557" d="M74.62,126.684H64.813V80.59c.3,0,.528-.075.754-.075-4.828-1.132-7.318-4.074-6.79-9.128.377-3.7,4.074-6.639,7.921-6.488a7.893,7.893,0,0,1,7.544,7.242c.226,4.225-2.565,7.619-7.016,8.449H70.32C71.678,95.9,73.111,111.219,74.62,126.684ZM69.339,72.669A2.943,2.943,0,1,0,66.4,75.535,2.882,2.882,0,0,0,69.339,72.669Z" transform="translate(-16.872 -36.125)" fill="#1664ff"/>
        <path id="Path_3558" data-name="Path 3558" d="M90.827,131.745H81.548c-.226,0-.6-.528-.6-.83-.3-2.565-.528-5.055-.754-7.619-.453-5.205-.981-10.411-1.433-15.616-.679-7.091-1.282-14.107-1.961-21.2-.075-.754.151-.981.905-.981,1.282.075,2.49,0,3.772,0,.6,0,.905.151.981.83,1.433,8,2.942,15.918,4.451,23.915,1.282,6.714,2.49,13.428,3.772,20.067A13.3,13.3,0,0,0,90.827,131.745Z" transform="translate(-21.311 -41.186)" fill="#a8ddfd"/>
        <path id="Path_3559" data-name="Path 3559" d="M44.983,131.694H35.1c2.867-15.39,5.733-30.7,8.676-46.094h5.583C47.849,100.99,46.416,116.3,44.983,131.694Z" transform="translate(-11.074 -41.21)" fill="#1664ff"/>
        <path id="Path_3560" data-name="Path 3560" d="M19.3,131.67q.566-2.15,1.132-4.074L30.616,91.611c.528-1.735.981-3.47,1.509-5.281a.949.949,0,0,1,1.056-.83c1.509.075,3.093,0,4.753,0-.3,1.509-.528,2.867-.754,4.3-1.509,7.921-2.942,15.843-4.451,23.764-1.056,5.733-2.188,11.392-3.244,17.125-.151.754-.377,1.056-1.207,1.056-2.64-.075-5.205,0-7.846,0C20.054,131.745,19.753,131.67,19.3,131.67Z" transform="translate(-7.194 -41.186)" fill="#a8ddfd"/>
        <path id="Path_3561" data-name="Path 3561" d="M55.2,85.6h5.507v46.094H50.9Q52.937,108.723,55.2,85.6Z" transform="translate(-14.955 -41.21)" fill="#a8ddfd"/>
        <path id="Path_3562" data-name="Path 3562" d="M86.8,85.5h5.055c.151,0,.453.377.528.6,1.509,5.281,3.018,10.562,4.451,15.843,2.188,7.695,4.3,15.39,6.488,23.009.6,2.188,1.207,4.3,1.886,6.563-.3,0-.453.075-.679.075H96.155c-.528,0-.83-.075-.981-.754-1.961-10.637-4-21.274-5.96-31.836-.83-4.3-1.584-8.676-2.339-12.976A3.156,3.156,0,0,0,86.8,85.5Z" transform="translate(-23.771 -41.186)" fill="#1664ff"/>
        <path id="Path_3563" data-name="Path 3563" d="M110.681,77.934h7.544v6.035H98.46c-.528-1.961-1.132-3.923-1.66-5.96h10.184C99.365,76.2,96.8,69.937,97.4,65.184A11.45,11.45,0,0,1,108.946,55c6.111.075,10.788,4.526,11.316,10.863A11.77,11.77,0,0,1,110.681,77.934ZM100.27,66.391a8.525,8.525,0,1,0,8.449-8.449A8.532,8.532,0,0,0,100.27,66.391Z" transform="translate(-26.227 -33.695)" fill="#1664ff"/>
        <path id="Path_3564" data-name="Path 3564" d="M99.8,96.2h19.162v5.96h-17.5C100.932,100.2,100.328,98.237,99.8,96.2Z" transform="translate(-26.964 -43.814)" fill="#679cfc"/>
        <path id="Path_3565" data-name="Path 3565" d="M5.4,102.16V96.2H24.562c-.528,1.961-1.132,3.923-1.66,5.96Z" transform="translate(-3.78 -43.814)" fill="#679cfc"/>
        <path id="Path_3566" data-name="Path 3566" d="M119.674,106.875v6.035H105.265c-.679,0-.905-.151-1.132-.83-.453-1.735-.905-3.47-1.433-5.281C108.433,106.875,114.016,106.875,119.674,106.875Z" transform="translate(-27.676 -46.417)" fill="#1664ff"/>
        <path id="Path_3567" data-name="Path 3567" d="M22.274,106.9c-.528,1.961-1.056,3.847-1.66,5.733a.635.635,0,0,1-.528.3c-4.9,0-9.732,0-14.635-.075a.234.234,0,0,1-.151-.075V106.9Z" transform="translate(-3.756 -46.441)" fill="#a8ddfd"/>
        <path id="Path_3568" data-name="Path 3568" d="M107.46,123.56c-.528-2.037-1.056-3.923-1.66-5.96h14.635v5.96Z" transform="translate(-28.438 -49.069)" fill="#679cfc"/>
        <path id="Path_3569" data-name="Path 3569" d="M20.011,117.5c-.528,1.961-1.056,3.847-1.66,5.733a.635.635,0,0,1-.528.3c-4.149,0-8.223,0-12.372-.075a.234.234,0,0,1-.151-.075V117.5Z" transform="translate(-3.756 -49.045)" fill="#679cfc"/>
        <path id="Path_3570" data-name="Path 3570" d="M108.8,128.2h12.372v6.035h-9.958c-.3,0-.754-.151-.83-.377Q109.592,131.142,108.8,128.2Z" transform="translate(-29.175 -51.673)" fill="#1664ff"/>
        <path id="Path_3571" data-name="Path 3571" d="M17.772,128.2c-.528,1.961-1.056,3.772-1.584,5.658-.075.151-.3.377-.453.377H5.4V128.2Z" transform="translate(-3.78 -51.673)" fill="#a8ddfd"/>
        <path id="Path_3572" data-name="Path 3572" d="M111.8,138.9h10.109v5.96H113.46C112.932,142.974,112.4,141.012,111.8,138.9Z" transform="translate(-29.911 -54.3)" fill="#679cfc"/>
        <path id="Path_3573" data-name="Path 3573" d="M5.4,144.935V138.9H15.509c-.528,1.961-1.056,3.847-1.66,5.733a.635.635,0,0,1-.528.3Z" transform="translate(-3.78 -54.3)" fill="#679cfc"/>
        <path id="Path_3574" data-name="Path 3574" d="M100.465,39.527v4.225a1.758,1.758,0,0,1-.528,1.132c-1.509,1.433-3.018,2.867-4.6,4.225a1.471,1.471,0,0,1-.981.377,1.622,1.622,0,0,1-.754-1.132c0-1.584,0-3.244.151-4.828.3-2.64.83-5.356,1.207-8,.151-.83.377-1.207,1.282-1.132a25.49,25.49,0,0,0,3.395,0c.6,0,.754.226.754.754C100.465,36.66,100.465,38.094,100.465,39.527Z" transform="translate(-25.441 -28.633)" fill="#fff"/>
        <path id="Path_3575" data-name="Path 3575" d="M112.269,43.906h-7.242c0-.151-.075-.226-.075-.377-.075-2.716-.075-5.432-.151-8.148,0-.754.226-.981.981-.981,1.358.075,2.791,0,4.149,0a.852.852,0,0,1,.981.754C111.288,38.1,111.741,40.963,112.269,43.906Z" transform="translate(-28.192 -28.636)" fill="#fff"/>
        <path id="Path_3576" data-name="Path 3576" d="M70.389,53.588a9.091,9.091,0,0,1,0-1.433,1.134,1.134,0,0,1,.679-.754c.226,0,.754.377.754.6a22.208,22.208,0,0,1,0,3.169c0,.226-.453.6-.679.6a1.134,1.134,0,0,1-.754-.679,10.058,10.058,0,0,1,0-1.509Z" transform="translate(-19.733 -32.811)" fill="#fff"/>
        <path id="Path_3577" data-name="Path 3577" d="M74.289,53.685a11.1,11.1,0,0,1,0-1.584c.075-.226.453-.679.6-.6.3.075.754.377.754.6a22.213,22.213,0,0,1,0,3.169c0,.226-.453.6-.679.6a1.02,1.02,0,0,1-.679-.679A10.071,10.071,0,0,1,74.289,53.685Z" transform="translate(-20.691 -32.833)" fill="#fff"/>
        <path id="Path_3578" data-name="Path 3578" d="M79.615,53.609a10.625,10.625,0,0,1-.075,1.584.9.9,0,0,1-.754.6c-.151,0-.6-.377-.6-.6a22.21,22.21,0,0,1,0-3.169c0-.226.453-.6.679-.528a.9.9,0,0,1,.679.6A4.949,4.949,0,0,1,79.615,53.609Z" transform="translate(-21.641 -32.832)" fill="#fff"/>
        <path id="Path_3579" data-name="Path 3579" d="M21.967,45.909a1.435,1.435,0,0,1-1.509,1.358A1.471,1.471,0,0,1,19.1,45.833,1.541,1.541,0,0,1,20.533,44.4,1.613,1.613,0,0,1,21.967,45.909Z" transform="translate(-7.145 -31.092)" fill="#fff"/>
        <path id="Path_3580" data-name="Path 3580" d="M25.38,56.24A1.257,1.257,0,0,1,24.1,55.033,1.272,1.272,0,0,1,25.38,53.6a1.211,1.211,0,0,1,1.207,1.282A1.268,1.268,0,0,1,25.38,56.24Z" transform="translate(-8.371 -33.351)" fill="#fff"/>
        <path id="Path_3581" data-name="Path 3581" d="M70.884,74.267a2.942,2.942,0,1,1-5.884,0,2.943,2.943,0,0,1,5.884,0Z" transform="translate(-18.417 -37.723)" fill="#fff"/>
        <path id="Path_3582" data-name="Path 3582" d="M101.4,67.324a8.525,8.525,0,1,1,8.525,8.525A8.421,8.421,0,0,1,101.4,67.324Zm15.541.151a7.056,7.056,0,1,0-7.091,7.016A7.167,7.167,0,0,0,116.941,67.475Z" transform="translate(-27.357 -34.628)" fill="#fff"/>
        <path id="Path_3583" data-name="Path 3583" d="M117.432,67.967a7.018,7.018,0,1,1-6.941-7.167A7.1,7.1,0,0,1,117.432,67.967Zm-7.016,2.716a2.85,2.85,0,0,0,2.867-2.791,2.9,2.9,0,0,0-2.791-2.867,2.8,2.8,0,0,0-2.867,2.791A2.756,2.756,0,0,0,110.416,70.683Z" transform="translate(-27.848 -35.12)" fill="#679cfc"/>
        <path id="Path_3584" data-name="Path 3584" d="M111.79,72.058A2.756,2.756,0,0,1,109,69.191a2.85,2.85,0,0,1,2.867-2.791,2.9,2.9,0,0,1,2.791,2.867A2.85,2.85,0,0,1,111.79,72.058Z" transform="translate(-29.223 -36.495)" fill="#fff"/>
      </g>
    </g>
    <path id="Path_4780" data-name="Path 4780" d="M-39.811-2.7H-43L-43.766,0h-1.545l3.2-10.664h1.443L-37.5,0h-1.545ZM-42.66-3.875h2.52l-1.23-4.336h-.044ZM-28.8-1.392A3.292,3.292,0,0,1-30.012-.315a4.331,4.331,0,0,1-2.142.469A3.646,3.646,0,0,1-34.846-.864a3.915,3.915,0,0,1-1.022-2.9V-6.929A3.95,3.95,0,0,1-34.879-9.8a3.5,3.5,0,0,1,2.629-1.018,3.485,3.485,0,0,1,2.5.835A2.915,2.915,0,0,1-28.9-7.7l-.015.044h-1.4a2.124,2.124,0,0,0-.487-1.49,1.827,1.827,0,0,0-1.417-.531,1.933,1.933,0,0,0-1.578.7,3.131,3.131,0,0,0-.575,2.032v3.179a3.162,3.162,0,0,0,.6,2.076,2,2,0,0,0,1.622.714,2.623,2.623,0,0,0,1.2-.234,1.608,1.608,0,0,0,.656-.571V-4.263h-1.963V-5.347H-28.8Zm4.2-3.2V0h-1.487V-10.657h3.142a3.35,3.35,0,0,1,2.377.784,2.927,2.927,0,0,1,.839,2.249,2.7,2.7,0,0,1-.392,1.461,2.583,2.583,0,0,1-1.124.97,2.041,2.041,0,0,1,1.183.923,3.218,3.218,0,0,1,.363,1.6v.93a4.182,4.182,0,0,0,.1.916,1.283,1.283,0,0,0,.337.659V0H-20.8a1.268,1.268,0,0,1-.326-.736A6.64,6.64,0,0,1-21.2-1.758v-.9a2.209,2.209,0,0,0-.414-1.414,1.384,1.384,0,0,0-1.146-.52Zm0-1.135h1.582a1.746,1.746,0,0,0,1.362-.487A1.99,1.99,0,0,0-21.216-7.6a2.133,2.133,0,0,0-.428-1.421,1.61,1.61,0,0,0-1.3-.505H-24.6ZM-15.376,0h-1.487V-10.664h1.487Zm9.6-3.208.015.044A3.144,3.144,0,0,1-6.642-.718a3.458,3.458,0,0,1-2.5.872A3.393,3.393,0,0,1-11.755-.9a4.174,4.174,0,0,1-.974-2.948V-6.8a4.245,4.245,0,0,1,.959-2.952,3.3,3.3,0,0,1,2.578-1.062,3.614,3.614,0,0,1,2.549.846A3.118,3.118,0,0,1-5.756-7.5l-.015.044H-7.2a2.414,2.414,0,0,0-.5-1.681,1.938,1.938,0,0,0-1.494-.538,1.763,1.763,0,0,0-1.516.736,3.558,3.558,0,0,0-.535,2.113v2.981a3.532,3.532,0,0,0,.549,2.131,1.82,1.82,0,0,0,1.553.74,1.864,1.864,0,0,0,1.45-.531,2.485,2.485,0,0,0,.483-1.7Zm9.356-7.456v7.053a3.742,3.742,0,0,1-1,2.769A3.5,3.5,0,0,1,0,.154a3.393,3.393,0,0,1-2.538-1,3.785,3.785,0,0,1-.978-2.765v-7.053h1.487v7.053a3.02,3.02,0,0,0,.56,1.937A1.791,1.791,0,0,0,0-.974a1.866,1.866,0,0,0,1.512-.7,2.963,2.963,0,0,0,.575-1.941v-7.053ZM7.719-1.128h4.314V0h-5.8V-10.664H7.719ZM18.576-9.521H15.749V0H14.255V-9.521H11.45v-1.143h7.126Zm9-1.143v7.053a3.742,3.742,0,0,1-1,2.769A3.5,3.5,0,0,1,24,.154a3.393,3.393,0,0,1-2.538-1,3.785,3.785,0,0,1-.978-2.765v-7.053H21.97v7.053a3.02,3.02,0,0,0,.56,1.937A1.791,1.791,0,0,0,24-.974a1.866,1.866,0,0,0,1.512-.7,2.963,2.963,0,0,0,.575-1.941v-7.053Zm4.134,6.072V0H30.228V-10.657H33.37a3.35,3.35,0,0,1,2.377.784,2.927,2.927,0,0,1,.839,2.249,2.7,2.7,0,0,1-.392,1.461,2.583,2.583,0,0,1-1.124.97,2.041,2.041,0,0,1,1.183.923,3.218,3.218,0,0,1,.363,1.6v.93a4.182,4.182,0,0,0,.1.916,1.283,1.283,0,0,0,.337.659V0H35.516a1.268,1.268,0,0,1-.326-.736,6.64,6.64,0,0,1-.077-1.022v-.9A2.209,2.209,0,0,0,34.7-4.072a1.384,1.384,0,0,0-1.146-.52Zm0-1.135H33.3a1.746,1.746,0,0,0,1.362-.487A1.99,1.99,0,0,0,35.1-7.6a2.133,2.133,0,0,0-.428-1.421,1.61,1.61,0,0,0-1.3-.505H31.715Zm12.71.776H40.807v3.823H45.07V0H39.32V-10.664h5.713v1.143H40.807v3.435h3.618Z" transform="translate(3905 4894)" fill="#0054a5"/>
  </g>
</svg>
