<svg xmlns="http://www.w3.org/2000/svg" xmlns:xlink="http://www.w3.org/1999/xlink"  viewBox="0 0 281 249">
  <defs><style>
        @import url('https://fonts.googleapis.com/css2?family=Roboto+Condensed:wght@300;400&amp;display=swap');
        </style>
    <filter id="Rectangle_364" x="0" y="0" width="281" height="249" filterUnits="userSpaceOnUse">
      <feOffset dy="3" input="SourceAlpha"/>
      <feGaussianBlur stdDeviation="3" result="blur"/>
      <feFlood flood-color="#95b2bb"/>
      <feComposite operator="in" in2="blur"/>
      <feComposite in="SourceGraphic"/>
    </filter>
  </defs>
  <g id="Group_850" data-name="Group 850" transform="translate(-3396 -5101)">
    <g transform="matrix(1, 0, 0, 1, 3396, 5101)" filter="url(#Rectangle_364)">
      <path id="Rectangle_364-2" data-name="Rectangle 364" d="M2,0H227a36,36,0,0,1,36,36V195a36,36,0,0,1-36,36H36A36,36,0,0,1,0,195V2A2,2,0,0,1,2,0Z" transform="translate(9 6)" fill="#fff"/>
    </g>
    <g id="Layer_1" transform="translate(3484 5140)" style="mix-blend-mode: multiply;isolation: isolate">
      <g id="Group_544" data-name="Group 544" transform="translate(0 0)">
        <path id="Path_3596" data-name="Path 3596" d="M22.108,59.887c-1.872-.535-3.655-.981-5.26-1.6A20.1,20.1,0,0,1,8.29,27.347c4.992-6.6,11.857-9.271,19.88-7.667,8.291,1.6,13.551,6.775,15.868,14.888.178.8.357,1.248,1.337,1.159.713,0,.981-.267,1.159-.981L50.547,18.7c.624.267,1.248.535,1.783.8,4.547,2.05,9,4.1,13.551,6.151a4.073,4.073,0,0,1,1.426.981,2.278,2.278,0,0,1,.178,2.674,2.119,2.119,0,0,1-2.5.891,18.088,18.088,0,0,1-2.318-.981c-2.942-1.337-5.884-2.674-8.915-4.1-.891,3.477-1.783,6.954-2.674,10.52H61.69C59.64,56.41,57.589,77,55.539,97.686H26.031C24.6,85.116,23.356,72.457,22.108,59.887ZM40.295,40.363c-.267-11.678-9.539-16.938-16.671-16.492A15.689,15.689,0,0,0,8.825,38.58a15.419,15.419,0,0,0,3.388,10.7c3.566,4.457,8.38,6.24,14.085,5.973.267,2.05.446,4.1.624,6.062H54.469c.713-6.954,1.426-13.907,2.05-20.95ZM30.043,93.139H51.26c.981-10.074,2.05-20.058,3.031-30.132H27.011C27.992,73.081,29.062,83.065,30.043,93.139Z" transform="translate(-4.103 -18.7)" fill="#8a8a8a"/>
        <path id="Path_3597" data-name="Path 3597" d="M66.3,104.926c.713-6.775,1.337-13.551,2.05-20.326h47.873c0,2.318.178,4.636,0,6.954-.446,5.616-3.209,9.806-8.469,12.124a14.311,14.311,0,0,1-5.705,1.248c-11.678.089-23.268.089-34.946.089C66.835,105.015,66.657,104.926,66.3,104.926Zm45.287-15.779H72.54c-.357,3.744-.713,7.4-1.07,11.144a3.152,3.152,0,0,1,.535.089c9.985,0,19.88.089,29.865,0C108.021,100.29,112.122,95.476,111.587,89.147Z" transform="translate(-10.852 -25.851)" fill="#8a8a8a"/>
        <path id="Path_3598" data-name="Path 3598" d="M117.094,67.681H69.4c.891-8.2,1.783-16.4,2.674-24.694.267,0,.446-.089.713-.089,8.113,0,16.314-.089,24.427.089,8.023.089,15.779,5.795,18.632,13.283a22.51,22.51,0,0,1,1.248,9.093Zm-4.279-4.547a39.392,39.392,0,0,0-1.248-4.9,16.381,16.381,0,0,0-15.6-10.7H76.978c-.267,0-.535.089-.8.089-.535,5.171-1.159,10.341-1.694,15.512Z" transform="translate(-11.189 -21.323)" fill="#8a8a8a"/>
        <path id="Path_3599" data-name="Path 3599" d="M69.2,80.34c.178-2.14.357-4.1.535-6.24h40.919a3.394,3.394,0,0,1,3.031,1.248,2.915,2.915,0,0,1,.446,3.031,3,3,0,0,1-2.5,1.961H69.2Z" transform="translate(-11.167 -24.712)" fill="#8a8a8a"/>
        <path id="Path_3600" data-name="Path 3600" d="M40.856,40.989H57.081c-.713,7.043-1.426,13.907-2.05,20.95H27.484c-.178-1.961-.446-3.923-.624-6.062-5.795.267-10.52-1.426-14.175-5.973A15.419,15.419,0,0,1,9.3,39.206,15.844,15.844,0,0,1,24.185,24.5C31.317,24.051,40.589,29.311,40.856,40.989ZM25.79,39.117C29.178,36.264,32.3,33.679,35.507,31a13.528,13.528,0,0,0-8.647-4.368C26.5,30.737,26.147,34.749,25.79,39.117Zm0-12.57A13.765,13.765,0,0,0,16.7,29.489c2.674,3.12,5.26,6.24,8.023,9.539C25.077,34.749,25.434,30.648,25.79,26.547ZM38.984,41.078A13.935,13.935,0,0,0,36.131,31.9c-3.209,2.674-6.24,5.26-9.628,8.113C30.872,40.365,34.883,40.722,38.984,41.078Zm-12.57,0c2.764,3.3,5.349,6.419,7.934,9.45a12.259,12.259,0,0,0,4.457-8.38C34.794,41.792,30.782,41.524,26.414,41.078ZM24.453,54.094a13.777,13.777,0,0,0,9.093-2.764c-2.674-3.209-5.26-6.33-8.023-9.539C25.166,45.982,24.81,49.993,24.453,54.094Zm-.624-14.353c-2.764-3.3-5.438-6.419-8.023-9.539a13,13,0,0,0-4.279,8.469C15.627,39.028,19.639,39.385,23.829,39.741ZM23.74,40.9c-4.279-.357-8.291-.713-12.3-1.159a13.7,13.7,0,0,0,2.853,9.093C17.41,46.16,20.441,43.664,23.74,40.9ZM23.383,54c.357-4.1.713-8.113,1.07-12.3-3.209,2.674-6.33,5.26-9.45,7.934A13.087,13.087,0,0,0,23.383,54Z" transform="translate(-4.665 -19.326)" fill="#a8ddfd"/>
        <path id="Path_3601" data-name="Path 3601" d="M32.831,98.532C31.85,88.458,30.87,78.474,29.8,68.4H57.079c-.981,10.074-2.05,20.058-3.031,30.132Z" transform="translate(-6.891 -24.093)" fill="#1664ff"/>
        <path id="Path_3602" data-name="Path 3602" d="M112.217,89.689c.535,6.24-3.566,11.144-9.717,11.144-9.985.089-19.88,0-29.865,0a1.569,1.569,0,0,1-.535-.089c.357-3.744.713-7.4,1.07-11.144C86.185,89.689,99.2,89.689,112.217,89.689Z" transform="translate(-11.482 -26.394)" fill="#679cfc"/>
        <path id="Path_3603" data-name="Path 3603" d="M113.434,63.7H75.1c.535-5.171,1.159-10.341,1.694-15.512.267,0,.535-.089.8-.089H96.585a16.141,16.141,0,0,1,15.6,10.7C112.721,60.313,112.988,61.918,113.434,63.7ZM99.348,51.4c-.178.089-.535.267-.624.535-.357.713.089.981.713,1.248,3.655,1.516,6.686,3.744,8.113,7.667.178.624.446,1.159,1.248.891.713-.267.535-.891.357-1.426-1.6-4.457-5.081-6.954-9.271-8.647C99.794,51.488,99.616,51.488,99.348,51.4Z" transform="translate(-11.807 -21.89)" fill="#1664ff"/>
        <path id="Path_3604" data-name="Path 3604" d="M27.8,39.381c.357-4.368.713-8.38,1.07-12.481a13.107,13.107,0,0,1,8.558,4.368C34.308,33.943,31.188,36.528,27.8,39.381Z" transform="translate(-6.674 -19.59)" fill="#1664ff"/>
        <path id="Path_3605" data-name="Path 3605" d="M26.693,26.8c-.357,4.19-.713,8.2-1.07,12.57-2.764-3.3-5.349-6.419-8.023-9.539A12.546,12.546,0,0,1,26.693,26.8Z" transform="translate(-5.568 -19.576)" fill="#679cfc"/>
        <path id="Path_3606" data-name="Path 3606" d="M41.081,41.982c-4.1-.357-8.113-.713-12.481-1.07,3.3-2.853,6.419-5.438,9.628-8.113A13.03,13.03,0,0,1,41.081,41.982Z" transform="translate(-6.761 -20.23)" fill="#679cfc"/>
        <path id="Path_3607" data-name="Path 3607" d="M28.5,43.1c4.368.357,8.38.713,12.392,1.07a12.259,12.259,0,0,1-4.457,8.38C33.849,49.519,31.264,46.488,28.5,43.1Z" transform="translate(-6.75 -21.348)" fill="#1664ff"/>
        <path id="Path_3608" data-name="Path 3608" d="M26.3,56.2c.357-4.1.713-8.113,1.07-12.3,2.764,3.209,5.349,6.33,8.023,9.539A13.169,13.169,0,0,1,26.3,56.2Z" transform="translate(-6.512 -21.435)" fill="#679cfc"/>
        <path id="Path_3609" data-name="Path 3609" d="M24.1,40.428c-4.279-.357-8.2-.713-12.3-1.159A13.2,13.2,0,0,1,16.079,30.8C18.754,34.009,21.339,37.13,24.1,40.428Z" transform="translate(-4.938 -20.013)" fill="#1664ff"/>
        <path id="Path_3610" data-name="Path 3610" d="M24,42.759c-3.3,2.764-6.33,5.349-9.45,7.934A13.235,13.235,0,0,1,11.7,41.6C15.8,41.957,19.81,42.313,24,42.759Z" transform="translate(-4.925 -21.185)" fill="#679cfc"/>
        <path id="Path_3611" data-name="Path 3611" d="M24.08,56.1a13.967,13.967,0,0,1-8.38-4.368c3.12-2.585,6.24-5.171,9.45-7.934C24.793,48.079,24.437,52.091,24.08,56.1Z" transform="translate(-5.361 -21.424)" fill="#1664ff"/>
        <path id="Path_3612" data-name="Path 3612" d="M102.2,51.8a1.193,1.193,0,0,0,.446.089c4.19,1.694,7.667,4.19,9.271,8.647.178.624.357,1.159-.357,1.426s-.981-.267-1.248-.891c-1.426-3.923-4.457-6.062-8.112-7.667-.624-.267-1.07-.535-.713-1.248C101.752,52.067,102.109,51.978,102.2,51.8Z" transform="translate(-14.657 -22.292)" fill="#8a8a8a"/>
      </g>
    </g>
    <text style="text-align: center;font-weight:400; font-family:Roboto Condensed" id="manufacturer_of_foods_beverages" data-name="manufacturer  of
foods &amp; beverages" transform="translate(3537 5288)" fill="#0054a5" font-size="13" font-family="RobotoCondensed-Regular, Roboto" letter-spacing="0.05em"><tspan x="-58.465" y="0" xml:space="preserve">MANUFACTURER  OF</tspan><tspan x="-60.958" y="15">FOODS &amp; BEVERAGES</tspan></text>
  </g>
</svg>
