<svg xmlns="http://www.w3.org/2000/svg" xmlns:xlink="http://www.w3.org/1999/xlink" viewBox="0 0 281 249">
  <defs>
    <filter id="Rectangle_340" x="0" y="0" width="281" height="249" filterUnits="userSpaceOnUse">
      <feOffset dy="3" input="SourceAlpha"/>
      <feGaussianBlur stdDeviation="3" result="blur"/>
      <feFlood flood-color="#95b2bb"/>
      <feComposite operator="in" in2="blur"/>
      <feComposite in="SourceGraphic"/>
    </filter>
  </defs>
  <g id="Group_1095" data-name="Group 1095" transform="translate(-3396 -4719)">
    <g transform="matrix(1, 0, 0, 1, 3396, 4719)" filter="url(#Rectangle_340)">
      <path id="Rectangle_340-2" data-name="Rectangle 340" d="M2,0H227a36,36,0,0,1,36,36V195a36,36,0,0,1-36,36H36A36,36,0,0,1,0,195V2A2,2,0,0,1,2,0Z" transform="translate(9 6)" fill="#fff"/>
    </g>
    <g id="Layer_1" transform="translate(3490 4753)" style="mix-blend-mode: multiply;isolation: isolate">
      <g id="Group_541" data-name="Group 541" transform="translate(0 0)">
        <path id="Path_3462" data-name="Path 3462" d="M60.777,111.245a33.581,33.581,0,0,1-16.59-7.483,20,20,0,0,1-3.426-3.336c-.18-.18-.361-.27-.361-.541H63.3c.361,0,.811,0,.811-.541s-.451-.541-.811-.541H61.318c-.451,0-.541-.09-.541-.541V83.114c0-.451.18-.541.541-.541h3.7c.992,0,1.082-.09,1.082-1.082,0-1.623,0-1.623-1.623-1.623-1.082,0-.992.18-.992-.992,0-1.443,0-1.443,1.443-1.443.361,0,.811,0,.811-.541,0-.451-.361-.451-.721-.451H61.949c-1.262,0-1.082.18-1.082-1.082V66.7c0-1.262,0-1.262,1.262-1.262.811,0,.992-.18.721-.992-1.172-3.156-2.254-6.311-3.426-9.467-.18-.541-.451-.721-1.082-.721h-15.6a11.2,11.2,0,0,1,2.615-2.434,33.452,33.452,0,0,1,9.287-5.139,35.177,35.177,0,0,1,7.393-1.713,31.592,31.592,0,0,1,8.746.18c.18,0,.451,0,.541.27-.09.09-.18.27-.27.361a8.57,8.57,0,0,0-2.164,5.861v22.36a3.568,3.568,0,0,0,3.426,3.787c.451,0,.541.18.541.541,0,1.082.451,1.443,1.623,1.443,1.262,0,1.623-.361,1.713-1.443,0-.361.09-.541.541-.541H89.268c.361,0,.541.09.541.541,0,1.172.451,1.533,1.623,1.533s1.623-.361,1.713-1.443c0-.361,0-.451.451-.541,2.434-.27,3.606-1.623,3.606-4.057V66.885a17.291,17.291,0,0,1,1.352,4.328,36.265,36.265,0,0,1,.811,7.664,33.718,33.718,0,0,1-.9,7.3c-.721-.631-1.713-.361-2.615-.451.361-.361.811-.721.361-1.172-.541-.451-.721.18-1.082.451-.09.09-.27.18-.361.361-.451.631-1.082.541-1.893.361.631-.631,1.172-1.082,1.623-1.533.27-.27.721-.631.27-.992-.451-.451-.721.09-.992.361-.631.631-1.262,1.172-1.8,1.8-.451.631-1.082.631-1.893.541,1.082-.992,2.074-1.984,2.975-2.885.27-.27.811-.631.361-1.082s-.721,0-.992.27c-1.172,1.082-2.254,2.164-3.336,3.246a1.493,1.493,0,0,1-1.172.451H84.038a2.173,2.173,0,0,0-1.623.631C75.473,93.573,68.44,100.515,61.5,107.458a1.881,1.881,0,0,0-.631,1.623A4.306,4.306,0,0,0,60.777,111.245Z" transform="translate(-17.495 -33.255)" fill="#a8ddfd"/>
        <path id="Path_3463" data-name="Path 3463" d="M40.065,55.17h15.6a.989.989,0,0,1,1.082.721C57.826,59.047,59,62.2,60.171,65.359c.27.811.18.992-.721.992-1.262,0-1.262,0-1.262,1.262v8.656c0,1.172-.18.992,1.082,1.082h3.066c.361,0,.721,0,.721.451,0,.541-.361.541-.811.541-1.443,0-1.443,0-1.443,1.443,0,1.082-.09.992.992.992,1.623,0,1.623,0,1.623,1.623,0,.992-.09.992-1.082,1.082h-3.7c-.451,0-.541.09-.541.541V99.169c0,.451.18.541.541.541h1.984c.361,0,.811,0,.811.541s-.451.541-.811.541H17.975c-.361,0-.721-.09-.721-.451,0-.451.27-.541.721-.541h1.8c.451,0,.541-.09.541-.541V84.112c0-.541-.18-.631-.631-.631H15.811c-.541,0-.811-.18-.811-.811,0-2.164-.18-1.893,1.8-1.893.631,0,.811-.18.721-.811v-.18c0-1.443,0-1.443-1.533-1.533-.361,0-.721-.09-.721-.541s.361-.541.721-.541H19.6c.451,0,.631-.09.631-.631V66.621c0-.451-.18-.541-.541-.541H18.336c-.811,0-.992-.27-.631-.992.992-2.254,1.893-4.6,2.885-6.852.361-.9.811-1.713,1.082-2.615.18-.541.541-.721,1.172-.721H39.073C39.524,55.261,39.794,55.261,40.065,55.17ZM43.13,88.8c.09-.09,0-.27,0-.361a4,4,0,0,0-4.508-2.254A3.744,3.744,0,0,0,35.376,89.7v9.016c0,1.172,0,1.172,1.262,1.082,1.984,0,3.967,0,5.951.09.631,0,.721-.18.721-.721V89.883A1.107,1.107,0,0,0,43.13,88.8ZM56.294,57.785c-.451-1.533-.451-1.533-2.074-1.533H23.565c-.541,0-.9.09-1.082.721-.27.811-.721,1.623-.992,2.434-.811,1.984-1.623,3.967-2.525,5.951H58.458c.541.09.451-.18.361-.541C58.007,62.474,57.2,60.129,56.294,57.785ZM39.433,83.571H22.3c-.541,0-.811,0-.811.721V99.26c0,.541.18.631.631.631H33.753c.541,0,.721-.09.721-.721V89.883A4.741,4.741,0,0,1,39.433,85.1a4.69,4.69,0,0,1,4.959,4.779v9.2c0,.541.09.721.721.721h11.36c.631,0,.721-.18.721-.811v-14.7c0-.631-.09-.9-.811-.9C50.7,83.571,45.023,83.571,39.433,83.571Zm-.18-17.131H22.393c-.721,0-.992.09-.9.9.09,3.156.09,6.221,0,9.377,0,.631.18.811.811.811H56.474c.631,0,.721-.18.721-.811V67.342c0-.721-.09-.9-.9-.9Zm.18,15.508h-22.9c-.18,0-.361.09-.361.27s.09.361.27.361H62.064c.18,0,.361-.09.361-.27s-.09-.361-.27-.361H39.433ZM32.4,79.695v-.361c.09-.721-.18-.9-.9-.9-1.172.09-1.172,0-1.172,1.262v.361c-.18.721.18.811.811.811C32.4,80.867,32.4,80.867,32.4,79.695Zm-3.066,0v-.451c.09-.631-.18-.811-.811-.811-1.352.09-1.352,0-1.352,1.352v.27c-.09.721.09.9.811.9C29.335,80.867,29.335,80.867,29.335,79.695Zm-5.229,0v.451c-.09.541.09.811.721.721,1.352-.09,1.352,0,1.352-1.352v-.27c.09-.721-.18-.9-.811-.9C24.106,78.522,24.106,78.432,24.106,79.695Zm20.647,0v-.451c.09-.541-.09-.811-.721-.811-1.352.09-1.352,0-1.352,1.352v.18c-.09.721.09.992.9.992C44.753,80.867,44.753,80.867,44.753,79.695Zm3.156,0v-.361c.09-.721-.18-.9-.9-.9-1.262.09-1.262,0-1.262,1.262v.27c-.18.721.18.9.9.9C47.909,80.867,47.909,80.867,47.909,79.695Zm-8.295-.09v.361c-.18.811.18.992.9.9,1.172-.09,1.172,0,1.172-1.172v-.361c.09-.721-.18-.992-.9-.9C39.614,78.522,39.614,78.432,39.614,79.6Zm9.287.09v.451c-.09.541.09.811.721.811,1.352,0,1.352,0,1.352-1.352v-.27c.18-.811-.18-.9-.9-.9C48.9,78.522,48.9,78.432,48.9,79.695Zm6.221,0v.541c-.09.541.09.721.721.721,1.443,0,1.352,0,1.443-1.533,0-.721-.18-.992-.9-.9C55.122,78.522,55.122,78.432,55.122,79.695Zm-16.59,0c0-1.262,0-1.172-1.262-1.262-.631,0-.9.18-.811.811v.721c-.09.721.18.9.811.9C38.532,80.867,38.532,80.867,38.532,79.695Zm-3.065,0c0-1.262,0-1.172-1.172-1.262-.811-.09-1.082.27-.9.992v.541c-.09.721.09.992.9.992C35.466,80.867,35.466,80.867,35.466,79.695Zm18.573,0c0-1.262,0-1.262-1.262-1.262-.631,0-.992.09-.811.811v.721c-.09.721.18.9.9.9C54.04,80.867,54.04,80.867,54.04,79.695Zm-30.926,0c0-1.352,0-1.443-1.172-1.262-.631.09-.451.541-.361.811.09.541-.451,1.352.361,1.623,1.082.27,1.172.09,1.172-.992Zm36.786.09v-.9c0-.18-.09-.361-.27-.361H58.458c-.361.09-.27.361-.27.631.09.631-.361,1.352.18,1.713.811.451,1.443,0,1.443-.992A.088.088,0,0,0,59.9,79.785Zm-39.942-.09v-.361c0-.451.18-.9-.631-.9s-.541.541-.631.9v.9c0,.451.09.631.631.631s.631-.18.631-.631Z" transform="translate(-14.995 -34.253)" fill="#1e49a4"/>
        <path id="Path_3464" data-name="Path 3464" d="M100.011,65.45v6.942c0,2.434-1.172,3.787-3.606,4.057-.361.09-.451.18-.451.541-.09,1.172-.451,1.443-1.713,1.443-1.172,0-1.623-.361-1.623-1.533,0-.451-.18-.541-.541-.541H79.544c-.451,0-.541.18-.541.541-.09,1.172-.451,1.443-1.713,1.443-1.172,0-1.623-.361-1.623-1.443,0-.451-.09-.541-.541-.541A3.512,3.512,0,0,1,71.7,72.573V50.213a8.733,8.733,0,0,1,2.164-5.861c.09-.09.18-.27.27-.361A9.987,9.987,0,0,1,79,41.557c.361,0,.361-.27.361-.541V36.238c0-.27-.09-.451-.451-.451a.829.829,0,0,1-.811-.9V32.992A.9.9,0,0,1,79.093,32H92.347a.9.9,0,0,1,.992.992v1.623c0,.631-.09,1.172-.811,1.262-.361.09-.27.361-.27.541v4.688c0,.361.18.451.541.541a8.657,8.657,0,0,1,7.033,8.746V64.188A3.52,3.52,0,0,1,100.011,65.45ZM94.15,62.294A3.932,3.932,0,0,0,92.8,60.04a10.016,10.016,0,0,0-13.975,0A4.806,4.806,0,0,0,77.2,63.917c.09.992,0,2.074,0,3.066,0,1.893,0,1.893,1.893,1.713H93.7c.451,0,.541-.18.541-.631V62.835C94.331,62.655,94.421,62.385,94.15,62.294Zm.27-2.074v-8.2a8.828,8.828,0,0,1,2.344-6.4c.271-.27.271-.451,0-.721a6.938,6.938,0,0,0-4.779-2.164c-4.057-.09-8.115-.09-12.082,0a6.938,6.938,0,0,0-4.779,2.164c-.27.27-.361.451-.09.721a8.641,8.641,0,0,1,2.344,6.221v7.483c0,.27-.09.451.09.721A11.055,11.055,0,0,1,94.421,60.221Zm.631,15.147a6,6,0,0,1-.631-3.516V70.138c0-.451-.18-.631-.631-.631H78.011c-.541,0-.631.18-.631.631-.09,1.713.361,3.426-.541,5.139C82.88,75.368,88.921,75.368,95.052,75.368Zm-21.008-29.3a7.075,7.075,0,0,0-1.262,3.877V72.933a2.529,2.529,0,0,0,.631,1.713,1.839,1.839,0,0,0,1.8.811c.631-.18.9-.9.992-1.533a1.337,1.337,0,0,0,.09-.631v-22A7.109,7.109,0,0,0,74.044,46.065ZM98.929,61.3V50.393a7.907,7.907,0,0,0-.992-3.787c-.18-.451-.361-.451-.721-.09a7.248,7.248,0,0,0-1.893,4.779v22a2.756,2.756,0,0,0,.631,1.8.856.856,0,0,0,.992.361,2.555,2.555,0,0,0,1.893-2.615C98.929,68.876,98.929,65.089,98.929,61.3ZM85.855,41.647h4.869c.451,0,.631-.09.631-.631V36.779c0-.451,0-.9-.631-.811a.571.571,0,0,1-.541-.451c-.18-.721-.811-.9-1.533-.992h-6.4c-.541,0-.811.18-.9.721-.09.361-.27.631-.631.631-.451,0-.451.27-.451.631v4.418c0,.451.18.631.631.631C82.61,41.647,84.232,41.647,85.855,41.647Zm.09-8.475h-5.5c-1.172,0-1.172,0-1.172,1.172,0,.27-.18.631.18.721.361,0,.9.27,1.172-.361a1.625,1.625,0,0,1,1.713-.992h6.4A2.789,2.789,0,0,1,91.085,34.8c.361.451.811.27,1.172.27.451,0,.18-.451.27-.721v-.451c.09-.541-.09-.721-.721-.721Zm8.385,44.269c.361,0,.631,0,.631-.451,0-.541-.27-.541-.631-.541s-.721-.09-.721.541C93.7,77.442,93.97,77.442,94.331,77.442Zm-16.68-.992c-.541,0-.811-.09-.811.451s.27.541.721.541c.361,0,.631,0,.631-.541C78.1,76.36,77.741,76.45,77.651,76.45Z" transform="translate(-20.574 -32)" fill="#1e49a4"/>
        <path id="Path_3465" data-name="Path 3465" d="M62.968,115.262c-.09-.811-.18-1.533-.27-2.344a1.668,1.668,0,0,1,.631-1.623C70.361,104.352,77.3,97.32,84.246,90.377a2.173,2.173,0,0,1,1.623-.631h3.877a1.384,1.384,0,0,0,1.172-.451c1.082-1.082,2.254-2.164,3.336-3.246.27-.27.631-.721.992-.27.451.451,0,.811-.361,1.082-.992.9-1.984,1.893-2.975,2.885a1.673,1.673,0,0,0,1.893-.541c.541-.631,1.172-1.172,1.8-1.8.27-.27.541-.721.992-.361.451.451,0,.721-.27.992-.451.451-.992.9-1.623,1.533.9.18,1.443.18,1.893-.361.09-.09.18-.27.361-.361.27-.27.541-.811,1.082-.451.451.451,0,.721-.361,1.172.992.09,1.893-.09,2.615.451a3.116,3.116,0,0,1,.631,2.344c.09,0,.09.09.18.09.27-.361.541-.631.811-.992a.861.861,0,0,1,1.172-.361,1.093,1.093,0,0,1,.631,1.082,8.24,8.24,0,0,1-2.164,6.311,2.8,2.8,0,0,0-.811,1.984c.09,1.352,0,2.8,0,4.147a2.021,2.021,0,0,1-.721,1.713c-6.942,6.942-13.975,13.885-20.918,20.918a1.979,1.979,0,0,1-1.8.631c-3.787-.451-7.664-.992-11.451-1.443-1.082-.18-1.623-.721-1.8-2.074C63.78,121.213,63.329,118.237,62.968,115.262Zm29.663-11.451c.09.361.451.541.721.811s.541.271.811-.09c2.254-2.254,4.508-4.508,6.762-6.852a5.884,5.884,0,0,0,1.713-3.877,4.4,4.4,0,0,0,.09-1.533.279.279,0,0,1-.18.09C99.033,95.787,95.607,99.3,92.09,102.73c-.27.27-.27.451,0,.721C92.271,103.541,92.361,103.721,92.631,103.811Zm-.451,8.836.541-.541c.721-.451.541-.811,0-1.352L80.55,98.582c-.541-.541-.992-1.443-1.623-1.443-.631-.09-1.082.9-1.623,1.443-1.262,1.172-1.262,1.262.09,2.434,1.352,1.352,2.7,2.8,4.057,4.147,2.885,2.885,5.77,5.77,8.565,8.656.361.361.631.451.992,0A14.363,14.363,0,0,0,92.181,112.647ZM76.673,101.828l-.9-.9c-.27-.361-.451-.27-.721,0a17.306,17.306,0,0,0-1.262,1.352c-1.172,1.172-1.172,1.172.18,2.344,4.328,4.328,8.565,8.656,12.893,12.893a.377.377,0,0,0,.631,0c.721-.721,1.352-1.443,2.074-2.074.361-.361.27-.541,0-.811-1.623-1.623-3.336-3.246-4.959-4.959C81.9,107.057,79.287,104.443,76.673,101.828Zm.9,24.885a1.073,1.073,0,0,0,.992-.361l7.483-7.483c.27-.27.27-.451,0-.721-.721-.631-1.352-1.352-1.984-1.984L72.435,104.533c-.27-.18-.361-.631-.811-.18l-7.574,7.574a1.231,1.231,0,0,0-.361.992c.541,3.787.992,7.574,1.443,11.36a1,1,0,0,0,.992.992c.9.09,1.8.27,2.7.361C71.714,125.991,74.689,126.352,77.574,126.713Zm22.36-34.262v-.992c0-.361,0-.721-.451-.9-.361-.18-.541.27-.721.451-2.254,2.344-4.508,4.6-6.672,6.942a3.123,3.123,0,0,1-3.516.992.565.565,0,0,0-.721.18c-.721.811-1.443,1.623-2.254,2.434-.27.27-.18.451.09.721l2.074,2.074c.9.9.9.9,1.8.09l.811-.811c.09-.09.27-.18.18-.361-.361-.541.09-.811.361-1.082,2.615-2.615,5.32-5.32,8.024-7.934C99.664,93.713,100.115,93.172,99.934,92.451Zm-.18,7.844a3.922,3.922,0,0,0-.631.541c-1.443,1.533-2.975,2.975-4.418,4.508-.361.361-.811.721-1.352.451-.811-.541-1.172-.18-1.533.451-.27.27-.451.631-.811.811-.27.27-.27.451,0,.721l2.7,2.7a.377.377,0,0,0,.631,0c1.623-1.623,3.246-3.336,4.959-4.959a.979.979,0,0,0,.361-.811C99.754,103.27,99.754,101.828,99.754,100.3ZM88.935,90.648H85.779a.879.879,0,0,0-.811.361l-4.959,4.959c-.27.27-.27.451,0,.631.9.9,1.893,1.8,2.8,2.8.27.27.451.27.631,0a24.572,24.572,0,0,1,2.254-2.074c.361-.27.451-.541.27-1.082a3.134,3.134,0,0,1,.811-3.246A25.608,25.608,0,0,0,88.935,90.648Zm.9,7.574c.811,0,1.352-.631,1.893-1.262.18-.18-.09-.27-.18-.451a19.709,19.709,0,0,1-3.065-3.066c-.09-.09-.18-.361-.361-.18-.541.541-1.262.9-1.262,1.8A3.035,3.035,0,0,0,89.836,98.221Zm7.934-7.574c-.541-.09-.992-.27-1.443.09L92,95.066c-.18.18-.361.361,0,.541.27.09.361.631.811.18C94.435,94.074,96.057,92.361,97.771,90.648Zm-2.615-.09c-.631.09-1.172-.18-1.623.18-1.082.992-2.074,2.074-3.066,3.066-.27.27,0,.451.18.631s.27.361.541.09C92.451,93.172,93.713,91.91,95.156,90.558ZM87.4,98.221a1.886,1.886,0,0,0-.541-.361c-.18-.09-.27.09-.361.18-.721.721-1.533,1.443-2.254,2.164-.361.27-.27.451,0,.721s.451.361.811,0c.631-.721,1.352-1.443,2.074-2.164C87.041,98.582,87.131,98.492,87.4,98.221Zm4.779-7.483c-.541-.09-.992-.27-1.352,0-.541.451-.992.992-1.533,1.443-.361.361,0,.451.18.721.09.18.27.361.451.09A26.563,26.563,0,0,1,92.181,90.738Zm-.721,13.434c-.09,0-.09,0-.09.09-.631.541-1.172,1.082-1.713,1.623-.271.27.09.361.18.451s.27.361.451.09c.541-.541,1.082-1.172,1.533-1.713.09-.09.18-.18,0-.361C91.73,104.352,91.64,104.262,91.459,104.172Z" transform="translate(-19.686 -37.272)" fill="#1e49a4"/>
        <path id="Path_3466" data-name="Path 3466" d="M46.527,38.643a.635.635,0,0,1-.361-1.172A32.9,32.9,0,0,1,51.036,35.4a.728.728,0,0,1,.811.361.685.685,0,0,1-.27.811c-1.623.631-3.246,1.352-4.869,2.074Z" transform="translate(-18.032 -32.332)" fill="#8a8a8a"/>
        <path id="Path_3467" data-name="Path 3467" d="M117.713,84.244l-.27,3.246c-.09.451-.18.9-.721.811-.721,0-.721-.451-.721-.9a39.507,39.507,0,0,0,.361-4.688c0-.451.18-.811.631-.811.541,0,.721.361.721.811v1.533Z" transform="translate(-24.932 -36.909)" fill="#8a8a8a"/>
        <path id="Path_3468" data-name="Path 3468" d="M101.025,118.253c-.361-.09-.541-.18-.631-.451a.565.565,0,0,1,.18-.721c1.262-1.172,2.434-2.344,3.606-3.606a.636.636,0,0,1,.992,0,.6.6,0,0,1,0,.9,34.911,34.911,0,0,1-3.606,3.7A1.282,1.282,0,0,0,101.025,118.253Z" transform="translate(-23.392 -39.992)" fill="#8a8a8a"/>
        <path id="Path_3469" data-name="Path 3469" d="M117.361,75.928v.361c0,.451-.18.721-.631.721a.686.686,0,0,1-.721-.541,43.747,43.747,0,0,0-.811-4.959.61.61,0,0,1,.541-.811c.451-.09.721.18.811.631A24.458,24.458,0,0,1,117.361,75.928Z" transform="translate(-24.851 -35.805)" fill="#8a8a8a"/>
        <path id="Path_3470" data-name="Path 3470" d="M62.188,32.7a.687.687,0,0,1,.721.631c.09.451-.18.721-.631.721-1.623.18-3.246.541-4.869.811a.589.589,0,0,1-.811-.451.609.609,0,0,1,.451-.811A30.542,30.542,0,0,1,62.188,32.7Z" transform="translate(-19.086 -32.069)" fill="#8a8a8a"/>
        <path id="Path_3471" data-name="Path 3471" d="M108.621,109.577a.671.671,0,0,1-.631-.992c.9-1.443,1.8-2.885,2.7-4.418.18-.361.541-.361.9-.18a.55.55,0,0,1,.27.811,45.872,45.872,0,0,1-2.7,4.508A.779.779,0,0,1,108.621,109.577Z" transform="translate(-24.135 -39.071)" fill="#8a8a8a"/>
        <path id="Path_3472" data-name="Path 3472" d="M114.84,65.223a.7.7,0,0,1-1.352.27c-.27-.631-.451-1.352-.721-1.984l-1.082-2.434c-.18-.451-.27-.9.27-1.082.451-.18.721.09.992.541a37.79,37.79,0,0,1,1.8,4.418C114.84,64.953,114.84,65.133,114.84,65.223Z" transform="translate(-24.494 -34.749)" fill="#8a8a8a"/>
        <path id="Path_3473" data-name="Path 3473" d="M33.1,48.423c0,.18-.18.361-.27.541Q31.2,50.722,29.852,52.48c-.27.361-.631.721-1.082.361s-.27-.721,0-1.082c.992-1.262,1.984-2.525,3.066-3.7.27-.27.541-.451.9-.27A.6.6,0,0,1,33.1,48.423Z" transform="translate(-16.323 -33.547)" fill="#8a8a8a"/>
        <path id="Path_3474" data-name="Path 3474" d="M49.337,127.32a.683.683,0,0,1-.361-.18,44.7,44.7,0,0,1-4.238-1.984c-.451-.27-.721-.541-.451-.992s.721-.361,1.082-.18a36.242,36.242,0,0,0,4.238,1.984c.361.18.631.361.541.811Q49.878,127.455,49.337,127.32Z" transform="translate(-17.867 -41.035)" fill="#8a8a8a"/>
        <path id="Path_3475" data-name="Path 3475" d="M60.017,130.451c-1.533-.27-3.156-.541-4.779-.992a.61.61,0,0,1-.541-.811c.09-.451.451-.541.9-.451a43.428,43.428,0,0,0,4.688.992c.451.09.721.27.631.811C60.919,130.451,60.558,130.541,60.017,130.451Z" transform="translate(-18.899 -41.461)" fill="#8a8a8a"/>
        <path id="Path_3476" data-name="Path 3476" d="M41.708,41.031a.681.681,0,0,1-.361.631c-1.352.9-2.615,1.893-3.877,2.885-.361.27-.721.361-.992,0-.361-.361-.18-.721.18-1.082a24.755,24.755,0,0,1,3.967-2.885C41.167,40.219,41.708,40.4,41.708,41.031Z" transform="translate(-17.089 -32.826)" fill="#8a8a8a"/>
        <path id="Path_3477" data-name="Path 3477" d="M116.076,94.01c-.18.631-.361,1.352-.631,2.074-.27.9-.631,1.893-.992,2.8-.18.451-.451.631-.9.451a.6.6,0,0,1-.361-.9,40.372,40.372,0,0,0,1.443-4.688.659.659,0,0,1,.811-.541A.718.718,0,0,1,116.076,94.01Z" transform="translate(-24.647 -38.019)" fill="#8a8a8a"/>
        <path id="Path_3478" data-name="Path 3478" d="M35.523,117.2a.913.913,0,0,1,.631.361c1.172,1.082,2.344,1.984,3.606,2.975a.755.755,0,0,1,.27,1.082c-.361.451-.721.27-1.082,0a40.222,40.222,0,0,1-3.787-3.065c-.27-.271-.451-.541-.27-.9S35.253,117.2,35.523,117.2Z" transform="translate(-16.946 -40.382)" fill="#8a8a8a"/>
        <path id="Path_3479" data-name="Path 3479" d="M109.835,55.075a.6.6,0,0,1-.451.631.728.728,0,0,1-.811-.361c-.721-.992-1.443-2.074-2.164-3.066a6.881,6.881,0,0,1-.721-.992.628.628,0,0,1,.18-.9.571.571,0,0,1,.811.09,38,38,0,0,1,3.156,4.328A.169.169,0,0,0,109.835,55.075Z" transform="translate(-23.906 -33.797)" fill="#8a8a8a"/>
        <path id="Path_3480" data-name="Path 3480" d="M70.234,32.393a16.1,16.1,0,0,1,2.074.18.664.664,0,0,1,.721.721c0,.451-.361.631-.811.631-1.262-.09-2.434-.09-3.7-.18-.451,0-.721-.18-.721-.721,0-.451.361-.631.811-.631a4.9,4.9,0,0,1,1.623,0Z" transform="translate(-20.19 -32.032)" fill="#8a8a8a"/>
        <path id="Path_3481" data-name="Path 3481" d="M32.124,113.664a.609.609,0,0,1-.361.541.681.681,0,0,1-.721-.09l-1.352-1.623c-.18-.18-.09-.451.09-.721a.819.819,0,0,1,.631-.27A5.9,5.9,0,0,1,32.124,113.664Z" transform="translate(-16.431 -39.821)" fill="#8a8a8a"/>
        <path id="Path_3482" data-name="Path 3482" d="M40.142,86.7h16.95c.721,0,.811.18.811.9v14.7c0,.541-.09.811-.721.811H45.822c-.631,0-.721-.18-.721-.721v-9.2a4.69,4.69,0,0,0-4.959-4.779,4.69,4.69,0,0,0-4.959,4.779v9.287c0,.541-.18.721-.721.721H22.831c-.541,0-.631-.09-.631-.631V87.6c0-.631.27-.721.811-.721,5.68-.18,11.36-.18,17.131-.18ZM50.691,97.97h3.246c.631,0,.9-.18.9-.811V92.2a4.06,4.06,0,0,0-8.115-.09c-.09,1.713,0,3.426,0,5.139,0,.541.27.811.811.721Zm-21.368,0h3.336c.631,0,.811-.27.811-.811V92.2a4.022,4.022,0,0,0-4.057-3.967A3.965,3.965,0,0,0,25.356,92.2v5.049c0,.541.18.811.811.811C27.069,97.97,28.241,97.97,29.323,97.97Z" transform="translate(-15.704 -37.381)" fill="#fefefe"/>
        <path id="Path_3483" data-name="Path 3483" d="M56.983,58.1c.9,2.344,1.713,4.688,2.615,7.033.09.361.18.631-.361.541H22c.992-1.984,1.984-3.877,2.8-5.861A2.407,2.407,0,0,1,27.5,58.1C37.328,58.19,47.155,58.1,56.983,58.1Z" transform="translate(-15.684 -34.568)" fill="#46a6f7"/>
        <path id="Path_3484" data-name="Path 3484" d="M39.962,67.7H57c.811,0,.9.18.9.9-.09,3.156-.09,6.221,0,9.377,0,.631-.18.811-.721.811H23.011c-.631,0-.811-.18-.811-.811V68.6c0-.811.27-.9.9-.9Zm11.27,9.918h3.426c.541,0,.811-.18.811-.811v-3.7a4.258,4.258,0,0,0-4.238-4.057,4.118,4.118,0,0,0-4.147,4.057v3.7c0,.541.18.811.811.721C48.978,77.618,50.15,77.618,51.232,77.618Zm-22,0h3.426c.631,0,.811-.18.811-.811V73.2A4.24,4.24,0,0,0,25,73.29v3.516c0,.631.27.9.9.811Zm10.819,0h3.426c.631,0,.811-.27.811-.811V73.29a4.239,4.239,0,0,0-8.475,0v3.426c0,.631.18.9.9.9Z" transform="translate(-15.704 -35.512)" fill="#fefefe"/>
        <path id="Path_3485" data-name="Path 3485" d="M45.5,92.359a1.291,1.291,0,0,1,.27.992v9.287c0,.541-.09.811-.721.721-1.984-.09-3.967,0-5.951-.09V94.522A3.481,3.481,0,0,1,41.9,91.1,4.378,4.378,0,0,1,45.5,92.359Z" transform="translate(-17.367 -37.811)" fill="#a8ddfd"/>
        <path id="Path_3486" data-name="Path 3486" d="M56.737,57.933c-9.828,0-19.655.09-29.483,0a2.407,2.407,0,0,0-2.7,1.713c-.811,1.984-1.893,3.877-2.8,5.861H19.5c.811-1.984,1.713-3.967,2.525-5.951.361-.811.721-1.623.992-2.434A.989.989,0,0,1,24.1,56.4H54.753C56.286,56.4,56.286,56.4,56.737,57.933Z" transform="translate(-15.438 -34.401)" fill="#fefefe"/>
        <path id="Path_3487" data-name="Path 3487" d="M39.562,84.9H62.283c.27,0,.27.09.27.361s-.09.27-.361.27H16.57c-.27,0-.27-.09-.27-.361s.09-.27.361-.27h22.9Z" transform="translate(-15.124 -37.204)" fill="#fefefe"/>
        <path id="Path_3488" data-name="Path 3488" d="M45.364,92.207a4.057,4.057,0,0,0-3.606-1.172,3.481,3.481,0,0,0-2.8,3.426v8.746c-1.262.09-1.262.09-1.262-1.082V93.109a3.586,3.586,0,0,1,3.246-3.516,4.168,4.168,0,0,1,4.508,2.254A.542.542,0,0,1,45.364,92.207Z" transform="translate(-17.229 -37.659)" fill="#fefefe"/>
        <path id="Path_3489" data-name="Path 3489" d="M34.069,82.272c0,1.172,0,1.172-1.262,1.262-.631,0-.992-.09-.811-.811v-.361c0-1.262,0-1.172,1.262-1.262.721,0,.992.18.9.9C34.069,82,34.069,82.182,34.069,82.272Z" transform="translate(-16.663 -36.831)" fill="#fefefe"/>
        <path id="Path_3490" data-name="Path 3490" d="M30.668,82.262c0,1.262,0,1.172-1.262,1.262-.721,0-.992-.18-.811-.9v-.27c0-1.352,0-1.352,1.352-1.352.631,0,.811.18.721.811C30.578,81.9,30.668,82.082,30.668,82.262Z" transform="translate(-16.328 -36.821)" fill="#fefefe"/>
        <path id="Path_3491" data-name="Path 3491" d="M25.1,82.262C25.1,81,25.1,81.09,26.36,81c.721,0,.992.18.811.9v.27c0,1.352,0,1.352-1.352,1.352-.631,0-.811-.18-.721-.721Z" transform="translate(-15.987 -36.821)" fill="#fefefe"/>
        <path id="Path_3492" data-name="Path 3492" d="M47.768,82.262c0,1.172,0,1.172-1.172,1.262-.811.09-1.082-.27-.9-.992v-.18c0-1.352,0-1.262,1.352-1.352.631,0,.811.18.721.811Z" transform="translate(-18.01 -36.821)" fill="#fefefe"/>
        <path id="Path_3493" data-name="Path 3493" d="M51.269,82.272c0,1.172,0,1.172-1.172,1.262-.721,0-1.082-.09-.9-.9v-.271c0-1.262,0-1.172,1.262-1.262.721,0,.992.18.9.9C51.179,82,51.269,82.182,51.269,82.272Z" transform="translate(-18.355 -36.831)" fill="#fefefe"/>
        <path id="Path_3494" data-name="Path 3494" d="M42.295,82.172c0-1.172,0-1.082,1.172-1.172.721,0,1.082.18.9.9v.361c0,1.172,0,1.082-1.172,1.172-.721.09-1.082-.18-.9-.9Z" transform="translate(-17.677 -36.821)" fill="#fefefe"/>
        <path id="Path_3495" data-name="Path 3495" d="M52.6,82.262C52.6,81,52.6,81.09,53.77,81c.721,0,1.082.09.9.9v.27c0,1.352,0,1.262-1.352,1.352-.631,0-.811-.18-.721-.811Z" transform="translate(-18.692 -36.821)" fill="#fefefe"/>
        <path id="Path_3496" data-name="Path 3496" d="M59.488,82.271c0-1.172,0-1.172,1.172-1.172.811-.09.9.27.9.9,0,1.533,0,1.533-1.443,1.533-.631,0-.811-.18-.721-.721A1.144,1.144,0,0,0,59.488,82.271Z" transform="translate(-19.361 -36.829)" fill="#fefefe"/>
        <path id="Path_3497" data-name="Path 3497" d="M40.878,82.26c0,1.172,0,1.172-1.172,1.172-.721,0-.992-.18-.811-.9v-.721c-.09-.721.18-.9.811-.811C40.878,81.088,40.878,81,40.878,82.26Z" transform="translate(-17.341 -36.818)" fill="#fefefe"/>
        <path id="Path_3498" data-name="Path 3498" d="M37.468,82.252c0,1.172,0,1.082-1.172,1.172-.811.09-1.082-.27-.9-.992v-.541c-.09-.721.09-.992.9-.992C37.468,81.08,37.468,80.99,37.468,82.252Z" transform="translate(-16.997 -36.811)" fill="#fefefe"/>
        <path id="Path_3499" data-name="Path 3499" d="M58.062,82.262c0,1.172,0,1.172-1.262,1.172-.721,0-.992-.18-.9-.9v-.721c0-.721.27-.811.992-.811C58.062,81.09,58.062,81,58.062,82.262Z" transform="translate(-19.018 -36.821)" fill="#fefefe"/>
        <path id="Path_3500" data-name="Path 3500" d="M23.822,82.259v.18c0,1.082-.09,1.262-1.172.992-.811-.27-.27-1.082-.361-1.623-.09-.27-.27-.721.361-.811C23.822,80.906,23.822,80.906,23.822,82.259Z" transform="translate(-15.704 -36.817)" fill="#fefefe"/>
        <path id="Path_3501" data-name="Path 3501" d="M64.61,82.372v.18c0,.9-.631,1.443-1.443.992-.541-.361-.18-1.172-.18-1.713,0-.18-.18-.541.27-.631H64.43c.27,0,.27.18.27.361A2,2,0,0,0,64.61,82.372Z" transform="translate(-19.705 -36.84)" fill="#a8ddfd"/>
        <path id="Path_3502" data-name="Path 3502" d="M20.36,82.262V82.8c.09.451-.09.631-.631.631s-.631-.18-.631-.631v-.9c0-.451-.18-.9.631-.9s.541.451.631.9Z" transform="translate(-15.397 -36.821)" fill="#fefefe"/>
        <path id="Path_3503" data-name="Path 3503" d="M94.767,61.394a11.054,11.054,0,0,0-16.95-.09,1.068,1.068,0,0,1-.09-.721V53.1a8.788,8.788,0,0,0-2.344-6.221c-.27-.27-.18-.451.09-.721a6.938,6.938,0,0,1,4.779-2.164c4.057-.09,8.115-.09,12.082,0a6.938,6.938,0,0,1,4.779,2.164c.27.27.361.451,0,.721a8.828,8.828,0,0,0-2.344,6.4v7.393C94.767,60.763,94.767,60.943,94.767,61.394ZM86.2,51.3h5.861c.361,0,.811,0,.811-.451,0-.541-.451-.541-.811-.541h-11.9a.478.478,0,0,0-.541.541c0,.361.27.451.541.451H86.2Z" transform="translate(-20.92 -33.173)" fill="#fefefe"/>
        <path id="Path_3504" data-name="Path 3504" d="M94.966,65.248c.27.09.18.361.18.541v5.229c0,.451-.09.631-.541.631H80c0-1.262.09-2.525,0-3.787a4.112,4.112,0,0,1,1.533-3.426A9.454,9.454,0,0,1,94.966,65.248Z" transform="translate(-21.39 -34.953)" fill="#46a6f7"/>
        <path id="Path_3505" data-name="Path 3505" d="M95.613,79.47H77.4c.9-1.623.451-3.426.541-5.139,0-.451.09-.631.631-.631H94.35c.451,0,.631.09.631.631v1.713A5.711,5.711,0,0,0,95.613,79.47Z" transform="translate(-21.135 -36.103)" fill="#fefefe"/>
        <path id="Path_3506" data-name="Path 3506" d="M74.162,47.6a6.968,6.968,0,0,1,2.254,5.229v22a1.535,1.535,0,0,1-.09.631c-.18.631-.361,1.352-.992,1.533a1.839,1.839,0,0,1-1.8-.811,2.38,2.38,0,0,1-.631-1.713V51.477A7.075,7.075,0,0,1,74.162,47.6Z" transform="translate(-20.692 -33.535)" fill="#fefefe"/>
        <path id="Path_3507" data-name="Path 3507" d="M101.516,62.848V74.3a2.487,2.487,0,0,1-1.893,2.615.856.856,0,0,1-.992-.361A3.116,3.116,0,0,1,98,74.75v-22a7.248,7.248,0,0,1,1.893-4.779c.27-.361.451-.361.721.09a7.907,7.907,0,0,1,.992,3.787C101.516,55.545,101.516,59.152,101.516,62.848Z" transform="translate(-23.161 -33.546)" fill="#fefefe"/>
        <path id="Path_3508" data-name="Path 3508" d="M86.8,41.933H81.931c-.451,0-.631-.09-.631-.631V36.884c0-.361,0-.631.451-.631.361,0,.541-.27.631-.631a.807.807,0,0,1,.9-.721h6.4a1.428,1.428,0,0,1,1.533.992.571.571,0,0,0,.541.451c.631-.09.631.361.631.811v4.238c0,.541-.18.631-.631.631C90.136,41.933,88.423,41.933,86.8,41.933Z" transform="translate(-21.518 -32.285)" fill="#fefefe"/>
        <path id="Path_3509" data-name="Path 3509" d="M94.769,65.034a9.542,9.542,0,0,0-13.434-.9A4.112,4.112,0,0,0,79.8,67.559c.09,1.262,0,2.525,0,3.787-1.8.18-1.8.18-1.8-1.713,0-.992.09-2.074,0-3.066a4.926,4.926,0,0,1,1.623-3.877,10.016,10.016,0,0,1,13.975,0A4.822,4.822,0,0,1,94.769,65.034Z" transform="translate(-21.193 -34.74)" fill="#fefefe"/>
        <path id="Path_3510" data-name="Path 3510" d="M86.767,33.3h5.861c.541,0,.811.18.721.721v.451c-.09.27.18.631-.27.721-.361,0-.811.27-1.172-.27a2.573,2.573,0,0,0-2.344-1.082h-6.4a1.625,1.625,0,0,0-1.713.992c-.27.631-.811.361-1.172.361s-.18-.451-.18-.721c0-1.172,0-1.172,1.172-1.172Z" transform="translate(-21.395 -32.128)" fill="#fefefe"/>
        <path id="Path_3511" data-name="Path 3511" d="M96.731,82.292c-.361,0-.631,0-.631-.451,0-.631.361-.451.721-.541.361,0,.631,0,.631.541C97.362,82.292,97.092,82.292,96.731,82.292Z" transform="translate(-22.974 -36.85)" fill="#fefefe"/>
        <path id="Path_3512" data-name="Path 3512" d="M78.2,81.3c.18,0,.451-.09.451.451,0,.451-.27.541-.631.541s-.721,0-.721-.541S77.661,81.3,78.2,81.3Z" transform="translate(-21.125 -36.85)" fill="#fefefe"/>
        <path id="Path_3513" data-name="Path 3513" d="M77.673,128.737c-2.975-.361-5.861-.721-8.836-1.082-.9-.09-1.8-.271-2.7-.361a1,1,0,0,1-.992-.992c-.451-3.787-.992-7.574-1.443-11.36a1.073,1.073,0,0,1,.361-.992l7.574-7.574c.451-.451.631-.09.811.18l11.631,11.631,1.984,1.984c.271.27.361.451,0,.721l-7.483,7.483A.8.8,0,0,1,77.673,128.737Z" transform="translate(-19.784 -39.296)" fill="#fefefe"/>
        <path id="Path_3514" data-name="Path 3514" d="M77.9,103.6l7.844,7.844c1.623,1.623,3.246,3.336,4.959,4.959.27.27.361.451,0,.811-.721.631-1.352,1.352-2.074,2.074-.18.27-.361.361-.631,0-4.328-4.328-8.565-8.656-12.893-12.893C76,105.4,76.993,104.5,77.9,103.6Z" transform="translate(-20.908 -39.044)" fill="#a8ddfd"/>
        <path id="Path_3515" data-name="Path 3515" d="M102.428,93c.18.721-.27,1.262-.9,1.893-2.7,2.615-5.32,5.32-8.024,7.934-.27.27-.721.541-.361,1.082.09.18-.09.27-.18.361l-.811.811c-.9.811-.9.811-1.8-.09l-2.074-2.074c-.27-.27-.361-.451-.09-.721.811-.811,1.533-1.623,2.254-2.434a.565.565,0,0,1,.721-.18,3.123,3.123,0,0,0,3.516-.992c2.164-2.344,4.418-4.688,6.672-6.942.18-.18.361-.631.721-.451a.916.916,0,0,1,.451.9A2.262,2.262,0,0,0,102.428,93Z" transform="translate(-22.179 -37.82)" fill="#fefefe"/>
        <path id="Path_3516" data-name="Path 3516" d="M93.8,114.17a6.68,6.68,0,0,0-1.082,1.172c-.361.451-.541.361-.992,0-2.885-2.885-5.77-5.77-8.565-8.656-1.352-1.352-2.7-2.8-4.057-4.147.27-.27.541-.631.811-.9.811-.721.541-.811,1.443,0C85.5,105.875,89.649,110.022,93.8,114.17Z" transform="translate(-21.302 -38.794)" fill="#a8ddfd"/>
        <path id="Path_3517" data-name="Path 3517" d="M93.684,113.918,81.242,101.475c-.9-.9-.631-.811-1.443,0a8.128,8.128,0,0,0-.811.9c-1.352-1.172-1.352-1.172-.09-2.434.541-.541.992-1.443,1.623-1.443.541,0,1.082.9,1.623,1.443l12.172,12.172c.541.541.721.9,0,1.352C94.045,113.557,93.865,113.828,93.684,113.918Z" transform="translate(-21.19 -38.542)" fill="#fefefe"/>
        <path id="Path_3518" data-name="Path 3518" d="M102.833,101.9v4.418a1.343,1.343,0,0,1-.361.811c-1.623,1.623-3.336,3.246-4.959,4.959-.27.27-.361.27-.631,0l-2.7-2.7c-.27-.27-.27-.451,0-.721l.811-.811c.451-.541.811-.992,1.533-.451.451.361.992,0,1.352-.451,1.443-1.533,2.885-2.975,4.418-4.508A3.061,3.061,0,0,0,102.833,101.9Z" transform="translate(-22.765 -38.877)" fill="#fefefe"/>
        <path id="Path_3519" data-name="Path 3519" d="M90.8,91.2c-.631.721-1.352,1.623-2.164,2.434a2.788,2.788,0,0,0-.811,3.246c.18.451,0,.721-.271,1.082-.721.721-1.533,1.352-2.254,2.074-.27.27-.361.27-.631,0-.9-.9-1.8-1.893-2.8-2.8-.27-.27-.27-.361,0-.631,1.713-1.623,3.336-3.336,4.959-4.959a.979.979,0,0,1,.811-.361C88.82,91.2,89.9,91.2,90.8,91.2Z" transform="translate(-21.555 -37.824)" fill="#fefefe"/>
        <path id="Path_3520" data-name="Path 3520" d="M105.908,94.7a6.65,6.65,0,0,1-1.713,3.877c-2.254,2.254-4.508,4.508-6.762,6.852-.27.27-.541.361-.811.09a3.111,3.111,0,0,1-.721-.811c.451-.451.9-.992,1.352-1.443C100.138,100.38,103.023,97.5,105.908,94.7Z" transform="translate(-22.955 -38.169)" fill="#46a6f7"/>
        <path id="Path_3521" data-name="Path 3521" d="M105.823,94.523c-2.885,2.885-5.77,5.68-8.656,8.565-.451.451-.9.992-1.352,1.443-.27-.09-.361-.27-.541-.451-.27-.27-.361-.451,0-.721,3.516-3.426,6.942-6.942,10.459-10.369a.279.279,0,0,0,.18-.09A3.312,3.312,0,0,1,105.823,94.523Z" transform="translate(-22.87 -37.991)" fill="#fefefe"/>
        <path id="Path_3522" data-name="Path 3522" d="M92.474,99.062A2.96,2.96,0,0,1,89.5,96c.09-.9.721-1.262,1.262-1.8.18-.18.27.09.361.18a16.449,16.449,0,0,0,3.066,3.066c.09.09.361.18.18.451C93.826,98.431,93.285,99.062,92.474,99.062Z" transform="translate(-22.323 -38.113)" fill="#fefefe"/>
        <path id="Path_3523" data-name="Path 3523" d="M77.782,103.476l-2.795,2.8c-1.352-1.172-1.352-1.172-.18-2.344a17.307,17.307,0,0,0,1.262-1.352c.27-.27.451-.361.721,0A9.872,9.872,0,0,1,77.782,103.476Z" transform="translate(-20.795 -38.92)" fill="#fefefe"/>
        <path id="Path_3524" data-name="Path 3524" d="M100.948,91.186c-1.623,1.713-3.336,3.426-4.959,5.139-.451.451-.541-.09-.811-.18-.361-.18-.18-.361,0-.541l4.328-4.328C99.956,90.916,100.407,91.1,100.948,91.186Z" transform="translate(-22.863 -37.81)" fill="#fefefe"/>
        <path id="Path_3525" data-name="Path 3525" d="M98.176,91.1l-3.967,3.967c-.27.27-.361,0-.541-.09-.18-.18-.451-.27-.18-.631l3.065-3.066C97,90.915,97.545,91.1,98.176,91.1Z" transform="translate(-22.706 -37.809)" fill="#fefefe"/>
        <path id="Path_3526" data-name="Path 3526" d="M89.71,99.548a1.064,1.064,0,0,1-.451.451c-.721.721-1.352,1.443-2.074,2.164-.361.361-.541.27-.811,0s-.361-.451,0-.721c.811-.721,1.533-1.443,2.254-2.164.09-.09.18-.27.361-.18C89.259,99.278,89.44,99.368,89.71,99.548Z" transform="translate(-21.994 -38.599)" fill="#fefefe"/>
        <path id="Path_3527" data-name="Path 3527" d="M95.06,91.28c-.811.721-1.533,1.533-2.344,2.254-.271.27-.361.09-.451-.09s-.541-.361-.18-.721c.541-.451.992-.992,1.533-1.443C93.978,90.919,94.519,91.19,95.06,91.28Z" transform="translate(-22.566 -37.814)" fill="#fefefe"/>
        <path id="Path_3528" data-name="Path 3528" d="M94.392,106.2c.18,0,.27.18.361.27s.09.18,0,.361c-.541.541-1.082,1.172-1.533,1.713-.27.27-.361,0-.451-.09s-.451-.27-.18-.451c.541-.541,1.172-1.082,1.713-1.623C94.3,106.29,94.3,106.29,94.392,106.2Z" transform="translate(-22.619 -39.3)" fill="#fefefe"/>
        <path id="Path_3529" data-name="Path 3529" d="M53.347,98.137H50.011c-.541,0-.811-.18-.811-.721V92.277A4.064,4.064,0,0,1,53.257,88.4a3.965,3.965,0,0,1,4.057,3.967v4.959c0,.631-.27.811-.9.811Zm3.065-2.8c0-1.713,0-1.713-1.713-1.713h-.27q-.541-.135-.541.541a18.785,18.785,0,0,1,0,2.254c-.09.631.18.811.811.811C56.413,97.056,56.413,97.146,56.413,95.342Zm-3.606,0c0-1.8,0-1.8-1.8-1.8h-.27q-.541-.135-.541.541a18.783,18.783,0,0,1,0,2.254c-.09.631.18.811.811.811C52.806,97.056,52.806,97.146,52.806,95.342Zm1.082-5.861v1.172c0,2.074,0,2.074,2.164,1.984h.09c.361,0,.361-.18.361-.451A3.153,3.153,0,0,0,53.888,89.482ZM52.806,91.1V89.933c0-.451-.18-.451-.451-.361a3.267,3.267,0,0,0-1.893,1.893c-.361,1.082-.27,1.172.811,1.172C52.806,92.638,52.806,92.638,52.806,91.1Z" transform="translate(-18.36 -37.549)" fill="#1e49a4"/>
        <path id="Path_3530" data-name="Path 3530" d="M29.647,98.128H26.311c-.541,0-.811-.18-.811-.811V92.267A4.081,4.081,0,0,1,29.557,88.3a3.965,3.965,0,0,1,4.057,3.967v4.959c0,.541-.18.811-.811.811-.992.09-2.074.09-3.156.09Zm-.541-2.8c0-1.713,0-1.713-1.713-1.713h-.27q-.541-.135-.541.541a18.784,18.784,0,0,1,0,2.254c-.09.631.18.811.811.811C29.106,97.046,29.106,97.136,29.106,95.333Zm3.606.09c0-1.893,0-1.8-1.893-1.8-.541,0-.721.09-.721.631a6.661,6.661,0,0,1,0,1.893c-.09.721.09.992.9.992C32.713,97.046,32.713,97.136,32.713,95.423Zm-3.606-5.951a2.775,2.775,0,0,0-2.434,2.254c-.18.811-.18.9.721.9h1.262c.361,0,.541-.09.541-.541A23.645,23.645,0,0,1,29.106,89.472Zm1.082,0v1.262c0,1.893,0,1.893,1.893,1.893.631,0,.721-.18.631-.721A3.186,3.186,0,0,0,30.188,89.472Z" transform="translate(-16.029 -37.539)" fill="#1e49a4"/>
        <path id="Path_3531" data-name="Path 3531" d="M53.938,77.775H50.511c-.541,0-.811-.18-.811-.721v-3.7A4.177,4.177,0,0,1,53.847,69.3a4.083,4.083,0,0,1,4.238,4.057v3.7c0,.631-.27.811-.811.811-.992-.09-2.164-.09-3.336-.09Zm-1.8-.992H52.5c.811.18.992-.18.992-.992-.09-1.443,0-1.443-1.533-1.443-1.262,0-1.262,0-1.262,1.082C50.782,76.783,50.782,76.783,52.134,76.783Zm3.787-2.434h-.27c-1.082,0-1.082,0-1.082,1.082,0,1.352,0,1.352,1.443,1.352,1.352,0,1.352,0,1.352-1.172C57.274,74.349,57.274,74.349,55.921,74.349Zm-1.443-2.525c0,1.533,0,1.533,1.533,1.533h.721c.361,0,.541-.09.451-.451a3.374,3.374,0,0,0-1.533-2.164c-.361-.18-.721-.541-1.082-.361-.27.09-.09.631-.09.9Zm-.992,0v-.992c.09-.631-.18-.541-.631-.361a2.834,2.834,0,0,0-1.623,1.443c-.27.451-.541.9-.361,1.352.18.361.721.09,1.172.09C53.487,73.357,53.487,73.357,53.487,71.825Z" transform="translate(-18.41 -35.67)" fill="#1e49a4"/>
        <path id="Path_3532" data-name="Path 3532" d="M29.538,77.775H26.2c-.631,0-.9-.18-.9-.811V73.447a4.24,4.24,0,0,1,8.475-.09v3.606c0,.631-.27.811-.811.811Zm1.8-.992h.721c.541.09.721-.18.721-.721,0-1.713,0-1.713-1.713-1.713h-.631c-.361,0-.541.09-.451.451v.631C29.988,76.783,29.988,76.783,31.341,76.783Zm-3.7,0h.27c.992,0,.992,0,.992-.992,0-1.443,0-1.443-1.533-1.443-1.172,0-1.172,0-1.172,1.082C26.292,76.783,26.292,76.783,27.644,76.783ZM29,71.825v-.992c0-.451-.09-.631-.541-.451a3.608,3.608,0,0,0-1.713,1.352c-.27.451-.631.992-.361,1.443.18.361.721.09,1.172.09C29,73.357,29,73.357,29,71.825Zm.992-1.443v.811c0,2.254,0,2.254,2.254,2.164h.09c.27,0,.361-.09.361-.361A2.979,2.979,0,0,0,29.988,70.382Z" transform="translate(-16.009 -35.67)" fill="#1e49a4"/>
        <path id="Path_3533" data-name="Path 3533" d="M41.538,77.775H38.2c-.721,0-.9-.27-.9-.9V73.447a4.239,4.239,0,0,1,8.475,0v3.516c0,.541-.18.811-.811.811Zm1.8-3.426h-.27c-1.172,0-1.082-.18-1.082,1.082,0,1.352,0,1.352,1.443,1.352,1.262,0,1.262,0,1.262-1.172C44.783,74.349,44.783,74.349,43.341,74.349Zm-3.7,0h-.361c-.811-.18-.992.18-.992.992.09,1.443,0,1.443,1.623,1.443,1.172,0,1.172,0,1.172-1.082C41,74.349,41,74.349,39.644,74.349Zm2.344-2.525v.721c-.09.541.09.811.721.811a8.7,8.7,0,0,1,1.533,0c.451,0,.541-.18.451-.541a3.212,3.212,0,0,0-1.713-2.164c-.9-.451-.992-.451-.992.541Zm-.992,0V70.743c0-.451-.18-.451-.541-.361A3.331,3.331,0,0,0,38.562,72c-.631,1.172-.451,1.262.811,1.262h.18C41,73.357,41,73.357,41,71.825Z" transform="translate(-17.19 -35.67)" fill="#1e49a4"/>
        <path id="Path_3534" data-name="Path 3534" d="M86.692,51.992H80.741c-.361,0-.541-.09-.541-.451s.18-.451.541-.541h11.9c.361,0,.811,0,.811.541,0,.451-.451.451-.811.451H86.692Z" transform="translate(-21.41 -33.869)" fill="#1e49a4"/>
        <path id="Path_3535" data-name="Path 3535" d="M56.913,95.9c0,1.8,0,1.713-1.8,1.8-.631,0-.9-.18-.811-.811a18.785,18.785,0,0,0,0-2.254c0-.361.09-.541.541-.541h.27C56.913,94.19,56.913,94.19,56.913,95.9Z" transform="translate(-18.86 -38.109)" fill="#fefefe"/>
        <path id="Path_3536" data-name="Path 3536" d="M52.923,95.893c0,1.713,0,1.713-1.713,1.713-.631,0-.9-.09-.811-.811a18.783,18.783,0,0,0,0-2.254c0-.361.09-.541.541-.541h.27C52.923,94.18,52.923,94.18,52.923,95.893Z" transform="translate(-18.477 -38.1)" fill="#fefefe"/>
        <path id="Path_3537" data-name="Path 3537" d="M54.39,89.6a2.886,2.886,0,0,1,2.525,2.7c0,.27,0,.451-.361.451h-.09c-2.164.18-2.164.18-2.164-1.984A4.763,4.763,0,0,0,54.39,89.6Z" transform="translate(-18.862 -37.667)" fill="#fefefe"/>
        <path id="Path_3538" data-name="Path 3538" d="M52.923,91.228c0,1.533,0,1.533-1.533,1.533-1.082,0-1.172-.09-.811-1.172a3.267,3.267,0,0,1,1.893-1.893c.361-.09.541-.09.451.361C52.923,90.416,52.923,90.777,52.923,91.228Z" transform="translate(-18.477 -37.672)" fill="#fefefe"/>
        <path id="Path_3539" data-name="Path 3539" d="M29.213,95.9c0,1.8,0,1.713-1.8,1.8-.631,0-.9-.09-.811-.811a18.784,18.784,0,0,0,0-2.254.478.478,0,0,1,.541-.541h.27C29.213,94.19,29.213,94.19,29.213,95.9Z" transform="translate(-16.135 -38.109)" fill="#fefefe"/>
        <path id="Path_3540" data-name="Path 3540" d="M33.222,96c0,1.713,0,1.623-1.623,1.713-.811,0-.992-.27-.9-.992a6.661,6.661,0,0,0,0-1.893c0-.541.18-.631.721-.631C33.222,94.2,33.222,94.11,33.222,96Z" transform="translate(-16.538 -38.119)" fill="#fefefe"/>
        <path id="Path_3541" data-name="Path 3541" d="M29.214,89.6v2.615c0,.451-.18.541-.541.541H27.411c-.9,0-.9,0-.721-.9A3.1,3.1,0,0,1,29.214,89.6Z" transform="translate(-16.137 -37.667)" fill="#fefefe"/>
        <path id="Path_3542" data-name="Path 3542" d="M30.7,89.6a3.069,3.069,0,0,1,2.525,2.434c.09.541,0,.721-.631.721-1.893,0-1.893,0-1.893-1.893C30.7,90.411,30.7,90.051,30.7,89.6Z" transform="translate(-16.54 -37.667)" fill="#fefefe"/>
        <path id="Path_3543" data-name="Path 3543" d="M52.252,77.334c-1.352,0-1.352,0-1.352-1.352,0-1.082,0-1.082,1.262-1.082,1.533,0,1.443,0,1.533,1.443,0,.811-.18,1.172-.992.992Z" transform="translate(-18.528 -36.221)" fill="#fefefe"/>
        <path id="Path_3544" data-name="Path 3544" d="M56.443,74.9c1.352,0,1.352,0,1.352,1.262,0,1.172,0,1.172-1.352,1.172-1.443,0-1.443,0-1.443-1.352C55,74.9,55,74.9,56.082,74.9Z" transform="translate(-18.931 -36.221)" fill="#fefefe"/>
        <path id="Path_3545" data-name="Path 3545" d="M54.994,71.947V71.5c0-.361-.18-.811.09-.9.361-.18.721.18,1.082.361A3.246,3.246,0,0,1,57.7,73.119c.09.361,0,.541-.451.451h-.721C54.994,73.48,54.994,73.48,54.994,71.947Z" transform="translate(-18.925 -35.792)" fill="#fefefe"/>
        <path id="Path_3546" data-name="Path 3546" d="M53.6,71.931c0,1.443,0,1.533-1.443,1.443-.361,0-.992.18-1.172-.09-.27-.451.09-.9.361-1.352a3.637,3.637,0,0,1,1.623-1.443c.451-.18.721-.18.631.361Z" transform="translate(-18.527 -35.776)" fill="#fefefe"/>
        <path id="Path_3547" data-name="Path 3547" d="M31.852,77.332c-1.352,0-1.352,0-1.352-1.352v-.631c0-.361.09-.541.451-.451h.631c1.713,0,1.623,0,1.713,1.713,0,.541-.09.811-.721.721Z" transform="translate(-16.521 -36.218)" fill="#fefefe"/>
        <path id="Path_3548" data-name="Path 3548" d="M27.743,77.334c-1.443,0-1.443,0-1.443-1.352,0-1.082,0-1.082,1.172-1.082C29,74.9,29,74.9,29,76.343c0,.992,0,.992-.992.992Z" transform="translate(-16.107 -36.221)" fill="#fefefe"/>
        <path id="Path_3549" data-name="Path 3549" d="M29.1,71.935c0,1.443,0,1.533-1.443,1.443-.361,0-.992.18-1.172-.09-.27-.451.09-.992.361-1.443a3.229,3.229,0,0,1,1.713-1.352c.451-.18.631,0,.541.451Z" transform="translate(-16.117 -35.78)" fill="#fefefe"/>
        <path id="Path_3550" data-name="Path 3550" d="M30.5,70.5a3.166,3.166,0,0,1,2.7,2.525c0,.361-.09.451-.361.361h-.09c-2.254.18-2.254.18-2.254-2.164Z" transform="translate(-16.521 -35.788)" fill="#fefefe"/>
        <path id="Path_3551" data-name="Path 3551" d="M43.849,74.9c1.352,0,1.352,0,1.352,1.262,0,1.172,0,1.172-1.262,1.172-1.533,0-1.533,0-1.443-1.352,0-1.262-.18-.992,1.082-1.082Z" transform="translate(-17.698 -36.221)" fill="#fefefe"/>
        <path id="Path_3552" data-name="Path 3552" d="M39.743,74.9c1.352,0,1.352,0,1.352,1.352,0,1.082,0,1.082-1.172,1.082-1.533,0-1.533,0-1.623-1.443,0-.811.18-1.082.992-.992Z" transform="translate(-17.288 -36.219)" fill="#fefefe"/>
        <path id="Path_3553" data-name="Path 3553" d="M42.5,71.936v-.631c0-.992.09-1.082.992-.541A3.212,3.212,0,0,1,45.2,72.928c.09.361,0,.541-.451.541a8.7,8.7,0,0,0-1.533,0c-.631.09-.811-.18-.721-.811Z" transform="translate(-17.699 -35.781)" fill="#fefefe"/>
        <path id="Path_3554" data-name="Path 3554" d="M41.1,71.933c0,1.443,0,1.443-1.443,1.443h-.18c-1.262,0-1.352-.18-.811-1.262a2.86,2.86,0,0,1,1.893-1.623c.361-.18.541-.09.541.361S41.1,71.663,41.1,71.933Z" transform="translate(-17.293 -35.778)" fill="#fefefe"/>
      </g>
    </g>
    <path id="Path_4778" data-name="Path 4778" d="M-53.733-2.7h-3.186L-57.688,0h-1.545l3.2-10.664h1.443L-51.419,0h-1.545Zm-2.849-1.179h2.52l-1.23-4.336h-.044Zm13.729.667.015.044a3.144,3.144,0,0,1-.879,2.446,3.458,3.458,0,0,1-2.5.872A3.393,3.393,0,0,1-48.831-.9,4.174,4.174,0,0,1-49.8-3.845V-6.8a4.245,4.245,0,0,1,.959-2.952,3.3,3.3,0,0,1,2.578-1.062,3.614,3.614,0,0,1,2.549.846A3.118,3.118,0,0,1-42.832-7.5l-.015.044h-1.428a2.414,2.414,0,0,0-.5-1.681,1.938,1.938,0,0,0-1.494-.538,1.763,1.763,0,0,0-1.516.736,3.558,3.558,0,0,0-.535,2.113v2.981a3.532,3.532,0,0,0,.549,2.131,1.82,1.82,0,0,0,1.553.74,1.864,1.864,0,0,0,1.45-.531,2.485,2.485,0,0,0,.483-1.7Zm9.048,0,.015.044A3.144,3.144,0,0,1-34.67-.718a3.458,3.458,0,0,1-2.5.872A3.393,3.393,0,0,1-39.782-.9a4.174,4.174,0,0,1-.974-2.948V-6.8A4.245,4.245,0,0,1-39.8-9.756a3.3,3.3,0,0,1,2.578-1.062,3.614,3.614,0,0,1,2.549.846A3.118,3.118,0,0,1-33.784-7.5l-.015.044h-1.428a2.414,2.414,0,0,0-.5-1.681,1.938,1.938,0,0,0-1.494-.538,1.763,1.763,0,0,0-1.516.736,3.558,3.558,0,0,0-.535,2.113v2.981a3.532,3.532,0,0,0,.549,2.131,1.82,1.82,0,0,0,1.553.74,1.864,1.864,0,0,0,1.45-.531,2.485,2.485,0,0,0,.483-1.7Zm9.554-.652A4.07,4.07,0,0,1-25.277-.9,3.648,3.648,0,0,1-28.024.154,3.548,3.548,0,0,1-30.727-.9a4.124,4.124,0,0,1-1-2.955V-6.79a4.154,4.154,0,0,1,1-2.959,3.52,3.52,0,0,1,2.7-1.069,3.647,3.647,0,0,1,2.75,1.066A4.088,4.088,0,0,1-24.252-6.79Zm-1.479-2.952a3.244,3.244,0,0,0-.6-2.113,2.085,2.085,0,0,0-1.7-.721,1.98,1.98,0,0,0-1.644.721,3.333,3.333,0,0,0-.575,2.113V-3.86a3.361,3.361,0,0,0,.579,2.131A1.986,1.986,0,0,0-28.024-1a2.075,2.075,0,0,0,1.7-.721,3.3,3.3,0,0,0,.593-2.135Zm8.418,4.849h.044l2.556-8.7h1.9V0h-1.479V-7.683l-.044-.007L-16.778,0H-17.8l-2.483-7.808-.044.007V0H-21.8V-10.664h1.941Zm11.692,0h.044l2.556-8.7h1.9V0H-2.6V-7.683L-2.64-7.69-5.086,0H-6.1L-8.587-7.808l-.044.007V0H-10.11V-10.664h1.941ZM8.8-3.86A4.07,4.07,0,0,1,7.778-.9,3.648,3.648,0,0,1,5.032.154,3.548,3.548,0,0,1,2.329-.9a4.124,4.124,0,0,1-1-2.955V-6.79a4.154,4.154,0,0,1,1-2.959,3.52,3.52,0,0,1,2.7-1.069,3.647,3.647,0,0,1,2.75,1.066A4.088,4.088,0,0,1,8.8-6.79ZM7.324-6.812a3.244,3.244,0,0,0-.6-2.113,2.085,2.085,0,0,0-1.7-.721,1.98,1.98,0,0,0-1.644.721,3.333,3.333,0,0,0-.575,2.113V-3.86a3.361,3.361,0,0,0,.579,2.131A1.986,1.986,0,0,0,5.032-1a2.075,2.075,0,0,0,1.7-.721A3.3,3.3,0,0,0,7.324-3.86ZM11.3,0V-10.664h3.025a3.543,3.543,0,0,1,2.823,1.282,4.9,4.9,0,0,1,1.095,3.3V-4.57a4.879,4.879,0,0,1-1.095,3.3A3.551,3.551,0,0,1,14.322,0Zm1.487-9.521v8.394h1.538a2.034,2.034,0,0,0,1.758-.963,4.3,4.3,0,0,0,.659-2.479V-6.1a4.259,4.259,0,0,0-.659-2.457,2.034,2.034,0,0,0-1.758-.963ZM25.333-2.7H22.147L21.378,0H19.833l3.2-10.664h1.443L27.647,0H26.1ZM22.484-3.875H25L23.773-8.21h-.044ZM35.055-9.521H32.228V0H30.734V-9.521H27.929v-1.143h7.126ZM38.7,0H37.211V-10.664H38.7ZM48.8-3.86A4.07,4.07,0,0,1,47.776-.9,3.648,3.648,0,0,1,45.029.154,3.548,3.548,0,0,1,42.327-.9a4.124,4.124,0,0,1-1-2.955V-6.79a4.154,4.154,0,0,1,1-2.959,3.52,3.52,0,0,1,2.7-1.069,3.647,3.647,0,0,1,2.75,1.066A4.088,4.088,0,0,1,48.8-6.79ZM47.322-6.812a3.244,3.244,0,0,0-.6-2.113,2.085,2.085,0,0,0-1.7-.721,1.98,1.98,0,0,0-1.644.721A3.333,3.333,0,0,0,42.8-6.812V-3.86a3.361,3.361,0,0,0,.579,2.131A1.986,1.986,0,0,0,45.029-1a2.075,2.075,0,0,0,1.7-.721,3.3,3.3,0,0,0,.593-2.135ZM58.45,0H56.956L52.825-7.866l-.044.015V0H51.294V-10.664h1.487L56.912-2.82l.044-.007v-7.837H58.45ZM-31.237,17h-1.487V6.336h1.487Zm10.081,0H-22.65l-4.131-7.866-.044.015V17h-1.487V6.336h1.487l4.131,7.844.044-.007V6.336h1.494Zm2.786,0V6.336h3.025a3.543,3.543,0,0,1,2.823,1.282,4.9,4.9,0,0,1,1.095,3.3V12.43a4.879,4.879,0,0,1-1.095,3.3A3.551,3.551,0,0,1-15.345,17Zm1.487-9.521v8.394h1.538a2.034,2.034,0,0,0,1.758-.963,4.3,4.3,0,0,0,.659-2.479V10.9a4.259,4.259,0,0,0-.659-2.457,2.034,2.034,0,0,0-1.758-.963ZM-1.917,6.336v7.053a3.742,3.742,0,0,1-1,2.769,3.5,3.5,0,0,1-2.585,1,3.393,3.393,0,0,1-2.538-1,3.785,3.785,0,0,1-.978-2.765V6.336h1.487v7.053a3.02,3.02,0,0,0,.56,1.937,1.791,1.791,0,0,0,1.469.7,1.866,1.866,0,0,0,1.512-.7,2.963,2.963,0,0,0,.575-1.941V6.336ZM5.6,14.319a1.752,1.752,0,0,0-.417-1.2,3.657,3.657,0,0,0-1.472-.861A6.043,6.043,0,0,1,1.4,11.045,2.546,2.546,0,0,1,.6,9.075,2.7,2.7,0,0,1,1.488,7,3.243,3.243,0,0,1,3.77,6.182a3.179,3.179,0,0,1,2.373.908,3.018,3.018,0,0,1,.864,2.278l-.015.044H5.564a2.242,2.242,0,0,0-.5-1.516,1.646,1.646,0,0,0-1.311-.579,1.544,1.544,0,0,0-1.227.5,1.823,1.823,0,0,0-.436,1.245,1.545,1.545,0,0,0,.461,1.15,4.449,4.449,0,0,0,1.553.857,5.463,5.463,0,0,1,2.219,1.245A2.71,2.71,0,0,1,7.088,14.3a2.6,2.6,0,0,1-.9,2.076,3.481,3.481,0,0,1-2.355.773,3.79,3.79,0,0,1-2.446-.835,2.8,2.8,0,0,1-1-2.4L.4,13.88H1.836A2.107,2.107,0,0,0,2.411,15.5a2.012,2.012,0,0,0,1.425.535,1.76,1.76,0,0,0,1.3-.465A1.68,1.68,0,0,0,5.6,14.319ZM15.88,7.479H13.052V17H11.558V7.479H8.753V6.336H15.88Zm3.5,4.929V17H17.9V6.343h3.142a3.35,3.35,0,0,1,2.377.784,2.927,2.927,0,0,1,.839,2.249,2.7,2.7,0,0,1-.392,1.461,2.583,2.583,0,0,1-1.124.97,2.041,2.041,0,0,1,1.183.923,3.218,3.218,0,0,1,.363,1.6v.93a4.182,4.182,0,0,0,.1.916,1.283,1.283,0,0,0,.337.659V17H23.185a1.268,1.268,0,0,1-.326-.736,6.64,6.64,0,0,1-.077-1.022v-.9a2.209,2.209,0,0,0-.414-1.414,1.384,1.384,0,0,0-1.146-.52Zm0-1.135h1.582a1.746,1.746,0,0,0,1.362-.487A1.99,1.99,0,0,0,22.767,9.4a2.133,2.133,0,0,0-.428-1.421,1.61,1.61,0,0,0-1.3-.505H19.384Zm10.33.264h.044l2.227-5.2h1.67l-3.2,6.826V17H28.967V13.052L25.824,6.336H27.48Z" transform="translate(3537 4894)" fill="#0054a5"/>
  </g>
</svg>
