<svg xmlns="http://www.w3.org/2000/svg" xmlns:xlink="http://www.w3.org/1999/xlink" viewBox="0 0 280 249">
  <defs><style>
        @import url('https://fonts.googleapis.com/css2?family=Roboto+Condensed:wght@300;400&amp;display=swap');
        </style>
    <filter id="Rectangle_342" x="0" y="0" width="280" height="249" filterUnits="userSpaceOnUse">
      <feOffset dy="3" input="SourceAlpha"/>
      <feGaussianBlur stdDeviation="3" result="blur"/>
      <feFlood flood-color="#95b2bb"/>
      <feComposite operator="in" in2="blur"/>
      <feComposite in="SourceGraphic"/>
    </filter>
  </defs>
  <g id="Group_847" data-name="Group 847" transform="translate(-4133 -4719)">
    <g transform="matrix(1, 0, 0, 1, 4133, 4719)" filter="url(#Rectangle_342)">
      <path id="Rectangle_342-2" data-name="Rectangle 342" d="M2,0H226a36,36,0,0,1,36,36V195a36,36,0,0,1-36,36H36A36,36,0,0,1,0,195V2A2,2,0,0,1,2,0Z" transform="translate(9 6)" fill="#fff"/>
    </g>
    <text style="text-align: center;font-weight:400; font-family:Roboto Condensed" id="FISHERY" transform="translate(4268 4894)" fill="#0054a5" font-size="15" font-family="RobotoCondensed-Regular, Roboto" letter-spacing="0.05em"><tspan x="-28.104" y="0">FISHERY</tspan></text>
    <g id="Layer_1" transform="translate(4225 4753)" style="mix-blend-mode: multiply;isolation: isolate">
      <g id="Group_543" data-name="Group 543" transform="translate(0 0)">
        <path id="Path_3585" data-name="Path 3585" d="M19.358,71.79a15.034,15.034,0,0,0-4.975,2.442,5.806,5.806,0,0,1-1.176.9c-.362.181-.995.362-1.266.181a1.391,1.391,0,0,1-.543-1.266,26.331,26.331,0,0,1,1.447-4.522A21.165,21.165,0,0,1,21.8,59.037a9.044,9.044,0,0,0,3.708-3.166l.271-.271h.181c3.437,10.311,11.4,13.567,21.527,13.748,0,.09.09.362,0,.543-.452,1.266-.09,1.99.995,2.894a12.367,12.367,0,0,1,4.07,6.512,3.252,3.252,0,0,1,.181.995c0,.724-.452.995-.995.633a9.649,9.649,0,0,0-4.7-1.266c-.724-.09-1.085.09-1.176.9-.633,7.055.452,13.658,4.975,19.356a22.223,22.223,0,0,0,5.517,4.975,4.972,4.972,0,0,1,.814.633,1.426,1.426,0,0,0,.09.362c-1.9.181-3.708.362-5.517.452-5.879.271-11.668-.271-17-2.985a25.9,25.9,0,0,1-14.2-17.637,41.943,41.943,0,0,1-1.176-13.025C19.358,72.423,19.358,72.152,19.358,71.79Z" transform="translate(-10.946 -33.254)" fill="#679cfc"/>
        <path id="Path_3586" data-name="Path 3586" d="M29.9,50.888a25.9,25.9,0,0,1,12.391-5.879,62.419,62.419,0,0,1,7.055-.814,3.787,3.787,0,0,0,1.9-.724,55.183,55.183,0,0,1,16.371-9.949A38.5,38.5,0,0,1,81.908,30.9a17.135,17.135,0,0,1,8.683,2.352,10.155,10.155,0,0,1,4.794,10.221,23.6,23.6,0,0,1-3.8,9.678C89.415,56.768,87.244,60.386,85.164,64a13.287,13.287,0,0,0-1.628,6.422A4.234,4.234,0,0,0,87.7,74.948,19.561,19.561,0,0,0,97.1,73.32a37.953,37.953,0,0,0,13.386-9.135l.814-.814c.543-.452,1.085-.724,1.628-.181a1.282,1.282,0,0,1,.09,1.809c-.724.814-1.447,1.538-2.171,2.261a37.767,37.767,0,0,1-16.823,9.588,15.074,15.074,0,0,1-7.507.362C82.9,76.3,81,73.862,81.094,70.064a18.293,18.293,0,0,1,2.171-7.869c2.08-3.708,4.342-7.326,6.512-10.944a21.139,21.139,0,0,0,3.075-7.688c.724-4.522-1.266-7.869-5.608-9.407a21.814,21.814,0,0,0-11.306-.543A48.747,48.747,0,0,0,52.783,45.1c-.09,0-.09.09-.09.181,1.176,1.9.724,3.98.271,5.97-.9,4.342-1.99,8.593-2.894,12.844a18.225,18.225,0,0,1-13.025-2.533A13.908,13.908,0,0,1,29.9,50.888Zm14.743-2.623a1.7,1.7,0,0,0-1.719,1.628A1.863,1.863,0,0,0,44.643,51.7a1.779,1.779,0,0,0,1.719-1.719A1.717,1.717,0,0,0,44.643,48.265Z" transform="translate(-12.715 -30.894)" fill="#679cfc"/>
        <path id="Path_3587" data-name="Path 3587" d="M49.681,128.863c-3.618,0-7.145.09-10.763,0-5.879-.181-11.758-.362-17.547-.633a5.294,5.294,0,0,1-1.176-.181,4.849,4.849,0,0,1-.995-.452c.271-.271.452-.724.724-.9a5.526,5.526,0,0,0,2.713-3.166,4.779,4.779,0,0,0,0-2.261,8.607,8.607,0,0,1-.362-4.522,2.929,2.929,0,0,1,2.08-2.352,2.551,2.551,0,0,1,2.713,1.085,16,16,0,0,1,1.447,1.99c1.99,3.347,4.794,5.7,8.683,6.331,4.522.814,9.135,1.266,13.658-.09,3.347-.995,6.06-3.166,8.864-5.065a28.166,28.166,0,0,1,5.065-2.894c2.261-.9,4.161.452,4.342,2.894.09,1.447,0,2.8,0,4.251s.271,2.713,1.9,3.347a1.385,1.385,0,0,1,.452.633,1.149,1.149,0,0,1-.724.724,26.871,26.871,0,0,1-3.889.724c-3.708.181-7.417.271-11.035.362h-6.06Z" transform="translate(-11.693 -38.862)" fill="#1664ff"/>
        <path id="Path_3588" data-name="Path 3588" d="M95.643,129.953c-4.432-.362-8.954-.633-13.386-.995a.544.544,0,0,1-.362-.09,6.084,6.084,0,0,1-.995-.633,5.4,5.4,0,0,1,.995-.543c5.156-.724,9.678-2.985,14.02-5.789,1.085-.724,2.171-1.357,3.347-1.99a8.175,8.175,0,0,1,1.9-.724,3.112,3.112,0,0,1,3.889,1.99c.543,1.266.814,2.623,1.266,3.98a17.4,17.4,0,0,0,1.085,2.261c.181.362.452.724.271.995a1.062,1.062,0,0,1-.9.543C103.15,129.41,99.442,129.682,95.643,129.953Z" transform="translate(-17.586 -39.318)" fill="#a8ddfd"/>
        <path id="Path_3589" data-name="Path 3589" d="M71.293,103.25c1.809-.633,3.437-1.176,5.065-1.809.543-.181,1.176-.543,1.628.09a2.488,2.488,0,0,1,.181,1.628,8.6,8.6,0,0,1-5.246,5.789c-3.075,1.447-7.688,1.719-10.221.724.09-.09.09-.271.181-.362,2.8-2.8,3.889-6.331,4.432-10.13a19.043,19.043,0,0,0,.181-2.261c0-.814.452-.9,1.085-.633,1.809.724,3.166,3.256,2.985,5.427A5.9,5.9,0,0,0,71.293,103.25Z" transform="translate(-15.848 -37.127)" fill="#679cfc"/>
        <path id="Path_3590" data-name="Path 3590" d="M30.28,42.187A2.514,2.514,0,0,1,27.3,39.925a3.091,3.091,0,0,1,2.171-3.437,4.328,4.328,0,0,1,4.342,1.447,2.419,2.419,0,0,1-1.538,3.98C31.637,42.006,30.913,42.1,30.28,42.187Z" transform="translate(-12.462 -31.418)" fill="#a8ddfd"/>
        <path id="Path_3591" data-name="Path 3591" d="M10.9,116.332c0-1.628,1.266-2.623,3.166-2.533a3.641,3.641,0,0,1,3.527,3.437c0,1.357-1.9,2.8-3.527,2.8A3.881,3.881,0,0,1,10.9,116.332Z" transform="translate(-10.9 -38.812)" fill="#a8ddfd"/>
        <path id="Path_3592" data-name="Path 3592" d="M90.5,107.86a2.636,2.636,0,0,1-2.8-2.713,3.869,3.869,0,0,1,3.618-3.347,2.976,2.976,0,0,1,2.894,2.894C94.3,106.413,92.494,107.86,90.5,107.86Z" transform="translate(-18.236 -37.666)" fill="#a8ddfd"/>
        <path id="Path_3593" data-name="Path 3593" d="M111,107.977c-.271,2.533-2.894,4.522-5.156,3.8a1.937,1.937,0,0,1-1.447-1.628,3.52,3.52,0,0,1,1.447-3.527,3.413,3.413,0,0,1,3.889-.271C110.275,106.711,110.546,107.434,111,107.977Z" transform="translate(-19.827 -38.055)" fill="#a8ddfd"/>
        <path id="Path_3594" data-name="Path 3594" d="M73.588,51.113c-.09,2.261-.995,3.437-2.623,3.347A3.126,3.126,0,0,1,67.8,51.384,2.993,2.993,0,0,1,70.965,48.4,2.449,2.449,0,0,1,73.588,51.113Z" transform="translate(-16.334 -32.565)" fill="#a8ddfd"/>
        <path id="Path_3595" data-name="Path 3595" d="M46.018,50.1a1.663,1.663,0,0,1,1.719,1.719,1.779,1.779,0,0,1-1.719,1.719A1.739,1.739,0,0,1,44.3,51.728,1.7,1.7,0,0,1,46.018,50.1Z" transform="translate(-14.09 -32.728)" fill="#fff"/>
      </g>
    </g>
  </g>
</svg>
