<svg xmlns="http://www.w3.org/2000/svg" xmlns:xlink="http://www.w3.org/1999/xlink"  viewBox="0 0 281 249">
  <defs>
    <filter id="Rectangle_331" x="0" y="0" width="281" height="249" filterUnits="userSpaceOnUse">
      <feOffset dy="3" input="SourceAlpha"/>
      <feGaussianBlur stdDeviation="3" result="blur"/>
      <feFlood flood-color="#95b2bb"/>
      <feComposite operator="in" in2="blur"/>
      <feComposite in="SourceGraphic"/>
    </filter>
  </defs>
  <g id="Group_1086" data-name="Group 1086" transform="translate(-3029 -3996)">
    <g transform="matrix(1, 0, 0, 1, 3029, 3996)" filter="url(#Rectangle_331)">
      <path id="Rectangle_331-2" data-name="Rectangle 331" d="M2,0H227a36,36,0,0,1,36,36V195a36,36,0,0,1-36,36H36A36,36,0,0,1,0,195V2A2,2,0,0,1,2,0Z" transform="translate(9 6)" fill="#fff"/>
    </g>
    <g id="doctor" transform="translate(3124 4031)" style="mix-blend-mode: multiply;isolation: isolate">
      <g id="Group_572" data-name="Group 572" transform="translate(22.902 26.177)">
        <path id="Path_3632" data-name="Path 3632" d="M114.688,143.441v-5.276H111.47a2.771,2.771,0,0,0-2.77,2.771v2.143a2.771,2.771,0,0,0,2.77,2.771h3.219Zm0,0" transform="translate(-108.699 -138.164)" fill="#e2ebf9"/>
        <path id="Path_3633" data-name="Path 3633" d="M316.769,138.164h-3.219v7.685h3.219a2.771,2.771,0,0,0,2.771-2.771v-2.143A2.771,2.771,0,0,0,316.769,138.164Zm0,0" transform="translate(-275.024 -138.164)" fill="#e2ebf9"/>
        <path id="Path_3634" data-name="Path 3634" d="M162.611,257.092l9.929-9.326-3.942-.732c-1.9-.382-3.271-2.59-3.271-4.53v-8.648H146.889V242.5c0,1.94-1.369,4.148-3.271,4.53l-3.942.732,9.929,9.326a9.5,9.5,0,0,0,13.006,0Zm0,0" transform="translate(-133.85 -215.858)" fill="#e2ebf9"/>
      </g>
      <path id="Path_3635" data-name="Path 3635" d="M252.324,233.855v13.114c0,1.94,1.369,4.148,3.271,4.53l3.4.973,5.01-4.706-3.942-.732c-1.9-.382-3.271-2.59-3.271-4.53v-8.648Zm0,0" transform="translate(-201.704 -189.654)" fill="#c1c8d2"/>
      <path id="Path_3636" data-name="Path 3636" d="M63.442,299.32l-12.195,8.6-12.195-8.6a2.694,2.694,0,0,0-2.282-.38l-20.487,5.834a5.854,5.854,0,0,0-4.231,4.52L7.54,334.233a2.864,2.864,0,0,0,2.935,3.283H92.019a2.864,2.864,0,0,0,2.935-3.283l-4.513-24.939a5.854,5.854,0,0,0-4.231-4.52L65.724,298.94a2.7,2.7,0,0,0-2.282.38Zm0,0" transform="translate(-6.087 -242.246)" fill="#4db2ff"/>
      <path id="Path_3637" data-name="Path 3637" d="M140.041,298.94l-3.327,1,7.341,10.273a2.121,2.121,0,0,0,2.555.719l7.093-3.013-11.509-8.6A2.425,2.425,0,0,0,140.041,298.94Zm0,0" transform="translate(-109.154 -242.375)" fill="#1664ff"/>
      <path id="Path_3638" data-name="Path 3638" d="M234.141,310.935a2.12,2.12,0,0,0,2.554-.719l7.341-10.273-.018-.005-3.308-1a2.426,2.426,0,0,0-2.154.38l-11.509,8.6Zm0,0" transform="translate(-181.277 -242.374)" fill="#1664ff"/>
      <path id="Path_3639" data-name="Path 3639" d="M202.965,347.145l-5.578,2.369,3.261,3.791h4.634l3.261-3.791Zm0,0" transform="translate(-157.805 -281.576)" fill="#1664ff"/>
      <path id="Path_3640" data-name="Path 3640" d="M200.883,379.9h-4.634l-4.28,23.434h13.194Zm0,0" transform="translate(-153.406 -308.062)" fill="#1664ff"/>
      <path id="Path_3641" data-name="Path 3641" d="M164.243,32.726c-2.776-2.39-6.677-2.235-11.83-2.292-5.154.057-9.055-.1-11.83,2.292a16.117,16.117,0,0,0-5.458,12.246V58.551c0,4.672,5.871,17.062,17.288,17.062S169.7,63.223,169.7,58.551V44.972a16.117,16.117,0,0,0-5.458-12.246Zm0,0" transform="translate(-107.253 -24.71)" fill="#fff"/>
      <path id="Path_3642" data-name="Path 3642" d="M218.788,34.784a8.462,8.462,0,0,0-3.849-1.815c0,.007,0,.013,0,.021v27.62c0,3.988-4.28,13.6-12.635,16.328a14.923,14.923,0,0,0,4.653.734c11.417,0,17.288-12.391,17.288-17.062V47.03a16.117,16.117,0,0,0-5.458-12.246Zm0,0" transform="translate(-161.308 -26.768)" fill="#e2ebf9"/>
      <path id="Path_3643" data-name="Path 3643" d="M51.248,333.608s-13.7-34.448-14.476-34.225l-20.487,5.834a5.854,5.854,0,0,0-4.231,4.52L7.541,334.675a2.865,2.865,0,0,0,2.935,3.283H92.02a2.865,2.865,0,0,0,2.935-3.283l-4.513-24.939a5.854,5.854,0,0,0-4.231-4.52l-20.486-5.834c-.782-.223-14.477,34.225-14.477,34.225Zm0,0" transform="translate(-6.088 -242.688)" fill="#fff"/>
      <path id="Path_3644" data-name="Path 3644" d="M315.2,334.675l-4.259-24.939a5.729,5.729,0,0,0-3.993-4.52l-19.335-5.834c-.2-.06-1.3,2.441-2.8,6.116l14.023,4.231a2.92,2.92,0,0,1,2.034,2.3l4.429,25.926h7.131A2.81,2.81,0,0,0,315.2,334.675Zm0,0" transform="translate(-226.329 -242.688)" fill="#e2ebf9"/>
      <path id="Path_3645" data-name="Path 3645" d="M150.711,7.5h-20.8a9.691,9.691,0,0,0-9.691,9.691V33.1a6.692,6.692,0,0,1,4.384,1.637.568.568,0,0,0,.964-.407V21.312a4.284,4.284,0,0,1,4.284-4.284h3.892a4.428,4.428,0,0,1,2.8,1l.381.312a5.35,5.35,0,0,0,6.772,0l.382-.312a4.425,4.425,0,0,1,2.8-1h3.892a4.284,4.284,0,0,1,4.283,4.284V34.33a.568.568,0,0,0,.964.407A6.692,6.692,0,0,1,160.4,33.1V17.191A9.691,9.691,0,0,0,150.711,7.5Zm0,0" transform="translate(-95.15 -6.089)" fill="#1664ff"/>
      <path id="Path_3646" data-name="Path 3646" d="M242.17,7.5h-9.307a9.689,9.689,0,0,1,9.687,9.542,4.283,4.283,0,0,1,3.963,4.271V34.33a.567.567,0,0,0,.964.407,6.692,6.692,0,0,1,4.384-1.637V17.191A9.691,9.691,0,0,0,242.17,7.5Zm0,0" transform="translate(-185.825 -6.089)" fill="#4db2ff"/>
      <path id="Path_3647" data-name="Path 3647" d="M316.721,372.96a5.886,5.886,0,1,1-5.886-5.886A5.887,5.887,0,0,1,316.721,372.96Zm0,0" transform="translate(-243.766 -297.721)" fill="#1664ff"/>
      <path id="Path_3648" data-name="Path 3648" d="M327.643,387.178a2.593,2.593,0,1,1-2.593-2.593A2.593,2.593,0,0,1,327.643,387.178Zm0,0" transform="translate(-258.094 -311.948)" fill="#4db2ff"/>
      <path id="Path_3649" data-name="Path 3649" d="M90.258,91.729l-4.5-25.039a7.264,7.264,0,0,0-5.262-5.656L68.339,57.553a12.523,12.523,0,0,0-3.5-7.586,13.643,13.643,0,0,0-5.908-3.588c.385-.4.741-.808,1.068-1.2a21.869,21.869,0,0,0,4.83-9.956h.937a4.32,4.32,0,0,0,4.422-4.2V28.871A4.2,4.2,0,0,0,67.9,25.2V20.025a1.494,1.494,0,0,0-2.984,0v5.809a9.594,9.594,0,0,0-1.983.544,1.585,1.585,0,0,0-.21.089c-.159.069-.32.142-.479.224V15.283a5.882,5.882,0,0,0-6.022-5.717H52.107A6.393,6.393,0,0,0,48.2,10.889l-.4.313a4.338,4.338,0,0,1-5.272,0l-.4-.313a6.394,6.394,0,0,0-3.907-1.323H34.1a5.882,5.882,0,0,0-6.021,5.717V26.691c-.16-.082-.32-.155-.48-.224a1.415,1.415,0,0,0-.21-.089,9.547,9.547,0,0,0-1.982-.545V11.145a8.554,8.554,0,0,1,8.757-8.314h22a8.554,8.554,0,0,1,8.757,8.314v2.225a1.494,1.494,0,0,0,2.984,0V11.145C67.9,5,62.634,0,56.161,0h-22C27.688,0,22.421,5,22.421,11.145V25.2a4.2,4.2,0,0,0-2.291,3.672v2.152a4.319,4.319,0,0,0,4.422,4.2h.937a21.869,21.869,0,0,0,4.83,9.956c.327.394.683.8,1.067,1.2a13.073,13.073,0,0,0-9.4,11.174L9.832,61.034A7.265,7.265,0,0,0,4.57,66.69L2.741,76.858A1.424,1.424,0,0,0,3.96,78.492a1.485,1.485,0,0,0,1.722-1.157l1.83-10.168a4.391,4.391,0,0,1,3.182-3.421l11.238-3.219v3.952a1.494,1.494,0,0,0,2.984,0V59.671L30.041,58.2c.482.964,1.454,3.087,3.408,7.735,1.812,4.316,4.026,9.742,6.152,15.021a1.371,1.371,0,0,0,.054.135c1.468,3.647,2.892,7.218,4.109,10.3a1.521,1.521,0,0,0,2.793,0c1.217-3.081,2.642-6.653,4.11-10.3a1.432,1.432,0,0,0,.054-.134c2.16-5.364,4.411-10.878,6.238-15.227,1.9-4.505,2.847-6.58,3.322-7.53l5.126,1.468v9.642a1.494,1.494,0,0,0,2.984,0V60.526l11.238,3.219a4.395,4.395,0,0,1,3.183,3.421l4.5,25.039a1.334,1.334,0,0,1-.328,1.143,1.491,1.491,0,0,1-1.131.5H4.466a1.493,1.493,0,0,1-1.132-.5,1.334,1.334,0,0,1-.327-1.143l1.486-8.263a1.424,1.424,0,0,0-1.219-1.634,1.486,1.486,0,0,0-1.722,1.157L.066,91.729a4.075,4.075,0,0,0,.988,3.446,4.555,4.555,0,0,0,3.412,1.5H85.858a4.554,4.554,0,0,0,3.412-1.505,4.078,4.078,0,0,0,.988-3.445ZM65.2,56.654l-5.153-1.476h-.007a4.273,4.273,0,0,0-2.619.093A3.642,3.642,0,0,1,56.4,52.841V48.719a10.291,10.291,0,0,1,8.8,7.935Zm-9.057,3.475-.2.466-.067.153-.179.412-.047.108c-.018.041-.037.086-.055.128l-.094.218-.12.279c-.03.067-.059.137-.089.206-.08.185-.161.375-.244.568l-.091.215c-.046.106-.092.215-.138.324-.033.077-.066.155-.1.234l-.134.316-.126.3-.122.288-.239.568L54,65.132l-.179.426-.109.262-.171.409-.111.266-.21.505c-.025.059-.049.117-.073.176l-.021.049-1.463-.59-.023-.01L48.133,65.21l8.4-5.96-.119.265c-.07.157-.142.322-.216.489C56.179,60.045,56.161,60.087,56.142,60.129ZM50.7,73.119q-.445,1.093-.888,2.183l-.607-3.156,2.273-2.509.556.224Q51.4,71.411,50.7,73.119Zm-11.083,0q-.7-1.711-1.334-3.257l.556-.224,2.273,2.509L40.508,75.3c-.294-.725-.59-1.455-.888-2.183ZM37.1,67l-.212-.509-.11-.263-.168-.4-.116-.277c-.056-.133-.11-.263-.165-.393-.035-.083-.07-.168-.1-.25l-.237-.564c-.045-.107-.089-.212-.134-.316l-.107-.255c-.049-.114-.1-.226-.144-.338l-.1-.225-.139-.327-.089-.209-.239-.557-.1-.226-.112-.26c-.036-.083-.071-.164-.106-.245l-.05-.115-.041-.094c-.073-.168-.145-.334-.215-.494l-.017-.04-.237-.541c-.011-.023-.021-.046-.031-.069l-.228-.516-.119-.265,8.4,5.961-3.51,1.415-.02.007-1.465.591-.021-.049L37.1,67ZM36.9,50.56a18.339,18.339,0,0,0,16.515,0v2.281a6.505,6.505,0,0,0,1.512,4.009l-9.77,6.932-9.77-6.932A6.505,6.505,0,0,0,36.9,52.841ZM43.4,70.319l-1.671-1.844,3.437-1.386L48.6,68.475,46.927,70.32H43.4Zm23.815-39.3a1.406,1.406,0,0,1-1.439,1.366h-.834v-3.67a6.77,6.77,0,0,1,1.44-.185,1.6,1.6,0,0,0,.728-.164,1.286,1.286,0,0,1,.106.5Zm-44.1,0V28.871a1.289,1.289,0,0,1,.1-.5,1.592,1.592,0,0,0,.729.164,6.905,6.905,0,0,1,1.439.185v3.67h-.834a1.405,1.405,0,0,1-1.438-1.366Zm5.256,2.954V30.258a2.178,2.178,0,0,0,1.4-.07,1.985,1.985,0,0,0,1.288-1.834V15.284A2.968,2.968,0,0,1,34.1,12.4h4.116a3.3,3.3,0,0,1,2.017.683l.4.313a7.446,7.446,0,0,0,9.05,0l.4-.313a3.305,3.305,0,0,1,2.018-.683h4.116a2.969,2.969,0,0,1,3.039,2.885v13.07a1.985,1.985,0,0,0,1.288,1.834,2.188,2.188,0,0,0,1.4.072v3.718c0,2.067-1.506,6.081-4.3,9.449a19.2,19.2,0,0,1-3.573,3.361,1.444,1.444,0,0,0-.136.1,15.158,15.158,0,0,1-17.576,0,1.445,1.445,0,0,0-.136-.1,19.249,19.249,0,0,1-3.573-3.361c-2.789-3.368-4.3-7.382-4.3-9.449ZM33.92,48.721v4.12A3.639,3.639,0,0,1,32.9,55.269a4.275,4.275,0,0,0-2.621-.092h0l-5.149,1.474a10.373,10.373,0,0,1,8.791-7.931ZM45.19,86.809a1.372,1.372,0,0,0-.152-.237c-.674-1.691-1.528-3.83-2.475-6.184l1.392-7.236h2.413l1.392,7.236c-.991,2.465-1.883,4.695-2.57,6.421Zm0,0" transform="translate(-0.001 0.001)" fill="#8a8a8a"/>
      <path id="Path_3650" data-name="Path 3650" d="M86.9,358.226H85.14a1.411,1.411,0,1,1,0-2.821H86.9a.764.764,0,0,0,.761-.823L86.632,341.4a4.328,4.328,0,0,0-.33-1.354,4.224,4.224,0,0,0-3.936-2.524h-.033l-.232,0a4.263,4.263,0,0,0-3.991,2.717,4.318,4.318,0,0,0-.253,1.159L76.83,354.582a.764.764,0,0,0,.761.823h1.758a1.411,1.411,0,1,1,0,2.821H77.591a3.585,3.585,0,0,1-3.574-3.864l1.028-13.183a7,7,0,0,1,7.037-6.479h.286a7.036,7.036,0,0,1,6.533,4.245,7.136,7.136,0,0,1,.545,2.236l1.027,13.183a3.584,3.584,0,0,1-3.574,3.864Zm0,0" transform="translate(-59.095 -271.364)" fill="#aab2b9"/>
    </g>
    <path id="Path_4771" data-name="Path 4771" d="M-9.5-3.208l.015.044a3.144,3.144,0,0,1-.879,2.446,3.458,3.458,0,0,1-2.5.872A3.393,3.393,0,0,1-15.477-.9a4.174,4.174,0,0,1-.974-2.948V-6.8a4.245,4.245,0,0,1,.959-2.952,3.3,3.3,0,0,1,2.578-1.062,3.614,3.614,0,0,1,2.549.846A3.118,3.118,0,0,1-9.478-7.5l-.015.044h-1.428a2.414,2.414,0,0,0-.5-1.681,1.938,1.938,0,0,0-1.494-.538,1.763,1.763,0,0,0-1.516.736,3.558,3.558,0,0,0-.535,2.113v2.981a3.532,3.532,0,0,0,.549,2.131,1.82,1.82,0,0,0,1.553.74,1.864,1.864,0,0,0,1.45-.531,2.485,2.485,0,0,0,.483-1.7Zm7.093.513H-5.594L-6.363,0H-7.908l3.2-10.664h1.443L-.093,0H-1.638ZM-5.257-3.875h2.52L-3.968-8.21h-.044ZM3.36-4.592V0H1.873V-10.657H5.015a3.35,3.35,0,0,1,2.377.784A2.927,2.927,0,0,1,8.23-7.625a2.7,2.7,0,0,1-.392,1.461,2.583,2.583,0,0,1-1.124.97A2.041,2.041,0,0,1,7.9-4.27a3.218,3.218,0,0,1,.363,1.6v.93a4.182,4.182,0,0,0,.1.916,1.283,1.283,0,0,0,.337.659V0H7.161a1.268,1.268,0,0,1-.326-.736,6.64,6.64,0,0,1-.077-1.022v-.9a2.209,2.209,0,0,0-.414-1.414A1.384,1.384,0,0,0,5.2-4.592Zm0-1.135H4.942A1.746,1.746,0,0,0,6.3-6.215,1.99,1.99,0,0,0,6.743-7.6a2.133,2.133,0,0,0-.428-1.421,1.61,1.61,0,0,0-1.3-.505H3.36Zm12.71.776H12.452v3.823h4.263V0h-5.75V-10.664h5.713v1.143H12.452v3.435H16.07ZM-24.362,13.917h.044l1.384-7.581h1.56L-23.563,17h-1.37l-1.86-7.566h-.044L-28.705,17h-1.37l-2.19-10.664H-30.7l1.392,7.566h.044l1.794-7.566h1.3Zm12.183-.776A4.07,4.07,0,0,1-13.2,16.1a3.648,3.648,0,0,1-2.747,1.058,3.548,3.548,0,0,1-2.7-1.058,4.124,4.124,0,0,1-1-2.955V10.21a4.154,4.154,0,0,1,1-2.959,3.52,3.52,0,0,1,2.7-1.069,3.647,3.647,0,0,1,2.75,1.066,4.088,4.088,0,0,1,1.029,2.963Zm-1.479-2.952a3.244,3.244,0,0,0-.6-2.113,2.085,2.085,0,0,0-1.7-.721,1.98,1.98,0,0,0-1.644.721,3.333,3.333,0,0,0-.575,2.113V13.14a3.361,3.361,0,0,0,.579,2.131A1.986,1.986,0,0,0-15.951,16a2.075,2.075,0,0,0,1.7-.721,3.3,3.3,0,0,0,.593-2.135Zm5.452,2.219V17H-9.693V6.343h3.142a3.35,3.35,0,0,1,2.377.784,2.927,2.927,0,0,1,.839,2.249,2.7,2.7,0,0,1-.392,1.461,2.583,2.583,0,0,1-1.124.97,2.041,2.041,0,0,1,1.183.923,3.218,3.218,0,0,1,.363,1.6v.93a4.182,4.182,0,0,0,.1.916,1.283,1.283,0,0,0,.337.659V17H-4.4a1.268,1.268,0,0,1-.326-.736,6.64,6.64,0,0,1-.077-1.022v-.9a2.209,2.209,0,0,0-.414-1.414,1.384,1.384,0,0,0-1.146-.52Zm0-1.135h1.582a1.746,1.746,0,0,0,1.362-.487A1.99,1.99,0,0,0-4.822,9.4a2.133,2.133,0,0,0-.428-1.421,1.61,1.61,0,0,0-1.3-.505H-8.206Zm9.825.93H.886V17H-.6V6.336H.886v4.673h.63L4.49,6.336h1.8l-3.516,5.01L6.563,17H4.673Zm11.912-.154H9.913v3.823h4.263V17H8.426V6.336h5.713V7.479H9.913v3.435h3.618Zm4.368.359V17H16.412V6.343h3.142a3.35,3.35,0,0,1,2.377.784,2.927,2.927,0,0,1,.839,2.249,2.7,2.7,0,0,1-.392,1.461,2.583,2.583,0,0,1-1.124.97,2.041,2.041,0,0,1,1.183.923,3.218,3.218,0,0,1,.363,1.6v.93a4.182,4.182,0,0,0,.1.916,1.283,1.283,0,0,0,.337.659V17H21.7a1.268,1.268,0,0,1-.326-.736,6.64,6.64,0,0,1-.077-1.022v-.9a2.209,2.209,0,0,0-.414-1.414,1.384,1.384,0,0,0-1.146-.52Zm0-1.135h1.582a1.746,1.746,0,0,0,1.362-.487A1.99,1.99,0,0,0,21.283,9.4a2.133,2.133,0,0,0-.428-1.421,1.61,1.61,0,0,0-1.3-.505H17.9Zm12.469,3.047a1.752,1.752,0,0,0-.417-1.2,3.657,3.657,0,0,0-1.472-.861,6.043,6.043,0,0,1-2.307-1.208,2.546,2.546,0,0,1-.806-1.97A2.7,2.7,0,0,1,26.255,7a3.243,3.243,0,0,1,2.281-.817,3.179,3.179,0,0,1,2.373.908,3.018,3.018,0,0,1,.864,2.278l-.015.044H30.331a2.242,2.242,0,0,0-.5-1.516,1.646,1.646,0,0,0-1.311-.579,1.544,1.544,0,0,0-1.227.5,1.823,1.823,0,0,0-.436,1.245,1.545,1.545,0,0,0,.461,1.15,4.449,4.449,0,0,0,1.553.857,5.463,5.463,0,0,1,2.219,1.245,2.71,2.71,0,0,1,.762,1.992,2.6,2.6,0,0,1-.9,2.076,3.481,3.481,0,0,1-2.355.773,3.79,3.79,0,0,1-2.446-.835,2.8,2.8,0,0,1-1-2.4l.015-.044H26.6a2.107,2.107,0,0,0,.575,1.619,2.012,2.012,0,0,0,1.425.535,1.76,1.76,0,0,0,1.3-.465A1.68,1.68,0,0,0,30.368,14.319Z" transform="translate(3170 4172)" fill="#0054a5"/>
  </g>
</svg>
