<svg xmlns="http://www.w3.org/2000/svg" xmlns:xlink="http://www.w3.org/1999/xlink"  viewBox="0 0 281 249">
  <defs>
    <filter id="Rectangle_332" x="0" y="0" width="281" height="249" filterUnits="userSpaceOnUse">
      <feOffset dy="3" input="SourceAlpha"/>
      <feGaussianBlur stdDeviation="3" result="blur"/>
      <feFlood flood-color="#95b2bb"/>
      <feComposite operator="in" in2="blur"/>
      <feComposite in="SourceGraphic"/>
    </filter>
  </defs>
  <g id="Group_1100" data-name="Group 1100" transform="translate(-3397 -3996)">
    <g transform="matrix(1, 0, 0, 1, 3397, 3996)" filter="url(#Rectangle_332)">
      <path id="Rectangle_332-2" data-name="Rectangle 332" d="M2,0H227a36,36,0,0,1,36,36V195a36,36,0,0,1-36,36H36A36,36,0,0,1,0,195V2A2,2,0,0,1,2,0Z" transform="translate(9 6)" fill="#fff"/>
    </g>
    <g id="Group_607" data-name="Group 607" transform="translate(3490 4031)" style="mix-blend-mode: multiply;isolation: isolate">
      <g id="cleaning" transform="translate(0 0)">
        <g id="Group_573" data-name="Group 573" transform="translate(9.53 6.766)">
          <path id="Path_3651" data-name="Path 3651" d="M66.219,24.891l30.6,26.276v38.81A4.319,4.319,0,0,1,92.5,94.3H39.943a4.319,4.319,0,0,1-4.319-4.319V51.167Z" transform="translate(-35.624 -24.891)" fill="#e2ebf9"/>
        </g>
        <g id="Group_574" data-name="Group 574" transform="translate(5.326 76.171)">
          <path id="Path_3652" data-name="Path 3652" d="M26.387,202.245H93.406a1.289,1.289,0,0,0,1.289-1.289v-.973a1.289,1.289,0,0,0-1.289-1.289H26.387a1.289,1.289,0,0,0-1.289,1.289v.973A1.289,1.289,0,0,0,26.387,202.245Z" transform="translate(-25.098 -198.694)" fill="#a4c9ff" stroke="#8a8a8a" stroke-width="3"/>
        </g>
        <g id="Group_575" data-name="Group 575" transform="translate(8.731 5.968)">
          <path id="Path_3653" data-name="Path 3653" d="M91.293,93.894H38.741a5.124,5.124,0,0,1-5.118-5.118V49.966a.8.8,0,0,1,.278-.606L64.5,23.084a.8.8,0,0,1,1.04,0l30.6,26.276a.8.8,0,0,1,.278.606v38.81A5.123,5.123,0,0,1,91.293,93.894ZM35.22,50.332V88.776a3.525,3.525,0,0,0,3.521,3.52H91.293a3.525,3.525,0,0,0,3.521-3.52V50.333l-29.8-25.59Z" transform="translate(-33.623 -22.891)" fill="#3762cc"/>
        </g>
        <g id="Group_576" data-name="Group 576" transform="translate(0)">
          <path id="Path_3654" data-name="Path 3654" d="M16.368,47.356a2.829,2.829,0,0,0,3.185-.288L50.537,21.161a2.112,2.112,0,0,1,2.7,0L84.215,47.069a2.8,2.8,0,0,0,1.8.648h0a2.781,2.781,0,0,0,1.951-.786L91.2,43.777a2.638,2.638,0,0,0-.153-3.937L53.682,8.6a2.815,2.815,0,0,0-3.595,0L12.721,39.84a2.638,2.638,0,0,0-.153,3.937L15.8,46.928A2.637,2.637,0,0,0,16.368,47.356Z" transform="translate(-11.76 -7.947)" fill="#1664ff" stroke="#8a8a8a" stroke-width="3"/>
        </g>
        <g id="Group_579" data-name="Group 579" transform="translate(21.879 37.14)">
          <g id="Group_577" data-name="Group 577" transform="translate(0 0.108)">
            <path id="Path_3655" data-name="Path 3655" d="M68.28,139.676l-1.22-.289a.664.664,0,0,1-.493-.8l8.851-37.363,2.513.6-8.851,37.363A.664.664,0,0,1,68.28,139.676Z" transform="translate(-66.548 -101.224)" fill="#8a8a8a"/>
          </g>
          <g id="Group_578" data-name="Group 578" transform="translate(25.092)">
            <path id="Path_3656" data-name="Path 3656" d="M139.051,139.482l1.221-.289a.664.664,0,0,0,.493-.8l-8.87-37.44-2.513.6,8.87,37.44A.664.664,0,0,0,139.051,139.482Z" transform="translate(-129.382 -100.953)" fill="#8a8a8a"/>
          </g>
        </g>
        <g id="Group_580" data-name="Group 580" transform="translate(38.687 21.319)">
          <path id="Path_3657" data-name="Path 3657" d="M110.57,67.724h-1.93v-5.5a.885.885,0,0,1,.885-.885h.161a.885.885,0,0,1,.885.885v5.5Z" transform="translate(-108.64 -61.334)" fill="#eef7f8"/>
        </g>
        <g id="Group_581" data-name="Group 581" transform="translate(37.889 20.52)">
          <path id="Path_3658" data-name="Path 3658" d="M109.369,67.321h-1.93a.8.8,0,0,1-.8-.8v-5.5a1.686,1.686,0,0,1,1.684-1.684h.16a1.686,1.686,0,0,1,1.684,1.684v5.5A.8.8,0,0,1,109.369,67.321Zm-1.131-1.6h.333V61.018a.086.086,0,0,0-.086-.086h-.16a.086.086,0,0,0-.086.086Z" transform="translate(-106.64 -59.334)" fill="#3762cc"/>
        </g>
        <g id="Group_582" data-name="Group 582" transform="translate(36.169 26.24)">
          <path id="Path_3659" data-name="Path 3659" d="M103.562,83h5.457a.575.575,0,0,0,.534-.566l.693-8.774h-7.911l.693,8.774A.574.574,0,0,0,103.562,83Z" transform="translate(-102.335 -73.656)" fill="#4db2ff"/>
        </g>
        <g id="Group_583" data-name="Group 583" transform="translate(35.37 25.441)">
          <path id="Path_3660" data-name="Path 3660" d="M107.817,82.593h-5.458a1.363,1.363,0,0,1-1.33-1.3l-.693-8.774a.8.8,0,0,1,.8-.862h7.912a.8.8,0,0,1,.8.862l-.693,8.774A1.363,1.363,0,0,1,107.817,82.593Zm-5.2-1.427h0Zm-.014-.17h4.96l.611-7.743H102Z" transform="translate(-100.334 -71.655)" fill="#3762cc"/>
        </g>
        <g id="Group_584" data-name="Group 584" transform="translate(80.805 41.573)">
          <path id="Path_3661" data-name="Path 3661" d="M217.825,142.489V113.451a1.4,1.4,0,0,0-1.4-1.4h-.918a1.4,1.4,0,0,0-1.4,1.4v29.038Z" transform="translate(-214.112 -112.053)" fill="#8a8a8a"/>
        </g>
        <g id="Group_585" data-name="Group 585" transform="translate(78.742 72.008)">
          <path id="Path_3662" data-name="Path 3662" d="M216.785,191.55V189.8a1.532,1.532,0,0,0-1.532-1.532h-4.775a1.532,1.532,0,0,0-1.532,1.532v1.749Z" transform="translate(-208.946 -188.269)" fill="#8a8a8a"/>
        </g>
        <g id="Group_586" data-name="Group 586" transform="translate(52.956 67.143)">
          <path id="Path_3663" data-name="Path 3663" d="M148.147,204.825h16.792a1.769,1.769,0,0,0,1.643-1.741l2.132-27H144.371l2.132,27A1.77,1.77,0,0,0,148.147,204.825Z" transform="translate(-144.371 -176.086)" fill="#4db2ff"/>
        </g>
        <g id="Group_587" data-name="Group 587" transform="translate(52.157 66.344)">
          <path id="Path_3664" data-name="Path 3664" d="M163.738,204.422H146.946a2.55,2.55,0,0,1-2.44-2.477l-2.132-27a.8.8,0,0,1,.8-.862h24.342a.8.8,0,0,1,.8.862l-2.132,27A2.549,2.549,0,0,1,163.738,204.422Zm-19.7-28.739L146.1,201.82a.991.991,0,0,0,.847,1.005h16.792a.991.991,0,0,0,.847-1.005l2.064-26.136H144.035Z" transform="translate(-142.372 -174.086)" fill="#3762cc"/>
        </g>
        <g id="Group_588" data-name="Group 588" transform="translate(51.679 67.143)">
          <path id="Path_3665" data-name="Path 3665" d="M141.479,180.695l-.3-3.621a.877.877,0,0,1,.822-.988h25.247a.877.877,0,0,1,.822.988l-.3,3.621a.859.859,0,0,1-.822.823H142.3A.86.86,0,0,1,141.479,180.695Z" transform="translate(-141.173 -176.086)" fill="#1664ff"/>
        </g>
        <g id="Group_589" data-name="Group 589" transform="translate(50.88 66.345)">
          <path id="Path_3666" data-name="Path 3666" d="M165.741,181.116H141.1a1.648,1.648,0,0,1-1.618-1.555h0l-.3-3.62a1.755,1.755,0,0,1,.449-1.333,1.575,1.575,0,0,1,1.169-.52h25.247a1.576,1.576,0,0,1,1.168.52,1.756,1.756,0,0,1,.45,1.333l-.3,3.621A1.648,1.648,0,0,1,165.741,181.116Zm-24.667-1.688a.126.126,0,0,0,.042.094l24.626,0c-.008,0,.021-.03.026-.091l.3-3.62a.142.142,0,0,0-.042-.126l-25.231,0a.243.243,0,0,0-.026.123l.3,3.62Z" transform="translate(-139.173 -174.088)" fill="#3762cc"/>
        </g>
        <g id="Group_590" data-name="Group 590" transform="translate(51.306 65.786)">
          <path id="Path_3667" data-name="Path 3667" d="M141.968,189.658h7.27a1.728,1.728,0,0,0,1.728-1.728V174.415a1.728,1.728,0,0,0-1.728-1.728h-7.27a1.728,1.728,0,0,0-1.728,1.728V187.93A1.728,1.728,0,0,0,141.968,189.658Z" transform="translate(-140.24 -172.687)" fill="#1664ff"/>
        </g>
        <g id="Group_591" data-name="Group 591" transform="translate(63.683 68.048)">
          <ellipse id="Ellipse_29" data-name="Ellipse 29" cx="1.65" cy="1.81" rx="1.65" ry="1.81" fill="#4db2ff"/>
        </g>
        <g id="Group_593" data-name="Group 593" transform="translate(64.715 69.179)">
          <g id="Group_592" data-name="Group 592">
            <path id="Path_3668" data-name="Path 3668" d="M186.2,192.726a.909.909,0,0,0,0-1.811h-3.6a6.536,6.536,0,0,1-6.16-5.129l-1-3.939a.844.844,0,0,0-.795-.662.748.748,0,0,0-.222.034.837.837,0,0,0-.5.427.977.977,0,0,0-.076.688l1,3.939a8.223,8.223,0,0,0,7.749,6.453Z" transform="translate(-173.818 -181.185)" fill="#8a8a8a"/>
          </g>
        </g>
        <g id="Group_594" data-name="Group 594" transform="translate(73.792 75.289)">
          <path id="Path_3669" data-name="Path 3669" d="M196.548,202.37h17.741v-2.427a3.457,3.457,0,0,0-3.457-3.457H200a3.457,3.457,0,0,0-3.457,3.457Z" transform="translate(-196.548 -196.486)" fill="#4db2ff"/>
        </g>
        <g id="Group_595" data-name="Group 595" transform="translate(72.488 81.173)">
          <path id="Path_3670" data-name="Path 3670" d="M194.521,225.929h17.873a1.317,1.317,0,0,0,1.231-1.5l-1.3-13.206H194.587l-1.3,13.206A1.317,1.317,0,0,0,194.521,225.929Z" transform="translate(-193.283 -211.22)" fill="#e0ebfc"/>
        </g>
        <g id="Group_596" data-name="Group 596" transform="translate(88.026 85.02)">
          <path id="Path_3671" data-name="Path 3671" d="M232.812,220.853a.651.651,0,0,1,.619.679v10.183h-1.238V221.532A.651.651,0,0,1,232.812,220.853Z" transform="translate(-232.193 -220.853)" fill="#a4c9ff"/>
        </g>
        <g id="Group_597" data-name="Group 597" transform="translate(85.55 87.283)">
          <path id="Path_3672" data-name="Path 3672" d="M226.613,226.52a.651.651,0,0,1,.619.679v7.92h-1.238V227.2A.651.651,0,0,1,226.613,226.52Z" transform="translate(-225.994 -226.52)" fill="#a4c9ff"/>
        </g>
        <g id="Group_598" data-name="Group 598" transform="translate(83.075 89.546)">
          <path id="Path_3673" data-name="Path 3673" d="M220.414,232.186a.651.651,0,0,1,.619.679v5.657h-1.238v-5.657A.651.651,0,0,1,220.414,232.186Z" transform="translate(-219.795 -232.186)" fill="#a4c9ff"/>
        </g>
        <g id="Group_599" data-name="Group 599" transform="translate(77.711 87.283)">
          <path id="Path_3674" data-name="Path 3674" d="M206.982,226.52a.651.651,0,0,1,.619.679v7.92h-1.238V227.2A.651.651,0,0,1,206.982,226.52Z" transform="translate(-206.363 -226.52)" fill="#a4c9ff"/>
        </g>
        <g id="Group_600" data-name="Group 600" transform="translate(75.236 85.02)">
          <path id="Path_3675" data-name="Path 3675" d="M200.783,220.853a.651.651,0,0,1,.619.679v10.183h-1.238V221.532A.651.651,0,0,1,200.783,220.853Z" transform="translate(-200.164 -220.853)" fill="#a4c9ff"/>
        </g>
        <g id="Group_601" data-name="Group 601" transform="translate(71.689 80.375)">
          <path id="Path_3676" data-name="Path 3676" d="M211.193,225.526H193.32a1.967,1.967,0,0,1-1.469-.662,2.233,2.233,0,0,1-.557-1.718l1.3-13.206a.8.8,0,0,1,.795-.721h17.741a.8.8,0,0,1,.795.721l1.3,13.206a2.233,2.233,0,0,1-.557,1.718A1.964,1.964,0,0,1,211.193,225.526ZM194.11,210.817,192.884,223.3a.635.635,0,0,0,.15.489.389.389,0,0,0,.286.138h17.872a.389.389,0,0,0,.286-.138.635.635,0,0,0,.15-.489L210.4,210.817Z" transform="translate(-191.284 -209.22)" fill="#3762cc"/>
        </g>
        <g id="Group_602" data-name="Group 602" transform="translate(72.993 74.491)">
          <path id="Path_3677" data-name="Path 3677" d="M213.088,201.967H195.347a.8.8,0,0,1-.8-.8v-2.427a4.261,4.261,0,0,1,4.256-4.256h10.827a4.26,4.26,0,0,1,4.255,4.256v2.427A.8.8,0,0,1,213.088,201.967Zm-16.942-1.6h16.144v-1.628a2.661,2.661,0,0,0-2.658-2.658H198.8a2.661,2.661,0,0,0-2.658,2.658v1.628Z" transform="translate(-194.548 -194.486)" fill="#3762cc"/>
        </g>
        <g id="Group_603" data-name="Group 603" transform="translate(50.507 64.987)">
          <path id="Path_3678" data-name="Path 3678" d="M148.037,189.256h-7.27a2.53,2.53,0,0,1-2.527-2.527V173.214a2.53,2.53,0,0,1,2.527-2.527h7.27a2.53,2.53,0,0,1,2.527,2.527v13.515A2.53,2.53,0,0,1,148.037,189.256Zm-7.27-16.972a.931.931,0,0,0-.93.93v13.515a.931.931,0,0,0,.93.93h7.27a.931.931,0,0,0,.93-.93V173.214a.931.931,0,0,0-.93-.93Z" transform="translate(-138.24 -170.687)" fill="#3762cc"/>
        </g>
        <g id="Group_604" data-name="Group 604" transform="translate(77.944 71.21)">
          <path id="Path_3679" data-name="Path 3679" d="M215.584,191.148h-7.839a.8.8,0,0,1-.8-.8V188.6a2.334,2.334,0,0,1,2.331-2.331h4.775a2.333,2.333,0,0,1,2.331,2.331v1.749A.8.8,0,0,1,215.584,191.148Zm-7.041-1.6h6.242v-.95a.734.734,0,0,0-.734-.734h-4.775a.734.734,0,0,0-.734.734Z" transform="translate(-206.946 -186.269)" fill="#3762cc"/>
        </g>
        <g id="Group_605" data-name="Group 605" transform="translate(20.558 35.58)">
          <path id="Path_3680" data-name="Path 3680" d="M101.576,100.24H64.039a.8.8,0,0,1-.8-.8v-1.6a.8.8,0,0,1,.8-.8h37.537a.8.8,0,0,1,.8.8v1.6A.8.8,0,0,1,101.576,100.24Z" transform="translate(-63.24 -97.045)" fill="#8a8a8a"/>
        </g>
        <g id="Group_606" data-name="Group 606" transform="translate(18.162 57.864)">
          <path id="Path_3681" data-name="Path 3681" d="M100.368,156.044H58.039a.8.8,0,0,1-.8-.8v-1.6a.8.8,0,0,1,.8-.8h42.329a.8.8,0,0,1,.8.8v1.6A.8.8,0,0,1,100.368,156.044Z" transform="translate(-57.24 -152.849)" fill="#8a8a8a"/>
        </g>
      </g>
    </g>
    <path id="Path_4784" data-name="Path 4784" d="M-66.952,0V-10.664H-64a3.626,3.626,0,0,1,2.391.718,2.644,2.644,0,0,1,.861,2.153,2.39,2.39,0,0,1-.374,1.326,2.182,2.182,0,0,1-1.04.85,2.069,2.069,0,0,1,1.432.883,2.954,2.954,0,0,1,.5,1.718,2.887,2.887,0,0,1-.846,2.245A3.33,3.33,0,0,1-63.407,0Zm1.487-4.973v3.845h2.058a1.591,1.591,0,0,0,1.245-.487,2.013,2.013,0,0,0,.439-1.4,2.163,2.163,0,0,0-.428-1.406,1.545,1.545,0,0,0-1.2-.557h-2.109Zm0-1.069h1.692a1.516,1.516,0,0,0,1.124-.465,1.791,1.791,0,0,0,.406-1.256,1.773,1.773,0,0,0-.447-1.318A1.8,1.8,0,0,0-64-9.521h-1.465Zm14.52-4.622v7.053a3.742,3.742,0,0,1-1,2.769,3.5,3.5,0,0,1-2.585,1,3.393,3.393,0,0,1-2.538-1,3.785,3.785,0,0,1-.978-2.765v-7.053h1.487v7.053A3.02,3.02,0,0,0-56-1.674a1.791,1.791,0,0,0,1.469.7,1.866,1.866,0,0,0,1.512-.7,2.963,2.963,0,0,0,.575-1.941v-7.053ZM-46.673,0H-48.16V-10.664h1.487Zm4.412-1.128h4.314V0h-5.8V-10.664h1.487ZM-35.769,0V-10.664h3.025A3.543,3.543,0,0,1-29.92-9.382a4.9,4.9,0,0,1,1.095,3.3V-4.57a4.879,4.879,0,0,1-1.095,3.3A3.551,3.551,0,0,1-32.744,0Zm1.487-9.521v8.394h1.538a2.034,2.034,0,0,0,1.758-.963,4.3,4.3,0,0,0,.659-2.479V-6.1a4.259,4.259,0,0,0-.659-2.457,2.034,2.034,0,0,0-1.758-.963ZM-24.677,0h-1.487V-10.664h1.487ZM-14.6,0H-16.09l-4.131-7.866-.044.015V0h-1.487V-10.664h1.487l4.131,7.844.044-.007v-7.837H-14.6Zm9.59-1.392A3.292,3.292,0,0,1-6.218-.315,4.331,4.331,0,0,1-8.36.154,3.646,3.646,0,0,1-11.052-.864a3.915,3.915,0,0,1-1.022-2.9V-6.929A3.95,3.95,0,0,1-11.084-9.8a3.5,3.5,0,0,1,2.629-1.018,3.485,3.485,0,0,1,2.5.835A2.915,2.915,0,0,1-5.108-7.7l-.015.044h-1.4a2.124,2.124,0,0,0-.487-1.49,1.827,1.827,0,0,0-1.417-.531,1.933,1.933,0,0,0-1.578.7,3.131,3.131,0,0,0-.575,2.032v3.179a3.162,3.162,0,0,0,.6,2.076A2,2,0,0,0-8.36-.974a2.623,2.623,0,0,0,1.2-.234A1.608,1.608,0,0,0-6.5-1.78V-4.263H-8.462V-5.347h3.457ZM8.433-3.208l.015.044A3.144,3.144,0,0,1,7.569-.718a3.458,3.458,0,0,1-2.5.872A3.393,3.393,0,0,1,2.457-.9a4.174,4.174,0,0,1-.974-2.948V-6.8a4.245,4.245,0,0,1,.959-2.952A3.3,3.3,0,0,1,5.02-10.818a3.614,3.614,0,0,1,2.549.846A3.118,3.118,0,0,1,8.455-7.5l-.015.044H7.012a2.414,2.414,0,0,0-.5-1.681A1.938,1.938,0,0,0,5.02-9.675,1.763,1.763,0,0,0,3.5-8.939a3.558,3.558,0,0,0-.535,2.113v2.981a3.532,3.532,0,0,0,.549,2.131,1.82,1.82,0,0,0,1.553.74,1.864,1.864,0,0,0,1.45-.531A2.485,2.485,0,0,0,7-3.208ZM12.3-1.128H16.61V0h-5.8V-10.664H12.3Zm11.6-3.823H20.275v3.823h4.263V0h-5.75V-10.664H24.5v1.143H20.275v3.435h3.618ZM31.5-2.7H28.313L27.543,0H26l3.2-10.664h1.443L33.813,0H32.268ZM28.649-3.875h2.52L29.938-8.21h-.044ZM42.942,0H41.448L37.317-7.866l-.044.015V0H35.786V-10.664h1.487L41.4-2.82l.044-.007v-7.837h1.494Zm4.4,0H45.86V-10.664h1.487ZM57.428,0H55.934L51.8-7.866l-.044.015V0H50.272V-10.664h1.487L55.89-2.82l.044-.007v-7.837h1.494Zm9.59-1.392A3.292,3.292,0,0,1,65.806-.315a4.331,4.331,0,0,1-2.142.469A3.646,3.646,0,0,1,60.972-.864a3.915,3.915,0,0,1-1.022-2.9V-6.929A3.95,3.95,0,0,1,60.939-9.8a3.5,3.5,0,0,1,2.629-1.018,3.485,3.485,0,0,1,2.5.835,2.915,2.915,0,0,1,.85,2.285l-.015.044H65.5a2.124,2.124,0,0,0-.487-1.49A1.827,1.827,0,0,0,63.6-9.675a1.933,1.933,0,0,0-1.578.7,3.131,3.131,0,0,0-.575,2.032v3.179a3.162,3.162,0,0,0,.6,2.076,2,2,0,0,0,1.622.714,2.623,2.623,0,0,0,1.2-.234,1.608,1.608,0,0,0,.656-.571V-4.263H63.561V-5.347h3.457ZM-43.766,15.037h.044l2.556-8.7h1.9V17h-1.479V9.317l-.044-.007L-43.231,17h-1.018l-2.483-7.808-.044.007V17h-1.479V6.336h1.941Zm12.1-.732h-3.186l-.769,2.7h-1.545l3.2-10.664h1.443L-29.356,17H-30.9Zm-2.849-1.179H-32l-1.23-4.336h-.044ZM-20.227,17h-1.494l-4.131-7.866-.044.015V17h-1.487V6.336H-25.9l4.131,7.844.044-.007V6.336h1.494Zm7.635-2.7h-3.186l-.769,2.7h-1.545l3.2-10.664h1.443L-10.278,17h-1.545Zm-2.849-1.179h2.52l-1.23-4.336H-14.2Zm13.86,2.483a3.292,3.292,0,0,1-1.212,1.077,4.331,4.331,0,0,1-2.142.469,3.646,3.646,0,0,1-2.692-1.018,3.915,3.915,0,0,1-1.022-2.9V10.071A3.95,3.95,0,0,1-7.66,7.2,3.5,3.5,0,0,1-5.031,6.182a3.485,3.485,0,0,1,2.5.835A2.915,2.915,0,0,1-1.684,9.3l-.015.044H-3.1a2.124,2.124,0,0,0-.487-1.49A1.827,1.827,0,0,0-5,7.325a1.933,1.933,0,0,0-1.578.7,3.131,3.131,0,0,0-.575,2.032v3.179a3.162,3.162,0,0,0,.6,2.076,2,2,0,0,0,1.622.714,2.623,2.623,0,0,0,1.2-.234,1.608,1.608,0,0,0,.656-.571V12.737H-5.038V11.653h3.457Zm7.825-3.56H2.626v3.823H6.888V17H1.139V6.336H6.852V7.479H2.626v3.435H6.244Zm7.334,2.988h.044l2.556-8.7h1.9V17H16.6V9.317l-.044-.007L14.113,17H13.095L10.612,9.192l-.044.007V17H9.089V6.336H11.03ZM25.93,12.049H22.312v3.823h4.263V17h-5.75V6.336h5.713V7.479H22.312v3.435H25.93ZM35.974,17H34.48L30.349,9.134l-.044.015V17H28.819V6.336h1.487l4.131,7.844.044-.007V6.336h1.494Zm8.953-9.521H42.1V17H40.606V7.479H37.8V6.336h7.126Z" transform="translate(3537 4172)" fill="#0054a5"/>
  </g>
</svg>
