<svg xmlns="http://www.w3.org/2000/svg" xmlns:xlink="http://www.w3.org/1999/xlink" viewBox="0 0 281 249">
  <defs><style>
        @import url('https://fonts.googleapis.com/css2?family=Roboto+Condensed:wght@300;400&amp;display=swap');
        </style>
    <filter id="Rectangle_333" x="0" y="0" width="281" height="249" filterUnits="userSpaceOnUse">
      <feOffset dy="3" input="SourceAlpha"/>
      <feGaussianBlur stdDeviation="3" result="blur"/>
      <feFlood flood-color="#95b2bb"/>
      <feComposite operator="in" in2="blur"/>
      <feComposite in="SourceGraphic"/>
    </filter>
  </defs>
  <g id="Group_838" data-name="Group 838" transform="translate(-3765 -3996)">
    <g transform="matrix(1, 0, 0, 1, 3765, 3996)" filter="url(#Rectangle_333)">
      <path id="Rectangle_333-2" data-name="Rectangle 333" d="M2,0H227a36,36,0,0,1,36,36V195a36,36,0,0,1-36,36H36A36,36,0,0,1,0,195V2A2,2,0,0,1,2,0Z" transform="translate(9 6)" fill="#fff"/>
    </g>
    <text style="text-align: center;font-weight:400; font-family:Roboto Condensed" id="MACHINE_PARTS_TOOLING_INDUSTRIES" data-name="MACHINE  PARTS &amp; 
TOOLING INDUSTRIES" transform="translate(3906 4172)" fill="#0054a5" font-size="15" font-family="RobotoCondensed-Regular, Roboto" letter-spacing="0.05em"><tspan x="-64.835" y="0" xml:space="preserve">MACHINE  PARTS &amp; </tspan><tspan x="-71.985" y="17">TOOLING INDUSTRIES</tspan></text>
    <g id="Group_610" data-name="Group 610" transform="translate(3856 4031)" style="mix-blend-mode: multiply;isolation: isolate">
      <g id="settings" transform="translate(0)">
        <path id="Path_3682" data-name="Path 3682" d="M94.012,47.006q0,1.54-.1,3.052A46.779,46.779,0,0,1,82.5,77.823q-1.212,1.393-2.527,2.688a47.192,47.192,0,0,1-9.6,7.293A46.746,46.746,0,0,1,52.484,93.7a47.394,47.394,0,0,1-5.478.316q-1.22,0-2.425-.061A46.974,46.974,0,0,1,.508,53.942Q.186,51.766.067,49.527,0,48.275,0,47.006A47,47,0,0,1,41.354.338h0A47.365,47.365,0,0,1,47.006,0,46.982,46.982,0,0,1,94.012,47.006Z" transform="translate(2.998)" fill="none" stroke="#6e9eff" stroke-width="6" opacity="0.53"/>
        <g id="Group_608" data-name="Group 608" transform="translate(0 0.342)">
          <path id="Path_3683" data-name="Path 3683" d="M61.566,195.7l-2.883-.189a3.915,3.915,0,0,1-3.486-2.747,29.468,29.468,0,0,0-2.107-5.087,3.919,3.919,0,0,1,.517-4.416l1.906-2.176a3.924,3.924,0,0,0-.176-5.359l-2.7-2.7a3.922,3.922,0,0,0-5.361-.176l-2.172,1.9a3.92,3.92,0,0,1-4.418.519,29.513,29.513,0,0,0-5.09-2.111,3.916,3.916,0,0,1-2.745-3.484l-.191-2.883a3.92,3.92,0,0,0-3.913-3.664H24.93a3.923,3.923,0,0,0-3.915,3.666l-.018.262-.174,2.618a3.915,3.915,0,0,1-2.745,3.484,29.459,29.459,0,0,0-5.086,2.109,3.915,3.915,0,0,1-4.418-.517L6.4,172.847a3.922,3.922,0,0,0-5.359.177l-.517.517A48.407,48.407,0,0,0,0,180.667q0,1.305.069,2.593a3.9,3.9,0,0,1,.969,2.581,3.974,3.974,0,0,1-.46,1.853c-.018.036-.038.071-.055.106a48,48,0,0,0,5.538,16.323,48.548,48.548,0,0,0,17.556,18.091,48.041,48.041,0,0,0,16.13,6.032c.322-.154.637-.316.953-.482a3.91,3.91,0,0,1,4.4.527l.746.653q1.241.062,2.494.063a48.685,48.685,0,0,0,5.633-.326l1.361-1.361a3.922,3.922,0,0,0,.177-5.359l-1.906-2.176a3.919,3.919,0,0,1-.517-4.416,29.411,29.411,0,0,0,2.107-5.089,3.916,3.916,0,0,1,3.486-2.745l2.885-.191a3.92,3.92,0,0,0,3.664-3.913v-3.818A3.923,3.923,0,0,0,61.566,195.7ZM13.9,201.522a12.933,12.933,0,1,1,12.933,12.936A12.934,12.934,0,0,1,13.9,201.522Z" transform="translate(0 -132.669)" fill="#679cfc"/>
          <path id="Path_3684" data-name="Path 3684" d="M306.8,30.426,303.334,28.8a1.268,1.268,0,0,1-.718-1.3,18.628,18.628,0,0,0-.11-5.008,1.27,1.27,0,0,1,.663-1.328l3.4-1.77a1.262,1.262,0,0,0,.572-1.628l-1.892-4.307a1.264,1.264,0,0,0-1.586-.679l-3.6,1.31a1.269,1.269,0,0,1-1.427-.412,18.724,18.724,0,0,0-3.615-3.467,1.267,1.267,0,0,1-.47-1.4l1.15-3.652a1.261,1.261,0,0,0-.746-1.557L290.572,1.9a1.265,1.265,0,0,0-1.6.643l-.554,1.188-1.067,2.281a1.267,1.267,0,0,1-1.3.718,18.614,18.614,0,0,0-5.006.11,1.271,1.271,0,0,1-1.33-.661l-1.77-3.4a1.261,1.261,0,0,0-1.628-.572L273.193,3.58l-1.18.517a1.262,1.262,0,0,0-.679,1.586l1.308,3.6a1.267,1.267,0,0,1-.412,1.427,18.659,18.659,0,0,0-3.467,3.613,1.266,1.266,0,0,1-1.4.47l-3.652-1.152a1.262,1.262,0,0,0-1.555.746l-1.707,4.382a1.264,1.264,0,0,0,.641,1.6L264.557,22a1.269,1.269,0,0,1,.716,1.3,18.713,18.713,0,0,0,.11,5.008,1.265,1.265,0,0,1-.661,1.328l-3.4,1.77a1.263,1.263,0,0,0-.574,1.628l1.892,4.307a1.265,1.265,0,0,0,1.586.679l3.6-1.308a1.268,1.268,0,0,1,1.427.41,18.7,18.7,0,0,0,3.613,3.465,1.27,1.27,0,0,1,.471,1.407l-1.152,3.654a1.26,1.26,0,0,0,.746,1.555l4.38,1.707a1.263,1.263,0,0,0,1.6-.643l1.622-3.471a1.267,1.267,0,0,1,1.3-.718,18.708,18.708,0,0,0,5.008-.109,1.27,1.27,0,0,1,1.328.661l1.77,3.4a1.265,1.265,0,0,0,1.628.574l4.307-1.894a1.263,1.263,0,0,0,.679-1.586l-1.308-3.6a1.268,1.268,0,0,1,.41-1.427,18.68,18.68,0,0,0,3.467-3.617,1.27,1.27,0,0,1,1.4-.47l3.654,1.152a1.262,1.262,0,0,0,1.557-.746l1.7-4.38A1.26,1.26,0,0,0,306.8,30.426Zm-15.394-1.661a8.188,8.188,0,1,1-4.9-11.138A8.217,8.217,0,0,1,291.411,28.765Z" transform="translate(-208.197 -1.814)" fill="#3762cc"/>
          <path id="Path_3685" data-name="Path 3685" d="M381.345,270.6a2.333,2.333,0,0,0-2.519,1.956l-.045.283-.274,1.715a2.322,2.322,0,0,1-1.817,1.913,18.452,18.452,0,0,0-3.47,1.076,2.324,2.324,0,0,1-2.588-.548l-1.395-1.471a2.333,2.333,0,0,0-3.185-.189l-1.826,1.517-.2.169a2.333,2.333,0,0,0-.4,3.165l1.189,1.641a2.324,2.324,0,0,1,.063,2.644,18.508,18.508,0,0,0-1.7,3.214,2.321,2.321,0,0,1-2.215,1.434l-2.022-.054a2.333,2.333,0,0,0-2.386,2.117l-.244,2.627a2.333,2.333,0,0,0,1.955,2.519l2,.319a2.321,2.321,0,0,1,1.913,1.816,18.567,18.567,0,0,0,1.077,3.472,2.325,2.325,0,0,1-.549,2.587l-1.472,1.394a2.333,2.333,0,0,0-.191,3.184l.3.368a48.162,48.162,0,0,0,12.37-10.179,8.12,8.12,0,0,1,7.465-12.65c.147.014.292.031.436.053a47.719,47.719,0,0,0,3.739-15.718Z" transform="translate(-286.022 -219.833)" fill="#8a8a8a"/>
        </g>
        <g id="Group_609" data-name="Group 609" transform="translate(8.9 8.346)">
          <path id="Path_3686" data-name="Path 3686" d="M318.332,44.2a15.583,15.583,0,1,0,15.583,15.583A15.583,15.583,0,0,0,318.332,44.2ZM325.8,63.147A8.188,8.188,0,1,1,320.9,52.008,8.217,8.217,0,0,1,325.8,63.147Z" transform="translate(-251.483 -44.199)" fill="#4db2ff"/>
          <path id="Path_3687" data-name="Path 3687" d="M52.189,255.582a20.936,20.936,0,0,0-20.936,20.932,21.387,21.387,0,0,0,.16,2.6,48.549,48.549,0,0,0,17.556,18.091,20.937,20.937,0,1,0,3.22-41.626Zm0,33.87a12.934,12.934,0,1,1,12.933-12.935A12.935,12.935,0,0,1,52.189,289.452Z" transform="translate(-31.253 -215.667)" fill="#3762cc"/>
        </g>
      </g>
    </g>
  </g>
</svg>
