<svg xmlns="http://www.w3.org/2000/svg" xmlns:xlink="http://www.w3.org/1999/xlink"  viewBox="0 0 281 249">
  <defs>
    <filter id="Rectangle_333" x="0" y="0" width="281" height="249" filterUnits="userSpaceOnUse">
      <feOffset dy="3" input="SourceAlpha"/>
      <feGaussianBlur stdDeviation="3" result="blur"/>
      <feFlood flood-color="#95b2bb"/>
      <feComposite operator="in" in2="blur"/>
      <feComposite in="SourceGraphic"/>
    </filter>
  </defs>
  <g id="Group_1088" data-name="Group 1088" transform="translate(-3765 -3996)">
    <g transform="matrix(1, 0, 0, 1, 3765, 3996)" filter="url(#Rectangle_333)">
      <path id="Rectangle_333-2" data-name="Rectangle 333" d="M2,0H227a36,36,0,0,1,36,36V195a36,36,0,0,1-36,36H36A36,36,0,0,1,0,195V2A2,2,0,0,1,2,0Z" transform="translate(9 6)" fill="#fff"/>
    </g>
    <g id="Group_610" data-name="Group 610" transform="translate(3856 4031)" style="mix-blend-mode: multiply;isolation: isolate">
      <g id="settings" transform="translate(0)">
        <path id="Path_3682" data-name="Path 3682" d="M94.012,47.006q0,1.54-.1,3.052A46.779,46.779,0,0,1,82.5,77.823q-1.212,1.393-2.527,2.688a47.192,47.192,0,0,1-9.6,7.293A46.746,46.746,0,0,1,52.484,93.7a47.394,47.394,0,0,1-5.478.316q-1.22,0-2.425-.061A46.974,46.974,0,0,1,.508,53.942Q.186,51.766.067,49.527,0,48.275,0,47.006A47,47,0,0,1,41.354.338h0A47.365,47.365,0,0,1,47.006,0,46.982,46.982,0,0,1,94.012,47.006Z" transform="translate(2.998)" fill="none" stroke="#6e9eff" stroke-width="6" opacity="0.53"/>
        <g id="Group_608" data-name="Group 608" transform="translate(0 0.342)">
          <path id="Path_3683" data-name="Path 3683" d="M61.566,195.7l-2.883-.189a3.915,3.915,0,0,1-3.486-2.747,29.468,29.468,0,0,0-2.107-5.087,3.919,3.919,0,0,1,.517-4.416l1.906-2.176a3.924,3.924,0,0,0-.176-5.359l-2.7-2.7a3.922,3.922,0,0,0-5.361-.176l-2.172,1.9a3.92,3.92,0,0,1-4.418.519,29.513,29.513,0,0,0-5.09-2.111,3.916,3.916,0,0,1-2.745-3.484l-.191-2.883a3.92,3.92,0,0,0-3.913-3.664H24.93a3.923,3.923,0,0,0-3.915,3.666l-.018.262-.174,2.618a3.915,3.915,0,0,1-2.745,3.484,29.459,29.459,0,0,0-5.086,2.109,3.915,3.915,0,0,1-4.418-.517L6.4,172.847a3.922,3.922,0,0,0-5.359.177l-.517.517A48.407,48.407,0,0,0,0,180.667q0,1.305.069,2.593a3.9,3.9,0,0,1,.969,2.581,3.974,3.974,0,0,1-.46,1.853c-.018.036-.038.071-.055.106a48,48,0,0,0,5.538,16.323,48.548,48.548,0,0,0,17.556,18.091,48.041,48.041,0,0,0,16.13,6.032c.322-.154.637-.316.953-.482a3.91,3.91,0,0,1,4.4.527l.746.653q1.241.062,2.494.063a48.685,48.685,0,0,0,5.633-.326l1.361-1.361a3.922,3.922,0,0,0,.177-5.359l-1.906-2.176a3.919,3.919,0,0,1-.517-4.416,29.411,29.411,0,0,0,2.107-5.089,3.916,3.916,0,0,1,3.486-2.745l2.885-.191a3.92,3.92,0,0,0,3.664-3.913v-3.818A3.923,3.923,0,0,0,61.566,195.7ZM13.9,201.522a12.933,12.933,0,1,1,12.933,12.936A12.934,12.934,0,0,1,13.9,201.522Z" transform="translate(0 -132.669)" fill="#679cfc"/>
          <path id="Path_3684" data-name="Path 3684" d="M306.8,30.426,303.334,28.8a1.268,1.268,0,0,1-.718-1.3,18.628,18.628,0,0,0-.11-5.008,1.27,1.27,0,0,1,.663-1.328l3.4-1.77a1.262,1.262,0,0,0,.572-1.628l-1.892-4.307a1.264,1.264,0,0,0-1.586-.679l-3.6,1.31a1.269,1.269,0,0,1-1.427-.412,18.724,18.724,0,0,0-3.615-3.467,1.267,1.267,0,0,1-.47-1.4l1.15-3.652a1.261,1.261,0,0,0-.746-1.557L290.572,1.9a1.265,1.265,0,0,0-1.6.643l-.554,1.188-1.067,2.281a1.267,1.267,0,0,1-1.3.718,18.614,18.614,0,0,0-5.006.11,1.271,1.271,0,0,1-1.33-.661l-1.77-3.4a1.261,1.261,0,0,0-1.628-.572L273.193,3.58l-1.18.517a1.262,1.262,0,0,0-.679,1.586l1.308,3.6a1.267,1.267,0,0,1-.412,1.427,18.659,18.659,0,0,0-3.467,3.613,1.266,1.266,0,0,1-1.4.47l-3.652-1.152a1.262,1.262,0,0,0-1.555.746l-1.707,4.382a1.264,1.264,0,0,0,.641,1.6L264.557,22a1.269,1.269,0,0,1,.716,1.3,18.713,18.713,0,0,0,.11,5.008,1.265,1.265,0,0,1-.661,1.328l-3.4,1.77a1.263,1.263,0,0,0-.574,1.628l1.892,4.307a1.265,1.265,0,0,0,1.586.679l3.6-1.308a1.268,1.268,0,0,1,1.427.41,18.7,18.7,0,0,0,3.613,3.465,1.27,1.27,0,0,1,.471,1.407l-1.152,3.654a1.26,1.26,0,0,0,.746,1.555l4.38,1.707a1.263,1.263,0,0,0,1.6-.643l1.622-3.471a1.267,1.267,0,0,1,1.3-.718,18.708,18.708,0,0,0,5.008-.109,1.27,1.27,0,0,1,1.328.661l1.77,3.4a1.265,1.265,0,0,0,1.628.574l4.307-1.894a1.263,1.263,0,0,0,.679-1.586l-1.308-3.6a1.268,1.268,0,0,1,.41-1.427,18.68,18.68,0,0,0,3.467-3.617,1.27,1.27,0,0,1,1.4-.47l3.654,1.152a1.262,1.262,0,0,0,1.557-.746l1.7-4.38A1.26,1.26,0,0,0,306.8,30.426Zm-15.394-1.661a8.188,8.188,0,1,1-4.9-11.138A8.217,8.217,0,0,1,291.411,28.765Z" transform="translate(-208.197 -1.814)" fill="#3762cc"/>
          <path id="Path_3685" data-name="Path 3685" d="M381.345,270.6a2.333,2.333,0,0,0-2.519,1.956l-.045.283-.274,1.715a2.322,2.322,0,0,1-1.817,1.913,18.452,18.452,0,0,0-3.47,1.076,2.324,2.324,0,0,1-2.588-.548l-1.395-1.471a2.333,2.333,0,0,0-3.185-.189l-1.826,1.517-.2.169a2.333,2.333,0,0,0-.4,3.165l1.189,1.641a2.324,2.324,0,0,1,.063,2.644,18.508,18.508,0,0,0-1.7,3.214,2.321,2.321,0,0,1-2.215,1.434l-2.022-.054a2.333,2.333,0,0,0-2.386,2.117l-.244,2.627a2.333,2.333,0,0,0,1.955,2.519l2,.319a2.321,2.321,0,0,1,1.913,1.816,18.567,18.567,0,0,0,1.077,3.472,2.325,2.325,0,0,1-.549,2.587l-1.472,1.394a2.333,2.333,0,0,0-.191,3.184l.3.368a48.162,48.162,0,0,0,12.37-10.179,8.12,8.12,0,0,1,7.465-12.65c.147.014.292.031.436.053a47.719,47.719,0,0,0,3.739-15.718Z" transform="translate(-286.022 -219.833)" fill="#8a8a8a"/>
        </g>
        <g id="Group_609" data-name="Group 609" transform="translate(8.9 8.346)">
          <path id="Path_3686" data-name="Path 3686" d="M318.332,44.2a15.583,15.583,0,1,0,15.583,15.583A15.583,15.583,0,0,0,318.332,44.2ZM325.8,63.147A8.188,8.188,0,1,1,320.9,52.008,8.217,8.217,0,0,1,325.8,63.147Z" transform="translate(-251.483 -44.199)" fill="#4db2ff"/>
          <path id="Path_3687" data-name="Path 3687" d="M52.189,255.582a20.936,20.936,0,0,0-20.936,20.932,21.387,21.387,0,0,0,.16,2.6,48.549,48.549,0,0,0,17.556,18.091,20.937,20.937,0,1,0,3.22-41.626Zm0,33.87a12.934,12.934,0,1,1,12.933-12.935A12.935,12.935,0,0,1,52.189,289.452Z" transform="translate(-31.253 -215.667)" fill="#3762cc"/>
        </g>
      </g>
    </g>
    <path id="Path_4772" data-name="Path 4772" d="M-59.372-1.963h.044l2.556-8.7h1.9V0h-1.479V-7.683l-.044-.007L-58.837,0h-1.018l-2.483-7.808-.044.007V0h-1.479V-10.664h1.941Zm12.1-.732h-3.186L-51.231,0h-1.545l3.2-10.664h1.443L-44.962,0h-1.545Zm-2.849-1.179h2.52l-1.23-4.336h-.044Zm13.729.667.015.044a3.144,3.144,0,0,1-.879,2.446,3.458,3.458,0,0,1-2.5.872A3.393,3.393,0,0,1-42.374-.9a4.174,4.174,0,0,1-.974-2.948V-6.8a4.245,4.245,0,0,1,.959-2.952,3.3,3.3,0,0,1,2.578-1.062,3.614,3.614,0,0,1,2.549.846A3.118,3.118,0,0,1-36.375-7.5l-.015.044h-1.428a2.414,2.414,0,0,0-.5-1.681,1.938,1.938,0,0,0-1.494-.538,1.763,1.763,0,0,0-1.516.736,3.558,3.558,0,0,0-.535,2.113v2.981a3.532,3.532,0,0,0,.549,2.131,1.82,1.82,0,0,0,1.553.74,1.864,1.864,0,0,0,1.45-.531,2.485,2.485,0,0,0,.483-1.7ZM-26.873,0h-1.487V-4.7h-4.175V0h-1.487V-10.664h1.487v4.827h4.175v-4.827h1.487Zm4.4,0h-1.487V-10.664h1.487Zm10.081,0h-1.494l-4.131-7.866-.044.015V0h-1.487V-10.664h1.487l4.131,7.844.044-.007v-7.837h1.494ZM-4.5-4.951H-8.114v3.823h4.263V0H-9.6V-10.664h5.713v1.143H-8.114v3.435H-4.5ZM7.972-4.2V0H6.485V-10.664H9.949a3.152,3.152,0,0,1,2.377.89,3.224,3.224,0,0,1,.861,2.34,3.221,3.221,0,0,1-.861,2.344A3.159,3.159,0,0,1,9.949-4.2Zm0-1.143H9.949a1.543,1.543,0,0,0,1.311-.59,2.386,2.386,0,0,0,.447-1.483,2.46,2.46,0,0,0-.443-1.5,1.53,1.53,0,0,0-1.315-.6H7.972ZM19.217-2.7H16.031L15.262,0H13.717l3.2-10.664H18.36L21.532,0H19.986ZM16.368-3.875h2.52L17.657-8.21h-.044Zm8.616-.718V0H23.5V-10.657H26.64a3.35,3.35,0,0,1,2.377.784,2.927,2.927,0,0,1,.839,2.249,2.7,2.7,0,0,1-.392,1.461,2.583,2.583,0,0,1-1.124.97,2.041,2.041,0,0,1,1.183.923,3.218,3.218,0,0,1,.363,1.6v.93a4.182,4.182,0,0,0,.1.916,1.283,1.283,0,0,0,.337.659V0H28.786a1.268,1.268,0,0,1-.326-.736,6.64,6.64,0,0,1-.077-1.022v-.9a2.209,2.209,0,0,0-.414-1.414,1.384,1.384,0,0,0-1.146-.52Zm0-1.135h1.582a1.746,1.746,0,0,0,1.362-.487A1.99,1.99,0,0,0,28.368-7.6a2.133,2.133,0,0,0-.428-1.421,1.61,1.61,0,0,0-1.3-.505H24.984Zm13.4-3.794H35.556V0H34.062V-9.521H31.257v-1.143h7.126Zm6.771,6.841a1.752,1.752,0,0,0-.417-1.2,3.657,3.657,0,0,0-1.472-.861,6.043,6.043,0,0,1-2.307-1.208,2.546,2.546,0,0,1-.806-1.97A2.7,2.7,0,0,1,41.041-10a3.243,3.243,0,0,1,2.281-.817A3.179,3.179,0,0,1,45.7-9.91a3.018,3.018,0,0,1,.864,2.278l-.015.044H45.117a2.242,2.242,0,0,0-.5-1.516,1.646,1.646,0,0,0-1.311-.579,1.544,1.544,0,0,0-1.227.5,1.823,1.823,0,0,0-.436,1.245,1.545,1.545,0,0,0,.461,1.15,4.449,4.449,0,0,0,1.553.857,5.463,5.463,0,0,1,2.219,1.245A2.71,2.71,0,0,1,46.641-2.7a2.6,2.6,0,0,1-.9,2.076,3.481,3.481,0,0,1-2.355.773,3.79,3.79,0,0,1-2.446-.835,2.8,2.8,0,0,1-1-2.4l.015-.044h1.436A2.107,2.107,0,0,0,41.964-1.5a2.012,2.012,0,0,0,1.425.535,1.76,1.76,0,0,0,1.3-.465A1.68,1.68,0,0,0,45.154-2.681Zm7.418-.125a2.719,2.719,0,0,1,.461-1.575A6.55,6.55,0,0,1,54.41-5.771a7.02,7.02,0,0,1-.74-1.289,3.034,3.034,0,0,1-.242-1.179,2.607,2.607,0,0,1,.659-1.908,2.412,2.412,0,0,1,1.8-.67,2.224,2.224,0,0,1,1.67.656,2.21,2.21,0,0,1,.637,1.6,2.39,2.39,0,0,1-.3,1.234,3.867,3.867,0,0,1-.89,1l-.813.659,2.168,2.856L58.4-2.82a3.9,3.9,0,0,0,.366-.967A4.884,4.884,0,0,0,58.9-4.944h1.26a6.1,6.1,0,0,1-.245,1.776,4.39,4.39,0,0,1-.736,1.439L60.489,0h-1.75L58.16-.769a4.119,4.119,0,0,1-1.168.688,3.681,3.681,0,0,1-1.315.234,3.113,3.113,0,0,1-2.263-.817A2.849,2.849,0,0,1,52.572-2.805ZM55.721-.974a2.585,2.585,0,0,0,.923-.172,2.881,2.881,0,0,0,.85-.509L55.128-4.8l-.154.125a3.088,3.088,0,0,0-.71.985,2.308,2.308,0,0,0-.183.853,2.049,2.049,0,0,0,.432,1.337A1.471,1.471,0,0,0,55.721-.974Zm-.894-7.28a2.031,2.031,0,0,0,.165.769,4.523,4.523,0,0,0,.494.872l.754-.586a1.593,1.593,0,0,0,.509-.615,1.815,1.815,0,0,0,.135-.71,1.256,1.256,0,0,0-.271-.813.906.906,0,0,0-.747-.337.871.871,0,0,0-.765.41A1.776,1.776,0,0,0,54.828-8.254ZM-64.588,7.479h-2.827V17h-1.494V7.479h-2.805V6.336h7.126Zm9,5.662A4.07,4.07,0,0,1-56.616,16.1a3.648,3.648,0,0,1-2.747,1.058,3.548,3.548,0,0,1-2.7-1.058,4.124,4.124,0,0,1-1-2.955V10.21a4.154,4.154,0,0,1,1-2.959,3.52,3.52,0,0,1,2.7-1.069,3.647,3.647,0,0,1,2.75,1.066,4.088,4.088,0,0,1,1.029,2.963Zm-1.479-2.952a3.244,3.244,0,0,0-.6-2.113,2.085,2.085,0,0,0-1.7-.721,1.98,1.98,0,0,0-1.644.721,3.333,3.333,0,0,0-.575,2.113V13.14a3.361,3.361,0,0,0,.579,2.131A1.986,1.986,0,0,0-59.363,16a2.075,2.075,0,0,0,1.7-.721,3.3,3.3,0,0,0,.593-2.135Zm11.15,2.952A4.07,4.07,0,0,1-46.945,16.1a3.648,3.648,0,0,1-2.747,1.058,3.548,3.548,0,0,1-2.7-1.058,4.124,4.124,0,0,1-1-2.955V10.21a4.154,4.154,0,0,1,1-2.959,3.52,3.52,0,0,1,2.7-1.069,3.647,3.647,0,0,1,2.75,1.066A4.088,4.088,0,0,1-45.92,10.21ZM-47.4,10.188A3.244,3.244,0,0,0-48,8.075a2.085,2.085,0,0,0-1.7-.721,1.98,1.98,0,0,0-1.644.721,3.333,3.333,0,0,0-.575,2.113V13.14a3.361,3.361,0,0,0,.579,2.131A1.986,1.986,0,0,0-49.692,16a2.075,2.075,0,0,0,1.7-.721A3.3,3.3,0,0,0-47.4,13.14Zm5.459,5.684h4.314V17h-5.8V6.336h1.487ZM-33.829,17h-1.487V6.336h1.487Zm10.081,0h-1.494l-4.131-7.866-.044.015V17H-30.9V6.336h1.487l4.131,7.844.044-.007V6.336h1.494Zm9.59-1.392a3.292,3.292,0,0,1-1.212,1.077,4.331,4.331,0,0,1-2.142.469A3.646,3.646,0,0,1-20.2,16.136a3.915,3.915,0,0,1-1.022-2.9V10.071A3.95,3.95,0,0,1-20.237,7.2a3.5,3.5,0,0,1,2.629-1.018,3.485,3.485,0,0,1,2.5.835A2.915,2.915,0,0,1-14.26,9.3l-.015.044h-1.4a2.124,2.124,0,0,0-.487-1.49,1.827,1.827,0,0,0-1.417-.531,1.933,1.933,0,0,0-1.578.7,3.131,3.131,0,0,0-.575,2.032v3.179a3.162,3.162,0,0,0,.6,2.076,2,2,0,0,0,1.622.714,2.623,2.623,0,0,0,1.2-.234,1.608,1.608,0,0,0,.656-.571V12.737h-1.963V11.653h3.457ZM-5.773,17H-7.26V6.336h1.487ZM4.308,17H2.814L-1.317,9.134l-.044.015V17H-2.848V6.336h1.487L2.77,14.18l.044-.007V6.336H4.308Zm2.786,0V6.336h3.025a3.543,3.543,0,0,1,2.823,1.282,4.9,4.9,0,0,1,1.095,3.3V12.43a4.879,4.879,0,0,1-1.095,3.3A3.551,3.551,0,0,1,10.119,17ZM8.581,7.479v8.394h1.538a2.034,2.034,0,0,0,1.758-.963,4.3,4.3,0,0,0,.659-2.479V10.9a4.259,4.259,0,0,0-.659-2.457,2.034,2.034,0,0,0-1.758-.963ZM23.547,6.336v7.053a3.742,3.742,0,0,1-1,2.769,3.5,3.5,0,0,1-2.585,1,3.393,3.393,0,0,1-2.538-1,3.785,3.785,0,0,1-.978-2.765V6.336h1.487v7.053a3.02,3.02,0,0,0,.56,1.937,1.791,1.791,0,0,0,1.469.7,1.866,1.866,0,0,0,1.512-.7,2.963,2.963,0,0,0,.575-1.941V6.336Zm7.518,7.983a1.752,1.752,0,0,0-.417-1.2,3.657,3.657,0,0,0-1.472-.861,6.043,6.043,0,0,1-2.307-1.208,2.546,2.546,0,0,1-.806-1.97A2.7,2.7,0,0,1,26.952,7a3.243,3.243,0,0,1,2.281-.817,3.179,3.179,0,0,1,2.373.908,3.018,3.018,0,0,1,.864,2.278l-.015.044H31.028a2.242,2.242,0,0,0-.5-1.516,1.646,1.646,0,0,0-1.311-.579,1.544,1.544,0,0,0-1.227.5,1.823,1.823,0,0,0-.436,1.245,1.545,1.545,0,0,0,.461,1.15,4.449,4.449,0,0,0,1.553.857,5.463,5.463,0,0,1,2.219,1.245,2.71,2.71,0,0,1,.762,1.992,2.6,2.6,0,0,1-.9,2.076,3.481,3.481,0,0,1-2.355.773,3.79,3.79,0,0,1-2.446-.835,2.8,2.8,0,0,1-1-2.4l.015-.044H27.3a2.107,2.107,0,0,0,.575,1.619,2.012,2.012,0,0,0,1.425.535,1.76,1.76,0,0,0,1.3-.465A1.68,1.68,0,0,0,31.065,14.319ZM41.344,7.479H38.517V17H37.022V7.479H34.217V6.336h7.126Zm3.5,4.929V17H43.361V6.343H46.5a3.35,3.35,0,0,1,2.377.784,2.927,2.927,0,0,1,.839,2.249,2.7,2.7,0,0,1-.392,1.461,2.583,2.583,0,0,1-1.124.97,2.041,2.041,0,0,1,1.183.923,3.218,3.218,0,0,1,.363,1.6v.93a4.182,4.182,0,0,0,.1.916,1.283,1.283,0,0,0,.337.659V17H48.649a1.268,1.268,0,0,1-.326-.736,6.64,6.64,0,0,1-.077-1.022v-.9a2.209,2.209,0,0,0-.414-1.414,1.384,1.384,0,0,0-1.146-.52Zm0-1.135H46.43a1.746,1.746,0,0,0,1.362-.487A1.99,1.99,0,0,0,48.231,9.4,2.133,2.133,0,0,0,47.8,7.984a1.61,1.61,0,0,0-1.3-.505H44.848ZM54.072,17H52.585V6.336h1.487Zm8.03-4.951H58.484v3.823h4.263V17H57V6.336H62.71V7.479H58.484v3.435H62.1Zm7.752,2.271a1.752,1.752,0,0,0-.417-1.2,3.657,3.657,0,0,0-1.472-.861,6.043,6.043,0,0,1-2.307-1.208,2.546,2.546,0,0,1-.806-1.97A2.7,2.7,0,0,1,65.741,7a3.243,3.243,0,0,1,2.281-.817A3.179,3.179,0,0,1,70.4,7.09a3.018,3.018,0,0,1,.864,2.278l-.015.044H69.817a2.242,2.242,0,0,0-.5-1.516,1.646,1.646,0,0,0-1.311-.579,1.544,1.544,0,0,0-1.227.5,1.823,1.823,0,0,0-.436,1.245,1.545,1.545,0,0,0,.461,1.15,4.449,4.449,0,0,0,1.553.857,5.463,5.463,0,0,1,2.219,1.245,2.71,2.71,0,0,1,.762,1.992,2.6,2.6,0,0,1-.9,2.076,3.481,3.481,0,0,1-2.355.773,3.79,3.79,0,0,1-2.446-.835,2.8,2.8,0,0,1-1-2.4l.015-.044h1.436a2.107,2.107,0,0,0,.575,1.619,2.012,2.012,0,0,0,1.425.535,1.76,1.76,0,0,0,1.3-.465A1.68,1.68,0,0,0,69.854,14.319Z" transform="translate(3906 4172)" fill="#0054a5"/>
  </g>
</svg>
