<svg xmlns="http://www.w3.org/2000/svg" xmlns:xlink="http://www.w3.org/1999/xlink" viewBox="0 0 280 249">
  <defs><style>
        @import url('https://fonts.googleapis.com/css2?family=Roboto+Condensed:wght@300;400&amp;display=swap');
        </style>
    <filter id="Rectangle_334" x="0" y="0" width="280" height="249" filterUnits="userSpaceOnUse">
      <feOffset dy="3" input="SourceAlpha"/>
      <feGaussianBlur stdDeviation="3" result="blur"/>
      <feFlood flood-color="#95b2bb"/>
      <feComposite operator="in" in2="blur"/>
      <feComposite in="SourceGraphic"/>
    </filter>
  </defs>
  <g id="Group_839" data-name="Group 839" transform="translate(-4133 -3996)">
    <g transform="matrix(1, 0, 0, 1, 4133, 3996)" filter="url(#Rectangle_334)">
      <path id="Rectangle_334-2" data-name="Rectangle 334" d="M2,0H226a36,36,0,0,1,36,36V195a36,36,0,0,1-36,36H36A36,36,0,0,1,0,195V2A2,2,0,0,1,2,0Z" transform="translate(9 6)" fill="#fff"/>
    </g>
    <text style="text-align: center;font-weight:400; font-family:Roboto Condensed" id="INDUSTRIAL_MACHINERY_INDUSTRIES" data-name="INDUSTRIAL MACHINERY
INDUSTRIES" transform="translate(4281 4172)" fill="#0054a5" font-size="15" font-family="RobotoCondensed-Regular, Roboto" letter-spacing="0.05em"><tspan x="-82.374" y="0">INDUSTRIAL MACHINERY</tspan><tspan x="-40.198" y="17">INDUSTRIES</tspan></text>
    <g id="Group_619" data-name="Group 619" transform="translate(2902.985 2806.985)" style="mix-blend-mode: multiply;isolation: isolate">
      <g id="INDUSTRIAL_MACHINERY_INDUSTRIES-01" data-name="INDUSTRIAL MACHINERY INDUSTRIES-01" transform="translate(1357.904 1243.156)">
        <path id="Path_3688" data-name="Path 3688" d="M41.72,62.757a9.607,9.607,0,0,0,8-3.647c1.264,2.406,2.49,4.711,3.693,7.04,3.241,6.313,6.5,12.617,9.706,18.922a4.949,4.949,0,1,1-8.81,4.489c-1.249-2.474-2.413-5.026-3.593-7.554q-4.344-9.247-8.68-18.5C41.935,63.3,41.858,63.086,41.72,62.757Zm19.152,24.99a2.206,2.206,0,0,0-2.183-2.214,2.3,2.3,0,0,0-2.2,2.222,2.229,2.229,0,0,0,2.168,2.16,2.168,2.168,0,0,0,2.191-2.168ZM57.54,81.725a1.532,1.532,0,0,0-1.532-1.632,1.575,1.575,0,1,0-.1,3.149,1.532,1.532,0,0,0,1.609-1.517Z" transform="translate(-19.611 -39.124)" fill="#679cfc"/>
        <path id="Path_3689" data-name="Path 3689" d="M26.6,103.888V90.474c.268,0,.49-.054.712-.054H45.959c.965,0,1.249.421.889,1.3a9.185,9.185,0,0,0,3.907,11.9c.069,0,.138.1.322.222Zm6.941-8.81a2.206,2.206,0,0,0-2.176-2.222A2.252,2.252,0,0,0,29.2,95.07a2.214,2.214,0,0,0,2.145,2.168A2.176,2.176,0,0,0,33.541,95.078Z" transform="translate(-16.074 -46.448)" fill="#679cfc"/>
        <path id="Path_3690" data-name="Path 3690" d="M66.25,49.423A7.554,7.554,0,1,1,68.5,54.807,7.592,7.592,0,0,1,66.25,49.423ZM73.911,52.9a3.528,3.528,0,1,0-.038,0Z" transform="translate(-25.349 -35.075)" fill="#679cfc"/>
        <path id="Path_3691" data-name="Path 3691" d="M48.342,49.161a8.381,8.381,0,1,1-8.381-8.381A8.381,8.381,0,0,1,48.342,49.161Zm-3.83-3.141a6.451,6.451,0,0,0-1.118-1.187A1.226,1.226,0,0,0,42.351,45c-.674.444-.958.306-1.1-.467a1.325,1.325,0,0,0-.521-.889,1.371,1.371,0,0,0-2.091,1.134c-.13.575-.352.644-.843.36-.329-.192-.766-.475-1.073-.4a1.44,1.44,0,0,0-.766,2.206c.429.621.253.889-.421.965A1.106,1.106,0,0,0,34.5,49.184c0,.789.215,1.233,1,1.318s.827.475.391,1.08a1.218,1.218,0,0,0-.314.858,1.417,1.417,0,0,0,2.2.766c.521-.3.766-.237.889.391a1.532,1.532,0,0,0,.506,1.011,1.379,1.379,0,0,0,2.091-1c.153-.659.437-.766.973-.375a1.6,1.6,0,0,0,.927.368,1.486,1.486,0,0,0,.889-2.168c-.4-.582-.414-.912.4-1.042a1.31,1.31,0,0,0,.9-.513A1.41,1.41,0,0,0,44.3,47.843c-.521-.146-.674-.383-.345-.866a8.973,8.973,0,0,0,.6-.958Z" transform="translate(-17.239 -34.836)" fill="#679cfc"/>
        <path id="Path_3692" data-name="Path 3692" d="M52.8,125.11v2.926H16.147a1.118,1.118,0,0,1-1.272-.812c-.513-1.348-1.126-2.658-1.693-3.984-.107-.253-.176-.521-.322-.95a25.284,25.284,0,0,0,2.965,0,6.458,6.458,0,0,1,5.922,2.053,2.857,2.857,0,0,0,2.26.766q13.835-.046,27.671,0Z" transform="translate(-12.86 -53.88)" fill="#679cfc"/>
        <path id="Path_3693" data-name="Path 3693" d="M41.685,116.106H38.62a5.646,5.646,0,0,0-.061-1.034c-.038-.184-.253-.329-.383-.49-.161.169-.406.3-.467.5a4.014,4.014,0,0,0-.077,1H35.127a2.835,2.835,0,0,0-.069-.8,3.318,3.318,0,0,0-.467-.689,2.589,2.589,0,0,0-.414.651,3.945,3.945,0,0,0-.061.873H32.89V109.28H51.4v6.81h-1.18a4.6,4.6,0,0,0,0-.973c-.046-.2-.276-.36-.421-.544-.146.176-.375.337-.421.536a4.167,4.167,0,0,0,0,.988H46.695a5.11,5.11,0,0,0-.077-.973c-.061-.207-.283-.368-.429-.544-.153.176-.391.329-.444.536a4.6,4.6,0,0,0,0,.981H42.566a4.6,4.6,0,0,0,0-1.027c-.046-.184-.3-.329-.46-.49-.138.161-.345.306-.383.49a5.654,5.654,0,0,0-.038,1.034Z" transform="translate(-17.545 -50.859)" fill="#679cfc"/>
        <path id="Path_3694" data-name="Path 3694" d="M53.785,91.643c.85,1.785,1.609,3.5,2.474,5.163a5.792,5.792,0,0,0,6.129,3.064,5.907,5.907,0,0,0,4.29-8.427L64.663,87.2c3.685.766,6.129,5.907,4.865,10.074a8.427,8.427,0,0,1-11.116,5.363C54.1,100.905,51.839,95.6,53.785,91.643Z" transform="translate(-22.268 -45.695)" fill="#679cfc"/>
        <path id="Path_3695" data-name="Path 3695" d="M91.5,49.708V45.027a1.256,1.256,0,0,1,.559-.9c2.926-1.532,2.934-1.532,5.937.054a1.042,1.042,0,0,1,.49.766q.046,4.773,0,9.545c0,.237-.276.49-.452.7-.084.1-.253.13-.383.192-2.865,1.394-2.873,1.394-5.7-.207a1.08,1.08,0,0,1-.429-.766C91.475,52.834,91.5,51.271,91.5,49.708Zm3.432,3.064c-.306.49-.628.766-.613,1.042s.406.437.636.651c.23-.245.6-.467.659-.766s-.329-.483-.666-.942Zm1.034-7.262c-.5-.306-.766-.628-1.065-.613s-.421.421-.628.659c.245.215.467.575.766.613s.467-.329.927-.674Z" transform="translate(-31.253 -35.353)" fill="#679cfc"/>
        <path id="Path_3696" data-name="Path 3696" d="M53.316,54.663a9.607,9.607,0,0,0-.046-8.6H63.49a8.664,8.664,0,0,0-.046,8.6Z" transform="translate(-22.313 -36.071)" fill="#679cfc"/>
        <path id="Path_3697" data-name="Path 3697" d="M24.479,96.365v7.722c0,1.073-.467,1.616-1.348,1.662-1,.054-1.57-.506-1.57-1.609V88.788c0-1.226.5-1.816,1.479-1.808s1.448.59,1.448,1.839Z" transform="translate(-14.895 -45.643)" fill="#679cfc"/>
        <path id="Path_3698" data-name="Path 3698" d="M38.1,119.42H48.626v4.106H38.1Z" transform="translate(-18.764 -53.231)" fill="#679cfc"/>
        <path id="Path_3699" data-name="Path 3699" d="M97,39.7c1.923-2.237,3.731-4.367,5.569-6.473a.766.766,0,0,1,.7-.184c3.463,1.41,6.895,2.842,10.465,4.313l-.337.835c-2.3-.95-4.551-1.839-6.757-2.812a1.149,1.149,0,0,0-1.647.4c-1.379,1.708-2.857,3.325-4.267,5.01a.72.72,0,0,1-1.08.222C98.831,40.551,97.965,40.168,97,39.7Zm6.642-3.631c-.483-.345-.766-.674-1.027-.682A.881.881,0,0,0,102,36a.9.9,0,0,0,.567.674C102.838,36.667,103.129,36.353,103.642,36.069Z" transform="translate(-32.542 -33.021)" fill="#679cfc"/>
        <path id="Path_3700" data-name="Path 3700" d="M97,61.307c1.027-.5,1.915-.981,2.85-1.348a1.057,1.057,0,0,1,.889.337c1.486,1.662,2.942,3.34,4.359,5.056a.981.981,0,0,0,1.371.345c2.3-.988,4.6-1.908,6.895-2.873l.406.766-3.455,1.433c-2.3.95-4.6,1.908-6.895,2.827a.9.9,0,0,1-.766-.061C100.769,65.7,98.931,63.551,97,61.307Zm6.619,3.884c-.506-.291-.766-.6-1.073-.575a.722.722,0,0,0-.544.667,1,1,0,0,0,.712.6c.222.023.475-.337.912-.689Z" transform="translate(-32.542 -39.321)" fill="#679cfc"/>
        <path id="Path_3701" data-name="Path 3701" d="M86.423,47.68h2.911v6.588H86.27A8.894,8.894,0,0,0,86.423,47.68Z" transform="translate(-30.032 -36.45)" fill="#679cfc"/>
        <path id="Path_3702" data-name="Path 3702" d="M65.359,95.814a2.168,2.168,0,0,1-2.214,2.168A2.229,2.229,0,0,1,61,95.822,2.3,2.3,0,0,1,63.2,93.6a2.206,2.206,0,0,1,2.16,2.214ZM63.2,97.063a1.21,1.21,0,0,0,1.249-1.256,1.233,1.233,0,0,0-1.241-1.287,1.279,1.279,0,0,0-1.3,1.318A1.241,1.241,0,0,0,63.2,97.063Z" transform="translate(-24.121 -47.192)" fill="#679cfc"/>
        <path id="Path_3703" data-name="Path 3703" d="M61.378,88.136a1.532,1.532,0,0,1-1.616,1.532,1.575,1.575,0,1,1,.1-3.149,1.532,1.532,0,0,1,1.517,1.616Zm-.544,0c-.513-.368-.766-.7-1.034-.7a.637.637,0,1,0-.077,1.272c.26.046.559-.253,1.111-.559Z" transform="translate(-23.473 -45.535)" fill="#679cfc"/>
        <path id="Path_3704" data-name="Path 3704" d="M34.336,95.822a2.176,2.176,0,0,1-2.229,2.16A2.214,2.214,0,0,1,30,95.814,2.252,2.252,0,0,1,32.2,93.6,2.206,2.206,0,0,1,34.336,95.822Zm-.912,0a1.233,1.233,0,0,0-1.21-1.31A1.272,1.272,0,0,0,30.881,95.8a1.233,1.233,0,0,0,1.264,1.256,1.218,1.218,0,0,0,1.279-1.226Z" transform="translate(-16.869 -47.192)" fill="#679cfc"/>
        <path id="Path_3705" data-name="Path 3705" d="M75.122,54.152a3.5,3.5,0,1,1,3.47-3.486,3.5,3.5,0,0,1-3.47,3.486Zm0-.919a2.551,2.551,0,0,0,2.566-2.6,2.6,2.6,0,0,0-2.612-2.574,2.643,2.643,0,0,0-2.589,2.62,2.589,2.589,0,0,0,2.62,2.551Z" transform="translate(-26.598 -36.326)" fill="#fff"/>
        <path id="Path_3706" data-name="Path 3706" d="M45.429,46.845c-.237.4-.4.7-.6.981-.329.483-.176.72.345.866a1.41,1.41,0,0,1,1.057,2.068,1.31,1.31,0,0,1-.9.513c-.812.13-.766.46-.4,1.042a1.486,1.486,0,0,1-.889,2.168,1.6,1.6,0,0,1-.927-.368c-.536-.352-.82-.283-.973.375a1.379,1.379,0,0,1-2.091,1,1.532,1.532,0,0,1-.506-1.011c-.13-.628-.368-.689-.889-.391a1.417,1.417,0,0,1-2.2-.766,1.218,1.218,0,0,1,.276-.919c.437-.605.483-.988-.391-1.08s-1-.559-1-1.318.268-1.187,1.042-1.272.85-.345.421-.965a1.44,1.44,0,0,1,.766-2.206c.314-.077.766.207,1.073.4.49.283.712.215.843-.36a1.371,1.371,0,0,1,2.061-1.1,1.325,1.325,0,0,1,.521.889c.138.766.421.912,1.1.467a1.226,1.226,0,0,1,1.111-.192,6.45,6.45,0,0,1,1.157,1.187Zm-9.4,3.133a8.778,8.778,0,0,0,.766.475c1.233.5,1.41.95.858,2.137a2.6,2.6,0,0,0-.084.7,2.628,2.628,0,0,0,.766-.084c1.05-.452,1.616-.215,1.992.827a3.064,3.064,0,0,0,.46.659,3.156,3.156,0,0,0,.521-.7c.345-.981.958-1.233,1.931-.766a2.988,2.988,0,0,0,.766.13,3.064,3.064,0,0,0-.046-.85c-.467-.981-.237-1.6.766-1.969a3.141,3.141,0,0,0,.7-.506,3.371,3.371,0,0,0-.72-.5,1.21,1.21,0,0,1-.766-1.9,4.038,4.038,0,0,0,.207-.873,3.67,3.67,0,0,0-.935.138,1.226,1.226,0,0,1-1.831-.766,3.3,3.3,0,0,0-.544-.766,4.06,4.06,0,0,0-.475.766,1.21,1.21,0,0,1-1.862.82,3.371,3.371,0,0,0-.881-.153,3.264,3.264,0,0,0,.184.919,1.21,1.21,0,0,1-.766,1.862A9.146,9.146,0,0,0,36.029,49.978Z" transform="translate(-18.118 -35.661)" fill="#fff"/>
        <path id="Path_3707" data-name="Path 3707" d="M95.813,55.74c.352.46.72.766.682.942s-.429.506-.659.766c-.23-.215-.621-.421-.636-.651S95.491,56.23,95.813,55.74Z" transform="translate(-32.12 -38.336)" fill="#fff"/>
        <path id="Path_3708" data-name="Path 3708" d="M96.806,46.073c-.46.345-.766.7-.95.659s-.5-.4-.766-.613c.207-.237.406-.644.628-.659S96.308,45.766,96.806,46.073Z" transform="translate(-32.095 -35.931)" fill="#fff"/>
        <path id="Path_3709" data-name="Path 3709" d="M105.169,36.792c-.506.306-.766.621-1.073.605a.9.9,0,0,1-.567-.674.881.881,0,0,1,.613-.613C104.419,36.095,104.656,36.424,105.169,36.792Z" transform="translate(-34.069 -33.744)" fill="#fff"/>
        <path id="Path_3710" data-name="Path 3710" d="M105.155,66.614c-.437.352-.689.712-.9.689a1,1,0,0,1-.712-.6c-.054-.176.329-.651.544-.666S104.657,66.323,105.155,66.614Z" transform="translate(-34.07 -40.745)" fill="#fff"/>
        <path id="Path_3711" data-name="Path 3711" d="M63.475,97.343a1.241,1.241,0,0,1-1.295-1.226,1.279,1.279,0,0,1,1.3-1.318,1.233,1.233,0,0,1,1.241,1.287,1.21,1.21,0,0,1-1.249,1.256Z" transform="translate(-24.397 -47.472)" fill="#fff"/>
        <path id="Path_3712" data-name="Path 3712" d="M61.108,88.437c-.552.306-.85.605-1.111.575a.637.637,0,0,1,.077-1.272C60.334,87.732,60.625,88.069,61.108,88.437Z" transform="translate(-23.746 -45.82)" fill="#fff"/>
        <path id="Path_3713" data-name="Path 3713" d="M33.693,96.11a1.218,1.218,0,0,1-1.279,1.233,1.233,1.233,0,0,1-1.264-1.256A1.272,1.272,0,0,1,32.483,94.8a1.233,1.233,0,0,1,1.21,1.31Z" transform="translate(-17.138 -47.472)" fill="#fff"/>
        <path id="Path_3714" data-name="Path 3714" d="M75.375,53.511A2.589,2.589,0,0,1,72.74,50.96a2.643,2.643,0,0,1,2.589-2.62,2.6,2.6,0,0,1,2.612,2.574,2.551,2.551,0,0,1-2.566,2.6Z" transform="translate(-26.867 -36.605)" fill="#679cfc"/>
        <path id="Path_3715" data-name="Path 3715" d="M36.24,50.271a9.146,9.146,0,0,1,.981-.5,1.21,1.21,0,0,0,.766-1.862,3.263,3.263,0,0,1-.184-.919,3.371,3.371,0,0,1,.881.153,1.21,1.21,0,0,0,1.862-.82,4.06,4.06,0,0,1,.475-.766,3.3,3.3,0,0,1,.544.766,1.226,1.226,0,0,0,1.831.766,3.669,3.669,0,0,1,.935-.138,4.037,4.037,0,0,1-.207.873,1.21,1.21,0,0,0,.766,1.9,3.371,3.371,0,0,1,.72.5,3.141,3.141,0,0,1-.7.506c-.988.368-1.218.988-.766,1.969a3.064,3.064,0,0,1,.123.858,2.988,2.988,0,0,1-.766-.13c-.973-.437-1.586-.184-1.931.766a3.156,3.156,0,0,1-.521.7,3.064,3.064,0,0,1-.46-.659c-.375-1.042-.942-1.279-1.992-.827a2.628,2.628,0,0,1-.766.084,2.6,2.6,0,0,1,.084-.7c.552-1.187.375-1.639-.858-2.137A8.777,8.777,0,0,1,36.24,50.271Zm7.186,0a2.337,2.337,0,1,0,0,.031Z" transform="translate(-18.329 -35.954)" fill="#679cfc"/>
        <path id="Path_3716" data-name="Path 3716" d="M44.177,51.032a2.36,2.36,0,1,1-.7-1.669,2.36,2.36,0,0,1,.7,1.669Zm-.912-.061a1.456,1.456,0,1,0-.39,1.071A1.448,1.448,0,0,0,43.265,50.971Z" transform="translate(-19.08 -36.684)" fill="none" stroke="#679cfc" stroke-width="1"/>
        <path id="Path_3717" data-name="Path 3717" d="M43.546,51.242a1.448,1.448,0,1,1-1.456-1.4,1.463,1.463,0,0,1,1.456,1.4Z" transform="translate(-19.361 -36.955)" fill="#fff"/>
      </g>
      <g id="winch" transform="translate(1315.015 1224.015)">
        <path id="Path_3718" data-name="Path 3718" d="M18.382,50.128,16,44.051V40H26.126v4.051L24.1,50.128Z" transform="translate(-0.807 -0.498)" fill="#fff"/>
        <path id="Path_3719" data-name="Path 3719" d="M16,44.051l2.382,6.077h.973A7.633,7.633,0,0,0,20.136,40H16Z" transform="translate(-0.807 -0.498)" fill="#679cfc"/>
        <g id="Group_611" data-name="Group 611" transform="translate(1.013 1.014)">
          <path id="Path_3720" data-name="Path 3720" d="M8.077,16H6.051a4.051,4.051,0,0,0,0,8.1H8.077" transform="translate(-2 -1.82)" fill="#679cfc"/>
          <path id="Path_3721" data-name="Path 3721" d="M56,16h2.026a4.051,4.051,0,0,1,0,8.1H56" transform="translate(-1.307 -1.82)" fill="#679cfc"/>
          <path id="Path_3722" data-name="Path 3722" d="M15,6.051,16.013,2H22.09L23.1,6.051" transform="translate(-1.833 -2)" fill="#679cfc"/>
          <path id="Path_3723" data-name="Path 3723" d="M40,6.051,41.013,2H47.09L48.1,6.051" transform="translate(-1.512 -2)" fill="#679cfc"/>
        </g>
        <path id="Path_3724" data-name="Path 3724" d="M10.026,28.282H54.591a2.025,2.025,0,0,0,2.026-2.026V8.026A2.025,2.025,0,0,0,54.591,6H10.026A2.025,2.025,0,0,0,8,8.026V26.257A2.025,2.025,0,0,0,10.026,28.282Z" transform="translate(-0.91 -0.935)" fill="#3762cc"/>
        <path id="Path_3725" data-name="Path 3725" d="M14,12H50.462V26.18H14Z" transform="translate(-0.833 -0.858)" fill="#fff"/>
        <path id="Path_3726" data-name="Path 3726" d="M16,23H48.411V33.128H16Z" transform="translate(-0.807 -0.717)" fill="#679cfc"/>
        <path id="Path_3727" data-name="Path 3727" d="M12,20h4.051V36.205H12Z" transform="translate(-0.859 -0.755)" fill="#fff"/>
        <path id="Path_3728" data-name="Path 3728" d="M48,20h4.051V36.205H48Z" transform="translate(-0.397 -0.755)" fill="#fff"/>
        <path id="Path_3729" data-name="Path 3729" d="M19,40.244V23.026a2.026,2.026,0,1,1,4.051,0V40.244" transform="translate(-0.769 -0.742)" fill="#fff"/>
        <path id="Path_3730" data-name="Path 3730" d="M28.026,35.18A2.025,2.025,0,0,1,26,33.154V23.026a2.026,2.026,0,0,1,4.051,0V33.154A2.025,2.025,0,0,1,28.026,35.18Z" transform="translate(-0.679 -0.742)" fill="#fff"/>
        <path id="Path_3731" data-name="Path 3731" d="M36.026,35.18A2.025,2.025,0,0,1,34,33.154V23.026a2.026,2.026,0,0,1,4.051,0V33.154A2.025,2.025,0,0,1,36.026,35.18Z" transform="translate(-0.576 -0.742)" fill="#fff"/>
        <path id="Path_3732" data-name="Path 3732" d="M43.026,35.18A2.025,2.025,0,0,1,41,33.154V23.026a2.026,2.026,0,1,1,4.051,0V33.154A2.025,2.025,0,0,1,43.026,35.18Z" transform="translate(-0.487 -0.742)" fill="#fff"/>
        <path id="Path_3733" data-name="Path 3733" d="M41.231,15.077H23V11.026A2.025,2.025,0,0,1,25.026,9h14.18a2.025,2.025,0,0,1,2.026,2.026Z" transform="translate(-0.718 -0.896)" fill="#679cfc"/>
        <g id="Group_612" data-name="Group 612" transform="translate(18.231 41.527)">
          <path id="Path_3734" data-name="Path 3734" d="M21.026,46.05a2.025,2.025,0,1,1,2.025-2.025A2.026,2.026,0,0,1,21.026,46.05Z" transform="translate(-19 -42)" fill="#625d51"/>
        </g>
        <g id="Group_613" data-name="Group 613" transform="translate(15.193 49.63)">
          <path id="Path_3735" data-name="Path 3735" d="M21.069,63.164A5.061,5.061,0,0,1,16,58.1V57.09h2.026V58.1a3.04,3.04,0,0,0,5.992.729,3.059,3.059,0,0,0-1.06-3.1,7.36,7.36,0,0,1-2.908-5.7L21.064,50l1.012.034v.028a5.337,5.337,0,0,0,2.147,4.081,5.069,5.069,0,0,1,1.77,5.138,5.011,5.011,0,0,1-3.75,3.749A5.218,5.218,0,0,1,21.069,63.164Z" transform="translate(-16 -50)" fill="#cbc3b6"/>
        </g>
        <path id="Path_3736" data-name="Path 3736" d="M26.23,9H25.013a2.008,2.008,0,0,0-1.026.288l3.859,5.789h2.436Z" transform="translate(-0.705 -0.896)" fill="#625d51"/>
        <path id="Path_3737" data-name="Path 3737" d="M32.848,15.077h2.436L31.233,9H28.8Z" transform="translate(-0.643 -0.896)" fill="#625d51"/>
        <path id="Path_3738" data-name="Path 3738" d="M33.8,9l4.05,6.077h2.435L36.233,9Z" transform="translate(-0.579 -0.896)" fill="#625d51"/>
        <g id="Group_614" data-name="Group 614" transform="translate(9.115 7.09)">
          <path id="Path_3739" data-name="Path 3739" d="M11.518,11.036a1.519,1.519,0,1,1,1.518-1.518A1.521,1.521,0,0,1,11.518,11.036Zm0-2.025a.506.506,0,1,0,.505.506A.507.507,0,0,0,11.518,9.012Z" transform="translate(-9.999 -7.999)" fill="#625d51"/>
        </g>
        <g id="Group_615" data-name="Group 615" transform="translate(50.641 7.09)">
          <path id="Path_3740" data-name="Path 3740" d="M52.518,11.036a1.519,1.519,0,1,1,1.518-1.518A1.521,1.521,0,0,1,52.518,11.036Zm0-2.025a.506.506,0,1,0,.505.506A.507.507,0,0,0,52.518,9.012Z" transform="translate(-50.999 -7.999)" fill="#625d51"/>
        </g>
        <g id="Group_616" data-name="Group 616" transform="translate(55.705 18.231)">
          <path id="Path_3741" data-name="Path 3741" d="M56,19h3.037v2.025H56Z" transform="translate(-55.999 -18.999)" fill="#9e968d"/>
        </g>
        <g id="Group_617" data-name="Group 617" transform="translate(4.05 18.231)">
          <path id="Path_3742" data-name="Path 3742" d="M5,19H8.036v2.025H5Z" transform="translate(-4.999 -18.999)" fill="#9e968d"/>
        </g>
        <path id="Path_3743" data-name="Path 3743" d="M19,44.026a2,2,0,0,0,2.528,1.954,7.474,7.474,0,0,0-.322-3.961c-.061-.005-.119-.018-.18-.018A2.026,2.026,0,0,0,19,44.026Z" transform="translate(-0.769 -0.473)" fill="#9e968d"/>
        <g id="Group_618" data-name="Group 618" transform="translate(0 0)">
          <path id="Path_3744" data-name="Path 3744" d="M21.026,46.05A2.025,2.025,0,1,0,19,44.026,2.026,2.026,0,0,0,21.026,46.05Z" transform="translate(-0.769 -0.473)" fill="#8a8a8a"/>
          <path id="Path_3745" data-name="Path 3745" d="M11.519,8a1.519,1.519,0,1,0,1.518,1.519A1.521,1.521,0,0,0,11.519,8Zm0,2.025a.506.506,0,1,1,.505-.505A.506.506,0,0,1,11.519,10.024Z" transform="translate(-0.884 -0.909)" fill="#8a8a8a"/>
          <path id="Path_3746" data-name="Path 3746" d="M52.519,8a1.519,1.519,0,1,0,1.518,1.519A1.521,1.521,0,0,0,52.519,8Zm0,2.025a.506.506,0,1,1,.505-.505A.506.506,0,0,1,52.519,10.024Z" transform="translate(-0.358 -0.909)" fill="#8a8a8a"/>
          <path id="Path_3747" data-name="Path 3747" d="M58.732,15.179H57.718V8.089A3.042,3.042,0,0,0,54.679,5.05H49.393l-.82-3.285A1.013,1.013,0,0,0,47.589,1H41.513a1.014,1.014,0,0,0-.983.767L39.709,5.05H24.073l-.821-3.285A1.013,1.013,0,0,0,22.269,1H16.193a1.014,1.014,0,0,0-.983.767L14.388,5.05H10.116A3.042,3.042,0,0,0,7.077,8.089v7.09H6.062a5.064,5.064,0,0,0,0,10.127H7.077v1.013a3.042,3.042,0,0,0,3.039,3.039h1.013v7.09a1.012,1.012,0,0,0,1.013,1.013h4.05A1.012,1.012,0,0,0,17.2,36.447V34.423h1.014v5.065H16.193A1.012,1.012,0,0,0,15.18,40.5v4.051a1,1,0,0,0,.052.319l2.026,6.077a1.014,1.014,0,0,0,.961.693h2.108a7.528,7.528,0,0,0,2.824,4.715,3.061,3.061,0,0,1,1.06,3.1,3.041,3.041,0,0,1-5.992-.728V57.719H16.193v1.013a5.061,5.061,0,0,0,5.069,5.061,5.275,5.275,0,0,0,1.174-.133,5.011,5.011,0,0,0,3.75-3.749,5.071,5.071,0,0,0-1.77-5.138,5.594,5.594,0,0,1-2.031-3.133h1.91a1.012,1.012,0,0,0,.961-.693l2.026-6.077a1.007,1.007,0,0,0,.052-.319V40.5a1.012,1.012,0,0,0-1.013-1.013H24.293V34.422h1.2a3.02,3.02,0,0,0,5.7,0l2.4,0a3.02,3.02,0,0,0,5.7,0h1.387a3.019,3.019,0,0,0,5.7,0h1.2v2.026A1.012,1.012,0,0,0,48.6,37.46h4.05a1.012,1.012,0,0,0,1.013-1.013v-7.09h1.013a3.042,3.042,0,0,0,3.039-3.039V25.308h1.014a5.065,5.065,0,0,0,0-10.129ZM42.3,3.025H46.8L47.3,5.05H41.8Zm-25.321,0h4.495l.506,2.026H16.476ZM6.062,23.28a3.038,3.038,0,0,1,0-6.076H7.077V19.23H5.051v2.025H7.077V23.28Zm9.117,12.154H13.154V21.256h2.025ZM17.2,32.4v-8.1h1.013v8.1Zm8.1,11.99-1.743,5.228H18.947l-1.742-5.228V41.514h8.1Zm-5.063-4.9V23.28a1.013,1.013,0,0,1,2.027,0l0,16.207ZM24.3,24.293h1.013v8.1H24.294Zm5.064,9.117a1.015,1.015,0,0,1-1.013,1.013h0a1.012,1.012,0,0,1-1.012-1.013V23.28a1,1,0,0,1,.295-.715,1.015,1.015,0,0,1,1.731.715Zm2.026-9.117h2.026v8.1H31.385Zm5.064,10.129a1.013,1.013,0,0,1-1.013-1.013V23.28a1,1,0,0,1,.295-.715,1.015,1.015,0,0,1,1.731.715V33.412A1.015,1.015,0,0,1,36.449,34.423ZM40.5,24.293v8.1H39.488v-8.1H40.5Zm4.05,9.117a1.012,1.012,0,0,1-1.011,1.013h0a1.013,1.013,0,0,1-1.013-1.013V23.28a1.013,1.013,0,0,1,2.027,0ZM46.576,32.4l0-8.1h1.013v8.1Zm1.015-12.154v2.026h-1.2a3.022,3.022,0,0,0-5.705,0H39.3a3.02,3.02,0,0,0-5.707,0H31.2a3.02,3.02,0,0,0-5.707,0H24.109a3.022,3.022,0,0,0-5.705,0H17.2V20.243a1.012,1.012,0,0,0-1.013-1.013H15.18V13.153h7.09v2.025a1.012,1.012,0,0,0,1.013,1.013h18.23a1.012,1.012,0,0,0,1.013-1.013V13.153h7.09V19.23H48.6A1.012,1.012,0,0,0,47.591,20.243ZM40.03,14.165l-2.7-4.05h2.157A1.013,1.013,0,0,1,40.5,11.127v3.037Zm-5.136-4.05,2.7,4.05H34.965l-2.7-4.05Zm-5.064,0,2.7,4.05H29.9l-2.7-4.05Zm-4.981.125,2.617,3.926H24.3V11.127a1,1,0,0,1,.553-.888Zm26.793,25.2H49.616V21.256h2.025Zm4.051-9.116a1.013,1.013,0,0,1-1.013,1.013H53.667V20.243a1.012,1.012,0,0,0-1.013-1.013H51.641V12.14a1.012,1.012,0,0,0-1.013-1.013h-8.1a3.042,3.042,0,0,0-3.039-3.039H25.308a3.042,3.042,0,0,0-3.039,3.039h-8.1a1.012,1.012,0,0,0-1.013,1.013v7.09H12.141a1.012,1.012,0,0,0-1.013,1.013v7.089H10.116A1.013,1.013,0,0,1,9.1,26.319V8.089a1.013,1.013,0,0,1,1.013-1.013H54.679a1.013,1.013,0,0,1,1.013,1.013Zm3.04-3.036H57.718V21.255h2.026V19.23H57.718V17.2h1.014a3.039,3.039,0,0,1,0,6.078Z" transform="translate(-1 -0.999)" fill="#8a8a8a"/>
        </g>
      </g>
    </g>
  </g>
</svg>
