<svg xmlns="http://www.w3.org/2000/svg" xmlns:xlink="http://www.w3.org/1999/xlink" viewBox="0 0 281 249">
  <defs>
    <filter id="Rectangle_335" x="0" y="0" width="281" height="249" filterUnits="userSpaceOnUse">
      <feOffset dy="3" input="SourceAlpha"/>
      <feGaussianBlur stdDeviation="3" result="blur"/>
      <feFlood flood-color="#95b2bb"/>
      <feComposite operator="in" in2="blur"/>
      <feComposite in="SourceGraphic"/>
    </filter>
  </defs>
  <g id="Group_1093" data-name="Group 1093" transform="translate(-3029 -4348)">
    <g transform="matrix(1, 0, 0, 1, 3029, 4348)" filter="url(#Rectangle_335)">
      <path id="Rectangle_335-2" data-name="Rectangle 335" d="M2,0H227a36,36,0,0,1,36,36V195a36,36,0,0,1-36,36H36A36,36,0,0,1,0,195V2A2,2,0,0,1,2,0Z" transform="translate(9 6)" fill="#fff"/>
    </g>
    <g id="Group_518" data-name="Group 518" transform="translate(3124 4378)" style="mix-blend-mode: multiply;isolation: isolate">
      <g id="network" transform="translate(0 0)">
        <g id="Group_517" data-name="Group 517">
          <path id="Path_3361" data-name="Path 3361" d="M37,31h3.114v3.115H37Z" transform="translate(19.061 8.217)" fill="#8a8a8a"/>
          <path id="Path_3362" data-name="Path 3362" d="M41,31H62.8v3.115H41Z" transform="translate(21.29 8.217)" fill="#8a8a8a"/>
          <path id="Path_3363" data-name="Path 3363" d="M49,47h3.114v3.114H49Z" transform="translate(25.748 13.133)" fill="#8a8a8a"/>
          <path id="Path_3364" data-name="Path 3364" d="M49,51h3.114v3.114H49Z" transform="translate(25.748 11.862)" fill="#8a8a8a"/>
          <path id="Path_3365" data-name="Path 3365" d="M49,43h3.114v3.115H49Z" transform="translate(25.748 11.904)" fill="#8a8a8a"/>
          <path id="Path_3366" data-name="Path 3366" d="M52.271,10.114l-3.114,3.114H28v3.114H50.446l3.114-3.114H67.218a4.672,4.672,0,1,0,0-3.114Zm19.332,0a1.557,1.557,0,1,1-1.557,1.557A1.558,1.558,0,0,1,71.6,10.114Z" transform="translate(14.046 2.343)" fill="#8a8a8a"/>
          <path id="Path_3367" data-name="Path 3367" d="M47.774,7.229H56.76a4.672,4.672,0,1,0,0-3.114H46.485L43.371,7.229H30v3.114H44.66ZM61.145,4.114a1.557,1.557,0,1,1-1.557,1.557A1.558,1.558,0,0,1,61.145,4.114Z" transform="translate(15.16 -1)" fill="#8a8a8a"/>
          <path id="Path_3368" data-name="Path 3368" d="M26,5h3.114V8.114H26Z" transform="translate(12.931 1.229)" fill="#8a8a8a"/>
          <path id="Path_3369" data-name="Path 3369" d="M22,5h3.114V8.114H22Z" transform="translate(10.702 1.229)" fill="#8a8a8a"/>
          <path id="Path_3370" data-name="Path 3370" d="M7.229,68.431V53.485L4.114,50.37V37H1V51.66l3.114,3.114V68.431a4.672,4.672,0,1,0,3.114,0ZM5.672,74.374a1.557,1.557,0,1,1,1.557-1.557A1.558,1.558,0,0,1,5.672,74.374Z" transform="translate(-1 4.061)" fill="#8a8a8a"/>
          <path id="Path_3371" data-name="Path 3371" d="M1,33H4.114v3.114H1Z" transform="translate(-1 8.832)" fill="#8a8a8a"/>
          <path id="Path_3372" data-name="Path 3372" d="M1,29H4.114v3.114H1Z" transform="translate(-1 7.603)" fill="#8a8a8a"/>
        </g>
      </g>
      <g id="Filled_outline" data-name="Filled outline" transform="translate(1.838 13.291)">
        <path id="Path_3373" data-name="Path 3373" d="M20,79.073,26.1,15H50.511l6.1,64.073" transform="translate(2.883 4.832)" fill="#1664ff"/>
        <rect id="Rectangle_357" data-name="Rectangle 357" width="62.035" height="6.53" transform="translate(9.924 83.371)" fill="#fff"/>
        <path id="Path_3374" data-name="Path 3374" d="M13.628,29h7.628l-4.577,7.628h7.628L13.628,53.409V42.73H6Z" transform="translate(-4.474 12.19)" fill="#679cfc"/>
        <path id="Path_3375" data-name="Path 3375" d="M54.628,23h7.628l-4.577,7.628h7.628L54.628,47.409V36.73H47Z" transform="translate(17.074 9.037)" fill="#679cfc"/>
        <path id="Path_3376" data-name="Path 3376" d="M12.526,26.409V29.46h9.153V26.409H18.628V23.358h3.051V20.307H18.628V17.256h13.73v3.051H30.832a1.526,1.526,0,0,0-1.526,1.373l-5.963,62.7H11v9.153H75.073V84.38H62.73L56.767,21.687a1.526,1.526,0,0,0-1.526-1.373H53.716V17.256h13.73v3.051H64.395v3.051h3.051v3.051H64.395V29.46h9.153V26.409H70.5V23.358h3.051V20.307H70.5V14.2H65.026l-6.1-6.1H53.716V3.526A1.526,1.526,0,0,0,52.19,2H33.883a1.526,1.526,0,0,0-1.526,1.526V8.1H27.15l-6.1,6.1H15.577v6.1H12.526v3.051h3.051v3.051Zm41.19-15.256h3.945L60.712,14.2h-7ZM31.082,35.3l8.911,5.159-9.951,5.761Zm17.973-4.316H37.018l6.018-2.478ZM38.544,23.358h8.986l-4.493,1.849ZM51.087,34.037,43.037,38.7l-8.05-4.661ZM32.475,69.125H53.6L43.037,74.633ZM55.121,84.38H30.953l12.084-6.305ZM32,66.073l11.037-6.307,11.037,6.307Zm1.526-15.256H52.549l-9.512,5.436Zm-.064-3.051,9.576-5.544,9.576,5.544Zm-3.966,4.258,10.473,5.985-11.68,6.674ZM27.767,70.109l11.971,6.246-13.224,6.9ZM72.022,87.431v3.051H14.051V87.431ZM59.559,83.253l-13.224-6.9,11.971-6.246ZM56.584,52.025,57.79,64.687l-11.68-6.674Zm-.552-5.8L46.08,40.467l8.911-5.159Zm-2.113-22.2.56,5.89-7.434-3.062ZM35.409,5.051H50.665V8.1H35.409Zm0,6.1H50.665V14.2H35.409Zm0,6.1H50.665v3.051H35.409Zm3.62,9.6L31.6,29.918l.56-5.892Zm-10.616-15.7h3.945V14.2h-7Z" transform="translate(-1.847 -2)" fill="#8a8a8a"/>
        <path id="Path_3377" data-name="Path 3377" d="M12.82,28.784,5.192,42.514a1.526,1.526,0,0,0,1.333,2.267h6.1v9.153a1.526,1.526,0,0,0,2.813.819L26.12,37.973a1.526,1.526,0,0,0-1.288-2.345H19.9l3.19-5.317A1.526,1.526,0,0,0,21.781,28H14.153a1.526,1.526,0,0,0-1.333.784Zm6.267,2.267L15.9,36.368A1.526,1.526,0,0,0,17.2,38.679h4.848L15.679,48.7v-5.44a1.526,1.526,0,0,0-1.526-1.526H9.119L15.05,31.051Z" transform="translate(-5 11.665)" fill="#8a8a8a"/>
        <path id="Path_3378" data-name="Path 3378" d="M67.169,30.42a1.526,1.526,0,0,0-1.336-.792H60.9l3.19-5.317A1.526,1.526,0,0,0,62.781,22H55.153a1.526,1.526,0,0,0-1.333.784l-7.628,13.73a1.526,1.526,0,0,0,1.333,2.267h6.1v9.153a1.526,1.526,0,0,0,2.813.819L67.12,31.973A1.526,1.526,0,0,0,67.169,30.42ZM56.679,42.7v-5.44a1.526,1.526,0,0,0-1.526-1.526H50.119L56.05,25.051h4.037L56.9,30.368A1.526,1.526,0,0,0,58.2,32.679h4.848Z" transform="translate(16.548 8.511)" fill="#8a8a8a"/>
      </g>
    </g>
    <path id="Path_4777" data-name="Path 4777" d="M-71.106-4.951h-3.618v3.823h4.263V0h-5.75V-10.664H-70.5v1.143h-4.226v3.435h3.618Zm4.375,3.823h4.314V0h-5.8V-10.664h1.487Zm11.6-3.823h-3.618v3.823h4.263V0h-5.75V-10.664h5.713v1.143h-4.226v3.435h3.618Zm9.561,1.743.015.044a3.144,3.144,0,0,1-.879,2.446,3.458,3.458,0,0,1-2.5.872A3.393,3.393,0,0,1-51.549-.9a4.174,4.174,0,0,1-.974-2.948V-6.8a4.245,4.245,0,0,1,.959-2.952,3.3,3.3,0,0,1,2.578-1.062,3.614,3.614,0,0,1,2.549.846A3.118,3.118,0,0,1-45.55-7.5l-.015.044h-1.428a2.414,2.414,0,0,0-.5-1.681,1.938,1.938,0,0,0-1.494-.538,1.763,1.763,0,0,0-1.516.736,3.558,3.558,0,0,0-.535,2.113v2.981a3.532,3.532,0,0,0,.549,2.131,1.82,1.82,0,0,0,1.553.74,1.864,1.864,0,0,0,1.45-.531A2.485,2.485,0,0,0-47-3.208Zm8.543-6.313h-2.827V0H-41.35V-9.521h-2.805v-1.143h7.126Zm3.5,4.929V0h-1.487V-10.657h3.142a3.35,3.35,0,0,1,2.377.784,2.927,2.927,0,0,1,.839,2.249,2.7,2.7,0,0,1-.392,1.461,2.583,2.583,0,0,1-1.124.97,2.041,2.041,0,0,1,1.183.923,3.218,3.218,0,0,1,.363,1.6v.93a4.182,4.182,0,0,0,.1.916,1.283,1.283,0,0,0,.337.659V0h-1.531a1.268,1.268,0,0,1-.326-.736,6.64,6.64,0,0,1-.077-1.022v-.9a2.209,2.209,0,0,0-.414-1.414,1.384,1.384,0,0,0-1.146-.52Zm0-1.135h1.582a1.746,1.746,0,0,0,1.362-.487A1.99,1.99,0,0,0-30.141-7.6a2.133,2.133,0,0,0-.428-1.421,1.61,1.61,0,0,0-1.3-.505h-1.655ZM-24.3,0h-1.487V-10.664H-24.3Zm9.6-3.208.015.044a3.144,3.144,0,0,1-.879,2.446,3.458,3.458,0,0,1-2.5.872A3.393,3.393,0,0,1-20.68-.9a4.174,4.174,0,0,1-.974-2.948V-6.8a4.245,4.245,0,0,1,.959-2.952,3.3,3.3,0,0,1,2.578-1.062,3.614,3.614,0,0,1,2.549.846A3.118,3.118,0,0,1-14.681-7.5l-.015.044h-1.428a2.414,2.414,0,0,0-.5-1.681,1.938,1.938,0,0,0-1.494-.538,1.763,1.763,0,0,0-1.516.736,3.558,3.558,0,0,0-.535,2.113v2.981a3.532,3.532,0,0,0,.549,2.131,1.82,1.82,0,0,0,1.553.74,1.864,1.864,0,0,0,1.45-.531,2.485,2.485,0,0,0,.483-1.7Zm3.687,3.032-.952,2.161h-.952l.439-2.212V-1.582h1.465ZM.606-4.951H-3.012v3.823H1.25V0H-4.5V-10.664H1.214v1.143H-3.012v3.435H.606ZM4.981-1.128H9.3V0h-5.8V-10.664H4.981Zm11.6-3.823H12.96v3.823h4.263V0h-5.75V-10.664h5.713v1.143H12.96v3.435h3.618Zm9.561,1.743.015.044a3.144,3.144,0,0,1-.879,2.446,3.458,3.458,0,0,1-2.5.872A3.393,3.393,0,0,1,20.163-.9a4.174,4.174,0,0,1-.974-2.948V-6.8a4.245,4.245,0,0,1,.959-2.952,3.3,3.3,0,0,1,2.578-1.062,3.614,3.614,0,0,1,2.549.846A3.118,3.118,0,0,1,26.161-7.5l-.015.044H24.719a2.414,2.414,0,0,0-.5-1.681,1.938,1.938,0,0,0-1.494-.538,1.763,1.763,0,0,0-1.516.736,3.558,3.558,0,0,0-.535,2.113v2.981a3.532,3.532,0,0,0,.549,2.131,1.82,1.82,0,0,0,1.553.74,1.864,1.864,0,0,0,1.45-.531,2.485,2.485,0,0,0,.483-1.7Zm8.543-6.313H31.855V0H30.361V-9.521H27.556v-1.143h7.126Zm3.5,4.929V0H36.7V-10.657h3.142a3.35,3.35,0,0,1,2.377.784,2.927,2.927,0,0,1,.839,2.249,2.7,2.7,0,0,1-.392,1.461,2.583,2.583,0,0,1-1.124.97,2.041,2.041,0,0,1,1.183.923,3.218,3.218,0,0,1,.363,1.6v.93a4.182,4.182,0,0,0,.1.916,1.283,1.283,0,0,0,.337.659V0H41.988a1.268,1.268,0,0,1-.326-.736,6.64,6.64,0,0,1-.077-1.022v-.9a2.209,2.209,0,0,0-.414-1.414,1.384,1.384,0,0,0-1.146-.52Zm0-1.135h1.582a1.746,1.746,0,0,0,1.362-.487A1.99,1.99,0,0,0,41.57-7.6a2.133,2.133,0,0,0-.428-1.421,1.61,1.61,0,0,0-1.3-.505H38.186ZM52.969-3.86A4.07,4.07,0,0,1,51.944-.9,3.648,3.648,0,0,1,49.2.154,3.548,3.548,0,0,1,46.495-.9a4.124,4.124,0,0,1-1-2.955V-6.79a4.154,4.154,0,0,1,1-2.959,3.52,3.52,0,0,1,2.7-1.069,3.647,3.647,0,0,1,2.75,1.066A4.088,4.088,0,0,1,52.969-6.79ZM51.49-6.812a3.244,3.244,0,0,0-.6-2.113,2.085,2.085,0,0,0-1.7-.721,1.98,1.98,0,0,0-1.644.721,3.333,3.333,0,0,0-.575,2.113V-3.86a3.361,3.361,0,0,0,.579,2.131A1.986,1.986,0,0,0,49.2-1a2.075,2.075,0,0,0,1.7-.721A3.3,3.3,0,0,0,51.49-3.86ZM62.618,0H61.124L56.993-7.866l-.044.015V0H55.463V-10.664h1.487L61.08-2.82l.044-.007v-7.837h1.494Zm4.4,0H65.536V-10.664h1.487Zm9.6-3.208.015.044a3.144,3.144,0,0,1-.879,2.446,3.458,3.458,0,0,1-2.5.872A3.393,3.393,0,0,1,70.644-.9a4.174,4.174,0,0,1-.974-2.948V-6.8a4.245,4.245,0,0,1,.959-2.952,3.3,3.3,0,0,1,2.578-1.062,3.614,3.614,0,0,1,2.549.846A3.118,3.118,0,0,1,76.643-7.5l-.015.044H75.2a2.414,2.414,0,0,0-.5-1.681,1.938,1.938,0,0,0-1.494-.538,1.763,1.763,0,0,0-1.516.736,3.558,3.558,0,0,0-.535,2.113v2.981a3.532,3.532,0,0,0,.549,2.131,1.82,1.82,0,0,0,1.553.74,1.864,1.864,0,0,0,1.45-.531,2.485,2.485,0,0,0,.483-1.7Zm-171.939,17.4a2.719,2.719,0,0,1,.461-1.575,6.55,6.55,0,0,1,1.377-1.392,7.02,7.02,0,0,1-.74-1.289,3.034,3.034,0,0,1-.242-1.179A2.607,2.607,0,0,1-93.8,6.852a2.412,2.412,0,0,1,1.8-.67,2.224,2.224,0,0,1,1.67.656,2.21,2.21,0,0,1,.637,1.6A2.39,2.39,0,0,1-90,9.672a3.867,3.867,0,0,1-.89,1l-.813.659,2.168,2.856.044-.007a3.9,3.9,0,0,0,.366-.967,4.884,4.884,0,0,0,.132-1.157h1.26a6.1,6.1,0,0,1-.245,1.776,4.39,4.39,0,0,1-.736,1.439L-87.4,17h-1.75l-.579-.769a4.119,4.119,0,0,1-1.168.688,3.681,3.681,0,0,1-1.315.234,3.113,3.113,0,0,1-2.263-.817A2.849,2.849,0,0,1-95.318,14.195Zm3.149,1.831a2.585,2.585,0,0,0,.923-.172,2.881,2.881,0,0,0,.85-.509L-92.762,12.2l-.154.125a3.088,3.088,0,0,0-.71.985,2.308,2.308,0,0,0-.183.853,2.049,2.049,0,0,0,.432,1.337A1.471,1.471,0,0,0-92.169,16.026Zm-.894-7.28a2.031,2.031,0,0,0,.165.769,4.523,4.523,0,0,0,.494.872l.754-.586a1.593,1.593,0,0,0,.509-.615A1.815,1.815,0,0,0-91,8.475a1.256,1.256,0,0,0-.271-.813.906.906,0,0,0-.747-.337.871.871,0,0,0-.765.41A1.776,1.776,0,0,0-93.062,8.746ZM-79.668,17h-1.487V6.336h1.487Zm10.081,0h-1.494l-4.131-7.866-.044.015V17h-1.487V6.336h1.487l4.131,7.844.044-.007V6.336h1.494Zm8-4.739h-3.728V17H-66.8V6.336h5.859V7.479h-4.373v3.647h3.728Zm9.949.879A4.07,4.07,0,0,1-52.662,16.1a3.648,3.648,0,0,1-2.747,1.058,3.548,3.548,0,0,1-2.7-1.058,4.124,4.124,0,0,1-1-2.955V10.21a4.154,4.154,0,0,1,1-2.959,3.52,3.52,0,0,1,2.7-1.069,3.647,3.647,0,0,1,2.75,1.066,4.088,4.088,0,0,1,1.029,2.963Zm-1.479-2.952a3.244,3.244,0,0,0-.6-2.113,2.085,2.085,0,0,0-1.7-.721,1.98,1.98,0,0,0-1.644.721,3.333,3.333,0,0,0-.575,2.113V13.14a3.361,3.361,0,0,0,.579,2.131A1.986,1.986,0,0,0-55.408,16a2.075,2.075,0,0,0,1.7-.721,3.3,3.3,0,0,0,.593-2.135Zm5.452,2.219V17h-1.487V6.343h3.142a3.35,3.35,0,0,1,2.377.784,2.927,2.927,0,0,1,.839,2.249,2.7,2.7,0,0,1-.392,1.461,2.583,2.583,0,0,1-1.124.97,2.041,2.041,0,0,1,1.183.923,3.218,3.218,0,0,1,.363,1.6v.93a4.182,4.182,0,0,0,.1.916,1.283,1.283,0,0,0,.337.659V17h-1.531a1.268,1.268,0,0,1-.326-.736,6.64,6.64,0,0,1-.077-1.022v-.9a2.209,2.209,0,0,0-.414-1.414,1.384,1.384,0,0,0-1.146-.52Zm0-1.135h1.582a1.746,1.746,0,0,0,1.362-.487A1.99,1.99,0,0,0-44.28,9.4a2.133,2.133,0,0,0-.428-1.421,1.61,1.61,0,0,0-1.3-.505h-1.655Zm12.051,3.765h.044l2.556-8.7h1.9V17h-1.479V9.317l-.044-.007L-35.078,17H-36.1l-2.483-7.808-.044.007V17H-40.1V6.336h1.941Zm12.1-.732H-26.7l-.769,2.7h-1.545l3.2-10.664h1.443L-21.2,17h-1.545Zm-2.849-1.179h2.52l-1.23-4.336h-.044ZM-13.8,7.479h-2.827V17h-1.494V7.479h-2.805V6.336H-13.8ZM-10.152,17h-1.487V6.336h1.487Zm10.1-3.86A4.07,4.07,0,0,1-1.074,16.1a3.648,3.648,0,0,1-2.747,1.058,3.548,3.548,0,0,1-2.7-1.058,4.124,4.124,0,0,1-1-2.955V10.21a4.154,4.154,0,0,1,1-2.959,3.52,3.52,0,0,1,2.7-1.069,3.647,3.647,0,0,1,2.75,1.066A4.088,4.088,0,0,1-.049,10.21Zm-1.479-2.952a3.244,3.244,0,0,0-.6-2.113,2.085,2.085,0,0,0-1.7-.721,1.98,1.98,0,0,0-1.644.721,3.333,3.333,0,0,0-.575,2.113V13.14a3.361,3.361,0,0,0,.579,2.131A1.986,1.986,0,0,0-3.821,16a2.075,2.075,0,0,0,1.7-.721,3.3,3.3,0,0,0,.593-2.135ZM9.6,17H8.106L3.975,9.134l-.044.015V17H2.444V6.336H3.931L8.062,14.18l.044-.007V6.336H9.6Zm8.451,0H16.564V6.336h1.487Zm10.081,0H26.637L22.507,9.134l-.044.015V17H20.976V6.336h1.487l4.131,7.844.044-.007V6.336h1.494Zm2.786,0V6.336h3.025a3.543,3.543,0,0,1,2.823,1.282,4.9,4.9,0,0,1,1.095,3.3V12.43a4.879,4.879,0,0,1-1.095,3.3A3.551,3.551,0,0,1,33.943,17ZM32.4,7.479v8.394h1.538a2.034,2.034,0,0,0,1.758-.963,4.3,4.3,0,0,0,.659-2.479V10.9A4.259,4.259,0,0,0,35.7,8.442a2.034,2.034,0,0,0-1.758-.963ZM47.371,6.336v7.053a3.742,3.742,0,0,1-1,2.769,3.5,3.5,0,0,1-2.585,1,3.393,3.393,0,0,1-2.538-1,3.785,3.785,0,0,1-.978-2.765V6.336H41.76v7.053a3.02,3.02,0,0,0,.56,1.937,1.791,1.791,0,0,0,1.469.7,1.866,1.866,0,0,0,1.512-.7,2.963,2.963,0,0,0,.575-1.941V6.336Zm7.518,7.983a1.752,1.752,0,0,0-.417-1.2A3.657,3.657,0,0,0,53,12.254a6.043,6.043,0,0,1-2.307-1.208,2.546,2.546,0,0,1-.806-1.97A2.7,2.7,0,0,1,50.776,7a3.243,3.243,0,0,1,2.281-.817,3.179,3.179,0,0,1,2.373.908,3.018,3.018,0,0,1,.864,2.278l-.015.044H54.852a2.242,2.242,0,0,0-.5-1.516,1.646,1.646,0,0,0-1.311-.579,1.544,1.544,0,0,0-1.227.5,1.823,1.823,0,0,0-.436,1.245,1.545,1.545,0,0,0,.461,1.15,4.449,4.449,0,0,0,1.553.857,5.463,5.463,0,0,1,2.219,1.245,2.71,2.71,0,0,1,.762,1.992,2.6,2.6,0,0,1-.9,2.076,3.481,3.481,0,0,1-2.355.773,3.79,3.79,0,0,1-2.446-.835,2.8,2.8,0,0,1-1-2.4l.015-.044h1.436A2.107,2.107,0,0,0,51.7,15.5a2.012,2.012,0,0,0,1.425.535,1.76,1.76,0,0,0,1.3-.465A1.68,1.68,0,0,0,54.888,14.319ZM65.167,7.479H62.34V17H60.846V7.479H58.041V6.336h7.126Zm3.5,4.929V17H67.184V6.343h3.142a3.35,3.35,0,0,1,2.377.784,2.927,2.927,0,0,1,.839,2.249,2.7,2.7,0,0,1-.392,1.461,2.583,2.583,0,0,1-1.124.97,2.041,2.041,0,0,1,1.183.923,3.218,3.218,0,0,1,.363,1.6v.93a4.182,4.182,0,0,0,.1.916,1.283,1.283,0,0,0,.337.659V17H72.472a1.268,1.268,0,0,1-.326-.736,6.64,6.64,0,0,1-.077-1.022v-.9a2.209,2.209,0,0,0-.414-1.414,1.384,1.384,0,0,0-1.146-.52Zm0-1.135h1.582a1.746,1.746,0,0,0,1.362-.487A1.99,1.99,0,0,0,72.055,9.4a2.133,2.133,0,0,0-.428-1.421,1.61,1.61,0,0,0-1.3-.505H68.671ZM77.9,17H76.408V6.336H77.9Zm8.03-4.951H82.307v3.823H86.57V17h-5.75V6.336h5.713V7.479H82.307v3.435h3.618Zm7.752,2.271a1.752,1.752,0,0,0-.417-1.2,3.657,3.657,0,0,0-1.472-.861,6.043,6.043,0,0,1-2.307-1.208,2.546,2.546,0,0,1-.806-1.97A2.7,2.7,0,0,1,89.565,7a3.243,3.243,0,0,1,2.281-.817,3.179,3.179,0,0,1,2.373.908,3.018,3.018,0,0,1,.864,2.278l-.015.044H93.641a2.242,2.242,0,0,0-.5-1.516,1.646,1.646,0,0,0-1.311-.579,1.544,1.544,0,0,0-1.227.5,1.823,1.823,0,0,0-.436,1.245,1.545,1.545,0,0,0,.461,1.15,4.449,4.449,0,0,0,1.553.857A5.463,5.463,0,0,1,94.4,12.313a2.71,2.71,0,0,1,.762,1.992,2.6,2.6,0,0,1-.9,2.076,3.481,3.481,0,0,1-2.355.773,3.79,3.79,0,0,1-2.446-.835,2.8,2.8,0,0,1-1-2.4l.015-.044h1.436a2.107,2.107,0,0,0,.575,1.619,2.012,2.012,0,0,0,1.425.535,1.76,1.76,0,0,0,1.3-.465A1.68,1.68,0,0,0,93.677,14.319Z" transform="translate(3170 4533)" fill="#0054a5"/>
  </g>
</svg>
