<svg xmlns="http://www.w3.org/2000/svg" xmlns:xlink="http://www.w3.org/1999/xlink"  viewBox="0 0 281 249">
  <defs>
    <filter id="Rectangle_336" x="0" y="0" width="281" height="249" filterUnits="userSpaceOnUse">
      <feOffset dy="3" input="SourceAlpha"/>
      <feGaussianBlur stdDeviation="3" result="blur"/>
      <feFlood flood-color="#95b2bb"/>
      <feComposite operator="in" in2="blur"/>
      <feComposite in="SourceGraphic"/>
    </filter>
  </defs>
  <g id="Group_1092" data-name="Group 1092" transform="translate(-3397 -4351)">
    <g transform="matrix(1, 0, 0, 1, 3397, 4351)" filter="url(#Rectangle_336)">
      <path id="Rectangle_336-2" data-name="Rectangle 336" d="M2,0H227a36,36,0,0,1,36,36V195a36,36,0,0,1-36,36H36A36,36,0,0,1,0,195V2A2,2,0,0,1,2,0Z" transform="translate(9 6)" fill="#fff"/>
    </g>
    <g id="maintenance" transform="translate(3478 4378)" style="mix-blend-mode: multiply;isolation: isolate">
      <path id="Path_3379" data-name="Path 3379" d="M172.412,37.7h-.3c0-8.735-1.452-27.953-17.176-27.953V8H144.459V9.747c-15.724,0-17.175,19.218-17.175,27.953H120v6.988h59.4V37.7Z" transform="translate(-83.199 -6.253)" fill="#1664ff"/>
      <path id="Path_3380" data-name="Path 3380" d="M55.109,218.3v-5.49H50.175a10.9,10.9,0,0,0-1.169-2.824l3.489-3.49-3.881-3.881L45.124,206.1a10.9,10.9,0,0,0-2.825-1.169V200H36.81v4.934a10.9,10.9,0,0,0-2.824,1.169l-3.49-3.489L26.615,206.5l3.489,3.49a10.9,10.9,0,0,0-1.169,2.824H24v5.49h4.934a10.9,10.9,0,0,0,1.169,2.824l-3.489,3.49,3.881,3.881,3.489-3.489a10.9,10.9,0,0,0,2.825,1.169v4.935H42.3v-4.935a10.9,10.9,0,0,0,2.824-1.169l3.49,3.489,3.881-3.881-3.489-3.489a10.9,10.9,0,0,0,1.169-2.825Zm-15.555,3.66a6.4,6.4,0,1,1,6.4-6.4A6.4,6.4,0,0,1,39.555,221.959Z" transform="translate(-24 -187.939)" fill="#dbdce0"/>
      <path id="Path_3381" data-name="Path 3381" d="M109.977,272a13.977,13.977,0,1,0,13.977,13.977A13.977,13.977,0,0,0,109.977,272Zm0,24.459a10.482,10.482,0,1,1,10.482-10.483A10.482,10.482,0,0,1,109.977,296.459Z" transform="translate(-64.44 -212.599)" fill="#4db2ff"/>
      <path id="Path_3382" data-name="Path 3382" d="M77.148,230.436a1.747,1.747,0,0,0,1.747-1.747V218.206a1.747,1.747,0,0,0-1.747-1.747H69.036a22.436,22.436,0,0,0-1.38-3.337l5.736-5.734a1.747,1.747,0,0,0,0-2.47l-7.415-7.413a1.747,1.747,0,0,0-2.47,0l-5.734,5.734a22.537,22.537,0,0,0-3.337-1.38v-8.112A1.747,1.747,0,0,0,52.689,192H42.206a1.747,1.747,0,0,0-1.747,1.747v8.112a22.538,22.538,0,0,0-3.337,1.38l-5.734-5.734a1.747,1.747,0,0,0-2.47,0L21.5,204.918a1.747,1.747,0,0,0,0,2.47l5.736,5.734a22.438,22.438,0,0,0-1.38,3.337H17.747A1.747,1.747,0,0,0,16,218.206v10.482a1.747,1.747,0,0,0,1.747,1.747h8.112a22.437,22.437,0,0,0,1.38,3.337L21.5,239.506a1.747,1.747,0,0,0,0,2.47l7.415,7.413a1.747,1.747,0,0,0,2.47,0l5.734-5.734a22.547,22.547,0,0,0,3.337,1.38v8.112a1.747,1.747,0,0,0,1.747,1.747H52.689a1.747,1.747,0,0,0,1.747-1.747v-8.112a22.539,22.539,0,0,0,3.337-1.38l5.734,5.734a1.747,1.747,0,0,0,2.47,0l7.415-7.413a1.747,1.747,0,0,0,0-2.47l-5.736-5.734a22.435,22.435,0,0,0,1.38-3.337h8.112Zm-11.115-2.184a19.1,19.1,0,0,1-2.044,4.941,1.747,1.747,0,0,0,.269,2.123l5.428,5.428-4.942,4.941-5.426-5.426a1.747,1.747,0,0,0-2.124-.269,19.072,19.072,0,0,1-4.939,2.044,1.747,1.747,0,0,0-1.31,1.691V251.4h-6.99v-7.677a1.747,1.747,0,0,0-1.31-1.691,19.071,19.071,0,0,1-4.939-2.044,1.747,1.747,0,0,0-2.124.269l-5.428,5.426-4.942-4.941,5.428-5.426a1.747,1.747,0,0,0,.269-2.123,19.1,19.1,0,0,1-2.044-4.941,1.747,1.747,0,0,0-1.691-1.31H19.494v-6.99h7.677a1.747,1.747,0,0,0,1.691-1.31,19.1,19.1,0,0,1,2.044-4.941,1.747,1.747,0,0,0-.269-2.123l-5.428-5.428,4.944-4.942,5.426,5.426a1.747,1.747,0,0,0,2.124.269,19.075,19.075,0,0,1,4.939-2.044,1.747,1.747,0,0,0,1.31-1.691v-7.675h6.988v7.677a1.747,1.747,0,0,0,1.31,1.691,19.075,19.075,0,0,1,4.939,2.044,1.747,1.747,0,0,0,2.124-.269l5.428-5.426,4.944,4.942-5.428,5.426a1.747,1.747,0,0,0-.269,2.123,19.1,19.1,0,0,1,2.044,4.941,1.747,1.747,0,0,0,1.691,1.31H75.4v6.988H67.724A1.747,1.747,0,0,0,66.033,228.252Z" transform="translate(-1.911 -150.07)" fill="#1664ff"/>
      <path id="Path_3383" data-name="Path 3383" d="M174.895,38.436V31.447a1.747,1.747,0,0,0-1.747-1.747h-5.573c-.407-10.133-4.385-26.475-17.139-27.85v-.1A1.747,1.747,0,0,0,148.689,0H138.206a1.747,1.747,0,0,0-1.747,1.747v.1C123.705,3.225,119.727,19.567,119.32,29.7h-5.573A1.747,1.747,0,0,0,112,31.447v6.988a1.747,1.747,0,0,0,1.747,1.747h59.4A1.747,1.747,0,0,0,174.895,38.436ZM171.4,36.689H115.494V33.194h13.977V29.7h-6.653c.363-8.854,3.571-22.864,13.641-24.325V20.965h3.494V3.494h6.988V20.965h3.494V5.376c10.07,1.461,13.278,15.47,13.641,24.325H132.965v3.494H171.4Z" transform="translate(-76.946)" fill="#8a8a8a"/>
      <path id="Path_3384" data-name="Path 3384" d="M338.941,212.965v-6.988a1.747,1.747,0,0,0-1.747-1.747h-3.07l2.17-2.172a1.747,1.747,0,0,0,0-2.47l-4.941-4.941a1.747,1.747,0,0,0-2.47,0l-2.172,2.17v-3.07A1.747,1.747,0,0,0,324.965,192h-6.988a1.747,1.747,0,0,0-1.747,1.747v3.07l-2.172-2.17a1.747,1.747,0,0,0-2.47,0l-4.941,4.941a1.747,1.747,0,0,0,0,2.47l2.17,2.172h-3.07A1.747,1.747,0,0,0,304,205.977v6.988a1.747,1.747,0,0,0,1.747,1.747h3.07l-2.17,2.172a1.747,1.747,0,0,0,0,2.47l4.941,4.941a1.747,1.747,0,0,0,2.47,0l2.172-2.172v3.071a1.747,1.747,0,0,0,1.747,1.747h6.988a1.747,1.747,0,0,0,1.747-1.747v-3.071l2.172,2.172a1.8,1.8,0,0,0,2.47,0l4.941-4.941a1.747,1.747,0,0,0,0-2.47l-2.17-2.172h3.07A1.747,1.747,0,0,0,338.941,212.965Zm-3.494-1.747h-4.1a1.747,1.747,0,0,0-1.644,1.157q-.153.436-.349.854a1.747,1.747,0,0,0,.349,1.988l2.9,2.9-2.483,2.47-2.9-2.907a1.747,1.747,0,0,0-1.985-.349,8.882,8.882,0,0,1-.849.349,1.747,1.747,0,0,0-1.165,1.647v4.118h-3.494v-4.1a1.747,1.747,0,0,0-1.165-1.647,8.866,8.866,0,0,1-.849-.349,1.747,1.747,0,0,0-1.985.349l-2.9,2.893-2.47-2.47,2.907-2.9a1.747,1.747,0,0,0,.349-1.988q-.2-.418-.349-.854a1.747,1.747,0,0,0-1.661-1.157h-4.1v-3.494h4.1a1.747,1.747,0,0,0,1.644-1.157q.153-.436.349-.854a1.747,1.747,0,0,0-.349-1.988l-2.89-2.9,2.47-2.47,2.9,2.907a1.747,1.747,0,0,0,1.988.349,8.162,8.162,0,0,1,.844-.349,1.747,1.747,0,0,0,1.165-1.661v-4.1h3.494v4.1a1.747,1.747,0,0,0,1.165,1.648,8.157,8.157,0,0,1,.844.349,1.747,1.747,0,0,0,1.988-.349l2.9-2.9,2.47,2.47-2.907,2.911a1.747,1.747,0,0,0-.349,1.988q.2.418.349.854a1.747,1.747,0,0,0,1.644,1.157h4.121Z" transform="translate(-227.016 -150.07)" fill="#8a8a8a"/>
      <path id="Path_3385" data-name="Path 3385" d="M358.988,240a6.988,6.988,0,1,0,6.988,6.988A6.988,6.988,0,0,0,358.988,240Zm0,10.482a3.494,3.494,0,1,1,3.494-3.494A3.494,3.494,0,0,1,358.988,250.482Z" transform="translate(-264.534 -187.588)" fill="#1664ff"/>
    </g>
    <path id="Path_4776" data-name="Path 4776" d="M-44.906-3.208l.015.044a3.144,3.144,0,0,1-.879,2.446,3.458,3.458,0,0,1-2.5.872A3.393,3.393,0,0,1-50.883-.9a4.174,4.174,0,0,1-.974-2.948V-6.8A4.245,4.245,0,0,1-50.9-9.756a3.3,3.3,0,0,1,2.578-1.062,3.614,3.614,0,0,1,2.549.846A3.118,3.118,0,0,1-44.884-7.5l-.015.044h-1.428a2.414,2.414,0,0,0-.5-1.681,1.938,1.938,0,0,0-1.494-.538,1.763,1.763,0,0,0-1.516.736,3.558,3.558,0,0,0-.535,2.113v2.981a3.532,3.532,0,0,0,.549,2.131,1.82,1.82,0,0,0,1.553.74,1.864,1.864,0,0,0,1.45-.531,2.485,2.485,0,0,0,.483-1.7Zm9.554-.652A4.07,4.07,0,0,1-36.378-.9,3.648,3.648,0,0,1-39.125.154,3.548,3.548,0,0,1-41.827-.9a4.124,4.124,0,0,1-1-2.955V-6.79a4.154,4.154,0,0,1,1-2.959,3.52,3.52,0,0,1,2.7-1.069,3.647,3.647,0,0,1,2.75,1.066A4.088,4.088,0,0,1-35.353-6.79Zm-1.479-2.952a3.244,3.244,0,0,0-.6-2.113,2.085,2.085,0,0,0-1.7-.721,1.98,1.98,0,0,0-1.644.721,3.333,3.333,0,0,0-.575,2.113V-3.86a3.361,3.361,0,0,0,.579,2.131A1.986,1.986,0,0,0-39.125-1a2.075,2.075,0,0,0,1.7-.721,3.3,3.3,0,0,0,.593-2.135ZM-25.7,0H-27.2l-4.131-7.866-.044.015V0h-1.487V-10.664h1.487l4.131,7.844.044-.007v-7.837H-25.7Zm7.649-2.681a1.752,1.752,0,0,0-.417-1.2,3.657,3.657,0,0,0-1.472-.861,6.043,6.043,0,0,1-2.307-1.208,2.546,2.546,0,0,1-.806-1.97A2.7,2.7,0,0,1-22.167-10a3.243,3.243,0,0,1,2.281-.817,3.179,3.179,0,0,1,2.373.908,3.018,3.018,0,0,1,.864,2.278l-.015.044h-1.428a2.242,2.242,0,0,0-.5-1.516A1.646,1.646,0,0,0-19.9-9.683a1.544,1.544,0,0,0-1.227.5,1.823,1.823,0,0,0-.436,1.245A1.545,1.545,0,0,0-21.1-6.79a4.449,4.449,0,0,0,1.553.857,5.463,5.463,0,0,1,2.219,1.245A2.71,2.71,0,0,1-16.567-2.7a2.6,2.6,0,0,1-.9,2.076,3.481,3.481,0,0,1-2.355.773,3.79,3.79,0,0,1-2.446-.835,2.8,2.8,0,0,1-1-2.4l.015-.044h1.436A2.107,2.107,0,0,0-21.244-1.5a2.012,2.012,0,0,0,1.425.535,1.76,1.76,0,0,0,1.3-.465A1.68,1.68,0,0,0-18.054-2.681ZM-7.775-9.521H-10.6V0H-12.1V-9.521H-14.9v-1.143h7.126Zm3.5,4.929V0H-5.758V-10.657h3.142A3.35,3.35,0,0,1-.24-9.873,2.927,2.927,0,0,1,.6-7.625,2.7,2.7,0,0,1,.207-6.163a2.583,2.583,0,0,1-1.124.97A2.041,2.041,0,0,1,.266-4.27a3.218,3.218,0,0,1,.363,1.6v.93a4.182,4.182,0,0,0,.1.916,1.283,1.283,0,0,0,.337.659V0H-.47A1.268,1.268,0,0,1-.8-.736,6.64,6.64,0,0,1-.873-1.758v-.9a2.209,2.209,0,0,0-.414-1.414,1.384,1.384,0,0,0-1.146-.52Zm0-1.135h1.582a1.746,1.746,0,0,0,1.362-.487A1.99,1.99,0,0,0-.888-7.6a2.133,2.133,0,0,0-.428-1.421,1.61,1.61,0,0,0-1.3-.505H-4.271Zm14.585-4.937v7.053a3.742,3.742,0,0,1-1,2.769,3.5,3.5,0,0,1-2.585,1,3.393,3.393,0,0,1-2.538-1,3.785,3.785,0,0,1-.978-2.765v-7.053H4.7v7.053a3.02,3.02,0,0,0,.56,1.937,1.791,1.791,0,0,0,1.469.7,1.866,1.866,0,0,0,1.512-.7A2.963,2.963,0,0,0,8.82-3.611v-7.053Zm9.327,7.456.015.044a3.144,3.144,0,0,1-.879,2.446,3.458,3.458,0,0,1-2.5.872A3.393,3.393,0,0,1,13.664-.9a4.174,4.174,0,0,1-.974-2.948V-6.8a4.245,4.245,0,0,1,.959-2.952,3.3,3.3,0,0,1,2.578-1.062,3.614,3.614,0,0,1,2.549.846A3.118,3.118,0,0,1,19.663-7.5l-.015.044H18.22a2.414,2.414,0,0,0-.5-1.681,1.938,1.938,0,0,0-1.494-.538,1.763,1.763,0,0,0-1.516.736,3.558,3.558,0,0,0-.535,2.113v2.981a3.532,3.532,0,0,0,.549,2.131,1.82,1.82,0,0,0,1.553.74,1.864,1.864,0,0,0,1.45-.531,2.485,2.485,0,0,0,.483-1.7Zm8.543-6.313H25.356V0H23.862V-9.521H21.057v-1.143h7.126ZM31.827,0H30.34V-10.664h1.487Zm10.1-3.86A4.07,4.07,0,0,1,40.9-.9,3.648,3.648,0,0,1,38.158.154,3.548,3.548,0,0,1,35.455-.9a4.124,4.124,0,0,1-1-2.955V-6.79a4.154,4.154,0,0,1,1-2.959,3.52,3.52,0,0,1,2.7-1.069A3.647,3.647,0,0,1,40.9-9.752,4.088,4.088,0,0,1,41.93-6.79ZM40.45-6.812a3.244,3.244,0,0,0-.6-2.113,2.085,2.085,0,0,0-1.7-.721,1.98,1.98,0,0,0-1.644.721,3.333,3.333,0,0,0-.575,2.113V-3.86a3.361,3.361,0,0,0,.579,2.131A1.986,1.986,0,0,0,38.158-1a2.075,2.075,0,0,0,1.7-.721A3.3,3.3,0,0,0,40.45-3.86ZM51.579,0H50.084L45.954-7.866l-.044.015V0H44.423V-10.664H45.91L50.041-2.82l.044-.007v-7.837h1.494ZM-31.237,17h-1.487V6.336h1.487Zm10.081,0H-22.65l-4.131-7.866-.044.015V17h-1.487V6.336h1.487l4.131,7.844.044-.007V6.336h1.494Zm2.786,0V6.336h3.025a3.543,3.543,0,0,1,2.823,1.282,4.9,4.9,0,0,1,1.095,3.3V12.43a4.879,4.879,0,0,1-1.095,3.3A3.551,3.551,0,0,1-15.345,17Zm1.487-9.521v8.394h1.538a2.034,2.034,0,0,0,1.758-.963,4.3,4.3,0,0,0,.659-2.479V10.9a4.259,4.259,0,0,0-.659-2.457,2.034,2.034,0,0,0-1.758-.963ZM-1.917,6.336v7.053a3.742,3.742,0,0,1-1,2.769,3.5,3.5,0,0,1-2.585,1,3.393,3.393,0,0,1-2.538-1,3.785,3.785,0,0,1-.978-2.765V6.336h1.487v7.053a3.02,3.02,0,0,0,.56,1.937,1.791,1.791,0,0,0,1.469.7,1.866,1.866,0,0,0,1.512-.7,2.963,2.963,0,0,0,.575-1.941V6.336ZM5.6,14.319a1.752,1.752,0,0,0-.417-1.2,3.657,3.657,0,0,0-1.472-.861A6.043,6.043,0,0,1,1.4,11.045,2.546,2.546,0,0,1,.6,9.075,2.7,2.7,0,0,1,1.488,7,3.243,3.243,0,0,1,3.77,6.182a3.179,3.179,0,0,1,2.373.908,3.018,3.018,0,0,1,.864,2.278l-.015.044H5.564a2.242,2.242,0,0,0-.5-1.516,1.646,1.646,0,0,0-1.311-.579,1.544,1.544,0,0,0-1.227.5,1.823,1.823,0,0,0-.436,1.245,1.545,1.545,0,0,0,.461,1.15,4.449,4.449,0,0,0,1.553.857,5.463,5.463,0,0,1,2.219,1.245A2.71,2.71,0,0,1,7.088,14.3a2.6,2.6,0,0,1-.9,2.076,3.481,3.481,0,0,1-2.355.773,3.79,3.79,0,0,1-2.446-.835,2.8,2.8,0,0,1-1-2.4L.4,13.88H1.836A2.107,2.107,0,0,0,2.411,15.5a2.012,2.012,0,0,0,1.425.535,1.76,1.76,0,0,0,1.3-.465A1.68,1.68,0,0,0,5.6,14.319ZM15.88,7.479H13.052V17H11.558V7.479H8.753V6.336H15.88Zm3.5,4.929V17H17.9V6.343h3.142a3.35,3.35,0,0,1,2.377.784,2.927,2.927,0,0,1,.839,2.249,2.7,2.7,0,0,1-.392,1.461,2.583,2.583,0,0,1-1.124.97,2.041,2.041,0,0,1,1.183.923,3.218,3.218,0,0,1,.363,1.6v.93a4.182,4.182,0,0,0,.1.916,1.283,1.283,0,0,0,.337.659V17H23.185a1.268,1.268,0,0,1-.326-.736,6.64,6.64,0,0,1-.077-1.022v-.9a2.209,2.209,0,0,0-.414-1.414,1.384,1.384,0,0,0-1.146-.52Zm0-1.135h1.582a1.746,1.746,0,0,0,1.362-.487A1.99,1.99,0,0,0,22.767,9.4a2.133,2.133,0,0,0-.428-1.421,1.61,1.61,0,0,0-1.3-.505H19.384Zm10.33.264h.044l2.227-5.2h1.67l-3.2,6.826V17H28.967V13.052L25.824,6.336H27.48Z" transform="translate(3538 4533)" fill="#0054a5"/>
  </g>
</svg>
