<svg xmlns="http://www.w3.org/2000/svg" xmlns:xlink="http://www.w3.org/1999/xlink"  viewBox="0 0 281 249">
  <defs><style>
        @import url('https://fonts.googleapis.com/css2?family=Roboto+Condensed:wght@300;400&amp;display=swap');
        </style>
    <filter id="Rectangle_336" x="0" y="0" width="281" height="249" filterUnits="userSpaceOnUse">
      <feOffset dy="3" input="SourceAlpha"/>
      <feGaussianBlur stdDeviation="3" result="blur"/>
      <feFlood flood-color="#95b2bb"/>
      <feComposite operator="in" in2="blur"/>
      <feComposite in="SourceGraphic"/>
    </filter>
  </defs>
  <g id="Group_842" data-name="Group 842" transform="translate(-3397 -4351)">
    <g transform="matrix(1, 0, 0, 1, 3397, 4351)" filter="url(#Rectangle_336)">
      <path id="Rectangle_336-2" data-name="Rectangle 336" d="M2,0H227a36,36,0,0,1,36,36V195a36,36,0,0,1-36,36H36A36,36,0,0,1,0,195V2A2,2,0,0,1,2,0Z" transform="translate(9 6)" fill="#fff"/>
    </g>
    <text style="text-align: center;font-weight:400; font-family:Roboto Condensed" id="CONSTRUCTION_INDUSTRY" data-name="CONSTRUCTION
INDUSTRY" transform="translate(3534 4533)" fill="#0054a5" font-size="15" font-family="RobotoCondensed-Regular, Roboto" letter-spacing="0.05em"><tspan x="-52.597" y="0">CONSTRUCTION</tspan><tspan x="-33.874" y="17">INDUSTRY</tspan></text>
    <g id="maintenance" transform="translate(3478 4378)" style="mix-blend-mode: multiply;isolation: isolate">
      <path id="Path_3379" data-name="Path 3379" d="M172.412,37.7h-.3c0-8.735-1.452-27.953-17.176-27.953V8H144.459V9.747c-15.724,0-17.175,19.218-17.175,27.953H120v6.988h59.4V37.7Z" transform="translate(-83.199 -6.253)" fill="#1664ff"/>
      <path id="Path_3380" data-name="Path 3380" d="M55.109,218.3v-5.49H50.175a10.9,10.9,0,0,0-1.169-2.824l3.489-3.49-3.881-3.881L45.124,206.1a10.9,10.9,0,0,0-2.825-1.169V200H36.81v4.934a10.9,10.9,0,0,0-2.824,1.169l-3.49-3.489L26.615,206.5l3.489,3.49a10.9,10.9,0,0,0-1.169,2.824H24v5.49h4.934a10.9,10.9,0,0,0,1.169,2.824l-3.489,3.49,3.881,3.881,3.489-3.489a10.9,10.9,0,0,0,2.825,1.169v4.935H42.3v-4.935a10.9,10.9,0,0,0,2.824-1.169l3.49,3.489,3.881-3.881-3.489-3.489a10.9,10.9,0,0,0,1.169-2.825Zm-15.555,3.66a6.4,6.4,0,1,1,6.4-6.4A6.4,6.4,0,0,1,39.555,221.959Z" transform="translate(-24 -187.939)" fill="#dbdce0"/>
      <path id="Path_3381" data-name="Path 3381" d="M109.977,272a13.977,13.977,0,1,0,13.977,13.977A13.977,13.977,0,0,0,109.977,272Zm0,24.459a10.482,10.482,0,1,1,10.482-10.483A10.482,10.482,0,0,1,109.977,296.459Z" transform="translate(-64.44 -212.599)" fill="#4db2ff"/>
      <path id="Path_3382" data-name="Path 3382" d="M77.148,230.436a1.747,1.747,0,0,0,1.747-1.747V218.206a1.747,1.747,0,0,0-1.747-1.747H69.036a22.436,22.436,0,0,0-1.38-3.337l5.736-5.734a1.747,1.747,0,0,0,0-2.47l-7.415-7.413a1.747,1.747,0,0,0-2.47,0l-5.734,5.734a22.537,22.537,0,0,0-3.337-1.38v-8.112A1.747,1.747,0,0,0,52.689,192H42.206a1.747,1.747,0,0,0-1.747,1.747v8.112a22.538,22.538,0,0,0-3.337,1.38l-5.734-5.734a1.747,1.747,0,0,0-2.47,0L21.5,204.918a1.747,1.747,0,0,0,0,2.47l5.736,5.734a22.438,22.438,0,0,0-1.38,3.337H17.747A1.747,1.747,0,0,0,16,218.206v10.482a1.747,1.747,0,0,0,1.747,1.747h8.112a22.437,22.437,0,0,0,1.38,3.337L21.5,239.506a1.747,1.747,0,0,0,0,2.47l7.415,7.413a1.747,1.747,0,0,0,2.47,0l5.734-5.734a22.547,22.547,0,0,0,3.337,1.38v8.112a1.747,1.747,0,0,0,1.747,1.747H52.689a1.747,1.747,0,0,0,1.747-1.747v-8.112a22.539,22.539,0,0,0,3.337-1.38l5.734,5.734a1.747,1.747,0,0,0,2.47,0l7.415-7.413a1.747,1.747,0,0,0,0-2.47l-5.736-5.734a22.435,22.435,0,0,0,1.38-3.337h8.112Zm-11.115-2.184a19.1,19.1,0,0,1-2.044,4.941,1.747,1.747,0,0,0,.269,2.123l5.428,5.428-4.942,4.941-5.426-5.426a1.747,1.747,0,0,0-2.124-.269,19.072,19.072,0,0,1-4.939,2.044,1.747,1.747,0,0,0-1.31,1.691V251.4h-6.99v-7.677a1.747,1.747,0,0,0-1.31-1.691,19.071,19.071,0,0,1-4.939-2.044,1.747,1.747,0,0,0-2.124.269l-5.428,5.426-4.942-4.941,5.428-5.426a1.747,1.747,0,0,0,.269-2.123,19.1,19.1,0,0,1-2.044-4.941,1.747,1.747,0,0,0-1.691-1.31H19.494v-6.99h7.677a1.747,1.747,0,0,0,1.691-1.31,19.1,19.1,0,0,1,2.044-4.941,1.747,1.747,0,0,0-.269-2.123l-5.428-5.428,4.944-4.942,5.426,5.426a1.747,1.747,0,0,0,2.124.269,19.075,19.075,0,0,1,4.939-2.044,1.747,1.747,0,0,0,1.31-1.691v-7.675h6.988v7.677a1.747,1.747,0,0,0,1.31,1.691,19.075,19.075,0,0,1,4.939,2.044,1.747,1.747,0,0,0,2.124-.269l5.428-5.426,4.944,4.942-5.428,5.426a1.747,1.747,0,0,0-.269,2.123,19.1,19.1,0,0,1,2.044,4.941,1.747,1.747,0,0,0,1.691,1.31H75.4v6.988H67.724A1.747,1.747,0,0,0,66.033,228.252Z" transform="translate(-1.911 -150.07)" fill="#1664ff"/>
      <path id="Path_3383" data-name="Path 3383" d="M174.895,38.436V31.447a1.747,1.747,0,0,0-1.747-1.747h-5.573c-.407-10.133-4.385-26.475-17.139-27.85v-.1A1.747,1.747,0,0,0,148.689,0H138.206a1.747,1.747,0,0,0-1.747,1.747v.1C123.705,3.225,119.727,19.567,119.32,29.7h-5.573A1.747,1.747,0,0,0,112,31.447v6.988a1.747,1.747,0,0,0,1.747,1.747h59.4A1.747,1.747,0,0,0,174.895,38.436ZM171.4,36.689H115.494V33.194h13.977V29.7h-6.653c.363-8.854,3.571-22.864,13.641-24.325V20.965h3.494V3.494h6.988V20.965h3.494V5.376c10.07,1.461,13.278,15.47,13.641,24.325H132.965v3.494H171.4Z" transform="translate(-76.946)" fill="#8a8a8a"/>
      <path id="Path_3384" data-name="Path 3384" d="M338.941,212.965v-6.988a1.747,1.747,0,0,0-1.747-1.747h-3.07l2.17-2.172a1.747,1.747,0,0,0,0-2.47l-4.941-4.941a1.747,1.747,0,0,0-2.47,0l-2.172,2.17v-3.07A1.747,1.747,0,0,0,324.965,192h-6.988a1.747,1.747,0,0,0-1.747,1.747v3.07l-2.172-2.17a1.747,1.747,0,0,0-2.47,0l-4.941,4.941a1.747,1.747,0,0,0,0,2.47l2.17,2.172h-3.07A1.747,1.747,0,0,0,304,205.977v6.988a1.747,1.747,0,0,0,1.747,1.747h3.07l-2.17,2.172a1.747,1.747,0,0,0,0,2.47l4.941,4.941a1.747,1.747,0,0,0,2.47,0l2.172-2.172v3.071a1.747,1.747,0,0,0,1.747,1.747h6.988a1.747,1.747,0,0,0,1.747-1.747v-3.071l2.172,2.172a1.8,1.8,0,0,0,2.47,0l4.941-4.941a1.747,1.747,0,0,0,0-2.47l-2.17-2.172h3.07A1.747,1.747,0,0,0,338.941,212.965Zm-3.494-1.747h-4.1a1.747,1.747,0,0,0-1.644,1.157q-.153.436-.349.854a1.747,1.747,0,0,0,.349,1.988l2.9,2.9-2.483,2.47-2.9-2.907a1.747,1.747,0,0,0-1.985-.349,8.882,8.882,0,0,1-.849.349,1.747,1.747,0,0,0-1.165,1.647v4.118h-3.494v-4.1a1.747,1.747,0,0,0-1.165-1.647,8.866,8.866,0,0,1-.849-.349,1.747,1.747,0,0,0-1.985.349l-2.9,2.893-2.47-2.47,2.907-2.9a1.747,1.747,0,0,0,.349-1.988q-.2-.418-.349-.854a1.747,1.747,0,0,0-1.661-1.157h-4.1v-3.494h4.1a1.747,1.747,0,0,0,1.644-1.157q.153-.436.349-.854a1.747,1.747,0,0,0-.349-1.988l-2.89-2.9,2.47-2.47,2.9,2.907a1.747,1.747,0,0,0,1.988.349,8.162,8.162,0,0,1,.844-.349,1.747,1.747,0,0,0,1.165-1.661v-4.1h3.494v4.1a1.747,1.747,0,0,0,1.165,1.648,8.157,8.157,0,0,1,.844.349,1.747,1.747,0,0,0,1.988-.349l2.9-2.9,2.47,2.47-2.907,2.911a1.747,1.747,0,0,0-.349,1.988q.2.418.349.854a1.747,1.747,0,0,0,1.644,1.157h4.121Z" transform="translate(-227.016 -150.07)" fill="#8a8a8a"/>
      <path id="Path_3385" data-name="Path 3385" d="M358.988,240a6.988,6.988,0,1,0,6.988,6.988A6.988,6.988,0,0,0,358.988,240Zm0,10.482a3.494,3.494,0,1,1,3.494-3.494A3.494,3.494,0,0,1,358.988,250.482Z" transform="translate(-264.534 -187.588)" fill="#1664ff"/>
    </g>
  </g>
</svg>
