<svg xmlns="http://www.w3.org/2000/svg" xmlns:xlink="http://www.w3.org/1999/xlink"  viewBox="0 0 281 249">
  <defs>
    <filter id="Rectangle_337" x="0" y="0" width="281" height="249" filterUnits="userSpaceOnUse">
      <feOffset dy="3" input="SourceAlpha"/>
      <feGaussianBlur stdDeviation="3" result="blur"/>
      <feFlood flood-color="#95b2bb"/>
      <feComposite operator="in" in2="blur"/>
      <feComposite in="SourceGraphic"/>
    </filter>
  </defs>
  <g id="Group_1091" data-name="Group 1091" transform="translate(-3765 -4351)">
    <g transform="matrix(1, 0, 0, 1, 3765, 4351)" filter="url(#Rectangle_337)">
      <path id="Rectangle_337-2" data-name="Rectangle 337" d="M2,0H227a36,36,0,0,1,36,36V195a36,36,0,0,1-36,36H36A36,36,0,0,1,0,195V2A2,2,0,0,1,2,0Z" transform="translate(9 6)" fill="#fff"/>
    </g>
    <g id="ship_building" data-name="ship building" transform="translate(3861 4380)" style="mix-blend-mode: multiply;isolation: isolate">
      <path id="Path_3386" data-name="Path 3386" d="M39.428,115.121c-1.088,7.319-1.088,7.319,5.674,7.319h5.182c.648,0,1.444,0,1.5.823.071,1.049-.81,1.075-1.58,1.095H48.9c-15.215,0-30.444-.084-45.646,0-2.591,0-3.239-.771-3.239-3.31Q.162,92.231.02,63.4c0-5.182,3.057-8.213,7.773-7.773a43.673,43.673,0,0,0,5.83,0c2.973-.136,5.221.874,6.678,3.588.959,1.788,2.079,2.7,3.886.564s3.886-1.859,5.434.3,2.533,1.943,4.158.065a3.239,3.239,0,0,1,5.46.538c.285.5.531,1.023.162,1.5-.57.706-1.2.33-1.6-.207-1.237-1.652-2.125-1.1-3.316.175-2.138,2.3-3.886,2.248-5.83-.291-1.4-1.794-2.423-1.872-3.686-.052-.117.175-.3.408-.473.421-4.741.33-6.587,7.015-12.339,5.454-1.853-.505-1.159,1.658-1.166,2.591q-.091,21.038-.032,42.1c0,3.239-1.114,7.553.512,9.373,1.872,2.079,6.283.531,9.586.648,2.8.1,5.616-.091,8.421.058,1.885.1,2.423-.576,2.3-2.377a25.192,25.192,0,0,1,.058-6.477c.44-2.248-1.742-2.733-2.209-4.353-1.529-5.279-3.239-10.506-4.968-15.714-.557-1.665-.13-2.733,1.386-3.388,3.757-1.587,5.052-4.4,4.4-8.427-.311-2,.091-4.107-.1-6.141-.207-2.345.758-3.239,2.96-2.837,3.465.648,4.618-.894,4.035-4.158-.473-2.649.531-3.582,3.3-3.42,4.081.246,8.2.162,12.307,0,2.125-.071,3.025.648,2.682,2.759-.052.317.039.648,0,.972-.538,2.993.453,4.431,3.7,3.828,2.474-.453,3.647.505,3.323,3.167-.188,1.49.155,3.051-.078,4.534-.719,4.534.544,7.941,5.033,9.8,1.742.719,1.781,1.982,1.185,3.705-1.658,4.78-2.487,9.949-4.774,14.38s-2.047,8.783-1.943,13.272c.078,2.8-1.347,2.98-3.394,2.772-1.82-.181-4.353.978-4.158-2.656.11-2.079,1.056-5-.492-6.069-1.3-.894-3.621,1.211-5.441,2.079a3.66,3.66,0,0,1-3.627,0C43.192,116.78,41.339,116,39.428,115.121Zm-4.806,7.209c.894,0,2.358.648,2.455-.648.168-2.306.881-4.741-.473-6.976-.155-1.827-1.632-1.58-3.012-2.021v8.544c-.006.693.1,1.3,1.03,1.1Zm22.949,0c1.626.324,2.727.11,2.591-2s-.1-4.288-.149-6.432c.052-.5.272-1.3-.557-1.1-1.678.4-3.491.959-2.96,3.3.44,2.086-1.334,4.528,1.075,6.251ZM42.162,72.824l.207.194.214-.194c2.215-.039,4.437-.13,6.652-.13,4.534,0,4.534,0,4.346-4.612.11-1.516-1.049-1.056-1.775-1.062-3.239-.045-6.477-.071-9.716,0-.965,0-2.656-.648-2.714.79-.071,1.542-1.3,3.556.861,4.767ZM60.59,75.933c.3-1.671-.946-1.3-1.82-1.3H34.24c-.965,0-1.989-.149-1.943,1.367.039,3.187,0,6.374,0,9.969l1.943-1.451c2.338-1.542,4.69-3.064,7.008-4.631,5.558-3.744,5.551-3.75,11.225.1,2.591,1.768,5.182,3.517,8.155,5.506Zm-56.7,46.384c5.182.324,5.182.324,5.182-4.871V71.3c0-5.4,0-5.441,5.337-5.655,1.775-.071,3.239-.583,3.984-2.209a3.551,3.551,0,0,0-.9-4.638c-.758-1.172-1.943-1.211-3.154-1.2H7.547c-4.534.065-5.525.978-5.538,5.519-.039,9.923,0,19.853,0,29.8v27.2C1.95,121.4,1.685,122.92,3.893,122.318Zm42.278-34.5c-.045-2.889-1.127-3.038-3.239-1.393s-4.586,3.174-6.866,4.78c-2.708,1.9-6.911,3.368-7.689,5.888-.836,2.708,1.529,6.413,2.52,9.677.337,1.095.363,2.358,1.652,2.96,3.886,1.8,7.773,3.653,11.659,5.454.978.453,1.639.24,1.665-1,0-.855.1-1.71.162-2.591a1.788,1.788,0,0,1,.259,2.96l1.263.725c.3.091.648.356.887.259,4.2-1.943,8.369-3.886,12.56-5.83a2.4,2.4,0,0,0,1.3-1.7c.972-3.18,2-6.348,3.025-9.509.33-1,.376-1.807-.648-2.5C59.171,92.3,53.7,88.551,48.211,84.827c-.881,1.134-.609,2.656-2.066,2.986Zm-.648-8.524C39.4,83.434,33.365,87.534,27.316,91.6a1.592,1.592,0,0,0-.369,2.5c.855,1.3,1.516,0,2.053-.389C34.11,90.3,39.143,86.77,44.254,83.344c1.393-.933,2.014-2.008,1.211-4.055Zm2.591,0c-.907,2.261.058,3.31,1.555,4.3,4.923,3.239,9.768,6.659,14.7,9.91.648.421,1.334,1.9,2.293.706.81-1,.6-2.008-.725-2.876-5.972-3.919-11.8-7.941-17.877-12.067Z" transform="translate(-0.02 -19.582)" fill="#8a8a8a"/>
      <path id="Path_3387" data-name="Path 3387" d="M89.269,99.635q-.058-28.176-.11-56.353c0-9.392-.071-18.784.045-28.176,0-2.17-.648-2.869-2.727-2.675a53.69,53.69,0,0,1-5.5,0c-2.351-.039-4.5-1-5.234-3.142C74.9,6.847,73.452,6.607,71.353,6.75c-1.943.13-3.886,0-5.83.045-.505,0-1.108-.11-1.419.5s.181.978.648,1.237a4.361,4.361,0,0,1,2.157,5.506c-.369,1.263.738,1.671,1.354,2.312,3.064,3.187,6.141,6.374,9.308,9.463,1.192,1.166,1.3,1.943,0,3.148-2.3,2.131-4.431,4.456-6.685,6.626-.609.589-1.3,1.943-2.286.842s.479-1.665,1.075-2.3A33.993,33.993,0,0,1,74.048,29.8c2.468-1.827,1.911-3.161-.1-4.89s-3.822-3.809-5.707-5.739c-3.886-3.977-6.587-4.009-10.545-.123-2.39,2.338-4.735,4.728-7.2,7-1.134,1.036-1.2,1.7,0,2.779,2.241,2.027,4.34,4.2,6.477,6.354.486.492,1.334,1.043.466,1.859s-1.373-.11-1.885-.551c-2.591-2.474-5.046-5.033-7.637-7.468-1.237-1.159-1.224-2,0-3.161,3.3-3.1,6.477-6.322,9.716-9.483.939-.907,1.943-1.652,1.134-3.239a2.892,2.892,0,0,1,.706-3.025c1.159-1.3,2.818-2.176,2.591-4.4-.078-.842,1.114-.777,1.859-.777h5.182c2.947,0,5.992.615,7.585-3.051C77.312.609,78.983.065,80.408.046,86.018-.025,91.634,0,97.249.046a4.45,4.45,0,0,1,1.49.583c0,.648,0,1.347,0,2.027a9.12,9.12,0,0,0-2.4-.713c-5.111-.065-10.228,0-15.338,0a3.09,3.09,0,0,0-2.325.842C75.343,6.025,76.224,9.108,81,10.811h2.481l6.231-.039c.155.389.356.453.648.091,1.01.343.7,1.224.693,1.9q0,43.444-.071,86.881ZM65.135,13.124c.155-1.781-.512-2.157-1.645-2.3A2.178,2.178,0,0,0,60.9,12.942c-.188,1.257.985,1.749,2.034,1.781a2,2,0,0,0,2.2-1.6Z" transform="translate(-16.568 -0.002)" fill="#989aa0"/>
      <path id="Path_3388" data-name="Path 3388" d="M123.015,3V.97c2.993,1.224,3.044,3.828,3.044,6.477v48.14c0,15.3-.078,30.592.052,45.892,0,2.74-.8,3.647-3.459,3.368-2.241-.24-4.534-.168-6.762-.233a1.665,1.665,0,0,1,1.665-1.561,13.194,13.194,0,0,1,2.591-.091c3.167.505,4.1-.557,4.081-3.932-.155-30.372-.1-60.745-.084-91.11C124.11,6.171,124.187,4.455,123.015,3Z" transform="translate(-40.837 -0.343)" fill="#8a8a8a"/>
      <path id="Path_3389" data-name="Path 3389" d="M69.039,59.068c-4.625-.155-3.958.836-4-5.506,0-3.29,1.71-5.182,4.45-5.143,3.161.078,4.152,2.267,4.418,7.637C74.079,59.995,71.656,59.068,69.039,59.068Zm.725-5.182c-1.25-.091-2.28-.149-2.267,1.7s1.231,1.58,2.351,1.632,2.086.078,2.125-1.561c.045-1.788-.907-1.937-2.209-1.8Zm1.723-2.066c-2.254-1.982-2.254-1.982-3.854,0Z" transform="translate(-22.92 -17.057)" fill="#8a8a8a"/>
      <path id="Path_3390" data-name="Path 3390" d="M116.256,157.626a1.665,1.665,0,0,0-1.665,1.561h-1.3l-.939-.6-.117-1.406,1.678-1.3c0,1.444.8,1.781,2.06,1.431A.544.544,0,0,0,116.256,157.626Z" transform="translate(-39.551 -54.916)" fill="#8a8a8a"/>
      <path id="Path_3391" data-name="Path 3391" d="M113.948,155.137l-1.678,1.3V153.79h1.684Z" transform="translate(-39.562 -54.176)" fill="#8a8a8a"/>
      <path id="Path_3392" data-name="Path 3392" d="M112.45,160.07l.939.6a.725.725,0,0,1-.939-.6Z" transform="translate(-39.625 -56.388)" fill="#8a8a8a"/>
      <path id="Path_3393" data-name="Path 3393" d="M71.259,130.492A1.77,1.77,0,0,0,71,127.551c.22-4.651-.181-9.308.525-14.011.473-3.167.758-6.581-.376-9.807,1.457-.33,1.185-1.853,2.027-2.954,5.493,3.724,10.96,7.468,16.465,11.16,1.036.693.991,1.5.648,2.5-1.03,3.161-2.053,6.328-3.025,9.509a2.4,2.4,0,0,1-1.3,1.7c-4.191,1.943-8.362,3.886-12.56,5.83-.214.1-.589-.168-.887-.259C72.522,130.232,72.2,129.824,71.259,130.492Z" transform="translate(-25.024 -35.502)" fill="#fafafa"/>
      <path id="Path_3394" data-name="Path 3394" d="M61.451,104c1.134,3.239.849,6.639.376,9.807-.706,4.7-.3,9.36-.525,14.01-.058.836-.136,1.691-.162,2.546,0,1.244-.687,1.457-1.665,1-3.886-1.8-7.773-3.653-11.659-5.454-1.3-.6-1.3-1.865-1.652-2.96-.991-3.239-3.355-6.97-2.52-9.677.777-2.52,4.981-3.984,7.689-5.888,2.28-1.606,4.664-3.077,6.866-4.78S61.405,101.107,61.451,104Z" transform="translate(-15.326 -35.765)" fill="#f6f6f6"/>
      <path id="Path_3395" data-name="Path 3395" d="M19.532,60.54c1.632,1.3,1.678,2.954.9,4.638s-2.209,2.138-3.984,2.209c-5.344.214-5.344.253-5.337,5.655v46.151c0,5.182,0,5.182-5.182,4.871V66.855c0-4.456,1.853-6.264,6.283-6.315,1.179,0,2.358.1,3.543.155-.972,1.017-2,2.073-1.082,3.6.81,1.367,2.066,1.982,3.478,1,1.989-1.386,1.542-3,.084-4.534Z" transform="translate(-2.102 -21.327)" fill="#1664ff"/>
      <path id="Path_3396" data-name="Path 3396" d="M14.783,60.063c-1.185-.058-2.364-.168-3.543-.155-4.431.052-6.3,1.859-6.3,6.315v57.208c-2.209.57-1.943-.946-1.943-2.241v-57c0-4.534.972-5.454,5.538-5.519,2.267-.039,4.534,0,6.795,0,1.218,0,2.4,0,3.154,1.2l-1.231.24Z" transform="translate(-1.064 -20.663)" fill="#ebebeb"/>
      <path id="Path_3397" data-name="Path 3397" d="M79.151,87v9.5c-2.934-1.963-5.525-3.712-8.155-5.48-5.674-3.848-5.668-3.841-11.225-.1-2.319,1.568-4.67,3.09-7.008,4.631,0-1.3-.052-2.591-.052-3.886,0-4.256.35-4.612,4.534-4.625Z" transform="translate(-18.581 -30.648)" fill="#fff"/>
      <path id="Path_3398" data-name="Path 3398" d="M59.823,92.18c.8,2.047.181,3.116-1.3,4.087-5.111,3.4-10.144,6.931-15.254,10.364-.538.363-1.2,1.684-2.053.389a1.592,1.592,0,0,1,.369-2.5C47.665,100.426,53.7,96.325,59.823,92.18Z" transform="translate(-14.378 -32.473)" fill="#ebebeb"/>
      <path id="Path_3399" data-name="Path 3399" d="M73.989,92.14c6.076,4.126,11.905,8.148,17.819,12.041,1.3.868,1.535,1.872.725,2.876-.959,1.2-1.658-.285-2.293-.706-4.929-3.239-9.774-6.646-14.7-9.91C74.047,95.45,73.082,94.4,73.989,92.14Z" transform="translate(-25.953 -32.459)" fill="#ebebeb"/>
      <path id="Path_3400" data-name="Path 3400" d="M75.467,74.91c.188,4.592.188,4.592-4.346,4.592-2.215,0-4.437.071-6.652.11a.3.3,0,0,0-.421,0l-1.9-.214c.071-4.469.071-4.463,4.4-4.476Z" transform="translate(-21.906 -26.389)" fill="#1664ff"/>
      <path id="Path_3401" data-name="Path 3401" d="M78.125,86.268l-21.9.039c-4.191,0-4.534.369-4.534,4.625,0,1.3,0,2.591.052,3.886L49.8,96.269V86.3c0-1.516,1-1.367,1.943-1.367h24.53C77.18,84.973,78.43,84.6,78.125,86.268Z" transform="translate(-17.556 -29.917)" fill="#ebebeb"/>
      <path id="Path_3402" data-name="Path 3402" d="M74.776,74.283l-8.919.058c-4.327,0-4.327,0-4.4,4.476-2.157-1.211-.933-3.239-.861-4.767.058-1.412,1.749-.771,2.714-.79,3.239-.084,6.477-.058,9.716,0C73.727,73.228,74.886,72.768,74.776,74.283Z" transform="translate(-21.215 -25.763)" fill="#ebebeb"/>
      <path id="Path_3403" data-name="Path 3403" d="M91.26,145.64c.045,2.144,0,4.3.149,6.432s-.939,2.325-2.591,2c0-1.691.149-3.4,0-5.078C88.663,147.059,89.336,145.951,91.26,145.64Z" transform="translate(-31.293 -51.305)" fill="#1664ff"/>
      <path id="Path_3404" data-name="Path 3404" d="M55.422,146.778c1.354,2.235.648,4.67.473,6.976-.1,1.3-1.561.648-2.455.648.039-2.008.1-4.016.091-6.024C53.524,147.038,53.971,146.338,55.422,146.778Z" transform="translate(-18.838 -51.66)" fill="#1664ff"/>
      <path id="Path_3405" data-name="Path 3405" d="M90.574,145.024c-1.943.311-2.591,1.419-2.422,3.355.155,1.678,0,3.388,0,5.078-2.41-1.7-.648-4.165-1.1-6.231-.531-2.345,1.3-2.9,2.96-3.3C90.833,143.722,90.626,144.525,90.574,145.024Z" transform="translate(-30.607 -50.689)" fill="#ebebeb"/>
      <path id="Path_3406" data-name="Path 3406" d="M54.858,145.751c-1.451-.44-1.9.259-1.891,1.6,0,2.008-.052,4.016-.091,6.024-.952.207-1.036-.389-1.036-1.1V143.73C53.239,144.17,54.7,143.9,54.858,145.751Z" transform="translate(-18.274 -50.632)" fill="#ebebeb"/>
      <path id="Path_3407" data-name="Path 3407" d="M71.4,146.477c.939-.648,1.263-.259,1.263.725Z" transform="translate(-25.165 -51.488)" fill="#8a8a8a"/>
      <path id="Path_3408" data-name="Path 3408" d="M65.08,82.154a.3.3,0,0,1,.421,0l-.214.194Z" transform="translate(-22.938 -28.911)" fill="#8a8a8a"/>
      <path id="Path_3409" data-name="Path 3409" d="M110.5,103.738a.544.544,0,0,1-.259-.317q.052-45.121.143-90.236c0-2.261-.868-2.591-2.824-2.643-2.857-.065-5.83.738-8.576-.648,1.691-.907,2.921-2.2,1.742-4.107-1.3-2.053-3.018-1.587-4.644-.227L95.91,3.812a3.09,3.09,0,0,1,2.325-.881c5.111,0,10.228-.039,15.338,0a9.12,9.12,0,0,1,2.4.725c1.172,1.457,1.095,3.187,1.095,4.923,0,30.366-.071,60.738.084,91.11,0,3.375-.913,4.437-4.081,3.932A13.194,13.194,0,0,0,110.5,103.738Z" transform="translate(-33.799 -1.027)" fill="#679cfc"/>
      <path id="Path_3410" data-name="Path 3410" d="M94.821,4.3,95,6.049c-.738,2.591.279,4,2.9,4.333,2.766,1.367,5.72.564,8.576.648,1.943.045,2.831.382,2.824,2.643q-.168,45.115-.168,90.236c-1.257.35-2.047,0-2.06-1.431v-1.3q.039-43.437.071-86.881c0-.648.317-1.561-.693-1.9l-.648-.091-6.238.039a3.368,3.368,0,0,0-2.474,0C92.366,10.622,91.485,7.565,94.821,4.3Z" transform="translate(-32.709 -1.516)" fill="#ebebeb"/>
      <path id="Path_3411" data-name="Path 3411" d="M72.672,19a2,2,0,0,1-2.215,1.6c-1.023-.032-2.254-.473-2.04-1.768s.92-2.332,2.591-2.118C72.154,16.844,72.821,17.22,72.672,19Z" transform="translate(-24.105 -5.879)" fill="#679cfc"/>
      <path id="Path_3412" data-name="Path 3412" d="M99.49,16.562a3.368,3.368,0,0,1,2.474,0Z" transform="translate(-35.06 -5.752)" fill="#989aa0"/>
      <path id="Path_3413" data-name="Path 3413" d="M112.94,16.64l.648.091C113.3,17.093,113.1,17.029,112.94,16.64Z" transform="translate(-39.798 -5.863)" fill="#989aa0"/>
      <path id="Path_3414" data-name="Path 3414" d="M71.107,56.788c1.3-.136,2.254,0,2.209,1.768-.039,1.639-1,1.593-2.125,1.593s-2.338.3-2.351-1.632S69.857,56.7,71.107,56.788Z" transform="translate(-24.263 -19.991)" fill="#679cfc"/>
      <path id="Path_3415" data-name="Path 3415" d="M72.886,52.862H69C70.606,50.879,70.606,50.879,72.886,52.862Z" transform="translate(-24.319 -18.099)" fill="#b2cbff"/>
      <path id="Path_3416" data-name="Path 3416" d="M20.418,60.83l2.481.052c1.457,1.548,1.9,3.161-.084,4.534-1.412.985-2.669.369-3.478-1C18.423,62.883,19.447,61.847,20.418,60.83Z" transform="translate(-6.699 -21.429)" fill="#8a8a8a"/>
      <path id="Path_3417" data-name="Path 3417" d="M98.949,10.717c-2.623-.33-3.666-1.762-2.9-4.353,1.626-1.36,3.375-1.827,4.644.227C101.87,8.515,100.639,9.811,98.949,10.717Z" transform="translate(-33.761 -1.832)" fill="#989aa0"/>
    </g>
    <path id="Path_4775" data-name="Path 4775" d="M-63.416-2.681a1.752,1.752,0,0,0-.417-1.2,3.657,3.657,0,0,0-1.472-.861,6.043,6.043,0,0,1-2.307-1.208,2.546,2.546,0,0,1-.806-1.97A2.7,2.7,0,0,1-67.529-10a3.243,3.243,0,0,1,2.281-.817,3.179,3.179,0,0,1,2.373.908,3.018,3.018,0,0,1,.864,2.278l-.015.044h-1.428a2.242,2.242,0,0,0-.5-1.516,1.646,1.646,0,0,0-1.311-.579,1.544,1.544,0,0,0-1.227.5,1.823,1.823,0,0,0-.436,1.245,1.545,1.545,0,0,0,.461,1.15,4.449,4.449,0,0,0,1.553.857,5.463,5.463,0,0,1,2.219,1.245A2.71,2.71,0,0,1-61.929-2.7a2.6,2.6,0,0,1-.9,2.076,3.481,3.481,0,0,1-2.355.773,3.79,3.79,0,0,1-2.446-.835,2.8,2.8,0,0,1-1-2.4l.015-.044h1.436A2.107,2.107,0,0,0-66.606-1.5a2.012,2.012,0,0,0,1.425.535,1.76,1.76,0,0,0,1.3-.465A1.68,1.68,0,0,0-63.416-2.681ZM-52.368,0h-1.487V-4.7H-58.03V0h-1.487V-10.664h1.487v4.827h4.175v-4.827h1.487Zm4.4,0H-49.45V-10.664h1.487Zm4.412-4.2V0h-1.487V-10.664h3.464a3.152,3.152,0,0,1,2.377.89,3.224,3.224,0,0,1,.861,2.34A3.221,3.221,0,0,1-39.2-5.09a3.159,3.159,0,0,1-2.377.886Zm0-1.143h1.978a1.543,1.543,0,0,0,1.311-.59,2.386,2.386,0,0,0,.447-1.483,2.46,2.46,0,0,0-.443-1.5,1.53,1.53,0,0,0-1.315-.6h-1.978ZM-36.012,0V-10.664h2.952a3.626,3.626,0,0,1,2.391.718,2.644,2.644,0,0,1,.861,2.153,2.39,2.39,0,0,1-.374,1.326,2.182,2.182,0,0,1-1.04.85,2.069,2.069,0,0,1,1.432.883,2.954,2.954,0,0,1,.5,1.718,2.887,2.887,0,0,1-.846,2.245A3.33,3.33,0,0,1-32.467,0Zm1.487-4.973v3.845h2.058a1.591,1.591,0,0,0,1.245-.487,2.013,2.013,0,0,0,.439-1.4,2.163,2.163,0,0,0-.428-1.406,1.545,1.545,0,0,0-1.2-.557h-2.109Zm0-1.069h1.692a1.516,1.516,0,0,0,1.124-.465A1.791,1.791,0,0,0-31.3-7.764a1.773,1.773,0,0,0-.447-1.318,1.8,1.8,0,0,0-1.311-.439h-1.465Zm14.52-4.622v7.053A3.742,3.742,0,0,1-21-.842a3.5,3.5,0,0,1-2.585,1,3.393,3.393,0,0,1-2.538-1A3.785,3.785,0,0,1-27.1-3.611v-7.053h1.487v7.053a3.02,3.02,0,0,0,.56,1.937,1.791,1.791,0,0,0,1.469.7,1.866,1.866,0,0,0,1.512-.7A2.963,2.963,0,0,0-21.5-3.611v-7.053ZM-15.732,0h-1.487V-10.664h1.487Zm4.412-1.128h4.314V0h-5.8V-10.664h1.487ZM-4.828,0V-10.664H-1.8A3.543,3.543,0,0,1,1.02-9.382a4.9,4.9,0,0,1,1.095,3.3V-4.57a4.879,4.879,0,0,1-1.095,3.3A3.551,3.551,0,0,1-1.8,0Zm1.487-9.521v8.394H-1.8A2.034,2.034,0,0,0-.045-2.091,4.3,4.3,0,0,0,.614-4.57V-6.1A4.259,4.259,0,0,0-.045-8.558,2.034,2.034,0,0,0-1.8-9.521ZM6.264,0H4.777V-10.664H6.264ZM16.345,0H14.851L10.72-7.866l-.044.015V0H9.189V-10.664h1.487L14.807-2.82l.044-.007v-7.837h1.494Zm9.59-1.392A3.292,3.292,0,0,1,24.723-.315a4.331,4.331,0,0,1-2.142.469A3.646,3.646,0,0,1,19.889-.864a3.915,3.915,0,0,1-1.022-2.9V-6.929A3.95,3.95,0,0,1,19.856-9.8a3.5,3.5,0,0,1,2.629-1.018,3.485,3.485,0,0,1,2.5.835,2.915,2.915,0,0,1,.85,2.285l-.015.044h-1.4a2.124,2.124,0,0,0-.487-1.49,1.827,1.827,0,0,0-1.417-.531,1.933,1.933,0,0,0-1.578.7,3.131,3.131,0,0,0-.575,2.032v3.179a3.162,3.162,0,0,0,.6,2.076,2,2,0,0,0,1.622.714,2.623,2.623,0,0,0,1.2-.234,1.608,1.608,0,0,0,.656-.571V-4.263H22.478V-5.347h3.457ZM29.087.916H27.7l3.589-11.58h1.384Zm14.574-3.6a1.752,1.752,0,0,0-.417-1.2,3.657,3.657,0,0,0-1.472-.861,6.043,6.043,0,0,1-2.307-1.208,2.546,2.546,0,0,1-.806-1.97A2.7,2.7,0,0,1,39.549-10a3.243,3.243,0,0,1,2.281-.817A3.179,3.179,0,0,1,44.2-9.91a3.018,3.018,0,0,1,.864,2.278l-.015.044H43.625a2.242,2.242,0,0,0-.5-1.516,1.646,1.646,0,0,0-1.311-.579,1.544,1.544,0,0,0-1.227.5,1.823,1.823,0,0,0-.436,1.245,1.545,1.545,0,0,0,.461,1.15,4.449,4.449,0,0,0,1.553.857,5.463,5.463,0,0,1,2.219,1.245A2.71,2.71,0,0,1,45.148-2.7a2.6,2.6,0,0,1-.9,2.076A3.481,3.481,0,0,1,41.9.154,3.79,3.79,0,0,1,39.45-.681a2.8,2.8,0,0,1-1-2.4l.015-.044H39.9A2.107,2.107,0,0,0,40.471-1.5,2.012,2.012,0,0,0,41.9-.967a1.76,1.76,0,0,0,1.3-.465A1.68,1.68,0,0,0,43.661-2.681ZM54.709,0H53.222V-4.7H49.047V0H47.561V-10.664h1.487v4.827h4.175v-4.827h1.487Zm4.4,0H57.627V-10.664h1.487Zm4.412-4.2V0H62.039V-10.664H65.5a3.152,3.152,0,0,1,2.377.89,3.224,3.224,0,0,1,.861,2.34A3.221,3.221,0,0,1,67.88-5.09,3.159,3.159,0,0,1,65.5-4.2Zm0-1.143H65.5a1.543,1.543,0,0,0,1.311-.59,2.386,2.386,0,0,0,.447-1.483,2.46,2.46,0,0,0-.443-1.5,1.53,1.53,0,0,0-1.315-.6H63.526ZM-70.407,15.037h.044l2.556-8.7h1.9V17h-1.479V9.317l-.044-.007L-69.872,17H-70.89l-2.483-7.808-.044.007V17H-74.9V6.336h1.941Zm12.1-.732H-61.5l-.769,2.7h-1.545l3.2-10.664h1.443L-56,17h-1.545Zm-2.849-1.179h2.52l-1.23-4.336h-.044Zm13.729.667.015.044a3.144,3.144,0,0,1-.879,2.446,3.458,3.458,0,0,1-2.5.872A3.393,3.393,0,0,1-53.409,16.1a4.174,4.174,0,0,1-.974-2.948V10.2a4.245,4.245,0,0,1,.959-2.952,3.3,3.3,0,0,1,2.578-1.062,3.614,3.614,0,0,1,2.549.846A3.118,3.118,0,0,1-47.41,9.5l-.015.044h-1.428a2.414,2.414,0,0,0-.5-1.681,1.938,1.938,0,0,0-1.494-.538,1.763,1.763,0,0,0-1.516.736,3.558,3.558,0,0,0-.535,2.113v2.981a3.532,3.532,0,0,0,.549,2.131,1.82,1.82,0,0,0,1.553.74,1.864,1.864,0,0,0,1.45-.531,2.485,2.485,0,0,0,.483-1.7ZM-37.908,17h-1.487V12.3H-43.57V17h-1.487V6.336h1.487v4.827h4.175V6.336h1.487Zm4.4,0H-34.99V6.336H-33.5Zm10.081,0h-1.494l-4.131-7.866-.044.015V17h-1.487V6.336h1.487l4.131,7.844.044-.007V6.336h1.494Zm7.891-4.951h-3.618v3.823h4.263V17h-5.75V6.336h5.713V7.479h-4.226v3.435h3.618Zm4.368.359V17H-12.65V6.343h3.142a3.35,3.35,0,0,1,2.377.784,2.927,2.927,0,0,1,.839,2.249,2.7,2.7,0,0,1-.392,1.461,2.583,2.583,0,0,1-1.124.97,2.041,2.041,0,0,1,1.183.923,3.218,3.218,0,0,1,.363,1.6v.93a4.182,4.182,0,0,0,.1.916,1.283,1.283,0,0,0,.337.659V17H-7.362a1.268,1.268,0,0,1-.326-.736,6.64,6.64,0,0,1-.077-1.022v-.9a2.209,2.209,0,0,0-.414-1.414,1.384,1.384,0,0,0-1.146-.52Zm0-1.135h1.582a1.746,1.746,0,0,0,1.362-.487A1.99,1.99,0,0,0-7.779,9.4a2.133,2.133,0,0,0-.428-1.421,1.61,1.61,0,0,0-1.3-.505h-1.655Zm10.33.264h.044l2.227-5.2h1.67l-3.2,6.826V17H-1.58V13.052L-4.722,6.336h1.655ZM10.76,17H9.273V6.336H10.76Zm10.081,0H19.347L15.216,9.134l-.044.015V17H13.685V6.336h1.487L19.3,14.18l.044-.007V6.336h1.494Zm2.786,0V6.336h3.025a3.543,3.543,0,0,1,2.823,1.282,4.9,4.9,0,0,1,1.095,3.3V12.43a4.879,4.879,0,0,1-1.095,3.3A3.551,3.551,0,0,1,26.652,17Zm1.487-9.521v8.394h1.538a2.034,2.034,0,0,0,1.758-.963,4.3,4.3,0,0,0,.659-2.479V10.9a4.259,4.259,0,0,0-.659-2.457,2.034,2.034,0,0,0-1.758-.963ZM40.08,6.336v7.053a3.742,3.742,0,0,1-1,2.769,3.5,3.5,0,0,1-2.585,1,3.393,3.393,0,0,1-2.538-1,3.785,3.785,0,0,1-.978-2.765V6.336H34.47v7.053a3.02,3.02,0,0,0,.56,1.937,1.791,1.791,0,0,0,1.469.7,1.866,1.866,0,0,0,1.512-.7,2.963,2.963,0,0,0,.575-1.941V6.336ZM47.6,14.319a1.752,1.752,0,0,0-.417-1.2,3.657,3.657,0,0,0-1.472-.861A6.043,6.043,0,0,1,43.4,11.045a2.546,2.546,0,0,1-.806-1.97A2.7,2.7,0,0,1,43.485,7a3.243,3.243,0,0,1,2.281-.817,3.179,3.179,0,0,1,2.373.908A3.018,3.018,0,0,1,49,9.368l-.015.044H47.561a2.242,2.242,0,0,0-.5-1.516,1.646,1.646,0,0,0-1.311-.579,1.544,1.544,0,0,0-1.227.5,1.823,1.823,0,0,0-.436,1.245,1.545,1.545,0,0,0,.461,1.15,4.449,4.449,0,0,0,1.553.857,5.463,5.463,0,0,1,2.219,1.245,2.71,2.71,0,0,1,.762,1.992,2.6,2.6,0,0,1-.9,2.076,3.481,3.481,0,0,1-2.355.773,3.79,3.79,0,0,1-2.446-.835,2.8,2.8,0,0,1-1-2.4l.015-.044h1.436a2.107,2.107,0,0,0,.575,1.619,2.012,2.012,0,0,0,1.425.535,1.76,1.76,0,0,0,1.3-.465A1.68,1.68,0,0,0,47.6,14.319ZM57.877,7.479H55.05V17H53.555V7.479H50.75V6.336h7.126Zm3.5,4.929V17H59.894V6.343h3.142a3.35,3.35,0,0,1,2.377.784,2.927,2.927,0,0,1,.839,2.249,2.7,2.7,0,0,1-.392,1.461,2.583,2.583,0,0,1-1.124.97,2.041,2.041,0,0,1,1.183.923,3.218,3.218,0,0,1,.363,1.6v.93a4.182,4.182,0,0,0,.1.916,1.283,1.283,0,0,0,.337.659V17H65.182a1.268,1.268,0,0,1-.326-.736,6.64,6.64,0,0,1-.077-1.022v-.9a2.209,2.209,0,0,0-.414-1.414,1.384,1.384,0,0,0-1.146-.52Zm0-1.135h1.582a1.746,1.746,0,0,0,1.362-.487A1.99,1.99,0,0,0,64.764,9.4a2.133,2.133,0,0,0-.428-1.421,1.61,1.61,0,0,0-1.3-.505H61.381Zm10.33.264h.044l2.227-5.2h1.67l-3.2,6.826V17H70.964V13.052L67.822,6.336h1.655Z" transform="translate(3905 4533)" fill="#0054a5"/>
  </g>
</svg>
