<svg xmlns="http://www.w3.org/2000/svg" xmlns:xlink="http://www.w3.org/1999/xlink"  viewBox="0 0 281 249">
  <defs>
    <filter id="Rectangle_338" x="0" y="0" width="281" height="249" filterUnits="userSpaceOnUse">
      <feOffset dy="3" input="SourceAlpha"/>
      <feGaussianBlur stdDeviation="3" result="blur"/>
      <feFlood flood-color="#95b2bb"/>
      <feComposite operator="in" in2="blur"/>
      <feComposite in="SourceGraphic"/>
    </filter>
  </defs>
  <g id="Group_1090" data-name="Group 1090" transform="translate(-4132 -4351)">
    <g transform="matrix(1, 0, 0, 1, 4132, 4351)" filter="url(#Rectangle_338)">
      <path id="Rectangle_338-2" data-name="Rectangle 338" d="M2,0H227a36,36,0,0,1,36,36V195a36,36,0,0,1-36,36H36A36,36,0,0,1,0,195V2A2,2,0,0,1,2,0Z" transform="translate(9 6)" fill="#fff"/>
    </g>
    <g id="service" transform="translate(4220 4378)" style="mix-blend-mode: multiply;isolation: isolate">
      <path id="Path_3418" data-name="Path 3418" d="M106.062,51.052H11.381A3.381,3.381,0,0,1,8,47.67V27.381A3.381,3.381,0,0,1,11.381,24h94.68a3.381,3.381,0,0,1,3.381,3.381V47.67A3.381,3.381,0,0,1,106.062,51.052Zm0,0" transform="translate(-6.309 -18.928)" fill="none"/>
      <path id="Path_3419" data-name="Path 3419" d="M66.144,184v43.959H56V184Zm0,0" transform="translate(-44.165 -145.113)" fill="none"/>
      <path id="Path_3420" data-name="Path 3420" d="M442.6,152v43.959l-.253.237-5.512-5.917a3.357,3.357,0,0,0-2.113-1.066l1.116-.016V152Zm0,0" transform="translate(-342.845 -119.876)" fill="none"/>
      <path id="Path_3421" data-name="Path 3421" d="M225.485,152v6.763H168V152Zm0,0" transform="translate(-132.495 -119.876)" fill="#4db2ff"/>
      <path id="Path_3422" data-name="Path 3422" d="M56.907,152v6.763H40V152Zm0,0" transform="translate(-31.546 -119.876)" fill="#4db2ff"/>
      <path id="Path_3423" data-name="Path 3423" d="M177.425,17.079a14.9,14.9,0,0,0-1.3,6.137H162.6l-5.072,5.072h-8.454L144,24.907V21.526h8.454V14.763H144V11.381L149.072,8h8.454l5.072,5.072h16.907l.287.253a14.691,14.691,0,0,0-2.367,3.754Zm0,0" transform="translate(-113.567 -6.309)" fill="none"/>
      <path id="Path_3424" data-name="Path 3424" d="M443.835,340.224v2.993h-6.763A25.326,25.326,0,0,0,432,328h.22a2.54,2.54,0,0,1,.355.017,3.356,3.356,0,0,1,2.113,1.066L440.2,335l2.722,2.908A3.362,3.362,0,0,1,443.835,340.224Zm0,0" transform="translate(-340.701 -258.681)" fill="#e6e9ed"/>
      <path id="Path_3425" data-name="Path 3425" d="M402.265,440a2.269,2.269,0,1,1-1.367.461A2.262,2.262,0,0,1,402.265,440Zm0,0" transform="translate(-312.657 -344.203)" fill="#838f9b"/>
      <path id="Path_3426" data-name="Path 3426" d="M310.433,361.691v2.586a24.559,24.559,0,0,1-.118,2.486H280L286.763,360h21.979a1.7,1.7,0,0,1,1.691,1.691Zm0,0" transform="translate(-220.825 -283.918)" fill="#69d6f4"/>
      <path id="Path_3427" data-name="Path 3427" d="M320,216h15.217v16.907H320Zm0,0" transform="translate(-252.371 -170.351)" fill="#4db2ff"/>
      <path id="Path_3428" data-name="Path 3428" d="M323.491,14.239a14.93,14.93,0,0,0-2.383-2.57A15.144,15.144,0,0,0,311.216,8c-.541,0-1.082.034-1.623.084a15.168,15.168,0,0,0-9.925,5.241,14.691,14.691,0,0,0-2.367,3.754,14.9,14.9,0,0,0-1.3,6.137,15.24,15.24,0,0,0,15.216,15.216c.541,0,1.082-.034,1.623-.084a15.2,15.2,0,0,0,12.292-9,14.649,14.649,0,0,0,1.2-4.463,13.9,13.9,0,0,0,.1-1.674,15.138,15.138,0,0,0-2.942-8.978Zm0,0" transform="translate(-233.443 -6.309)" fill="#4db2ff"/>
      <path id="Path_3429" data-name="Path 3429" d="M354.144,61.072a5.194,5.194,0,0,1-.1,1.031,5.04,5.04,0,0,1-3.382,3.77,4.47,4.47,0,0,1-1.589.271,5.029,5.029,0,0,1-3.348-1.285A4.954,4.954,0,0,1,344,61.072a5.194,5.194,0,0,1,.1-1.031,5.04,5.04,0,0,1,3.381-3.77A4.471,4.471,0,0,1,349.072,56a5.03,5.03,0,0,1,3.348,1.285A4.954,4.954,0,0,1,354.144,61.072Zm0,0" transform="translate(-271.299 -44.165)" fill="#ccd1d9"/>
      <path id="Path_3430" data-name="Path 3430" d="M248,216h15.217v16.907H248Zm0,0" transform="translate(-195.588 -170.351)" fill="#4db2ff"/>
      <g id="Group_519" data-name="Group 519" transform="translate(1.691 82.845)">
        <path id="Path_3431" data-name="Path 3431" d="M251.968,440.558a2.392,2.392,0,0,1,.881,1.867,2.428,2.428,0,1,1-.889-1.875Zm0,0" transform="translate(-194.631 -427.209)" fill="#838f9b"/>
        <path id="Path_3432" data-name="Path 3432" d="M120.454,441.691v6.763a1.7,1.7,0,0,1-1.691,1.691H112l3.381-5.072L112,440h6.763A1.7,1.7,0,0,1,120.454,441.691Zm0,0" transform="translate(-90.021 -429.856)" fill="#679cfc"/>
        <path id="Path_3433" data-name="Path 3433" d="M120.454,393.691v6.763a1.7,1.7,0,0,1-1.691,1.691H112l3.381-5.072L112,392h6.763A1.7,1.7,0,0,1,120.454,393.691Zm0,0" transform="translate(-90.021 -392)" fill="#679cfc"/>
        <path id="Path_3434" data-name="Path 3434" d="M80.454,392l3.381,5.072-3.381,5.072H72l3.381-5.072L72,392Zm0,0" transform="translate(-58.474 -392)" fill="#679cfc"/>
        <path id="Path_3435" data-name="Path 3435" d="M80.454,440l3.381,5.072-3.381,5.072H72l3.381-5.072L72,440Zm0,0" transform="translate(-58.474 -429.856)" fill="#679cfc"/>
        <path id="Path_3436" data-name="Path 3436" d="M40.454,392l3.381,5.072-3.381,5.072H32l3.381-5.072L32,392Zm0,0" transform="translate(-26.928 -392)" fill="#679cfc"/>
        <path id="Path_3437" data-name="Path 3437" d="M40.454,440l3.381,5.072-3.381,5.072H32l3.381-5.072L32,440Zm0,0" transform="translate(-26.928 -429.856)" fill="#679cfc"/>
        <path id="Path_3438" data-name="Path 3438" d="M13.072,392l3.381,5.072-3.381,5.072H9.691A1.7,1.7,0,0,1,8,400.454v-6.763A1.7,1.7,0,0,1,9.691,392Zm0,0" transform="translate(-8 -392)" fill="#679cfc"/>
        <path id="Path_3439" data-name="Path 3439" d="M13.072,440l3.381,5.072-3.381,5.072H9.691A1.7,1.7,0,0,1,8,448.454v-6.763A1.7,1.7,0,0,1,9.691,440Zm0,0" transform="translate(-8 -429.856)" fill="#679cfc"/>
      </g>
      <path id="Path_3440" data-name="Path 3440" d="M304,416h6.763v3.381H304Zm0,0" transform="translate(-239.753 -328.083)" fill="#8a8a8a"/>
      <path id="Path_3441" data-name="Path 3441" d="M104.825,30.433V6.763a3.385,3.385,0,0,0-3.381-3.381H87.918v.031A16.858,16.858,0,0,0,77.773,0c-.6,0-1.187.035-1.8.095A16.759,16.759,0,0,0,65.734,5.072h-16L44.659,0H34.993L29.92,3.381H3.382A3.385,3.385,0,0,0,0,6.763v23.67a3.385,3.385,0,0,0,3.381,3.381H6.763v6.763h3.381V81.155H3.382A3.385,3.385,0,0,0,0,84.536V91.3A3.345,3.345,0,0,0,.47,92.99,3.345,3.345,0,0,0,0,94.68v6.763a3.385,3.385,0,0,0,3.381,3.381H30.433a3.385,3.385,0,0,0,3.381-3.381V94.68a3.345,3.345,0,0,0-.47-1.691,3.345,3.345,0,0,0,.47-1.691V84.536a3.385,3.385,0,0,0-3.381-3.381H23.67V40.577h3.381V33.814h6.763v6.763H37.2v54.1a5.079,5.079,0,0,0,5.072,5.072h8.694a6.73,6.73,0,0,0,13.045,0H83.086a6.73,6.73,0,0,0,13.045,0h3.622a5.079,5.079,0,0,0,5.072-5.072V81.543a5.043,5.043,0,0,0-1.37-3.473l-2.012-2.156v-42.1a3.385,3.385,0,0,0,3.381-3.381Zm-16.938,0a16.84,16.84,0,0,0,5.343-6.7,16.206,16.206,0,0,0,1.1-3.449h7.116V30.433Zm13.1,49.956a1.675,1.675,0,0,1,.452,1.155v1.3H98.012a26.9,26.9,0,0,0-1.46-7.218ZM68.813,12.127l2.2,4.465.026-.012c0,.108-.032.213-.032.326a6.682,6.682,0,0,0,.381,2.123l-4.275-.284L65.4,22.25a13.544,13.544,0,0,1-1.15-5.343,13.25,13.25,0,0,1,.8-4.531Zm.341,10.143,4.957.332,0-.045a6.726,6.726,0,0,0,2.294.958L74.052,27.05l2.158,3.241A13.628,13.628,0,0,1,67.5,25.645Zm7.631-8.583a2.781,2.781,0,0,1,.989-.161,3.366,3.366,0,0,1,2.227.86l.021.017a3.241,3.241,0,0,1,1.134,2.5,3.517,3.517,0,0,1-.064.683,3.382,3.382,0,0,1-2.328,2.538,3.449,3.449,0,0,1-3.236-.717,3.241,3.241,0,0,1-1.134-2.5,3.518,3.518,0,0,1,.064-.683,3.385,3.385,0,0,1,2.328-2.538Zm13.363-2.122A13.517,13.517,0,0,1,91.3,16.907a12.5,12.5,0,0,1-.092,1.493,13.146,13.146,0,0,1-.737,3.042l-3.736.247-2.2-4.465-.026.012c0-.11.032-.215.032-.328a6.682,6.682,0,0,0-.381-2.123l4.275.284ZM82.823,21.4l1.884,3.811,3.906-.267A13.512,13.512,0,0,1,80.2,30.188l-2.083-3.135,2.757-4.135-.013-.009A6.689,6.689,0,0,0,82.823,21.4Zm18.62-4.5H94.68a16.939,16.939,0,0,0-3.27-9.975c-.042-.059-.095-.11-.139-.169h10.172ZM88.051,8.161l-1.659,3.383-4.957-.332,0,.046a6.762,6.762,0,0,0-2.294-.959l2.357-3.535L79.309,3.48a13.472,13.472,0,0,1,7.26,3.168,13.047,13.047,0,0,1,1.483,1.513ZM75.339,3.608l2.094,3.154L74.676,10.9l.013.009a6.662,6.662,0,0,0-1.966,1.506L70.839,8.6l-3.887.267c.187-.25.352-.513.56-.753a13.421,13.421,0,0,1,7.826-4.507ZM32.124,5.977l3.894-2.6h7.241l5.072,5.072H63.174a16.172,16.172,0,0,0-.859,1.623,16.4,16.4,0,0,0-1.363,5.14H48.329l-5.072,5.072H36.016l-3.892-2.6v-.786h8.454V6.763H32.124ZM3.382,20.289h6.763V16.907H3.382V6.763H28.742v3.381H37.2v3.381H28.742v3.381H13.526v3.381H29.92l5.072,3.381h9.666L49.731,18.6H60.963a16.695,16.695,0,0,0,6.724,11.835H3.382ZM22.765,84.536l2.254,3.381L22.765,91.3H18.377l2.254-3.381-2.254-3.381Zm2.254,13.526-2.254,3.381H18.377l2.254-3.381L18.377,94.68h4.389ZM14.312,94.68l2.254,3.381-2.254,3.381H9.923l2.254-3.381L9.923,94.68Zm0-10.144,2.254,3.381L14.312,91.3H9.923l2.254-3.381L9.923,84.536Zm-10.93,0H5.858l2.254,3.381L5.858,91.3H3.382Zm0,10.144H5.858l2.254,3.381-2.254,3.381H3.382Zm27.052,6.763h-3.6l2.254-3.381L26.83,94.68h3.6Zm0-10.144h-3.6l2.254-3.381L26.83,84.536h3.6ZM20.289,81.155H13.526V40.577h6.763ZM23.67,37.2H10.145V33.814H23.67ZM91.3,33.814V37.2H37.2V33.814Zm0,6.763V67.629H64.028a5.079,5.079,0,0,0-3.7,1.618L51.851,78.33a1.647,1.647,0,0,1-.812.475L41.032,81.3c-.158.039-.3.1-.455.154V40.577ZM57.485,101.443a3.381,3.381,0,1,1,2.151-5.989l.428-.531.04-.012-.453.561a3.3,3.3,0,0,1,1.216,2.588A3.385,3.385,0,0,1,57.485,101.443ZM87.918,80.36c0,.276-.01.533-.019.8H63.257l3.381-3.381H87.918Zm-4.84,16.011H64.017a6.568,6.568,0,0,0-1.82-3.1,30.841,30.841,0,0,1-1.321-8.731H87.587a29.95,29.95,0,0,1-2.468,8.531,6.725,6.725,0,0,0-2.041,3.3Zm6.531,5.072a3.381,3.381,0,1,1,3.381-3.381A3.385,3.385,0,0,1,89.608,101.443Zm10.144-5.072H96.131A6.753,6.753,0,0,0,89.608,91.3c-.054,0-.108.012-.163.013a33.049,33.049,0,0,0,1.726-8.291A25.53,25.53,0,0,0,91.3,80.36V77.773a3.385,3.385,0,0,0-3.381-3.381H65.238l-7.754,7.754v2.12a34.347,34.347,0,0,0,.758,7.1,6.5,6.5,0,0,0-7.28,5.006H42.268a1.692,1.692,0,0,1-1.691-1.691V89.6a34.742,34.742,0,0,0,10.675-1.765l-1.063-3.21a31.346,31.346,0,0,1-9.61,1.595,1.683,1.683,0,0,1,1.27-1.63l10-2.5a5.019,5.019,0,0,0,2.478-1.453L62.8,71.554a1.675,1.675,0,0,1,1.229-.544H90.413a23.455,23.455,0,0,1,4.267,13.526v1.691h6.763v3.381H96.371V92.99h5.072V94.68a1.692,1.692,0,0,1-1.691,1.691ZM98.062,72.29l-2.83-3.033a5.011,5.011,0,0,0-.551-.5V33.815h3.381Zm0,0" transform="translate(0 0)" fill="#8a8a8a"/>
      <path id="Path_3442" data-name="Path 3442" d="M273.814,208H240v20.289h33.814Zm-30.433,3.381h11.835v13.526H243.381Zm27.052,13.526H258.6V211.381h11.835Zm0,0" transform="translate(-189.278 -164.041)" fill="#8a8a8a"/>
    </g>
    <path id="Path_4774" data-name="Path 4774" d="M-88.339-2.7h-3.186L-92.294,0h-1.545l3.2-10.664H-89.2L-86.024,0H-87.57Zm-2.849-1.179h2.52L-89.9-8.21h-.044Zm13.992-6.79v7.053a3.742,3.742,0,0,1-1,2.769,3.5,3.5,0,0,1-2.585,1,3.393,3.393,0,0,1-2.538-1,3.785,3.785,0,0,1-.978-2.765v-7.053h1.487v7.053a3.02,3.02,0,0,0,.56,1.937,1.791,1.791,0,0,0,1.469.7,1.866,1.866,0,0,0,1.512-.7,2.963,2.963,0,0,0,.575-1.941v-7.053Zm9.034,1.143h-2.827V0h-1.494V-9.521h-2.805v-1.143h7.126Zm9,5.662A4.07,4.07,0,0,1-60.19-.9,3.648,3.648,0,0,1-62.937.154,3.548,3.548,0,0,1-65.64-.9a4.124,4.124,0,0,1-1-2.955V-6.79a4.154,4.154,0,0,1,1-2.959,3.52,3.52,0,0,1,2.7-1.069,3.647,3.647,0,0,1,2.75,1.066A4.088,4.088,0,0,1-59.165-6.79Zm-1.479-2.952a3.244,3.244,0,0,0-.6-2.113,2.085,2.085,0,0,0-1.7-.721,1.98,1.98,0,0,0-1.644.721,3.333,3.333,0,0,0-.575,2.113V-3.86a3.361,3.361,0,0,0,.579,2.131A1.986,1.986,0,0,0-62.937-1a2.075,2.075,0,0,0,1.7-.721,3.3,3.3,0,0,0,.593-2.135Zm8.418,4.849h.044l2.556-8.7h1.9V0H-49.2V-7.683l-.044-.007L-51.691,0h-1.018l-2.483-7.808-.044.007V0h-1.479V-10.664h1.941ZM-37.8-3.86A4.07,4.07,0,0,1-38.827-.9,3.648,3.648,0,0,1-41.574.154,3.548,3.548,0,0,1-44.276-.9a4.124,4.124,0,0,1-1-2.955V-6.79a4.154,4.154,0,0,1,1-2.959,3.52,3.52,0,0,1,2.7-1.069,3.647,3.647,0,0,1,2.75,1.066A4.088,4.088,0,0,1-37.8-6.79Zm-1.479-2.952a3.244,3.244,0,0,0-.6-2.113,2.085,2.085,0,0,0-1.7-.721,1.98,1.98,0,0,0-1.644.721A3.333,3.333,0,0,0-43.8-6.812V-3.86a3.361,3.361,0,0,0,.579,2.131A1.986,1.986,0,0,0-41.574-1a2.075,2.075,0,0,0,1.7-.721,3.3,3.3,0,0,0,.593-2.135ZM-35.309,0V-10.664h2.952a3.626,3.626,0,0,1,2.391.718A2.644,2.644,0,0,1-29.1-7.793a2.39,2.39,0,0,1-.374,1.326,2.182,2.182,0,0,1-1.04.85,2.069,2.069,0,0,1,1.432.883,2.954,2.954,0,0,1,.5,1.718,2.887,2.887,0,0,1-.846,2.245A3.33,3.33,0,0,1-31.764,0Zm1.487-4.973v3.845h2.058a1.591,1.591,0,0,0,1.245-.487,2.013,2.013,0,0,0,.439-1.4,2.163,2.163,0,0,0-.428-1.406,1.545,1.545,0,0,0-1.2-.557h-2.109Zm0-1.069h1.692a1.516,1.516,0,0,0,1.124-.465A1.791,1.791,0,0,0-30.6-7.764a1.773,1.773,0,0,0-.447-1.318,1.8,1.8,0,0,0-1.311-.439h-1.465ZM-24.664,0H-26.15V-10.664h1.487Zm4.412-1.128h4.314V0h-5.8V-10.664h1.487Zm11.6-3.823h-3.618v3.823H-8.01V0h-5.75V-10.664h5.713v1.143h-4.226v3.435h3.618ZM2.726-1.963H2.77l2.556-8.7h1.9V0H5.751V-7.683L5.707-7.69,3.261,0H2.243L-.24-7.808-.284-7.8V0H-1.764V-10.664H.177Zm12.1-.732H11.635L10.866,0H9.321l3.2-10.664h1.443L17.136,0H15.59ZM11.972-3.875h2.52L13.261-8.21h-.044ZM20.728,0H19.241V-10.664h1.487ZM30.809,0H29.314L25.184-7.866l-.044.015V0H23.653V-10.664H25.14L29.271-2.82l.044-.007v-7.837h1.494Zm8.953-9.521H36.935V0H35.44V-9.521H32.635v-1.143h7.126Zm7.129,4.57H43.273v3.823h4.263V0h-5.75V-10.664H47.5v1.143H43.273v3.435h3.618ZM56.936,0H55.441L51.311-7.866l-.044.015V0H49.78V-10.664h1.487L55.4-2.82l.044-.007v-7.837h1.494ZM64.57-2.7H61.384L60.615,0H59.07l3.2-10.664h1.443L66.885,0H65.339ZM61.721-3.875h2.52L63.01-8.21h-.044ZM76.014,0H74.52L70.389-7.866l-.044.015V0H68.858V-10.664h1.487L74.476-2.82l.044-.007v-7.837h1.494Zm9.458-3.208.015.044a3.144,3.144,0,0,1-.879,2.446,3.458,3.458,0,0,1-2.5.872A3.393,3.393,0,0,1,79.5-.9a4.174,4.174,0,0,1-.974-2.948V-6.8a4.245,4.245,0,0,1,.959-2.952,3.3,3.3,0,0,1,2.578-1.062,3.614,3.614,0,0,1,2.549.846A3.118,3.118,0,0,1,85.494-7.5l-.015.044H84.051a2.414,2.414,0,0,0-.5-1.681,1.938,1.938,0,0,0-1.494-.538,1.763,1.763,0,0,0-1.516.736,3.558,3.558,0,0,0-.535,2.113v2.981a3.532,3.532,0,0,0,.549,2.131,1.82,1.82,0,0,0,1.553.74,1.864,1.864,0,0,0,1.45-.531,2.485,2.485,0,0,0,.483-1.7Zm7.481-1.743H89.335v3.823H93.6V0h-5.75V-10.664h5.713v1.143H89.335v3.435h3.618ZM-31.237,17h-1.487V6.336h1.487Zm10.081,0H-22.65l-4.131-7.866-.044.015V17h-1.487V6.336h1.487l4.131,7.844.044-.007V6.336h1.494Zm2.786,0V6.336h3.025a3.543,3.543,0,0,1,2.823,1.282,4.9,4.9,0,0,1,1.095,3.3V12.43a4.879,4.879,0,0,1-1.095,3.3A3.551,3.551,0,0,1-15.345,17Zm1.487-9.521v8.394h1.538a2.034,2.034,0,0,0,1.758-.963,4.3,4.3,0,0,0,.659-2.479V10.9a4.259,4.259,0,0,0-.659-2.457,2.034,2.034,0,0,0-1.758-.963ZM-1.917,6.336v7.053a3.742,3.742,0,0,1-1,2.769,3.5,3.5,0,0,1-2.585,1,3.393,3.393,0,0,1-2.538-1,3.785,3.785,0,0,1-.978-2.765V6.336h1.487v7.053a3.02,3.02,0,0,0,.56,1.937,1.791,1.791,0,0,0,1.469.7,1.866,1.866,0,0,0,1.512-.7,2.963,2.963,0,0,0,.575-1.941V6.336ZM5.6,14.319a1.752,1.752,0,0,0-.417-1.2,3.657,3.657,0,0,0-1.472-.861A6.043,6.043,0,0,1,1.4,11.045,2.546,2.546,0,0,1,.6,9.075,2.7,2.7,0,0,1,1.488,7,3.243,3.243,0,0,1,3.77,6.182a3.179,3.179,0,0,1,2.373.908,3.018,3.018,0,0,1,.864,2.278l-.015.044H5.564a2.242,2.242,0,0,0-.5-1.516,1.646,1.646,0,0,0-1.311-.579,1.544,1.544,0,0,0-1.227.5,1.823,1.823,0,0,0-.436,1.245,1.545,1.545,0,0,0,.461,1.15,4.449,4.449,0,0,0,1.553.857,5.463,5.463,0,0,1,2.219,1.245A2.71,2.71,0,0,1,7.088,14.3a2.6,2.6,0,0,1-.9,2.076,3.481,3.481,0,0,1-2.355.773,3.79,3.79,0,0,1-2.446-.835,2.8,2.8,0,0,1-1-2.4L.4,13.88H1.836A2.107,2.107,0,0,0,2.411,15.5a2.012,2.012,0,0,0,1.425.535,1.76,1.76,0,0,0,1.3-.465A1.68,1.68,0,0,0,5.6,14.319ZM15.88,7.479H13.052V17H11.558V7.479H8.753V6.336H15.88Zm3.5,4.929V17H17.9V6.343h3.142a3.35,3.35,0,0,1,2.377.784,2.927,2.927,0,0,1,.839,2.249,2.7,2.7,0,0,1-.392,1.461,2.583,2.583,0,0,1-1.124.97,2.041,2.041,0,0,1,1.183.923,3.218,3.218,0,0,1,.363,1.6v.93a4.182,4.182,0,0,0,.1.916,1.283,1.283,0,0,0,.337.659V17H23.185a1.268,1.268,0,0,1-.326-.736,6.64,6.64,0,0,1-.077-1.022v-.9a2.209,2.209,0,0,0-.414-1.414,1.384,1.384,0,0,0-1.146-.52Zm0-1.135h1.582a1.746,1.746,0,0,0,1.362-.487A1.99,1.99,0,0,0,22.767,9.4a2.133,2.133,0,0,0-.428-1.421,1.61,1.61,0,0,0-1.3-.505H19.384Zm10.33.264h.044l2.227-5.2h1.67l-3.2,6.826V17H28.967V13.052L25.824,6.336H27.48Z" transform="translate(4273 4533)" fill="#0054a5"/>
  </g>
</svg>
