<svg xmlns="http://www.w3.org/2000/svg" xmlns:xlink="http://www.w3.org/1999/xlink"  viewBox="0 0 280 249">
  <defs>
    <filter id="Rectangle_339" x="0" y="0" width="280" height="249" filterUnits="userSpaceOnUse">
      <feOffset dy="3" input="SourceAlpha"/>
      <feGaussianBlur stdDeviation="3" result="blur"/>
      <feFlood flood-color="#95b2bb"/>
      <feComposite operator="in" in2="blur"/>
      <feComposite in="SourceGraphic"/>
    </filter>
  </defs>
  <g id="Group_1094" data-name="Group 1094" transform="translate(-3029 -4719)">
    <g transform="matrix(1, 0, 0, 1, 3029, 4719)" filter="url(#Rectangle_339)">
      <path id="Rectangle_339-2" data-name="Rectangle 339" d="M2,0H226a36,36,0,0,1,36,36V195a36,36,0,0,1-36,36H36A36,36,0,0,1,0,195V2A2,2,0,0,1,2,0Z" transform="translate(9 6)" fill="#fff"/>
    </g>
    <g id="flight" transform="translate(3124 4755)" style="mix-blend-mode: multiply;isolation: isolate">
      <g id="Group_520" data-name="Group 520" transform="translate(0)">
        <path id="Path_3443" data-name="Path 3443" d="M84.758,66.886a45.16,45.16,0,1,0-79.2,0Z" transform="translate(0)" fill="#1664ff"/>
      </g>
      <g id="Group_535" data-name="Group 535" transform="translate(0 7.076)">
        <g id="Group_521" data-name="Group 521" transform="translate(55.395 12.221)">
          <path id="Path_3444" data-name="Path 3444" d="M314.093,114.377l1.671,4.034a.958.958,0,0,0,.953.589,16.1,16.1,0,0,0,9.409-3.9.958.958,0,0,0,.257-1.09l-1.671-4.034a.958.958,0,0,0-.953-.589,16.1,16.1,0,0,0-9.409,3.9A.958.958,0,0,0,314.093,114.377Z" transform="translate(-314.02 -109.387)" fill="#ccc"/>
        </g>
        <g id="Group_522" data-name="Group 522" transform="translate(64.273 10.304)">
          <path id="Path_3445" data-name="Path 3445" d="M364.446,100.348l2.653,6.4a1.323,1.323,0,0,0,2.445-1.013l-2.653-6.4a1.323,1.323,0,0,0-2.445,1.013Z" transform="translate(-364.345 -98.518)" fill="#679cfc"/>
        </g>
        <g id="Group_523" data-name="Group 523" transform="translate(0 12.051)">
          <path id="Path_3446" data-name="Path 3446" d="M25.35,119.3l-20.8-10.664a1.915,1.915,0,0,0-1.607-.065l-2.352.974A.958.958,0,0,0,.2,111.021l12.648,16.151Z" transform="translate(0 -108.425)" fill="#679cfc"/>
        </g>
        <g id="Group_524" data-name="Group 524" transform="translate(0 12.738)">
          <path id="Path_3447" data-name="Path 3447" d="M1.639,112.317l-1.047.434A.958.958,0,0,0,.2,114.226l12.648,16.151-.581-7.815a3.832,3.832,0,0,0-1.394-2.681Z" transform="translate(0 -112.317)" fill="#767272"/>
        </g>
        <g id="Group_525" data-name="Group 525" transform="translate(4.528)">
          <path id="Path_3448" data-name="Path 3448" d="M110.277,45.737,81.8,57.532A373.1,373.1,0,0,1,26.856,75.447a.958.958,0,0,1-.761-1.725A212.212,212.212,0,0,1,63.463,53.655l28.49-11.8a22.92,22.92,0,0,1,18.4.375A1.916,1.916,0,0,1,110.277,45.737Z" transform="translate(-25.668 -40.11)" fill="#e6e6e6"/>
        </g>
        <g id="Group_526" data-name="Group 526" transform="translate(4.528 11.542)">
          <path id="Path_3449" data-name="Path 3449" d="M68.3,105.539l-4.836,2a212.2,212.2,0,0,0-37.368,20.066.958.958,0,0,0,.761,1.725A373.118,373.118,0,0,0,72.3,115.2h0a5.229,5.229,0,1,1-4-9.661Z" transform="translate(-25.667 -105.539)" fill="#ccc"/>
        </g>
        <g id="Group_527" data-name="Group 527" transform="translate(27.161 17.254)">
          <path id="Path_3450" data-name="Path 3450" d="M182.936,137.916l-24.008,4.093a9.583,9.583,0,0,0-2.056.593l-2.669,1.105a.383.383,0,0,0,.135.737l21.2.653,8.849-3.666Z" transform="translate(-153.967 -137.916)" fill="#767272"/>
        </g>
        <g id="Group_528" data-name="Group 528" transform="translate(48.571 18.848)">
          <path id="Path_3451" data-name="Path 3451" d="M283.683,152.266l-5.6,1.54a2.17,2.17,0,0,1-1.648-3.979l5.048-2.87Z" transform="translate(-275.338 -146.956)" fill="#4db2ff"/>
        </g>
        <g id="Group_529" data-name="Group 529" transform="translate(51.368 15.962)">
          <path id="Path_3452" data-name="Path 3452" d="M291.266,135.586l1.671,4.034a.958.958,0,0,0,.953.589,16.1,16.1,0,0,0,9.409-3.9.958.958,0,0,0,.257-1.09l-1.671-4.034a.958.958,0,0,0-.953-.589,16.1,16.1,0,0,0-9.409,3.9.958.958,0,0,0-.257,1.09Z" transform="translate(-291.193 -130.596)" fill="#e6e6e6"/>
        </g>
        <g id="Group_530" data-name="Group 530" transform="translate(60.246 14.045)">
          <path id="Path_3453" data-name="Path 3453" d="M341.619,121.558l2.653,6.4a1.323,1.323,0,1,0,2.445-1.013l-2.653-6.4a1.323,1.323,0,0,0-2.445,1.013Z" transform="translate(-341.518 -119.728)" fill="#4db2ff"/>
        </g>
        <g id="Group_531" data-name="Group 531" transform="translate(75.287 0.149)">
          <path id="Path_3454" data-name="Path 3454" d="M433.667,40.952l-6.888,2.853a2.873,2.873,0,0,0,3.754,1.555l7.994-3.311A22.907,22.907,0,0,0,433.667,40.952Z" transform="translate(-426.779 -40.952)" fill="#5d91c9"/>
        </g>
        <g id="Group_532" data-name="Group 532" transform="translate(75.287 1.536)">
          <path id="Path_3455" data-name="Path 3455" d="M430.319,48.814l-3.54,1.466a2.874,2.874,0,0,0,3.754,1.555l3.54-1.466A2.874,2.874,0,0,1,430.319,48.814Z" transform="translate(-426.779 -48.814)" fill="#3d72a3"/>
        </g>
        <g id="Group_533" data-name="Group 533" transform="translate(51.368 16.417)">
          <path id="Path_3456" data-name="Path 3456" d="M296.637,137.906a3.86,3.86,0,0,1,1.5-4.735,16.1,16.1,0,0,0-6.612,3.446.958.958,0,0,0-.257,1.09l1.671,4.034a.958.958,0,0,0,.953.589,16.1,16.1,0,0,0,6.841-2.079,3.86,3.86,0,0,1-4.095-2.344Z" transform="translate(-291.194 -133.171)" fill="#ccc"/>
        </g>
        <g id="Group_534" data-name="Group 534" transform="translate(0 28.708)">
          <path id="Path_3457" data-name="Path 3457" d="M17.594,203.665a1.323,1.323,0,0,0-1.729-.716L.085,209.486C.031,210.392,0,211.3,0,212.224c0,.053,0,.107,0,.16l16.877-6.991A1.323,1.323,0,0,0,17.594,203.665Z" transform="translate(0 -202.848)" fill="#767272"/>
        </g>
      </g>
      <g id="Group_540" data-name="Group 540" transform="translate(5.562 43.452)">
        <g id="Group_536" data-name="Group 536" transform="translate(12.7 0.553)">
          <path id="Path_3458" data-name="Path 3458" d="M151.114,253.912a44.834,44.834,0,0,0-13.606-4.457v0l-33.986,18.671c6.861,12.478,6.747,25.572,21.521,27.325a45.586,45.586,0,0,0,5.377.317,44.969,44.969,0,0,0,28.66-10.26c4.43-3.643,5.741-13.374,5.739-13.378Z" transform="translate(-103.522 -249.455)" fill="#679cfc"/>
        </g>
        <g id="Group_537" data-name="Group 537">
          <path id="Path_3459" data-name="Path 3459" d="M31.532,269.752a45.18,45.18,0,0,0,34.223,23.114l6.325-6.325a3.448,3.448,0,0,0,0-4.876l-8.636-8.636a3.448,3.448,0,0,0-4.876,0l-1.578,1.578a3.448,3.448,0,0,1-4.876,0l-1.789-1.789a3.448,3.448,0,0,1,0-4.876l8.528-8.528a3.448,3.448,0,0,1,2.438-1.01H74.769a3.448,3.448,0,0,0,3.448-3.448v-8.082a45.212,45.212,0,0,0-46.685,22.879Z" transform="translate(-31.532 -246.318)" fill="#4db2ff"/>
        </g>
        <g id="Group_538" data-name="Group 538" transform="translate(60.289 5.009)">
          <path id="Path_3460" data-name="Path 3460" d="M384.537,282.931a45.126,45.126,0,0,0-11.241-8.218v9.665a7.269,7.269,0,0,0,2.129,5.14l3.9,3.9a3.635,3.635,0,0,1,0,5.14l-.344.344a3.635,3.635,0,0,0,0,5.14l2.277,2.277A45.364,45.364,0,0,0,392.2,293.134,45.154,45.154,0,0,0,384.537,282.931Z" transform="translate(-373.296 -274.713)" fill="#f5f5f5"/>
        </g>
        <g id="Group_539" data-name="Group 539" transform="translate(0 0)">
          <path id="Path_3461" data-name="Path 3461" d="M75.541,246.533q-2.177-.212-4.411-.215a45.147,45.147,0,0,0-39.6,23.434,45.258,45.258,0,0,0,5.444,7.816A45.2,45.2,0,0,1,75.541,246.533Z" transform="translate(-31.532 -246.318)" fill="#f5f5f5"/>
        </g>
      </g>
    </g>
    <path id="Path_4779" data-name="Path 4779" d="M-25.224-2.7H-28.41L-29.179,0h-1.545l3.2-10.664h1.443L-22.909,0h-1.545Zm-2.849-1.179h2.52l-1.23-4.336h-.044Zm9.429,1.428.154.652h.044l.154-.645,2.219-8.225h1.589L-17.743,0h-1.45l-3.252-10.664h1.582ZM-10.95,0h-1.487V-10.664h1.487Zm7.774-2.7H-6.363L-7.132,0H-8.677l3.2-10.664h1.443L-.862,0H-2.407ZM-6.026-3.875h2.52L-4.737-8.21h-.044ZM6.546-9.521H3.719V0H2.224V-9.521H-.581v-1.143H6.546ZM10.189,0H8.7V-10.664h1.487Zm10.1-3.86A4.07,4.07,0,0,1,19.266-.9,3.648,3.648,0,0,1,16.52.154,3.548,3.548,0,0,1,13.817-.9a4.124,4.124,0,0,1-1-2.955V-6.79a4.154,4.154,0,0,1,1-2.959,3.52,3.52,0,0,1,2.7-1.069,3.647,3.647,0,0,1,2.75,1.066A4.088,4.088,0,0,1,20.292-6.79ZM18.812-6.812a3.244,3.244,0,0,0-.6-2.113,2.085,2.085,0,0,0-1.7-.721,1.98,1.98,0,0,0-1.644.721,3.333,3.333,0,0,0-.575,2.113V-3.86a3.361,3.361,0,0,0,.579,2.131A1.986,1.986,0,0,0,16.52-1a2.075,2.075,0,0,0,1.7-.721,3.3,3.3,0,0,0,.593-2.135ZM29.941,0H28.447L24.316-7.866l-.044.015V0H22.785V-10.664h1.487L28.4-2.82l.044-.007v-7.837h1.494ZM-31.237,17h-1.487V6.336h1.487Zm10.081,0H-22.65l-4.131-7.866-.044.015V17h-1.487V6.336h1.487l4.131,7.844.044-.007V6.336h1.494Zm2.786,0V6.336h3.025a3.543,3.543,0,0,1,2.823,1.282,4.9,4.9,0,0,1,1.095,3.3V12.43a4.879,4.879,0,0,1-1.095,3.3A3.551,3.551,0,0,1-15.345,17Zm1.487-9.521v8.394h1.538a2.034,2.034,0,0,0,1.758-.963,4.3,4.3,0,0,0,.659-2.479V10.9a4.259,4.259,0,0,0-.659-2.457,2.034,2.034,0,0,0-1.758-.963ZM-1.917,6.336v7.053a3.742,3.742,0,0,1-1,2.769,3.5,3.5,0,0,1-2.585,1,3.393,3.393,0,0,1-2.538-1,3.785,3.785,0,0,1-.978-2.765V6.336h1.487v7.053a3.02,3.02,0,0,0,.56,1.937,1.791,1.791,0,0,0,1.469.7,1.866,1.866,0,0,0,1.512-.7,2.963,2.963,0,0,0,.575-1.941V6.336ZM5.6,14.319a1.752,1.752,0,0,0-.417-1.2,3.657,3.657,0,0,0-1.472-.861A6.043,6.043,0,0,1,1.4,11.045,2.546,2.546,0,0,1,.6,9.075,2.7,2.7,0,0,1,1.488,7,3.243,3.243,0,0,1,3.77,6.182a3.179,3.179,0,0,1,2.373.908,3.018,3.018,0,0,1,.864,2.278l-.015.044H5.564a2.242,2.242,0,0,0-.5-1.516,1.646,1.646,0,0,0-1.311-.579,1.544,1.544,0,0,0-1.227.5,1.823,1.823,0,0,0-.436,1.245,1.545,1.545,0,0,0,.461,1.15,4.449,4.449,0,0,0,1.553.857,5.463,5.463,0,0,1,2.219,1.245A2.71,2.71,0,0,1,7.088,14.3a2.6,2.6,0,0,1-.9,2.076,3.481,3.481,0,0,1-2.355.773,3.79,3.79,0,0,1-2.446-.835,2.8,2.8,0,0,1-1-2.4L.4,13.88H1.836A2.107,2.107,0,0,0,2.411,15.5a2.012,2.012,0,0,0,1.425.535,1.76,1.76,0,0,0,1.3-.465A1.68,1.68,0,0,0,5.6,14.319ZM15.88,7.479H13.052V17H11.558V7.479H8.753V6.336H15.88Zm3.5,4.929V17H17.9V6.343h3.142a3.35,3.35,0,0,1,2.377.784,2.927,2.927,0,0,1,.839,2.249,2.7,2.7,0,0,1-.392,1.461,2.583,2.583,0,0,1-1.124.97,2.041,2.041,0,0,1,1.183.923,3.218,3.218,0,0,1,.363,1.6v.93a4.182,4.182,0,0,0,.1.916,1.283,1.283,0,0,0,.337.659V17H23.185a1.268,1.268,0,0,1-.326-.736,6.64,6.64,0,0,1-.077-1.022v-.9a2.209,2.209,0,0,0-.414-1.414,1.384,1.384,0,0,0-1.146-.52Zm0-1.135h1.582a1.746,1.746,0,0,0,1.362-.487A1.99,1.99,0,0,0,22.767,9.4a2.133,2.133,0,0,0-.428-1.421,1.61,1.61,0,0,0-1.3-.505H19.384Zm10.33.264h.044l2.227-5.2h1.67l-3.2,6.826V17H28.967V13.052L25.824,6.336H27.48Z" transform="translate(3170 4894)" fill="#0054a5"/>
  </g>
</svg>
