<svg xmlns="http://www.w3.org/2000/svg"viewBox="0 0 1362.007 326.98">
  <g id="slideno3" transform="translate(2255.004 2226.199)">
    <g id="slide30" transform="translate(-2255 -2226.199)">
      <g id="slide2" transform="translate(0 44.105)">
        <g id="slide3" transform="translate(0 0)">
          <g id="slide_1" data-name="slide 1">
            <line id="Line_10" data-name="Line 10" x2="1362" y2="10" transform="translate(0 112.309)" fill="none" stroke="#707070" stroke-width="1" stroke-dasharray="2 2"/>
            <text style="text-align: center;font-weight:400; font-family:Roboto Condensed" id="Visas_NOC_and_work_permits:_Jointly_we_complete_necessary_steps_to_execute_visas_and_work_permits._" data-name="Visas/ NOC/ and work permits:
Jointly, we complete necessary
steps to execute visas and
work permits. " transform="translate(458 160)" fill="#0054a5" font-size="15" font-family="RobotoCondensed-Regular, Roboto"><tspan x="0" y="0">VISAS/ NOC/ AND WORK PERMITS:</tspan><tspan x="0" y="17">JOINTLY, WE COMPLETE NECESSARY</tspan><tspan x="0" y="34">STEPS TO EXECUTE VISAS AND</tspan><tspan x="0" y="51">WORK PERMITS. </tspan></text>
            <g id="Group_800" data-name="Group 800" transform="translate(410 97.901)">
              <g id="Group_796" data-name="Group 796">
                <circle id="Ellipse_36" data-name="Ellipse 36" cx="16" cy="16" r="16" transform="translate(0 0.099)" fill="#0054a5"/>
                <circle id="Ellipse_37" data-name="Ellipse 37" cx="7" cy="7" r="7" transform="translate(9 9.099)" fill="#fff"/>
              </g>
              <line id="Line_2" data-name="Line 2" y2="69" transform="translate(16.5 32.894)" fill="none" stroke="#0054a5" stroke-width="1"/>
            </g>
            <g id="Group_802" data-name="Group 802" transform="translate(84 30.894)">
              <g id="Group_795" data-name="Group 795" transform="translate(0 66.106)">
                <circle id="Ellipse_36-2" data-name="Ellipse 36" cx="16" cy="16" r="16" fill="#0054a5"/>
                <circle id="Ellipse_37-2" data-name="Ellipse 37" cx="7" cy="7" r="7" transform="translate(9 9)" fill="#fff"/>
              </g>
              <line id="Line_3" data-name="Line 3" y2="69" transform="translate(16.5)" fill="none" stroke="#0054a5" stroke-width="1"/>
            </g>
            <g id="Group_803" data-name="Group 803" transform="translate(729 30.894)">
              <g id="Group_795-2" data-name="Group 795" transform="translate(0 66.106)">
                <circle id="Ellipse_36-3" data-name="Ellipse 36" cx="16" cy="16" r="16" fill="#0054a5"/>
                <circle id="Ellipse_37-3" data-name="Ellipse 37" cx="7" cy="7" r="7" transform="translate(9 9)" fill="#fff"/>
              </g>
              <line id="Line_3-2" data-name="Line 3" y2="69" transform="translate(16.5)" fill="none" stroke="#0054a5" stroke-width="1"/>
            </g>
            <g id="Group_801" data-name="Group 801" transform="translate(1051 99.94)">
              <g id="Group_796-2" data-name="Group 796">
                <circle id="Ellipse_36-4" data-name="Ellipse 36" cx="16" cy="16" r="16" transform="translate(0 0.06)" fill="#0054a5"/>
                <circle id="Ellipse_37-4" data-name="Ellipse 37" cx="7" cy="7" r="7" transform="translate(9 9.06)" fill="#fff"/>
              </g>
              <line id="Line_2-2" data-name="Line 2" y2="69" transform="translate(16.5 32.894)" fill="none" stroke="#0054a5" stroke-width="1"/>
            </g>
            <text style="text-align: center;font-weight:400; font-family:Roboto Condensed" id="Consular_letter_-_we_ensure_authorization_from_employer_s_home_embassy_in_Bangladesh_withdraw_work_permits_finalize_all_documentation_checklist_" data-name="Consular letter - we ensure
authorization from employer’s
home embassy in Bangladesh &amp;
withdraw work permits &amp; finalize
all documentation checklist " transform="translate(796 23)" fill="#0054a5" font-size="15" font-family="RobotoCondensed-Regular, Roboto"><tspan x="0" y="0">CONSULAR LETTER - WE ENSURE</tspan><tspan x="0" y="17">AUTHORIZATION FROM EMPLOYER’S</tspan><tspan x="0" y="34">HOME EMBASSY IN BANGLADESH &amp;</tspan><tspan x="0" y="51">WITHDRAW WORK PERMITS &amp; FINALIZE</tspan><tspan x="0" y="68">ALL DOCUMENTATION CHECKLIST </tspan></text>
            <text style="text-align: center;font-weight:400; font-family:Roboto Condensed" id="Employee_migration-_Thanex_takes_care_of_all_ticketing_and_logistics_your_new_recruit_is_on_their_way_to_join_your_thriving_company" data-name="Employee migration- Thanex takes 
care of all ticketing and logistics 
&amp; your new recruit is on their way 
to join your thriving company" transform="translate(1099 160)" fill="#0054a5" font-size="15" font-family="RobotoCondensed-Regular, Roboto"><tspan x="0" y="0">EMPLOYEE MIGRATION- THANEX TAKES </tspan><tspan x="0" y="17">CARE OF ALL TICKETING AND LOGISTICS </tspan><tspan x="0" y="34">&amp; YOUR NEW RECRUIT IS ON THEIR WAY </tspan><tspan x="0" y="51">TO JOIN YOUR THRIVING COMPANY</tspan></text>
            <text style="text-align: center;font-weight:400; font-family:Roboto Condensed" id="Employment_contract:_a_standard_employment_contract_detailing_wages_hours_holidays_is_executed_between_you_and_your_new_recruit_" data-name="Employment contract: a standard
employment contract detailing
wages, hours, holidays, is executed
between you and your new recruit " transform="translate(146 23)" fill="#0054a5" font-size="15" font-family="RobotoCondensed-Regular, Roboto"><tspan x="0" y="0">EMPLOYMENT CONTRACT: A STANDARD</tspan><tspan x="0" y="17">EMPLOYMENT CONTRACT DETAILING</tspan><tspan x="0" y="34">WAGES, HOURS, HOLIDAYS, IS EXECUTED</tspan><tspan x="0" y="51">BETWEEN YOU AND YOUR NEW RECRUIT </tspan></text>
          </g>
        </g>
      </g>
      <g id="Group_839" data-name="Group 839" transform="translate(70 0)">
        <g id="Group_828" data-name="Group 828" transform="translate(0 0)">
          <g id="contrac">
            <path id="Path_4066" data-name="Path 4066" d="M111.983,42.861c-.862-.043-1.034-.259-1.034-1.12s-.043-1.68,0-2.542c.043-.517-.129-.646-.646-.646H69.327c-.517,0-.732.043-.732.646,0,14.736.043,29.515,0,44.25a7.4,7.4,0,0,0,5.084,7.239c4.136,1.25,9.565-.819,9.91-6.894.086-1.206.172-1.336,1.379-1.336H117.11c1.25,0,1.422.215,1.336,1.422a9.14,9.14,0,0,1-7.239,8.531,9.876,9.876,0,0,1-2.241.215H75.7a9.05,9.05,0,0,1-8.574-7.454A16.657,16.657,0,0,1,67,83.1V38.164c0-1.077.172-1.25,1.293-1.25h5.3c.388,0,.517-.086.517-.517.043-1.723.172-3.447.259-5.127.043-.9.345-1.12,1.206-1.077,4.395.215,8.79.474,13.185.689l17.063.9c4.309.215,8.661.474,12.969.689.862.043,1.034.259.991,1.12-.043,1.034-.129,2.111-.129,3.145a1.022,1.022,0,0,1-.689.991.918.918,0,0,1-.948-1.12c.043-.646.043-1.336.129-1.982.043-.474-.129-.6-.56-.6-2.241-.086-4.438-.172-6.678-.3-5.86-.3-11.763-.6-17.623-.948-1.853-.086-3.749-.215-5.6-.3-3.705-.215-7.454-.388-11.16-.6-.431-.043-.517.129-.517.517-.043,1.206-.172,2.456-.215,3.662-.043,1.12-.086.9.862.9h34.685c1.077,0,1.25.215,1.25,1.25v3.533A1.406,1.406,0,0,1,111.983,42.861ZM81.219,91.032c9.608,0,19.045.043,28.481,0a7.149,7.149,0,0,0,7.066-6.291c.086-.517,0-.689-.56-.646-3.533.043-7.109,0-10.643,0H85.829c-.517,0-.689.172-.732.646a8.659,8.659,0,0,1-.388,1.767A9.865,9.865,0,0,1,81.219,91.032Z" transform="translate(-63.208 -30.188)" fill="#8a8a8a"/>
            <path id="Path_4067" data-name="Path 4067" d="M123.513,45.079a1.137,1.137,0,0,0,.56-1.12c-.043-1.163,0-2.37,0-3.533,0-1.034-.215-1.25-1.25-1.25H88.138c-.948,0-.9.215-.862-.9.043-1.206.172-2.456.215-3.662,0-.388.086-.56.517-.517,3.705.215,7.454.431,11.16.6,1.853.086,3.749.215,5.6.3,5.86.3,11.763.6,17.623.948,2.241.129,4.438.215,6.678.3.474,0,.646.129.56.6-.086.646-.086,1.336-.129,1.982a.918.918,0,0,0,.948,1.12v1.465a3.947,3.947,0,0,0-2.671,1.206c-.862.9-1.81,1.723-2.628,2.671a1.415,1.415,0,0,1-1.723.431A1.675,1.675,0,0,0,123.513,45.079Z" transform="translate(-74.738 -32.406)" fill="#57a4ff"/>
            <path id="Path_4068" data-name="Path 4068" d="M141.2,55.409a1.363,1.363,0,0,0,1.723-.431c.819-.948,1.767-1.767,2.628-2.671a3.69,3.69,0,0,1,2.671-1.206,3.248,3.248,0,0,1,2.93,2.2A3.367,3.367,0,0,1,150.166,57c-.732.732-1.465,1.465-2.241,2.2-.259.259-.3.431-.043.732.474.6.431.862-.172,1.379a1.046,1.046,0,0,1-1.034-.345c-.172-.259-.345-.172-.517,0-1.637,1.68-3.275,3.318-4.912,4.955-.172.172-.388.3-.56.474L125.778,81.3a2.473,2.473,0,0,1-1.163.689c-.776.172-1.508.474-2.241.646a4.2,4.2,0,0,0-2.542,1.422.8.8,0,1,1-1.12-1.12,3.51,3.51,0,0,0,1.25-2.456c.086-.517.259-1.034.3-1.594A4.58,4.58,0,0,1,121.814,76c6.2-6.118,12.366-12.323,18.527-18.484l.6-.6a4.577,4.577,0,0,0-3.361,1.336c-.948.9-1.853,1.81-2.758,2.758L132.5,63.337a.82.82,0,0,1-1.25.129c-.388-.345-.345-.819.086-1.293,1.68-1.68,3.361-3.4,5.084-5.084A6.648,6.648,0,0,1,141.2,55.409Zm3.964,4.223a.43.43,0,0,0-.172-.215,15.9,15.9,0,0,0-1.767-1.637.613.613,0,0,0-.948.086c-1.723,1.767-3.447,3.49-5.214,5.214L129.441,70.7c-.3.3-.388.474,0,.776a18.552,18.552,0,0,1,1.594,1.594c.3.3.474.259.732,0l13.055-13.055C144.952,59.89,145.038,59.761,145.168,59.631ZM130.216,74.582a.6.6,0,0,0-.129-.172L128.1,72.428c-.172-.172-.3-.043-.431.086l-4.395,4.395a.362.362,0,0,0,0,.6c.6.56,1.163,1.163,1.767,1.767.259.259.431.172.646-.043,1.422-1.422,2.844-2.887,4.309-4.309A.68.68,0,0,1,130.216,74.582Zm17.838-21.845a2.648,2.648,0,0,0-1.982,1.379c-.172.56.517.732.776,1.077a3.29,3.29,0,0,0,.388.388c1.12,1.12,1.12,1.12,2.154-.129a1.382,1.382,0,0,0,.259-1.68A1.764,1.764,0,0,0,148.054,52.737ZM121.383,81.3c.9-.259,1.767-.517,2.5-.732l-1.939-1.939C121.771,79.451,121.6,80.313,121.383,81.3Zm25.68-23.482a3.77,3.77,0,0,0-.345-.431L145.3,55.969c-.646-.646-.646-.646-1.25.043-.129.172-.172.259.043.388a11.756,11.756,0,0,1,1.9,1.68c.129.129.215.345.431.215A2.272,2.272,0,0,0,147.063,57.822Z" transform="translate(-92.429 -42.09)" fill="#8a8a8a"/>
            <path id="Path_4069" data-name="Path 4069" d="M171.4,78.82c1.637-1.637,3.275-3.318,4.912-4.955.172-.215.345-.259.517,0a1.046,1.046,0,0,0,1.034.345,5.214,5.214,0,0,1-.043.819c-.862-.043-1.12.215-1.163,1.034-.129,3.792-.259,7.626-.388,11.418l-.517,15.382a1.252,1.252,0,0,0,.517,1.163h-4.826a1.144,1.144,0,0,0,.517-1.12V81.62a1.176,1.176,0,0,0-.56-1.12C171.4,79.9,171.4,79.38,171.4,78.82Z" transform="translate(-122.625 -54.944)" fill="#57a4ff"/>
            <path id="Path_4070" data-name="Path 4070" d="M95.638,120.584a10.745,10.745,0,0,1,.474-1.163,6.282,6.282,0,0,1,.3-.819c.345-.732.732-1.422,1.68-1.422s1.336.689,1.68,1.422c.259.6.474,1.206.732,1.81.3-.172.3-.431.388-.646a10.118,10.118,0,0,1,.776-1.723,1.5,1.5,0,0,1,2.758,0,9.328,9.328,0,0,1,.819,1.9c.129.3.215.517.56.646a.692.692,0,0,1,.431.991.781.781,0,0,1-.948.517,1.834,1.834,0,0,1-1.336-1.163c-.3-.689-.6-1.379-.862-2.111a2.5,2.5,0,0,0-.431.9c-.129.345-.259.689-.388.991-.345.689-.732,1.379-1.637,1.379-.948,0-1.336-.689-1.68-1.422-.259-.6-.517-1.25-.776-1.9-.3.3-.3.689-.474,1.034-.172.3-.259.646-.431.991-.345.689-.732,1.293-1.637,1.293-.862,0-1.293-.646-1.594-1.336-.259-.474-.431-1.034-.689-1.637a21.3,21.3,0,0,1-1.293,2.628c-.6.9-.991,1.12-1.508.819-.517-.345-.474-.732.129-1.68a10.043,10.043,0,0,0,1.594-7.325c-.3-1.767-1.422-2.456-2.93-2.025-.56.172-.732.388-.646.991a17.1,17.1,0,0,1-.646,7.8,9.645,9.645,0,0,1-1.12,2.327,2.83,2.83,0,0,1-2.628,1.551,3.037,3.037,0,0,1-2.585-2.241,7.284,7.284,0,0,1,.345-5.774,11.944,11.944,0,0,1,4.266-4.869.711.711,0,0,0,.345-.948c-.388-1.077-.689-2.241-1.939-2.714a.687.687,0,0,1-.3-1.034.814.814,0,0,1,1.034-.388,4.049,4.049,0,0,1,2.154,2.068c.3.56.3,1.336.732,1.68.388.345,1.12-.215,1.723-.215,1.982-.043,3.49,1.336,3.878,3.576a10.033,10.033,0,0,1,0,3.4.784.784,0,0,0,.3.819,3.5,3.5,0,0,1,.948,1.637A5.014,5.014,0,0,0,95.638,120.584Zm-8.488-7.928a10.721,10.721,0,0,0-4.007,5,5.26,5.26,0,0,0,.129,3.964c.215.474.474.948,1.034,1.034.56.043.9-.345,1.206-.819C87.236,119.033,87.408,115.974,87.15,112.656Z" transform="translate(-71.337 -73.442)" fill="#1664ff"/>
            <path id="Path_4071" data-name="Path 4071" d="M181.917,105.777a1.176,1.176,0,0,1-.517-1.163l.517-15.382c.129-3.792.259-7.626.388-11.418.043-.862.3-1.12,1.163-1.034a1.192,1.192,0,0,1,.474,1.034c-.259,7.713-.517,15.382-.776,23.095l-.129,3.878C182.994,105.6,182.779,105.777,181.917,105.777Z" transform="translate(-128.317 -56.696)" fill="#8a8a8a"/>
            <path id="Path_4072" data-name="Path 4072" d="M97.333,64.926H83.846a.74.74,0,0,1-.646-.732.761.761,0,0,1,.646-.819,2.076,2.076,0,0,1,.517,0h26.542a.74.74,0,0,1,.646.732.761.761,0,0,1-.646.819,3.261,3.261,0,0,1-.646.043C105.95,64.926,101.641,64.926,97.333,64.926Z" transform="translate(-72.428 -49.065)" fill="#a8ddfd"/>
            <path id="Path_4073" data-name="Path 4073" d="M59.926,71.017V83.642a2.823,2.823,0,0,1,0,.6.781.781,0,0,1-1.551,0,3.24,3.24,0,0,1,0-.646V58.393a2.823,2.823,0,0,1,0-.6.781.781,0,0,1,1.551,0,2.076,2.076,0,0,1,0,.517Z" transform="translate(-58.289 -45.504)" fill="#8a8a8a"/>
            <path id="Path_4074" data-name="Path 4074" d="M170.027,89.4a1.176,1.176,0,0,1,.56,1.12v21.285a1.144,1.144,0,0,1-.517,1.12c-.819,0-1.077-.215-1.077-1.034V90.477C168.95,89.659,169.166,89.443,170.027,89.4Z" transform="translate(-121.253 -63.887)" fill="#8a8a8a"/>
            <path id="Path_4075" data-name="Path 4075" d="M149.864,130.985a4.023,4.023,0,0,1-3.964-3.878,3.965,3.965,0,1,1,3.964,3.878Zm-2.37-3.964a2.348,2.348,0,1,0,4.7.043,2.291,2.291,0,0,0-2.284-2.37A2.217,2.217,0,0,0,147.494,127.021Z" transform="translate(-108.113 -83.067)" fill="#1664ff"/>
            <path id="Path_4076" data-name="Path 4076" d="M92.792,95.994H84.175c-.732,0-1.163-.517-.948-1.077.172-.474.6-.517,1.034-.517h17.192c.646,0,.991.3.991.819s-.388.776-1.034.776Z" transform="translate(-72.412 -66.733)" fill="#a8ddfd"/>
            <path id="Path_4077" data-name="Path 4077" d="M90.956,79.737H84.277c-.689,0-1.077-.3-1.077-.819s.345-.819,1.077-.819H97.634c.689,0,1.077.3,1.077.819s-.388.819-1.077.819Z" transform="translate(-72.428 -57.456)" fill="#a8ddfd"/>
            <path id="Path_4078" data-name="Path 4078" d="M130.327,79.794h-1.465c-.517,0-.862-.259-.862-.776a.781.781,0,0,1,.862-.819h3.059c.517,0,.862.259.862.776,0,.56-.345.819-.9.819Z" transform="translate(-97.925 -57.513)" fill="#a8ddfd"/>
            <path id="Path_4079" data-name="Path 4079" d="M59.1,127a.826.826,0,0,1,.862.9.9.9,0,0,1-.9.862.874.874,0,0,1-.862-.9A.826.826,0,0,1,59.1,127Z" transform="translate(-58.2 -85.282)" fill="#2a3558"/>
            <path id="Path_4080" data-name="Path 4080" d="M100,162.18a9.4,9.4,0,0,0,3.447-4.567,5.005,5.005,0,0,0,.388-1.767c.043-.474.215-.646.732-.646h30.376c.56,0,.646.129.56.646a7.153,7.153,0,0,1-7.066,6.291C119.045,162.223,109.608,162.18,100,162.18Z" transform="translate(-81.99 -101.336)" fill="#fdfdfd"/>
            <path id="Path_4081" data-name="Path 4081" d="M159.583,68.152c-.129.129-.215.259-.3.345L146.226,81.553c-.3.3-.431.345-.732,0a18.55,18.55,0,0,0-1.594-1.594c-.345-.3-.259-.517,0-.776l7.626-7.626c1.723-1.723,3.49-3.447,5.214-5.214a.615.615,0,0,1,.948-.086,20.926,20.926,0,0,1,1.767,1.637C159.5,67.98,159.5,68.066,159.583,68.152Z" transform="translate(-106.845 -50.611)" fill="#a8ddfd"/>
            <path id="Path_4082" data-name="Path 4082" d="M136.467,102.588c-.086.086-.172.215-.259.3-1.422,1.422-2.887,2.844-4.309,4.309-.215.215-.388.3-.646.043-.56-.6-1.163-1.163-1.767-1.767a.362.362,0,0,1,0-.6l4.395-4.395c.129-.129.259-.259.431-.086l1.982,1.982A.43.43,0,0,1,136.467,102.588Z" transform="translate(-98.679 -70.095)" fill="#a8ddfd"/>
            <path id="Path_4083" data-name="Path 4083" d="M184.589,54.9a1.7,1.7,0,0,1,1.551,1.034,1.518,1.518,0,0,1-.259,1.68c-1.034,1.25-1.034,1.25-2.154.129l-.388-.388c-.259-.388-.948-.56-.776-1.077A2.882,2.882,0,0,1,184.589,54.9Z" transform="translate(-128.964 -44.252)" fill="#a8ddfd"/>
            <path id="Path_4084" data-name="Path 4084" d="M125.4,117.671c.215-.991.388-1.853.56-2.671l1.939,1.939C127.123,117.154,126.3,117.413,125.4,117.671Z" transform="translate(-96.445 -78.457)" fill="#57a4ff"/>
            <path id="Path_4085" data-name="Path 4085" d="M180.874,63.654a3.782,3.782,0,0,1-.646.517c-.215.129-.3-.086-.431-.215a10,10,0,0,0-1.9-1.68c-.215-.129-.172-.215-.043-.388.56-.689.6-.732,1.25-.043l1.422,1.422A1.564,1.564,0,0,1,180.874,63.654Z" transform="translate(-126.239 -47.923)" fill="#a8ddfd"/>
            <path id="Path_4086" data-name="Path 4086" d="M149.6,129.127a2.228,2.228,0,0,1,2.37-2.327,2.265,2.265,0,0,1,2.284,2.37,2.327,2.327,0,1,1-4.653-.043Z" transform="translate(-110.218 -85.173)" fill="#fdfdfd"/>
          </g>
        </g>
        <g id="Group_829" data-name="Group 829" transform="translate(326 254.896)">
          <g id="noc">
            <path id="Path_4087" data-name="Path 4087" d="M61.829,35.434c.218-.871,1-.784,1.568-.915,4.442-1,7.534-3.44,8.579-8.057A1.4,1.4,0,0,1,73.588,25.2H109.56a1.509,1.509,0,0,1,1.7,1.394c1,4.486,4.007,6.924,8.318,7.839a2.027,2.027,0,0,1,1.916,2.439c-.044,7.708-.174,15.417,0,23.081a19.3,19.3,0,0,1-5.182,13.805A55.484,55.484,0,0,1,93.969,88.783a6.137,6.137,0,0,1-4.486.131C79.859,85.255,71.41,79.9,65.139,71.581A17.171,17.171,0,0,1,61.7,60.824c.131-8.362.087-16.723.087-25.085a.627.627,0,0,1,.131-.087A.736.736,0,0,0,61.829,35.434Zm1.916,27.436c-.218.131-.218.218,0,.348a17.809,17.809,0,0,0,4.007,8.536c6.01,7.186,13.718,11.933,22.341,15.286a4.1,4.1,0,0,0,3.048-.087c8.318-3.266,15.722-7.839,21.644-14.633,2.439-2.831,4.4-5.966,4.4-9.886.044-8.187,0-16.418.044-24.606a1.357,1.357,0,0,0-1.176-1.568,11.921,11.921,0,0,1-8.623-8.1c-.261-.871-.74-.915-1.437-.915H75.155a1.311,1.311,0,0,0-1.524,1.089,11.663,11.663,0,0,1-8.274,7.8c-1.176.348-1.611.784-1.611,2.09C63.832,46.452,63.789,54.64,63.745,62.871Z" transform="translate(-61.697 -25.2)" fill="#57a4ff"/>
            <path id="Path_4088" data-name="Path 4088" d="M61.944,48.7a.736.736,0,0,1,.087.218A.626.626,0,0,0,61.9,49,.646.646,0,0,0,61.944,48.7Z" transform="translate(-61.812 -38.466)" fill="#76af44"/>
            <path id="Path_4089" data-name="Path 4089" d="M66.4,65.58c0-8.187.044-16.418,0-24.606a1.794,1.794,0,0,1,1.611-2.09,11.663,11.663,0,0,0,8.274-7.8A1.344,1.344,0,0,1,77.81,30h32.837c.7,0,1.176.044,1.437.915a11.921,11.921,0,0,0,8.623,8.1c.915.261,1.219.61,1.176,1.568-.044,8.187,0,16.418-.044,24.606-.044,3.92-1.96,7.055-4.4,9.886-5.923,6.794-13.326,11.367-21.644,14.633a4.1,4.1,0,0,1-3.049.087c-8.623-3.353-16.331-8.1-22.341-15.286A18,18,0,0,1,66.4,65.972.589.589,0,0,0,66.4,65.58Zm6.663-4.66A20.1,20.1,0,0,0,96.058,78.21,20.313,20.313,0,0,0,113.173,59.4c.044-.915.174-1.873-1.219-1.786-1.263.087-.827,1.089-.871,1.742a17.815,17.815,0,0,1-7.012,13.239A18.591,18.591,0,0,1,92.094,76.6a16.293,16.293,0,0,1-6.315-1.7,18.1,18.1,0,0,1,9.929-34.492,23.975,23.975,0,0,1,3.484.871c.61.174,1.089.261,1.437-.3.392-.653-.087-.915-.566-1.263-.7-.566-1.568-.479-2.265-.784-3.528-1.524-7.055-.958-10.408.044C79.16,41.454,74.37,47.115,73.02,55.607A21.653,21.653,0,0,0,73.063,60.92Zm45.2-15.809c0-.566-.392-.871-.74-1.219-1.568-1.568-3.179-3.049-4.66-4.66-1.045-1.132-1.786-1.045-2.831.044-4.79,4.878-9.668,9.625-14.415,14.5-1.045,1.089-1.655,1.35-2.744.044-1.437-1.655-3.092-3.136-4.616-4.7-.784-.827-1.481-1-2.352-.087-1.655,1.7-3.31,3.353-5.008,5.008a1.343,1.343,0,0,0,.044,2.221q6.075,6.01,12.15,12.15a1.4,1.4,0,0,0,2.352,0q11.04-11.105,22.167-22.167A2.008,2.008,0,0,0,118.268,45.112Z" transform="translate(-64.352 -27.91)" fill="none"/>
            <path id="Path_4090" data-name="Path 4090" d="M66.209,111.7v.348C66.035,111.918,65.991,111.787,66.209,111.7Z" transform="translate(-64.161 -74.029)" fill="#76af44"/>
            <path id="Path_4091" data-name="Path 4091" d="M136.253,55.991a1.833,1.833,0,0,1-.7,1.089c-7.4,7.4-14.807,14.763-22.167,22.167a1.4,1.4,0,0,1-2.352,0q-6.01-6.075-12.15-12.15c-.784-.784-.871-1.437-.044-2.221,1.7-1.655,3.353-3.31,5.008-5.008.871-.915,1.568-.74,2.352.087,1.524,1.568,3.223,3.049,4.616,4.7,1.089,1.307,1.7,1,2.744-.044,4.747-4.878,9.625-9.668,14.415-14.5,1.045-1.045,1.786-1.176,2.831-.044,1.481,1.611,3.092,3.136,4.66,4.66A1.728,1.728,0,0,1,136.253,55.991Zm-2.613-.044c-.261-.261-.436-.523-.653-.74a29.411,29.411,0,0,1-2.308-2.352c-.827-1.045-1.394-1.089-2.4-.044-4.79,4.921-9.668,9.755-14.546,14.589-1.481,1.481-1.611,1.481-3.136-.044-.784-.784-1.524-1.568-2.352-2.308-1.132-1-2.047-3.048-3.353-2.874-1.219.174-2.221,1.96-3.353,2.961-.74.653-.61,1.045.044,1.7q4.9,4.769,9.668,9.668c.7.7,1.132.784,1.873.044q9.864-9.929,19.815-19.815C133.161,56.513,133.379,56.252,133.64,55.947Z" transform="translate(-82.337 -38.789)" fill="#fff"/>
            <path id="Path_4092" data-name="Path 4092" d="M81.7,66.063c1.394-8.492,6.184-14.154,14.371-16.636,3.353-1,6.881-1.568,10.408-.044.653.3,1.524.218,2.265.784.479.392.958.653.566,1.263-.348.566-.871.479-1.437.3a23.975,23.975,0,0,0-3.484-.871A18.1,18.1,0,0,0,94.46,85.355a17.093,17.093,0,0,0,6.315,1.7,18.349,18.349,0,0,0,11.976-4.007,17.89,17.89,0,0,0,7.012-13.239c.044-.61-.392-1.655.871-1.742,1.394-.087,1.263.915,1.219,1.786a20.157,20.157,0,0,1-40.11,1.524A10.461,10.461,0,0,0,81.7,66.063Z" transform="translate(-72.989 -38.321)" fill="#8a8a8a"/>
            <path id="Path_4093" data-name="Path 4093" d="M81.467,88.9a9.841,9.841,0,0,1,0,5.27A19.411,19.411,0,0,1,81.467,88.9Z" transform="translate(-72.755 -61.159)" fill="#8a8a8a"/>
            <path id="Path_4094" data-name="Path 4094" d="M137.245,59.568c-.261.3-.479.566-.7.784-6.62,6.62-13.239,13.2-19.815,19.815-.74.74-1.176.653-1.873-.044-3.179-3.266-6.445-6.489-9.668-9.668-.653-.653-.784-1.045-.044-1.7,1.132-1,2.134-2.831,3.353-2.961,1.306-.174,2.221,1.829,3.353,2.874.827.74,1.568,1.524,2.352,2.308,1.524,1.524,1.655,1.524,3.136.044,4.878-4.834,9.755-9.668,14.546-14.589,1-1.045,1.524-.958,2.4.044a29.41,29.41,0,0,0,2.308,2.352A5.635,5.635,0,0,1,137.245,59.568Z" transform="translate(-85.941 -42.409)" fill="#1664ff"/>
          </g>
        </g>
        <g id="Group_830" data-name="Group 830" transform="translate(640 1.392)">
          <g id="Consular_letter-01" data-name="Consular letter-01">
            <path id="Path_4095" data-name="Path 4095" d="M84.822,84.538a30.017,30.017,0,0,1-6.024-.445c-.2-.04-.364-.04-.4-.283.162,0,.283-.04.445-.04.687.081.97-.162.93-.889-.081-1.051,0-2.1-.081-3.153-.364-3.517-.93-6.953-1.415-10.471A3.309,3.309,0,0,0,75.6,66.265c-1.5-.364-2.992-.687-4.487-1.051a2.019,2.019,0,0,1-1.092-3.153,12.2,12.2,0,0,0,1.5-2.628A11.327,11.327,0,0,0,72.33,54.5c-.162-2.385-1.051-4.326-3.4-5.255a6.121,6.121,0,0,0-6.711.93c-.162.121-.243.283-.485.323A2.345,2.345,0,0,0,60,51.549a12.341,12.341,0,0,1,1.819-4.164A24.908,24.908,0,0,1,76.09,36.026a1.914,1.914,0,0,1,.687-.04c0,.323.04.647.04.97V54.379a3.556,3.556,0,0,0,3.8,3.841h19.607a3.517,3.517,0,0,0,3.8-3.841V46.536a6.768,6.768,0,0,1,1.577,2.506,24.068,24.068,0,0,1,2.264,7.681,24.68,24.68,0,0,1-.162,7.317c-.04.243-.081.526-.323.647a2.658,2.658,0,0,0-2.1-.809c-4.609.04-9.258,0-13.866,0H87.046A1.969,1.969,0,0,0,84.9,66.063v.768C84.862,72.693,84.822,78.635,84.822,84.538Z" transform="translate(-48.155 -26.936)" fill="#a8ddfd"/>
            <path id="Path_4096" data-name="Path 4096" d="M42.545,70.148A2.5,2.5,0,0,1,44.283,69.1c.243,0,.323-.2.485-.323a6.2,6.2,0,0,1,6.711-.93c2.345.97,3.194,2.911,3.4,5.255a11.327,11.327,0,0,1-.809,4.932,9.547,9.547,0,0,1-1.5,2.628,2.019,2.019,0,0,0,1.092,3.153c1.5.364,2.992.687,4.487,1.051a3.309,3.309,0,0,1,2.668,2.992c.445,3.477,1.051,6.953,1.415,10.471.121,1.051.04,2.1.081,3.153.04.728-.243.97-.93.889-.162,0-.283.04-.445.04h-.445c-1.617,0-3.275-.04-4.892-.04H31.589c-.485,0-1.051.121-.809-.728.04-.04.081-.04.121-.081.445-.04.93-.04,1.375-.081a15.974,15.974,0,0,0,4.164-.121H32.277A1.754,1.754,0,0,1,30.7,99.377V89.27a1.785,1.785,0,0,1,2.021-1.981h3.4c.283,0,.526-.04.647-.364A3.638,3.638,0,0,1,39.8,84.661a14.9,14.9,0,0,0,1.819-.445,10.624,10.624,0,0,1,1.9-.4c1.617-.162,1.779-1.981,1.092-3.194a13.8,13.8,0,0,1-1.5-2.709A18.627,18.627,0,0,1,42.06,71.4c.081-.364.2-.687.283-1.051.162,0,.2-.081.2-.2Zm8.287,31.25H37.168a1.4,1.4,0,0,0,.93.2h7.964c1.577,0,3.153-.04,4.73-.04,1.617,0,3.234.04,4.811.04.162,0,.4-.04.4-.081.081-.768.809-1.294.809-2.143-.04-3.962,0-7.883,0-11.845,0-.647.2-1.455-.121-1.9-.323-.485-1.172-.364-1.819-.526-.566-.162-1.213-.485-1.657-.323-.485.2-.526,1.011-.768,1.577-.364.768-.889,1.536-.162,2.385.121.121.081.4.081.606V99.619C52.409,100.589,51.924,101.115,50.833,101.4Zm-9.379-.809h8.773c1.051,0,1.375-.283,1.375-1.334V89.512c0-1.011-.323-1.294-1.294-1.294H32.883c-1.051,0-1.334.283-1.334,1.334v9.581c0,1.132.283,1.415,1.415,1.415C35.794,100.589,38.624,100.589,41.454,100.589ZM53.824,75.646a7.573,7.573,0,0,0,.2-2.83,4.533,4.533,0,0,0-3.032-4.285,5.206,5.206,0,0,0-5.741,1.011c-.243.2-.4.4-.768.4a1.313,1.313,0,0,0-1.334,1.132,8.369,8.369,0,0,0,.323,4.528c.4-.889.728-1.577,1.051-2.223a.617.617,0,0,0-.04-.809.4.4,0,0,1,0-.647c.243-.2.445-.04.647.162a5.972,5.972,0,0,0,6.994,1.617c.566-.2.809-.04,1.011.485A3.121,3.121,0,0,0,53.824,75.646Zm7.681,24.216c-.323-4.285-1.011-8.287-1.617-12.29a2.342,2.342,0,0,0-1.617-1.738c-.485-.162-.606-.081-.606.445V99.013c0,.081.04.121.081.243A3.312,3.312,0,0,1,61.505,99.862ZM43.637,76.455a6.327,6.327,0,0,1,.2,1.092c0,.485.647.364.687.809.2,1.577,1.294,2.385,2.587,3.113a2.612,2.612,0,0,0,2.709.081,10.052,10.052,0,0,1,1.132-.606,3.191,3.191,0,0,0,1.7-2.183,1.03,1.03,0,0,1,.566-.809c.4-.243.4-.809.323-1.213-.04-.243-.485-.04-.768-.081-.323,0-.323.243-.364.445a1.137,1.137,0,0,1-.687.849,1.976,1.976,0,0,1-2.789-1.092.393.393,0,0,0-.445-.283.375.375,0,0,0-.364.283,1.961,1.961,0,0,1-2.87,1.011c-.243-.162-.485-.364-.485-.647C44.688,76.535,44.243,76.5,43.637,76.455Zm2.223,5.175c-.081.526-.2.889.081,1.213.889,1.011,1.738,1.981,2.668,3.032.809-.889,1.536-1.779,2.345-2.628a1.522,1.522,0,0,0,.4-1.657C49.539,83,47.72,83.165,45.86,81.629Zm-.606,5.741c-.364-.889-.728-1.7-1.051-2.506-.121-.243-.243-.243-.485-.2-.889.243-1.819.445-2.709.647a.416.416,0,0,0-.4.445v1.213c0,.283.121.4.4.4ZM59.2,101.56h1.738c.364,0,.485-.081.323-.445a2.278,2.278,0,0,0-4.164-.04c-.2.445-.04.526.364.526C58.069,101.56,58.635,101.56,59.2,101.56ZM50.469,87.37c.323-.04.566.121.687-.2.364-.889.768-1.779,1.132-2.668.162-.4-.243-.526-.445-.687-.243-.243-.323.081-.445.2-.647.687-1.253,1.415-1.9,2.143-.121.121-.4.283-.162.485C49.7,86.966,49.943,87.451,50.469,87.37Zm-3.841,0h.243a1.313,1.313,0,0,0,1.011-.809c.2-.283-.243-.485-.4-.687-.485-.606-1.011-1.172-1.536-1.738-.162-.162-.243-.566-.526-.323-.283.2-.647.4-.364.93.364.728.647,1.455.97,2.223C46.1,87.249,46.264,87.451,46.628,87.37ZM49.458,75a6.389,6.389,0,0,1-2.749-.647c-.485-.2-.97-.889-1.375-.647s-.526.97-.768,1.5c-.081.162-.323.364-.081.485.2.121.243-.162.364-.283a2.582,2.582,0,0,1,2.83-.2C48.569,75.97,48.811,75.929,49.458,75ZM37.532,87.37h1.779c.2,0,.445.081.445-.243,0-.485.162-1.172-.081-1.375-.323-.283-.889.081-1.253.4A2.877,2.877,0,0,0,37.532,87.37Zm13.1-10.188c.485.04.93.04.93-.687,0-.687-.364-.687-.889-.687-.485,0-.889,0-.889.687C49.781,77.1,50.064,77.263,50.63,77.182Zm-4.245,0c.485.04.849.04.849-.687,0-.687-.323-.687-.849-.728-.647-.04-.889.162-.889.849C45.537,77.3,46.022,77.142,46.386,77.182Zm4.609-2.3a1.451,1.451,0,0,1,1.334.728.269.269,0,0,0,.283.2c.121,0,.162-.081.162-.2a.87.87,0,0,0-1.132-.93A6.3,6.3,0,0,1,50.994,74.878Z" transform="translate(-30.7 -45.576)" fill="#8a8a8a"/>
            <path id="Path_4097" data-name="Path 4097" d="M128.748,39.139v7.843a3.517,3.517,0,0,1-3.8,3.841H105.341a3.556,3.556,0,0,1-3.8-3.841V29.558c0-.323-.04-.647-.04-.97.04-.647.04-1.294.121-1.94a3.432,3.432,0,0,1,3.355-2.992q10.188-.061,20.375,0c1.617,0,2.789,1.051,3.355,2.83.04.162.04.283.081.445C128.748,30.973,128.748,35.056,128.748,39.139Zm-13.664-2.345h12.088c.606,0,.728-.2.728-.768-.04-2.87,0-5.741,0-8.611a2.75,2.75,0,0,0-2.951-2.992H105.3a2.7,2.7,0,0,0-2.951,2.951c0,2.87.04,5.741,0,8.611,0,.647.2.768.809.768C107.16,36.794,111.122,36.794,115.083,36.794Zm.081.849H103.036c-.485,0-.647.121-.647.606.04,2.951,0,5.943,0,8.894a2.685,2.685,0,0,0,2.789,2.83c6.63.04,13.26.04,19.93,0a2.761,2.761,0,0,0,2.83-2.911V38.371c0-.606-.121-.809-.768-.809C123.128,37.643,119.126,37.643,115.164,37.643Z" transform="translate(-72.878 -19.579)" fill="#8a8a8a"/>
            <path id="Path_4098" data-name="Path 4098" d="M57.328,77.7a18.627,18.627,0,0,0,1.051,6.509,13.8,13.8,0,0,0,1.5,2.709c.687,1.213.526,3.032-1.092,3.194-.647.081-1.253.283-1.9.4-.162-1.172-.364-2.345-.485-3.558a18.516,18.516,0,0,1,0-4.487,22.84,22.84,0,0,1,.687-4.043A.852.852,0,0,1,57.328,77.7Z" transform="translate(-45.928 -51.793)" fill="#c8eef9"/>
            <path id="Path_4099" data-name="Path 4099" d="M90.582,170.241a29.272,29.272,0,0,1-3.76-1.253c-.243-.081-.4-.283-.283-.526a.408.408,0,0,1,.606-.243,30.713,30.713,0,0,0,3.719,1.213c.283.081.445.243.364.526C91.148,170.281,90.946,170.322,90.582,170.241Z" transform="translate(-63.941 -105.686)" fill="#8a8a8a"/>
            <path id="Path_4100" data-name="Path 4100" d="M122.189,13.651a27.284,27.284,0,0,1,3.315.4c.323.04.809.081.687.566-.081.445-.485.323-.809.283a31.9,31.9,0,0,0-3.436-.4c-.323-.04-.647-.04-.647-.445C121.34,13.61,121.664,13.57,122.189,13.651Z" transform="translate(-84.673 -13.617)" fill="#8a8a8a"/>
            <path id="Path_4101" data-name="Path 4101" d="M36.658,79.424A27.462,27.462,0,0,1,37.3,75.7c.081-.323.162-.606.566-.526.364.081.283.4.243.687-.2,1.213-.445,2.426-.606,3.638-.04.323-.121.566-.485.526S36.577,79.707,36.658,79.424Z" transform="translate(-34.232 -50.283)" fill="#8a8a8a"/>
            <path id="Path_4102" data-name="Path 4102" d="M43.487,56.1c.283.121.485.323.323.647a37.06,37.06,0,0,0-1.657,3.638.425.425,0,0,1-.606.283.413.413,0,0,1-.2-.566A29.526,29.526,0,0,1,43,56.464.476.476,0,0,1,43.487,56.1Z" transform="translate(-37.019 -38.926)" fill="#8a8a8a"/>
            <path id="Path_4103" data-name="Path 4103" d="M36.24,97.1c0-.364-.04-.768-.04-1.132,0-.323.081-.566.445-.566.283,0,.4.243.4.526a29.492,29.492,0,0,0,.323,3.76c.04.283.04.606-.323.647-.4.04-.485-.283-.526-.566-.121-.889-.2-1.779-.283-2.668Z" transform="translate(-33.977 -62.338)" fill="#8a8a8a"/>
            <path id="Path_4104" data-name="Path 4104" d="M68.766,26.741a.743.743,0,0,1-.364.526c-1.011.687-2.021,1.415-2.951,2.183-.243.2-.485.323-.728.04s-.081-.485.162-.687c.97-.809,2.021-1.577,3.072-2.3C68.362,26.256,68.6,26.337,68.766,26.741Z" transform="translate(-50.897 -21.21)" fill="#8a8a8a"/>
            <path id="Path_4105" data-name="Path 4105" d="M109.408,174.426c-.889-.081-1.7-.162-2.506-.2-.323-.04-.647-.081-.606-.485s.4-.4.687-.364a35.851,35.851,0,0,0,3.6.243c.283,0,.606.04.606.4,0,.4-.323.445-.647.445A10.59,10.59,0,0,0,109.408,174.426Z" transform="translate(-75.732 -108.78)" fill="#8a8a8a"/>
            <path id="Path_4106" data-name="Path 4106" d="M104.658,13.654c.445.121,1.132-.323,1.172.364s-.647.4-1.051.485c-1.051.162-2.062.283-3.113.445-.283.04-.566.081-.687-.283-.081-.4.2-.526.526-.566C102.6,13.937,103.688,13.775,104.658,13.654Z" transform="translate(-72.559 -13.62)" fill="#8a8a8a"/>
            <path id="Path_4107" data-name="Path 4107" d="M195.862,103.932a31.1,31.1,0,0,1-.647,3.517c-.081.283-.162.566-.526.485-.445-.081-.364-.445-.283-.728a34.47,34.47,0,0,0,.647-3.558c.04-.283.081-.647.526-.566C195.943,103.164,195.9,103.487,195.862,103.932Z" transform="translate(-128.187 -66.908)" fill="#8a8a8a"/>
            <path id="Path_4108" data-name="Path 4108" d="M86.355,17.946c-.04.323-.243.4-.445.485a36.839,36.839,0,0,0-3.477,1.415c-.283.162-.566.121-.687-.2s.081-.485.323-.566a28.444,28.444,0,0,1,3.638-1.455C86.032,17.5,86.274,17.582,86.355,17.946Z" transform="translate(-61.088 -15.972)" fill="#8a8a8a"/>
            <path id="Path_4109" data-name="Path 4109" d="M197.073,85.947c0,.4.04.809.04,1.213,0,.283-.081.566-.445.566-.323,0-.4-.243-.4-.526a29.42,29.42,0,0,0-.283-3.76c-.04-.283,0-.566.364-.647.364-.04.485.2.485.526.081.849.162,1.738.243,2.628Z" transform="translate(-129.156 -54.825)" fill="#8a8a8a"/>
            <path id="Path_4110" data-name="Path 4110" d="M192.917,67.259a.412.412,0,0,1-.243.485.373.373,0,0,1-.526-.283c-.4-1.294-.809-2.587-1.294-3.841a.431.431,0,0,1,.243-.566c.2-.081.364,0,.526.2C191.745,63.539,192.877,66.895,192.917,67.259Z" transform="translate(-126.092 -43.05)" fill="#8a8a8a"/>
            <path id="Path_4111" data-name="Path 4111" d="M181.075,45.5c.243,0,.364.162.485.323a26.378,26.378,0,0,1,2.062,3.153c.162.243.243.526-.04.728-.323.2-.526,0-.647-.283a34.611,34.611,0,0,0-2.062-3.113.56.56,0,0,1-.121-.566C180.752,45.581,180.914,45.5,181.075,45.5Z" transform="translate(-120.071 -32.611)" fill="#8a8a8a"/>
            <path id="Path_4112" data-name="Path 4112" d="M187.34,127.391c-.364-.081-.485-.323-.283-.647.606-1.172,1.172-2.385,1.7-3.6a.4.4,0,0,1,.526-.283.4.4,0,0,1,.2.606,32.306,32.306,0,0,1-1.7,3.6A.438.438,0,0,1,187.34,127.391Z" transform="translate(-123.789 -78.684)" fill="#8a8a8a"/>
            <path id="Path_4113" data-name="Path 4113" d="M51.324,43.549c-.445-.081-.566-.364-.364-.687a24.8,24.8,0,0,1,2.587-3.194.405.405,0,0,1,.606-.04c.162.162.2.4.04.526-.889,1.051-1.779,2.1-2.587,3.234A1.013,1.013,0,0,1,51.324,43.549Z" transform="translate(-42.713 -29.043)" fill="#8a8a8a"/>
            <path id="Path_4114" data-name="Path 4114" d="M70.786,159.5a28.486,28.486,0,0,1,3.194,2.021.371.371,0,0,1-.081.4.386.386,0,0,1-.485.121,18.632,18.632,0,0,1-2.911-1.86c-.162-.121-.162-.283-.081-.485A.354.354,0,0,1,70.786,159.5Z" transform="translate(-54.332 -100.524)" fill="#8a8a8a"/>
            <path id="Path_4115" data-name="Path 4115" d="M34.6,151.7h4.164a15.922,15.922,0,0,1-4.164.121Z" transform="translate(-33.023 -95.878)" fill="#c8eef9"/>
            <path id="Path_4116" data-name="Path 4116" d="M168.781,31.045c-.04-.162-.04-.283-.081-.445A.323.323,0,0,1,168.781,31.045Z" transform="translate(-112.911 -23.734)" fill="#c8eef9"/>
            <path id="Path_4117" data-name="Path 4117" d="M59.762,74.3a.368.368,0,0,1-.162.323A.368.368,0,0,1,59.762,74.3Z" transform="translate(-47.917 -49.768)" fill="#c8eef9"/>
            <path id="Path_4118" data-name="Path 4118" d="M31.021,152.251c-.04.04-.081.04-.121.081C30.9,152.251,30.94,152.17,31.021,152.251Z" transform="translate(-30.819 -96.186)" fill="#c8eef9"/>
            <path id="Path_4119" data-name="Path 4119" d="M104.4,154.3h.162A.084.084,0,0,1,104.4,154.3Z" transform="translate(-74.605 -97.426)" fill="#c8eef9"/>
            <path id="Path_4120" data-name="Path 4120" d="M42.645,131.53h-8.53c-1.172,0-1.415-.283-1.415-1.415v-9.581c0-1.051.283-1.334,1.334-1.334H51.458c1.011,0,1.294.283,1.294,1.294v9.743c0,1.011-.323,1.334-1.375,1.334C48.507,131.53,45.6,131.53,42.645,131.53Zm.04-4.043a2.252,2.252,0,0,0,2.264-2.223,2.226,2.226,0,0,0-2.264-2.223,2.263,2.263,0,0,0-2.223,2.183A2.2,2.2,0,0,0,42.685,127.487Z" transform="translate(-31.891 -76.516)" fill="#fefefe"/>
            <path id="Path_4121" data-name="Path 4121" d="M80.5,126.949a1.752,1.752,0,0,0,1.577-1.9c.04-3.436,0-6.832,0-10.268a1.473,1.473,0,0,0-.081-.606c-.728-.849-.2-1.617.162-2.385.243-.526.283-1.334.768-1.577.445-.2,1.092.162,1.658.323.606.162,1.5.04,1.819.526a4.17,4.17,0,0,1,.121,1.9v11.845c0,.849-.728,1.375-.809,2.143,0,.04-.283.081-.4.081-1.617,0-3.234,0-4.811-.04Z" transform="translate(-61.164 -71.126)" fill="#57a4ff"/>
            <path id="Path_4122" data-name="Path 4122" d="M71.839,76.843a3.919,3.919,0,0,1-.728-1.5c-.2-.526-.445-.687-1.011-.485a5.972,5.972,0,0,1-6.994-1.617c-.2-.2-.4-.364-.647-.162a.4.4,0,0,0,0,.647c.283.283.2.526.04.809-.323.687-.647,1.375-1.051,2.223a8.8,8.8,0,0,1-.323-4.528A1.348,1.348,0,0,1,62.46,71.1a1.2,1.2,0,0,0,.768-.4,5.293,5.293,0,0,1,5.741-1.011A4.533,4.533,0,0,1,72,73.972,6.973,6.973,0,0,1,71.839,76.843Z" transform="translate(-48.715 -46.772)" fill="#1664ff"/>
            <path id="Path_4123" data-name="Path 4123" d="M101.241,127.059a3.47,3.47,0,0,0-3.76-.647c-.04-.121-.081-.162-.081-.243V113.435c0-.526.121-.606.606-.445a2.217,2.217,0,0,1,1.617,1.738C100.23,118.731,100.877,122.773,101.241,127.059Z" transform="translate(-71.232 -72.772)" fill="#57a4ff"/>
            <path id="Path_4124" data-name="Path 4124" d="M62.7,90c.606,0,1.051.081,1.092.768a.973.973,0,0,0,.485.647,1.952,1.952,0,0,0,2.87-1.011c.081-.243.2-.283.364-.283a.393.393,0,0,1,.445.283A1.966,1.966,0,0,0,70.745,91.5a1.137,1.137,0,0,0,.687-.849c.04-.2.04-.485.364-.445.283,0,.687-.2.768.081.081.4.081,1.011-.323,1.213a1.26,1.26,0,0,0-.566.809,3.191,3.191,0,0,1-1.7,2.183,10.053,10.053,0,0,0-1.132.606,2.527,2.527,0,0,1-2.709-.081A4.143,4.143,0,0,1,63.549,91.9c-.04-.445-.687-.283-.687-.809A3.956,3.956,0,0,0,62.7,90Z" transform="translate(-49.763 -59.121)" fill="#fafbfb"/>
            <path id="Path_4125" data-name="Path 4125" d="M68.1,102.74c1.86,1.536,3.679,1.375,5.5-.04a1.522,1.522,0,0,1-.4,1.658c-.809.849-1.536,1.7-2.345,2.628l-2.668-3.032C67.941,103.63,68.062,103.266,68.1,102.74Z" transform="translate(-52.942 -66.687)" fill="#fafbfb"/>
            <path id="Path_4126" data-name="Path 4126" d="M59.909,112.979H55.7c-.283,0-.4-.081-.4-.4v-1.213c0-.283.121-.364.4-.445.889-.2,1.819-.4,2.709-.647.243-.04.364-.04.485.2C59.181,111.281,59.545,112.09,59.909,112.979Z" transform="translate(-46.152 -71.185)" fill="#57a4ff"/>
            <path id="Path_4127" data-name="Path 4127" d="M97.974,149.36H96.236c-.4,0-.566-.081-.364-.526a2.278,2.278,0,0,1,4.164.04c.162.4.04.485-.323.445-.566.04-1.172.04-1.738.04Z" transform="translate(-70.27 -93.375)" fill="#57a4ff"/>
            <path id="Path_4128" data-name="Path 4128" d="M77.886,111.568c-.526.081-.768-.445-1.092-.768-.2-.2.081-.364.162-.485.606-.728,1.253-1.415,1.9-2.143.121-.121.243-.445.445-.2.162.2.606.323.445.687-.364.889-.768,1.779-1.132,2.668C78.452,111.69,78.21,111.528,77.886,111.568Z" transform="translate(-58.118 -69.774)" fill="#fafbfb"/>
            <path id="Path_4129" data-name="Path 4129" d="M67.575,111.587c-.323.081-.526-.121-.647-.445a17.664,17.664,0,0,0-.97-2.223c-.283-.526.121-.728.364-.93.323-.243.4.162.526.323.526.566,1.051,1.172,1.536,1.738.162.2.606.4.4.687-.243.364-.485.768-1.011.809A.3.3,0,0,1,67.575,111.587Z" transform="translate(-51.646 -69.792)" fill="#fafbfb"/>
            <path id="Path_4130" data-name="Path 4130" d="M69.591,84.478c-.647.93-.93.97-1.779.243a2.508,2.508,0,0,0-2.83.2c-.121.121-.162.4-.364.283-.283-.162,0-.364.081-.485.2-.526.364-1.253.768-1.5s.889.445,1.375.647A9.047,9.047,0,0,0,69.591,84.478Z" transform="translate(-50.833 -55.054)" fill="#fafbfb"/>
            <path id="Path_4131" data-name="Path 4131" d="M47.6,114.475a2.577,2.577,0,0,1,.889-1.213c.364-.283.93-.687,1.253-.4.243.2.081.889.081,1.375,0,.283-.283.243-.445.243Z" transform="translate(-41.565 -72.681)" fill="#57a4ff"/>
            <path id="Path_4132" data-name="Path 4132" d="M78.749,89.715c-.566.081-.849-.081-.849-.728,0-.687.4-.687.889-.687s.849.04.889.687C79.679,89.755,79.275,89.755,78.749,89.715Z" transform="translate(-58.819 -58.108)" fill="#c8eef9"/>
            <path id="Path_4133" data-name="Path 4133" d="M68.189,89.709c-.4-.04-.889.121-.889-.566,0-.647.243-.889.889-.849.485.04.809.04.849.728C69.038,89.709,68.715,89.749,68.189,89.709Z" transform="translate(-52.504 -58.102)" fill="#c8eef9"/>
            <path id="Path_4134" data-name="Path 4134" d="M60.424,151.64v.121c-1.577,0-3.153.04-4.73.04H47.73a1.2,1.2,0,0,1-.93-.2C51.409,151.64,55.936,151.64,60.424,151.64Z" transform="translate(-40.291 -95.818)" fill="#c8eef9"/>
            <path id="Path_4135" data-name="Path 4135" d="M80.9,85.734c.283-.081.445-.162.647-.2a.87.87,0,0,1,1.132.93c0,.121-.04.2-.162.2-.162,0-.2-.081-.283-.2A1.645,1.645,0,0,0,80.9,85.734Z" transform="translate(-60.606 -56.431)" fill="#c8eef9"/>
            <path id="Path_4136" data-name="Path 4136" d="M126.8,122.143V111.592c0-.97.121-1.092,1.092-1.092h16.373c.889,0,1.051.162,1.051,1.051V132.9c0,.485-.04.93-.647,1.011-.566.081-1.092.121-1.253-.647-.081-.4-.323-.809-.445-1.213-.2-.566-.647-1.132.121-1.617.162-.081.162-.4.2-.647.04-.081-.04-.243,0-.283a3.6,3.6,0,0,0,0-3.153v-.162a4.346,4.346,0,0,0-2.749-2.506h-.081a3.3,3.3,0,0,0-3.072,0c-.081.04-.2,0-.283,0a4.648,4.648,0,0,0-2.547,2.628c0,.081.04.162,0,.243a3.35,3.35,0,0,0,0,3.153c.606,1.455-.364,2.506-.687,3.719-.121.4-.323.526-.768.526-1.779-.04-3.517-.04-5.3,0-.728,0-.97-.283-.97-1.011C126.84,129.339,126.8,125.741,126.8,122.143Zm9.3-7.843h-6.792c-.323,0-.647,0-.647.4s.364.4.647.445h13.1a5.155,5.155,0,0,0,.768-.04.363.363,0,0,0,.283-.4.4.4,0,0,0-.283-.4,3.059,3.059,0,0,0-.606-.04C140.424,114.3,138.241,114.3,136.1,114.3Zm-.04,5.255h6.63c.323,0,.809.081.768-.445,0-.485-.445-.4-.768-.4h-13.26c-.323,0-.809-.04-.768.445,0,.445.445.4.768.4Zm-5.3,9.3a6,6,0,0,0,2.506.364.8.8,0,0,0,.445-.243c.2-.283.081-.687-.2-.606-.647.2-1.092-.283-1.7-.243,1.051-.849,1.334-1.415,1.011-2.1a1.045,1.045,0,0,0-1.132-.687c-.889.121-.97.889-1.092,1.577-.243-.081-.445-.4-.728-.162a.56.56,0,0,0-.121.687,1.044,1.044,0,0,1-.4,1.294.7.7,0,0,0-.243.93.992.992,0,0,0,.93.526c.445-.04.606-.323.687-.687A3.067,3.067,0,0,1,130.762,128.854Zm5.255-11.522h7.115a.372.372,0,0,0,.364-.4.354.354,0,0,0-.323-.364,3.059,3.059,0,0,0-.606-.04H129.226c-.283,0-.526.081-.526.4s.2.4.485.4h6.832Zm0,4.487h3.113c.323,0,.647-.04.647-.445s-.323-.4-.647-.4h-6.1c-.323,0-.647,0-.647.4s.323.445.647.445Zm0-8.894h3.113c.323,0,.647,0,.647-.4s-.364-.445-.647-.445h-6.1c-.323,0-.647,0-.647.445,0,.4.323.4.647.4Z" transform="translate(-87.95 -71.333)" fill="#fafbfb"/>
            <path id="Path_4137" data-name="Path 4137" d="M123.5,120.039V108.557c0-1.253.4-1.657,1.617-1.657h17.949c1.213,0,1.617.4,1.617,1.617v23a1.578,1.578,0,0,1-2.223,1.617.421.421,0,0,1-.283-.4c0-.2.2-.162.323-.162,1.334-.162,1.658-.566,1.658-1.9v-21.3c0-1.415-.485-1.94-1.9-1.94H125.8c-1.294,0-1.819.526-1.819,1.819V130.59c0,1.5.445,1.9,1.94,1.9h4.77c.162,0,.526-.2.485.243,0,.283-.243.323-.485.323h-6.024c-.809,0-1.172-.526-1.172-1.415C123.5,127.841,123.5,123.92,123.5,120.039Z" transform="translate(-85.984 -69.189)" fill="#1664ff"/>
            <path id="Path_4138" data-name="Path 4138" d="M144.4,166.268c.4-1.536,1.172-2.911,1.738-4.568a1.872,1.872,0,0,0,2.021,1.253c.687,0,.849.445.606,1.092-.445,1.132-.889,2.264-1.415,3.517-.2-.647-.4-1.172-.566-1.7s-.485-.687-.97-.364c-.445.243-.93.485-1.415.768Z" transform="translate(-98.435 -101.835)" fill="#1664ff"/>
            <path id="Path_4139" data-name="Path 4139" d="M161.949,167.3c-.606-.323-1.132-.606-1.617-.849-.445-.243-.728-.162-.889.364-.162.566-.364,1.092-.566,1.738-.4-1.051-.849-2.021-1.172-2.992a1.424,1.424,0,0,1,1.213-1.779c.566,0,.728-.081,1.374-.687C160.817,164.475,161.343,165.809,161.949,167.3Z" transform="translate(-106.322 -102.669)" fill="#1664ff"/>
            <path id="Path_4140" data-name="Path 4140" d="M150.957,152.4h3.153c.445,0,.768.121.768.606a.66.66,0,0,1-.728.647h-6.387a.675.675,0,0,1-.768-.647c-.04-.485.283-.606.728-.606Z" transform="translate(-99.979 -96.295)" fill="#1664ff"/>
            <path id="Path_4141" data-name="Path 4141" d="M151.55,144.849A3.052,3.052,0,0,0,149,146.062a2.22,2.22,0,0,1-.283.364.4.4,0,0,1-.647.04.37.37,0,0,1,.121-.566,2.16,2.16,0,0,0,1.172-1.213.474.474,0,0,1,.445-.2,1.755,1.755,0,0,0,1.334-.323,5.768,5.768,0,0,1,2.547.728,1.6,1.6,0,0,0,.889.889.492.492,0,0,1,.364.526.259.259,0,0,1-.2.283.624.624,0,0,1-.647-.283A2.807,2.807,0,0,0,151.55,144.849Z" transform="translate(-100.572 -91.372)" fill="#1664ff"/>
            <path id="Path_4142" data-name="Path 4142" d="M155.116,157.833v.081a8.677,8.677,0,0,1-2.021,1.617c-.081,0-.162-.04-.2,0-.97.768-1.9.04-2.87,0a.573.573,0,0,1-.566-.283,1.846,1.846,0,0,0-1.051-1.011.377.377,0,0,1-.243-.485c.121-.243.4-.162.606-.121.121.04.2.2.323.323a3.179,3.179,0,0,0,5.134,0,.775.775,0,0,1,.728-.364A.232.232,0,0,1,155.116,157.833Z" transform="translate(-100.661 -99.383)" fill="#1664ff"/>
            <path id="Path_4143" data-name="Path 4143" d="M152.5,148.883a2.235,2.235,0,0,1,3.355,0Z" transform="translate(-103.26 -93.748)" fill="#c8eef9"/>
            <path id="Path_4144" data-name="Path 4144" d="M152.8,157.8h3.072A2.067,2.067,0,0,1,152.8,157.8Z" transform="translate(-103.439 -99.512)" fill="#c8eef9"/>
            <path id="Path_4145" data-name="Path 4145" d="M144.4,172.9Z" transform="translate(-98.435 -108.507)" fill="#c8eef9"/>
            <path id="Path_4146" data-name="Path 4146" d="M116.334,38.03H104.409c-.606,0-.809-.121-.809-.768.04-2.87,0-5.741,0-8.611a2.7,2.7,0,0,1,2.951-2.951H126.2a2.731,2.731,0,0,1,2.951,2.992V37.3c0,.566-.121.768-.728.768-4.043-.081-8.045-.04-12.088-.04Zm-11.36-7.843v1.132c0,.323,0,.647.4.687.4,0,.4-.323.4-.647v-1.94c0-1.051.485-1.5,1.536-1.536h2.1c.283,0,.526-.121.526-.4,0-.323-.243-.4-.526-.4h-2.183a2.071,2.071,0,0,0-2.264,2.223ZM124.7,27.034h-1.294c-.283,0-.606.04-.606.4s.283.4.606.4h2.021c1.051,0,1.5.485,1.536,1.536V31.4c0,.283.04.606.445.566.364,0,.4-.323.4-.606V29.1a2.063,2.063,0,0,0-2.1-2.1A8.793,8.793,0,0,1,124.7,27.034Zm-1.779,6.711c-.445-1.253-.849-2.587-1.375-3.841a.419.419,0,0,0-.768.081c-.445,1.213-.849,2.466-1.294,3.679-.04.121-.081.243.081.323a.371.371,0,0,0,.4-.081,1.358,1.358,0,0,0,.2-.566c.081-.526.364-.687.93-.687.606,0,.97.121,1.051.768a1.253,1.253,0,0,0,.243.526c.04.081.243.081.364.04C122.924,33.987,122.964,33.866,122.924,33.745Zm-11.441-.526c-.364-1.172-.728-2.183-1.011-3.194-.081-.283-.243-.4-.485-.323-.323.081-.121.323-.04.485.364,1.092.728,2.183,1.051,3.275.081.243.081.485.445.485.323,0,.4-.243.485-.485.364-1.051.768-2.1,1.132-3.194.04-.162.4-.445,0-.606-.364-.121-.445.162-.566.445C112.211,31.117,111.887,32.087,111.483,33.219Zm5.619.809a1.33,1.33,0,0,0,1.455-.97c.162-.606-.162-1.132-.889-1.455-.243-.121-.445-.2-.687-.323a.544.544,0,0,1-.323-.606c.04-.323.283-.445.566-.526a1.7,1.7,0,0,1,.647.04c.162.04.323.162.445-.121.121-.323-.162-.323-.323-.4a1.491,1.491,0,0,0-1.86.728c-.243.647.04,1.172.889,1.536.485.2,1.132.364.889,1.092-.243.687-.849.606-1.415.445-.04,0-.081-.04-.162-.04-.162-.081-.283-.081-.364.121a.284.284,0,0,0,.162.364A2.78,2.78,0,0,0,117.1,34.028Zm-2.911-2.1V33.5c0,.2-.081.485.283.485s.323-.243.323-.445v-3.4c0-.2.04-.4-.283-.445-.364,0-.323.243-.323.445Z" transform="translate(-74.129 -20.815)" fill="#1664ff"/>
            <path id="Path_4147" data-name="Path 4147" d="M116.475,58.3h12.007c.647,0,.768.2.768.809-.04,2.911,0,5.781,0,8.692a2.76,2.76,0,0,1-2.83,2.911c-6.63.04-13.26.04-19.93,0a2.685,2.685,0,0,1-2.789-2.83V58.987c0-.526.162-.606.647-.606C108.349,58.3,112.392,58.3,116.475,58.3Zm-6.792,8.287c.121.2.243.364.526.323a.346.346,0,0,0,.283-.364,2.078,2.078,0,0,0-1.94-2.506h-1.132a2.061,2.061,0,0,0-2.1,2.264c0,.243,0,.526.283.647.323.121.445-.081.606-.323C107.419,66.587,108.551,66.587,109.683,66.587Zm18.192-2.1a4.063,4.063,0,1,0-8.126-.04,4.1,4.1,0,0,0,4.083,4.083A4.054,4.054,0,0,0,127.875,64.485Zm-18.111-2.547a1.84,1.84,0,1,0-3.679.081,1.875,1.875,0,0,0,1.9,1.779A1.812,1.812,0,0,0,109.764,61.938Zm5.175,6.024h-2.789c-.323,0-.647,0-.647.4,0,.445.364.445.647.445h5.579c.323,0,.647,0,.647-.4,0-.445-.323-.445-.647-.445Zm0-1.7h2.789c.323,0,.647,0,.647-.445,0-.364-.283-.4-.606-.4h-5.7c-.323,0-.566.081-.566.445s.283.4.606.4Zm0-5.053h2.789c.323,0,.647,0,.647-.4,0-.364-.323-.4-.606-.4h-5.66c-.283,0-.606,0-.606.4,0,.445.323.445.647.445C113.079,61.211,114.009,61.211,114.939,61.211Zm-6.953,7.56h1.9c.323,0,.647,0,.647-.445,0-.364-.323-.4-.606-.4H106c-.283,0-.606.04-.606.4s.283.445.566.445ZM113,63.717h1.132a.393.393,0,0,0,.445-.4c0-.283-.162-.4-.445-.4h-2.264a.361.361,0,0,0-.4.445c0,.283.2.364.445.364Zm3.921,0h1.051a.372.372,0,0,0,.4-.364.31.31,0,0,0-.323-.4h-2.1a.31.31,0,0,0-.323.4.372.372,0,0,0,.4.364Z" transform="translate(-74.188 -40.236)" fill="#fafbfb"/>
            <path id="Path_4148" data-name="Path 4148" d="M54.122,133.147a2.223,2.223,0,1,1,0-4.447,2.226,2.226,0,0,1,2.264,2.223A2.279,2.279,0,0,1,54.122,133.147Zm1.334-2.183a1.375,1.375,0,1,0-1.415,1.374A1.373,1.373,0,0,0,55.456,130.964Z" transform="translate(-43.328 -82.176)" fill="#8a8a8a"/>
            <path id="Path_4149" data-name="Path 4149" d="M138.839,119.9h6.468a3.06,3.06,0,0,1,.606.04.4.4,0,0,1,.283.4.362.362,0,0,1-.283.4,4.641,4.641,0,0,1-.768.04h-13.1c-.323,0-.647-.04-.647-.445s.364-.4.647-.4C134.311,119.9,136.575,119.9,138.839,119.9Z" transform="translate(-90.69 -76.933)" fill="#a8ddfd"/>
            <path id="Path_4150" data-name="Path 4150" d="M138.8,131.641h-6.63c-.323,0-.728.081-.768-.4,0-.526.445-.445.768-.445h13.26c.323,0,.728-.081.768.4,0,.526-.445.445-.768.445Z" transform="translate(-90.69 -83.419)" fill="#a8ddfd"/>
            <path id="Path_4151" data-name="Path 4151" d="M133.952,150.637c-.04.162-.04.4-.081.606-.081.364-.243.687-.687.687a.992.992,0,0,1-.93-.526.663.663,0,0,1,.243-.93.977.977,0,0,0,.4-1.294.56.56,0,0,1,.121-.687c.283-.2.485.081.728.162.121-.687.2-1.455,1.092-1.577a1.019,1.019,0,0,1,1.132.687c.323.687.04,1.213-1.011,2.1.606-.04,1.051.445,1.7.243.283-.081.4.323.2.606a.616.616,0,0,1-.445.243A5.218,5.218,0,0,1,133.952,150.637Zm.687-1.657c.323-.2.728-.283.606-.809-.04-.121-.162-.243-.283-.2C134.518,148.171,134.64,148.576,134.64,148.98Z" transform="translate(-91.14 -93.117)" fill="#a8ddfd"/>
            <path id="Path_4152" data-name="Path 4152" d="M138.751,126.209h-6.873c-.283,0-.526-.081-.485-.4,0-.323.243-.4.526-.4H145.26a3.059,3.059,0,0,1,.606.04.354.354,0,0,1,.323.364c0,.243-.121.4-.364.4h-7.075Z" transform="translate(-90.684 -80.21)" fill="#a8ddfd"/>
            <path id="Path_4153" data-name="Path 4153" d="M144.179,137.249h-3.032c-.323,0-.647-.04-.647-.445s.364-.4.647-.4h6.1c.323,0,.647,0,.647.4s-.364.445-.647.445Z" transform="translate(-96.111 -86.763)" fill="#a8ddfd"/>
            <path id="Path_4154" data-name="Path 4154" d="M144.179,115.249h-3.032c-.323,0-.647,0-.647-.4s.323-.445.647-.445h6.1c.323,0,.647,0,.647.445,0,.4-.323.4-.647.4Z" transform="translate(-96.111 -73.657)" fill="#a8ddfd"/>
            <path id="Path_4155" data-name="Path 4155" d="M107,32.213v-.889a2.071,2.071,0,0,1,2.264-2.223h2.183c.283,0,.526.081.526.4s-.243.4-.526.4h-2.1c-1.051,0-1.5.485-1.536,1.536v1.94c0,.323,0,.647-.4.647s-.4-.364-.4-.687Z" transform="translate(-76.154 -22.841)" fill="#fff"/>
            <path id="Path_4156" data-name="Path 4156" d="M152.94,29h.97a2.039,2.039,0,0,1,2.1,2.1v2.264c0,.283-.04.606-.4.606s-.445-.283-.445-.566V31.385c0-1.051-.485-1.5-1.536-1.536h-2.021c-.283,0-.606-.04-.606-.4s.323-.4.606-.4C152.092,29,152.536,29,152.94,29Z" transform="translate(-102.367 -22.781)" fill="#fff"/>
            <path id="Path_4157" data-name="Path 4157" d="M146.343,39.6q.061.243-.121.243a1,1,0,0,1-.364-.04,1.532,1.532,0,0,1-.243-.526c-.081-.647-.445-.768-1.051-.768-.566,0-.849.162-.93.687a2.337,2.337,0,0,1-.2.566.371.371,0,0,1-.4.081c-.162-.04-.121-.2-.081-.323.4-1.213.809-2.466,1.294-3.679a.41.41,0,0,1,.768-.081C145.494,37.009,145.938,38.3,146.343,39.6Zm-1.7-3.4c-.162.526-.283.93-.445,1.334-.121.364-.121.526.323.526.566,0,.809-.081.526-.687A9.646,9.646,0,0,1,144.645,36.2Z" transform="translate(-97.547 -26.667)" fill="#f5f5f5"/>
            <path id="Path_4158" data-name="Path 4158" d="M120.711,39.134c.4-1.132.728-2.1,1.051-3.032.081-.283.2-.566.566-.445.364.162.04.445,0,.606-.364,1.051-.768,2.143-1.132,3.194-.081.243-.162.485-.485.485-.364,0-.364-.283-.445-.485-.364-1.092-.728-2.183-1.051-3.275-.04-.162-.283-.4.04-.485.243-.081.4.04.485.323C119.983,36.951,120.347,37.962,120.711,39.134Z" transform="translate(-83.357 -26.73)" fill="#f5f5f5"/>
            <path id="Path_4159" data-name="Path 4159" d="M135.4,39.695a2.175,2.175,0,0,1-.889-.162c-.162-.081-.243-.162-.162-.364.04-.2.2-.2.364-.121.04.04.081.04.162.04.566.162,1.172.243,1.415-.445s-.4-.849-.889-1.092c-.849-.4-1.172-.889-.889-1.536a1.533,1.533,0,0,1,1.86-.728c.162.04.445.081.323.4-.081.283-.283.162-.445.121a.9.9,0,0,0-.647-.04.693.693,0,0,0-.566.526.544.544,0,0,0,.323.606c.2.121.445.2.687.323.728.323,1.051.849.889,1.455A1.448,1.448,0,0,1,135.4,39.695Z" transform="translate(-92.431 -26.482)" fill="#f5f5f5"/>
            <path id="Path_4160" data-name="Path 4160" d="M129.8,37.877V36.139c0-.2-.04-.485.323-.445.283,0,.283.243.283.445v3.4c0,.2.04.485-.323.445-.364,0-.243-.283-.283-.485Z" transform="translate(-89.735 -26.767)" fill="#f5f5f5"/>
            <path id="Path_4161" data-name="Path 4161" d="M151.466,67.642a4.072,4.072,0,0,1-4.083,4.083,4.124,4.124,0,0,1-4.083-4.083,4.063,4.063,0,0,1,4.083-4.043A3.964,3.964,0,0,1,151.466,67.642Zm-4.043,3.194a3.214,3.214,0,1,0-3.234-3.194A3.159,3.159,0,0,0,147.424,70.835Z" transform="translate(-97.779 -43.393)" fill="#a8ddfd"/>
            <path id="Path_4162" data-name="Path 4162" d="M113.277,64.619a1.813,1.813,0,0,1-1.779,1.86,1.84,1.84,0,1,1-.081-3.679A1.821,1.821,0,0,1,113.277,64.619Zm-1.9.97a1.029,1.029,0,0,0,1.051-.97.949.949,0,0,0-.97-.93c-.566.04-.889.323-.889.889A.872.872,0,0,0,111.377,65.589Z" transform="translate(-77.701 -42.917)" fill="#8a8a8a"/>
            <path id="Path_4163" data-name="Path 4163" d="M108.687,74.987c-.162.2-.323.4-.606.323-.283-.121-.283-.364-.283-.647a2.039,2.039,0,0,1,2.1-2.264h1.132a2.036,2.036,0,0,1,1.94,2.506c-.04.2-.081.323-.283.364-.283.04-.4-.081-.526-.323-.081-1.5-.283-1.7-1.981-1.658C108.97,73.33,108.728,73.613,108.687,74.987Z" transform="translate(-76.629 -48.636)" fill="#8a8a8a"/>
            <path id="Path_4164" data-name="Path 4164" d="M126.436,82.2h2.789c.323,0,.647,0,.647.445s-.364.4-.647.4h-5.579c-.323,0-.647,0-.647-.445,0-.4.364-.4.647-.4Z" transform="translate(-85.686 -54.474)" fill="#8a8a8a"/>
            <path id="Path_4165" data-name="Path 4165" d="M126.377,76.749h-2.87c-.283,0-.566-.04-.606-.4,0-.364.243-.445.566-.445h5.7c.283,0,.606.04.606.4,0,.4-.323.445-.647.445Z" transform="translate(-85.627 -50.721)" fill="#8a8a8a"/>
            <path id="Path_4166" data-name="Path 4166" d="M110,76.357c.04-1.375.283-1.657,1.455-1.657,1.7,0,1.9.162,1.981,1.657Z" transform="translate(-77.942 -50.006)" fill="#c8eef9"/>
            <path id="Path_4167" data-name="Path 4167" d="M126.436,64.249h-2.789c-.323,0-.647,0-.647-.445,0-.364.323-.4.606-.4h5.66c.283,0,.606.04.606.4,0,.445-.323.4-.647.4C128.3,64.249,127.366,64.249,126.436,64.249Z" transform="translate(-85.686 -43.274)" fill="#8a8a8a"/>
            <path id="Path_4168" data-name="Path 4168" d="M110.482,82.949h-2.021c-.283,0-.606-.081-.566-.445,0-.364.283-.4.606-.4h3.921c.283,0,.606,0,.606.4,0,.445-.323.445-.647.445a14.9,14.9,0,0,1-1.9,0Z" transform="translate(-76.685 -54.415)" fill="#8a8a8a"/>
            <path id="Path_4169" data-name="Path 4169" d="M124.5,70.509h-1.051c-.243,0-.445-.121-.445-.364a.416.416,0,0,1,.4-.445h2.264a.406.406,0,1,1,0,.809Z" transform="translate(-85.686 -47.028)" fill="#8a8a8a"/>
            <path id="Path_4170" data-name="Path 4170" d="M134.484,70.523H133.6a.372.372,0,0,1-.4-.364.325.325,0,0,1,.323-.4,18.233,18.233,0,0,1,2.1,0,.322.322,0,0,1,.323.4.372.372,0,0,1-.4.364Z" transform="translate(-91.753 -47.042)" fill="#8a8a8a"/>
            <path id="Path_4171" data-name="Path 4171" d="M56.649,132.215a1.372,1.372,0,0,1-1.415,1.374,1.4,1.4,0,0,1,.04-2.789A1.372,1.372,0,0,1,56.649,132.215Z" transform="translate(-44.521 -83.427)" fill="#1664ff"/>
            <path id="Path_4172" data-name="Path 4172" d="M138.278,150.3c0-.4-.121-.809.323-1.011.121-.04.243.081.283.2C139.005,150.016,138.6,150.1,138.278,150.3Z" transform="translate(-94.779 -94.436)" fill="#c8eef9"/>
            <path id="Path_4173" data-name="Path 4173" d="M146.4,37.2a9.649,9.649,0,0,0,.4,1.172c.283.606.04.687-.526.687-.485,0-.485-.162-.323-.526C146.079,38.13,146.2,37.726,146.4,37.2Z" transform="translate(-99.305 -27.666)" fill="#1664ff"/>
            <path id="Path_4174" data-name="Path 4174" d="M148.733,71.968a3.168,3.168,0,0,1-3.234-3.234,3.234,3.234,0,1,1,3.234,3.234Zm-.4-1.7a.838.838,0,0,0,.243-.081c.768-.768,1.536-1.5,2.264-2.264a.345.345,0,0,0,0-.526.405.405,0,0,0-.606,0c-.323.283-.606.606-.93.889-.283.283-.526.687-.849.809-.526.2-.606-.445-.93-.647a.516.516,0,0,0-.485-.081.354.354,0,0,0-.2.364C146.833,69.017,148.005,70.27,148.329,70.27Z" transform="translate(-99.089 -44.525)" fill="#1664ff"/>
            <path id="Path_4175" data-name="Path 4175" d="M112.8,66.956a.935.935,0,0,1,.081-1.86.949.949,0,0,1,.97.93A1.026,1.026,0,0,1,112.8,66.956Z" transform="translate(-79.129 -44.284)" fill="#c8eef9"/>
            <path id="Path_4176" data-name="Path 4176" d="M150.236,72.869a4,4,0,0,1-1.536-1.536.425.425,0,0,1,.2-.364.535.535,0,0,1,.485.081c.364.162.445.849.93.647a3.977,3.977,0,0,0,.849-.809c.283-.283.606-.606.93-.889a.405.405,0,0,1,.606,0,.345.345,0,0,1,0,.526l-2.264,2.264A.427.427,0,0,1,150.236,72.869Z" transform="translate(-100.996 -47.124)" fill="#fff"/>
          </g>
        </g>
        <g id="Group_831" data-name="Group 831" transform="translate(963.19 253.54)">
          <g id="external">
            <circle id="Ellipse_33" data-name="Ellipse 33" cx="21.86" cy="21.86" r="21.86" transform="translate(14.862 14.86)" fill="#a8ddfd"/>
            <circle id="Ellipse_34" data-name="Ellipse 34" cx="11.841" cy="11.841" r="11.841" transform="translate(24.881 24.879)" fill="#57a4ff"/>
            <circle id="Ellipse_35" data-name="Ellipse 35" cx="3.643" cy="3.643" r="3.643" transform="translate(33.078 33.076)" fill="#1664ff"/>
            <path id="Path_4177" data-name="Path 4177" d="M158.741,268.615a13.406,13.406,0,0,0,2.926,4.358l1.728-1.733a10.974,10.974,0,0,1-2.4-3.567Z" transform="translate(-134.454 -226.719)" fill="#8a8a8a"/>
            <path id="Path_4178" data-name="Path 4178" d="M207.349,306.572l-.935,2.263a13.394,13.394,0,0,0,5.139,1.015h.012l-.012-2.448A10.941,10.941,0,0,1,207.349,306.572Z" transform="translate(-174.833 -259.666)" fill="#8a8a8a"/>
            <path id="Path_4179" data-name="Path 4179" d="M243.976,155.267l.93-2.264A13.384,13.384,0,0,0,239.794,152h-.037l.037,2.448A10.949,10.949,0,0,1,243.976,155.267Z" transform="translate(-203.074 -128.742)" fill="#8a8a8a"/>
            <path id="Path_4180" data-name="Path 4180" d="M155.272,207.434l-2.264-.932a13.375,13.375,0,0,0-1.01,5.125v.025l2.448-.025a10.941,10.941,0,0,1,.826-4.193Z" transform="translate(-128.742 -174.907)" fill="#8a8a8a"/>
            <path id="Path_4181" data-name="Path 4181" d="M182.916,161.034l-.944-2.259a13.414,13.414,0,0,0-4.356,2.931l1.736,1.726a10.962,10.962,0,0,1,3.564-2.4Z" transform="translate(-150.441 -134.482)" fill="#8a8a8a"/>
            <path id="Path_4182" data-name="Path 4182" d="M306.546,243.934l2.262.937a13.376,13.376,0,0,0,1.021-5.151v-.05l-2.448.05A10.949,10.949,0,0,1,306.546,243.934Z" transform="translate(-259.645 -203)" fill="#8a8a8a"/>
            <path id="Path_4183" data-name="Path 4183" d="M292.452,177.557l-1.726,1.737a10.979,10.979,0,0,1,2.4,3.562l2.257-.947A13.407,13.407,0,0,0,292.452,177.557Z" transform="translate(-246.245 -150.391)" fill="#8a8a8a"/>
            <path id="Path_4184" data-name="Path 4184" d="M267.608,293.276l.94,2.26a13.4,13.4,0,0,0,4.362-2.923l-1.731-1.73A10.988,10.988,0,0,1,267.608,293.276Z" transform="translate(-226.664 -246.379)" fill="#8a8a8a"/>
            <path id="Path_4185" data-name="Path 4185" d="M73.2,35.985l-3.672-4.9-1.958,1.469,2.2,2.937H59.915a23.128,23.128,0,0,0-5.933-14.306l6.9-6.9.326,2.979L63.642,17l-.6-5.515A1.224,1.224,0,0,0,61.954,10.4l-5.515-.6-.268,2.434,2.979.327-6.9,6.9a23.127,23.127,0,0,0-14.306-5.933V3.671l2.938,2.2,1.468-1.958L37.455.244a1.223,1.223,0,0,0-1.468,0l-4.9,3.672,1.468,1.958,2.938-2.2v9.854a23.128,23.128,0,0,0-14.306,5.933l-6.9-6.9,2.979-.327L17,9.8l-5.515.6A1.224,1.224,0,0,0,10.4,11.487L9.8,17l2.434.267.326-2.979,6.9,6.9A23.127,23.127,0,0,0,13.527,35.5H3.673l2.2-2.937L3.918,31.089l-3.672,4.9a1.225,1.225,0,0,0,0,1.469l3.672,4.9,1.958-1.469-2.2-2.937h9.854A23.128,23.128,0,0,0,19.46,52.25l-6.973,6.973-.519-3.635-2.424.347.865,6.058a1.225,1.225,0,0,0,1.039,1.038l6.058.866.347-2.423-3.635-.52,6.973-6.973A23.127,23.127,0,0,0,35.5,59.913v9.854l-2.938-2.2-1.468,1.958,4.9,3.672a1.221,1.221,0,0,0,1.468,0l4.9-3.672-1.468-1.958-2.938,2.2V59.913A23.128,23.128,0,0,0,52.251,53.98l6.9,6.9-2.979.327.268,2.434,5.515-.6a1.224,1.224,0,0,0,1.083-1.084l.6-5.515-2.434-.267-.326,2.979-6.9-6.9a23.127,23.127,0,0,0,5.933-14.306h9.854l-2.2,2.937,1.958,1.469,3.672-4.9a1.225,1.225,0,0,0,0-1.469ZM36.721,57.527A20.808,20.808,0,1,1,57.529,36.719,20.808,20.808,0,0,1,36.721,57.527Z" transform="translate(-0.001 0.001)" fill="#1664ff"/>
            <path id="Path_4186" data-name="Path 4186" d="M212.9,208a4.9,4.9,0,1,0,4.9,4.9A4.9,4.9,0,0,0,212.9,208Zm0,7.344a2.448,2.448,0,1,1,2.448-2.448A2.448,2.448,0,0,1,212.9,215.342Z" transform="translate(-176.175 -176.174)" fill="#8a8a8a"/>
          </g>
        </g>
      </g>
    </g>
  </g>
</svg>
