<svg xmlns="http://www.w3.org/2000/svg" viewBox="0 0 1362.007 326.979">
  <g id="slideno2" transform="translate(89.004 3338)">
    <g id="Group_832" data-name="Group 832" transform="translate(-12.16 -3338)">
      <g id="سنهمم" transform="translate(0 0)">
        <path id="Path_4050" data-name="Path 4050" d="M99.949,67.34c4.679,5.9,5.74,14.469.786,21.271a17.01,17.01,0,0,0-3.185,7.9,13.731,13.731,0,0,0,.865,6.527,6.364,6.364,0,0,1,.236.668c-5.74,2.241-11.441,4.482-17.221,6.763l-.354-.708c-.315-.668-.629-1.337-.983-1.966-1.927-3.3-4.836-4.443-8.611-3.617a11.331,11.331,0,0,1-3.46.039c-1.18-.118-1.533-.826-1.062-1.927a3.891,3.891,0,0,0-.55-4.05.789.789,0,0,1-.039-.668c.59-1.415.629-1.415-.55-2.438a1.55,1.55,0,0,1-.629-1.573c.079-.393.039-.786.079-1.18.039-1.022-.2-1.258-1.219-1.376a7.4,7.4,0,0,1-1.3-.2c-.55-.118-.786-.393-.472-.983.708-1.376,1.337-2.831,2.123-4.168a7.153,7.153,0,0,0,.708-5.937,11.2,11.2,0,0,1,.472-7.156A19.28,19.28,0,0,1,75.493,61.6c1.769,2.28,3.5,4.561,5.269,6.841a4.118,4.118,0,0,0-.432.315,11.419,11.419,0,0,0-1.887,17.85.8.8,0,0,1,.2,1.062c-.826,1.887-1.612,3.814-2.4,5.7a3.651,3.651,0,0,0,1.848,4.915A3.755,3.755,0,0,0,83,96.2c.826-1.927,1.612-3.892,2.4-5.819a.627.627,0,0,1,.708-.511A11.372,11.372,0,0,0,96.332,72.963a.826.826,0,0,1,.039-1.022C97.59,70.407,98.73,68.874,99.949,67.34Z" transform="translate(-62.142 -46.541)" fill="#1664ff"/>
        <path id="Path_4051" data-name="Path 4051" d="M95.7,52.4h29.134c-3.224,4.246-6.409,8.453-9.593,12.66-.629-.511-1.219-1.022-1.848-1.455a11.192,11.192,0,0,0-9.869-1.651.877.877,0,0,1-.708-.157l-7.077-9.2A.526.526,0,0,0,95.7,52.4Z" transform="translate(-82.506 -40.959)" fill="#a8ddfd"/>
        <path id="Path_4052" data-name="Path 4052" d="M109.3,99.393a9.4,9.4,0,1,1,9.358-9.24A9.4,9.4,0,0,1,109.3,99.393Zm0-2.359A7.018,7.018,0,1,0,109.336,83a7.165,7.165,0,0,0-7.116,7.116A7.041,7.041,0,0,0,109.3,97.034Z" transform="translate(-85.054 -58.071)" fill="#8a8a8a"/>
        <path id="Path_4053" data-name="Path 4053" d="M105.017,129.2c1.022.432,1.966.865,2.988,1.3-.59,1.455-1.219,2.949-1.809,4.443-.2.511-.393,1.022-.629,1.494a1.791,1.791,0,0,1-2.28.944,1.59,1.59,0,0,1-.747-2.2C103.327,133.21,104.152,131.245,105.017,129.2Z" transform="translate(-86.554 -87.563)" fill="#8a8a8a"/>
        <path id="Path_4054" data-name="Path 4054" d="M102.328,36.766H94.7c1.258-2.2,2.477-4.325,3.774-6.566C99.772,32.441,101.03,34.564,102.328,36.766Z" transform="translate(-81.899 -27.487)" fill="#a8ddfd"/>
        <path id="Path_4055" data-name="Path 4055" d="M130.767,36.766H123.1c1.258-2.2,2.477-4.325,3.774-6.566C128.172,32.4,129.43,34.564,130.767,36.766Z" transform="translate(-99.133 -27.487)" fill="#a8ddfd"/>
        <path id="Path_4056" data-name="Path 4056" d="M159.067,36.766H151.4c1.258-2.2,2.477-4.325,3.774-6.566C156.511,32.4,157.769,34.564,159.067,36.766Z" transform="translate(-116.306 -27.487)" fill="#a8ddfd"/>
        <path id="Path_4057" data-name="Path 4057" d="M144.928,28.1c-1.3,2.162-2.556,4.246-3.853,6.409-1.258-2.162-2.477-4.246-3.774-6.409Z" transform="translate(-107.75 -26.213)" fill="#57a4ff"/>
        <path id="Path_4058" data-name="Path 4058" d="M112.735,34.509c-1.219-2.084-2.4-4.089-3.539-6.055a1.723,1.723,0,0,0-.2-.354h7.588C115.291,30.262,114.033,32.346,112.735,34.509Z" transform="translate(-90.576 -26.213)" fill="#57a4ff"/>
        <path id="Path_4059" data-name="Path 4059" d="M186.673,48.92c-.511,0-.983.039-1.494,0a.971.971,0,0,1-.983-.983.96.96,0,0,1,1.022-.983q1.533-.059,3.067,0a.984.984,0,1,1,0,1.966h-1.612Z" transform="translate(-136.206 -37.636)" fill="#57a4ff"/>
        <path id="Path_4060" data-name="Path 4060" d="M72.156,47.2H73.65a.976.976,0,0,1,1.022.944,1.015,1.015,0,0,1-1.022,1.022q-1.533.059-3.067,0a.95.95,0,0,1-.983-.983.973.973,0,0,1,.983-.983h1.573Z" transform="translate(-66.668 -37.803)" fill="#57a4ff"/>
        <path id="Path_4061" data-name="Path 4061" d="M180.947,26.9a6.285,6.285,0,0,1-.865-.944.738.738,0,0,1,.432-1.022c1.022-.472,2.045-.9,3.106-1.337.432-.2.786.079,1.022.472s.315.9-.079,1.1C183.463,25.8,182.245,26.312,180.947,26.9Z" transform="translate(-133.664 -23.442)" fill="#57a4ff"/>
        <path id="Path_4062" data-name="Path 4062" d="M184.879,69.459a1,1,0,0,1-1.337,1.062,31.594,31.594,0,0,1-2.949-1.258.877.877,0,0,1-.432-1.219.809.809,0,0,1,1.1-.55c1.062.393,2.123.865,3.145,1.337C184.683,68.988,184.8,69.341,184.879,69.459Z" transform="translate(-133.704 -50.076)" fill="#57a4ff"/>
        <path id="Path_4063" data-name="Path 4063" d="M75.189,23.457a2.254,2.254,0,0,1,.55.157c.826.354,1.691.708,2.516,1.062a.973.973,0,1,1-.786,1.769c-.9-.354-1.809-.747-2.674-1.14a.88.88,0,0,1-.511-1.18c.118-.315.511-.55.747-.826C75.071,23.379,75.149,23.418,75.189,23.457Z" transform="translate(-69.465 -23.3)" fill="#57a4ff"/>
        <path id="Path_4064" data-name="Path 4064" d="M112.877,100.675a7,7,0,0,1-7.077-6.959,7.058,7.058,0,1,1,14.115,0A7.04,7.04,0,0,1,112.877,100.675Zm4.954-7.038a5.033,5.033,0,1,0-10.065,0,5.162,5.162,0,0,0,5.072,5.072A5.043,5.043,0,0,0,117.831,93.637Z" transform="translate(-88.635 -61.711)" fill="#fff"/>
        <path id="Path_4065" data-name="Path 4065" d="M120.865,96.611a4.984,4.984,0,0,1-4.993,5.033,5.073,5.073,0,1,1,4.993-5.033Z" transform="translate(-91.668 -64.685)" fill="#1664ff"/>
      </g>
    </g>
    <g id="Group_833" data-name="Group 833" transform="translate(301 -3089.5)">
      <g id="man_power-01" data-name="man power-01" transform="translate(0 0)">
        <path id="Path_4039" data-name="Path 4039" d="M121.142,82.618c-.861,0-1.454.054-2.1,0-1.023-.108-1.4.269-1.508,1.346a8.586,8.586,0,0,1-1.077,3.5c-1.184,1.831-.808,2.907,1.077,3.715a6.582,6.582,0,0,1,1.023.646c.538-.485.162-1.131.377-1.561a1.277,1.277,0,0,1,1.292-.861c.592.054.915.431,1.077,1.077.754,3.177-.054,4.846-3.069,6.03-.808.323-1.561.7-2.207-.215-.431-.646-.108-1.184,1.131-2.1-.538-.915-1.615-1.184-2.369-1.884s-1.346-.485-2.1.162a10.221,10.221,0,0,1-5.438,2.692c-1.723.215-2.315.969-2.046,2.638a12.972,12.972,0,0,1,0,2.046c.592.215.861-.269,1.292-.431a1.172,1.172,0,0,1,1.615.485,1.234,1.234,0,0,1-.215,1.507c-1.884,2.207-4.092,2.53-6.515.861-.7-.485-1.723-.861-1.184-2.046.592-1.292,1.615-.485,2.53-.269,0-.323.054-.592.054-.861.054-3.177.054-3.177-2.907-4.2a3,3,0,0,1-1.131-.485c-2.315-1.831-4.307-1.346-6.084.969.377.215.915.377,1.292.646a1.06,1.06,0,0,1,.431,1.454,1.375,1.375,0,0,1-1.346.808A4.5,4.5,0,0,1,88.354,93.6c0-.861-.323-1.938.915-2.207,1.346-.323,1.454.808,1.669,1.723.162-.054.323-.054.431-.108,2.423-1.723,2.423-1.723.969-4.146a9.1,9.1,0,0,1-1.561-3.984c-.108-1.938-.969-2.638-2.853-2.261a6.081,6.081,0,0,1-1.4,0c-.269.754.377,1.023.485,1.561a1.233,1.233,0,0,1-1.992,1.238,4.638,4.638,0,0,1-1.184-6.353c.538-.808.915-2.154,2.261-1.507,1.184.538.485,1.615.162,2.584a11.98,11.98,0,0,1,1.4,0c2.046.377,3.23-.269,3.446-2.477a7.556,7.556,0,0,1,1.023-2.477c1.346-2.477,1.346-2.423-1.077-4.2-.377.808-.592,1.992-1.884,1.454-1.023-.431-.754-1.238-.592-2.1.646-3.392.969-3.715,4.684-4.146.808-.108,1.561-.108,1.777.915.162.808-.323,1.292-1.077,1.508-.269.108-.592.108-.969.215,1.938,2.53,1.938,2.477,4.307,1.184a16.81,16.81,0,0,1,2.261-.969c3.23-1.131,3.23-1.131,3.123-4.63-.431-.431-.7.108-1.023.162a1.226,1.226,0,0,1-1.507-.7c-.269-.646.054-1.023.431-1.454a4.751,4.751,0,0,1,7.376.323,1.23,1.23,0,0,1,.162,1.507,1.044,1.044,0,0,1-1.4.431c-.431-.162-.808-.377-1.292-.592a4.476,4.476,0,0,0-.108.7c-.108,3.123-.054,3.123,2.853,3.984a11.57,11.57,0,0,1,1.723.7c3.069,1.4,3.069,1.4,5.33-1.4-.915-.323-1.992-.592-1.561-1.831.377-1.184,1.346-.861,2.261-.7,3.069.592,4.253,2.1,4.092,5.222-.054.592-.162,1.077-.861,1.238a1.093,1.093,0,0,1-1.4-.592,13.475,13.475,0,0,1-.485-1.346c-.431-.054-.538.323-.808.485-1.831,1.238-2.315,2.584-.538,4.361A4.009,4.009,0,0,1,117,77.342c.323,2.584,1.723,3.284,4.092,2.584.215-.431-.377-.808-.323-1.238.108-1.077.861-1.831,1.777-1.131,1.184.915,2.423,2.315,2.315,3.715a6.04,6.04,0,0,1-2.692,4.2c-.754.538-1.615-.054-1.561-1.184C120.55,83.856,120.873,83.372,121.142,82.618Z" transform="translate(-66.979 -44.823)" fill="#1664ff"/>
        <path id="Path_4040" data-name="Path 4040" d="M116.368,141.9a7.262,7.262,0,0,1,7.376,7.268,7.322,7.322,0,1,1-7.376-7.268Z" transform="translate(-79.003 -82.246)" fill="#8a8a8a"/>
        <path id="Path_4041" data-name="Path 4041" d="M60.468,88.3a7.262,7.262,0,0,1,7.322,7.322,7.3,7.3,0,0,1-14.59.054A7.262,7.262,0,0,1,60.468,88.3Z" transform="translate(-53.199 -57.504)" fill="#8a8a8a"/>
        <path id="Path_4042" data-name="Path 4042" d="M76.776,125.8a7.3,7.3,0,0,1,7.268,7.376,7.413,7.413,0,0,1-7.484,7.214,7.3,7.3,0,0,1,.215-14.59Z" transform="translate(-60.677 -74.814)" fill="#a8ddfd"/>
        <path id="Path_4043" data-name="Path 4043" d="M164.1,91.86a7.245,7.245,0,1,1,14.483.377,7.173,7.173,0,0,1-7.376,7A7.1,7.1,0,0,1,164.1,91.86Z" transform="translate(-104.391 -55.842)" fill="#8a8a8a"/>
        <path id="Path_4044" data-name="Path 4044" d="M115.358,31.1a7.33,7.33,0,0,1,7.322,7.322,7.242,7.242,0,1,1-7.322-7.322Z" transform="translate(-78.586 -31.1)" fill="#8a8a8a"/>
        <path id="Path_4045" data-name="Path 4045" d="M155.122,61.69a7.183,7.183,0,0,1-7.322-7.268,7.3,7.3,0,1,1,7.322,7.268Z" transform="translate(-96.867 -38.486)" fill="#a8ddfd"/>
        <path id="Path_4046" data-name="Path 4046" d="M82.29,56.212a7.366,7.366,0,0,1-7.214,7.43A7.458,7.458,0,0,1,67.7,56.266a7.3,7.3,0,0,1,14.59-.054Z" transform="translate(-59.893 -39.361)" fill="#a8ddfd"/>
        <path id="Path_4047" data-name="Path 4047" d="M151.8,129.468a7.269,7.269,0,1,1,7.322,7.268A7.216,7.216,0,0,1,151.8,129.468Z" transform="translate(-98.714 -73.152)" fill="#a8ddfd"/>
        <path id="Path_4048" data-name="Path 4048" d="M119.466,99.154a8.019,8.019,0,0,0-3.177-4.415c-1.4-.861-2.746-1.615-3.446.808-.808-.485-.646-1.938-1.723-1.723a5.9,5.9,0,0,0-2.261.915,7.264,7.264,0,0,0-3.123,4.2c-2.853-1.131-4.953-6.515-4.253-10.283a11.418,11.418,0,0,1,9.691-9.314A11.239,11.239,0,0,1,122.8,86.018C124.8,90.594,123.558,95.655,119.466,99.154Z" transform="translate(-75.425 -53.337)" fill="#fefefe"/>
        <path id="Path_4049" data-name="Path 4049" d="M122.821,88.906a5.062,5.062,0,1,1-5.169-5.007A5,5,0,0,1,122.821,88.906Z" transform="translate(-80.664 -55.472)" fill="#57a4ff"/>
      </g>
    </g>
    <g id="Group_836" data-name="Group 836" transform="translate(636 -3328.915)">
      <g id="App" transform="translate(0 0)">
        <path id="Path_4034" data-name="Path 4034" d="M135.439,101.609c.88-.528,1.937-1.629,3.169-1.849,1.629-.308,2.509,1.056,3.037,2.6,1.232,3.521,2.6,7,3.829,10.52,2.245,6.382.528,12.677-4.534,16.55a14.393,14.393,0,0,1-17.386-.088c-3.125-2.289-6.118-4.754-9.111-7.219-1.893-1.541-2.157-3.609-.836-5.194,1.276-1.541,3.3-1.629,5.282-.176a11.208,11.208,0,0,0,2.905,1.8c-1.541-4.226-3.081-8.5-4.622-12.721-1.629-4.446-3.3-8.935-4.886-13.381-.748-2.069-.176-3.653,1.409-4.27,1.849-.7,3.3.088,4.138,2.377,1.232,3.345,2.465,6.69,3.521,9.551,1.364-.7,2.817-2.113,3.961-1.937,1.32.22,2.333,1.893,3.213,2.685.924-.572,2.289-2.069,3.3-1.893C133.194,99.232,134.382,100.772,135.439,101.609Z" transform="translate(-96.088 -56.228)" fill="#1664ff"/>
        <path id="Path_4035" data-name="Path 4035" d="M78.893,74.573H91.306c-.308,1.849-1.012,3.7-.7,5.326.308,1.585,1.673,2.905,2.729,4.666H89.9c-2.993,0-6.03.044-9.023-.044a4.665,4.665,0,0,1-4.886-4.4A22.253,22.253,0,0,1,75.9,77.7V22.5c0-5.106,1.453-6.6,6.47-6.6H108.12c3.653,0,5.546,1.717,5.59,5.282.044,11.532,0,23.02,0,34.553,0,.22-.088.44-.132.792-.836-.132-1.629-.264-2.641-.44V26.024H78.805C78.893,42.178,78.893,58.243,78.893,74.573ZM95,21.974h0c1.629-.044,3.213.044,4.842-.088.4-.044.748-.66,1.144-1.012-.4-.352-.748-1.012-1.144-1.012-2.993-.088-5.986-.088-9.023,0-.44,0-.836.748-1.276,1.144.44.308.836.88,1.276.924C92.23,22.062,93.594,21.974,95,21.974Z" transform="translate(-75.9 -15.9)" fill="#8a8a8a"/>
        <path id="Path_4036" data-name="Path 4036" d="M101.515,91.582a12.5,12.5,0,0,1-11.62-12.06,12.807,12.807,0,0,1,11.576-13.381c9.2-.748,16.33,7.7,13.733,16.242-.352,1.188-.748,1.937-2.069.836,1.5-4.71.836-8.979-2.905-12.457a10.85,10.85,0,0,0-12.236-1.8A11.079,11.079,0,0,0,91.787,79.7a11.251,11.251,0,0,0,7.439,9.728,14.1,14.1,0,0,1,2.685,1.629A4.129,4.129,0,0,0,101.515,91.582Z" transform="translate(-83.732 -44.001)" fill="#a8ddfd"/>
        <path id="Path_4037" data-name="Path 4037" d="M105.783,92.251A7.935,7.935,0,0,1,100.677,81.6a8.345,8.345,0,0,1,11.268-4.534c4.4,1.893,6.118,7.131,3.213,11.62a13.947,13.947,0,0,1,.22-2.333,7.157,7.157,0,0,0-3.7-7.967,6.916,6.916,0,0,0-8.275,1.409,6.817,6.817,0,0,0-1.012,8.5,17.1,17.1,0,0,0,1.893,2.113C104.727,90.887,105.079,91.415,105.783,92.251Z" transform="translate(-89.453 -49.732)" fill="#1664ff"/>
        <path id="Path_4038" data-name="Path 4038" d="M112.358,26.929c-1.409,0-2.773.088-4.182-.044-.44-.044-.836-.616-1.276-.924.44-.4.836-1.144,1.276-1.144,2.993-.088,5.986-.088,9.023,0,.4,0,.748.66,1.144,1.012-.4.352-.748,1.012-1.144,1.012-1.629.132-3.213.088-4.842.088Z" transform="translate(-93.255 -20.855)" fill="#fff"/>
      </g>
    </g>
    <g id="Group_837" data-name="Group 837" transform="translate(954 -3075.5)">
      <g id="_93-letter-630x200-01" data-name="93-letter-630x200-01" transform="translate(0 0)">
        <path id="Path_4027" data-name="Path 4027" d="M140.411,53.909a28.7,28.7,0,0,0,5.727,4.109c4.284,2.317,8.568,4.5,12.9,6.688a21.17,21.17,0,0,0,2.361.743.63.63,0,0,1,.393.481V79.22a.338.338,0,0,1-.044.131c-.175-.087-.393-.175-.568-.262-2.841-1.268-5.683-2.579-8.524-3.8a9.655,9.655,0,0,0-4.459-.656,29.2,29.2,0,0,1-4.371.087,18.75,18.75,0,0,1-5.683-1.617,20.833,20.833,0,0,0-2.885-1.137,16.173,16.173,0,0,1,1.224,1.224,3.064,3.064,0,0,1,.787,2.885c-.219.743-.568,1.4-1.443,1.486a1.466,1.466,0,0,1-1.049-.262c-1.268-1.049-2.448-2.1-3.672-3.191a2.962,2.962,0,0,1-.612-1.005c-.219-.568-.35-1.18-.568-1.836h-.962c.306.437.612.831.874,1.224a3.89,3.89,0,0,1-.131,4.065,1.716,1.716,0,0,1-2.8.044,20.733,20.733,0,0,1-1.617-2.229c-.262-.393-.481-.787-.656-1.093a10.747,10.747,0,0,1-1.486,1.093,1.518,1.518,0,0,1-2.229-1.049,15.749,15.749,0,0,1-.35-1.617c-1.355.7-2.754,1.4-4.153,2.1a1.389,1.389,0,0,1-.612.087,2.58,2.58,0,0,1,.087-.612c.525-1.18,1.093-2.317,1.661-3.5l-.262-.131c-.787-.306-.962-.656-.7-1.443.612-1.617,1.311-3.147,1.836-4.765.568-1.749,1.005-3.541,1.486-5.333.175-.656.437-1.311.568-1.967a2.061,2.061,0,0,1,1.617-1.574c3.06-.831,6.033-1.967,9.268-2.186.918-.044,1.836-.481,2.8-.612a10.382,10.382,0,0,1,2.317-.087,1,1,0,0,0,.918-.306c3.453-3.191,6.907-6.382,10.317-9.617.437-.437.743-.481,1.137,0a19.555,19.555,0,0,0,1.836,1.967c.393.393.393.612-.044,1.005-3.235,2.841-6.47,5.683-9.7,8.568A1.561,1.561,0,0,1,140.411,53.909Z" transform="translate(-79.123 -31.746)" fill="#1664ff"/>
        <path id="Path_4028" data-name="Path 4028" d="M31.9,83.736V19.3H82.259V37c-1.4.306-2.8.612-4.284.918V23.671h-41.7V79.408h41.66V66.774a5.63,5.63,0,0,0,4.328,1.093V83.779Q57.145,83.714,31.9,83.736Z" transform="translate(-31.9 -19.3)" fill="#8a8a8a"/>
        <path id="Path_4029" data-name="Path 4029" d="M83.818,65.644a5.863,5.863,0,0,0-2.535,3.8.593.593,0,0,1-.656.525H51.993a1.21,1.21,0,0,1-.393-.044V65.6Q67.665,65.666,83.818,65.644Z" transform="translate(-42.988 -45.36)" fill="#57a4ff"/>
        <path id="Path_4030" data-name="Path 4030" d="M51.5,82.2H80.439c-.481,1.4-.918,2.754-1.4,4.109a.784.784,0,0,1-.306.219,1.466,1.466,0,0,1-.437,0H51.544C51.5,85.085,51.5,83.686,51.5,82.2Z" transform="translate(-42.932 -54.703)" fill="#57a4ff"/>
        <path id="Path_4031" data-name="Path 4031" d="M67.5,51.084V46.8H86.822v4.284Z" transform="translate(-51.938 -34.778)" fill="#57a4ff"/>
        <path id="Path_4032" data-name="Path 4032" d="M70.266,100.1v4.328H51.6V100.1Z" transform="translate(-42.988 -64.778)" fill="#57a4ff"/>
        <path id="Path_4033" data-name="Path 4033" d="M89.123,126.423a22.907,22.907,0,0,1-1.093,2.317c-.7,1.137-1.355,1.18-2.273.262-1.049,2.8-2.186,3.147-4.415,1.268-.219.393-.35.831-.612,1.224a2.438,2.438,0,0,1-4.2.481,12.21,12.21,0,0,1-2.448-4.94c-.044-.087.044-.262.087-.393.131.087.306.131.35.262a27.053,27.053,0,0,0,1.005,2.623,9.58,9.58,0,0,0,1.617,2.317,1.768,1.768,0,0,0,2.929-.306,4.108,4.108,0,0,0,.656-1.4,1.224,1.224,0,0,0-.087-.874,7.955,7.955,0,0,1-.787-4.9,2.938,2.938,0,0,1,.262-.525c.131.131.35.219.437.393A7.555,7.555,0,0,1,81.429,129a1.938,1.938,0,0,0,1.443,1.749,1.333,1.333,0,0,0,1.7-.525,5.382,5.382,0,0,0,.743-2.973,2.827,2.827,0,0,1,.175-.568c.087.175.219.35.306.525a11.488,11.488,0,0,0,.35,1.311c.262.656.656.743,1.137.219a4.793,4.793,0,0,0,1.224-2.8c.044-.175.131-.35.175-.525a1.361,1.361,0,0,1,.393.306.618.618,0,0,0,.962,0,9.3,9.3,0,0,0,1.093-1.486,3.94,3.94,0,0,1,.393-.437,3.1,3.1,0,0,1,.044.612,8.154,8.154,0,0,1-.7,1.224A1.529,1.529,0,0,1,89.123,126.423Zm-8.131,2.142a5.807,5.807,0,0,0-.612-3.628A6.066,6.066,0,0,0,80.992,128.565Z" transform="translate(-55.637 -78.118)" fill="#1664ff"/>
      </g>
    </g>
    <g id="slide2" transform="translate(-89 -3290)">
      <line id="Line_10" data-name="Line 10" x2="1362" y2="10" transform="translate(0 117.946)" fill="none" stroke="#707070" stroke-width="1" stroke-dasharray="2 2"/>
      <text style="text-align: center;font-weight:400; font-family:Roboto Condensed" id="We_invite_you_to_visit_our_facilities_in_Bangladesh_or_you_monitor_our_interview_and_selection_process_via_our_app-_Amiprobashi" data-name="We invite you to visit our
facilities in Bangladesh, or
you monitor our interview
 and selection process 
via our app- Amiprobashi" transform="translate(796 21)" fill="#0054a5" font-size="15" font-family="RobotoCondensed-Regular, Roboto"><tspan x="0" y="0">WE INVITE YOU TO VISIT OUR</tspan><tspan x="0" y="17">FACILITIES IN BANGLADESH, OR</tspan><tspan x="0" y="34">YOU MONITOR OUR INTERVIEW</tspan><tspan x="0" y="51" xml:space="preserve"> AND SELECTION PROCESS </tspan><tspan x="0" y="68">VIA OUR APP- AMIPROBASHI</tspan></text>
      <g id="Group_800" data-name="Group 800" transform="translate(410 102.098)">
        <g id="Group_796" data-name="Group 796" transform="translate(0 0)">
          <circle id="Ellipse_36" data-name="Ellipse 36" cx="16" cy="16" r="16" fill="#0054a5"/>
          <circle id="Ellipse_37" data-name="Ellipse 37" cx="7" cy="7" r="7" transform="translate(9 9)" fill="#fff"/>
        </g>
        <line id="Line_2" data-name="Line 2" y2="69" transform="translate(16.5 32.5)" fill="none" stroke="#0054a5" stroke-width="1"/>
      </g>
      <g id="Group_802" data-name="Group 802" transform="translate(84 34.884)">
        <g id="Group_795" data-name="Group 795" transform="translate(0 66.5)">
          <circle id="Ellipse_36-2" data-name="Ellipse 36" cx="16" cy="16" r="16" fill="#0054a5"/>
          <circle id="Ellipse_37-2" data-name="Ellipse 37" cx="7" cy="7" r="7" transform="translate(9 9)" fill="#fff"/>
        </g>
        <line id="Line_3" data-name="Line 3" y2="69" transform="translate(16.5 0)" fill="none" stroke="#0054a5" stroke-width="1"/>
      </g>
      <g id="Group_803" data-name="Group 803" transform="translate(729 35.884)">
        <g id="Group_795-2" data-name="Group 795" transform="translate(0 66.5)">
          <circle id="Ellipse_36-3" data-name="Ellipse 36" cx="16" cy="16" r="16" fill="#0054a5"/>
          <circle id="Ellipse_37-3" data-name="Ellipse 37" cx="7" cy="7" r="7" transform="translate(9 9)" fill="#fff"/>
        </g>
        <line id="Line_3-2" data-name="Line 3" y2="69" transform="translate(16.5 0)" fill="none" stroke="#0054a5" stroke-width="1"/>
      </g>
      <g id="Group_801" data-name="Group 801" transform="translate(1051 104.098)">
        <g id="Group_796-2" data-name="Group 796" transform="translate(0 0)">
          <circle id="Ellipse_36-4" data-name="Ellipse 36" cx="16" cy="16" r="16" fill="#0054a5"/>
          <circle id="Ellipse_37-4" data-name="Ellipse 37" cx="7" cy="7" r="7" transform="translate(9 9)" fill="#fff"/>
        </g>
        <line id="Line_2-2" data-name="Line 2" y2="69" transform="translate(16.5 32.5)" fill="none" stroke="#0054a5" stroke-width="1"/>
      </g>
      <text style="text-align: center;font-weight:400; font-family:Roboto Condensed" id="We_conduct_thorough_interviews_verification_from_our_vastmanpower_database" data-name="We conduct thorough interviews
&amp; verification from our vastmanpower 
database" transform="translate(452 155.029)" fill="#0054a5" font-size="15" font-family="RobotoCondensed-Regular, Roboto"><tspan x="0" y="0">WE CONDUCT THOROUGH INTERVIEWS</tspan><tspan x="0" y="17">&amp; VERIFICATION FROM OUR VASTMANPOWER </tspan><tspan x="0" y="34">DATABASE</tspan></text>
      <text style="text-align: center;font-weight:400; font-family:Roboto Condensed" id="You_decide_on_the_exact_individuals_you_want_joining_your_team_based_on_skill_sets" data-name="You decide on the exact  individuals
you want joining your team based on 
skill sets" transform="translate(148 21)" fill="#0054a5" font-size="15" font-family="RobotoCondensed-Regular, Roboto"><tspan x="0" y="0" xml:space="preserve">YOU DECIDE ON THE EXACT  INDIVIDUALS</tspan><tspan x="0" y="17">YOU WANT JOINING YOUR TEAM BASED ON </tspan><tspan x="0" y="34">SKILL SETS</tspan></text>
      <text style="text-align: center;font-weight:400; font-family:Roboto Condensed" id="Agency_agreement:_we_mutually_agree_to_the_terms_conditions_of_our_agency_firmly_decide_on_our_responsibilities" data-name="Agency agreement: we mutually 
agree to the terms &amp; conditions
of our agency, &amp; firmly decide on 
our responsibilities" transform="translate(1101 156.5)" fill="#0054a5" font-size="15" font-family="RobotoCondensed-Regular, Roboto"><tspan x="0" y="0">AGENCY AGREEMENT: WE MUTUALLY </tspan><tspan x="0" y="17">AGREE TO THE TERMS &amp; CONDITIONS</tspan><tspan x="0" y="34">OF OUR AGENCY, &amp; FIRMLY DECIDE ON </tspan><tspan x="0" y="51">OUR RESPONSIBILITIES</tspan></text>
    </g>
  </g>
</svg>
